<svg width="474" height="459" viewBox="0 0 474 459" fill="none" xmlns="http://www.w3.org/2000/svg">
<path d="M64.0474 70.3081L97.1643 33.9918L149.74 17.4782L210.172 21.5752L252.637 42.5846L282.5 69.18L124.165 113.186L98.6795 94.0454L81.5053 150.551L67.1518 163.331L58.9644 111.947L64.0474 70.3081Z" fill="#FF3535"/>
<path d="M110.263 125.45L169.599 87.1869L243.472 70.2005L296.521 76.5091L310.653 94.096L306.654 113.208L211.225 123.694L168.045 142.443L143.347 158.227L128.334 165.012L110.986 145.911L110.263 125.45Z" fill="#EFEBD2"/>
<path d="M119.003 112.945L102.869 98.4506M102.869 98.4506C111.643 94.8721 130.004 86.4641 136.343 83.7343C142.391 81.1297 116.41 92.2182 102.869 98.4506ZM102.869 98.4506C102.9 92.7526 108.05 78.0505 127.317 60.9189M127.317 60.9189C129.672 58.8248 132.238 56.6943 135.032 54.5396C132.86 56.2582 130.198 58.4448 127.317 60.9189ZM127.317 60.9189C116.438 70.2616 102.435 83.7032 99.8936 91.5154C95.8764 103.867 82.9784 146.341 78.0909 154.912C74.1715 161.786 69.4779 165.945 66.4106 168.273C65.1846 169.203 63.2746 168.259 63.1962 166.722C62.418 151.464 60.0112 124.842 59.5564 115.7C58.2485 89.41 61.5803 65.066 75.7651 50.3036C85.1271 40.5605 96.6065 24.1941 148.27 16.7748C189.601 10.8393 230.691 26.5033 246.07 35.0773C265.939 46.1546 278.794 62.4472 287.628 73.793M115.857 121.713C112.529 125.952 107.007 136.687 111.539 145.717C117.205 157.004 123.921 168.5 131.46 165.896C156.131 157.376 160.953 137.964 202.741 126.981C235.008 118.501 260.794 117.289 289.736 118.876C302.458 119.574 308.008 115.415 309.128 111.225C311.822 101.153 312.18 87.6497 299.661 79.7314C286.751 71.5651 260.297 66.3613 215.933 74.4083C179.358 81.0426 152.972 93.3003 140.484 101.288C132.805 106.2 122.345 113.449 115.857 121.713Z" stroke="#3A2D14" stroke-width="9.28059" stroke-linecap="round"/>
<path d="M94.6776 173.378C96.4492 189.502 83.5884 204.94 64.8333 207.001C46.0782 209.061 30.1722 196.784 28.4006 180.66C26.6289 164.536 39.4898 149.098 58.2449 147.038C77 144.977 92.906 157.254 94.6776 173.378Z" fill="#EFEBD2" stroke="#3A2D14" stroke-width="11.1367"/>
<path d="M198.069 95.1261C199.925 91.8779 205.958 85.3815 211.062 82.1332C217.086 78.2996 223.591 76.5649 224.983 76.1009" stroke="#3A2D14" stroke-width="9.28059" stroke-linecap="round"/>
<path d="M266.746 53.5931C270.485 53.4708 279.18 55.2018 284.622 57.8454C291.045 60.9656 295.932 65.5951 297.057 66.5372" stroke="#3A2D14" stroke-width="9.28059" stroke-linecap="round"/>
<circle cx="253.753" cy="279.346" r="173.083" fill="#00C5F1" stroke="#3A2D14" stroke-width="12.0648"/>
<path d="M420.319 292.154C420.64 287.927 420.803 283.655 420.803 279.346C420.803 236.901 404.973 198.153 378.895 168.685L373.074 168.015C371.829 167.872 370.572 168.153 369.507 168.812L342.018 185.829C341.952 185.87 341.879 185.899 341.802 185.914C341.556 185.961 341.306 185.861 341.156 185.66C336.264 179.092 327.833 174.754 318.253 174.754C303.132 174.754 291.339 185.427 291.339 195.172L291.339 195.286L291.34 195.37C291.34 195.457 291.342 195.545 291.343 195.632L291.339 195.638V199.625C291.339 202.291 293.5 204.452 296.166 204.452H298.299C299.837 204.452 301.083 205.699 301.083 207.237C301.083 208.774 299.837 210.021 298.299 210.021H293.169C291.98 210.021 290.823 210.401 289.866 211.106L286.104 213.878C284.009 215.421 283.263 218.209 284.305 220.593L287.559 228.03C288.446 230.056 290.448 231.366 292.66 231.366H297.921C299.625 231.366 301.235 232.146 302.291 233.484L306.382 238.665C307.158 239.648 307.58 240.864 307.58 242.116V254.568C307.58 257.643 310.073 260.136 313.148 260.136H320.341C323.032 260.136 325.213 257.954 325.213 255.264C325.213 252.573 327.394 250.391 330.085 250.391H343.078C346.025 250.391 348.414 252.781 348.414 255.728C348.414 258.675 346.025 261.064 343.078 261.064H332.147C327.563 261.064 324.942 266.292 327.685 269.965L345.957 294.425C347.987 297.143 351.956 297.429 354.355 295.03L372.305 277.08C373.349 276.035 374.766 275.449 376.243 275.449H386.305C387.608 275.449 388.869 275.906 389.87 276.739L391.886 278.42C393.155 279.477 393.889 281.045 393.889 282.697V286.586C393.889 289.661 396.382 292.154 399.458 292.154H420.319Z" fill="#00B100"/>
<path d="M129.238 167.979H147.49C150.565 167.979 153.058 170.472 153.058 173.547V184.684C153.058 184.94 153.266 185.148 153.522 185.148C144.042 185.341 136.353 191.796 136.353 199.997C136.353 208.197 144.04 214.846 153.522 214.846H163.267C166.342 214.846 168.835 212.353 168.835 209.277V207.885C168.835 204.81 171.328 202.317 174.403 202.317H185.649C187.069 202.317 188.436 202.86 189.469 203.834L202.353 215.981C203.469 217.033 204.101 218.499 204.101 220.033V233.089C204.101 234.487 203.576 235.834 202.629 236.862L189.514 251.1C188.46 252.245 186.975 252.896 185.419 252.896H176.099C173.085 252.896 170.715 255.367 169.642 258.184C167.505 263.791 162.339 267.745 156.306 267.745H143.777C140.702 267.745 138.209 270.238 138.209 273.313V281.666C138.209 284.741 135.716 287.234 132.641 287.234H122.665C120.783 287.234 119.028 286.283 118 284.706L90.705 242.829C97.0237 214.492 110.541 188.869 129.238 167.979Z" fill="#00B100"/>
<path d="M192.036 189.324C190.499 189.324 189.252 190.571 189.252 192.108C189.252 193.376 189.707 194.039 190.644 194.892L206.885 209.741C209.265 211.91 211.839 211.795 213.846 209.277L234.441 188.063C235.227 187.077 235.655 185.853 235.655 184.592V181.849C235.655 180.394 235.086 178.997 234.068 177.956L216.876 160.373C215.828 159.302 214.393 158.698 212.895 158.698H184.148C181.585 158.698 179.508 160.776 179.508 163.338C179.508 165.901 181.585 167.979 184.148 167.979H192.036C199.725 167.979 205.957 173.588 205.957 180.507C205.957 187.427 199.723 189.161 192.036 189.324Z" fill="#00B100"/>
<path d="M139.517 296.222C136.083 292.692 138.583 286.77 143.507 286.77H178.593C180.07 286.77 181.486 287.357 182.531 288.401L211.751 317.621C212.795 318.666 214.211 319.252 215.688 319.252H224.054C227.13 319.252 229.623 321.745 229.623 324.821V337.793L229.623 337.797L229.622 337.801C229.622 337.804 229.621 337.807 229.62 337.809C229.617 337.816 229.613 337.822 229.607 337.827C229.598 337.835 229.592 337.847 229.591 337.859C229.056 346.119 221.768 352.662 213.382 352.662C213.086 352.662 212.792 352.654 212.501 352.638C212.489 352.638 212.478 352.642 212.469 352.649C212.463 352.654 212.459 352.66 212.457 352.667C212.455 352.672 212.454 352.678 212.454 352.683V364.169C212.454 365.709 211.816 367.181 210.692 368.234L184.982 392.311C183.858 393.364 183.22 394.835 183.22 396.375V398.257C183.22 402.432 178.794 405.122 175.088 403.2L169.519 400.311C167.673 399.354 166.515 397.448 166.515 395.368V338.271C166.515 338.017 166.305 337.814 166.051 337.814C155.378 337.814 147.026 332.709 147.026 322.965V306.201C147.026 304.751 146.46 303.358 145.448 302.318L139.517 296.222Z" fill="#00B100"/>
<path d="M246.328 273.777C246.328 270.702 248.821 268.209 251.896 268.209H313.148C314.912 268.209 315.81 269.112 316.86 270.529L342.382 304.867C343.432 306.284 344.33 307.188 346.094 307.188H354.861C355.389 307.188 355.839 307.587 355.839 308.116C355.839 311.383 354.067 314.255 351.388 315.909C348.771 317.524 346.094 319.889 346.094 322.965V344.833C346.094 346.283 345.529 347.676 344.518 348.715L331.429 362.178C330.419 363.218 329.853 364.61 329.853 366.06V374.936C329.853 378.011 327.36 380.504 324.285 380.504H314.115C312.607 380.504 311.164 379.893 310.115 378.81L298.94 367.275C297.934 366.236 297.371 364.847 297.371 363.4V330.389C297.371 327.314 294.878 324.821 291.803 324.821H277.918C277.906 324.821 277.894 324.818 277.882 324.814C277.872 324.81 277.863 324.804 277.854 324.797C277.835 324.78 277.81 324.772 277.785 324.773C277.203 324.805 276.616 324.821 276.026 324.821C259.795 324.821 246.605 312.817 246.332 297.913L246.33 297.909L246.328 297.906L246.328 297.904V273.777Z" fill="#00B100"/>
<path d="M266.745 237.398C266.745 234.323 269.238 231.83 272.314 231.83H287.383C289.312 231.83 290.875 233.393 290.875 235.321C290.875 236.068 290.636 236.794 290.192 237.395L278.159 253.698C277.109 255.12 275.447 255.96 273.679 255.96H272.314C269.238 255.96 266.745 253.467 266.745 250.391V237.398Z" fill="#00B100"/>
<path d="M278.81 216.981C281.885 216.981 284.378 214.488 284.378 211.413V205.438C284.378 203.1 282.483 201.204 280.144 201.204C278.8 201.204 277.536 201.842 276.738 202.924L269.047 213.343C268.758 213.735 268.601 214.21 268.601 214.698C268.601 215.959 269.623 216.981 270.884 216.981H278.81Z" fill="#00B100"/>
<path d="M171.549 165.134C172.737 167.946 171.429 171.191 168.626 172.382C163.909 174.387 159.841 176.404 156.205 178.622C162.822 183.441 174.702 189.75 188.753 195.18C203.927 201.044 221 205.634 235.851 206.31C278.225 208.237 309.872 199.895 344.12 177.788C346.679 176.136 350.09 176.878 351.738 179.446C353.386 182.014 352.647 185.436 350.087 187.088C313.836 210.488 279.912 219.383 235.355 217.356C233.3 217.263 231.216 217.103 229.113 216.884C227.678 222.474 223.71 230.745 215.505 239.698C201.235 255.271 183.542 254.532 177.537 253.082C172.367 251.833 159.517 248.36 151.968 234.714C147.62 226.853 145.766 215.891 145.188 206.247C144.759 199.093 145 192.04 145.718 186.689C142.209 190.085 138.98 194.047 135.669 198.887C133.947 201.405 130.516 202.045 128.005 200.317C125.495 198.589 124.856 195.147 126.578 192.63C136.966 177.442 147.178 169.487 164.323 162.2C167.126 161.009 170.361 162.323 171.549 165.134Z" fill="#3A2D14"/>
<path d="M168.769 264.024C166.163 262.445 162.775 263.285 161.201 265.899C159.628 268.512 160.466 271.911 163.072 273.49C171.82 278.789 183.798 278.867 192.081 276.993C195.05 276.321 196.914 273.362 196.244 270.383C195.573 267.404 192.622 265.534 189.653 266.206C182.908 267.732 174.175 267.299 168.769 264.024Z" fill="#3A2D14"/>
<path d="M194.493 243.864C188.759 245.765 183.387 246.406 176.253 244.632C167.859 242.544 160.513 235.749 158.576 229.19C161.683 224.079 176.159 222.68 182.9 224.979C190.484 227.565 194.242 237.915 194.493 243.864Z" fill="#F783A4"/>
<path d="M257.001 141.065C257.001 149.01 254.467 180.507 244.472 180.507C234.477 180.507 218.486 158.754 218.486 150.81C218.486 142.865 222.412 121.576 232.407 121.576C242.402 121.576 257.001 133.12 257.001 141.065Z" fill="#EFEBD2"/>
<path d="M302.94 129C302.94 136.945 306.902 166.123 296.907 166.123C256.537 157.77 255.609 141.121 255.609 133.176C255.609 125.232 259.535 103.943 269.53 103.943C279.524 103.943 302.94 121.056 302.94 129Z" fill="#EFEBD2"/>
<path d="M248.184 118.328C248.184 126.272 240.082 132.712 230.087 132.712C220.092 132.712 209.67 136.017 209.67 128.072C209.67 120.128 213.596 98.8383 223.591 98.8383C233.585 98.8383 248.184 110.383 248.184 118.328Z" fill="#00B100"/>
<path d="M295.979 110.439C295.979 118.384 287.877 124.824 277.882 124.824C267.887 124.824 257.465 128.128 257.465 120.184C257.465 112.239 261.391 90.9498 271.386 90.9498C281.381 90.9498 295.979 102.494 295.979 110.439Z" fill="#00B100"/>
<path fill-rule="evenodd" clip-rule="evenodd" d="M244.509 188.024L244.013 188.098L243.508 188.127C238.047 188.437 233.195 185.669 230.376 183.735C227.017 181.431 223.686 178.315 220.632 174.717C214.503 167.494 208.686 157.381 205.816 145.406C205.715 144.983 205.616 144.561 205.52 144.138C205.026 144.296 204.525 144.457 204.017 144.62C203.483 144.792 202.94 144.968 202.39 145.146C199.541 146.07 196.48 144.519 195.553 141.682C194.625 138.845 196.182 135.796 199.031 134.872C200.653 134.346 202.205 133.848 203.694 133.377C202.932 126.498 203.019 119.945 204.07 114.246C205.547 106.235 209.982 95.3593 221.872 93.59C233.133 91.9143 242.688 99.6674 248.453 106.682C249.148 107.527 249.827 108.405 250.49 109.315C250.701 107.496 250.995 105.74 251.373 104.061C253.212 95.8871 258.159 85.4736 269.71 83.7547C281.261 82.0358 290.688 90.3104 296.184 97.3924C299.796 102.047 302.97 107.673 305.529 113.883C307.2 113.729 308.72 113.596 310.052 113.484C313.037 113.233 315.661 115.44 315.913 118.413C316.165 121.386 313.949 124 310.964 124.251C310.381 124.3 309.764 124.353 309.117 124.409C309.383 125.382 309.635 126.362 309.872 127.348C312.631 138.857 313.031 150.121 310.993 159.175C309.541 165.631 306.149 173.484 299.096 177.346C297.842 181.469 294.982 185.677 289.611 188.749C287.532 189.938 284.88 189.224 283.687 187.154C282.493 185.084 283.211 182.442 285.289 181.253C291.039 177.964 291.638 172.993 291.046 170.25C290.84 169.295 290.065 167.928 288.529 166.659C287.036 165.424 285.074 164.501 282.938 164.227C280.763 163.949 279.22 164.321 277.998 164.952C276.703 165.62 275.505 166.716 274.288 168.258C273.745 168.945 273.253 170.148 272.938 171.71C272.635 173.214 272.58 174.628 272.61 175.355C272.708 177.74 270.847 179.753 268.453 179.852C266.059 179.95 264.038 178.096 263.939 175.711C263.882 174.332 263.982 172.225 264.429 170.008C264.707 168.631 265.154 167.026 265.896 165.47C265.313 164.706 264.742 163.916 264.183 163.103C263.928 164.829 263.596 166.496 263.186 168.093C261.089 176.275 255.815 186.342 244.509 188.024ZM273.208 157.717C273.468 157.564 273.734 157.417 274.007 157.276C276.871 155.799 280.202 155.162 284.043 155.653C287.921 156.149 291.399 157.798 294.072 160.007C295.323 161.041 296.458 162.251 297.381 163.591C301.666 156.52 302.608 143.398 299.143 128.945C298.86 127.763 298.553 126.597 298.225 125.451C295.495 125.731 292.598 126.042 289.624 126.378C291.992 132.511 292.324 140.773 282.722 145.825C276.636 149.027 268.49 147.058 265.15 141.048C267.282 147.457 270.08 153.158 273.208 157.717ZM250.381 132.609C250.937 134.34 251.438 136.121 251.875 137.945C256.735 158.218 251.908 176.038 241.989 177.514C237.132 177.79 225.78 168.005 219.448 152.728C223.444 156.38 229.83 157.185 234.849 154.544C244.847 149.284 244.225 140.652 241.67 134.468L243.548 134.07C245.697 133.616 247.942 133.141 250.381 132.609ZM246.212 122.453C244.544 122.812 242.953 123.148 241.402 123.476L241.397 123.477C233.034 125.246 225.878 126.76 214.381 130.115C213.384 116.021 216.798 105.23 224.391 104.1C231.545 103.035 240.148 110.566 246.212 122.453ZM261.143 119.373C271.223 117.637 283.826 116.103 294.413 114.983C288.469 101.775 279.738 93.1471 272.229 94.2645C264.82 95.3669 260.696 105.644 261.143 119.373Z" fill="#3A2D14"/>
<path d="M75.7642 56.6671L70.9614 74.3107C70.7154 75.227 70.2923 76.06 69.7267 76.7412C69.1611 77.4223 68.4693 77.9322 67.708 78.2288L53.0138 84.0451L67.6752 89.8249C68.4366 90.1209 69.1288 90.6301 69.6948 91.3107C70.2608 91.9914 70.6845 92.8239 70.931 93.74L75.7642 111.423L80.5671 93.7795C80.8131 92.8632 81.2362 92.0303 81.8018 91.3491C82.3674 90.668 83.0592 90.1581 83.8204 89.8615L98.5147 84.0451L83.8533 78.2653C83.0919 77.9694 82.3997 77.4602 81.8337 76.7795C81.2677 76.0989 80.844 75.2664 80.5975 74.3503L75.7642 56.6671Z" fill="#FFD439" stroke="#3A2D14" stroke-width="9.28059" stroke-linecap="round" stroke-linejoin="round"/>
<path d="M132.833 123.488L130.147 134.852C130.009 135.442 129.773 135.978 129.456 136.417C129.14 136.856 128.753 137.184 128.327 137.375L120.108 141.121L128.309 144.844C128.735 145.035 129.122 145.363 129.438 145.801C129.755 146.239 129.992 146.775 130.13 147.365L132.833 158.755L135.52 147.391C135.657 146.801 135.894 146.264 136.21 145.826C136.527 145.387 136.913 145.059 137.339 144.867L145.558 141.121L137.358 137.399C136.932 137.208 136.545 136.88 136.228 136.442C135.911 136.003 135.674 135.467 135.537 134.877L132.833 123.488Z" fill="#FFD439" stroke="#3A2D14" stroke-width="9.28059" stroke-linecap="round" stroke-linejoin="round"/>
<path d="M48.1529 216.238L109.216 222.058V256.979L74.7019 246.926L58.7725 251.688L60.8964 285.551L73.1089 300.895H101.251L119.304 315.71L117.711 334.758L129.393 350.102L125.145 369.679L92.7552 385.552L53.4627 389.785L37.5333 355.393L22.6659 334.758L42.3121 319.943L29.0377 284.493L24.2588 240.577L48.1529 216.238Z" fill="#00B100"/>
<path d="M104.144 256.693C99.0807 253.301 86.7139 246.237 73.8559 247.402C61.0565 248.562 55.569 252.578 56.0259 256.24C58.273 274.251 68.6678 296.497 71.2301 301.882C74.575 300.456 88.2469 296.166 98.3432 299.263C106.109 301.645 119.992 312.546 121.335 322.614C123.133 336.092 108.837 350.306 99.2081 353.025C89.5796 355.743 76.0837 357.779 69.6786 350.968C59.7811 340.443 71.637 332.18 74.1218 330.104C77.6408 327.164 86.8082 321.733 95.3271 323.528M119.394 341.488C124.457 344.881 133.904 354.022 131.185 363.448C128.465 372.874 121.83 378.116 114.666 378.666C110.846 378.959 103.204 379.545 97.7036 374.025C93.303 369.61 90.3772 361.985 89.4643 358.725M99.2761 378.135C98.7926 381.682 95.8709 389.18 88.0515 390.787C78.2773 392.796 71.6413 385.294 68.8181 382.18C65.9949 379.066 61.0161 369.006 63.5713 356.658M72.6309 386.568C70.5952 388.465 64.592 392.063 56.8648 391.287C47.2058 390.317 42.3421 377.278 41.7592 374.443C40.4394 368.023 37.7089 358.281 47.4525 352.583C50.9385 350.545 57.8763 350.194 60.7175 349.856M107.651 224.2C99.5037 219.964 80.7075 213.484 69.9436 214.219C56.429 215.142 45.7691 216.972 35.0664 225.084C24.3637 233.195 16.2232 246.691 24.1781 278.306C30.5419 303.598 36.4277 312.966 38.6985 316.932C32.8523 320.351 25.9143 324.357 22.9488 332.498C22.2021 336.886 22.5492 351.792 38.6985 359.555" stroke="#3A2D14" stroke-width="10.2087" stroke-linecap="round"/>
<circle cx="414.379" cy="92.3419" r="11.6007" fill="#FFD439" stroke="#3A2D14" stroke-width="9.28059"/>
<circle cx="390.249" cy="60.7879" r="11.6007" fill="#FFD439" stroke="#3A2D14" stroke-width="9.28059"/>
<circle cx="379.112" cy="124.824" r="6.96045" fill="#FFD439" stroke="#3A2D14" stroke-width="9.28059"/>
<circle cx="465.886" cy="148.489" r="4.6403" fill="#FFD439" stroke="#3A2D14" stroke-width="5.56836"/>
</svg>
