<svg width="705" height="837" viewBox="0 0 705 837" fill="none" xmlns="http://www.w3.org/2000/svg">
<path d="M53.5112 257.427L66.8655 286.244L74.597 295.381L83.0312 272.187L113.957 265.158L164.563 244.073L192.677 210.336L216.574 188.547L253.826 199.09V250.398L344.494 286.244L544.106 295.381L537.78 233.53L506.151 188.547L468.9 137.238L395.1 65.5468L344.494 30.404L287.563 5.80396H265.774L253.826 24.7811L222.197 65.5468L164.563 88.0383L139.963 112.638L107.631 180.815L66.8655 216.661L53.5112 257.427Z" fill="#DF3030"/>
<path fill-rule="evenodd" clip-rule="evenodd" d="M265.386 5.10132H287.708L344.837 29.7868L395.548 65.0027L469.433 136.777L506.726 188.143L538.46 233.276L544.888 296.121L344.345 286.941L253.122 250.877V199.622L216.759 189.33L193.186 210.823L164.992 244.655L114.171 265.831L83.5605 272.788L74.843 296.761L66.2674 286.626L52.7568 257.471L66.2571 216.26L107.058 180.384L139.379 112.227L164.17 87.4373L221.76 64.9629L253.249 24.3776L265.386 5.10132ZM266.162 6.50703L254.402 25.185L222.633 66.1313L164.955 88.6397L140.545 113.05L108.204 181.248L67.4735 217.063L54.2651 257.383L67.4631 285.863L74.3503 294.002L82.5014 271.587L113.742 264.487L164.133 243.49L192.168 209.849L216.389 187.764L254.528 198.558V249.921L344.643 285.548L543.323 294.642L537.099 233.784L505.582 188.96L505.576 188.951L468.367 137.7L394.651 66.0915L344.151 31.0215L287.417 6.50703H266.162Z" fill="black"/>
<path d="M211.654 383.942L223.603 356.53L286.157 305.924L385.26 299.599L539.186 356.53L562.38 383.942L580.654 407.136L597.523 461.256V490.776H610.174L655.86 513.97L686.786 544.193L655.86 530.839L686.786 565.982L696.626 604.639L668.512 580.039L681.866 629.942L655.86 604.639L648.832 655.245L641.1 621.507L631.963 636.97L580.654 709.365L515.991 758.565L442.191 788.787L362.769 807.062L328.329 830.959L311.46 788.787L266.477 758.565L193.38 709.365L146.288 677.736L109.037 630.645L94.9798 597.61L89.357 630.645L78.1112 597.61V559.656L65.4598 563.873L82.3284 517.484L94.9798 490.776L53.5112 497.804L82.3284 468.284L117.471 457.742L94.9798 444.387H117.471H160.346L193.38 457.742L202.517 420.49L211.654 383.942Z" fill="#3E8937"/>
<path d="M402.831 525.919L414.077 493.587L392.991 473.204V453.524L402.831 436.656L414.077 453.524L433.054 461.959L459.06 449.307L478.74 436.656L501.231 432.439L527.237 427.519L535.671 436.656L551.837 442.981L558.163 453.524H546.917H522.317L497.014 461.959V473.204L501.231 507.644L497.014 535.759L483.66 569.496L459.06 582.85H433.054L414.077 563.17L402.831 525.919Z" fill="#3A2D14"/>
<path fill-rule="evenodd" clip-rule="evenodd" d="M221.811 349.117C224.529 349.117 226.731 351.32 226.731 354.037C226.731 360.073 224.577 366.491 222.264 372.144C221.129 374.916 219.891 377.656 218.74 380.199L218.602 380.505C217.395 383.175 216.307 385.594 215.446 387.786C213.029 393.937 211.36 399.923 209.612 406.191C208.569 409.931 207.497 413.772 206.222 417.809C204.389 423.616 203.86 429.786 203.32 436.575L203.283 437.033C202.769 443.505 202.207 450.575 200.117 457.369C199.557 459.189 198.24 460.709 196.326 461.412C194.721 462.002 193.2 461.829 192.253 461.635C190.345 461.242 188.417 460.242 186.989 459.412C185.445 458.514 183.943 457.486 182.792 456.669C182.277 456.304 181.813 455.967 181.446 455.701L181.311 455.603C181.207 455.527 181.115 455.46 181.033 455.401C180.96 455.348 180.894 455.301 180.836 455.26C180.726 455.181 180.683 455.153 180.683 455.153C180.683 455.153 180.686 455.154 180.691 455.157C173.391 450.486 166.451 448.223 157.638 447.295C139.385 445.374 121.101 444.487 103.594 447.537C106.978 448.585 110.223 449.753 113.222 450.952C115.427 451.834 117.424 452.96 119.167 453.98C119.538 454.198 119.895 454.408 120.24 454.613C121.603 455.417 122.798 456.123 124.058 456.753C124.294 456.871 124.94 457.116 126.048 457.458C126.876 457.714 127.758 457.964 128.628 458.21C128.84 458.271 129.052 458.331 129.262 458.391L129.302 458.402C130.183 458.653 131.38 458.995 132.143 459.32L132.149 459.322C132.315 459.393 132.858 459.624 133.406 460.038C133.623 460.202 134.409 460.801 134.933 461.903C135.234 462.535 135.498 463.443 135.389 464.527C135.278 465.638 134.814 466.542 134.278 467.189C133.365 468.295 132.252 468.667 131.971 468.76C131.538 468.903 131.167 468.962 130.966 468.989C130.55 469.044 130.162 469.051 129.905 469.051C125.446 469.051 121.297 467.837 117.928 466.851C117.45 466.711 116.988 466.576 116.544 466.45C112.715 465.361 109.673 464.727 106.426 465.28C88.4322 468.342 73.3007 478.316 62.511 492.824C63.2028 492.457 63.9044 492.115 64.6124 491.808C70.8508 489.105 78.3846 486.391 85.7852 485.634C86.9888 485.511 91.4687 485.389 95.2121 485.826C96.1797 485.939 97.1995 486.1 98.1599 486.34C99.0475 486.561 100.232 486.931 101.304 487.621C102.353 488.296 104.202 489.914 104.204 492.696C104.205 495.156 102.709 496.811 101.866 497.594C92.8714 505.947 87.5028 518.04 82.2852 530.353C81.454 532.315 80.6173 534.237 79.7932 536.13C76.5912 543.485 73.581 550.4 71.8335 557.478C72.5925 556.377 73.3988 555.252 74.179 554.192C75.3914 552.544 76.5795 550.999 77.4804 549.888C77.9167 549.35 78.3464 548.838 78.7007 548.457L78.7016 548.456C78.8255 548.323 79.1546 547.968 79.562 547.652C79.6818 547.559 79.9014 547.396 80.1943 547.23C80.3937 547.118 81.0918 546.727 82.0844 546.613C83.3355 546.47 85.5031 546.801 86.8167 548.873C87.7468 550.34 87.5878 551.771 87.5543 552.073L87.5542 552.074C87.1821 555.423 86.7846 558.635 86.3983 561.757C84.7022 575.462 83.2207 587.433 85.049 601.603C85.3999 604.322 86.4331 608.522 87.7701 613.08C87.8906 612.061 88.0295 611.055 88.1878 610.066C88.3656 608.954 89.4993 603.967 90.8148 599.342C91.4776 597.012 92.2402 594.579 93.014 592.67C93.3889 591.745 93.8525 590.725 94.4097 589.859C94.6816 589.437 95.1082 588.84 95.7162 588.297C96.2647 587.807 97.5334 586.85 99.4038 586.85C102.449 586.85 103.956 589.089 104.452 590.182C104.928 591.23 105.048 592.271 105.094 592.806C105.148 593.439 105.145 594.03 105.138 594.406C105.135 594.535 105.132 594.684 105.129 594.778C105.129 594.784 105.129 594.79 105.129 594.795C106.24 608.438 114.331 623.177 121.628 636.017C136.682 662.505 156.687 682.126 182.518 698.515C195.711 706.885 209.293 714.931 222.943 723.018C245.208 736.208 267.652 749.503 288.87 764.481C301.065 773.089 314.584 783.742 321.775 798.724C326.038 807.607 329.09 816.764 332.057 825.667L332.228 826.177C333.087 828.755 331.694 831.541 329.116 832.4C326.538 833.26 323.752 831.866 322.892 829.289L322.807 829.032C319.781 819.952 316.897 811.301 312.904 802.982C306.913 790.502 295.347 781.098 283.196 772.52C262.195 757.696 240.47 744.835 218.529 731.846C204.811 723.726 191.009 715.555 177.246 706.824C150.254 689.698 129.031 668.958 113.073 640.878C108.088 632.106 101.933 621.196 98.2909 609.823C98.2255 610.109 98.1669 610.372 98.1155 610.606C98.0495 610.906 97.9972 611.152 97.9591 611.34C97.917 611.546 97.9033 611.626 97.9042 611.621C96.7531 618.815 96.7478 627.345 97.4605 634.758C97.5407 635.592 97.5875 636.453 97.5348 637.241C97.5088 637.63 97.4485 638.176 97.2766 638.767C97.1333 639.259 96.7381 640.415 95.6287 641.372C94.2029 642.602 92.3949 642.843 90.8972 642.426C89.7206 642.098 88.9491 641.437 88.6202 641.132C87.9122 640.476 87.4048 639.69 87.1059 639.197C85.8369 637.105 84.2502 633.285 82.7369 629.191C79.6683 620.889 76.1175 609.276 75.2899 602.862C73.9527 592.499 74.2533 583.079 75.1126 573.853C73.0878 580.524 71.73 587.297 71.73 593.863C71.73 594.411 71.7238 594.885 71.7078 595.262C71.7 595.445 71.6875 595.669 71.6634 595.897C71.6516 596.009 71.6309 596.18 71.5941 596.378L71.5936 596.38C71.5699 596.508 71.4844 596.967 71.2525 597.499C71.1459 597.744 70.8562 598.369 70.2511 598.988C69.5802 599.674 68.1634 600.667 66.1697 600.441C64.4183 600.242 63.3866 599.21 63.0247 598.799C62.6084 598.327 62.3786 597.882 62.2809 597.681C61.9678 597.037 61.8533 596.417 61.8399 596.344L61.8388 596.338C61.7648 595.967 61.7123 595.543 61.6743 595.205C61.5112 593.757 61.3102 591.025 61.1205 587.893C60.7404 581.617 60.3662 573.072 60.4421 568.668C60.6738 555.232 66.0224 543.019 70.8895 531.904C71.6893 530.078 72.4761 528.282 73.225 526.514C77.5155 516.389 82.5079 504.769 90.4311 495.372C90.1131 495.365 89.8002 495.361 89.4964 495.36C88.7759 495.356 88.1345 495.366 87.6348 495.382C87.3848 495.39 87.1784 495.399 87.0211 495.408C86.8499 495.417 86.7804 495.423 86.7864 495.423C80.8969 496.025 74.4648 498.263 68.5248 500.837C66.2053 501.842 63.898 503.437 61.0829 505.383C60.8106 505.572 60.5336 505.763 60.2513 505.958C57.3027 507.991 53.7069 510.411 49.7675 511.642C49.2578 511.801 48.5442 511.981 47.7315 512.003C46.9578 512.024 45.5274 511.914 44.1888 510.885C42.7045 509.743 42.2143 508.169 42.1298 507.033C42.0542 506.017 42.2708 505.172 42.4208 504.693C42.7283 503.711 43.2417 502.793 43.6472 502.127C44.0943 501.392 44.6251 500.62 45.1654 499.871C46.1052 498.568 47.2211 497.135 48.2293 495.84C48.3733 495.655 48.5151 495.473 48.6538 495.295C49.8339 493.777 50.7414 492.587 51.2514 491.799C62.5499 474.338 79.2575 461.526 99.6618 456.626C92.6863 454.541 85.3828 453.117 78.8818 453.117C78.7772 453.117 78.4339 453.116 78.0032 453.038C77.7672 452.989 77.177 452.812 76.8299 452.669C76.28 452.374 75.0555 451.292 74.5016 450.442C74.0726 449.246 74.1112 446.983 74.4587 446.036C74.7649 445.498 75.3885 444.729 75.6609 444.475C76.1256 444.073 76.5619 443.854 76.6656 443.802L76.672 443.799C76.9514 443.658 77.1864 443.575 77.2395 443.556L77.2439 443.555C77.3329 443.523 77.4054 443.501 77.4446 443.489C77.5753 443.448 77.695 443.417 77.7338 443.407L77.7362 443.407C77.8503 443.377 77.9934 443.342 78.1366 443.308C78.4355 443.236 78.8648 443.135 79.3764 443.016C79.8934 442.896 80.5202 442.751 81.208 442.592C81.8725 442.438 82.5939 442.271 83.3284 442.101C86.3971 441.388 89.7169 440.608 91.116 440.229C113.398 434.194 136.674 435.194 158.668 437.509C168.845 438.58 177.279 441.291 185.995 446.869C186.285 447.055 186.873 447.481 187.481 447.921C187.827 448.171 188.178 448.426 188.486 448.644C189.471 449.343 190.593 450.107 191.679 450.755C192.689 446.098 193.084 441.159 193.511 435.795L193.513 435.765C194.039 429.15 194.618 421.879 196.839 414.846C197.899 411.489 198.894 407.941 199.911 404.312C201.777 397.655 203.72 390.722 206.287 384.188C207.254 381.725 208.449 379.077 209.636 376.451L209.75 376.199C210.919 373.615 212.092 371.021 213.156 368.418C215.402 362.929 216.891 358.027 216.891 354.037C216.891 351.32 219.094 349.117 221.811 349.117ZM194.235 451.996C194.231 451.996 194.226 451.994 194.221 451.993C194.259 451.999 194.265 452.003 194.235 451.996ZM95.1707 490.384C95.1655 490.388 95.1602 490.393 95.155 490.398C95.2062 490.343 95.2201 490.338 95.1707 490.384ZM85.9496 555.113C85.9498 555.113 85.9396 555.124 85.92 555.143C85.9399 555.122 85.9495 555.113 85.9496 555.113ZM102.684 595.185C102.693 595.17 102.692 595.174 102.679 595.192C102.681 595.189 102.682 595.187 102.684 595.185ZM95.288 593.628C95.2823 593.595 95.2807 593.578 95.2813 593.578C95.282 593.578 95.2847 593.594 95.288 593.628ZM95.6286 634.263C95.6288 634.263 95.6239 634.257 95.614 634.243C95.6235 634.255 95.6284 634.262 95.6286 634.263ZM46.8325 502.25C46.8178 502.254 46.8212 502.253 46.8409 502.247C46.8381 502.248 46.8353 502.249 46.8325 502.25ZM80.2028 452.932C80.2048 452.932 80.2072 452.931 80.2099 452.931C80.1936 452.935 80.1896 452.936 80.2028 452.932Z" fill="#3A2D14"/>
<path fill-rule="evenodd" clip-rule="evenodd" d="M558.587 381.507C561.018 380.291 563.973 381.276 565.188 383.707C568.103 389.537 571.6 394.833 575.291 400.423L575.362 400.529C579.031 406.087 582.888 411.937 586.124 418.497C589.967 426.286 595.745 438.218 599.633 450.552C602.999 461.23 605.29 473.216 602.784 483.269C603.905 483.572 605.286 483.88 606.852 484.186C608.879 484.583 611.002 484.938 612.987 485.27C613.402 485.34 613.811 485.408 614.212 485.476C616.293 485.827 618.618 486.223 619.948 486.66C632.825 490.898 644.824 497.312 655.886 504.611C665.739 511.111 677.852 521.933 684.998 531.732C686.699 534.066 688.733 536.992 690.469 540.141C692.18 543.244 693.768 546.855 694.335 550.542C694.425 551.124 694.708 554.125 691.817 555.725C690.683 556.352 689.613 556.378 689.039 556.34C688.44 556.299 687.968 556.161 687.697 556.07C686.814 555.771 686.081 555.255 685.819 555.071L685.809 555.063C685.05 554.529 684.15 553.774 683.385 553.109C682.581 552.41 681.768 551.673 681.141 551.098C680.887 550.865 680.658 550.655 680.473 550.484L680.35 550.371C680.227 550.258 680.151 550.188 680.109 550.149C680.066 550.11 680.057 550.102 680.07 550.113C679.53 549.649 678.985 549.191 678.435 548.738C686.794 560.787 694.239 573.339 700.326 587.036C700.324 587.031 700.327 587.037 700.338 587.062C700.35 587.087 700.372 587.134 700.408 587.209C700.457 587.313 700.555 587.517 700.64 587.698C700.829 588.096 701.077 588.624 701.356 589.235C701.906 590.446 702.596 592.032 703.189 593.643C703.748 595.164 704.358 597.066 704.55 598.795C704.64 599.607 704.709 600.937 704.238 602.308C703.655 604.003 702.197 605.747 699.769 606.188C698.321 606.452 697.013 606.204 696.082 605.926C695.115 605.637 694.212 605.212 693.431 604.783C691.875 603.929 690.307 602.782 688.948 601.708C687.595 600.639 686.289 599.512 685.239 598.607L685.171 598.548C683.984 597.525 683.346 596.985 683.058 596.787C680.036 594.703 677.002 592.641 673.948 590.629C679.608 600.257 683.294 611.036 684.769 621.677C685.061 623.783 685.634 626.801 686.26 630.105C686.779 632.839 687.335 635.769 687.8 638.542C688.255 641.256 688.681 644.15 688.626 645.984C688.613 646.418 688.569 647.293 688.245 648.204C688.082 648.663 687.705 649.551 686.848 650.345C685.826 651.292 684.397 651.836 682.863 651.682C681.57 651.551 680.663 650.97 680.225 650.643C679.744 650.285 679.393 649.904 679.167 649.636C678.714 649.098 678.338 648.496 678.038 647.971C676.344 645.006 674.699 641.912 673.099 638.9C672.248 637.298 671.409 635.72 670.582 634.197C669.352 631.932 668.197 629.655 667.039 627.373C665.029 623.412 663.014 619.439 660.593 615.502C659.646 613.962 658.677 612.501 657.678 611.136C659.863 624.28 660.741 638.426 657.479 652.067C654.344 665.176 649.653 677.278 642.569 688.894C641.577 690.521 640.725 691.962 640.014 693.164C639.851 693.439 639.696 693.702 639.548 693.951C639.159 694.608 638.805 695.2 638.513 695.67C638.297 696.016 637.896 696.66 637.468 697.151C637.357 697.278 637.054 697.619 636.603 697.952C636.379 698.117 635.925 698.426 635.281 698.652C634.636 698.878 633.409 699.15 631.991 698.647C630.483 698.113 629.627 697.017 629.213 696.184C628.838 695.429 628.745 694.758 628.715 694.435C628.652 693.782 628.734 693.256 628.761 693.087C628.871 692.396 629.14 691.62 629.298 691.164C629.713 689.974 630.459 688.029 631.53 685.274C635.388 675.353 638.21 662.864 638.668 650.47C638.899 644.217 638.525 638.106 637.437 632.422C636.282 635.24 635.005 637.915 633.823 640.39C633.679 640.692 633.536 640.992 633.395 641.288C627.566 653.529 620.347 666.131 612.329 677.155C602.528 690.633 591.542 703.73 580.25 715.913C572.102 724.705 562.343 730.588 553.007 736.216C550.179 737.921 547.39 739.602 544.697 741.334C538.556 745.282 532.239 748.911 525.993 752.449C525.084 752.964 524.176 753.477 523.271 753.988C517.926 757.01 512.659 759.988 507.491 763.129C494.279 771.16 480.931 779.088 465.079 783.315C462.185 784.087 459.292 784.857 456.4 785.627C428.774 792.982 401.274 800.304 374.067 808.617C364.576 811.517 353.243 815.512 346.868 821.25C345.223 822.73 343.68 824.288 342.016 825.966C341.145 826.845 340.241 827.757 339.272 828.709C336.597 831.336 333.59 834.091 330.189 836.239C327.891 837.69 324.852 837.004 323.401 834.707C321.95 832.409 322.637 829.371 324.934 827.92C327.416 826.352 329.816 824.205 332.376 821.689C333.138 820.94 333.938 820.134 334.761 819.305C336.546 817.506 338.438 815.599 340.285 813.936C348.535 806.511 362.022 802.008 371.191 799.207C398.579 790.838 426.252 783.471 453.85 776.123C456.749 775.351 459.647 774.58 462.543 773.807C476.854 769.991 489.087 762.8 502.38 754.72C507.693 751.491 513.114 748.427 518.453 745.409C519.352 744.9 520.249 744.393 521.143 743.887C527.377 740.356 533.486 736.843 539.376 733.057C542.591 730.99 545.71 729.106 548.727 727.284C557.778 721.818 565.917 716.903 573.033 709.224C584.107 697.277 594.835 684.48 604.371 671.367C611.971 660.918 618.892 648.856 624.511 637.057L624.756 636.543C627.456 630.876 629.948 625.646 630.96 620.309C630.954 620.342 630.991 620.02 630.97 619.13C630.957 618.602 630.933 618.094 630.906 617.549C630.892 617.248 630.877 616.934 630.863 616.6L630.86 616.522C630.833 615.886 630.78 614.648 630.954 613.677C631.001 613.417 631.14 612.685 631.587 611.902C632.051 611.088 633.548 609.169 636.305 609.364C638.337 609.507 639.504 610.796 639.735 611.052L639.741 611.058C640.139 611.498 640.405 611.934 640.548 612.186C646.309 622.267 648.534 634.505 648.573 646.651C650.651 635.495 649.839 623.681 647.844 611.994C647.623 610.699 647.366 609.473 647.088 608.151C646.955 607.518 646.817 606.862 646.677 606.166C646.299 604.293 645.931 602.26 645.742 600.123C645.687 600.019 645.602 599.856 645.526 599.684C645.467 599.553 645.338 599.254 645.235 598.864C645.168 598.61 644.895 597.571 645.236 596.294C645.435 595.551 645.851 594.698 646.62 593.972C647.382 593.254 648.233 592.9 648.93 592.743C650.138 592.471 651.107 592.732 651.364 592.802C651.991 592.974 652.486 593.245 652.623 593.32L652.636 593.327C659.788 597.228 664.944 603.793 668.975 610.348C670.993 613.63 672.892 617.209 674.647 620.624C671.787 604.158 663.027 587.836 649.982 577.617C649.191 576.997 648.543 576.464 648.05 576.018C647.808 575.799 647.538 575.541 647.286 575.263L647.274 575.25C647.122 575.081 646.553 574.455 646.189 573.544C646.01 573.098 645.55 571.788 646.051 570.182C646.667 568.207 648.228 567.254 649.332 566.912C650.261 566.624 651.043 566.68 651.344 566.709C651.724 566.746 652.036 566.817 652.229 566.867C652.899 567.039 653.556 567.334 653.925 567.505C655.17 568.079 657.12 569.147 658.397 569.846C658.796 570.065 659.129 570.248 659.355 570.368C669.577 575.82 679.312 582.25 688.644 588.686C689.377 589.192 690.344 590.016 691.216 590.768C683.599 573.7 673.698 558.352 662.287 543.228C658.309 537.957 654.373 533.071 649.937 528.717C646.673 526.395 643.443 523.954 640.339 521.323C639.664 520.752 639.131 520.285 638.771 519.94L638.756 519.926C638.654 519.828 638.235 519.429 637.891 518.925C637.794 518.783 637.509 518.357 637.296 517.748C637.187 517.436 636.424 515.238 638.025 513.132C639.639 511.01 641.981 511.175 642.322 511.201C642.972 511.249 643.461 511.418 643.622 511.475C644.198 511.678 644.683 511.979 644.777 512.037L644.789 512.044C644.988 512.166 645.196 512.302 645.388 512.431C645.778 512.693 646.248 513.023 646.732 513.37C648.6 514.706 651.345 516.762 651.73 517.082C653.303 518.387 654.805 519.739 656.247 521.129C659.403 523.356 662.658 525.523 665.981 527.735L666.155 527.852C668.374 529.329 670.623 530.827 672.871 532.37C666.469 525.118 657.787 517.653 650.467 512.824C639.899 505.851 628.692 499.898 616.872 496.007L616.87 496.007L616.864 496.005L616.84 495.998C616.82 495.991 616.791 495.983 616.754 495.973C616.678 495.953 616.579 495.928 616.453 495.898C616.198 495.839 615.876 495.771 615.481 495.694C614.689 495.54 613.71 495.37 612.576 495.179C612.2 495.115 611.808 495.05 611.404 494.982C609.419 494.65 607.135 494.268 604.963 493.843C602.408 493.343 599.674 492.723 597.586 491.937C596.612 491.57 595.292 490.994 594.21 490.064C593.646 489.579 592.875 488.769 592.41 487.567C591.889 486.222 591.894 484.743 592.435 483.39C595.35 476.102 593.976 465.334 590.248 453.51C586.61 441.969 581.141 430.637 577.3 422.851C574.377 416.926 570.859 411.568 567.15 405.951L566.944 405.64C563.345 400.188 559.568 394.47 556.387 388.107C555.172 385.677 556.157 382.722 558.587 381.507ZM691.58 547.088C691.582 547.09 691.562 547.078 691.517 547.047C691.556 547.071 691.578 547.086 691.58 547.088ZM645.586 512.842C645.513 512.772 645.528 512.78 645.592 512.847C645.59 512.846 645.588 512.844 645.586 512.842ZM639.683 520.456C639.674 520.451 639.668 520.447 639.663 520.444C639.63 520.424 639.616 520.416 639.618 520.418C639.62 520.42 639.643 520.434 639.683 520.456ZM694.776 599.977C694.775 599.976 694.774 599.958 694.774 599.924C694.777 599.961 694.777 599.978 694.776 599.977ZM698.894 596.496C698.921 596.503 698.923 596.505 698.895 596.497C698.895 596.497 698.894 596.496 698.894 596.496ZM678.791 645.689C678.789 645.76 678.785 645.752 678.791 645.684C678.791 645.686 678.791 645.687 678.791 645.689ZM645.921 600.469C645.92 600.468 645.913 600.452 645.9 600.423C645.916 600.454 645.922 600.469 645.921 600.469Z" fill="#3A2D14"/>
<path fill-rule="evenodd" clip-rule="evenodd" d="M146.484 505.566C149.202 505.566 151.404 507.769 151.404 510.486V523.523C151.404 526.241 149.202 528.443 146.484 528.443C143.767 528.443 141.564 526.241 141.564 523.523V510.486C141.564 507.769 143.767 505.566 146.484 505.566Z" fill="#3A2D14"/>
<path fill-rule="evenodd" clip-rule="evenodd" d="M186.741 515.816C180.026 511.728 169.967 509.811 162.218 511.295C159.096 511.893 157.141 513.525 155.527 516.054C153.886 518.624 152.792 521.787 151.486 525.566C151.37 525.901 151.252 526.242 151.133 526.586C150.241 529.153 147.438 530.512 144.871 529.62C142.304 528.729 140.946 525.926 141.837 523.359C141.965 522.991 142.095 522.612 142.228 522.225C143.448 518.672 144.924 514.375 147.233 510.759C149.965 506.479 154.029 502.844 160.368 501.63C170.587 499.673 183.121 502.093 191.857 507.411C194.836 509.224 198.03 512.514 200.831 515.798C203.739 519.205 206.614 523.078 208.953 526.489C211.249 529.837 213.19 532.978 214.119 534.894C214.336 535.339 214.638 536 214.822 536.692L214.823 536.696C214.888 536.942 215.122 537.82 214.969 538.895C214.884 539.489 214.623 540.559 213.736 541.549C212.743 542.658 211.447 543.132 210.319 543.202C208.655 543.304 207.451 542.54 207.226 542.397C207.218 542.392 207.212 542.388 207.206 542.385C206.786 542.121 206.445 541.834 206.221 541.635C205.752 541.217 205.261 540.698 204.776 540.152C203.525 538.744 202.075 536.67 200.789 534.829C200.224 534.021 199.69 533.257 199.219 532.614C198.327 531.4 197.509 530.381 196.743 529.596C195.949 528.782 195.43 528.449 195.188 528.342C194.313 527.953 193.409 527.936 192.156 528.49C190.764 529.105 189.15 530.362 187.442 532.235C184.031 535.977 181.242 541.067 179.969 543.996C172.951 560.138 167.194 575.916 169.079 592.502C171.036 609.726 183.571 625.909 197.654 636.996C208.422 645.472 220.949 651.049 234.124 656.913C234.6 657.125 235.078 657.338 235.557 657.551C249.046 663.56 263.143 669.983 275.082 680.271C285.978 689.66 298.315 700.345 308.71 712.498C319.117 724.664 327.841 738.592 331.247 754.6C331.801 757.205 332.359 759.832 332.906 762.47C340.912 751.217 352.67 743.644 364.689 737.526C370.446 734.596 376.413 731.928 382.162 729.358C382.946 729.008 383.726 728.659 384.501 728.312C391.021 725.39 397.191 722.56 402.743 719.459C416.796 711.61 431.761 704.595 446.413 697.727C452.135 695.045 457.81 692.385 463.364 689.707C473.703 684.721 483.18 678.746 492.962 672.579C497.043 670.006 501.177 667.4 505.449 664.818C518.787 656.757 530.357 648.663 541.01 637.747C551.953 626.533 564.199 611.36 568.83 597.311C569.724 594.602 571.814 587.069 572.285 580.399C572.505 577.278 572.326 574.871 571.852 573.328C571.006 573.297 570.152 573.24 569.361 573.186L569.117 573.169C567.994 573.092 566.951 573.02 565.926 572.993C563.582 572.931 562.21 573.15 561.488 573.5C561.201 573.64 560.579 574.083 559.571 575.114C558.674 576.034 557.755 577.116 556.711 578.346L556.483 578.614C555.416 579.87 554.177 581.32 552.929 582.507C551.815 583.566 550.002 585.114 547.691 585.627C547.174 585.742 546.443 585.861 545.62 585.805C544.825 585.752 543.416 585.494 542.193 584.337C540.859 583.076 540.524 581.498 540.536 580.389C540.547 579.386 540.827 578.574 541.016 578.108C541.687 576.464 543.125 574.771 544.167 573.616C546.557 570.967 549.966 567.866 551.988 566.306C557.696 561.903 564.131 561.986 569.007 562.048C569.561 562.055 570.095 562.062 570.606 562.062C572.705 562.062 574.68 562.578 576.394 563.656C591.984 565.014 601.989 575.732 609.788 587.431C611.295 589.692 610.684 592.747 608.424 594.254C606.163 595.761 603.108 595.15 601.601 592.889C595.808 584.201 589.79 577.735 582.093 574.914C582.279 576.99 582.241 579.107 582.101 581.091C581.549 588.908 579.192 597.309 578.176 600.392C572.801 616.695 559.181 633.216 548.052 644.62C536.575 656.38 524.217 664.973 510.539 673.24C506.614 675.612 502.677 678.093 498.702 680.599C488.725 686.887 478.508 693.328 467.638 698.57C461.867 701.353 456.062 704.074 450.268 706.79C435.737 713.601 421.269 720.382 407.542 728.05C401.566 731.387 395.032 734.375 388.526 737.291C387.739 737.643 386.954 737.995 386.169 738.346C380.396 740.927 374.672 743.486 369.153 746.295C356.576 752.697 345.832 760.036 339.313 770.601C338.949 771.191 338.541 772.125 338.071 773.386C337.947 773.718 337.803 774.119 337.651 774.543C337.342 775.404 336.998 776.361 336.716 777.037C336.506 777.54 336.143 778.366 335.606 779.103C335.345 779.461 334.799 780.146 333.903 780.683C332.853 781.313 331.26 781.751 329.523 781.155C328.035 780.644 327.199 779.621 326.83 779.088C326.425 778.505 326.176 777.923 326.021 777.509C325.707 776.671 325.482 775.694 325.299 774.712C324.184 768.714 322.908 762.69 321.622 756.648C318.686 742.846 311.058 730.38 301.233 718.894C291.397 707.396 279.623 697.174 268.658 687.725C257.97 678.515 245.17 672.606 231.553 666.539C230.954 666.273 230.354 666.006 229.752 665.738C216.874 660.01 203.325 653.983 191.568 644.727C176.494 632.861 161.681 614.549 159.302 593.613C157.093 574.178 163.914 556.243 170.945 540.072C172.491 536.518 175.803 530.397 180.17 525.606C182.351 523.214 185.044 520.875 188.179 519.489C188.834 519.2 189.512 518.952 190.208 518.753C188.83 517.368 187.647 516.367 186.741 515.816ZM212.768 534.289C212.767 534.288 212.765 534.286 212.763 534.285C212.775 534.295 212.777 534.297 212.768 534.289Z" fill="#3A2D14"/>
<path fill-rule="evenodd" clip-rule="evenodd" d="M356.167 630.849C358.497 632.247 359.252 635.269 357.854 637.599C350.423 649.985 346.595 664.243 344.322 679.313C342.734 689.841 341.938 700.45 341.145 711.006C340.794 715.686 340.444 720.354 340.026 725C339.833 727.144 339.622 729.219 339.415 731.251C338.827 737.025 338.275 742.453 338.275 748.14C338.275 748.416 338.276 748.71 338.277 749.02C338.285 751.185 338.295 754.097 337.968 756.93C337.605 760.083 336.748 764.007 334.3 767.067C332.602 769.189 329.506 769.533 327.384 767.836C325.262 766.138 324.918 763.042 326.616 760.92C327.3 760.066 327.891 758.419 328.193 755.802C328.448 753.593 328.442 751.31 328.437 749.101C328.436 748.779 328.435 748.458 328.435 748.14C328.435 741.909 329.06 735.774 329.662 729.863C329.86 727.922 330.055 726.006 330.225 724.118C330.616 719.779 330.954 715.284 331.298 710.698C332.104 699.973 332.947 688.749 334.592 677.846C336.958 662.155 341.053 646.476 349.417 632.536C350.815 630.206 353.837 629.451 356.167 630.849Z" fill="#3A2D14"/>
<path d="M334.08 565.534C339.8 565.534 343.537 567.341 346.977 570.387C352.645 562.888 374.952 569.808 381.16 573.743C387.691 577.882 391.763 583.373 398.543 586.941C403.161 589.371 407.571 592.667 407.155 598.289C406.678 604.726 402.169 614.903 394.841 615.913C385.349 617.223 383.737 612.222 382.287 604.968C381.834 602.706 380.55 596.665 377.941 599.174C371.404 605.459 359.156 611.974 350.095 605.934C345.714 603.013 342.489 597.385 339.15 593.379C337.523 591.427 331.555 584.653 334 590.241C338.902 601.446 321.534 610.62 319.192 598.208C316.953 586.343 318.565 565.534 334.08 565.534Z" fill="#9EC73D"/>
<path fill-rule="evenodd" clip-rule="evenodd" d="M321.544 565.367C324.772 562.366 328.987 560.614 334.08 560.614C339.364 560.614 343.423 561.926 346.911 564.165C348.947 563.076 351.201 562.546 353.273 562.307C356.924 561.886 360.966 562.249 364.747 562.937C372.211 564.295 379.994 567.179 383.794 569.587C387.069 571.663 389.794 574.049 392.177 576.136C392.453 576.377 392.723 576.614 392.99 576.846C395.648 579.161 397.992 581.091 400.835 582.587C405.409 584.995 412.728 589.655 412.061 598.652C411.764 602.662 410.271 607.561 407.776 611.683C405.341 615.707 401.316 619.987 395.514 620.787C389.907 621.561 385.162 620.625 381.87 616.92C379.09 613.79 378.154 609.387 377.476 606.001C374.312 608.366 370.538 610.513 366.511 611.847C360.649 613.788 353.595 614.18 347.366 610.028C344.494 608.113 342.198 605.458 340.351 603.088C339.584 602.105 338.941 601.239 338.353 600.44C336.837 603.538 334.311 605.993 331.626 607.423C328.756 608.952 325.016 609.727 321.445 608.378C317.607 606.929 315.184 603.504 314.357 599.12C313.136 592.647 312.914 583.63 315.277 575.971C316.469 572.107 318.417 568.274 321.544 565.367ZM345.906 576.226C346.28 576.624 346.664 577.046 347.062 577.494C348.867 579.525 351.977 579.708 354.008 577.903C355.711 576.389 356.115 573.958 355.136 572.014C357.336 571.861 360.042 572.082 362.985 572.618C369.643 573.829 376.118 576.372 378.526 577.898C381.123 579.544 383.276 581.426 385.723 583.565C385.987 583.795 386.255 584.029 386.527 584.266C389.233 586.623 392.314 589.223 396.252 591.295C398.403 592.427 400.029 593.528 401.06 594.688C401.964 595.704 402.341 596.665 402.248 597.925C402.068 600.354 401.069 603.761 399.358 606.589C397.587 609.515 395.694 610.829 394.169 611.04C390.285 611.575 389.477 610.666 389.227 610.385L389.227 610.384C388.484 609.548 387.883 607.862 387.111 604.004L387.105 603.975C386.894 602.917 386.364 600.268 385.366 598.169C384.94 597.273 383.927 595.344 381.869 594.308C380.644 593.691 379.179 593.463 377.679 593.833C376.295 594.175 375.253 594.933 374.531 595.627C371.679 598.37 367.598 601.122 363.418 602.506C359.257 603.883 355.656 603.728 352.824 601.84C351.315 600.834 349.808 599.215 348.112 597.039C347.568 596.341 346.923 595.47 346.242 594.55C345.144 593.067 343.951 591.455 342.93 590.23C342.108 589.244 340.008 586.813 338.322 585.31C337.902 584.936 337.329 584.455 336.693 584.067C336.388 583.88 335.855 583.58 335.169 583.379C334.587 583.208 333.039 582.854 331.349 583.696C329.4 584.668 328.749 586.442 328.576 587.472C328.417 588.417 328.543 589.221 328.624 589.635C328.798 590.525 329.149 591.429 329.492 592.213C330.652 594.865 329.376 597.473 326.999 598.739C325.846 599.353 325.111 599.245 324.921 599.173C324.858 599.149 324.764 599.105 324.631 598.929C324.481 598.729 324.207 598.255 324.026 597.296C323.009 591.904 322.917 584.585 324.68 578.872C325.55 576.051 326.774 573.94 328.243 572.574C329.611 571.303 331.416 570.454 334.08 570.454C337.314 570.454 339.579 571.148 341.602 572.447C341.924 573.821 342.832 575.048 344.193 575.729C344.746 576.005 345.326 576.168 345.906 576.226Z" fill="#3A2D14"/>
<path fill-rule="evenodd" clip-rule="evenodd" d="M242.137 388.036C243.705 386.884 245.486 386.78 246.439 386.78C253.393 386.78 260.897 389.199 266.549 392.653C269.977 394.748 273.389 396.937 276.73 399.312C276.863 399.014 277.025 398.71 277.223 398.41C278.15 397.002 279.632 396.025 281.415 395.802C282.891 395.617 284.174 396.001 284.995 396.318C286.642 396.953 288.512 398.169 290.525 399.623C295.577 403.271 300.277 408.057 304.496 412.352C305.761 413.64 306.982 414.883 308.156 416.039C308.96 416.83 310.251 418.284 311.55 419.753C311.718 419.943 311.889 420.136 312.061 420.331C313.202 421.622 314.423 423.004 315.591 424.286C315.904 424.112 316.248 423.96 316.625 423.836C318.86 423.103 320.797 423.93 321.609 424.335C322.606 424.833 323.497 425.51 324.201 426.109C326.938 428.441 329.861 432.238 330.801 433.684C333.117 437.248 335.446 440.976 337.672 444.74C338.289 443.284 339.236 441.313 340.661 439.888C341.651 438.898 343.223 437.882 345.309 437.913C347.285 437.943 348.717 438.906 349.522 439.615C350.981 440.898 352.004 442.803 352.591 443.92C352.913 444.532 353.174 445.051 353.409 445.52C353.764 446.224 354.06 446.814 354.419 447.433C354.531 447.626 354.626 447.779 354.704 447.897C354.874 447.939 354.97 447.941 355.001 447.941C355.001 447.941 355.002 447.94 355.003 447.94C355.178 447.829 355.738 447.306 356.387 445.774C357.634 442.833 358.16 438.826 358.536 435.957C358.55 435.851 358.563 435.746 358.577 435.643C358.86 433.496 359.186 431.551 359.687 430.101C359.921 429.425 360.378 428.277 361.329 427.3C362.565 426.029 364.486 425.241 366.603 425.741C368.174 426.112 369.22 427.071 369.682 427.528C370.242 428.081 370.732 428.711 371.13 429.261C371.803 430.189 372.578 431.403 373.378 432.657C373.516 432.874 373.656 433.093 373.796 433.311C379.216 441.78 379.352 450.263 378.744 458.767C377.957 469.782 372.518 479.368 364.258 484.192C357.375 488.213 349.103 488.587 341.136 484.473C342.288 495.707 340.043 507.43 337.388 517.459C331.885 538.247 319.304 557.444 299.875 568.373C287.434 575.371 275.914 574.222 266.562 568.149C257.58 562.315 251.003 552.239 246.932 541.906C238.058 519.38 236.611 491.086 250.12 468.822C253.018 464.046 257.275 458.615 262.086 453.822C266.852 449.073 272.469 444.639 278.153 442.22C279.185 441.781 280.338 441.402 281.387 441.074C280.274 439.949 278.909 438.807 277.324 437.659C274.12 435.338 270.513 433.336 267.327 431.583C251.458 422.855 230.832 414.004 213.765 414.004C213.409 414.004 212.966 413.993 212.525 413.94C212.313 413.914 211.948 413.861 211.529 413.735C211.525 413.734 211.52 413.733 211.516 413.731C211.264 413.656 210.124 413.316 209.171 412.241C208.58 411.574 208.015 410.566 207.93 409.272C207.847 408.022 208.248 407.029 208.617 406.408C209.242 405.355 210.091 404.822 210.297 404.692L210.304 404.688C210.879 404.326 211.45 404.124 211.672 404.046C212.727 403.678 214.436 403.298 216.053 402.976C219.44 402.3 224.123 401.55 226.681 401.36C228.188 401.249 230.248 401.416 231.879 401.548C231.92 401.551 231.96 401.554 231.999 401.557C231.758 400.42 231.796 398.987 232.589 397.588C233.423 396.114 234.692 395.405 235.483 395.076C236.94 394.472 238.538 394.433 239.477 394.439C239.694 394.44 239.914 394.445 240.136 394.453C240.066 394.231 240.005 394 239.957 393.759C239.809 393.013 239.746 391.982 240.107 390.851C240.488 389.656 241.232 388.701 242.137 388.036ZM255.788 398.384C256.057 399.399 256.117 400.744 255.372 402.169C254.348 404.128 252.532 404.721 251.948 404.888C250.622 405.266 249.149 405.196 248.349 405.148C247.505 405.098 246.441 404.984 245.365 404.858C245.48 405.971 245.305 407.244 244.503 408.513C244.146 409.078 243.726 409.532 243.288 409.896C253.756 413.533 263.774 418.398 272.069 422.961C275.202 424.684 279.327 426.959 283.097 429.69C285.134 431.166 287.225 432.884 289.057 434.857C289.959 433.803 291.299 433.136 292.795 433.136C295.512 433.136 297.715 435.339 297.715 438.056C297.715 444.038 293.345 446.985 290.166 448.42C288.547 449.15 286.825 449.691 285.439 450.12C285.348 450.148 285.258 450.176 285.17 450.203C283.793 450.629 282.802 450.936 282.006 451.275C277.954 452.999 273.37 456.469 269.031 460.792C264.737 465.071 260.986 469.883 258.533 473.926C247.096 492.774 247.953 517.651 256.087 538.299C259.737 547.566 265.284 555.586 271.921 559.896C278.189 563.966 285.785 565.009 295.051 559.797C311.711 550.425 322.908 533.707 327.875 514.941C330.556 504.815 332.467 494.034 331.213 484.317C331.051 483.067 330.612 481.633 330.044 480.102C329.906 479.731 329.726 479.273 329.535 478.785C329.127 477.746 328.666 476.573 328.444 475.816C328.342 475.466 328.21 474.961 328.145 474.396C328.095 473.962 327.985 472.767 328.561 471.461C328.89 470.715 329.449 469.926 330.317 469.315C331.173 468.712 332.071 468.466 332.811 468.394C334.119 468.266 335.165 468.657 335.599 468.834C336.578 469.233 337.55 469.89 338.356 470.474C339.255 471.126 340.343 471.985 341.634 473.049C348.363 478.59 354.623 478.424 359.295 475.695C364.272 472.788 368.331 466.435 368.929 458.066C369.371 451.877 369.261 447.014 367.491 442.488C367.05 444.785 366.41 447.343 365.447 449.614C364.487 451.878 362.922 454.578 360.254 456.261C357.239 458.164 353.715 458.227 350.25 456.742C348.875 456.153 347.939 455.19 347.385 454.53C346.79 453.82 346.298 453.044 345.909 452.372C345.79 452.168 345.667 451.947 345.543 451.719C345.386 452.155 345.225 452.606 345.054 453.073C344.786 453.805 344.487 454.588 344.169 455.302C343.879 455.949 343.436 456.861 342.8 457.664C342.358 458.223 340.561 460.335 337.538 459.917C334.77 459.535 333.494 457.315 333.141 456.668C329.933 450.788 326.244 444.728 322.551 439.047C322.309 438.675 321.593 437.695 320.631 436.546C320.584 436.49 320.537 436.435 320.49 436.379C318.665 437.858 316.508 437.454 315.838 437.264C314.944 437.01 314.262 436.569 313.943 436.353C313.545 436.083 313.172 435.783 312.85 435.508C311.62 434.454 310.068 432.824 308.614 431.238C307.297 429.801 305.908 428.229 304.683 426.842C304.511 426.648 304.343 426.457 304.179 426.271C302.766 424.675 301.753 423.543 301.255 423.053C299.806 421.628 298.408 420.205 297.035 418.809C293.318 415.029 289.785 411.436 285.938 408.476C285.872 409.119 285.667 409.92 285.146 410.718C284.437 411.804 283.438 412.43 282.532 412.732C281.07 413.22 279.821 412.888 279.531 412.811L279.521 412.809C278.697 412.59 277.984 412.197 277.66 412.014C276.833 411.549 275.867 410.889 275.043 410.303C274.18 409.69 273.311 409.041 272.634 408.531C272.348 408.315 272.091 408.12 271.884 407.962L271.774 407.879C271.661 407.792 271.571 407.724 271.501 407.672C271.438 407.624 271.414 407.607 271.414 407.607C271.414 407.607 271.416 407.608 271.419 407.61C268.204 405.306 264.866 403.156 261.418 401.049C259.718 400.01 257.795 399.102 255.788 398.384ZM281.442 405.494C281.441 405.493 281.443 405.494 281.447 405.496C281.444 405.495 281.442 405.494 281.442 405.494ZM214.921 413.335C214.927 413.333 214.933 413.33 214.939 413.328C214.891 413.347 214.88 413.349 214.921 413.335ZM249.308 391.004C249.309 391.005 249.321 391.021 249.339 391.054C249.316 391.02 249.307 391.004 249.308 391.004ZM337.874 473.002C337.875 473.003 337.876 473.008 337.878 473.016C337.875 473.005 337.874 473.001 337.874 473.002ZM354.955 448.24C354.955 448.24 354.946 448.231 354.928 448.211C354.946 448.229 354.955 448.239 354.955 448.24ZM282.599 403.499C282.599 403.5 282.585 403.493 282.555 403.477C282.583 403.49 282.598 403.498 282.599 403.499Z" fill="#3A2D14"/>
<path fill-rule="evenodd" clip-rule="evenodd" d="M504.976 427.655C512.273 425.319 520.886 422.563 529.825 423.335C531.595 423.488 533.519 423.84 535.273 424.354C536.899 424.83 538.911 425.595 540.451 426.84C541.226 427.467 542.321 428.566 542.827 430.239C543.217 431.529 543.151 432.798 542.771 433.931C546.496 434.862 550.457 436.317 554.02 438.469C558.531 441.193 562.725 445.243 564.587 451.036C565.148 452.783 565.596 454.51 565.732 456.068C565.846 457.38 565.878 459.976 563.957 461.996C561.819 464.243 559.007 464.059 557.564 463.785C555.992 463.486 554.349 462.79 552.793 462.012C547.378 459.305 541.625 456.883 536.423 456.305C528.18 455.389 517.605 457.229 508.517 459.128C506.106 459.632 503.363 460.825 501.082 462.53C498.777 464.251 497.32 466.202 496.79 468.057C496.735 468.249 496.673 468.905 497.469 470.623C497.84 471.424 498.29 472.241 498.828 473.212L498.862 473.274C499.352 474.159 499.949 475.237 500.421 476.303C508.38 494.284 506.938 514.885 502.633 532.498C497.076 555.233 487.448 574.165 466.38 587.626C459.148 592.246 449.844 592.239 441.713 590.454C433.464 588.644 425.358 584.787 419.774 580.32C406.859 569.988 400.435 554.404 399.224 538.565C398.087 523.689 401.497 508.151 408.899 495.655C408.414 495.386 407.956 495.103 407.535 494.828C405.002 493.173 402.044 490.632 399.284 487.965C396.488 485.265 393.703 482.251 391.515 479.526C390.424 478.167 389.43 476.816 388.648 475.566C387.951 474.452 387.112 472.942 386.798 471.372C385.396 464.361 386.52 454.695 389.742 446.408C392.903 438.275 398.784 429.787 408.18 427.699C409.494 427.407 410.959 427.64 412.179 428.505C413.213 429.238 413.696 430.16 413.903 430.63C414.3 431.535 414.358 432.379 414.377 432.668C414.409 433.167 414.393 433.694 414.36 434.18C414.913 434.201 415.507 434.318 416.123 434.575C417.864 435.303 418.613 436.709 418.855 437.22C419.157 437.855 419.303 438.462 419.383 438.861C419.718 440.534 419.867 442.312 419.973 443.907C420.008 444.428 420.039 444.925 420.068 445.408C420.135 446.508 420.198 447.533 420.299 448.587C420.448 450.138 420.657 451.35 420.92 452.292C421.127 452.03 421.324 451.752 421.503 451.47C421.71 451.142 421.863 450.855 421.962 450.635C422.023 450.502 422.049 450.424 422.057 450.401C422.101 450.182 422.141 449.986 422.174 449.833C422.19 449.759 422.217 449.64 422.249 449.515C422.263 449.46 422.297 449.331 422.348 449.175C422.372 449.101 422.423 448.952 422.5 448.771C422.501 448.768 422.502 448.765 422.504 448.762C422.548 448.657 422.761 448.151 423.188 447.618C423.382 447.375 423.988 446.647 425.071 446.176C426.505 445.554 428.316 445.6 429.821 446.636C430.949 447.412 431.412 448.418 431.552 448.743C431.737 449.172 431.819 449.533 431.855 449.709C431.929 450.072 431.945 450.364 431.949 450.461C431.956 450.595 431.956 450.705 431.955 450.769C431.953 450.975 431.938 451.158 431.933 451.212L431.933 451.217C431.92 451.368 431.901 451.557 431.884 451.714C431.88 451.751 431.876 451.789 431.872 451.828C431.798 452.537 431.678 453.681 431.604 454.997C431.556 455.844 431.531 456.702 431.543 457.508C432.255 457.205 432.944 456.878 433.517 456.58C433.889 456.386 434.173 456.224 434.361 456.108C434.383 456.094 434.403 456.081 434.42 456.07C434.637 455.86 434.923 455.575 435.265 455.235C437.061 453.446 440.412 450.109 443.49 447.802C444.488 447.055 445.572 446.322 446.681 445.736C447.733 445.18 449.118 444.586 450.659 444.422C452.098 444.269 453.908 444.488 455.498 445.65C456.592 445.029 457.849 444.291 459.171 443.502C461.035 442.389 463.074 441.145 464.856 440.057C466.873 438.826 468.561 437.795 469.291 437.386C470.353 436.79 471.653 436.025 473.092 435.178C475.781 433.595 478.958 431.725 481.99 430.132C486.68 427.667 492.214 425.185 497.226 424.707C499.331 424.507 501.308 425.017 502.915 426.29C503.534 426.78 504.021 427.329 504.398 427.84C504.59 427.779 504.782 427.717 504.976 427.655ZM505.705 430.103C505.705 430.103 505.701 430.097 505.693 430.082C505.701 430.095 505.705 430.103 505.705 430.103ZM452.482 447.237C452.423 447.26 452.43 447.255 452.489 447.235C452.487 447.236 452.484 447.236 452.482 447.237ZM434.512 456.009C434.512 456.009 434.509 456.011 434.502 456.016C434.509 456.011 434.512 456.009 434.512 456.009ZM428.554 458.511C428.554 458.511 428.557 458.51 428.563 458.51C428.557 458.51 428.554 458.511 428.554 458.511ZM431.861 460.386C431.868 460.4 431.87 460.407 431.87 460.407C431.87 460.408 431.867 460.401 431.861 460.386ZM422.397 463.091C422.124 463.175 421.844 463.246 421.556 463.303C418.923 463.821 416.2 462.979 414.292 460.647C412.812 458.838 411.925 456.739 411.37 454.676C411.043 454.931 410.661 455.181 410.225 455.389C408.942 456.001 406.89 456.334 404.958 455.067C403.447 454.076 402.897 452.638 402.708 452.071C402.294 450.827 402.275 449.489 402.28 448.772C402.286 447.887 402.353 446.991 402.416 446.302C402.476 445.635 402.731 444.285 402.96 443.069C402.969 443.02 402.978 442.97 402.988 442.921C403.021 442.744 403.055 442.563 403.09 442.379C401.501 444.401 400.085 446.959 398.913 449.973C396.235 456.862 395.5 464.534 396.425 469.331C396.436 469.338 396.555 469.652 396.99 470.347C397.499 471.161 398.241 472.186 399.188 473.366C401.077 475.719 403.574 478.428 406.12 480.887C408.7 483.379 411.141 485.43 412.916 486.589C413.078 486.695 413.223 486.786 413.353 486.864C414.434 486.61 415.607 486.718 416.678 487.253C419.099 488.464 420.086 491.401 418.893 493.826C419.634 495.334 419.582 497.184 418.596 498.692C411.464 509.601 407.978 523.983 409.036 537.815C410.092 551.629 415.625 564.399 425.921 572.636C430.227 576.081 436.921 579.329 443.822 580.843C450.839 582.383 457.033 581.921 461.082 579.334C479.294 567.698 487.878 551.42 493.074 530.161C497.151 513.483 498.114 495.402 491.423 480.286C491.151 479.67 490.764 478.962 490.219 477.978L490.169 477.887C489.675 476.994 489.068 475.898 488.539 474.758C487.501 472.515 486.263 469.083 487.329 465.354C488.634 460.786 491.787 457.191 495.192 454.647C498.62 452.086 502.686 450.294 506.505 449.496C515.454 447.626 527.492 445.412 537.51 446.525C543.326 447.171 549.161 449.411 554.137 451.731C552.986 449.889 551.225 448.276 548.933 446.892C545.716 444.949 541.778 443.667 538.071 442.971C533.797 442.17 529.359 441.654 525.067 441.524L525.061 441.524C524.998 441.523 524.532 441.513 523.99 441.38C523.818 441.338 523.501 441.251 523.127 441.082C522.822 440.944 522.044 440.563 521.356 439.729C520.5 438.691 519.958 437.133 520.368 435.439C520.581 434.555 520.994 433.904 521.345 433.474C517.118 434.144 512.827 435.501 508.183 436.971C507.016 437.34 505.828 437.716 504.612 438.09C503.631 438.392 502.402 438.538 501.081 438.18C499.755 437.82 498.813 437.079 498.197 436.416C497.626 435.8 497.257 435.164 497.056 434.798C497.035 434.759 497.012 434.717 496.989 434.674C494.19 435.211 490.594 436.727 486.567 438.843C483.673 440.363 481.019 441.929 478.515 443.407C476.997 444.303 475.534 445.166 474.105 445.968C473.472 446.323 472.092 447.167 470.319 448.251C468.557 449.328 466.407 450.643 464.215 451.951C462.115 453.205 460.012 454.43 458.4 455.286C457.625 455.698 456.803 456.11 456.097 456.389C455.817 456.5 455.175 456.747 454.423 456.846C454.12 456.886 453.132 457.005 451.986 456.595C451.381 456.378 450.629 455.975 449.972 455.254C449.787 455.384 449.593 455.525 449.39 455.677C446.956 457.501 444.448 459.99 442.589 461.837C442.002 462.419 441.48 462.938 441.045 463.351C440.186 464.167 438.887 464.877 438.064 465.306C437.024 465.848 435.778 466.423 434.53 466.919C433.321 467.398 431.916 467.881 430.61 468.139C429.978 468.264 429.118 468.389 428.2 468.33C427.459 468.283 425.526 468.049 424.082 466.343C423.167 465.262 422.679 464.043 422.397 463.091ZM448.671 452.228C448.672 452.227 448.675 452.239 448.679 452.266C448.673 452.241 448.671 452.228 448.671 452.228ZM534.258 429.515C534.272 429.504 534.279 429.499 534.28 429.499C534.28 429.499 534.273 429.504 534.258 429.515ZM555.935 457.043C555.935 457.043 555.935 457.041 555.935 457.036C555.935 457.041 555.935 457.043 555.935 457.043ZM559.403 454.118C559.412 454.119 559.417 454.12 559.417 454.12C559.418 454.121 559.413 454.12 559.403 454.118ZM405.06 447.148C405.036 447.175 405.04 447.167 405.07 447.135C405.066 447.141 405.062 447.145 405.06 447.148ZM422.126 450.405C422.126 450.405 422.126 450.405 422.126 450.405L422.126 450.405L422.126 450.405Z" fill="#3A2D14"/>
<path d="M260.151 459.85L288.266 441.576L232.037 408.542L247.5 393.781L269.991 400.107H284.049L314.271 426.816L336.763 452.119L349.414 445.793V452.119L361.363 445.793L368.391 432.439L374.717 445.793L368.391 473.907L349.414 481.639L336.763 473.907V492.884L331.843 525.919L298.809 563.17H265.774L247.5 532.244V492.884L260.151 459.85Z" fill="#3A2D14"/>
<path fill-rule="evenodd" clip-rule="evenodd" d="M411.17 385.852C412.801 388.025 412.36 391.109 410.186 392.74C407.319 394.89 404.565 397.238 401.715 399.704C401.365 400.007 401.013 400.312 400.659 400.619C398.17 402.777 395.588 405.016 392.912 407.142C392.031 407.842 388.223 411.216 384.971 414.484C383.603 415.859 382.473 417.077 381.729 417.99C381.721 418.167 381.704 418.345 381.676 418.524C381.263 421.21 378.751 423.052 376.065 422.639C374.833 422.449 372.951 421.691 372 419.598C371.22 417.883 371.589 416.323 371.767 415.717C372.145 414.425 372.939 413.296 373.426 412.64C374.574 411.093 376.303 409.245 377.995 407.544C381.418 404.104 385.518 400.449 386.79 399.438C389.289 397.453 391.7 395.362 394.204 393.192C394.559 392.884 394.917 392.574 395.276 392.263C398.132 389.791 401.115 387.243 404.282 384.868C406.456 383.237 409.54 383.678 411.17 385.852Z" fill="#3A2D14"/>
<path fill-rule="evenodd" clip-rule="evenodd" d="M374.622 384.045C376.45 382.034 379.562 381.886 381.572 383.714C382.778 384.81 384.044 385.938 385.344 387.097C389.293 390.618 393.557 394.42 397.415 398.452C402.596 403.869 407.424 410.07 410.355 417.396C411.364 419.919 410.137 422.783 407.614 423.792C405.091 424.801 402.227 423.574 401.218 421.051C398.947 415.371 395.06 410.226 390.304 405.254C386.742 401.53 382.904 398.108 379.03 394.654C377.672 393.443 376.31 392.228 374.953 390.995C372.943 389.167 372.794 386.055 374.622 384.045Z" fill="#3A2D14"/>
<path d="M267.845 236.457C289.232 234.295 303.259 245.263 317.451 258.688C311.872 247.376 316.015 226.816 326.192 220.201C338.793 212.01 354.118 219.235 365.868 225.11C375.574 229.963 387.277 233.643 394.036 242.654C395.213 244.224 402.083 257.132 402.888 256.014C409.866 246.322 416.6 234.76 429.848 241.206C434.331 243.386 441.898 247.1 443.127 252.633C444.183 257.385 436.842 260.978 434.033 263.579C432.354 265.133 422.032 273.166 428.641 268.407C434.92 263.887 442.167 260.115 449.083 256.657C464.692 248.853 484.382 240.455 501.233 250.702C509.628 255.807 515.203 262.356 510.407 271.948C508.087 276.589 518.8 271.787 521.513 271.787C536.478 271.787 553.208 279.141 562.718 290.78C566.423 295.314 568.495 302.126 561.35 303.979C558.604 304.691 543.533 303.997 548.313 305.749C556.916 308.904 566.484 313.197 570.283 322.167C575.374 334.187 566.533 340.545 556.794 340.166C561.388 343.002 565.875 346.344 568.513 349.932C575.482 359.41 572.687 370.947 564.972 378.663C555.127 388.508 539.655 380.579 527.791 377.214C509.722 372.09 497.379 363.599 486.103 348.564C483.918 345.65 482.11 355.686 481.113 357.416C478.294 362.308 471.938 365.334 467.432 368.442C455.683 376.544 434.653 374.488 423.33 366.349C418.126 362.609 411.455 358.131 415.523 351.622C415.965 350.916 402.14 358.918 400.796 359.67C395.636 362.555 389.865 366.288 384.056 367.878C376.139 370.046 366.033 365.686 359.752 361.199C352.243 355.835 356.245 352.022 356.533 344.54C357.009 332.16 341.966 348.926 337.701 351.059C324.243 357.788 298.25 363.819 283.7 358.141C273.907 354.319 270.28 344.713 272.916 335.607C275.173 327.808 259.731 341.318 257.544 342.93C247.237 350.532 233.243 351.342 220.846 351.139C209.759 350.957 206.493 346.818 211.189 336.572C213.1 332.403 216.661 328.701 219.558 325.225C221.16 323.304 226.39 319.385 223.904 319.109C214.323 318.044 205.567 327.397 194.771 324.098C185.71 321.329 190.251 309.495 193.725 304.22C198.596 296.823 205.275 293.403 213.12 289.975C221.454 286.335 228.525 281.606 237.908 281.606C241.879 281.606 229.955 281.611 225.997 281.284L225.895 281.275C215.068 280.381 209.949 279.959 218.915 271.465C225.327 265.391 233.531 260.899 241.449 257.06C256.837 249.599 271.313 258.935 286.356 261.084C293.361 262.084 273.025 256.137 266.075 254.806C261.251 253.883 250.784 253.532 248.531 247.966C245.374 240.167 263.942 236.852 267.845 236.457Z" fill="white"/>
<path fill-rule="evenodd" clip-rule="evenodd" d="M347.409 212.577C354.959 214.242 362.237 217.794 368.068 220.709C370.069 221.71 372.158 222.658 374.37 223.662C374.727 223.824 375.087 223.988 375.451 224.153C378.024 225.324 380.73 226.575 383.369 227.98C388.633 230.782 393.969 234.366 397.971 239.702C398.481 240.382 399.308 241.804 400.029 243.042L400.055 243.087C400.223 243.376 400.397 243.675 400.574 243.981C401.263 245.167 402.015 246.463 402.764 247.716C405.155 244.461 407.88 241.114 410.985 238.684C413.593 236.642 416.708 235.024 420.411 234.556C424.134 234.086 427.999 234.835 432.001 236.781L432.038 236.799C434.238 237.87 437.609 239.51 440.599 241.682C443.487 243.779 446.916 247.002 447.93 251.566C447.941 251.617 447.952 251.668 447.963 251.719C455.573 247.949 464.493 243.931 473.728 242.086C483.505 240.133 493.997 240.544 503.789 246.498C508.238 249.204 512.645 252.686 515.113 257.337C516.818 260.551 517.459 264.053 516.903 267.749C516.929 267.742 516.955 267.735 516.981 267.727C517.67 267.535 518.407 267.335 519.091 267.183C519.694 267.048 520.602 266.868 521.513 266.868C537.837 266.868 556.011 274.796 566.528 287.667C568.706 290.333 570.878 294.186 571.02 298.212C571.095 300.361 570.585 302.727 568.986 304.789C567.806 306.309 566.245 307.392 564.473 308.117C568.758 311.064 572.568 314.946 574.814 320.248C577.936 327.621 577.097 334.374 572.726 339.141C571.454 340.528 569.968 341.652 568.346 342.535C569.9 343.939 571.314 345.437 572.476 347.017C581.278 358.988 577.371 373.221 568.451 382.142C561.868 388.724 553.538 389.029 546.276 387.736C542.638 387.088 539.021 386.002 535.702 384.924C534.627 384.575 533.599 384.233 532.608 383.902C530.421 383.174 528.409 382.504 526.448 381.948C509.633 377.179 497.352 369.545 486.523 356.95C486.409 357.316 486.293 357.681 486.177 358.018C486.026 358.457 485.76 359.206 485.376 359.873C483.422 363.264 480.414 365.744 477.73 367.627C476.359 368.588 474.953 369.473 473.684 370.267L473.453 370.412C472.241 371.17 471.18 371.833 470.225 372.492C463.139 377.379 453.72 378.958 444.909 378.396C436.067 377.833 427.032 375.07 420.458 370.345C420.27 370.21 420.073 370.069 419.869 369.923C417.522 368.248 414.197 365.873 412.02 362.986C411.352 362.099 410.726 361.085 410.248 359.947C408.215 361.096 406.057 362.33 404.659 363.13C403.905 363.562 403.371 363.867 403.197 363.964C402.366 364.429 401.478 364.943 400.541 365.485C396.173 368.013 390.763 371.143 385.355 372.624C380.127 374.056 374.576 373.256 369.787 371.719C364.941 370.164 360.392 367.702 356.892 365.203C354.651 363.602 352.879 361.845 351.73 359.758C350.532 357.581 350.227 355.439 350.302 353.476C350.362 351.892 350.691 350.272 350.947 349.009C350.977 348.862 351.006 348.719 351.033 348.582C351.168 347.906 351.292 347.259 351.391 346.614C349.614 347.865 347.682 349.484 345.76 351.095L345.67 351.171C344.682 351.998 343.678 352.837 342.779 353.538C341.951 354.185 340.913 354.953 339.901 355.459C332.67 359.075 322.323 362.4 311.906 364.108C301.63 365.792 290.429 366.048 281.911 362.724C272.14 358.911 267.258 350.471 267.171 341.592C266.171 342.342 265.175 343.121 264.253 343.856C263.649 344.338 263.03 344.839 262.464 345.298C261.596 346.001 260.85 346.606 260.464 346.89C248.694 355.57 233.137 356.261 220.765 356.059C217.746 356.009 214.93 355.691 212.499 354.913C210.042 354.126 207.665 352.763 206.051 350.426C202.786 345.701 204.321 339.747 206.716 334.523C207.952 331.825 209.78 329.274 211.597 327.019C211.577 327.027 211.556 327.035 211.535 327.043C206.738 328.859 200.45 330.978 193.333 328.804C189.908 327.757 187.354 325.67 185.9 322.774C184.53 320.048 184.378 317.091 184.657 314.56C185.207 309.57 187.617 304.55 189.616 301.514C195.334 292.83 203.204 288.939 211.15 285.467C212.058 285.071 212.95 284.661 213.844 284.239C213.17 283.936 212.461 283.531 211.805 282.977C210.628 281.981 209.659 280.518 209.441 278.63C209.242 276.903 209.742 275.394 210.283 274.29C211.312 272.191 213.246 270.059 215.531 267.894C222.523 261.27 231.307 256.509 239.302 252.633C241.002 251.809 242.688 251.162 244.359 250.666C244.219 250.391 244.089 250.107 243.97 249.812C243.215 247.948 243.033 245.972 243.526 244.035C244.003 242.163 245.022 240.668 246.12 239.525C248.223 237.336 251.169 235.863 253.748 234.854C259.026 232.788 265.113 231.789 267.35 231.562C285.276 229.75 298.486 236.402 310.043 245.6C310.102 242.568 310.474 239.528 311.106 236.634C312.849 228.645 316.88 220.386 323.511 216.076C331.286 211.022 339.751 210.887 347.409 212.577ZM313.469 261.696C314.37 263.349 315.482 264.897 316.838 266.253C317.638 267.052 318.644 267.519 319.685 267.653L319.795 267.76C321.749 269.649 324.863 269.596 326.752 267.642C328.64 265.688 328.588 262.574 326.634 260.685L326.345 260.406L326.337 260.398C324.735 258.849 323.129 257.297 321.523 255.77C319.68 251.431 319.338 245.066 320.72 238.732C322.197 231.96 325.327 226.631 328.874 224.326C333.699 221.189 339.197 220.842 345.289 222.185C351.489 223.553 357.749 226.551 363.668 229.511C365.848 230.601 368.125 231.634 370.325 232.633C370.678 232.792 371.028 232.951 371.376 233.11C373.938 234.275 376.4 235.417 378.745 236.666C383.448 239.169 387.343 241.931 390.099 245.606C390.092 245.596 390.096 245.602 390.113 245.629C390.155 245.694 390.278 245.885 390.508 246.266C390.788 246.73 391.139 247.329 391.549 248.035C391.708 248.308 391.875 248.595 392.048 248.894C392.757 250.115 393.573 251.522 394.38 252.869C395.367 254.519 396.43 256.233 397.338 257.494C397.754 258.072 398.328 258.826 398.971 259.425C399.222 259.658 399.946 260.321 401.031 260.704C401.634 260.917 402.66 261.154 403.885 260.876C405.226 260.571 406.24 259.779 406.881 258.889C407.464 258.079 408.025 257.288 408.571 256.519C411.565 252.304 414.089 248.75 417.049 246.433C418.652 245.178 420.141 244.509 421.645 244.319C423.129 244.131 425.073 244.354 427.696 245.63C429.979 246.741 432.611 248.041 434.816 249.643C437.005 251.233 437.992 252.568 438.279 253.528C438.189 253.722 437.865 254.259 436.77 255.228C435.943 255.959 434.979 256.67 433.891 257.462C433.825 257.511 433.757 257.56 433.689 257.61C432.753 258.291 431.59 259.136 430.691 259.969C430.21 260.414 428.74 261.606 427.17 262.88C426.478 263.441 425.767 264.018 425.113 264.553C424.618 264.959 424.16 265.337 423.808 265.637C423.637 265.783 423.456 265.939 423.298 266.085C423.222 266.154 423.112 266.257 422.995 266.377C422.937 266.436 422.847 266.53 422.745 266.649C422.674 266.732 422.453 266.991 422.234 267.359C422.13 267.532 421.906 267.928 421.742 268.477C421.611 268.913 421.26 270.278 421.94 271.85C422.773 273.772 424.452 274.519 425.525 274.727C426.439 274.903 427.168 274.773 427.425 274.722C427.995 274.608 428.419 274.416 428.525 274.367L428.531 274.365C428.701 274.287 428.837 274.214 428.917 274.17C429.195 274.017 429.471 273.834 429.647 273.716C430.067 273.434 430.685 272.998 431.516 272.4C437.441 268.134 444.37 264.515 451.283 261.058C459.053 257.173 467.372 253.39 475.656 251.735C483.84 250.1 491.617 250.613 498.676 254.906C502.622 257.306 505.201 259.651 506.421 261.949C507.444 263.877 507.768 266.225 506.007 269.748C505.567 270.628 504.828 272.389 505.327 274.438C505.963 277.05 508.036 278.22 509.451 278.618C510.695 278.967 511.903 278.908 512.663 278.834C513.517 278.75 514.385 278.583 515.164 278.406C516.367 278.132 517.701 277.752 518.809 277.436C519.102 277.353 519.378 277.274 519.633 277.203C520.294 277.018 520.82 276.879 521.233 276.787C521.459 276.736 521.586 276.715 521.634 276.708C535.211 276.748 550.43 283.517 558.908 293.893C559.607 294.748 560.198 295.676 560.606 296.56C561.026 297.467 561.171 298.148 561.186 298.558C561.189 298.665 561.185 298.737 561.179 298.781C561.072 298.862 560.781 299.041 560.142 299.209C560.146 299.208 560.148 299.208 560.148 299.207C560.148 299.205 559.944 299.241 559.418 299.283C558.857 299.327 558.143 299.362 557.304 299.393C556.705 299.414 555.816 299.439 554.885 299.464C553.783 299.495 552.623 299.527 551.821 299.558C550.218 299.619 548.144 299.719 546.774 300.056C546.446 300.136 545.663 300.34 544.874 300.839C544.467 301.097 543.73 301.636 543.166 302.592C542.51 303.705 542.268 305.091 542.633 306.464C542.95 307.654 543.613 308.427 544.003 308.813C544.417 309.223 544.828 309.497 545.1 309.662C545.643 309.989 546.2 310.215 546.619 310.369C555.394 313.586 562.88 317.303 565.753 324.086C567.721 328.733 566.685 331.169 565.473 332.491C564.105 333.984 561.516 335.137 558.182 335.253C555.206 333.473 552.273 331.92 549.838 330.668C547.76 329.599 545.808 328.745 544.212 328.49C543.77 328.419 543.083 328.346 542.296 328.458C541.54 328.565 540.118 328.931 538.994 330.255C537.776 331.689 537.674 333.325 537.822 334.362C537.959 335.314 538.323 336.037 538.548 336.43C539.354 337.837 540.764 339.041 541.816 339.838C543.055 340.776 544.592 341.737 546.268 342.539C549.131 343.91 552.199 344.716 555.23 344.993C559.269 347.572 562.656 350.272 564.549 352.847C569.686 359.834 568.004 368.673 561.493 375.184C558.23 378.447 553.902 379.099 548.001 378.048C545.057 377.524 541.967 376.612 538.741 375.565C537.837 375.272 536.905 374.961 535.963 374.647C533.672 373.885 531.316 373.1 529.133 372.481C512.103 367.652 500.671 359.788 490.039 345.612C489.362 344.709 487.823 343.127 485.321 343.117C482.945 343.107 481.447 344.545 480.852 345.22C479.66 346.572 478.937 348.461 478.533 349.583C478.116 350.743 477.733 352.018 477.428 353.033C477.382 353.185 477.338 353.332 477.296 353.472C477.124 354.042 476.987 354.485 476.871 354.822C476.826 354.953 476.794 355.038 476.775 355.087C475.895 356.545 474.339 357.986 472.08 359.57C470.946 360.365 469.743 361.125 468.464 361.926L468.185 362.1C467.024 362.826 465.783 363.602 464.639 364.392C459.976 367.607 453.006 369.052 445.534 368.576C438.093 368.102 430.951 365.768 426.201 362.355L426.043 362.241C423.263 360.243 421.108 358.694 419.878 357.063C419.331 356.337 419.214 355.893 419.192 355.67C419.177 355.519 419.159 355.087 419.695 354.23L419.698 354.225C419.837 354.003 420.447 353.028 420.454 351.62C420.458 350.778 420.242 349.747 419.575 348.785C418.924 347.844 418.084 347.319 417.424 347.043C416.289 346.567 415.298 346.656 415.057 346.678L415.055 346.678C414.671 346.713 414.369 346.784 414.214 346.824C413.691 346.959 413.225 347.17 413.057 347.246L413.049 347.25C412.561 347.47 411.937 347.789 411.3 348.125C409.984 348.82 408.208 349.804 406.418 350.81C403.926 352.211 401.582 353.554 400.044 354.435C399.246 354.892 398.666 355.224 398.395 355.376C397.288 355.995 396.206 356.617 395.143 357.228C390.816 359.719 386.812 362.023 382.757 363.133C380.068 363.87 376.608 363.573 372.794 362.35C369.038 361.145 365.393 359.183 362.611 357.195C361.098 356.115 360.554 355.383 360.351 355.013C360.196 354.732 360.112 354.448 360.135 353.852C360.163 353.107 360.328 352.284 360.627 350.788L360.683 350.509C360.989 348.976 361.361 347.013 361.449 344.729C361.521 342.852 361.355 340.751 360.404 338.915C359.263 336.713 357.232 335.367 354.862 335.139C352.908 334.95 351.133 335.56 349.907 336.105C348.588 336.692 347.288 337.491 346.108 338.303C343.856 339.851 341.504 341.822 339.598 343.42L339.349 343.629C338.334 344.479 337.466 345.203 336.728 345.779C336.364 346.063 336.067 346.283 335.831 346.445C335.624 346.587 335.521 346.646 335.501 346.657C335.498 346.659 335.497 346.66 335.501 346.657C329.274 349.771 319.895 352.827 310.314 354.397C300.591 355.991 291.521 355.912 285.488 353.557C278.366 350.778 275.62 343.958 277.641 336.975C277.85 336.254 278.029 335.42 278.056 334.541C278.083 333.687 277.979 332.443 277.28 331.202C275.504 328.048 272.204 328.174 270.961 328.382C269.587 328.612 268.287 329.213 267.326 329.72C266.275 330.273 265.184 330.958 264.141 331.664C262.051 333.077 259.865 334.77 258.118 336.162C257.2 336.895 256.462 337.494 255.893 337.957C255.279 338.456 254.861 338.796 254.624 338.971C245.78 345.493 233.348 346.424 220.927 346.22C218.402 346.178 216.652 345.911 215.499 345.542C214.372 345.181 214.147 344.834 214.147 344.833C214.138 344.82 214.103 344.77 214.072 344.623C214.037 344.458 214.003 344.144 214.054 343.629C214.16 342.551 214.604 340.929 215.661 338.623C216.899 335.921 218.97 333.501 221.412 330.647C222.032 329.922 222.677 329.168 223.338 328.375C223.518 328.159 223.918 327.76 224.648 327.067C224.728 326.992 224.811 326.913 224.897 326.832C225.485 326.275 226.207 325.592 226.823 324.947C227.183 324.569 227.581 324.129 227.942 323.661C228.261 323.246 228.761 322.545 229.098 321.659C229.399 320.867 229.995 318.745 228.588 316.639C227.268 314.664 225.222 314.305 224.447 314.219C218.899 313.602 213.59 315.679 209.554 317.258C209.031 317.463 208.529 317.659 208.051 317.84C203.376 319.61 199.888 320.518 196.209 319.393C195.104 319.056 194.827 318.625 194.693 318.358C194.474 317.922 194.28 317.071 194.438 315.638C194.761 312.701 196.359 309.165 197.834 306.926C201.858 300.816 207.346 297.868 215.09 294.484C217.056 293.625 218.953 292.709 220.731 291.851C220.931 291.754 221.129 291.659 221.326 291.564C223.309 290.607 225.15 289.733 226.991 288.976C230.633 287.478 234.084 286.526 237.907 286.526L238.102 286.526C238.455 286.526 238.682 286.526 238.752 286.525C238.755 286.525 238.764 286.525 238.778 286.525C238.794 286.525 238.815 286.524 238.838 286.524C238.846 286.523 238.937 286.521 239.047 286.513C239.141 286.506 239.531 286.456 239.823 286.397C243.169 283.676 241.664 277.673 239.645 276.776C239.43 276.739 239.136 276.704 239.057 276.698C239.017 276.695 238.951 276.691 238.926 276.69C238.882 276.688 238.847 276.687 238.836 276.687C238.807 276.686 238.784 276.686 238.775 276.686C238.741 276.685 238.697 276.685 238.665 276.684L238.315 276.682C237.697 276.677 236.466 276.668 234.991 276.648C231.96 276.608 228.176 276.527 226.402 276.381C226.402 276.381 226.402 276.381 226.402 276.381L226.3 276.372C224.369 276.213 222.748 276.077 221.389 275.922C221.665 275.645 221.968 275.351 222.298 275.037C228.131 269.512 235.755 265.288 243.595 261.487C249.855 258.452 256.03 258.711 262.952 260.268C265.743 260.896 268.505 261.697 271.436 262.547C272.213 262.772 273.001 263 273.805 263.23C277.548 264.3 281.546 265.367 285.66 265.954C286.153 266.025 286.662 266.085 287.126 266.107C287.348 266.118 287.69 266.127 288.077 266.092C288.082 266.092 288.088 266.091 288.096 266.091C288.288 266.075 289.445 265.984 290.571 265.208C291.323 264.69 292.37 263.639 292.655 261.937C292.923 260.334 292.347 259.106 291.987 258.517C291.383 257.532 290.572 257.002 290.406 256.894C290.4 256.89 290.395 256.887 290.391 256.884C289.877 256.545 289.333 256.307 289.043 256.184C287.728 255.625 285.373 254.863 282.867 254.108C277.745 252.567 270.73 250.689 267 249.974C266.02 249.787 264.796 249.614 263.614 249.447C263.176 249.385 262.744 249.324 262.333 249.263C260.681 249.02 259.056 248.745 257.562 248.362C254.664 247.618 253.579 246.79 253.223 246.335C253.838 245.698 255.184 244.858 257.333 244.017C261.526 242.377 266.674 241.521 268.34 241.353C287.125 239.453 299.628 248.673 313.469 261.696ZM561.166 298.841C561.165 298.842 561.166 298.835 561.172 298.822C561.169 298.834 561.167 298.839 561.166 298.841ZM223.35 323.998C223.353 323.998 223.356 323.998 223.358 323.998L223.361 323.999C223.357 323.998 223.353 323.998 223.35 323.998ZM220.156 317.643C220.169 317.623 220.177 317.613 220.178 317.613C220.178 317.612 220.172 317.622 220.156 317.643ZM417.159 356.192C417.157 356.193 417.142 356.2 417.115 356.21C417.147 356.196 417.161 356.191 417.159 356.192ZM511.536 269.05C511.537 269.05 511.548 269.049 511.57 269.05C511.546 269.051 511.535 269.05 511.536 269.05ZM514.818 274.128C514.784 274.214 514.769 274.226 514.808 274.149C514.811 274.142 514.815 274.135 514.818 274.128Z" fill="#3A2D14"/>
<path fill-rule="evenodd" clip-rule="evenodd" d="M258.281 5.39973C261.687 2.35358 265.952 0 271.065 0C290.364 0 310.418 7.31442 326.41 16.6C330.909 19.2123 335.438 21.775 339.971 24.3398C362.015 36.8135 384.148 49.3367 403.328 67.8557C410.447 74.729 417.79 81.4434 425.171 88.1927C440.901 102.577 456.804 117.119 471.08 133.694C488.446 153.857 504.682 175.428 519.626 197.393C534.024 218.557 547.96 245.57 549.762 272.586C549.942 275.297 547.891 277.641 545.18 277.822C542.468 278.003 540.124 275.952 539.943 273.24C538.317 248.85 525.557 223.605 511.49 202.928C496.722 181.22 480.71 159.953 463.624 140.115C449.728 123.982 434.566 110.123 419.077 95.9652C411.59 89.1216 404.027 82.2083 396.493 74.9346C378.295 57.3637 357.446 45.5544 335.442 33.0912C330.831 30.479 326.168 27.8382 321.469 25.1095C306.418 16.3701 288.079 9.84 271.065 9.84C269.164 9.84 267.136 10.681 264.84 12.7346C262.513 14.8156 260.251 17.8479 258.025 21.4941C255.845 25.0633 253.86 28.9461 251.935 32.7109L251.838 32.9011C249.955 36.5824 248.04 40.3278 246.164 43.0931C245.505 44.0637 244.842 45.0565 244.169 46.0638C239.438 53.1414 234.226 60.9399 226.817 66.8673C218.218 73.7466 207.025 78.2394 197.227 82.1725C195.141 83.0096 193.119 83.8213 191.199 84.6252C187.61 86.1275 183.847 87.3112 180.425 88.388C178.818 88.8935 177.286 89.3754 175.883 89.8556C171.243 91.443 167.11 93.2529 163.223 96.3353C152.557 104.795 144.181 115.292 136.818 127.112C135.215 129.686 133.89 132.909 132.574 136.567C132.177 137.668 131.772 138.839 131.359 140.034C130.475 142.588 129.551 145.257 128.585 147.62C126.231 153.374 124.213 159.308 122.155 165.362C121.234 168.069 120.305 170.8 119.335 173.55C116.411 181.834 109.208 189.054 102.409 195.056C100.081 197.112 97.6477 199.15 95.3377 201.085C94.2248 202.018 93.1405 202.926 92.1104 203.801C88.849 206.57 86.0606 209.059 83.9717 211.357C78.1947 217.712 71.1834 225.921 65.9807 234.743C60.7146 243.673 57.7518 252.481 58.957 260.248C59.772 265.5 62.6831 271.745 66.7536 277.914C68.7676 280.966 70.9983 283.899 73.2631 286.564C73.8101 281.938 75.1953 277.311 77.8427 273.052C80.7875 268.315 85.3903 264.903 90.1943 262.692C95.0143 260.474 100.379 259.301 105.279 259.301C129.977 259.301 156.517 249.84 170.611 229.546C172.317 227.089 174.01 224.538 175.72 221.964C181.185 213.734 186.815 205.255 193.552 198.785C202.854 189.85 214.579 184.3 231.505 186.093C238.483 186.833 245.199 188.703 251.562 190.707C253.489 191.313 255.363 191.925 257.206 192.527C261.598 193.96 265.811 195.334 270.117 196.442C277.395 198.313 285.039 197.697 293.07 195.874C298.671 194.603 304.087 192.851 309.605 191.067C312.159 190.24 314.736 189.407 317.362 188.611C319.392 187.996 321.414 187.453 323.436 186.91C327.046 185.94 330.657 184.97 334.317 183.589C339.863 181.498 344.018 178.937 346.288 175.434C349.757 170.079 351.845 162.757 352.875 155.892C354.566 144.614 351.249 138.189 346.038 128.097C345.215 126.503 344.346 124.819 343.441 123.009C342.226 120.579 343.211 117.623 345.641 116.408C348.071 115.193 351.027 116.178 352.242 118.609C353.045 120.215 353.861 121.78 354.667 123.324C359.955 133.464 364.797 142.745 362.606 157.352C361.478 164.872 359.098 173.758 354.546 180.785C350.542 186.964 343.954 190.472 337.789 192.796C333.73 194.327 329.174 195.559 325.262 196.617C323.391 197.123 321.667 197.589 320.215 198.028C317.957 198.713 315.586 199.479 313.139 200.27C307.418 202.119 301.289 204.099 295.248 205.47C286.463 207.464 277.076 208.391 267.667 205.972C263.039 204.782 258.355 203.254 253.84 201.781C252.065 201.201 250.316 200.631 248.607 200.092C242.395 198.136 236.439 196.511 230.468 195.879C216.736 194.424 207.811 198.733 200.368 205.881C194.485 211.532 189.711 218.713 184.407 226.692C182.587 229.43 180.704 232.262 178.693 235.158C162.146 258.987 131.946 269.141 105.279 269.141C101.851 269.141 97.8855 269.984 94.3082 271.631C90.7149 273.285 87.8532 275.587 86.1997 278.247C83.2553 282.983 82.4252 288.814 82.9783 295.009C82.9833 295.065 82.9907 295.142 82.9995 295.234C83.0293 295.543 83.0749 296.016 83.0958 296.393L83.0969 296.413C83.1185 296.8 83.1807 297.915 82.8338 299.05C82.6415 299.679 82.1561 300.885 80.9113 301.813C79.5012 302.865 77.9256 302.974 76.7647 302.752C75.7503 302.559 74.9846 302.116 74.5523 301.833C74.0737 301.519 73.65 301.163 73.292 300.833C68.4083 296.325 63.002 290.095 58.5404 283.333C54.1249 276.641 50.3599 269.016 49.2334 261.757C47.5054 250.621 51.8333 239.361 57.5048 229.744C63.2397 220.02 70.813 211.203 76.6907 204.738C79.2426 201.931 82.4564 199.089 85.7413 196.3C86.8765 195.336 88.0153 194.382 89.1549 193.428C91.4063 191.542 93.6606 189.654 95.8965 187.68C102.732 181.646 108.07 175.903 110.056 170.275C110.944 167.76 111.828 165.161 112.725 162.523C114.829 156.335 117.007 149.934 119.477 143.894C120.344 141.776 121.108 139.564 121.934 137.173C122.37 135.914 122.822 134.605 123.315 133.235C124.672 129.465 126.282 125.416 128.466 121.909C136.209 109.48 145.285 98.0025 157.108 88.6257C162.253 84.5454 167.581 82.2956 172.698 80.5453C174.589 79.8982 176.361 79.343 178.08 78.8046C181.232 77.817 184.204 76.8861 187.399 75.5484C189.623 74.6173 191.856 73.7171 194.075 72.8224C203.829 68.8902 213.32 65.064 220.67 59.1835C226.805 54.2756 231.117 47.848 235.937 40.6632C236.619 39.6459 237.312 38.6134 238.022 37.5679C239.485 35.4114 241.106 32.2758 243.087 28.4005L243.241 28.0994C245.119 24.4259 247.251 20.2572 249.627 16.3658C252.054 12.3911 254.905 8.41846 258.281 5.39973ZM73.2739 297.082C73.2729 297.081 73.2719 297.052 73.2738 297.001C73.2759 297.059 73.2749 297.084 73.2739 297.082Z" fill="#3A2D14"/>
<path fill-rule="evenodd" clip-rule="evenodd" d="M258.027 197.011C260.744 197.011 262.947 199.214 262.947 201.931C262.947 208.113 262.18 214.351 261.461 220.162L261.451 220.242C260.722 226.142 260.05 231.577 260.05 236.698C260.05 239.415 257.847 241.618 255.13 241.618C252.413 241.618 250.21 239.415 250.21 236.698C250.21 230.965 250.946 225.015 251.647 219.346C251.663 219.215 251.68 219.085 251.696 218.954C252.426 213.049 253.107 207.408 253.107 201.931C253.107 199.214 255.31 197.011 258.027 197.011Z" fill="#3A2D14"/>
<path fill-rule="evenodd" clip-rule="evenodd" d="M378.152 148.625C380.391 150.165 380.958 153.228 379.419 155.467C373.54 164.017 367.649 172.392 358.776 179.397C358.791 179.386 358.799 179.379 358.799 179.379C358.8 179.38 358.713 179.455 358.477 179.677C358.361 179.786 358.233 179.907 358.086 180.046L358.046 180.084C357.884 180.236 357.704 180.406 357.514 180.585C356.764 181.288 355.767 182.203 354.737 183.025C353.835 183.746 352.424 184.799 350.899 185.344C350.168 185.606 348.634 186.042 346.884 185.494C344.714 184.815 343.549 183.092 343.11 181.555C342.364 178.942 343.876 176.219 346.489 175.472C347.196 175.27 347.911 175.234 348.592 175.34C348.593 175.339 348.594 175.338 348.595 175.338C349.309 174.767 350.074 174.071 350.785 173.405C350.96 173.241 351.126 173.084 351.287 172.932L351.33 172.891C351.474 172.756 351.616 172.621 351.747 172.498C351.978 172.281 352.349 171.934 352.679 171.674C360.246 165.699 365.397 158.493 371.31 149.892C372.849 147.653 375.913 147.086 378.152 148.625Z" fill="#3A2D14"/>
<path d="M31.0519 320.942C34.3949 319.685 34.5454 320.166 31.0519 320.942Z" fill="white"/>
<path fill-rule="evenodd" clip-rule="evenodd" d="M49.3671 270.1C51.6893 270.438 53.7622 270.74 55.6676 270.913C58.3737 271.159 60.368 273.553 60.122 276.259C59.876 278.965 57.4828 280.959 54.7767 280.713C52.589 280.514 50.2418 280.172 47.9736 279.841C47.7158 279.804 47.459 279.766 47.2036 279.729C44.6364 279.357 42.1293 279.009 39.6757 278.824C34.6577 278.446 30.6289 278.824 27.6402 280.454C20.5428 284.326 13.8961 290.607 11.1556 296.94C9.82687 300.01 9.50716 302.86 10.1893 305.447C10.865 308.011 12.6804 310.914 16.7311 313.83C19.0707 315.515 20.6187 316.278 22.0492 316.627C23.459 316.971 25.1931 317.019 28.0576 316.518C28.6694 316.411 29.2054 316.306 29.6672 316.208C30.447 315.923 31.107 315.709 31.6345 315.562C31.9201 315.483 32.2537 315.399 32.5859 315.34C32.7204 315.316 33.0434 315.262 33.4364 315.251C33.5941 315.247 34.0729 315.237 34.6615 315.367C34.9533 315.431 35.5349 315.585 36.1753 315.976C36.8451 316.385 37.8482 317.232 38.3108 318.71C38.7773 320.201 38.4297 321.486 38.0895 322.231C37.7686 322.933 37.357 323.395 37.1447 323.615C36.7163 324.058 36.3014 324.317 36.1669 324.4C35.8288 324.609 35.5253 324.741 35.4002 324.794C35.0892 324.927 34.7632 325.039 34.4809 325.128C33.959 325.293 33.2892 325.475 32.4793 325.663C31.9929 325.851 31.4264 326.082 30.7815 326.361C25.9025 328.475 21.9378 333.488 20.104 339.738C18.2756 345.969 18.8206 352.586 21.8835 357.454C23.4584 359.957 25.2829 360.771 28.0252 361.213C29.2103 361.404 30.3888 361.498 31.8014 361.61C32.2716 361.647 32.7677 361.687 33.2986 361.733C35.2831 361.904 37.6005 362.158 39.968 362.82C43.4499 363.793 46.3776 365.528 48.8466 367.22C49.9544 367.98 51.0323 368.776 52.023 369.507C52.1331 369.588 52.2421 369.669 52.3499 369.748C53.4597 370.567 54.4649 371.3 55.4615 371.956C57.4613 373.273 59.1297 374.074 60.7705 374.377C62.3053 374.661 64.1549 374.573 66.6315 373.504C70.8222 371.695 74.5064 368.371 78.6928 364.203C79.1913 363.707 79.6992 363.196 80.217 362.675C83.8052 359.064 87.8647 354.979 92.5169 352.048C93.7253 351.287 95.2279 350.655 96.44 350.16C96.8103 350.009 97.1705 349.864 97.5236 349.722C98.4758 349.338 99.3772 348.975 100.291 348.565C101.525 348.01 102.494 347.491 103.192 346.987C103.855 346.51 104.004 346.238 104.006 346.239C104.006 346.239 104.005 346.241 104.003 346.246C104.188 345.829 104.416 344.463 104.359 342.052C104.307 339.88 104.058 337.619 103.865 335.884L103.865 335.884L103.85 335.75C103.518 332.76 102.191 329.233 100.236 325.432C98.3059 321.677 95.9654 318.03 93.8628 314.759L93.8627 314.759L93.8176 314.689C91.7525 311.477 89.3326 308.705 86.6741 305.66C85.4824 304.296 84.2429 302.876 82.9658 301.337C79.0696 296.642 75.1582 291.149 73.5971 284.124C73.0076 281.471 74.6801 278.843 77.3326 278.253C79.9852 277.664 82.6133 279.336 83.2028 281.989C84.2422 286.666 86.9071 290.678 90.538 295.053C91.4717 296.178 92.5065 297.365 93.5872 298.603C96.4429 301.876 99.6189 305.517 102.095 309.368L102.095 309.368L102.14 309.438L102.14 309.439L102.188 309.513C104.247 312.715 106.822 316.722 108.987 320.932C111.145 325.128 113.102 329.912 113.63 334.663L113.645 334.796L113.645 334.797L113.651 334.854C113.84 336.547 114.133 339.186 114.196 341.818C114.253 344.242 114.162 347.615 112.995 350.242C112.038 352.394 110.411 353.914 108.948 354.969C107.461 356.041 105.8 356.877 104.324 357.541C103.216 358.038 102.048 358.508 101.05 358.91C100.734 359.037 100.435 359.157 100.161 359.269C98.8624 359.8 98.1366 360.138 97.762 360.374C94.1274 362.664 90.926 365.874 87.2449 369.566C86.7191 370.093 86.1836 370.63 85.6357 371.176C81.4843 375.309 76.6281 379.906 70.5317 382.538C66.4177 384.314 62.5918 384.721 58.9801 384.053C55.4745 383.404 52.5253 381.805 50.0504 380.175C48.8096 379.358 47.6131 378.482 46.5086 377.667C46.401 377.588 46.2944 377.509 46.1885 377.431C45.1769 376.684 44.2399 375.992 43.2831 375.337C41.1767 373.893 39.2857 372.847 37.3192 372.297C35.8718 371.892 34.3067 371.696 32.4532 371.536C32.0869 371.505 31.6971 371.474 31.2905 371.442C29.7965 371.324 28.0752 371.188 26.458 370.927C21.9264 370.196 17.1035 368.334 13.555 362.694C8.67273 354.935 8.22431 345.275 10.6621 336.968C11.8999 332.749 13.9481 328.661 16.744 325.193C14.7461 324.343 12.8782 323.181 10.9815 321.816L13.8563 317.823M10.9815 321.816C5.50096 317.87 2.05208 313.182 0.674373 307.956C-0.696876 302.754 0.140958 297.616 2.12481 293.032C6.00941 284.055 14.6078 276.354 22.9283 271.816C28.4757 268.79 34.871 268.594 40.4156 269.012C43.2434 269.225 46.0521 269.619 48.6166 269.991C48.8697 270.028 49.1198 270.064 49.3671 270.1" fill="#3A2D14"/>
<path fill-rule="evenodd" clip-rule="evenodd" d="M266.133 467.442C265.271 468.113 264.491 469.009 263.899 470.192C263.279 471.433 263.232 472.81 263.658 474.023C263.646 474.2 263.64 474.381 263.641 474.565C263.649 475.973 264.092 477.711 265.522 479.119C266.831 480.407 268.428 480.877 269.644 481.058C270.886 481.243 272.22 481.201 273.556 481.052C276.185 480.76 277.741 478.968 278.455 477.86C279.238 476.646 279.683 475.272 279.873 474.03C280.056 472.844 280.091 471.218 279.475 469.623C279.044 468.509 278.21 467.301 276.939 466.5C277.319 463.891 275.566 461.429 272.95 460.954C270.277 460.468 267.716 462.241 267.23 464.914C267.167 465.261 266.9 465.948 266.228 467.258C266.197 467.317 266.166 467.378 266.133 467.442ZM273.446 474.913C273.444 474.924 273.442 474.93 273.442 474.93C273.442 474.93 273.443 474.924 273.446 474.913Z" fill="#9EC73D"/>
<path fill-rule="evenodd" clip-rule="evenodd" d="M280.612 499.989C282.176 498.057 282.06 495.216 280.263 493.419C278.341 491.498 275.226 491.498 273.305 493.419C272.026 494.698 271.246 496.422 270.938 497.232C270.848 497.466 270.722 497.821 270.63 498.216L270.629 498.219C270.597 498.356 270.484 498.843 270.487 499.454C270.488 499.692 270.496 500.547 270.942 501.516C271.192 502.057 271.664 502.818 272.523 503.443C273.44 504.109 274.492 504.396 275.475 504.385C277.128 504.368 278.209 503.536 278.441 503.357L278.444 503.355C278.829 503.059 279.088 502.769 279.208 502.629C279.462 502.332 279.64 502.056 279.725 501.921C279.917 501.615 280.093 501.282 280.242 500.984C280.404 500.66 280.527 500.326 280.612 499.989ZM280.133 500.736C280.133 500.735 280.133 500.734 280.134 500.733C280.127 500.753 280.125 500.755 280.133 500.736Z" fill="#9EC73D"/>
<path fill-rule="evenodd" clip-rule="evenodd" d="M475.046 476.398C478.096 475.128 481.101 476.33 483.203 477.653C484.216 478.291 485.179 479.022 485.952 479.883C486.684 480.697 487.619 482.047 487.75 483.876C487.899 485.973 486.927 487.651 485.745 488.68C484.701 489.589 483.532 489.995 482.7 490.188C482.316 490.277 481.919 490.34 481.516 490.378C480.62 491.599 479.175 492.392 477.545 492.392C475.584 492.392 474.11 491.463 473.204 490.579C472.324 489.721 471.772 488.727 471.425 487.898C470.741 486.259 470.452 484.279 470.706 482.416C470.942 480.682 471.898 477.709 475.046 476.398Z" fill="#9EC73D"/>
<path fill-rule="evenodd" clip-rule="evenodd" d="M465.085 508.21C465.085 505.493 467.288 503.29 470.005 503.29C471.256 503.29 472.369 503.633 473.236 504.064C474.063 504.477 475.044 505.159 475.79 506.208C476.48 507.181 477.681 509.692 476.023 512.319C474.671 514.462 472.42 514.869 471.558 514.977C469.065 515.289 466.775 513.677 466.177 511.301C465.494 510.456 465.085 509.381 465.085 508.21Z" fill="#9EC73D"/>
</svg>
