<svg width="512" height="512" viewBox="0 0 512 512" fill="none" xmlns="http://www.w3.org/2000/svg">
<g clip-path="url(#clip0_96_2678)">
<path d="M469.714 223.32H42.2808V500.828H469.714V223.32Z" fill="#42B847"/>
<path d="M296.903 223.32H215.092V500.828H296.903V223.32Z" fill="#FF3535"/>
<path d="M401.04 28.5578C377.851 5.36877 340.257 5.36877 317.068 28.5578C300.129 44.2308 264.39 108.126 256 129.921H359.105V129.918C374.284 129.907 389.459 124.109 401.041 112.529C424.229 89.3408 424.229 51.7468 401.04 28.5578Z" fill="#FF3535"/>
<path d="M401.812 56.6017C385.04 39.8307 357.847 39.8307 341.075 56.6017C328.82 67.9407 302.971 114.155 296.902 129.92H359.102V129.917C374.281 129.906 389.456 124.108 401.038 112.528C406.741 106.824 411.035 100.247 413.932 93.2287C415.834 80.2587 411.795 66.5857 401.812 56.6017Z" fill="#DF3030"/>
<path d="M110.958 28.5578C134.147 5.36877 171.741 5.36877 194.929 28.5578C211.869 44.2308 247.608 108.126 255.997 129.921H152.893V129.918C137.714 129.907 122.54 124.109 110.957 112.529C87.7688 89.3408 87.7688 51.7468 110.958 28.5578Z" fill="#FF3535"/>
<path d="M110.187 56.6017C126.959 39.8307 154.151 39.8307 170.924 56.6017C183.177 67.9407 209.028 114.155 215.095 129.92H152.895V129.917C137.716 129.906 122.542 124.108 110.959 112.528C105.255 106.824 100.963 100.247 98.0652 93.2287C96.1642 80.2587 100.203 66.5857 110.187 56.6017Z" fill="#DF3030"/>
<path d="M503.722 129.923H8.28418V223.331H503.722V129.923Z" fill="#42B847"/>
<path d="M296.903 129.923H215.092V223.331H296.903V129.923Z" fill="#FF3535"/>
<path d="M503.716 121.636H403.385C404.583 120.593 405.762 119.521 406.896 118.387C419.676 105.608 426.714 88.6168 426.714 70.5448C426.714 52.4718 419.676 35.4808 406.896 22.7008C394.116 9.92081 377.124 2.88281 359.052 2.88281C341.033 2.88281 324.088 9.88081 311.322 22.5898C296.432 36.4778 270.119 81.3608 255.999 109.894C241.878 81.3608 215.566 36.4778 200.676 22.5898C187.909 9.87981 170.965 2.88281 152.944 2.88281C134.871 2.88281 117.88 9.92081 105.1 22.7008C92.32 35.4808 85.282 52.4718 85.282 70.5448C85.282 88.6168 92.321 105.609 105.101 118.387C106.235 119.521 107.414 120.594 108.612 121.636H8.284C3.709 121.636 0 125.345 0 129.92V223.325C0 227.9 3.709 231.609 8.284 231.609H34.001V500.834C34.001 505.409 37.71 509.118 42.285 509.118H469.713C474.288 509.118 477.997 505.409 477.997 500.834V231.609H503.717C508.292 231.609 512.001 227.9 512.001 223.325V129.92C512 125.345 508.291 121.636 503.716 121.636ZM405.846 91.0908C403.325 96.8268 399.745 102.107 395.181 106.67C385.541 116.31 372.725 121.624 359.097 121.633C359.083 121.633 359.069 121.635 359.055 121.635H309.738C319.591 101.759 338.106 70.6338 346.7 62.6818C346.778 62.6088 346.856 62.5348 346.931 62.4598C360.447 48.9438 382.438 48.9448 395.952 62.4598C403.554 70.0608 407.12 80.4498 405.846 91.0908ZM106.151 91.0928C104.876 80.4508 108.444 70.0608 116.044 62.4598C129.559 48.9458 151.551 48.9448 165.065 62.4598C165.141 62.5348 165.219 62.6088 165.297 62.6818C173.891 70.6338 192.406 101.758 202.259 121.635H152.942C152.928 121.635 152.914 121.633 152.9 121.633C139.271 121.623 126.456 116.309 116.816 106.67C112.252 102.107 108.673 96.8278 106.151 91.0928ZM206.811 492.55H50.569V231.609H206.81V492.55H206.811ZM206.811 215.041H16.568V138.204H206.812L206.811 215.041ZM176.67 50.6348C157.519 31.5978 126.955 30.8508 106.893 48.3668C109.358 43.2588 112.686 38.5438 116.815 34.4148C126.466 24.7648 139.296 19.4498 152.943 19.4498C166.589 19.4498 179.42 24.7648 189.07 34.4148C189.145 34.4908 189.224 34.5648 189.302 34.6378C203.017 47.3268 230.632 95.1268 243.296 121.636H220.575C211.766 102.154 188.97 62.1408 176.67 50.6348ZM288.619 492.55H223.378V231.609H288.619V492.55ZM288.619 215.041H223.378V138.204H288.619V215.041ZM268.699 121.636C281.363 95.1278 308.978 47.3268 322.693 34.6378C322.771 34.5648 322.85 34.4908 322.925 34.4148C332.575 24.7648 345.405 19.4498 359.052 19.4498C372.699 19.4498 385.53 24.7648 395.18 34.4148C399.309 38.5438 402.637 43.2588 405.102 48.3668C385.04 30.8508 354.477 31.5978 335.326 50.6348C323.025 62.1418 300.229 102.155 291.421 121.636H268.699ZM461.429 492.55H305.186V231.609H461.427V492.55H461.429ZM495.432 215.041H305.186V138.204H495.431V215.041H495.432Z" fill="#3A2D14"/>
</g>
<defs>
<clipPath id="clip0_96_2678">
<rect width="512" height="512" fill="white"/>
</clipPath>
</defs>
</svg>
