<svg width="83" height="82" viewBox="0 0 83 82" fill="none" xmlns="http://www.w3.org/2000/svg">
<circle cx="53.1637" cy="51.6223" r="28.7334" fill="#EFEBD2" stroke="#3A2D14" stroke-width="2.00287"/>
<path d="M80.8153 53.7487C80.8685 53.0469 80.8956 52.3378 80.8956 51.6224C80.8956 44.5762 78.2677 38.1437 73.9385 33.2516L72.9722 33.1405C72.7655 33.1167 72.5568 33.1633 72.38 33.2728L67.8166 36.0977C67.8056 36.1045 67.7934 36.1093 67.7807 36.1118C67.7399 36.1196 67.6983 36.103 67.6735 36.0697C66.8614 34.9793 65.4617 34.2592 63.8713 34.2592C61.3611 34.2592 59.4033 36.031 59.4033 37.6487L59.4034 37.6677L59.4035 37.6816C59.4036 37.6961 59.4038 37.7106 59.4041 37.7252L59.4033 37.7262V38.388C59.4033 38.8306 59.7621 39.1894 60.2047 39.1894H60.5588C60.8141 39.1894 61.021 39.3963 61.021 39.6516C61.021 39.9068 60.8141 40.1138 60.5588 40.1138H59.7071C59.5098 40.1138 59.3176 40.1769 59.1588 40.294L58.5342 40.7542C58.1865 41.0103 58.0626 41.4732 58.2357 41.8688L58.7758 43.1035C58.923 43.4399 59.2555 43.6573 59.6227 43.6573H60.496C60.7789 43.6573 61.0463 43.7869 61.2216 44.0089L61.9006 44.8691C62.0294 45.0322 62.0995 45.234 62.0995 45.4419V47.509C62.0995 48.0195 62.5134 48.4334 63.0239 48.4334H64.2179C64.6646 48.4334 65.0268 48.0712 65.0268 47.6245C65.0268 47.1778 65.3889 46.8157 65.8356 46.8157H67.9925C68.4818 46.8157 68.8784 47.2123 68.8784 47.7016C68.8784 48.1908 68.4818 48.5875 67.9925 48.5875H66.1778C65.4169 48.5875 64.9818 49.4554 65.4372 50.0651L68.4704 54.1257C68.8075 54.5769 69.4664 54.6244 69.8647 54.2261L72.8445 51.2462C73.0179 51.0729 73.253 50.9755 73.4982 50.9755H75.1686C75.3849 50.9755 75.5943 51.0513 75.7604 51.1897L76.0951 51.4686C76.3058 51.6443 76.4277 51.9044 76.4277 52.1788V52.8243C76.4277 53.3348 76.8416 53.7487 77.3521 53.7487H80.8153Z" fill="#3A2D14"/>
<path d="M32.493 33.1344H35.523C36.0335 33.1344 36.4474 33.5483 36.4474 34.0588V35.9076C36.4474 35.9501 36.4819 35.9846 36.5244 35.9846C34.9506 36.0167 33.6742 37.0883 33.6742 38.4497C33.6742 39.8111 34.9503 40.9148 36.5244 40.9148H38.1421C38.6526 40.9148 39.0665 40.5009 39.0665 39.9904V39.7593C39.0665 39.2487 39.4804 38.8349 39.9909 38.8349H41.8578C42.0936 38.8349 42.3204 38.925 42.492 39.0867L44.6308 41.1033C44.816 41.278 44.9211 41.5213 44.9211 41.7759V43.9434C44.9211 44.1754 44.8338 44.399 44.6766 44.5696L42.4995 46.9334C42.3245 47.1234 42.0779 47.2315 41.8195 47.2315H40.2725C39.772 47.2315 39.3786 47.6418 39.2004 48.1094C38.8458 49.0402 37.9882 49.6966 36.9866 49.6966H34.9067C34.3962 49.6966 33.9823 50.1104 33.9823 50.621V52.0076C33.9823 52.5181 33.5684 52.932 33.0579 52.932H31.4019C31.0894 52.932 30.7981 52.7741 30.6275 52.5123L26.0962 45.5602C27.1452 40.856 29.3892 36.6023 32.493 33.1344Z" fill="#3A2D14"/>
<path d="M42.9182 36.6779C42.6629 36.6779 42.456 36.8849 42.456 37.1401C42.456 37.3506 42.5315 37.4606 42.6871 37.6023L45.3833 40.0674C45.7784 40.4274 46.2056 40.4083 46.5388 39.9904L49.9578 36.4686C50.0883 36.3049 50.1593 36.1017 50.1593 35.8924V35.4371C50.1593 35.1955 50.0648 34.9635 49.8959 34.7908L47.0418 31.8719C46.8679 31.694 46.6296 31.5937 46.3809 31.5937H41.6086C41.1832 31.5937 40.8383 31.9386 40.8383 32.3641C40.8383 32.7895 41.1832 33.1344 41.6086 33.1344H42.9182C44.1945 33.1344 45.2292 34.0656 45.2292 35.2143C45.2292 36.363 44.1943 36.6509 42.9182 36.6779Z" fill="#3A2D14"/>
<path d="M34.1994 54.424C33.6293 53.8381 34.0445 52.8549 34.8619 52.8549H40.6865C40.9316 52.8549 41.1668 52.9523 41.3401 53.1257L46.191 57.9765C46.3643 58.1499 46.5995 58.2473 46.8446 58.2473H48.2335C48.744 58.2473 49.1579 58.6611 49.1579 59.1717V61.3252L49.1579 61.3258L49.1578 61.3266C49.1577 61.327 49.1575 61.3275 49.1574 61.3279C49.1569 61.329 49.1562 61.3301 49.1553 61.3309C49.1537 61.3322 49.1528 61.3341 49.1527 61.3361C49.0638 62.7074 47.854 63.7937 46.4617 63.7937C46.4126 63.7937 46.3639 63.7923 46.3155 63.7897C46.3136 63.7896 46.3117 63.7902 46.3102 63.7915C46.3093 63.7923 46.3085 63.7933 46.3081 63.7945C46.3078 63.7953 46.3077 63.7962 46.3077 63.7971V65.7039C46.3077 65.9596 46.2018 66.2038 46.0151 66.3786L41.7471 70.3757C41.5605 70.5505 41.4545 70.7947 41.4545 71.0504V71.3628C41.4545 72.0559 40.7198 72.5025 40.1045 72.1833L39.1801 71.7038C38.8737 71.5449 38.6813 71.2284 38.6813 70.8833V61.4045C38.6813 61.3624 38.6465 61.3286 38.6043 61.3286C36.8325 61.3286 35.4459 60.4812 35.4459 58.8635V56.0807C35.4459 55.8399 35.352 55.6086 35.1841 55.4361L34.1994 54.424Z" fill="#3A2D14"/>
<path d="M51.9311 50.698C51.9311 50.1875 52.345 49.7736 52.8555 49.7736H63.0239C63.3167 49.7736 63.4658 49.9235 63.6402 50.1588L67.877 55.8592C68.0513 56.0945 68.2005 56.2444 68.4933 56.2444H69.9486C70.0363 56.2444 70.111 56.3108 70.111 56.3985C70.111 56.9408 69.8167 57.4177 69.372 57.6922C68.9376 57.9604 68.4933 58.353 68.4933 58.8635V62.494C68.4933 62.7346 68.3994 62.9658 68.2317 63.1384L66.0587 65.3734C65.8909 65.5459 65.7971 65.7771 65.7971 66.0178V67.4913C65.7971 68.0018 65.3832 68.4157 64.8727 68.4157H63.1843C62.9341 68.4157 62.6945 68.3142 62.5204 68.1345L60.6652 66.2195C60.4982 66.047 60.4048 65.8164 60.4048 65.5763V60.0961C60.4048 59.5855 59.9909 59.1717 59.4804 59.1717H57.1754C57.1733 59.1717 57.1713 59.1713 57.1694 59.1705C57.1677 59.1699 57.1661 59.1689 57.1647 59.1677C57.1615 59.165 57.1574 59.1636 57.1532 59.1638C57.0566 59.169 56.9592 59.1717 56.8612 59.1717C54.1667 59.1717 51.977 57.1789 51.9318 54.7048L51.9314 54.704L51.9311 54.7036L51.9311 54.7033V50.698Z" fill="#3A2D14"/>
<path d="M55.3206 44.6588C55.3206 44.1482 55.7344 43.7344 56.245 43.7344H58.7467C59.0668 43.7344 59.3263 43.9938 59.3263 44.3139C59.3263 44.4378 59.2866 44.5585 59.213 44.6581L57.2154 47.3647C57.0411 47.6008 56.7651 47.7401 56.4716 47.7401H56.245C55.7344 47.7401 55.3206 47.3262 55.3206 46.8157V44.6588Z" fill="#3A2D14"/>
<path d="M57.3234 41.2693C57.834 41.2693 58.2478 40.8554 58.2478 40.3449V39.353C58.2478 38.9649 57.9331 38.6501 57.5449 38.6501C57.3218 38.6501 57.1119 38.7561 56.9794 38.9356L55.7027 40.6653C55.6546 40.7304 55.6287 40.8093 55.6287 40.8903C55.6287 41.0996 55.7984 41.2693 56.0077 41.2693H57.3234Z" fill="#3A2D14"/>
<path d="M13.5542 16.6254L21.3424 8.02058L33.7146 4.11503L47.9401 5.09817L57.9399 10.0881L64.9743 16.4001L27.7132 26.8042L21.7106 22.2607L17.679 35.6558L14.3028 38.6836L12.3657 26.4978L13.5542 16.6254Z" fill="#FF3535"/>
<path d="M24.4427 29.7097L38.402 20.6482L55.7872 16.6347L68.2756 18.1408L71.6054 22.3137L70.6676 26.8448L48.2073 29.3126L38.0469 33.7501L32.2364 37.4882L28.7041 39.094L24.6169 34.5615L24.4427 29.7097Z" fill="#EFEBD2"/>
<path d="M26.498 26.7462L22.6973 23.3063M22.6973 23.3063C24.7621 22.4595 29.0822 20.4693 30.5738 19.8232C31.9969 19.2068 25.8835 21.8311 22.6973 23.3063ZM22.6973 23.3063C22.7036 21.9552 23.913 18.47 28.4449 14.4115M28.4449 14.4115C28.9988 13.9154 29.6024 13.4108 30.2596 12.9004C29.7487 13.3075 29.1225 13.8254 28.4449 14.4115ZM28.4449 14.4115C25.8859 16.6248 22.5923 19.8093 21.9957 21.6612C21.0525 24.5892 18.0247 34.6581 16.8759 36.6896C15.8605 38.4852 14.6231 39.4987 13.9205 40.011C13.7137 40.1618 13.3976 40.0068 13.3853 39.7512C13.2147 36.1846 12.6171 29.6096 12.5056 27.3881C12.1927 21.154 12.9723 15.3822 16.3083 11.8845C18.5101 9.57603 21.209 5.69749 33.3683 3.94819C43.0958 2.54874 52.7709 6.27091 56.3925 8.30692C61.0715 10.9374 64.1005 14.8031 66.182 17.4951M25.7591 28.8247C24.9766 29.8292 23.6787 32.3736 24.7474 34.5156C26.0833 37.1931 27.6663 39.9203 29.4403 39.3044C35.2458 37.2889 36.3772 32.6869 46.2112 30.0907C53.8048 28.086 59.874 27.8038 66.687 28.1856C69.6817 28.3535 70.9872 27.3685 71.2501 26.3752C71.8821 23.9875 71.9638 20.7856 69.0157 18.9056C65.9752 16.9667 59.7472 15.7277 49.3062 17.6272C40.6983 19.1933 34.4899 22.0947 31.552 23.9862C29.7453 25.1495 27.2847 26.8664 25.7591 28.8247Z" stroke="#3A2D14" stroke-width="1.54067" stroke-linecap="round"/>
<path d="M21.1677 41.0289C21.6158 45.1071 18.3968 48.9275 13.8087 49.4316C9.22064 49.9357 5.24891 46.9054 4.80082 42.8272C4.35273 38.749 7.57176 34.9287 12.1598 34.4246C16.7479 33.9205 20.7197 36.9507 21.1677 41.0289Z" fill="#EFEBD2" stroke="#3A2D14" stroke-width="1.8488"/>
</svg>
