<svg width="35" height="36" viewBox="0 0 35 36" fill="none" xmlns="http://www.w3.org/2000/svg">
<path d="M16.8315 25.9071C17.222 26.2976 17.8552 26.2976 18.2457 25.9071L24.6096 19.5431C25.0002 19.1526 25.0002 18.5195 24.6096 18.1289C24.2191 17.7384 23.586 17.7384 23.1954 18.1289L17.5386 23.7858L11.8817 18.1289C11.4912 17.7384 10.858 17.7384 10.4675 18.1289C10.077 18.5195 10.077 19.1526 10.4675 19.5431L16.8315 25.9071ZM16.5386 12L16.5386 25.2L18.5386 25.2L18.5386 12L16.5386 12Z" fill="#3A2D14"/>
<path d="M34.2463 18C34.2463 27.6322 26.7441 35.4 17.5387 35.4C8.33321 35.4 0.830957 27.6322 0.830957 18C0.830957 8.36785 8.33321 0.6 17.5387 0.6C26.7441 0.6 34.2463 8.36785 34.2463 18Z" stroke="#3A2D14" stroke-width="1.2"/>
</svg>
