<svg width="60" height="61" viewBox="0 0 60 61" fill="none" xmlns="http://www.w3.org/2000/svg">
<circle cx="30.1207" cy="30.6372" r="28.7334" fill="#EFEBD2" stroke="#3A2D14" stroke-width="2.00287"/>
<path d="M57.7728 32.7635C57.8261 32.0618 57.8532 31.3527 57.8532 30.6373C57.8532 23.591 55.2252 17.1586 50.8961 12.2665L49.9297 12.1553C49.723 12.1315 49.5144 12.1782 49.3375 12.2877L44.7742 15.1126C44.7631 15.1194 44.751 15.1241 44.7382 15.1266C44.6974 15.1345 44.6559 15.1179 44.631 15.0845C43.8189 13.9941 42.4192 13.2741 40.8288 13.2741C38.3187 13.2741 36.3608 15.0459 36.3608 16.6636L36.3609 16.6825L36.361 16.6964C36.3611 16.7109 36.3613 16.7255 36.3616 16.74L36.3608 16.741V17.4028C36.3608 17.8454 36.7196 18.2042 37.1622 18.2042H37.5163C37.7716 18.2042 37.9785 18.4112 37.9785 18.6664C37.9785 18.9217 37.7716 19.1286 37.5163 19.1286H36.6646C36.4673 19.1286 36.2751 19.1918 36.1163 19.3088L35.4918 19.769C35.1441 20.0252 35.0201 20.488 35.1932 20.8837L35.7334 22.1183C35.8806 22.4548 36.213 22.6722 36.5802 22.6722H37.4535C37.7365 22.6722 38.0038 22.8017 38.1791 23.0238L38.8582 23.8839C38.987 24.0471 39.057 24.2489 39.057 24.4567V26.5238C39.057 27.0344 39.4709 27.4482 39.9814 27.4482H41.1754C41.6221 27.4482 41.9843 27.0861 41.9843 26.6394C41.9843 26.1927 42.3464 25.8305 42.7931 25.8305H44.9501C45.4393 25.8305 45.8359 26.2272 45.8359 26.7164C45.8359 27.2057 45.4393 27.6023 44.9501 27.6023H43.1353C42.3744 27.6023 41.9394 28.4703 42.3947 29.0799L45.4279 33.1405C45.765 33.5918 46.4239 33.6392 46.8222 33.2409L49.802 30.2611C49.9754 30.0877 50.2105 29.9903 50.4557 29.9903H52.1261C52.3424 29.9903 52.5518 30.0662 52.7179 30.2046L53.0526 30.4835C53.2634 30.6591 53.3852 30.9193 53.3852 31.1936V31.8391C53.3852 32.3497 53.7991 32.7635 54.3096 32.7635H57.7728Z" fill="#3A2D14"/>
<path d="M9.45056 12.1492H12.4805C12.991 12.1492 13.4049 12.5631 13.4049 13.0736V14.9224C13.4049 14.965 13.4394 14.9995 13.4819 14.9995C11.9081 15.0316 10.6317 16.1031 10.6317 17.4646C10.6317 18.826 11.9078 19.9296 13.4819 19.9296H15.0996C15.6102 19.9296 16.024 19.5158 16.024 19.0052V18.7741C16.024 18.2636 16.4379 17.8497 16.9484 17.8497H18.8153C19.0511 17.8497 19.2779 17.9398 19.4495 18.1015L21.5883 20.1181C21.7736 20.2928 21.8786 20.5361 21.8786 20.7908V22.9583C21.8786 23.1903 21.7913 23.4138 21.6341 23.5845L19.457 25.9482C19.282 26.1383 19.0354 26.2464 18.7771 26.2464H17.23C16.7295 26.2464 16.3361 26.6566 16.1579 27.1243C15.8033 28.055 14.9457 28.7114 13.9441 28.7114H11.8642C11.3537 28.7114 10.9398 29.1253 10.9398 29.6358V31.0224C10.9398 31.533 10.526 31.9468 10.0154 31.9468H8.35941C8.04693 31.9468 7.7556 31.789 7.58498 31.5272L3.05371 24.5751C4.10268 19.8708 6.34668 15.6172 9.45056 12.1492Z" fill="#3A2D14"/>
<path d="M19.8757 15.6928C19.6204 15.6928 19.4135 15.8997 19.4135 16.155C19.4135 16.3654 19.489 16.4755 19.6446 16.6172L22.3408 19.0823C22.7359 19.4423 23.1631 19.4232 23.4963 19.0052L26.9153 15.4834C27.0458 15.3197 27.1168 15.1166 27.1168 14.9073V14.4519C27.1168 14.2103 27.0223 13.9784 26.8534 13.8057L23.9993 10.8867C23.8254 10.7089 23.5871 10.6086 23.3384 10.6086H18.5661C18.1407 10.6086 17.7958 10.9535 17.7958 11.3789C17.7958 11.8044 18.1407 12.1492 18.5661 12.1492H19.8757C21.152 12.1492 22.1867 13.0805 22.1867 14.2291C22.1867 15.3779 21.1518 15.6657 19.8757 15.6928Z" fill="#3A2D14"/>
<path d="M11.1569 33.4388C10.5868 32.8529 11.002 31.8698 11.8194 31.8698H17.644C17.8892 31.8698 18.1243 31.9672 18.2977 32.1405L23.1485 36.9914C23.3218 37.1647 23.557 37.2621 23.8021 37.2621H25.191C25.7015 37.2621 26.1154 37.676 26.1154 38.1865V40.34L26.1154 40.3407L26.1153 40.3414C26.1152 40.3419 26.1151 40.3423 26.1149 40.3427C26.1145 40.3439 26.1137 40.3449 26.1128 40.3457C26.1113 40.3471 26.1103 40.349 26.1102 40.351C26.0214 41.7222 24.8115 42.8085 23.4192 42.8085C23.3702 42.8085 23.3214 42.8072 23.273 42.8045C23.2711 42.8044 23.2692 42.805 23.2677 42.8063C23.2668 42.8071 23.2661 42.8082 23.2656 42.8094C23.2653 42.8102 23.2652 42.811 23.2652 42.8119V44.7188C23.2652 44.9744 23.1593 45.2187 22.9726 45.3935L18.7046 49.3906C18.518 49.5653 18.4121 49.8096 18.4121 50.0653V50.3776C18.4121 51.0708 17.6774 51.5174 17.062 51.1982L16.1376 50.7187C15.8312 50.5597 15.6389 50.2433 15.6389 49.8981V40.4194C15.6389 40.3772 15.604 40.3435 15.5618 40.3435C13.7901 40.3435 12.4035 39.4961 12.4035 37.8784V35.0955C12.4035 34.8547 12.3095 34.6235 12.1416 34.4509L11.1569 33.4388Z" fill="#3A2D14"/>
<path d="M28.8886 29.7129C28.8886 29.2023 29.3025 28.7885 29.813 28.7885H39.9814C40.2742 28.7885 40.4233 28.9384 40.5977 29.1736L44.8345 34.8741C45.0089 35.1093 45.158 35.2593 45.4508 35.2593H46.9061C46.9939 35.2593 47.0685 35.3256 47.0685 35.4133C47.0685 35.9557 46.7742 36.4325 46.3295 36.7071C45.8951 36.9753 45.4508 37.3679 45.4508 37.8784V41.5088C45.4508 41.7495 45.3569 41.9807 45.1892 42.1532L43.0162 44.3882C42.8485 44.5608 42.7546 44.792 42.7546 45.0326V46.5061C42.7546 47.0167 42.3407 47.4305 41.8302 47.4305H40.1418C39.8916 47.4305 39.652 47.3291 39.4779 47.1493L37.6227 45.2343C37.4557 45.0619 37.3623 44.8312 37.3623 44.5911V39.1109C37.3623 38.6004 36.9484 38.1865 36.4379 38.1865H34.1329C34.1308 38.1865 34.1288 38.1861 34.1269 38.1854C34.1252 38.1847 34.1237 38.1838 34.1223 38.1826C34.1191 38.1798 34.1149 38.1785 34.1107 38.1787C34.0141 38.1839 33.9168 38.1865 33.8187 38.1865C31.1242 38.1865 28.9345 36.1937 28.8893 33.7196L28.889 33.7189L28.8886 33.7184L28.8886 33.7181V29.7129Z" fill="#3A2D14"/>
<path d="M32.2781 23.6736C32.2781 23.1631 32.6919 22.7492 33.2025 22.7492H35.7042C36.0243 22.7492 36.2838 23.0087 36.2838 23.3288C36.2838 23.4527 36.2441 23.5733 36.1705 23.673L34.1729 26.3795C33.9986 26.6156 33.7226 26.7549 33.4291 26.7549H33.2025C32.6919 26.7549 32.2781 26.3411 32.2781 25.8305V23.6736Z" fill="#3A2D14"/>
<path d="M34.2809 20.2841C34.7915 20.2841 35.2053 19.8703 35.2053 19.3597V18.3679C35.2053 17.9797 34.8906 17.665 34.5024 17.665C34.2793 17.665 34.0694 17.771 33.9369 17.9505L32.6603 19.6801C32.6122 19.7453 32.5862 19.8241 32.5862 19.9052C32.5862 20.1145 32.7559 20.2841 32.9652 20.2841H34.2809Z" fill="#3A2D14"/>
</svg>
