<svg width="476" height="476" viewBox="0 0 476 476" fill="none" xmlns="http://www.w3.org/2000/svg">
<g clip-path="url(#clip0_19_5634)">
<path d="M436.15 207.866H39.4663V465.41H436.15V207.866Z" fill="#42B847"/>
<path d="M275.771 207.866H199.845V465.41H275.771V207.866Z" fill="#FF3535"/>
<path d="M372.416 27.1152C350.895 5.59442 316.006 5.59442 294.485 27.1152C278.765 41.6607 245.597 100.959 237.81 121.186H333.498V121.183C347.585 121.173 361.668 115.792 372.417 105.045C393.937 83.5254 393.937 48.636 372.416 27.1152Z" fill="#FF3535"/>
<path d="M373.132 53.1421C357.567 37.5776 332.33 37.5776 316.765 53.1421C305.392 63.6654 281.402 106.555 275.77 121.186H333.495V121.183C347.582 121.173 361.665 115.792 372.414 105.045C377.707 99.7511 381.692 93.6473 384.381 87.1341C386.146 75.0972 382.397 62.4079 373.132 53.1421Z" fill="#DF3030"/>
<path d="M103.203 27.1152C124.723 5.59442 159.613 5.59442 181.133 27.1152C196.854 41.6607 230.022 100.959 237.808 121.186H142.121V121.183C128.034 121.173 113.951 115.792 103.202 105.045C81.6819 83.5254 81.6819 48.636 103.203 27.1152Z" fill="#FF3535"/>
<path d="M102.487 53.1421C118.053 37.5776 143.288 37.5776 158.855 53.1421C170.226 63.6654 194.217 106.555 199.848 121.186H142.123V121.183C128.036 121.173 113.953 115.792 103.204 105.045C97.9099 99.7511 93.9267 93.6473 91.2372 87.1341C89.4729 75.0972 93.2214 62.4079 102.487 53.1421Z" fill="#DF3030"/>
<path d="M467.711 121.188H7.91528V207.876H467.711V121.188Z" fill="#42B847"/>
<path d="M275.771 121.188H199.845V207.876H275.771V121.188Z" fill="#FF3535"/>
<path d="M467.705 113.497H374.592C375.704 112.529 376.798 111.535 377.851 110.482C389.711 98.6225 396.243 82.8538 396.243 66.082C396.243 49.3091 389.711 33.5405 377.851 21.6799C365.99 9.81928 350.221 3.2876 333.449 3.2876C316.726 3.2876 301 9.78216 289.152 21.5769C275.334 34.4658 250.914 76.1198 237.809 102.6C224.704 76.1198 200.285 34.4658 186.466 21.5769C174.618 9.78123 158.893 3.2876 142.168 3.2876C125.395 3.2876 109.627 9.81928 97.7661 21.6799C85.9055 33.5405 79.3738 49.3091 79.3738 66.082C79.3738 82.8538 85.9064 98.6234 97.767 110.482C98.8194 111.535 99.9136 112.53 101.025 113.497H7.9151C3.66922 113.497 0.227051 116.94 0.227051 121.185V207.871C0.227051 212.117 3.66922 215.559 7.9151 215.559H31.782V465.416C31.782 469.662 35.2242 473.104 39.47 473.104H436.149C440.395 473.104 443.837 469.662 443.837 465.416V215.559H467.706C471.952 215.559 475.394 212.117 475.394 207.871V121.185C475.393 116.94 471.951 113.497 467.705 113.497ZM376.876 85.1499C374.537 90.4732 371.214 95.3734 366.978 99.6081C358.032 108.555 346.138 113.486 333.49 113.495C333.477 113.495 333.464 113.497 333.451 113.497H287.682C296.826 95.0504 314.01 66.1646 321.985 58.7846C322.058 58.7169 322.13 58.6482 322.2 58.5786C334.743 46.0349 355.152 46.0359 367.694 58.5786C374.749 65.6328 378.059 75.2744 376.876 85.1499ZM98.7415 85.1517C97.5582 75.2753 100.87 65.6328 107.923 58.5786C120.465 46.0368 140.875 46.0359 153.417 58.5786C153.488 58.6482 153.56 58.7169 153.632 58.7846C161.608 66.1646 178.791 95.0495 187.935 113.497H142.166C142.153 113.497 142.14 113.495 142.127 113.495C129.479 113.485 117.586 108.554 108.639 99.6081C104.404 95.3734 101.082 90.4741 98.7415 85.1517ZM192.16 457.728H47.1581V215.559H192.159V457.728H192.16ZM192.16 200.183H15.6031V128.874H192.161L192.16 200.183ZM164.187 47.6043C146.414 29.9368 118.049 29.2436 99.4301 45.4995C101.718 40.7589 104.806 36.3831 108.638 32.5512C117.595 23.5954 129.502 18.6628 142.167 18.6628C154.832 18.6628 166.739 23.5954 175.695 32.5512C175.765 32.6217 175.838 32.6904 175.911 32.7581C188.639 44.5343 214.267 88.8955 226.02 113.497H204.934C196.758 95.417 175.602 58.2825 164.187 47.6043ZM268.083 457.728H207.535V215.559H268.083V457.728ZM268.083 200.183H207.535V128.874H268.083V200.183ZM249.596 113.497C261.349 88.8964 286.977 44.5343 299.705 32.7581C299.778 32.6904 299.851 32.6217 299.921 32.5512C308.876 23.5954 320.783 18.6628 333.449 18.6628C346.114 18.6628 358.022 23.5954 366.978 32.5512C370.81 36.3831 373.898 40.7589 376.186 45.4995C357.567 29.2436 329.203 29.9368 311.429 47.6043C300.013 58.2835 278.857 95.4179 270.683 113.497H249.596ZM428.461 457.728H283.458V215.559H428.459V457.728H428.461ZM460.017 200.183H283.458V128.874H460.016V200.183H460.017Z" fill="#3A2D14"/>
</g>
<defs>
<clipPath id="clip0_19_5634">
<rect width="475.166" height="475.166" fill="white" transform="translate(0.227051 0.611816)"/>
</clipPath>
</defs>
</svg>
