<svg width="788" height="711" viewBox="0 0 788 711" fill="none" xmlns="http://www.w3.org/2000/svg">
<path d="M461.36 380.428L492.207 379.967L502.307 515.809L473.299 516.019L461.36 380.428Z" fill="#00C5F1"/>
<path d="M457.708 518.745L470.237 509.929L510.607 512.713L524.528 514.569L529.632 523.85L524.528 552.155L534.737 577.677L583.924 586.494L609.91 621.76L619.19 657.026L549.586 676.515H497.614L477.197 668.627L470.237 631.04L467.452 591.134L463.74 560.508V546.587L452.139 538.235L449.355 524.778L457.708 518.745Z" fill="#EFEBD2"/>
<path d="M355.621 51.9315C357.477 48.6833 363.51 42.1868 368.614 38.9386C374.638 35.105 381.143 33.3703 382.535 32.9062" stroke="#3A2D14" stroke-width="9.28059" stroke-linecap="round"/>
<path d="M424.298 10.3987C428.037 10.2763 436.732 12.0073 442.174 14.651C448.597 17.7711 453.484 22.4006 454.609 23.3428" stroke="#3A2D14" stroke-width="9.28059" stroke-linecap="round"/>
<path d="M460.173 366.331L473.909 508.439C448.265 510.22 448.515 525.832 451.343 533.691C454.106 541.372 467.167 546.858 470.493 548.301C470.861 561.925 468.845 654.03 479.161 667.816C490.667 683.192 547.324 677.432 551.372 677.053C555.841 676.635 611.547 670.453 617.009 657.706C623.248 643.145 604.138 568.858 539.242 579.045C533.339 563.322 530.54 557.299 524.899 542.5C528.902 539.365 535.553 530.433 532.678 521.999C530.315 515.067 521.216 509.378 505.244 509.061C504.233 502.156 490.134 409.155 493.542 368.83M474.395 510.68C476.8 512.907 484.959 514.616 490.626 513.673C496.294 512.731 501.469 510.11 504.314 507.661M468.676 547.361C472.933 548.794 485.526 551.723 495.8 550.713C506.968 549.615 520.014 545.554 523.41 543.831M576.184 583.292C573.547 581.86 545.89 573.689 529.622 581.994C514.519 589.705 504.158 608.152 502.904 611.224" stroke="#3A2D14" stroke-width="11.1367" stroke-linecap="round"/>
<path d="M577.941 187.018L655.311 188.474L679.763 166.001L696.832 140.171L691.008 108.679L692.365 92.6108L709.495 94.5426L724.474 113.734L719.303 145.019L725.276 161.225L763.913 159.136L773.191 178.22L761.593 190.474L769.561 204.304L762.034 216.635L765.163 233.189L754.325 242.239L720.934 241.611L700.119 238.403L657.789 214.673L578.335 210.361L577.941 187.018Z" fill="#00C5F1"/>
<path d="M553.357 183.914C585.22 185.413 643.285 192.282 659.48 183.046C671.197 176.364 692.973 156.206 694.001 142.641C695.029 129.076 687.08 115.714 687.769 106.937C688.458 98.1603 690.85 94.2165 695.319 92.716C699.788 91.2155 707.132 90.9771 715.805 97.9612C724.479 104.945 726.928 112.992 725.194 126.142C724.721 129.728 720.187 146.813 721.913 153.245C723.977 160.937 728.209 162.369 732.651 161.873C741.617 160.871 751.348 156.289 759.544 158.467C772.178 161.824 775.263 172.799 772.917 179.941C770.571 187.083 765.718 190.173 755.118 191.14C750.894 191.525 740.023 191.741 735.127 191.9M763.279 190.919C766.026 192.711 769.995 198.02 770.4 203.464C770.907 210.269 765.714 218.147 760.021 219.621C754.327 221.095 749.053 223.377 733.531 222.636M762.465 219.275C764.256 220.78 767.376 225.777 767.119 230.567C766.797 236.554 762.789 241.662 756.693 243.526C750.597 245.39 736.577 245.497 728.955 244.915C721.599 244.354 701.051 242.959 688.413 236.033C671.131 226.562 670.588 217.259 651.362 214.439C635.98 212.183 580.824 210.76 556.218 212.351" stroke="#3A2D14" stroke-width="11.1367" stroke-linecap="round"/>
<circle cx="411.305" cy="236.152" r="173.083" fill="#00C5F1" stroke="#3A2D14" stroke-width="12.0648"/>
<path d="M577.872 248.96C578.192 244.733 578.355 240.462 578.355 236.152C578.355 193.707 562.525 154.96 536.448 125.491L530.626 124.821C529.381 124.678 528.125 124.959 527.059 125.619L499.571 142.635C499.504 142.676 499.431 142.705 499.354 142.72C499.108 142.767 498.858 142.667 498.709 142.466C493.817 135.898 485.385 131.561 475.805 131.561C460.684 131.561 448.891 142.233 448.891 151.978L448.891 152.092L448.892 152.176C448.893 152.263 448.894 152.351 448.896 152.439L448.891 152.445V156.431C448.891 159.097 451.052 161.259 453.718 161.259H455.851C457.389 161.259 458.636 162.505 458.636 164.043C458.636 165.58 457.389 166.827 455.851 166.827H450.721C449.532 166.827 448.375 167.207 447.418 167.913L443.656 170.685C441.561 172.228 440.815 175.016 441.858 177.399L445.111 184.836C445.998 186.863 448 188.172 450.213 188.172H455.473C457.177 188.172 458.788 188.953 459.844 190.29L463.934 195.472C464.71 196.454 465.132 197.67 465.132 198.922V211.374C465.132 214.449 467.625 216.942 470.7 216.942H477.893C480.584 216.942 482.765 214.761 482.765 212.07C482.765 209.379 484.947 207.198 487.638 207.198H500.63C503.578 207.198 505.967 209.587 505.967 212.534C505.967 215.481 503.578 217.87 500.63 217.87H489.699C485.115 217.87 482.495 223.099 485.238 226.771L503.509 251.231C505.539 253.949 509.508 254.235 511.908 251.836L529.857 233.886C530.902 232.842 532.318 232.255 533.795 232.255H543.857C545.16 232.255 546.421 232.712 547.422 233.546L549.438 235.226C550.708 236.284 551.442 237.851 551.442 239.504V243.392C551.442 246.467 553.935 248.96 557.01 248.96H577.872Z" fill="#00B100"/>
<path d="M286.79 124.785H305.042C308.117 124.785 310.61 127.278 310.61 130.353V141.49C310.61 141.746 310.818 141.954 311.074 141.954C301.594 142.147 293.905 148.602 293.905 156.803C293.905 165.004 301.592 171.652 311.074 171.652H320.819C323.894 171.652 326.387 169.159 326.387 166.084V164.692C326.387 161.616 328.88 159.123 331.956 159.123H343.201C344.621 159.123 345.988 159.666 347.021 160.64L359.905 172.788C361.021 173.84 361.653 175.306 361.653 176.839V189.896C361.653 191.293 361.128 192.64 360.181 193.668L347.067 207.907C346.012 209.051 344.527 209.702 342.971 209.702H333.652C330.637 209.702 328.267 212.174 327.194 214.991C325.058 220.597 319.892 224.551 313.858 224.551H301.33C298.254 224.551 295.761 227.044 295.761 230.12V238.472C295.761 241.548 293.268 244.041 290.193 244.041H280.217C278.335 244.041 276.58 243.09 275.552 241.513L248.257 199.635C254.576 171.298 268.093 145.675 286.79 124.785Z" fill="#00B100"/>
<path d="M349.589 146.13C348.051 146.13 346.804 147.377 346.804 148.915C346.804 150.182 347.259 150.845 348.197 151.699L364.438 166.548C366.818 168.716 369.391 168.601 371.398 166.084L391.993 144.869C392.779 143.883 393.207 142.659 393.207 141.399V138.656C393.207 137.201 392.638 135.803 391.621 134.763L374.428 117.18C373.381 116.108 371.945 115.504 370.447 115.504H341.7C339.137 115.504 337.06 117.582 337.06 120.145C337.06 122.708 339.137 124.785 341.7 124.785H349.589C357.277 124.785 363.51 130.394 363.51 137.314C363.51 144.233 357.275 145.967 349.589 146.13Z" fill="#00B100"/>
<path d="M297.069 253.028C293.635 249.499 296.136 243.577 301.06 243.577H336.145C337.622 243.577 339.039 244.163 340.083 245.207L369.303 274.428C370.347 275.472 371.764 276.059 373.241 276.059H381.607C384.682 276.059 387.175 278.552 387.175 281.627V294.599L387.175 294.603L387.174 294.608C387.174 294.61 387.173 294.613 387.172 294.616C387.169 294.622 387.165 294.629 387.159 294.633C387.15 294.641 387.144 294.653 387.144 294.665C386.609 302.925 379.321 309.469 370.934 309.469C370.638 309.469 370.345 309.461 370.053 309.445C370.042 309.444 370.03 309.448 370.021 309.455C370.016 309.46 370.011 309.467 370.009 309.474C370.007 309.479 370.006 309.484 370.006 309.489V320.976C370.006 322.516 369.368 323.987 368.244 325.04L342.534 349.117C341.41 350.17 340.772 351.641 340.772 353.182V355.063C340.772 359.239 336.346 361.929 332.64 360.006L327.071 357.117C325.226 356.16 324.067 354.254 324.067 352.175V295.077C324.067 294.823 323.857 294.62 323.603 294.62C312.93 294.62 304.578 289.516 304.578 279.771V263.008C304.578 261.557 304.012 260.164 303 259.125L297.069 253.028Z" fill="#00B100"/>
<path d="M403.88 230.584C403.88 227.508 406.373 225.015 409.448 225.015H470.7C472.464 225.015 473.362 225.919 474.413 227.336L499.934 261.674C500.985 263.091 501.883 263.994 503.647 263.994H512.413C512.942 263.994 513.391 264.394 513.391 264.922C513.391 268.189 511.619 271.062 508.94 272.715C506.323 274.331 503.647 276.696 503.647 279.771V301.64C503.647 303.089 503.081 304.482 502.071 305.521L488.981 318.985C487.971 320.024 487.405 321.417 487.405 322.866V331.742C487.405 334.818 484.912 337.311 481.837 337.311H471.667C470.159 337.311 468.716 336.699 467.667 335.617L456.492 324.081C455.486 323.042 454.923 321.653 454.923 320.207V287.195C454.923 284.12 452.43 281.627 449.355 281.627H435.471C435.458 281.627 435.446 281.625 435.434 281.62C435.424 281.616 435.415 281.61 435.406 281.603C435.387 281.587 435.362 281.578 435.337 281.58C434.755 281.611 434.168 281.627 433.578 281.627C417.347 281.627 404.157 269.623 403.884 254.72L403.882 254.715L403.88 254.712L403.88 254.71V230.584Z" fill="#00B100"/>
<path d="M424.297 194.205C424.297 191.129 426.79 188.636 429.866 188.636H444.936C446.864 188.636 448.427 190.2 448.427 192.128C448.427 192.874 448.188 193.601 447.745 194.201L435.711 210.505C434.662 211.927 432.999 212.766 431.231 212.766H429.866C426.79 212.766 424.297 210.273 424.297 207.198V194.205Z" fill="#00B100"/>
<path d="M436.362 173.787C439.438 173.787 441.931 171.294 441.931 168.219V162.245C441.931 159.906 440.035 158.01 437.696 158.01C436.352 158.01 435.088 158.649 434.29 159.73L426.6 170.149C426.31 170.542 426.154 171.017 426.154 171.505C426.154 172.765 427.176 173.787 428.436 173.787H436.362Z" fill="#00B100"/>
<path d="M329.101 121.94C330.289 124.752 328.981 127.997 326.178 129.188C321.461 131.193 317.393 133.21 313.757 135.427C320.374 140.247 332.254 146.556 346.305 151.986C361.479 157.85 378.552 162.44 393.403 163.115C435.777 165.042 467.424 156.7 501.672 134.594C504.231 132.941 507.642 133.684 509.29 136.252C510.938 138.82 510.199 142.241 507.639 143.893C471.388 167.293 437.464 176.188 392.907 174.162C390.852 174.069 388.768 173.909 386.665 173.689C385.23 179.279 381.262 187.551 373.057 196.504C358.787 212.077 341.094 211.338 335.089 209.888C329.919 208.638 317.069 205.166 309.52 191.52C305.172 183.659 303.318 172.696 302.74 163.052C302.311 155.899 302.552 148.846 303.27 143.495C299.761 146.891 296.532 150.853 293.221 155.693C291.499 158.211 288.068 158.851 285.557 157.123C283.047 155.395 282.408 151.953 284.13 149.435C294.518 134.248 304.73 126.293 321.875 119.006C324.678 117.815 327.913 119.128 329.101 121.94Z" fill="#3A2D14"/>
<path d="M326.321 220.83C323.715 219.251 320.327 220.09 318.753 222.704C317.18 225.318 318.018 228.717 320.624 230.296C329.372 235.595 341.35 235.673 349.633 233.799C352.602 233.127 354.466 230.168 353.796 227.189C353.125 224.21 350.174 222.34 347.205 223.012C340.46 224.538 331.727 224.105 326.321 220.83Z" fill="#3A2D14"/>
<path d="M352.045 200.669C346.311 202.571 340.939 203.212 333.805 201.437C325.411 199.35 318.065 192.555 316.128 185.996C319.235 180.885 333.711 179.486 340.452 181.785C348.036 184.37 351.794 194.72 352.045 200.669Z" fill="#F783A4"/>
<path d="M414.553 97.8707C414.553 105.815 412.019 137.313 402.024 137.313C392.029 137.313 376.038 115.56 376.038 107.615C376.038 99.6708 379.964 78.3815 389.959 78.3815C399.954 78.3815 414.553 89.9262 414.553 97.8707Z" fill="#EFEBD2"/>
<path d="M460.492 85.806C460.492 93.7505 464.454 122.928 454.459 122.928C414.089 114.576 413.161 97.9268 413.161 89.9822C413.161 82.0377 417.087 60.7484 427.082 60.7484C437.076 60.7484 460.492 77.8614 460.492 85.806Z" fill="#EFEBD2"/>
<path d="M405.736 75.1333C405.736 83.0779 397.634 89.5182 387.639 89.5182C377.644 89.5182 367.222 92.8225 367.222 84.8779C367.222 76.9333 371.148 55.644 381.143 55.644C391.137 55.644 405.736 67.1887 405.736 75.1333Z" fill="#00B100"/>
<path d="M453.531 67.2448C453.531 75.1893 445.429 81.6297 435.434 81.6297C425.439 81.6297 415.017 84.934 415.017 76.9894C415.017 69.0448 418.943 47.7555 428.938 47.7555C438.933 47.7555 453.531 59.3002 453.531 67.2448Z" fill="#00B100"/>
<path fill-rule="evenodd" clip-rule="evenodd" d="M402.061 144.83L401.564 144.904L401.06 144.932C395.599 145.242 390.747 142.474 387.928 140.54C384.569 138.237 381.238 135.121 378.184 131.523C372.055 124.3 366.238 114.187 363.368 102.212C363.267 101.789 363.168 101.367 363.072 100.944C362.578 101.102 362.077 101.262 361.569 101.426C361.035 101.598 360.492 101.773 359.942 101.952C357.093 102.876 354.032 101.325 353.105 98.4875C352.177 95.6504 353.734 92.6016 356.583 91.6778C358.205 91.1515 359.757 90.654 361.246 90.1826C360.484 83.3035 360.571 76.7512 361.622 71.0513C363.099 63.0407 367.534 52.165 379.424 50.3957C390.685 48.7201 400.24 56.4732 406.005 63.4873C406.7 64.3323 407.379 65.2108 408.042 66.1203C408.253 64.3014 408.547 62.5458 408.925 60.8665C410.764 52.6929 415.711 42.2794 427.262 40.5605C438.813 38.8416 448.24 47.1162 453.736 54.1982C457.348 58.8529 460.522 64.4787 463.081 70.6886C464.752 70.535 466.272 70.4015 467.604 70.2894C470.589 70.0386 473.213 72.2455 473.465 75.2188C473.717 78.1921 471.501 80.8056 468.516 81.0564C467.933 81.1055 467.316 81.1585 466.669 81.2152C466.935 82.1876 467.187 83.1676 467.424 84.1542C470.183 95.663 470.583 106.927 468.545 115.98C467.093 122.436 463.701 130.29 456.648 134.152C455.394 138.274 452.534 142.483 447.163 145.555C445.084 146.744 442.432 146.029 441.239 143.959C440.045 141.889 440.763 139.248 442.841 138.059C448.591 134.769 449.19 129.799 448.598 127.055C448.392 126.101 447.617 124.734 446.081 123.464C444.588 122.23 442.626 121.306 440.49 121.033C438.315 120.755 436.772 121.127 435.55 121.758C434.255 122.426 433.057 123.522 431.84 125.064C431.297 125.751 430.805 126.953 430.49 128.515C430.187 130.019 430.132 131.434 430.162 132.161C430.26 134.546 428.399 136.559 426.005 136.657C423.611 136.756 421.59 134.902 421.491 132.517C421.434 131.138 421.534 129.031 421.981 126.813C422.259 125.436 422.706 123.832 423.448 122.276C422.865 121.512 422.294 120.722 421.735 119.909C421.48 121.634 421.148 123.301 420.738 124.898C418.641 133.081 413.367 143.147 402.061 144.83ZM430.76 114.523C431.02 114.37 431.286 114.223 431.559 114.082C434.423 112.605 437.754 111.968 441.595 112.459C445.473 112.955 448.951 114.603 451.624 116.812C452.875 117.847 454.01 119.057 454.933 120.396C459.218 113.326 460.16 100.203 456.695 85.7507C456.412 84.5687 456.105 83.4032 455.777 82.2567C453.047 82.5366 450.15 82.8474 447.176 83.1837C449.544 89.3171 449.876 97.5787 440.274 102.631C434.188 105.833 426.042 103.864 422.702 97.8534C424.834 104.263 427.632 109.964 430.76 114.523ZM407.933 89.4147C408.489 91.1457 408.99 92.9272 409.427 94.7508C414.287 115.024 409.46 132.844 399.541 134.32C394.684 134.596 383.332 124.811 377 109.534C380.996 113.185 387.382 113.991 392.401 111.35C402.399 106.089 401.777 97.4579 399.222 91.2734L401.1 90.8759C403.249 90.4213 405.493 89.9465 407.933 89.4147ZM403.764 79.2589C402.096 79.6174 400.505 79.954 398.954 80.2819L398.949 80.2827C390.586 82.052 383.43 83.566 371.933 86.921C370.936 72.8269 374.35 62.0354 381.943 60.9055C389.097 59.8408 397.7 67.3718 403.764 79.2589ZM418.695 76.1785C428.775 74.443 441.378 72.9087 451.965 71.7891C446.021 58.5804 437.29 49.9528 429.781 51.0703C422.372 52.1727 418.248 62.4501 418.695 76.1785Z" fill="#3A2D14"/>
<path d="M27.991 13.4727L23.1881 31.1163C22.9422 32.0326 22.519 32.8655 21.9534 33.5467C21.3878 34.2278 20.696 34.7377 19.9348 35.0344L5.24048 40.8507L19.9019 46.6305C20.6633 46.9264 21.3555 47.4357 21.9215 48.1163C22.4875 48.7969 22.9112 49.6295 23.1577 50.5455L27.991 68.2287L32.7938 50.5851C33.0398 49.6688 33.4629 48.8358 34.0285 48.1547C34.5941 47.4735 35.2859 46.9636 36.0472 46.667L50.7414 40.8507L36.08 35.0709C35.3186 34.7749 34.6264 34.2657 34.0604 33.5851C33.4944 32.9045 33.0707 32.0719 32.8242 31.1558L27.991 13.4727Z" fill="#FFD439" stroke="#3A2D14" stroke-width="9.28059" stroke-linecap="round" stroke-linejoin="round"/>
<path d="M85.0599 80.2935L82.3736 91.6571C82.236 92.2473 81.9993 92.7838 81.683 93.2225C81.3667 93.6612 80.9797 93.9896 80.5539 94.1807L72.3351 97.9268L80.5355 101.649C80.9614 101.84 81.3486 102.168 81.6652 102.606C81.9817 103.045 82.2187 103.581 82.3566 104.171L85.0599 115.56L87.7463 104.196C87.8838 103.606 88.1205 103.07 88.4369 102.631C88.7532 102.192 89.1402 101.864 89.5659 101.673L97.7848 97.9268L89.5843 94.2042C89.1584 94.0136 88.7713 93.6856 88.4547 93.2472C88.1381 92.8089 87.9011 92.2726 87.7633 91.6826L85.0599 80.2935Z" fill="#FFD439" stroke="#3A2D14" stroke-width="9.28059" stroke-linecap="round" stroke-linejoin="round"/>
<path d="M362.582 380.929L393.208 384.641L384.855 520.602L356.085 516.889L362.582 380.929Z" fill="#00C5F1"/>
<path d="M336.596 528.026L349.125 519.209L389.495 521.994L408.521 533.13L394.832 564.916L400.632 588.814L422.905 624.08L439.146 662.595L429.402 680.692L305.97 679.3L297.617 654.706L308.754 625.008L332.188 608.303L342.628 569.789V548.907L336.596 528.026Z" fill="#EFEBD2"/>
<path d="M360.98 387.889L355.876 517.817C348.76 518.282 334.437 521.251 334.066 529.418C333.695 537.585 340.408 542.411 343.811 543.803C343.965 557.569 342.79 587.422 336.85 596.703C329.426 608.303 306.133 616.912 298.374 650.065C293.269 671.874 305.334 681.833 313.223 682.084C342.456 683.012 425.387 683.198 428.728 682.084C432.904 680.692 440.793 673.267 438.937 660.739C438.493 659.811 437.081 632.433 405.063 604.127C401.35 587.422 396.246 560.508 398.566 545.659C402.743 543.803 412.99 540.67 410.167 532.202C407.847 525.242 402.278 521.994 387.43 517.817C386.501 510.857 391.142 430.58 395.318 389.745M355.449 518.282C357.614 520.757 365.75 523.293 371.69 522.922C377.629 522.551 383.291 520.447 386.539 518.282M342.456 543.338C346.633 545.194 359.161 549.371 369.834 549.371C381.435 549.371 395.356 546.586 399.068 545.194M420.877 620.833C418.711 618.358 393.325 597.668 369.834 597.668C348.024 597.668 325.287 609.387 322.039 611.552" stroke="#3A2D14" stroke-width="11.1367" stroke-linecap="round"/>
<path d="M205.705 173.043L266.768 178.864V213.785L232.254 203.732L216.325 208.494L218.448 242.356L230.661 257.701H258.803L276.856 272.516L275.263 291.563L286.945 306.908L282.697 326.485L250.307 342.358L211.015 346.591L195.085 312.199L180.218 291.563L199.864 276.748L186.59 241.298L181.811 197.382L205.705 173.043Z" fill="#00B100"/>
<path d="M261.696 213.498C256.633 210.106 244.266 203.042 231.408 204.208C218.608 205.368 213.121 209.384 213.578 213.046C215.825 231.056 226.22 253.303 228.782 258.687C232.127 257.261 245.799 252.972 255.895 256.069C263.66 258.45 277.544 269.352 278.887 279.42C280.685 292.898 266.388 307.112 256.76 309.83C247.131 312.549 233.636 314.584 227.23 307.773C217.333 297.248 229.189 288.986 231.674 286.91C235.193 283.97 244.36 278.538 252.879 280.334M276.945 298.294C282.009 301.686 291.456 310.827 288.737 320.253C286.017 329.679 279.382 334.922 272.218 335.471C268.397 335.764 260.756 336.35 255.255 330.831C250.855 326.415 247.929 318.791 247.016 315.53M256.828 334.94C256.344 338.488 253.423 345.985 245.603 347.592C235.829 349.602 229.193 342.099 226.37 338.985C223.547 335.871 218.568 325.811 221.123 313.464M230.183 343.374C228.147 345.27 222.144 348.868 214.417 348.093C204.758 347.123 199.894 334.084 199.311 331.248C197.991 324.828 195.261 315.086 205.004 309.388C208.49 307.35 215.428 306.999 218.269 306.661M265.203 181.006C257.056 176.77 238.259 170.289 227.495 171.024C213.981 171.947 203.321 173.778 192.618 181.889C181.915 190.001 173.775 203.496 181.73 235.111C188.094 260.403 193.98 269.771 196.25 273.738C190.404 277.156 183.466 281.162 180.501 289.303C179.754 293.691 180.101 308.597 196.25 316.36" stroke="#3A2D14" stroke-width="10.2087" stroke-linecap="round"/>
<circle cx="571.93" cy="49.1473" r="11.6007" fill="#FFD439" stroke="#3A2D14" stroke-width="9.28059"/>
<circle cx="547.801" cy="17.5936" r="11.6007" fill="#FFD439" stroke="#3A2D14" stroke-width="9.28059"/>
<circle cx="536.664" cy="81.6296" r="6.96045" fill="#FFD439" stroke="#3A2D14" stroke-width="9.28059"/>
<circle cx="623.438" cy="105.295" r="4.6403" fill="#FFD439" stroke="#3A2D14" stroke-width="5.56836"/>
</svg>
