<svg width="682" height="763" viewBox="0 0 682 763" fill="none" xmlns="http://www.w3.org/2000/svg">
<path d="M327.359 409.46L360.597 408.963L371.48 555.336L340.223 555.562L327.359 409.46Z" fill="#00C5F1"/>
<path d="M323.423 558.5L336.923 549L380.423 552L395.423 554L400.923 564L395.423 594.5L406.423 622L459.423 631.5L487.423 669.5L497.423 707.5L422.423 728.5H366.423L344.423 720L336.923 679.5L333.923 636.5L329.923 603.5V588.5L317.423 579.5L314.423 565L323.423 558.5Z" fill="#EFEBD2"/>
<path d="M213.423 55.5C215.423 52 221.923 45 227.423 41.5C233.914 37.3692 240.923 35.5 242.423 35" stroke="#3A2D14" stroke-width="10" stroke-linecap="round"/>
<path d="M287.423 10.7475C291.452 10.6157 300.821 12.4809 306.685 15.3295C313.606 18.6915 318.872 23.6798 320.084 24.695" stroke="#3A2D14" stroke-width="10" stroke-linecap="round"/>
<path d="M326.489 394L339.213 548.5C310.713 550.995 310.713 567.995 313.712 576.495C316.644 584.802 331.046 590.495 334.713 591.995C334.88 606.828 331.005 707.201 342.213 721.995C354.713 738.495 417.713 730.995 422.212 730.495C427.182 729.943 489.133 722.004 495.423 708C502.607 692.004 482.713 611.498 410.488 623.998C404.214 606.998 401.214 600.498 395.214 584.5C399.714 580.998 407.256 571.124 404.214 562C401.714 554.5 391.714 548.5 373.989 548.5C372.989 541 358.989 440 363.489 396M339.713 550.931C342.343 553.305 351.37 554.989 357.679 553.84C363.988 552.691 369.779 549.724 372.981 546.995M332.713 591.011C337.413 592.48 351.341 595.397 362.764 594.075C375.181 592.637 389.737 587.932 393.538 585.982M451.423 627.825C448.521 626.321 417.963 618.019 399.756 627.418C382.853 636.144 371.023 656.463 369.576 659.836" stroke="#3A2D14" stroke-width="12" stroke-linecap="round"/>
<path d="M451.219 203.636L535.656 203.636L562.765 178.305L581.874 149.419L576.097 114.756L577.875 96.9795L596.54 98.7571L612.538 119.644L606.316 154.308L612.538 172.084L654.757 168.973L664.533 189.86L651.646 203.636L660.089 218.746L651.646 232.523L654.757 250.743L642.758 260.965L606.316 260.965L583.652 257.854L537.878 232.523L451.219 229.412L451.219 203.636Z" fill="#00C5F1"/>
<path d="M425 200.97C459.664 201.859 522.769 208.08 540.545 197.415C553.407 189.698 577.431 166.751 578.764 151.641C580.097 136.531 571.654 121.866 572.542 112.089C573.431 102.312 576.098 97.868 580.986 96.0904C585.875 94.3128 593.874 93.8684 603.206 101.423C612.539 108.978 615.078 117.866 612.983 132.532C612.412 136.531 607.206 155.641 608.984 162.751C611.109 171.254 615.694 172.744 620.538 172.084C630.315 170.75 640.981 165.418 649.869 167.64C663.57 171.065 666.756 183.194 664.089 191.193C661.423 199.192 656.09 202.748 644.536 204.081C639.931 204.612 628.093 205.118 622.76 205.414M653.424 203.636C656.387 205.562 660.623 211.369 660.979 217.413C661.423 224.968 655.646 233.856 649.424 235.633C643.203 237.411 637.425 240.077 620.538 239.633M652.091 235.189C654.016 236.818 657.335 242.299 656.979 247.632C656.535 254.298 652.091 260.075 645.425 262.297C638.758 264.52 623.494 264.98 615.205 264.52C607.206 264.075 584.858 263.024 571.209 255.631C552.544 245.521 552.1 235.189 531.213 232.522C514.503 230.389 454.479 230.152 427.667 232.522" stroke="#3A2D14" stroke-width="12" stroke-linecap="round"/>
<circle cx="273.423" cy="254" r="186.5" fill="#00C5F1" stroke="#3A2D14" stroke-width="13"/>
<path d="M452.902 267.801C453.247 263.246 453.423 258.644 453.423 254C453.423 208.265 436.366 166.514 408.267 134.761L401.994 134.039C400.653 133.885 399.299 134.188 398.151 134.898L368.531 153.234C368.46 153.278 368.381 153.309 368.298 153.325C368.033 153.376 367.764 153.268 367.602 153.052C362.331 145.974 353.246 141.301 342.923 141.301C326.631 141.301 313.923 152.801 313.923 163.301L313.924 163.424L313.924 163.514C313.925 163.608 313.926 163.703 313.928 163.797L313.923 163.804V168.099C313.923 170.972 316.252 173.301 319.125 173.301H321.423C323.08 173.301 324.423 174.644 324.423 176.301C324.423 177.958 323.08 179.301 321.423 179.301H315.895C314.614 179.301 313.367 179.711 312.336 180.471L308.282 183.458C306.025 185.12 305.221 188.125 306.345 190.693L309.85 198.706C310.806 200.89 312.964 202.301 315.347 202.301H321.016C322.852 202.301 324.587 203.142 325.725 204.583L330.133 210.166C330.969 211.225 331.423 212.535 331.423 213.884V227.301C331.423 230.615 334.11 233.301 337.423 233.301H345.173C348.073 233.301 350.423 230.95 350.423 228.051C350.423 225.152 352.774 222.801 355.673 222.801H369.673C372.849 222.801 375.423 225.375 375.423 228.551C375.423 231.727 372.849 234.301 369.673 234.301H357.894C352.955 234.301 350.132 239.935 353.087 243.892L372.775 270.248C374.963 273.177 379.239 273.485 381.825 270.9L401.166 251.558C402.291 250.433 403.817 249.801 405.409 249.801H416.251C417.655 249.801 419.014 250.293 420.092 251.192L422.264 253.002C423.632 254.142 424.423 255.831 424.423 257.611V261.801C424.423 265.115 427.11 267.801 430.423 267.801H452.902Z" fill="#00B100"/>
<path d="M139.257 134H158.923C162.237 134 164.923 136.686 164.923 140V152C164.923 152.276 165.147 152.5 165.423 152.5C155.208 152.708 146.923 159.663 146.923 168.5C146.923 177.336 155.206 184.5 165.423 184.5H175.923C179.237 184.5 181.923 181.814 181.923 178.5V177C181.923 173.686 184.61 171 187.923 171H200.041C201.571 171 203.043 171.585 204.157 172.635L218.039 185.724C219.242 186.857 219.923 188.437 219.923 190.089V204.158C219.923 205.664 219.357 207.115 218.336 208.223L204.206 223.565C203.07 224.798 201.469 225.5 199.792 225.5H189.751C186.502 225.5 183.949 228.163 182.792 231.198C180.49 237.24 174.924 241.5 168.423 241.5H154.923C151.609 241.5 148.923 244.186 148.923 247.5V256.5C148.923 259.814 146.237 262.5 142.923 262.5H132.174C130.146 262.5 128.255 261.475 127.148 259.776L97.7368 214.652C104.545 184.118 119.11 156.509 139.257 134Z" fill="#00B100"/>
<path d="M206.923 157C205.266 157 203.923 158.343 203.923 160C203.923 161.366 204.413 162.08 205.423 163L222.923 179C225.488 181.337 228.261 181.213 230.423 178.5L252.615 155.641C253.462 154.579 253.923 153.26 253.923 151.901V148.946C253.923 147.378 253.309 145.872 252.213 144.751L233.688 125.805C232.56 124.651 231.013 124 229.398 124H198.423C195.662 124 193.423 126.239 193.423 129C193.423 131.761 195.662 134 198.423 134H206.923C215.207 134 221.923 140.044 221.923 147.5C221.923 154.956 215.206 156.824 206.923 157Z" fill="#00B100"/>
<path d="M150.332 272.184C146.632 268.381 149.327 262 154.632 262H192.438C194.029 262 195.555 262.632 196.681 263.757L228.166 295.243C229.291 296.368 230.817 297 232.408 297H241.423C244.737 297 247.423 299.686 247.423 303V316.978L247.423 316.982L247.422 316.987C247.422 316.99 247.421 316.993 247.42 316.995C247.417 317.003 247.412 317.009 247.406 317.015C247.396 317.023 247.39 317.036 247.389 317.049C246.813 325.949 238.96 333 229.923 333C229.605 333 229.288 332.991 228.974 332.974C228.962 332.973 228.949 332.977 228.94 332.986C228.934 332.991 228.929 332.998 228.926 333.005C228.924 333.011 228.923 333.016 228.923 333.022V345.399C228.923 347.058 228.236 348.644 227.025 349.778L199.322 375.722C198.111 376.856 197.423 378.442 197.423 380.101V382.129C197.423 386.628 192.654 389.526 188.66 387.455L182.66 384.342C180.672 383.311 179.423 381.257 179.423 379.016V317.493C179.423 317.219 179.197 317 178.923 317C167.423 317 158.423 311.5 158.423 301V282.937C158.423 281.374 157.813 279.873 156.724 278.753L150.332 272.184Z" fill="#00B100"/>
<path d="M265.423 248C265.423 244.686 268.11 242 271.423 242H337.423C339.324 242 340.292 242.973 341.423 244.5L368.923 281.5C370.055 283.027 371.023 284 372.923 284H382.37C382.939 284 383.423 284.431 383.423 285C383.423 288.52 381.513 291.615 378.627 293.397C375.807 295.138 372.923 297.686 372.923 301V324.564C372.923 326.126 372.314 327.627 371.225 328.747L357.121 343.253C356.032 344.373 355.423 345.874 355.423 347.436V357C355.423 360.314 352.737 363 349.423 363H338.464C336.84 363 335.285 362.341 334.155 361.175L322.114 348.745C321.03 347.626 320.423 346.129 320.423 344.57V309C320.423 305.686 317.737 303 314.423 303H299.463C299.449 303 299.436 302.997 299.423 302.993C299.412 302.988 299.402 302.982 299.393 302.974C299.372 302.957 299.346 302.948 299.318 302.949C298.691 302.983 298.059 303 297.423 303C279.934 303 265.721 290.065 265.428 274.007L265.426 274.002L265.423 273.999L265.423 273.997V248Z" fill="#00B100"/>
<path d="M287.423 208.801C287.423 205.487 290.11 202.801 293.423 202.801H309.661C311.739 202.801 313.423 204.485 313.423 206.563C313.423 207.367 313.166 208.15 312.688 208.797L299.722 226.364C298.591 227.897 296.799 228.801 294.894 228.801H293.423C290.11 228.801 287.423 226.115 287.423 222.801V208.801Z" fill="#00B100"/>
<path d="M300.423 186.801C303.737 186.801 306.423 184.115 306.423 180.801V174.363C306.423 171.844 304.381 169.801 301.861 169.801C300.413 169.801 299.05 170.489 298.19 171.654L289.904 182.881C289.592 183.303 289.423 183.815 289.423 184.341C289.423 185.7 290.524 186.801 291.883 186.801H300.423Z" fill="#00B100"/>
<path d="M184.847 130.935C186.128 133.965 184.718 137.462 181.698 138.745C176.615 140.905 172.232 143.079 168.314 145.468C175.443 150.661 188.245 157.459 203.385 163.31C219.736 169.628 238.131 174.575 254.134 175.302C299.792 177.379 333.893 168.39 370.795 144.57C373.553 142.789 377.229 143.589 379.004 146.357C380.78 149.124 379.983 152.81 377.225 154.59C338.163 179.804 301.611 189.389 253.599 187.205C251.385 187.105 249.14 186.933 246.874 186.696C245.327 192.719 241.051 201.632 232.211 211.279C216.835 228.059 197.77 227.263 191.3 225.7C185.729 224.354 171.882 220.613 163.749 205.909C159.063 197.438 157.065 185.626 156.443 175.234C155.981 167.526 156.241 159.926 157.014 154.161C153.233 157.82 149.753 162.089 146.186 167.305C144.33 170.018 140.633 170.707 137.928 168.845C135.223 166.983 134.535 163.275 136.39 160.562C147.584 144.197 158.587 135.625 177.061 127.774C180.081 126.49 183.567 127.906 184.847 130.935Z" fill="#3A2D14"/>
<path d="M181.852 237.491C179.044 235.79 175.393 236.694 173.698 239.51C172.002 242.327 172.905 245.989 175.713 247.69C185.139 253.4 198.045 253.484 206.971 251.465C210.171 250.741 212.179 247.552 211.456 244.343C210.734 241.133 207.554 239.118 204.355 239.841C197.087 241.486 187.677 241.019 181.852 237.491Z" fill="#3A2D14"/>
<path d="M209.57 215.767C203.392 217.816 197.603 218.507 189.916 216.595C180.871 214.345 172.956 207.024 170.868 199.956C174.216 194.449 189.815 192.942 197.078 195.419C205.25 198.205 209.3 209.357 209.57 215.767Z" fill="#F783A4"/>
<path d="M276.923 105C276.923 113.56 274.193 147.5 263.423 147.5C252.654 147.5 235.423 124.06 235.423 115.5C235.423 106.94 239.654 84 250.423 84C261.193 84 276.923 96.4396 276.923 105Z" fill="#EFEBD2"/>
<path d="M326.423 92C326.423 100.56 330.693 132 319.923 132C276.423 123 275.423 105.06 275.423 96.5C275.423 87.9396 279.654 65 290.423 65C301.193 65 326.423 83.4396 326.423 92Z" fill="#EFEBD2"/>
<path d="M267.423 80.5C267.423 89.0604 258.693 96 247.923 96C237.154 96 225.923 99.5604 225.923 91C225.923 82.4396 230.154 59.5 240.923 59.5C251.693 59.5 267.423 71.9396 267.423 80.5Z" fill="#00B100"/>
<path d="M318.923 72C318.923 80.5604 310.193 87.5 299.423 87.5C288.654 87.5 277.423 91.0604 277.423 82.5C277.423 73.9396 281.654 51 292.423 51C303.193 51 318.923 63.4396 318.923 72Z" fill="#00B100"/>
<path fill-rule="evenodd" clip-rule="evenodd" d="M263.462 155.599L262.928 155.679L262.384 155.71C256.5 156.044 251.272 153.061 248.234 150.977C244.615 148.495 241.026 145.138 237.736 141.261C231.131 133.478 224.863 122.581 221.77 109.678C221.661 109.222 221.555 108.767 221.452 108.312C220.92 108.482 220.38 108.655 219.832 108.831C219.257 109.016 218.672 109.205 218.079 109.398C215.009 110.393 211.711 108.722 210.712 105.665C209.712 102.608 211.39 99.3224 214.459 98.327C216.207 97.7599 217.88 97.2238 219.484 96.7159C218.663 89.3035 218.757 82.2433 219.889 76.1016C221.481 67.4701 226.26 55.7513 239.071 53.8449C251.205 52.0393 261.501 60.3934 267.713 67.9513C268.462 68.8618 269.193 69.8083 269.908 70.7884C270.135 68.8285 270.451 66.9368 270.859 65.1273C272.84 56.3201 278.171 45.0994 290.617 43.2472C303.064 41.395 313.221 50.3111 319.143 57.942C323.036 62.9576 326.455 69.0195 329.214 75.7107C331.014 75.5453 332.652 75.4015 334.087 75.2807C337.303 75.0103 340.131 77.3884 340.402 80.5921C340.673 83.7959 338.286 86.612 335.07 86.8823C334.442 86.9352 333.777 86.9923 333.079 87.0534C333.366 88.1011 333.638 89.1571 333.893 90.2202C336.865 102.621 337.296 114.758 335.101 124.513C333.536 131.47 329.881 139.932 322.282 144.094C320.93 148.536 317.848 153.07 312.061 156.381C309.821 157.662 306.964 156.892 305.678 154.661C304.392 152.431 305.165 149.584 307.404 148.304C313.6 144.759 314.245 139.403 313.608 136.447C313.386 135.418 312.551 133.945 310.896 132.577C309.286 131.247 307.173 130.252 304.87 129.958C302.528 129.658 300.865 130.059 299.548 130.739C298.153 131.458 296.862 132.639 295.55 134.301C294.965 135.042 294.435 136.337 294.095 138.02C293.769 139.641 293.709 141.165 293.742 141.948C293.848 144.518 291.843 146.687 289.263 146.793C286.683 146.899 284.505 144.902 284.399 142.332C284.337 140.846 284.446 138.575 284.928 136.186C285.227 134.702 285.709 132.974 286.507 131.297C285.879 130.473 285.264 129.623 284.662 128.746C284.387 130.606 284.029 132.402 283.588 134.123C281.328 142.939 275.645 153.786 263.462 155.599ZM294.387 122.943C294.667 122.778 294.954 122.619 295.247 122.468C298.333 120.876 301.923 120.19 306.061 120.719C310.24 121.254 313.988 123.03 316.867 125.41C318.216 126.525 319.439 127.828 320.433 129.272C325.05 121.653 326.065 107.513 322.332 91.9405C322.027 90.6668 321.696 89.411 321.343 88.1756C318.401 88.4772 315.279 88.8121 312.075 89.1745C314.626 95.7833 314.984 104.685 304.638 110.129C298.08 113.579 289.303 111.457 285.704 104.981C288.001 111.887 291.016 118.03 294.387 122.943ZM269.79 95.8884C270.39 97.7537 270.929 99.6732 271.4 101.638C276.636 123.482 271.436 142.684 260.748 144.275C255.514 144.572 243.282 134.028 236.459 117.568C240.765 121.502 247.646 122.369 253.054 119.524C263.827 113.856 263.157 104.555 260.404 97.8913L262.428 97.4629C264.743 96.9731 267.162 96.4615 269.79 95.8884ZM265.298 84.9454C263.501 85.3317 261.787 85.6944 260.115 86.0477L260.11 86.0486C251.098 87.955 243.387 89.5863 230.999 93.2014C229.925 78.0149 233.603 66.3868 241.786 65.1694C249.494 64.0221 258.764 72.1369 265.298 84.9454ZM281.387 81.6262C292.247 79.7562 305.828 78.103 317.236 76.8966C310.83 62.664 301.423 53.3676 293.332 54.5717C285.349 55.7596 280.904 66.8336 281.387 81.6262Z" fill="#3A2D14"/>
<path d="M378.923 14L372.695 33.0111C372.376 33.9984 371.828 34.896 371.094 35.6299C370.361 36.3638 369.464 36.9132 368.477 37.2329L349.423 43.5L368.434 49.7278C369.422 50.0467 370.319 50.5954 371.053 51.3287C371.787 52.0621 372.336 52.9592 372.656 53.9463L378.923 73L385.151 53.9889C385.47 53.0016 386.018 52.104 386.752 51.3701C387.485 50.6362 388.382 50.0868 389.369 49.7671L408.423 43.5L389.412 37.2722C388.425 36.9533 387.527 36.4046 386.793 35.6713C386.059 34.9379 385.51 34.0408 385.19 33.0537L378.923 14Z" fill="#FFD439" stroke="#3A2D14" stroke-width="10" stroke-linecap="round" stroke-linejoin="round"/>
<path d="M452.923 86L449.44 98.2444C449.261 98.8803 448.955 99.4584 448.544 99.9311C448.134 100.404 447.632 100.758 447.08 100.964L436.423 105L447.056 109.011C447.609 109.216 448.111 109.57 448.521 110.042C448.932 110.515 449.239 111.092 449.418 111.728L452.923 124L456.406 111.756C456.585 111.12 456.892 110.542 457.302 110.069C457.712 109.596 458.214 109.242 458.766 109.036L469.423 105L458.79 100.989C458.238 100.783 457.736 100.43 457.325 99.9578C456.915 99.4854 456.607 98.9076 456.428 98.2719L452.923 86Z" fill="#FFD439" stroke="#3A2D14" stroke-width="10" stroke-linecap="round" stroke-linejoin="round"/>
<path d="M220.923 410L253.923 414L244.923 560.5L213.923 556.5L220.923 410Z" fill="#00C5F1"/>
<path d="M192.923 568.5L206.423 559L249.923 562L270.423 574L255.673 608.25L261.923 634L285.923 672L303.423 713.5L292.923 733L159.923 731.5L150.923 705L162.923 673L188.173 655L199.423 613.5V591L192.923 568.5Z" fill="#EFEBD2"/>
<path d="M219.197 417.5L213.697 557.5C206.031 558 190.597 561.2 190.197 570C189.797 578.8 197.031 584 200.697 585.5C200.864 600.333 199.597 632.5 193.197 642.5C185.197 655 160.098 664.276 151.738 699.999C146.238 723.499 159.238 734.23 167.738 734.5C199.238 735.5 288.597 735.7 292.197 734.5C296.697 733 305.197 725 303.197 711.5C302.719 710.5 301.197 681 266.697 650.5C262.697 632.5 257.197 603.5 259.697 587.5C264.197 585.5 275.239 582.124 272.197 573C269.697 565.5 263.697 562 247.697 557.5C246.697 550 251.697 463.5 256.197 419.5M213.237 558C215.571 560.667 224.337 563.4 230.737 563C237.137 562.601 243.237 560.334 246.737 558M199.238 584.999C203.738 586.999 217.238 591.499 228.738 591.499C241.238 591.499 256.238 588.499 260.238 586.999M283.737 668.5C281.404 665.834 254.049 643.54 228.737 643.54C205.237 643.54 180.737 656.168 177.237 658.501" stroke="#3A2D14" stroke-width="12" stroke-linecap="round"/>
<path d="M51.8858 186L117.682 192.271V229.899L80.4927 219.067L63.3286 224.198L65.6171 260.686L78.7763 277.22H109.1L128.552 293.183L126.836 313.707L139.423 330.241L134.846 351.335L99.9455 368.439L57.6072 373L40.443 335.942L24.4231 313.707L45.5923 297.744L31.2888 259.546L26.1395 212.226L51.8858 186Z" fill="#00B100"/>
<path d="M112.217 229.591C106.761 225.936 93.4357 218.325 79.5809 219.58C65.7893 220.83 59.8765 225.158 60.3688 229.103C62.7901 248.51 73.9907 272.481 76.7516 278.283C80.3558 276.746 95.0875 272.124 105.966 275.461C114.334 278.028 129.294 289.774 130.741 300.623C132.678 315.145 117.273 330.461 106.898 333.39C96.5235 336.319 81.9815 338.513 75.0799 331.174C64.4151 319.833 77.19 310.93 79.8674 308.693C83.6592 305.525 93.5373 299.673 102.717 301.607M128.649 320.96C134.105 324.615 144.284 334.465 141.354 344.621C138.424 354.778 131.274 360.427 123.555 361.019C119.438 361.335 111.204 361.966 105.277 356.019C100.536 351.261 97.3829 343.045 96.3993 339.532M106.972 360.447C106.451 364.269 103.302 372.348 94.877 374.08C84.3451 376.245 77.1947 368.161 74.1526 364.805C71.1106 361.45 65.7458 350.61 68.4991 337.305M78.261 369.534C76.0675 371.577 69.5989 375.455 61.2727 374.619C50.865 373.574 45.6243 359.524 44.9962 356.468C43.5741 349.551 40.6319 339.054 51.1308 332.914C54.887 330.718 62.3626 330.34 65.4241 329.976M115.996 194.58C107.217 190.015 86.9637 183.033 75.3654 183.825C60.8032 184.819 49.3169 186.791 37.7846 195.532C26.2522 204.272 17.4807 218.814 26.0522 252.88C32.9094 280.132 39.2515 290.226 41.6983 294.5C35.3989 298.184 27.9231 302.5 24.7276 311.272C23.9231 316 24.2971 332.062 41.6983 340.427" stroke="#3A2D14" stroke-width="11" stroke-linecap="round"/>
<circle cx="446.5" cy="52.5" r="12.5" fill="#FFD439" stroke="#3A2D14" stroke-width="10"/>
<circle cx="420.5" cy="18.5" r="12.5" fill="#FFD439" stroke="#3A2D14" stroke-width="10"/>
<circle cx="408.5" cy="87.5" r="7.5" fill="#FFD439" stroke="#3A2D14" stroke-width="10"/>
<circle cx="502" cy="113" r="5" fill="#FFD439" stroke="#3A2D14" stroke-width="6"/>
</svg>
