<svg width="83" height="82" viewBox="0 0 83 82" fill="none" xmlns="http://www.w3.org/2000/svg">
<path d="M53.1634 80.3558C69.0324 80.3558 81.8968 67.4914 81.8968 51.6224C81.8968 35.7534 69.0324 22.889 53.1634 22.889C37.2944 22.889 24.43 35.7534 24.43 51.6224C24.43 67.4914 37.2944 80.3558 53.1634 80.3558Z" fill="#EFEBD2" stroke="#3A2D14" stroke-width="2.00287"/>
<path d="M80.8151 53.7487C80.8683 53.0469 80.8954 52.3378 80.8954 51.6224C80.8954 44.5762 78.2675 38.1437 73.9383 33.2517L72.9719 33.1405C72.7652 33.1167 72.5566 33.1633 72.3797 33.2728L67.8164 36.0978C67.8054 36.1046 67.7932 36.1093 67.7805 36.1118C67.7396 36.1196 67.6981 36.103 67.6733 36.0697C66.8611 34.9793 65.4615 34.2593 63.871 34.2593C61.3609 34.2593 59.4031 36.031 59.4031 37.6487V37.6677L59.4032 37.6816C59.4033 37.6961 59.4036 37.7106 59.4039 37.7252L59.4031 37.7262V38.388C59.4031 38.8306 59.7619 39.1894 60.2045 39.1894H60.5586C60.8138 39.1894 61.0208 39.3963 61.0208 39.6516C61.0208 39.9068 60.8138 40.1138 60.5586 40.1138H59.7069C59.5095 40.1138 59.3174 40.177 59.1585 40.294L58.534 40.7542C58.1863 41.0104 58.0624 41.4732 58.2355 41.8689L58.7756 43.1035C58.9228 43.4399 59.2552 43.6573 59.6225 43.6573H60.4958C60.7787 43.6573 61.046 43.7869 61.2213 44.0089L61.9004 44.8691C62.0292 45.0322 62.0992 45.234 62.0992 45.4419V47.509C62.0992 48.0195 62.5131 48.4334 63.0236 48.4334H64.2177C64.6644 48.4334 65.0265 48.0713 65.0265 47.6246C65.0265 47.1778 65.3886 46.8157 65.8354 46.8157H67.9923C68.4816 46.8157 68.8782 47.2123 68.8782 47.7016C68.8782 48.1908 68.4816 48.5875 67.9923 48.5875H66.1776C65.4166 48.5875 64.9816 49.4554 65.437 50.0651L68.4702 54.1257C68.8073 54.5769 69.4661 54.6244 69.8644 54.2261L72.8443 51.2462C73.0176 51.0729 73.2528 50.9755 73.4979 50.9755H75.1684C75.3846 50.9755 75.594 51.0513 75.7602 51.1898L76.0948 51.4687C76.3056 51.6443 76.4275 51.9045 76.4275 52.1788V52.8243C76.4275 53.3348 76.8413 53.7487 77.3519 53.7487H80.8151Z" fill="#3A2D14"/>
<path d="M32.4928 33.1344H35.5227C36.0333 33.1344 36.4471 33.5483 36.4471 34.0588V35.9076C36.4471 35.9502 36.4816 35.9847 36.5242 35.9847C34.9504 36.0167 33.6739 37.0883 33.6739 38.4497C33.6739 39.8111 34.95 40.9148 36.5242 40.9148H38.1419C38.6524 40.9148 39.0663 40.5009 39.0663 39.9904V39.7593C39.0663 39.2488 39.4801 38.8349 39.9907 38.8349H41.8576C42.0933 38.8349 42.3202 38.925 42.4917 39.0867L44.6306 41.1033C44.8158 41.278 44.9208 41.5213 44.9208 41.7759V43.9434C44.9208 44.1755 44.8335 44.399 44.6763 44.5697L42.4992 46.9334C42.3242 47.1234 42.0777 47.2315 41.8193 47.2315H40.2722C39.7718 47.2315 39.3784 47.6418 39.2002 48.1094C38.8455 49.0402 37.988 49.6966 36.9864 49.6966H34.9065C34.3959 49.6966 33.9821 50.1105 33.9821 50.621V52.0076C33.9821 52.5181 33.5682 52.932 33.0577 52.932H31.4016C31.0892 52.932 30.7978 52.7741 30.6272 52.5124L26.0959 45.5603C27.1449 40.856 29.3889 36.6023 32.4928 33.1344Z" fill="#3A2D14"/>
<path d="M42.9179 36.678C42.6627 36.678 42.4557 36.8849 42.4557 37.1402C42.4557 37.3506 42.5313 37.4606 42.6868 37.6024L45.383 40.0674C45.7781 40.4274 46.2053 40.4084 46.5385 39.9904L49.9575 36.4686C50.088 36.3049 50.1591 36.1017 50.1591 35.8924V35.4371C50.1591 35.1955 50.0645 34.9635 49.8956 34.7908L47.0416 31.8719C46.8676 31.694 46.6294 31.5938 46.3806 31.5938H41.6084C41.1829 31.5938 40.838 31.9386 40.838 32.3641C40.838 32.7895 41.1829 33.1344 41.6084 33.1344H42.9179C44.1943 33.1344 45.2289 34.0656 45.2289 35.2143C45.2289 36.363 44.194 36.6509 42.9179 36.678Z" fill="#3A2D14"/>
<path d="M34.1991 54.424C33.6291 53.8381 34.0442 52.855 34.8617 52.855H40.6862C40.9314 52.855 41.1665 52.9524 41.3399 53.1257L46.1907 57.9765C46.3641 58.1499 46.5992 58.2473 46.8444 58.2473H48.2332C48.7438 58.2473 49.1576 58.6612 49.1576 59.1717V61.3252L49.1575 61.3266C49.1574 61.327 49.1573 61.3275 49.1571 61.3279C49.1567 61.329 49.156 61.3301 49.155 61.3309C49.1535 61.3322 49.1526 61.3341 49.1524 61.3362C49.0636 62.7074 47.8537 63.7937 46.4615 63.7937C46.4124 63.7937 46.3636 63.7924 46.3152 63.7897C46.3133 63.7896 46.3114 63.7902 46.31 63.7915C46.309 63.7923 46.3083 63.7934 46.3079 63.7945C46.3076 63.7953 46.3074 63.7962 46.3074 63.7971V65.7039C46.3074 65.9596 46.2015 66.2039 46.0149 66.3786L41.7468 70.3757C41.5602 70.5505 41.4543 70.7948 41.4543 71.0504V71.3628C41.4543 72.056 40.7196 72.5025 40.1043 72.1833L39.1799 71.7038C38.8734 71.5449 38.6811 71.2284 38.6811 70.8833V61.4046C38.6811 61.3624 38.6462 61.3286 38.6041 61.3286C36.8323 61.3286 35.4457 60.4813 35.4457 58.8636V56.0807C35.4457 55.8399 35.3518 55.6086 35.1838 55.4361L34.1991 54.424Z" fill="#3A2D14"/>
<path d="M51.9308 50.698C51.9308 50.1875 52.3447 49.7736 52.8552 49.7736H63.0236C63.3165 49.7736 63.4656 49.9236 63.6399 50.1588L67.8767 55.8593C68.0511 56.0945 68.2002 56.2444 68.493 56.2444H69.9484C70.0361 56.2444 70.1107 56.3108 70.1107 56.3985C70.1107 56.9408 69.8165 57.4177 69.3717 57.6923C68.9373 57.9604 68.493 58.353 68.493 58.8636V62.494C68.493 62.7347 68.3992 62.9658 68.2314 63.1384L66.0585 65.3734C65.8907 65.546 65.7968 65.7771 65.7968 66.0178V67.4913C65.7968 68.0018 65.383 68.4157 64.8724 68.4157H63.1841C62.9338 68.4157 62.6943 68.3142 62.5201 68.1345L60.665 66.2195C60.4979 66.0471 60.4045 65.8164 60.4045 65.5763V60.0961C60.4045 59.5856 59.9906 59.1717 59.4801 59.1717H57.1752C57.1731 59.1717 57.171 59.1713 57.1691 59.1705C57.1675 59.1699 57.1659 59.1689 57.1645 59.1678C57.1613 59.165 57.1572 59.1636 57.1529 59.1639C57.0563 59.169 56.959 59.1717 56.861 59.1717C54.1664 59.1717 51.9768 57.1789 51.9316 54.7048L51.9309 54.7036L51.9308 50.698Z" fill="#3A2D14"/>
<path d="M55.3203 44.6588C55.3203 44.1482 55.7342 43.7344 56.2447 43.7344H58.7464C59.0666 43.7344 59.326 43.9939 59.326 44.314C59.326 44.4379 59.2863 44.5585 59.2128 44.6582L57.2151 47.3647C57.0409 47.6008 56.7648 47.7401 56.4714 47.7401H56.2447C55.7342 47.7401 55.3203 47.3262 55.3203 46.8157V44.6588Z" fill="#3A2D14"/>
<path d="M57.3232 41.2693C57.8337 41.2693 58.2476 40.8554 58.2476 40.3449V39.3531C58.2476 38.9649 57.9329 38.6502 57.5447 38.6502C57.3215 38.6502 57.1117 38.7561 56.9791 38.9357L55.7025 40.6653C55.6544 40.7304 55.6284 40.8093 55.6284 40.8903C55.6284 41.0996 55.7981 41.2693 56.0074 41.2693H57.3232Z" fill="#3A2D14"/>
</svg>
