<svg width="392" height="397" viewBox="0 0 392 397" fill="none" xmlns="http://www.w3.org/2000/svg">
<rect x="2" y="2" width="388" height="393" fill="#FFD439" stroke="black" stroke-width="4"/>
<path d="M220.016 204.925L235.45 204.695L240.504 272.666L225.99 272.771L220.016 204.925Z" fill="#00C5F1"/>
<path d="M218.188 274.135L224.457 269.724L244.657 271.117L251.623 272.045L254.177 276.689L251.623 290.853L256.731 303.623L281.343 308.034L294.345 325.68L298.989 343.326L264.161 353.078L238.156 353.078L227.94 349.131L224.457 330.324L223.064 310.356L221.207 295.032L221.207 288.066L215.402 283.887L214.009 277.154L218.188 274.135Z" fill="#EFEBD2"/>
<path d="M219.612 197.746L225.52 269.492C212.286 270.65 212.286 278.545 213.679 282.492C215.04 286.349 221.728 288.993 223.431 289.689C223.508 296.578 221.709 343.188 226.914 350.058C232.718 357.72 261.974 354.237 264.063 354.005C266.371 353.748 295.139 350.062 298.06 343.559C301.396 336.131 292.158 298.746 258.619 304.551C255.705 296.656 254.312 293.638 251.526 286.209C253.616 284.583 257.118 279.998 255.705 275.761C254.545 272.278 249.901 269.492 241.669 269.492C241.205 266.009 234.704 219.107 236.793 198.675M225.753 270.62C226.974 271.723 231.166 272.505 234.096 271.971C237.025 271.438 239.715 270.06 241.201 268.793M222.502 289.232C224.685 289.915 231.152 291.269 236.457 290.655C242.223 289.988 248.983 287.803 250.748 286.897M277.628 306.328C276.28 305.63 262.09 301.774 253.635 306.139C245.786 310.191 240.292 319.626 239.62 321.193" stroke="#3A2D14" stroke-width="5.57245" stroke-linecap="round"/>
<path d="M167.84 40.5922C169.209 39.3156 173.056 37.1068 175.977 36.3124C179.425 35.3748 182.79 35.5115 183.525 35.4964" stroke="#3A2D14" stroke-width="4.64371" stroke-linecap="round"/>
<path d="M198.023 32.382C199.77 31.708 204.163 31.0932 207.17 31.4456C210.718 31.8614 213.79 33.2433 214.477 33.5031" stroke="#3A2D14" stroke-width="4.64371" stroke-linecap="round"/>
<path d="M297.534 101.765L267.404 104.637V121.868L284.434 116.908L292.294 119.257L291.246 135.966L285.22 143.537H271.334L262.426 150.847L263.212 160.245L257.448 167.816L259.544 177.476L275.526 185.308L294.914 187.397L302.774 170.427L310.109 160.245L300.416 152.935L306.965 135.444L309.323 113.775L297.534 101.765Z" fill="#00C5F1"/>
<path d="M269.906 121.726C272.404 120.052 278.506 116.567 284.851 117.142C291.166 117.715 293.874 119.696 293.648 121.503C292.54 130.39 287.411 141.367 286.146 144.023C284.496 143.32 277.75 141.203 272.768 142.731C268.937 143.907 262.086 149.285 261.423 154.253C260.536 160.903 267.591 167.917 272.341 169.258C277.092 170.6 283.751 171.604 286.912 168.243C291.795 163.05 285.946 158.973 284.72 157.949C282.983 156.498 278.46 153.818 274.256 154.704M262.382 163.566C259.883 165.24 255.222 169.75 256.564 174.401C257.905 179.052 261.179 181.639 264.714 181.91C266.599 182.055 270.37 182.344 273.084 179.62C275.255 177.442 276.699 173.68 277.149 172.071M272.308 181.648C272.546 183.399 273.988 187.098 277.846 187.891C282.669 188.882 285.943 185.181 287.336 183.644C288.729 182.107 291.186 177.144 289.925 171.051M285.455 185.809C286.46 186.745 289.422 188.521 293.234 188.138C298 187.659 300.4 181.225 300.688 179.826C301.339 176.659 302.686 171.852 297.879 169.04C296.159 168.035 292.735 167.861 291.333 167.695M268.175 105.694C272.196 103.604 281.47 100.406 286.781 100.769C293.449 101.224 298.709 102.127 303.99 106.13C309.271 110.132 313.288 116.791 309.363 132.391C306.223 144.87 303.318 149.492 302.198 151.45C305.083 153.136 308.506 155.113 309.969 159.13C310.338 161.295 310.166 168.65 302.198 172.48" stroke="#3A2D14" stroke-width="5.10808" stroke-linecap="round"/>
<circle cx="194.97" cy="132.734" r="86.6052" fill="#00C5F1" stroke="#3A2D14" stroke-width="6.03683"/>
<path d="M278.314 139.143C278.475 137.028 278.556 134.891 278.556 132.734C278.556 111.496 270.636 92.1082 257.587 77.363L254.674 77.0279C254.051 76.9562 253.422 77.0968 252.889 77.4269L239.135 85.9414C239.102 85.9619 239.065 85.9762 239.027 85.9837C238.904 86.0074 238.778 85.9573 238.704 85.8568C236.256 82.5702 232.037 80.4 227.243 80.4C219.678 80.4 213.776 85.7403 213.776 90.6162L213.777 90.6733L213.777 90.7152C213.777 90.7589 213.778 90.8028 213.779 90.8467L213.776 90.8496V92.8444C213.776 94.1785 214.858 95.2599 216.192 95.2599H217.259C218.029 95.2599 218.652 95.8837 218.652 96.653C218.652 97.4224 218.029 98.0461 217.259 98.0461H214.692C214.097 98.0461 213.518 98.2365 213.039 98.5893L211.157 99.9763C210.109 100.748 209.735 102.144 210.257 103.336L211.885 107.057C212.329 108.071 213.331 108.727 214.438 108.727H217.07C217.923 108.727 218.728 109.117 219.257 109.786L221.304 112.379C221.692 112.871 221.903 113.479 221.903 114.105V120.336C221.903 121.875 223.15 123.122 224.689 123.122H228.288C229.635 123.122 230.726 122.031 230.726 120.684C230.726 119.338 231.818 118.246 233.164 118.246H239.665C241.14 118.246 242.335 119.442 242.335 120.916C242.335 122.391 241.14 123.587 239.665 123.587H234.195C231.902 123.587 230.591 126.203 231.963 128.04L241.106 140.279C242.122 141.639 244.107 141.782 245.308 140.582L254.289 131.6C254.812 131.078 255.521 130.784 256.26 130.784H261.294C261.946 130.784 262.577 131.013 263.078 131.43L264.087 132.271C264.722 132.8 265.089 133.584 265.089 134.411V136.357C265.089 137.896 266.337 139.143 267.876 139.143H278.314Z" fill="#00B100"/>
<path d="M132.666 77.0096H141.799C143.338 77.0096 144.585 78.2571 144.585 79.7959V85.3683C144.585 85.4966 144.689 85.6005 144.817 85.6005C140.074 85.6972 136.226 88.927 136.226 93.0305C136.226 97.1338 140.073 100.46 144.817 100.46H149.693C151.232 100.46 152.479 99.213 152.479 97.6742V96.9776C152.479 95.4388 153.727 94.1914 155.266 94.1914H160.893C161.603 94.1914 162.287 94.4629 162.804 94.9504L169.251 101.029C169.809 101.555 170.126 102.289 170.126 103.056V109.589C170.126 110.288 169.863 110.962 169.389 111.477L162.827 118.601C162.299 119.174 161.556 119.5 160.777 119.5H156.114C154.606 119.5 153.42 120.736 152.883 122.146C151.814 124.951 149.229 126.93 146.21 126.93H139.941C138.403 126.93 137.155 128.177 137.155 129.716V133.895C137.155 135.434 135.908 136.681 134.369 136.681H129.378C128.436 136.681 127.558 136.206 127.043 135.417L113.386 114.462C116.547 100.283 123.311 87.4623 132.666 77.0096Z" fill="#00B100"/>
<path d="M164.089 87.6902C163.319 87.6902 162.696 88.314 162.696 89.0833C162.696 89.7176 162.923 90.0492 163.392 90.4764L171.519 97.9063C172.71 98.9914 173.997 98.934 175.001 97.6742L185.307 87.0592C185.7 86.5658 185.914 85.9534 185.914 85.3225V83.95C185.914 83.222 185.629 82.5228 185.12 82.0022L176.518 73.2042C175.994 72.6682 175.275 72.3659 174.526 72.3659H160.142C158.859 72.3659 157.82 73.4054 157.82 74.6878C157.82 75.9701 158.859 77.0096 160.142 77.0096H164.089C167.936 77.0096 171.054 79.8164 171.054 83.2787C171.054 86.741 167.935 87.6086 164.089 87.6902Z" fill="#00B100"/>
<path d="M137.809 141.178C136.091 139.412 137.343 136.449 139.806 136.449H157.362C158.101 136.449 158.81 136.743 159.332 137.265L173.953 151.886C174.476 152.409 175.184 152.702 175.923 152.702H180.11C181.648 152.702 182.896 153.95 182.896 155.488V161.979L182.896 161.981L182.895 161.983C182.895 161.985 182.895 161.986 182.894 161.987C182.893 161.991 182.891 161.994 182.888 161.996C182.883 162 182.88 162.006 182.88 162.012C182.612 166.145 178.966 169.42 174.769 169.42C174.621 169.42 174.474 169.415 174.329 169.407C174.323 169.407 174.317 169.409 174.313 169.413C174.31 169.415 174.308 169.418 174.306 169.422C174.305 169.424 174.305 169.427 174.305 169.43V175.177C174.305 175.948 173.986 176.684 173.423 177.211L160.559 189.258C159.996 189.785 159.677 190.521 159.677 191.292V192.233C159.677 194.323 157.463 195.669 155.608 194.707L152.822 193.261C151.898 192.782 151.319 191.829 151.319 190.788V162.218C151.319 162.091 151.213 161.99 151.086 161.99C145.746 161.99 141.567 159.436 141.567 154.56V146.172C141.567 145.446 141.284 144.749 140.777 144.229L137.809 141.178Z" fill="#00B100"/>
<path d="M191.254 129.948C191.254 128.409 192.502 127.162 194.041 127.162H224.689C225.572 127.162 226.021 127.614 226.547 128.323L239.317 145.504C239.842 146.213 240.292 146.665 241.174 146.665H245.561C245.825 146.665 246.05 146.865 246.05 147.13C246.05 148.764 245.163 150.202 243.823 151.029C242.514 151.838 241.174 153.021 241.174 154.56V165.502C241.174 166.227 240.891 166.924 240.386 167.444L233.836 174.181C233.331 174.701 233.048 175.398 233.048 176.123V180.564C233.048 182.103 231.8 183.351 230.262 183.351H225.173C224.418 183.351 223.696 183.045 223.172 182.503L217.58 176.731C217.076 176.211 216.795 175.516 216.795 174.792V158.275C216.795 156.736 215.547 155.488 214.009 155.488H207.061C207.055 155.488 207.049 155.487 207.043 155.485C207.038 155.483 207.033 155.48 207.029 155.477C207.02 155.468 207.007 155.464 206.994 155.465C206.703 155.48 206.41 155.488 206.114 155.488C197.993 155.488 191.393 149.482 191.257 142.025L191.256 142.023L191.255 142.021L191.254 142.02V129.948Z" fill="#00B100"/>
<path d="M201.471 111.745C201.471 110.206 202.718 108.959 204.257 108.959H211.797C212.762 108.959 213.544 109.741 213.544 110.706C213.544 111.079 213.425 111.443 213.203 111.743L207.182 119.901C206.657 120.613 205.825 121.033 204.94 121.033H204.257C202.718 121.033 201.471 119.785 201.471 118.246V111.745Z" fill="#00B100"/>
<path d="M207.507 101.529C209.046 101.529 210.294 100.281 210.294 98.7427V95.7532C210.294 94.5832 209.345 93.6346 208.175 93.6346C207.503 93.6346 206.87 93.954 206.47 94.4951L202.623 99.7084C202.478 99.9048 202.399 100.142 202.399 100.387C202.399 101.017 202.911 101.529 203.542 101.529H207.507Z" fill="#00B100"/>
<path d="M196.595 63.5428C196.595 67.518 195.327 83.2786 190.326 83.2786C185.324 83.2786 177.323 72.3939 177.323 68.4187C177.323 64.4435 179.288 53.791 184.289 53.791C189.29 53.791 196.595 59.5676 196.595 63.5428Z" fill="#EFEBD2"/>
<path d="M219.581 57.506C219.581 61.4812 221.564 76.0808 216.563 76.0808C196.362 71.9015 195.898 63.5709 195.898 59.5957C195.898 55.6204 197.862 44.968 202.864 44.968C207.865 44.968 219.581 53.5308 219.581 57.506Z" fill="#EFEBD2"/>
<path d="M192.183 52.1657C192.183 56.1409 188.129 59.3635 183.128 59.3635C178.127 59.3635 172.912 61.0168 172.912 57.0416C172.912 53.0664 174.876 42.4139 179.877 42.4139C184.878 42.4139 192.183 48.1905 192.183 52.1657Z" fill="#00B100"/>
<path d="M216.098 48.2186C216.098 52.1938 212.044 55.4163 207.043 55.4163C202.042 55.4163 196.827 57.0697 196.827 53.0945C196.827 49.1193 198.791 38.4668 203.792 38.4668C208.793 38.4668 216.098 44.2434 216.098 48.2186Z" fill="#00B100"/>
<path fill-rule="evenodd" clip-rule="evenodd" d="M190.344 87.0396L190.096 87.0766L189.843 87.091C187.111 87.2461 184.683 85.861 183.272 84.8934C181.592 83.7406 179.925 82.1816 178.397 80.3812C175.33 76.7672 172.42 71.7068 170.983 65.7151C170.933 65.5035 170.883 65.292 170.835 65.0806C170.588 65.1595 170.338 65.2399 170.083 65.3218C169.816 65.4078 169.544 65.4956 169.269 65.585C167.844 66.0472 166.312 65.2711 165.848 63.8514C165.384 62.4318 166.163 60.9063 167.588 60.4441C168.4 60.1807 169.177 59.9318 169.922 59.6959C169.54 56.2538 169.584 52.9753 170.11 50.1232C170.849 46.115 173.068 40.6732 179.017 39.7878C184.652 38.9494 189.433 42.8288 192.318 46.3385C192.665 46.7613 193.005 47.2008 193.337 47.6559C193.442 46.7458 193.589 45.8674 193.778 45.0271C194.699 40.9373 197.174 35.7267 202.954 34.8666C208.734 34.0065 213.45 38.1469 216.2 41.6905C218.008 44.0195 219.596 46.8345 220.877 49.9417C221.713 49.8649 222.473 49.7981 223.14 49.742C224.633 49.6165 225.946 50.7208 226.072 52.2085C226.198 53.6962 225.09 55.0039 223.596 55.1295C223.304 55.154 222.996 55.1805 222.672 55.2089C222.805 55.6955 222.931 56.1858 223.049 56.6795C224.43 62.4381 224.63 68.0742 223.611 72.6043C222.884 75.8346 221.187 79.7641 217.658 81.6969C217.03 83.7594 215.599 85.8651 212.911 87.4025C211.872 87.9973 210.545 87.6399 209.947 86.6041C209.35 85.5684 209.709 84.2465 210.749 83.6517C213.626 82.0058 213.926 79.5184 213.63 78.1458C213.527 77.6681 213.139 76.9842 212.37 76.349C211.623 75.7312 210.642 75.2692 209.572 75.1325C208.485 74.9933 207.713 75.1796 207.101 75.4952C206.453 75.8293 205.854 76.3777 205.244 77.1493C204.973 77.4933 204.726 78.0948 204.569 78.8764C204.417 79.6289 204.39 80.3368 204.405 80.7005C204.454 81.8939 203.523 82.9012 202.325 82.9504C201.127 82.9996 200.116 82.0721 200.066 80.8787C200.038 80.1887 200.088 79.1342 200.312 78.0247C200.451 77.3358 200.674 76.533 201.045 75.7543C200.754 75.3719 200.468 74.9768 200.188 74.5699C200.061 75.4334 199.894 76.2675 199.69 77.0666C198.64 81.1607 196.001 86.1977 190.344 87.0396ZM204.704 71.8748C204.834 71.7984 204.967 71.7248 205.104 71.6544C206.537 70.9151 208.204 70.5966 210.125 70.8424C212.066 71.0906 213.806 71.9153 215.144 73.0206C215.77 73.5382 216.338 74.1435 216.799 74.814C218.943 71.2762 219.415 64.71 217.681 57.4784C217.539 56.8869 217.386 56.3037 217.222 55.7301C215.856 55.8701 214.406 56.0256 212.918 56.1939C214.103 59.2628 214.269 63.3967 209.465 65.9244C206.419 67.5268 202.343 66.5414 200.672 63.5341C201.739 66.7411 203.139 69.5937 204.704 71.8748ZM193.282 59.3117C193.561 60.1778 193.811 61.0692 194.03 61.9817C196.461 72.1255 194.046 81.0423 189.083 81.7809C186.653 81.9189 180.973 77.0226 177.804 69.3788C179.804 71.2058 182.999 71.6086 185.51 70.2873C190.513 67.6552 190.202 63.3363 188.924 60.2417L189.863 60.0428C190.939 59.8154 192.062 59.5778 193.282 59.3117ZM191.196 54.23C190.362 54.4094 189.566 54.5779 188.79 54.7419L188.787 54.7423C184.602 55.6276 181.021 56.3852 175.269 58.0639C174.77 51.0117 176.478 45.612 180.278 45.0466C183.857 44.5139 188.162 48.2821 191.196 54.23ZM198.667 52.6887C203.711 51.8203 210.017 51.0526 215.315 50.4924C212.34 43.8832 207.972 39.5662 204.214 40.1254C200.507 40.677 198.443 45.8195 198.667 52.6887Z" fill="#3A2D14"/>
<path d="M170.589 205.176L185.914 207.034L181.734 275.064L167.339 273.206L170.589 205.176Z" fill="#00C5F1"/>
<path d="M157.588 278.779L163.857 274.367L184.057 275.76L193.576 281.333L186.727 297.238L189.629 309.195L200.774 326.841L208.901 346.113L204.025 355.168L142.263 354.471L138.084 342.165L143.656 327.306L155.382 318.947L160.606 299.676V289.227L157.588 278.779Z" fill="#EFEBD2"/>
<path d="M169.788 208.659L167.234 273.671C163.674 273.903 156.507 275.389 156.322 279.475C156.136 283.562 159.495 285.977 161.197 286.673C161.275 293.561 160.687 308.499 157.715 313.142C154 318.947 142.344 323.254 138.462 339.843C135.908 350.756 141.945 355.739 145.892 355.864C160.52 356.329 202.016 356.422 203.687 355.864C205.777 355.168 209.724 351.453 208.795 345.184C208.573 344.719 207.867 331.021 191.846 316.857C189.988 308.499 187.434 295.032 188.595 287.602C190.685 286.673 195.812 285.105 194.4 280.868C193.239 277.386 190.453 275.76 183.023 273.671C182.558 270.188 184.88 230.02 186.97 209.587M167.021 273.903C168.104 275.141 172.175 276.411 175.147 276.225C178.119 276.039 180.952 274.987 182.577 273.903M160.52 286.44C162.609 287.369 168.878 289.459 174.219 289.459C180.023 289.459 186.989 288.066 188.846 287.369M199.759 325.216C198.675 323.978 185.973 313.625 174.218 313.625C163.306 313.625 151.929 319.489 150.303 320.573" stroke="#3A2D14" stroke-width="5.57245" stroke-linecap="round"/>
<path d="M92.0937 101.157L122.647 104.069V121.542L105.378 116.512L97.4074 118.895L98.4701 135.839L104.581 143.517H118.662L127.695 150.93L126.898 160.46L132.744 168.138L130.618 177.934L114.411 185.876L94.7506 187.994L86.78 170.786L79.3408 160.46L89.1712 153.048L82.529 135.309L80.1379 113.335L92.0937 101.157Z" fill="#00B100"/>
<path d="M120.111 121.399C117.577 119.702 111.389 116.167 104.955 116.751C98.5509 117.331 95.8052 119.341 96.0338 121.173C97.1581 130.185 102.359 141.316 103.641 144.01C105.315 143.297 112.156 141.151 117.208 142.7C121.094 143.892 128.041 149.346 128.713 154.384C129.612 161.128 122.459 168.24 117.641 169.601C112.823 170.961 106.07 171.979 102.865 168.571C97.9127 163.305 103.845 159.171 105.088 158.132C106.849 156.661 111.436 153.943 115.699 154.842M127.741 163.828C130.274 165.526 135.001 170.1 133.641 174.816C132.28 179.532 128.96 182.156 125.376 182.431C123.464 182.577 119.64 182.87 116.888 180.109C114.686 177.899 113.222 174.084 112.765 172.453M117.675 182.165C117.433 183.94 115.971 187.691 112.058 188.496C107.168 189.501 103.847 185.747 102.435 184.189C101.022 182.631 98.5307 177.597 99.8092 171.419M104.342 186.385C103.324 187.334 100.32 189.134 96.4535 188.746C91.6205 188.261 89.1869 181.736 88.8952 180.317C88.2348 177.105 86.8685 172.231 91.7439 169.38C93.4882 168.36 96.9596 168.184 98.3813 168.015M121.865 105.141C117.789 103.021 108.384 99.7789 102.998 100.147C96.2355 100.609 90.9016 101.524 85.5463 105.583C80.191 109.642 76.1178 116.395 80.0981 132.214C83.2824 144.869 86.2275 149.556 87.3637 151.541C84.4385 153.252 80.9669 155.256 79.483 159.33C79.1094 161.525 79.2831 168.984 87.3637 172.868" stroke="#3A2D14" stroke-width="5.10808" stroke-linecap="round"/>
<path d="M189.063 94.7304C188.949 95.0008 188.784 95.2531 188.582 95.4753C188.19 96.5518 188.15 97.6643 188.265 98.9937C188.65 103.465 192.587 106.778 197.059 106.393C201.453 106.014 204.728 102.206 204.474 97.8304L204.478 97.8301C204.368 96.5526 205.314 95.4276 206.592 95.3175C207.869 95.2075 208.994 96.154 209.104 97.4315L209.107 97.4304C209.605 101.785 213.484 104.978 217.878 104.599C222.35 104.214 225.662 100.277 225.277 95.8052C225.18 94.6782 224.857 93.6247 224.357 92.6856C223.458 92.0784 223.082 90.9024 223.518 89.8637C224.014 88.6814 225.559 87.9584 226.741 88.4547C227.327 88.7001 227.744 89.13 227.957 89.6449C229.028 91.3257 229.721 93.2831 229.904 95.4067C230.509 102.433 225.304 108.62 218.277 109.226C213.974 109.596 209.986 107.788 207.401 104.717C205.38 108.185 201.76 110.649 197.457 111.019C190.43 111.625 184.243 106.419 183.638 99.3923C183.445 97.1513 183.843 94.9957 184.703 93.0794L184.714 93.083C185.264 91.9777 186.739 91.3247 187.878 91.8026C189.061 92.2989 189.559 93.5479 189.063 94.7304Z" fill="#3A2D14"/>
</svg>
