<svg width="392" height="397" viewBox="0 0 392 397" fill="none" xmlns="http://www.w3.org/2000/svg">
<rect x="2" y="2" width="388" height="393" fill="#9747FF" stroke="black" stroke-width="4"/>
<circle cx="169.064" cy="182.142" r="96.7556" transform="rotate(-7.54495 169.064 182.142)" fill="#00C5F1" stroke="#3A2D14" stroke-width="6.74436"/>
<path d="M262.31 177.014C262.178 174.647 261.955 172.268 261.638 169.88C258.523 146.358 246.906 126.047 230.292 111.631L227.017 111.687C226.316 111.699 225.64 111.947 225.098 112.391L211.114 123.839C211.08 123.866 211.042 123.887 211 123.901C210.867 123.946 210.721 123.908 210.624 123.808C207.431 120.527 202.44 118.742 197.131 119.446C188.751 120.556 182.999 127.336 183.714 132.736L183.723 132.799L183.729 132.845C183.736 132.894 183.743 132.942 183.751 132.991L183.749 132.994L184.041 135.204C184.237 136.681 185.593 137.72 187.071 137.525L188.253 137.368C189.105 137.255 189.887 137.855 190 138.707C190.113 139.559 189.514 140.341 188.662 140.454L185.818 140.83C185.16 140.918 184.546 141.213 184.068 141.674L182.186 143.487C181.139 144.496 180.93 146.096 181.683 147.34L184.032 151.222C184.672 152.28 185.878 152.859 187.104 152.697L190.019 152.311C190.963 152.186 191.913 152.5 192.596 153.164L195.243 155.735C195.746 156.222 196.069 156.865 196.161 157.559L197.074 164.459C197.3 166.164 198.865 167.362 200.569 167.136L204.555 166.609C206.046 166.411 207.095 165.042 206.897 163.551C206.7 162.06 207.749 160.691 209.24 160.493L216.44 159.539C218.073 159.323 219.573 160.472 219.789 162.105C220.005 163.738 218.857 165.238 217.223 165.454L211.166 166.256C208.625 166.593 207.557 169.683 209.347 171.516L221.267 183.73C222.592 185.088 224.813 184.955 225.966 183.449L234.596 172.184C235.098 171.529 235.84 171.1 236.658 170.991L242.234 170.253C242.956 170.157 243.689 170.318 244.305 170.706L245.545 171.489C246.326 171.982 246.848 172.797 246.97 173.713L247.255 175.868C247.481 177.572 249.045 178.771 250.75 178.545L262.31 177.014Z" fill="#00B100"/>
<path d="M91.8867 129.565L102.001 128.225C103.705 127.999 105.27 129.198 105.496 130.902L106.313 137.074C106.332 137.216 106.462 137.316 106.604 137.297C101.365 138.1 97.5778 142.241 98.1797 146.786C98.7816 151.33 103.529 154.45 108.784 153.754L114.184 153.039C115.889 152.813 117.087 151.249 116.862 149.545L116.759 148.773C116.534 147.069 117.732 145.504 119.437 145.279L125.669 144.453C126.456 144.349 127.253 144.549 127.897 145.013L135.928 150.8C136.624 151.301 137.082 152.067 137.195 152.917L138.153 160.152C138.256 160.927 138.063 161.712 137.614 162.351L131.391 171.204C130.891 171.916 130.116 172.386 129.253 172.5L124.089 173.184C122.418 173.405 121.287 174.949 120.898 176.588C120.126 179.852 117.554 182.423 114.21 182.865L107.267 183.785C105.563 184.011 104.364 185.575 104.59 187.28L105.203 191.908C105.429 193.613 104.23 195.177 102.526 195.403L96.9976 196.135C95.9545 196.273 94.9122 195.875 94.2269 195.077L76.0268 173.873C77.4485 157.705 83.0587 142.514 91.8867 129.565Z" fill="#00B100"/>
<path d="M128.255 136.784C127.402 136.897 126.803 137.679 126.916 138.531C127.009 139.234 127.31 139.568 127.892 139.972L137.982 147.009C139.46 148.036 140.878 147.783 141.805 146.241L151.662 132.973C152.025 132.369 152.172 131.659 152.08 130.96L151.878 129.44C151.771 128.634 151.353 127.901 150.713 127.399L139.895 118.917C139.236 118.4 138.396 118.171 137.566 118.281L121.635 120.391C120.215 120.579 119.216 121.883 119.404 123.303C119.592 124.723 120.896 125.722 122.316 125.534L126.688 124.955C130.949 124.391 134.814 127.042 135.322 130.876C135.83 134.711 132.502 136.129 128.255 136.784Z" fill="#00B100"/>
<path d="M106.996 199.879C104.834 198.175 105.785 194.71 108.514 194.348L127.957 191.773C128.776 191.664 129.604 191.886 130.259 192.388L148.597 206.436C149.252 206.938 150.08 207.159 150.899 207.051L155.535 206.437C157.239 206.211 158.804 207.409 159.029 209.114L159.982 216.302L159.982 216.305L159.982 216.307C159.982 216.309 159.982 216.31 159.981 216.312C159.98 216.316 159.978 216.32 159.975 216.323C159.971 216.328 159.969 216.335 159.969 216.341C160.279 220.958 156.72 225.119 152.073 225.735C151.909 225.757 151.746 225.774 151.583 225.786C151.576 225.787 151.57 225.79 151.566 225.795C151.563 225.798 151.561 225.802 151.56 225.806C151.56 225.809 151.56 225.811 151.56 225.814L152.403 232.18C152.516 233.033 152.271 233.896 151.725 234.562L139.245 249.792C138.699 250.458 138.453 251.32 138.566 252.173L138.704 253.216C139.011 255.53 136.756 257.346 134.561 256.552L131.263 255.36C130.17 254.965 129.388 253.994 129.235 252.841L125.044 221.2C125.025 221.059 124.894 220.962 124.753 220.98C118.839 221.764 113.835 219.548 113.12 214.148L111.89 204.858C111.783 204.054 111.367 203.324 110.731 202.822L106.996 199.879Z" fill="#00B100"/>
<path d="M164.54 179.601C164.315 177.897 165.513 176.332 167.217 176.106L201.162 171.61C202.139 171.481 202.703 171.915 203.389 172.624L220.053 189.78C220.739 190.488 221.303 190.922 222.28 190.793L227.139 190.149C227.432 190.111 227.71 190.299 227.749 190.592C227.989 192.402 227.217 194.124 225.854 195.238C224.522 196.325 223.213 197.832 223.439 199.536L225.044 211.655C225.15 212.459 224.939 213.272 224.455 213.922L218.19 222.344C217.706 222.994 217.495 223.807 217.601 224.61L218.253 229.529C218.479 231.234 217.28 232.798 215.576 233.024L209.94 233.77C209.104 233.881 208.26 233.648 207.599 233.125L200.559 227.553C199.925 227.051 199.512 226.322 199.406 225.521L196.982 207.227C196.757 205.523 195.192 204.324 193.488 204.55L185.794 205.569C185.787 205.57 185.78 205.569 185.773 205.568C185.767 205.566 185.761 205.564 185.756 205.56C185.744 205.553 185.73 205.55 185.716 205.552C185.396 205.613 185.072 205.664 184.745 205.708C175.75 206.899 167.559 201.215 166.314 192.976L166.313 192.974L166.312 192.972L166.311 192.971L164.54 179.601Z" fill="#00B100"/>
<path d="M173.185 157.942C172.959 156.238 174.158 154.673 175.862 154.447L184.213 153.341C185.282 153.2 186.263 153.951 186.404 155.02C186.459 155.433 186.38 155.854 186.178 156.219L180.707 166.137C180.229 167.002 179.369 167.589 178.39 167.719L177.633 167.819C175.929 168.045 174.364 166.846 174.139 165.142L173.185 157.942Z" fill="#00B100"/>
<path d="M178.372 145.742C180.076 145.516 181.275 143.951 181.049 142.247L180.611 138.936C180.439 137.64 179.249 136.729 177.954 136.901C177.209 136.999 176.555 137.446 176.192 138.104L172.695 144.442C172.563 144.681 172.511 144.956 172.547 145.226C172.64 145.925 173.281 146.416 173.98 146.323L178.372 145.742Z" fill="#00B100"/>
<path d="M292.557 174.127L269.216 199.246L253.719 187.374L269.913 175.476L273.216 166.788L257.467 156.219L246.506 156.422L236.939 168.91L224.227 171.885L213.694 167.083L205.535 164.67L168.982 148.008L171.387 140.269L181.209 136.192L176.137 123.974L179.437 118.391L192.907 117.012L187.835 104.793L193.827 98.6548L223.468 116.047L233.197 114.61L248.627 122.525L248.523 136.28L268.767 142.441L289.879 155.249L292.557 174.127Z" fill="#00B100"/>
<path d="M255.571 185.221C258.797 184.127 266.136 181.04 269.99 174.938C273.827 168.864 273.91 165.064 272.13 164.021C263.753 159.118 251.121 156.206 247.187 155.355C246.915 155.296 246.653 155.463 246.573 155.729C245.819 158.228 243.13 164.98 238.652 168.174C234.955 170.811 225.999 171.745 220.473 170.439C213.897 168.885 202.937 163.84 199.038 160.953C199.015 160.936 198.992 160.922 198.966 160.909C187.621 155.135 165.744 154.398 168.05 145.086C171.597 130.762 202.313 141.698 205.692 142.474M205.692 142.474C209.27 143.452 209.337 143.613 211.13 143.992M205.692 142.474C203.425 141.855 172.357 132.979 174.542 123.512C177.899 108.96 210.356 126.544 215.245 127.946C215.523 128.026 215.629 127.833 215.396 127.661C211.763 124.959 180.613 112.157 188.829 101.853C197.531 90.9376 223.74 116.148 224.993 117.173C227.611 119.316 229.179 120.491 234.739 125.766M268.797 197.823C273.447 195.647 282.712 189.509 286.046 184.483C290.23 178.172 293.042 172.819 293.081 165.312C293.12 157.805 289.898 149.605 273.165 142.387C260.601 136.968 254.405 136.13 251.597 135.766C251.314 135.73 251.116 135.472 251.151 135.19C251.602 131.558 252.019 127.348 249.559 123.459C249.543 123.432 249.526 123.41 249.505 123.387C247.766 121.488 241.201 112.116 225.892 115.956" stroke="#3A2D14" stroke-width="5.70676" stroke-linecap="round"/>
<path d="M97.4467 259.041L133.133 258.967L135.019 238.738L114.483 242.698L105.513 239.079L108.572 219.578L116.475 211.349L132.777 212.868L144.034 205.261L147.812 193.82L151.736 185.883L164.847 146.184L157.235 142.55L147.177 147.171L141.43 134.66L134.833 133.234L124.257 142.549L118.509 130.038L109.585 130.275L101.918 165.211L93.9432 171.627L89.0824 189.009L99.6631 198.652L90.0592 218.47L84.9196 243.652L97.4467 259.041Z" fill="#00B100"/>
<path d="M132.066 238.63C128.949 240.322 121.404 243.746 114.018 242.376C106.667 241.013 103.705 238.391 104.167 236.294C106.346 226.414 113.068 214.684 115.188 211.098C115.33 210.859 115.631 210.78 115.881 210.902C118.306 212.088 125.385 214.823 131.004 213.657C135.631 212.696 142.675 206.515 145.584 201.371C149.045 195.249 152.939 183.309 153.49 178.291C153.493 178.262 153.498 178.236 153.506 178.208C157.114 165.46 172.017 148.227 163.273 143.406C149.824 135.99 136.466 167.184 134.67 170.314M134.67 170.314C132.888 173.738 132.964 173.903 131.986 175.54M134.67 170.314C135.8 168.144 150.98 138.138 142.205 133.115C128.698 125.383 119.18 162.712 116.811 167.359C116.679 167.617 116.464 167.567 116.493 167.279C116.958 162.683 129.263 129.728 115.561 128.718C101.072 127.65 101.803 165.491 101.7 167.172C101.486 170.687 101.276 172.715 101.375 180.691M132.343 257.642C127.394 259.656 116.156 262.395 109.96 261.388C102.181 260.123 96.1052 258.487 90.3433 253.211C84.5814 247.934 80.5945 239.676 86.9097 221.792C91.6628 208.332 95.4096 203.013 97.1103 200.619C97.2752 200.387 97.2207 200.067 96.9896 199.901C93.8918 197.675 90.3702 195.017 89.136 190.379C89.1279 190.349 89.123 190.321 89.1205 190.29C88.9001 187.624 86.3775 175.98 100.135 166.999" stroke="#3A2D14" stroke-width="5.70676" stroke-linecap="round"/>
<path d="M267.754 267.586L295.065 256.248L297.85 262.956L316.627 247.297L335.888 242.952L348.446 252.906L353.491 270.471L335.65 287.708L302.11 301.632L284.733 299.015L277.74 276.079L270.539 274.294L267.754 267.586Z" fill="#EFEBD2"/>
<path d="M213.644 233.314L224.47 210.002L242.383 183.467L258.982 185.564L288.222 255.999L276.541 261.691L247.469 200.455L222.631 242.784L213.644 233.314Z" fill="#00C5F1"/>
<path d="M225.144 243.426C233.928 223.189 238.686 212.141 247.164 203.113C247.392 202.87 247.775 202.89 247.954 203.17C254.384 213.211 270.051 245.892 274.845 261.566C274.928 261.837 274.771 262.112 274.508 262.22C272.776 262.932 270.04 264.804 268.669 266.41C267.162 268.174 266.63 269.245 267.898 271.243C268.695 272.499 272.512 274.978 276.517 274.22C276.875 274.152 277.223 274.427 277.22 274.791C277.167 281.148 281.71 299.06 288.578 301.327C300.549 305.279 323.981 294.288 335.812 287.284C345.044 281.818 346.664 280.984 350.839 275.48C359.336 264.278 347 250.672 344.948 248.435C333.902 236.392 319.152 245.382 312.858 251.646C307.374 256.713 303.191 262.441 300.019 263.281C298.14 263.778 296.754 263.881 295.772 263.881C295.259 263.88 294.939 263.015 295.288 262.637C296.697 261.108 298.17 258.911 297.491 257.309C296.669 255.367 292.133 255.623 289.466 256.067C289.143 256.121 288.845 255.9 288.819 255.573C287.939 244.456 264.462 199.197 262.127 193.681C259.903 188.426 251.412 183.006 245.137 184.817C239.134 186.55 234.92 191.958 232.072 196.544C228.547 202.221 225.031 207.888 213.786 231.896" stroke="#3A2D14" stroke-width="6.22556" stroke-linecap="round"/>
<path d="M276.932 274.705C282.401 272.996 292.782 266.609 295.483 263.914" stroke="#3A2D14" stroke-width="6.22556" stroke-linecap="round"/>
<path d="M274.754 261.975C278.586 261.708 285.993 258.027 287.964 256.026" stroke="#3A2D14" stroke-width="6.22556" stroke-linecap="round"/>
<path d="M211.803 299.239L239.114 287.901L241.899 294.609L260.676 278.95L279.937 274.605L292.495 284.559L297.54 302.125L279.699 319.361L246.158 333.285L228.782 330.668L221.788 307.732L214.587 305.947L211.803 299.239Z" fill="#EFEBD2"/>
<path d="M157.693 264.968L168.519 241.656L186.432 215.121L203.031 217.218L232.27 287.653L220.59 293.344L191.518 232.108L166.68 274.437L157.693 264.968Z" fill="#00C5F1"/>
<path d="M174.911 266.527C183.691 246.299 182.929 243.506 191.207 234.77C191.435 234.529 191.824 234.544 192.003 234.823C198.433 244.865 214.1 277.545 218.893 293.219C218.977 293.491 218.82 293.765 218.557 293.873C216.825 294.585 214.089 296.458 212.717 298.063C211.21 299.827 210.678 300.899 211.946 302.896C212.743 304.152 216.56 306.631 220.566 305.873C220.923 305.806 221.272 306.08 221.269 306.444C221.216 312.801 225.759 330.713 232.626 332.98C244.598 336.932 268.03 325.941 279.86 318.937C289.092 313.471 290.712 312.638 294.887 307.134C303.385 295.932 291.048 282.326 288.996 280.088C277.95 268.046 263.2 277.035 256.906 283.299C251.423 288.367 247.239 294.095 244.067 294.934C242.189 295.431 240.802 295.535 239.821 295.534C239.307 295.534 238.988 294.668 239.336 294.29C240.746 292.761 242.218 290.565 241.54 288.962C240.718 287.021 236.181 287.276 233.514 287.72C233.191 287.774 232.894 287.553 232.868 287.227C231.987 276.109 208.511 230.85 206.176 225.335C203.951 220.079 195.46 214.66 189.185 216.471C183.183 218.203 178.969 223.611 176.121 228.197C172.596 233.874 174.798 230.989 163.552 254.997" stroke="#3A2D14" stroke-width="6.22556" stroke-linecap="round"/>
<path d="M220.98 306.358C226.449 304.649 236.83 298.262 239.531 295.568" stroke="#3A2D14" stroke-width="6.22556" stroke-linecap="round"/>
<path d="M218.803 293.628C222.635 293.361 230.041 289.68 232.013 287.679" stroke="#3A2D14" stroke-width="6.22556" stroke-linecap="round"/>
</svg>
