<svg width="392" height="397" viewBox="0 0 392 397" fill="none" xmlns="http://www.w3.org/2000/svg">
<rect x="2" y="2" width="388" height="393" fill="#F783A4" stroke="black" stroke-width="4"/>
<path d="M186.399 136.086L189.571 151.126L124.127 169.029L121.252 154.865L186.399 136.086Z" fill="#00C5F1"/>
<path d="M118.423 147.507L123.929 152.791L126.425 172.795L126.848 179.779L122.799 183.16L108.475 183.366L96.9742 190.792L97.3635 215.683L82.6069 231.754L66.2544 239.657L50.078 207.484L45.1129 182.074L47.0185 171.338L64.7268 164.348L83.9682 159.179L98.5843 154.441L105.389 153.113L108.364 146.644L114.676 143.999L118.423 147.507Z" fill="#EFEBD2"/>
<path d="M193.328 134.322L124.363 153.78C120.704 141.068 112.991 142.574 109.401 144.688C105.892 146.754 104.586 153.794 104.231 155.59C97.5158 156.98 51.6352 164.111 45.917 170.508C39.5396 177.641 48.5281 205.566 49.1539 207.564C49.845 209.77 58.9398 237.18 65.8508 238.793C73.7449 240.637 108.505 224.479 96.4301 192.811C103.586 188.458 106.269 186.521 112.995 182.382C114.983 184.113 120.131 186.661 124.001 184.473C127.182 182.674 129.018 177.605 127.446 169.561C130.76 168.443 175.34 153.144 195.701 151.29M123.304 154.222C122.46 155.626 122.496 159.872 123.577 162.633C124.658 165.394 126.518 167.759 128.039 168.97M104.5 154.595C104.25 156.858 104.161 163.437 105.774 168.504C107.527 174.011 110.953 180.2 112.174 181.752M98.3236 211.726C98.7483 210.276 99.8054 195.673 93.927 188.244C88.4693 181.346 78.2024 177.777 76.5438 177.419" stroke="#3A2D14" stroke-width="6.29757" stroke-linecap="round"/>
<circle cx="241.332" cy="164.594" r="86.6222" transform="rotate(60 241.332 164.594)" fill="#00C5F1" stroke="#3A2D14" stroke-width="6.82237"/>
<path d="M277.291 239.638C279.195 238.724 281.078 237.73 282.937 236.657C301.247 226.086 314.02 209.607 320.237 191.018L319.076 188.34C318.828 187.767 318.393 187.295 317.843 186.999L303.657 179.379C303.622 179.361 303.592 179.336 303.566 179.307C303.485 179.213 303.465 179.08 303.515 178.965C305.13 175.219 304.901 170.502 302.515 166.369C298.749 159.846 291.208 157.417 287.004 159.844L286.955 159.873L286.919 159.894C286.881 159.916 286.844 159.938 286.807 159.961L286.803 159.96L285.083 160.953C283.933 161.617 283.539 163.088 284.203 164.238L284.734 165.158C285.117 165.821 284.89 166.67 284.227 167.052C283.563 167.435 282.715 167.208 282.332 166.545L281.054 164.332C280.758 163.819 280.306 163.414 279.763 163.177L277.631 162.245C276.443 161.725 275.055 162.098 274.286 163.141L271.888 166.397C271.235 167.284 271.169 168.474 271.72 169.429L273.03 171.698C273.454 172.433 273.519 173.322 273.205 174.111L271.988 177.166C271.758 177.745 271.338 178.23 270.798 178.542L265.427 181.643C264.1 182.409 263.646 184.105 264.411 185.432L266.203 188.535C266.873 189.696 268.357 190.093 269.518 189.423C270.679 188.753 272.163 189.151 272.833 190.311L276.069 195.916C276.803 197.188 276.368 198.813 275.097 199.547C273.825 200.281 272.199 199.846 271.465 198.574L268.743 193.859C267.601 191.882 264.693 192.053 263.792 194.151L257.791 208.125C257.124 209.678 257.989 211.461 259.622 211.899L271.836 215.171C272.546 215.362 273.152 215.827 273.52 216.464L276.026 220.805C276.351 221.366 276.468 222.024 276.357 222.664L276.135 223.952C275.994 224.763 275.501 225.47 274.788 225.882L273.111 226.85C271.784 227.616 271.33 229.312 272.096 230.639L277.291 239.638Z" fill="#00B100"/>
<path d="M258.362 83.1438L262.908 91.0172C263.674 92.3438 263.219 94.0402 261.893 94.8061L257.088 97.5798C256.978 97.6437 256.94 97.785 257.004 97.8956C254.559 93.8541 249.86 92.1449 246.322 94.1874C242.784 96.2299 241.831 101.202 244.193 105.292L246.62 109.496C247.386 110.822 249.082 111.277 250.409 110.511L251.009 110.164C252.336 109.398 254.032 109.853 254.798 111.18L257.599 116.031C257.953 116.643 258.059 117.368 257.896 118.056L255.864 126.64C255.688 127.383 255.214 128.021 254.552 128.403L248.92 131.655C248.317 132.003 247.605 132.112 246.926 131.959L237.517 129.848C236.761 129.678 236.11 129.2 235.722 128.529L233.401 124.508C232.651 123.208 230.994 122.801 229.512 123.04C226.561 123.515 223.569 122.271 222.066 119.668L218.946 114.264C218.18 112.937 216.483 112.482 215.157 113.248L211.554 115.329C210.227 116.094 208.531 115.64 207.765 114.313L205.28 110.01C204.811 109.198 204.785 108.204 205.209 107.368L216.476 85.1634C230.274 80.8315 244.694 80.281 258.362 83.1438Z" fill="#00B100"/>
<path d="M264.795 115.55C264.412 114.887 263.563 114.66 262.9 115.043C262.353 115.358 262.181 115.72 262.046 116.337L259.685 127.041C259.342 128.608 260.033 129.689 261.619 129.928L275.9 133.529C276.521 133.622 277.156 133.502 277.699 133.188L278.883 132.505C279.51 132.143 279.971 131.549 280.167 130.851L283.47 119.055C283.671 118.336 283.574 117.567 283.201 116.92L276.041 104.52C275.403 103.414 273.989 103.035 272.884 103.674C271.778 104.312 271.4 105.725 272.038 106.831L274.003 110.234C275.917 113.551 275.05 117.636 272.065 119.36C269.08 121.083 266.779 118.825 264.795 115.55Z" fill="#00B100"/>
<path d="M205.6 119.518C206.267 117.158 209.445 116.761 210.671 118.886L219.41 134.021C219.778 134.658 219.877 135.415 219.687 136.126L214.359 156.008C214.169 156.719 214.269 157.476 214.636 158.113L216.72 161.722C217.486 163.049 217.031 164.745 215.705 165.511L210.109 168.742L210.107 168.743L210.105 168.744L210.101 168.745C210.097 168.745 210.094 168.745 210.09 168.744C210.084 168.742 210.078 168.742 210.073 168.745C206.376 170.571 201.738 169.057 199.649 165.439C199.576 165.312 199.506 165.183 199.44 165.053C199.438 165.048 199.433 165.044 199.428 165.042C199.424 165.041 199.42 165.041 199.417 165.041C199.414 165.042 199.412 165.043 199.409 165.044L194.454 167.905C193.79 168.288 192.996 168.38 192.262 168.157L175.472 163.063C174.738 162.84 173.945 162.931 173.28 163.315L172.469 163.783C170.667 164.823 168.405 163.584 168.311 161.506L168.17 158.385C168.123 157.35 168.657 156.376 169.554 155.858L194.185 141.637C194.295 141.574 194.33 141.433 194.267 141.323C191.609 136.719 191.73 131.845 195.934 129.418L203.165 125.243C203.791 124.881 204.251 124.29 204.448 123.595L205.6 119.518Z" fill="#00B100"/>
<path d="M241.885 160.005C243.211 159.239 244.908 159.693 245.674 161.02L260.929 187.443C261.368 188.204 261.202 188.816 260.853 189.622L252.396 209.184C252.046 209.99 251.88 210.602 252.32 211.363L254.503 215.145C254.635 215.373 254.574 215.666 254.346 215.798C252.937 216.612 251.256 216.562 249.876 215.819C248.527 215.092 246.84 214.527 245.514 215.293L236.08 220.739C235.455 221.1 234.713 221.203 234.013 221.026L224.945 218.733C224.245 218.556 223.504 218.659 222.878 219.02L219.049 221.23C217.723 221.996 216.026 221.542 215.26 220.215L212.727 215.828C212.352 215.177 212.256 214.403 212.462 213.681L214.655 205.987C214.852 205.294 215.312 204.705 215.936 204.345L230.176 196.123C231.503 195.357 231.957 193.661 231.191 192.334L227.733 186.345C227.73 186.339 227.728 186.334 227.727 186.328C227.726 186.322 227.726 186.317 227.727 186.311C227.73 186.299 227.727 186.286 227.72 186.275C227.562 186.032 227.409 185.783 227.262 185.528C223.219 178.527 225.113 169.847 231.474 166.018L231.475 166.016L231.476 166.014L241.885 160.005Z" fill="#00B100"/>
<path d="M262.663 159.752C263.99 158.986 265.686 159.44 266.452 160.767L270.205 167.268C270.685 168.1 270.4 169.163 269.569 169.643C269.247 169.829 268.874 169.907 268.504 169.866L258.474 168.735C257.599 168.636 256.823 168.128 256.383 167.366L256.043 166.777C255.277 165.45 255.731 163.754 257.058 162.988L262.663 159.752Z" fill="#00B100"/>
<path d="M274.475 159.871C275.241 161.198 276.938 161.652 278.264 160.886L280.842 159.398C281.85 158.816 282.196 157.526 281.614 156.517C281.279 155.937 280.689 155.551 280.023 155.476L273.614 154.754C273.372 154.726 273.128 154.777 272.918 154.899C272.374 155.213 272.187 155.908 272.501 156.452L274.475 159.871Z" fill="#00B100"/>
<path d="M180.816 180.342L170.675 173.199L164.237 178.55L155.697 195.766L160.14 218.654L178.419 241.553L189.754 232.626L172.072 209.318L173.917 190.62L180.816 180.342Z" fill="#00C5F1"/>
<path d="M196.58 228.78L189.225 229.456L174.318 243.001L169.43 247.998L170.062 252.964L180.025 261.693L183.251 274.16L166.617 292.639L166.458 313.554L172.791 329.284L201.573 325.024L215.528 315.166L229.391 301.986L231.253 289.439L223.364 273.584L213.197 258.18L206.008 245.869L202.084 240.797L204.238 234.153L201.527 228.385L196.58 228.78Z" fill="#EFEBD2"/>
<path d="M180.795 181.673C180.795 181.673 171.168 185.738 170.772 201.151C170.422 214.769 188.269 229.947 188.269 229.947M188.269 229.947C200.379 224.843 203.649 228.33 204.791 232.068C205.906 235.721 202.2 241.795 201.27 243.358C205.09 248.422 232.745 281.246 232.572 289.477C232.38 298.657 223.576 312.677 209.545 320.278C195.227 328.034 179.576 331.8 173.644 328.877C166.868 325.537 152.984 292.584 182.308 276.007C180.124 268.451 179.506 265.389 177.485 258.251C174.946 258.363 169.642 257.197 168.352 253.236C167.292 249.979 169.452 247.781 175.724 239.964M188.269 229.947C185.452 231.134 183.84 232.583 181.541 234.448C179.243 236.312 178.549 237.004 175.724 239.964M175.724 239.964C174.123 237.14 160.093 224.186 155.492 206.639C150.89 189.092 168.393 174.618 168.393 174.618M201.734 242.449C200.423 244.3 193.908 245.71 189.441 248.553C184.586 251.644 180.358 257.834 178.477 258.27M168.542 289.092C169.196 287.748 178.047 276.138 187.074 274.072C195.454 272.154 205.037 275.616 206.441 276.34M178.132 321.504C178.802 319.556 181.516 314.631 187.015 310.514C193.89 305.367 206.825 300.225 210.371 299.18C216.447 297.391 220.483 296.568 224.047 296.429" stroke="#3A2D14" stroke-width="6.29757" stroke-linecap="round"/>
<path d="M209.597 73.0939L227.774 97.6534L214.837 109.282L207.069 93.148L200 88.8324L188.163 100.895L186.545 110.529L195.915 120.954L205.785 132.137L208.902 143.767L199.723 147.319L188.852 138.328L187.057 147.765L181.017 162.995L170.832 165.105L161.724 145.996L147.072 132.849L154.509 115.496L157.203 103.117L169.233 105.462L177.946 88.7402L192.624 72.3465L209.597 73.0939Z" fill="#00B100"/>
<path d="M213.254 107.307C212.825 104.302 211.323 97.3685 206.61 92.9931C201.918 88.6376 198.603 87.942 197.399 89.3305C191.475 96.1603 186.695 107.419 185.553 110.161C187.195 110.925 193.337 114.562 195.552 119.334C197.493 122.962 203.018 130.149 206.792 133.581C211.445 137.811 210.008 143.828 208.504 145.265C207.124 146.583 203.377 150.084 197.875 146.374C193.76 143.598 190.576 140.762 187.327 137.612M186.468 138.026C186.898 141.031 186.121 160.286 180.752 163.994C176.731 166.771 170.542 166.581 167.902 161.934C164.422 155.809 167.429 147.867 167.642 143.991C167.812 140.891 169.663 137.268 170.567 135.844M166.643 145.942C165.168 146.944 161.418 148.358 158.218 145.997C154.219 143.045 154.789 138.088 155.003 136.005C155.216 133.923 159.545 126.287 164.971 123.122M154.646 138.879C153.266 138.757 149.934 137.731 147.648 134.61C144.791 130.709 148.002 124.565 148.859 123.405C150.798 120.778 153.497 116.523 158.853 118.235C160.769 118.848 163.209 121.301 164.28 122.241M226.459 97.7872C225.315 93.3582 221.457 84.237 217.601 80.4942C212.759 75.7948 208.531 72.4552 201.962 71.1912C195.393 69.9272 187.683 71.4054 178.62 84.8796C171.369 95.659 169.858 100.959 169.145 103.121C165.932 102.093 162.138 100.857 158.134 102.469C156.26 103.654 150.853 108.746 153.355 117.314" stroke="#3A2D14" stroke-width="5.77277" stroke-linecap="round"/>
<path d="M313.301 239.023L302.078 210.583L285.354 215.407L294.936 230.547L294.856 238.834L278.345 242.495L269.31 238.766L265.422 225.288L261.156 210.985L252.933 202.18L245.056 208.09L246.931 222.083L237.968 218.608L221.839 215.668L214.654 223.198L226.052 241.051L229.452 260.454L248.124 263.332L259.532 265.262L264.441 256.146L283.253 257.606L304.945 253.828L313.301 239.023Z" fill="#00B100"/>
<path d="M286.191 217.796C288.515 219.753 293.607 224.7 294.825 231.019C296.037 237.309 294.872 240.492 293.055 240.779C284.119 242.19 272.029 240.285 269.096 239.802C269.317 238.003 269.483 230.863 266.605 226.455C264.553 222.885 261.377 214.387 260.463 209.366C259.336 203.175 253.467 201.208 251.45 201.724C249.6 202.197 244.644 203.524 244.879 210.16C245.056 215.124 245.777 219.329 246.731 223.756M245.925 224.266C243.6 222.309 239.002 217.757 233.01 220.351C228.523 222.294 225.147 229.055 227.694 233.758C231.05 239.956 227.485 235.217 230.888 237.089C233.611 238.587 237.667 238.935 239.354 238.921M228.703 236.904C227.071 237.625 223.884 240.06 224.194 244.027C224.582 248.986 229.092 251.128 230.973 252.049C232.855 252.971 241.63 253.34 247.191 250.411M228.345 250.83C227.718 252.066 226.824 255.439 228.263 259.032C230.061 263.524 236.998 263.674 238.417 263.94C248.654 265.855 258.097 264.938 260.095 263.974C262.093 263.011 265.552 260.733 266.382 257.461C268.595 258 273.895 259.525 286.887 259.079C303.127 258.522 308.466 252.759 310.872 246.512C313.278 240.266 312.682 234.908 311.257 228.308C310.122 223.052 304.422 214.945 301.268 211.628" stroke="#3A2D14" stroke-width="5.77277" stroke-linecap="round"/>
</svg>
