<svg width="184" height="155" viewBox="0 0 184 155" fill="none" xmlns="http://www.w3.org/2000/svg">
<path d="M158.625 75.1306L154.01 80.6923L155.121 84.7993L161.959 86.6817L172.729 85.4839L183.072 73.2482V69.8257L175.379 68.3711L158.625 75.1306Z" fill="#EFEBD2"/>
<path fill-rule="evenodd" clip-rule="evenodd" d="M171.728 68.8368C174.929 67.6478 178.323 67.2482 181.763 68.2711C182.701 68.55 183.336 69.1465 183.679 69.9172C184.003 70.6428 184.041 71.4543 183.969 72.1838C183.825 73.64 183.205 75.1471 182.738 75.9957C181.798 77.7044 180.469 79.0029 179.181 80.1658C178.942 80.3817 178.706 80.5919 178.473 80.799C177.419 81.7373 176.438 82.6102 175.612 83.6431C174.22 85.3832 172.908 86.4257 171.333 86.9959C169.801 87.5505 168.112 87.6193 166.09 87.6193C166.016 87.6193 165.938 87.6194 165.857 87.6194C164.269 87.621 161.478 87.6237 158.949 87.0796C157.619 86.7934 156.283 86.341 155.211 85.6008C154.115 84.8445 153.273 83.7678 153.046 82.2909C152.873 81.1664 153.043 80.1605 153.503 79.3088C153.769 78.8153 154.121 78.3962 154.525 78.0454C155.914 74.9277 158.979 73.1301 162.119 71.8946C163.8 71.2332 165.571 70.707 167.227 70.2289C167.407 70.177 167.585 70.1258 167.761 70.0751C169.229 69.6525 170.576 69.2647 171.728 68.8368ZM156.188 79.3102C156.265 79.2592 156.346 79.2102 156.43 79.1633C156.874 78.9171 157.059 78.386 156.884 77.9256C158.103 76.0822 160.248 74.797 162.857 73.7704C164.441 73.1473 166.13 72.6439 167.786 72.1656C167.965 72.1139 168.144 72.0625 168.323 72.0111C169.776 71.5931 171.201 71.1828 172.43 70.7265C175.329 69.6497 178.265 69.3342 181.189 70.2034C181.559 70.3135 181.733 70.502 181.838 70.7385C181.964 71.0202 182.017 71.4381 181.963 71.986C181.854 73.0846 181.356 74.3249 180.972 75.0242C180.205 76.4188 179.094 77.5286 177.83 78.6698C177.617 78.8621 177.399 79.0564 177.177 79.2536C176.117 80.1953 174.981 81.2046 174.038 82.3838C172.793 83.939 171.766 84.6955 170.647 85.1004C169.485 85.5209 168.125 85.6034 166.09 85.6034C166.025 85.6034 165.959 85.6035 165.89 85.6035C164.284 85.6045 161.684 85.606 159.373 85.1088C158.169 84.8498 157.122 84.4704 156.356 83.9418C155.614 83.4294 155.164 82.8004 155.038 81.9844C154.925 81.2502 155.045 80.6948 155.276 80.2667C155.342 80.1446 155.42 80.0276 155.51 79.9159C155.809 79.8356 156.067 79.6189 156.188 79.3102Z" fill="#3A2D14"/>
<path d="M16.4274 54.512L27.9346 48.3805L40.9536 43.3408L54.2247 40.989L78.4989 48.3805L101.093 63.5834L141.41 73.0747L161.989 81.306L171.06 93.9891L171.48 99.3647L154.597 105.58L141.41 109.696L86.3103 105.58H62.876L27.9346 99.3647L11.8918 91.9733L1.64453 83.7419V73.0747L6.0962 63.5834L16.4274 54.512Z" fill="#EFEBD2"/>
<path d="M60.1047 23.6022L58.5088 40.2329V41.7448L88.4946 54.5119V38.6371V27.6339L85.8908 14.3628L82.615 4.28359L79.5912 0.839844H74.2156L67.7481 6.38344L63.1284 14.3628L60.1047 23.6022Z" fill="#EFEBD2"/>
<path d="M115.54 81.0423L107.656 79.9622L106.133 86.1109L107.029 86.6094L114.555 87.6896L115.54 81.0423Z" fill="#97C3DC"/>
<path d="M128.308 82.3626L120.846 81.3059L119.404 87.3209L120.252 87.8087L127.375 88.8654L128.308 82.3626Z" fill="#97C3DC"/>
<path fill-rule="evenodd" clip-rule="evenodd" d="M76.765 2.01585C73.0427 2.01585 69.5397 5.02337 67.7169 8.36659C67.1486 9.40879 66.4243 10.5295 65.7054 11.6419C65.321 12.2367 64.9381 12.829 64.5815 13.4057C63.5192 15.1235 62.6325 16.7832 62.2512 18.3653C61.3268 22.2002 60.8497 25.9018 60.3709 29.8791C60.2833 30.6071 60.2496 31.3412 60.2138 32.1202C60.1995 32.4294 60.185 32.7457 60.1666 33.0714C60.1041 34.181 59.9973 35.3584 59.6744 36.4949C59.5413 36.9636 59.6069 37.4581 59.7096 38.2318L59.7097 38.2328C59.8014 38.9235 59.9288 39.8829 59.5455 40.8399C59.3385 41.3567 58.7518 41.6078 58.2351 41.4009C57.7183 41.1939 57.4672 40.6072 57.6741 40.0904C57.8356 39.6873 57.8091 39.2341 57.7113 38.4971C57.7052 38.4512 57.6987 38.4038 57.6921 38.3551C57.6042 37.71 57.4841 36.8283 57.7353 35.944C57.9948 35.0307 58.0932 34.0368 58.154 32.958C58.1697 32.6799 58.1829 32.3923 58.1963 32.0991C58.2334 31.2934 58.2723 30.4456 58.3695 29.6382C58.8482 25.662 59.3365 21.8547 60.2914 17.893C60.7527 15.9791 61.7885 14.0895 62.867 12.3455C63.2742 11.687 63.6816 11.0573 64.0759 10.448C64.7634 9.38549 65.4109 8.38489 65.947 7.40162C67.9509 3.72626 72.0042 0 76.765 0C78.3123 0 79.6107 0.331866 80.7015 0.947508C81.7895 1.56155 82.6151 2.42622 83.2661 3.41015C84.4304 5.17004 85.1 7.42888 85.7151 9.50442C85.7709 9.69273 85.8263 9.87954 85.8816 10.0643C87.5043 15.4918 88.5776 21.5437 89.127 27.1452C89.7802 33.8043 89.6972 40.4821 89.6147 47.12C89.5871 49.3372 89.5596 51.5499 89.5596 53.7561C89.5596 54.3127 89.1083 54.764 88.5517 54.764C87.995 54.764 87.5437 54.3127 87.5437 53.7561C87.5437 51.4935 87.5716 49.2454 87.5994 47.0076C87.6813 40.3993 87.7621 33.8804 87.1208 27.3419C86.5814 21.8425 85.5288 15.9215 83.9502 10.6418C83.9001 10.4742 83.8505 10.3075 83.8012 10.142C83.16 7.98678 82.5742 6.01781 81.5849 4.52246C81.0682 3.74151 80.4618 3.12698 79.7107 2.70306C78.9624 2.28073 78.0144 2.01585 76.765 2.01585Z" fill="#3A2D14"/>
<path fill-rule="evenodd" clip-rule="evenodd" d="M96.3685 96.2368C97.0458 96.2461 97.7141 96.2552 98.3692 96.2552C104.794 96.2552 112.231 96.8894 118.484 98.8581C123.395 100.404 128.125 102.107 131.446 106.658C132.312 107.844 133.128 109.011 133.934 110.163C135.469 112.359 136.968 114.502 138.703 116.627C144.71 123.985 150.683 132.34 155.08 140.876C155.107 140.929 155.135 140.982 155.163 141.037C155.791 142.254 156.648 143.914 157.06 145.619C157.495 147.416 157.485 149.473 156.008 151.162C154.838 152.499 153.448 153.013 152.042 153.191C151.11 153.309 150.082 153.281 149.133 153.255C148.749 153.244 148.377 153.234 148.03 153.234C141.888 153.234 134.919 150.416 129.805 147.874C122.933 144.458 116.758 139.857 110.85 134.983C108.459 133.009 106.127 131.006 103.81 129.015C100.36 126.051 96.9449 123.117 93.4162 120.354C88.3218 116.366 82.5686 111.352 79.7655 105.008C79.7393 104.949 79.6618 104.818 79.4978 104.601C79.3426 104.396 79.1456 104.16 78.9179 103.894C78.8126 103.771 78.7001 103.642 78.5837 103.508C78.4937 103.404 78.4015 103.298 78.3085 103.19C78.2517 103.139 78.1999 103.081 78.1545 103.015C78.1494 103.008 78.1442 103 78.1389 102.993C78.0817 102.926 78.0246 102.859 77.968 102.791C77.9047 102.725 77.8315 102.653 77.7443 102.568C77.6766 102.502 77.6005 102.427 77.5141 102.341C77.2668 102.093 76.8311 101.647 76.6897 101.042C76.6764 100.985 76.6659 100.928 76.6582 100.872C76.578 100.677 76.5143 100.462 76.4934 100.237C76.4504 99.7738 76.5974 99.2396 77.0942 98.8858C77.367 98.6914 77.6824 98.6005 77.9881 98.5621C78.4412 98.2319 79.0179 97.8953 79.7265 97.5398C80.6848 97.0591 81.6729 96.9777 82.4985 96.9498C82.7009 96.943 82.8897 96.939 83.0677 96.9351C83.6753 96.9221 84.1566 96.9118 84.6237 96.8024C85.4922 96.5992 86.3862 96.574 87.1863 96.5661C87.3075 96.5649 87.4261 96.5641 87.5427 96.5633C88.2308 96.5585 88.8434 96.5543 89.4323 96.4768C91.7356 96.1738 94.1019 96.206 96.3685 96.2368ZM78.8535 100.453C78.992 100.386 79.1128 100.288 79.2071 100.168C79.5196 99.9444 79.9758 99.6701 80.6304 99.3417C81.1791 99.0665 81.7972 98.9905 82.5666 98.9645C82.7007 98.96 82.8442 98.9573 82.9945 98.9544C83.6302 98.9423 84.3885 98.9278 85.0831 98.7652C85.7136 98.6177 86.4089 98.5897 87.2062 98.5819C87.3138 98.5808 87.4238 98.5802 87.5359 98.5795C88.2166 98.5753 88.9712 98.5707 89.6953 98.4754C91.8398 98.1933 94.0049 98.2222 96.2416 98.2522C96.9433 98.2615 97.6519 98.271 98.3692 98.271C104.697 98.271 111.903 98.8995 117.879 100.781C122.799 102.33 126.924 103.88 129.818 107.846C130.632 108.962 131.425 110.095 132.221 111.233C133.786 113.469 135.363 115.723 137.142 117.902C143.098 125.199 148.978 133.433 153.288 141.799L153.338 141.897C153.989 143.158 154.747 144.629 155.101 146.093C155.461 147.578 155.356 148.845 154.491 149.834C153.726 150.708 152.842 151.058 151.789 151.191C151.016 151.289 150.244 151.267 149.374 151.242C148.953 151.231 148.508 151.218 148.03 151.218C142.388 151.218 135.78 148.592 130.702 146.068C124.035 142.755 118 138.268 112.133 133.428C109.813 131.514 107.504 129.53 105.191 127.543C101.701 124.546 98.2056 121.543 94.6588 118.767C89.5634 114.778 84.1891 110.032 81.6093 104.194C81.4854 103.913 81.2912 103.631 81.1059 103.386C80.9117 103.129 80.6814 102.854 80.4479 102.581C80.3235 102.436 80.1983 102.292 80.0742 102.149C79.9488 102.005 79.8245 101.862 79.7031 101.72C79.6368 101.636 79.5659 101.553 79.4943 101.474C79.3442 101.296 79.2005 101.12 79.0672 100.947C78.952 100.798 78.8523 100.661 78.7688 100.537C78.7757 100.53 78.7831 100.522 78.7908 100.514C78.8101 100.494 78.8309 100.474 78.8535 100.453Z" fill="#3A2D14"/>
<path d="M71.5276 110.536L75.9792 107.848H101.345H107.897L110.585 113.224V119.271L104.201 124.899L94.3739 128.93H83.1187L74.9713 124.899L69.5957 119.271V114.819L71.5276 110.536Z" fill="#EFEBD2"/>
<path fill-rule="evenodd" clip-rule="evenodd" d="M75.9559 107.764H107.949L110.669 113.204V119.309L104.246 124.971L94.3905 129.014H83.0991L74.9208 124.967L69.5117 119.305V114.801L71.4618 110.477L75.9559 107.764ZM76.0026 107.932L71.5934 110.594L69.6797 114.837V119.237L75.0218 124.83L83.1384 128.846H94.3573L104.156 124.826L110.501 119.233V113.243L107.845 107.932H76.0026Z" fill="black"/>
<path fill-rule="evenodd" clip-rule="evenodd" d="M80.9639 106.084C81.1173 106.084 81.2754 106.084 81.4384 106.084C81.995 106.084 82.4463 106.535 82.4463 107.092C82.4463 107.649 81.9951 108.1 81.4384 108.1C81.3071 108.1 81.1797 108.1 81.056 108.1C79.2062 108.1 78.191 108.099 77.4485 108.184C76.7411 108.265 76.3152 108.419 75.6029 108.803C74.1062 109.609 73.3785 110.065 72.4436 111.277C71.6536 112.301 70.9115 113.387 70.502 114.504C70.1022 115.595 70.0382 116.659 70.5258 117.72C73.0732 123.264 79.7241 127.643 85.9654 127.785C91.9587 127.921 98.9237 126.16 104.471 123.705C106.746 122.698 108.24 121.2 109.096 119.387C109.959 117.56 110.208 115.336 109.846 112.841C109.847 112.843 109.846 112.842 109.845 112.838C109.839 112.817 109.81 112.715 109.723 112.515C109.631 112.304 109.5 112.04 109.336 111.745C109.007 111.154 108.573 110.484 108.12 109.919C107.7 109.397 107.339 109.059 107.088 108.904C106.809 109.319 106.26 109.472 105.801 109.243C105.303 108.994 105.101 108.388 105.35 107.891C105.57 107.45 105.928 107.046 106.47 106.883C106.993 106.725 107.482 106.854 107.844 107.024C108.536 107.35 109.181 108.022 109.692 108.657C110.228 109.326 110.725 110.094 111.098 110.766C111.285 111.102 111.448 111.426 111.572 111.711C111.685 111.971 111.801 112.277 111.841 112.552C112.245 115.335 111.991 117.978 110.919 120.248C109.84 122.533 107.969 124.361 105.287 125.548C99.5447 128.09 92.2826 129.945 85.9196 129.8C78.9151 129.641 71.5664 124.813 68.694 118.562C67.9275 116.893 68.079 115.257 68.6093 113.811C69.1301 112.39 70.0328 111.101 70.8475 110.045C72.0391 108.501 73.0598 107.883 74.6472 107.028L75.1251 107.915L74.6472 107.028C75.5237 106.556 76.1966 106.298 77.2198 106.181C78.0824 106.083 79.2167 106.083 80.9639 106.084ZM106.926 108.825C106.926 108.825 106.927 108.825 106.929 108.826C106.927 108.825 106.926 108.825 106.926 108.825Z" fill="#3A2D14"/>
<path d="M88.6136 123.561L93.1141 120.615L112.181 119.523L119.319 121.287L121.588 125.834V130.95L116.199 135.71L107.902 139.12L98.1538 139.598H91.7702L86.9826 137.485L85.4707 130.95L86.9826 127.184L88.6136 123.561Z" fill="#EFEBD2"/>
<path fill-rule="evenodd" clip-rule="evenodd" d="M103.149 118.404C103.5 118.407 103.841 118.411 104.169 118.411C106.534 118.411 109.286 118.427 111.968 118.799C114.645 119.17 117.337 119.906 119.551 121.4C121.059 122.418 122.048 123.639 122.55 124.99C123.051 126.341 123.037 127.74 122.674 129.064C121.957 131.678 119.871 134.068 117.438 135.588C113.138 138.276 107.666 140.26 102.615 140.778C102.471 140.793 102.322 140.808 102.168 140.824C100.238 141.024 97.6304 141.294 95.0808 141.264C92.3764 141.231 89.4962 140.864 87.5471 139.515C84.4013 137.337 83.9006 133.915 84.5636 130.757C85.2218 127.622 87.0468 124.533 88.9018 122.562C89.8028 121.605 90.9981 121.088 92.0808 120.699C92.4411 120.57 92.783 120.457 93.1097 120.348C93.8372 120.106 94.4895 119.889 95.1026 119.582C96.5468 118.86 98.1425 118.578 99.6864 118.467C100.848 118.383 102.043 118.394 103.149 118.404ZM99.8312 120.478C98.4122 120.58 97.1135 120.831 96.0041 121.385C95.2554 121.76 94.3848 122.05 93.5991 122.311C93.3041 122.41 93.0212 122.504 92.7611 122.597C91.7283 122.967 90.9238 123.355 90.3697 123.944C88.7315 125.685 87.108 128.449 86.5364 131.171C85.9697 133.871 86.4581 136.309 88.6945 137.858C90.1072 138.836 92.4434 139.216 95.1048 139.248C97.5324 139.277 100.03 139.018 101.974 138.817C102.122 138.802 102.268 138.787 102.41 138.772C107.129 138.288 112.308 136.417 116.37 133.879C118.496 132.549 120.181 130.532 120.73 128.531C121 127.547 120.992 126.586 120.66 125.692C120.329 124.8 119.644 123.895 118.423 123.071C116.57 121.82 114.221 121.147 111.691 120.796C109.165 120.446 106.542 120.426 104.169 120.426C103.801 120.426 103.435 120.423 103.069 120.42C101.982 120.41 100.904 120.4 99.8312 120.478Z" fill="#3A2D14"/>
<path fill-rule="evenodd" clip-rule="evenodd" d="M78.8589 109.586C79.9425 109.141 81.0711 109.435 82.1028 110.322C83.4852 111.512 84.0873 113.44 84.0725 115.217C84.0578 116.992 83.424 118.908 81.9647 120.028C80.784 120.935 79.0993 121.363 77.58 121.172C76.0269 120.977 74.4716 120.095 73.9425 118.225C73.7357 117.495 73.9457 116.661 74.1907 115.99C74.4557 115.265 74.8573 114.485 75.2914 113.751C75.8978 112.726 76.6131 111.715 77.2059 110.984C77.6354 110.394 78.178 109.866 78.8589 109.586ZM79.1305 114.324C79.1308 114.323 79.1321 114.328 79.1335 114.339C79.1309 114.33 79.1302 114.324 79.1305 114.324Z" fill="#3A2D14"/>
<path fill-rule="evenodd" clip-rule="evenodd" d="M94.3201 123.357C95.5734 123.469 96.5451 124.415 97.2222 125.854C97.7965 127.074 97.7889 128.703 97.5268 130.208C97.2585 131.748 96.6902 133.352 95.9437 134.623C95.5703 135.258 95.1339 135.842 94.6404 136.294C94.1521 136.741 93.5483 137.113 92.8477 137.203C91.2863 137.405 90.121 136.201 89.3286 134.407C89.1706 134.049 89.1296 133.605 89.1203 133.233C89.11 132.824 89.1369 132.35 89.194 131.85C89.2599 131.272 89.369 130.636 89.5202 129.994C89.4875 129.291 89.5781 128.582 89.7487 127.917C90.0499 126.745 90.6252 125.613 91.3671 124.771C92.0858 123.956 93.1176 123.249 94.3201 123.357Z" fill="#3A2D14"/>
<path d="M15.3002 56.8891C14.8019 58.0209 14.9121 59.191 15.4048 60.4318C17.0265 64.5159 21.7525 66.9258 25.3464 68.9531C28.7215 70.857 32.2698 71.7334 36.0454 72.4564C38.0673 72.8435 40.0295 72.8226 42.2134 72.8226C44.3301 71.7307 44.2265 71.4496 44.8745 70.2077C45.8522 68.3339 46.3872 66.6425 44.3301 65.6629C40.5631 63.8691 36.7016 61.2962 33.5837 58.5381C31.2081 56.4367 28.009 50.0824 24.2812 50.9163C21.3723 51.5669 17.244 54.2433 15.3002 56.8891Z" fill="#97C2DC"/>
<path fill-rule="evenodd" clip-rule="evenodd" d="M32.444 55.7194C33.1461 56.61 33.737 57.3278 34.2518 57.7831C37.3009 60.4804 41.0838 63.0005 44.7637 64.7529C45.3927 65.0524 45.9022 65.4439 46.2513 65.9517C46.6065 66.4684 46.7476 67.0357 46.7485 67.5984C46.7501 68.6523 46.2539 69.7432 45.7684 70.6738C45.6933 70.8177 45.6286 70.9487 45.5656 71.0767L45.5523 71.1037C45.4952 71.2198 45.4358 71.3406 45.3757 71.4551C45.2416 71.7105 45.0843 71.9737 44.8504 72.2385C44.3951 72.7541 43.7402 73.1691 42.6757 73.7183L42.4583 73.8304H42.2136C42.0978 73.8304 41.9822 73.8305 41.8669 73.8306C39.8339 73.8318 37.876 73.833 35.8561 73.4462C32.0558 72.7185 28.3745 71.8183 24.8514 69.8309C24.6108 69.6952 24.363 69.5567 24.1096 69.415C22.5039 68.5172 20.6737 67.4939 19.0339 66.2719C17.1308 64.8535 15.3773 63.0932 14.4683 60.8037C14.0278 59.6943 13.8256 58.5433 14.081 57.3873C14.0376 57.1409 14.0853 56.878 14.235 56.6534C14.2963 56.5616 14.3596 56.4701 14.425 56.3791C14.8635 55.441 15.6108 54.5875 16.6584 53.7928C16.7994 53.6859 16.9594 53.6217 17.1229 53.5982C17.6824 53.1415 18.273 52.7096 18.874 52.3131C20.5737 51.1917 22.4475 50.2936 24.0615 49.9326C25.3191 49.6512 26.4821 49.9959 27.4881 50.5931C28.4804 51.1822 29.3848 52.0531 30.191 52.9544C30.8728 53.7166 31.5243 54.5473 32.1191 55.3057C32.2294 55.4464 32.3378 55.5846 32.444 55.7194ZM16.182 57.3928C17.0658 56.2236 18.4499 55.0079 19.9841 53.9957C21.5618 52.9548 23.2066 52.1895 24.5015 51.8998C25.1077 51.7642 25.7425 51.9012 26.459 52.3265C27.1893 52.76 27.9321 53.4527 28.6885 54.2984C29.3229 55.0075 29.9275 55.7783 30.5233 56.5376C30.6361 56.6814 30.7486 56.8248 30.8609 56.9673C31.5433 57.8331 32.2431 58.6976 32.9161 59.293C36.1028 62.1119 40.0429 64.7376 43.897 66.5729C44.2965 66.7631 44.4916 66.9504 44.5901 67.0937C44.6826 67.2283 44.7323 67.3846 44.7326 67.6014C44.7334 68.1065 44.4732 68.7982 43.9811 69.7414C43.8942 69.908 43.8204 70.0575 43.7568 70.1867L43.7473 70.2061C43.6864 70.3299 43.6381 70.428 43.5908 70.518C43.496 70.6988 43.4253 70.8069 43.3395 70.9041C43.1686 71.0976 42.853 71.3456 41.9662 71.8146C41.9528 71.8146 41.9394 71.8146 41.926 71.8147C39.8411 71.8154 38.0611 71.816 36.2352 71.4663C32.4843 70.7481 29.069 69.8956 25.8419 68.0752C25.5904 67.9333 25.3355 67.7907 25.0784 67.6469C23.4658 66.7445 21.7637 65.7921 20.2386 64.6555C18.4748 63.3411 17.0544 61.8544 16.3418 60.0597C15.9291 59.0202 15.8722 58.172 16.182 57.3928Z" fill="#3A2D14"/>
<path d="M54.2953 76.4236C54.3946 76.4994 54.59 76.5895 54.9115 76.6698C57.0965 77.2161 57.5474 77.1247 59.5747 78.0901C62.0913 79.2885 62.1175 79.5448 62.4625 76.6698C62.5925 75.5861 64.3257 72.3187 63.1489 71.5097C62.1439 70.8187 55.5507 68.101 55.5507 70.0895C55.5507 71.5602 55.1489 71.5097 54.9115 73.8306C54.7675 75.2388 54.4462 75.6116 54.3224 76.2532C54.3119 76.3078 54.3028 76.3643 54.2953 76.4236Z" fill="#97C3DC"/>
<path fill-rule="evenodd" clip-rule="evenodd" d="M61.9296 69.788C62.6883 70.1086 63.3749 70.442 63.7195 70.679C64.4173 71.1587 64.5626 71.9333 64.5639 72.5025C64.5652 73.0855 64.4221 73.7144 64.2641 74.2648C64.1295 74.7337 63.9639 75.2104 63.8219 75.6195C63.7944 75.6985 63.7679 75.7749 63.7426 75.8483C63.5684 76.354 63.4797 76.6486 63.4628 76.7898C63.3794 77.4848 63.3062 78.0804 63.1971 78.5172C63.1039 78.8903 62.8934 79.5689 62.2064 79.8433C61.8805 79.9735 61.5659 79.9598 61.328 79.9179C61.0933 79.8765 60.8633 79.7949 60.6578 79.7111C60.372 79.5944 60.0166 79.4224 59.6204 79.2307C59.4662 79.1561 59.3058 79.0785 59.1409 78.9999C57.7633 78.3439 57.2371 78.229 56.1863 77.9995C55.8378 77.9234 55.4315 77.8347 54.9174 77.7094C54.9116 77.7081 54.9059 77.7067 54.9002 77.7052C54.8634 77.6963 54.826 77.6871 54.7881 77.6777C54.6371 77.7679 54.4607 77.8197 54.2721 77.8197C53.7154 77.8197 53.2641 77.3684 53.2641 76.8117C53.2641 76.7627 53.2649 76.7146 53.2664 76.6673C53.2113 76.511 53.1787 76.3075 53.2328 76.0744C53.2724 75.9039 53.3466 75.7659 53.4349 75.6561C53.4832 75.496 53.5363 75.3455 53.5818 75.2165C53.608 75.1421 53.6317 75.0748 53.6506 75.0171C53.7437 74.731 53.8442 74.3559 53.9084 73.7279C54.0349 72.4913 54.2097 71.8638 54.3496 71.3675L54.3538 71.3529C54.4706 70.9387 54.5423 70.6843 54.5423 70.0893C54.5423 69.5037 54.8154 69.002 55.2988 68.6979C55.7078 68.4407 56.1851 68.3761 56.5738 68.3675C57.3685 68.3499 58.3465 68.5622 59.2546 68.827C60.1869 69.0988 61.1426 69.4555 61.9296 69.788ZM55.6393 75.8091C55.6063 75.7811 55.5728 75.7539 55.5389 75.7275C55.548 75.7003 55.5575 75.6716 55.5673 75.6414C55.7017 75.2286 55.834 74.7132 55.9138 73.933C56.0238 72.8577 56.1671 72.3495 56.2868 71.9253L56.2898 71.9147C56.4138 71.4749 56.5274 71.0684 56.5529 70.3854C56.5729 70.3842 56.5948 70.3834 56.6185 70.3828C57.0914 70.3724 57.8245 70.5098 58.6903 70.7623C59.532 71.0077 60.413 71.3357 61.145 71.6449C61.8418 71.9394 62.3321 72.1869 62.5306 72.3098C62.5385 72.3424 62.5478 72.4036 62.548 72.507C62.5487 72.798 62.471 73.2053 62.3265 73.7085C62.2086 74.1194 62.0645 74.5345 61.9225 74.9439C61.8937 75.0268 61.865 75.1094 61.8367 75.1917C61.6861 75.6287 61.5094 76.1489 61.4613 76.5496C61.3937 77.1125 61.3433 77.5076 61.2916 77.7905C61.0951 77.7046 60.8642 77.5929 60.5701 77.4505C60.4044 77.3703 60.2186 77.2804 60.0076 77.1799C58.4102 76.4193 57.6546 76.2543 56.5177 76.0061C56.2511 75.9479 55.9636 75.8852 55.6393 75.8091ZM61.1865 78.1987C61.1864 78.1982 61.1886 78.1928 61.1938 78.1837C61.1892 78.1946 61.1867 78.1991 61.1865 78.1987ZM61.6794 77.9329C61.6806 77.933 61.6812 77.9331 61.6812 77.9331C61.6812 77.9331 61.6807 77.9331 61.6794 77.9329ZM62.5197 72.2782C62.5199 72.2779 62.5217 72.2808 62.5244 72.2881C62.5207 72.2822 62.5194 72.2786 62.5197 72.2782Z" fill="#3A2D14"/>
<path d="M66.6279 80.2204C66.9996 81.3353 70.4246 81.412 71.4436 81.4512C72.805 81.5036 74.4525 81.4512 75.7647 81.4512C76.7824 81.4512 76.6102 79.0952 76.7352 78.2822C76.844 77.575 76.9467 75.8843 76.3328 75.2022C75.6003 74.3883 72.065 74.5439 70.9833 74.2554C70.6026 74.1539 68.3992 73.6737 68.1679 73.3267C67.4801 73.3267 67.673 75.2117 67.4801 75.9833C67.128 77.3914 66.9129 78.7957 66.6279 80.2204Z" fill="#97C3DC"/>
<path fill-rule="evenodd" clip-rule="evenodd" d="M66.8721 73.233C67.0185 72.8946 67.3995 72.3186 68.1677 72.3186H68.7071L68.9075 72.6191C68.9364 72.6319 68.9727 72.6471 69.0174 72.6645C69.2168 72.7422 69.4889 72.8275 69.7918 72.9126C70.2205 73.0329 70.5831 73.1201 70.8641 73.1877C71.0146 73.2238 71.1416 73.2544 71.2428 73.2814C71.4089 73.3257 71.7392 73.3656 72.2509 73.4056C72.4226 73.419 72.6153 73.4325 72.8181 73.4468C73.1595 73.4707 73.5298 73.4967 73.8783 73.5277C74.4447 73.5781 75.0455 73.6488 75.567 73.7694C75.8287 73.8299 76.0963 73.9087 76.3423 74.0168C76.5803 74.1214 76.8579 74.279 77.0818 74.5278C77.6366 75.1442 77.7719 76.0503 77.8108 76.6695C77.8538 77.3535 77.7941 78.0271 77.7313 78.4353C77.7117 78.5624 77.7013 78.7654 77.6849 79.0838C77.6834 79.1124 77.6819 79.1418 77.6804 79.1723C77.6631 79.5065 77.6394 79.9192 77.5821 80.3156C77.5275 80.6937 77.4294 81.1605 77.2104 81.5573C76.9722 81.9889 76.5081 82.459 75.7646 82.459C75.366 82.459 74.9218 82.4643 74.457 82.4698C73.4524 82.4817 72.3513 82.4947 71.4047 82.4583C71.3632 82.4567 71.3168 82.455 71.2659 82.4532C70.7152 82.4333 69.6435 82.3946 68.6349 82.2345C68.0876 82.1477 67.5003 82.0168 67.0012 81.8058C66.5499 81.6149 65.9084 81.2496 65.6716 80.539L65.5869 80.285L65.6394 80.0226C65.7263 79.5882 65.8089 79.1415 65.8929 78.6879C66.0723 77.7182 66.2575 76.7172 66.5021 75.7388C66.5255 75.6448 66.546 75.4686 66.5665 75.1728C66.5708 75.1116 66.575 75.0452 66.5795 74.9755C66.5939 74.7516 66.6105 74.4927 66.6362 74.2563C66.6687 73.9586 66.7264 73.5699 66.8721 73.233ZM68.8319 72.5824C68.8079 72.569 68.8117 72.5684 68.8319 72.5825C68.8319 72.5825 68.8319 72.5824 68.8319 72.5824ZM68.5775 75.3123C68.5585 75.587 68.5307 75.9358 68.4577 76.2277C68.228 77.1465 68.0629 78.0403 67.8905 78.9739C67.8333 79.2831 67.7754 79.5966 67.7141 79.9169C67.7356 79.927 67.7596 79.9378 67.7862 79.9491C68.0657 80.0672 68.468 80.167 68.9508 80.2436C69.8308 80.3832 70.7836 80.4182 71.3425 80.4387C71.3923 80.4405 71.439 80.4422 71.4822 80.4439C72.3789 80.4784 73.384 80.4663 74.3602 80.4546C74.7476 80.45 75.1304 80.4454 75.5001 80.4438C75.5291 80.3489 75.5602 80.2126 75.587 80.0273C75.6295 79.733 75.6498 79.4043 75.6672 79.0681C75.669 79.0329 75.6708 78.9967 75.6727 78.9598C75.6866 78.6821 75.7025 78.3654 75.7389 78.1288C75.7849 77.8297 75.8309 77.3045 75.7989 76.7959C75.7657 76.2667 75.6607 75.9872 75.5982 75.8955C75.5859 75.8884 75.5646 75.8769 75.5314 75.8624C75.4396 75.822 75.3024 75.7772 75.1128 75.7334C74.7316 75.6452 74.2436 75.5841 73.6994 75.5356C73.362 75.5056 73.037 75.4829 72.7151 75.4604C72.5076 75.4459 72.3013 75.4315 72.0938 75.4153C71.6155 75.3779 71.0982 75.3291 70.7234 75.2292C70.702 75.2235 70.6414 75.2088 70.5534 75.1875C70.2699 75.1188 69.7022 74.9812 69.247 74.8534C69.0408 74.7955 68.826 74.7316 68.6222 74.6636C68.6114 74.7924 68.6028 74.9256 68.5937 75.0672C68.5887 75.146 68.5834 75.2275 68.5775 75.3123Z" fill="#3A2D14"/>
<path d="M89.334 77.2743L81.9425 76.1824L80.5146 82.3979L81.3546 82.9019L88.4101 83.9938L89.334 77.2743Z" fill="#97C3DC"/>
<path fill-rule="evenodd" clip-rule="evenodd" d="M90.2092 76.2825C90.2982 76.36 90.448 76.512 90.535 76.7512C90.7447 77.3278 90.7548 77.9413 90.7 78.4921C90.6447 79.049 90.5138 79.6221 90.3778 80.1501C90.3135 80.3994 90.2524 80.6238 90.1938 80.8387C90.1178 81.1178 90.046 81.381 89.9774 81.6622C89.8617 82.1367 89.796 82.5096 89.7907 82.7952C89.7895 82.8608 89.7885 82.9275 89.7876 82.9947C89.7836 83.2689 89.7795 83.5502 89.7586 83.7844C89.7339 84.0617 89.6743 84.4872 89.4046 84.8525C89.0855 85.2845 88.6277 85.4424 88.2169 85.4799C87.8429 85.5142 87.4203 85.4592 86.9848 85.3763C86.2023 85.2272 85.4186 85.0462 84.661 84.8711C84.3197 84.7922 83.9837 84.7146 83.6555 84.6417C83.2518 84.552 82.6449 84.4421 82.0073 84.3267C81.6865 84.2686 81.3579 84.2092 81.0434 84.1501C80.5938 84.0657 80.1636 83.9803 79.8667 83.9045C79.747 83.8739 79.5465 83.8207 79.3827 83.7375C79.3368 83.7142 79.2454 83.6649 79.1501 83.5823C79.0815 83.5228 78.8354 83.2985 78.7963 82.9033C78.7749 82.6865 78.8207 82.5048 78.8923 82.3593C79.1182 81.285 79.4181 80.2343 79.7129 79.2184C79.7344 79.1443 79.7559 79.0704 79.7773 78.9966C80.073 77.9787 80.3585 76.9959 80.5796 76.0012C80.6579 75.6487 80.8856 75.4458 81.0151 75.3547C81.1478 75.2612 81.2778 75.2122 81.3575 75.1863C81.5207 75.1333 81.6919 75.109 81.8268 75.095C82.111 75.0657 82.4712 75.0608 82.855 75.069C83.6342 75.0858 84.6449 75.1604 85.6451 75.2664C86.6453 75.3723 87.6626 75.5126 88.4541 75.6656C88.8454 75.7412 89.2101 75.8253 89.4982 75.9182C89.6385 75.9635 89.7977 76.0224 89.9433 76.1008C90.0162 76.1401 90.1131 76.1988 90.2092 76.2825ZM81.019 82.0928C81.1418 82.117 81.2745 82.1424 81.4154 82.1689C81.6912 82.2207 81.9964 82.2759 82.3051 82.3319C82.9692 82.4521 83.6501 82.5754 84.0928 82.6738C84.4567 82.7547 84.8117 82.8368 85.1624 82.9178C85.8997 83.0883 86.6182 83.2544 87.362 83.3961C87.5285 83.4278 87.659 83.4476 87.7603 83.4594C87.7661 83.3375 87.7682 83.1945 87.771 83.0126C87.7722 82.9352 87.7735 82.8507 87.7752 82.7579C87.7848 82.2409 87.8956 81.6906 88.019 81.1845C88.0889 80.8979 88.1776 80.5711 88.2628 80.257C88.321 80.0421 88.3777 79.8331 88.4257 79.6469C88.5555 79.1434 88.6545 78.6913 88.6941 78.2928C88.7139 78.0932 88.7167 77.9259 88.7068 77.7865C88.5431 77.7428 88.3303 77.6948 88.0716 77.6448C87.356 77.5065 86.3998 77.3735 85.4327 77.271C84.4656 77.1685 83.5151 77.0995 82.8116 77.0844C82.6544 77.081 82.5157 77.0805 82.3961 77.0824C82.1891 77.921 81.9495 78.7456 81.7168 79.5465C81.6941 79.6246 81.6714 79.7025 81.6489 79.7802C81.4208 80.5661 81.2023 81.331 81.019 82.0928ZM88.0449 83.4711C88.045 83.4711 88.0446 83.4711 88.0438 83.4713C88.0445 83.4711 88.0449 83.4711 88.0449 83.4711Z" fill="#3A2D14"/>
<path d="M102.606 78.8585L94.7213 77.7783L93.1982 83.927L94.0942 84.4256L101.62 85.5058L102.606 78.8585Z" fill="#97C3DC"/>
<path fill-rule="evenodd" clip-rule="evenodd" d="M94.0542 77.4428C94.437 77.1611 94.8898 77.0225 95.3811 77.0225C96.1955 77.0225 98.2939 77.1774 100.146 77.5439C101.063 77.7252 102.002 77.9737 102.706 78.3208C103.052 78.4918 103.429 78.728 103.702 79.0651C104.006 79.4405 104.188 79.9591 104.027 80.5376C103.865 81.1235 103.647 81.7611 103.438 82.3754C103.338 82.6662 103.241 82.9518 103.152 83.2243C102.86 84.1178 102.635 84.9341 102.569 85.6613C102.539 85.9905 102.425 86.3098 102.206 86.5807C101.992 86.8462 101.723 87.0082 101.469 87.1049C100.995 87.286 100.47 87.2778 100.071 87.2402C99.6466 87.2002 99.219 87.1104 98.8733 87.0291C98.6905 86.9861 98.5476 86.9502 98.4301 86.9206C98.2938 86.8863 98.1916 86.8606 98.1007 86.8424C97.779 86.7781 97.4438 86.735 97.0909 86.7013C96.9465 86.6979 96.7656 86.6816 96.5668 86.6578C96.4023 86.6458 96.2339 86.6344 96.0613 86.6228C95.956 86.6157 95.8492 86.6085 95.7406 86.6009C94.8991 86.5424 93.9594 86.4631 93.0886 86.205C92.8821 86.1438 92.6428 86.0709 92.4891 85.9921C92.4605 85.9774 92.4114 85.951 92.3562 85.9124C92.3205 85.8874 92.1866 85.7937 92.077 85.6224C92.0166 85.5279 91.9343 85.3645 91.9194 85.1449C91.9029 84.9042 91.9732 84.6762 92.1008 84.4944C92.1219 84.4645 92.1438 84.4367 92.1662 84.411C92.1782 84.3897 92.1911 84.3688 92.2049 84.3481C92.3512 84.1287 92.4771 83.6945 92.5653 82.9772C92.617 82.5569 92.6463 82.1551 92.6774 81.7284C92.7004 81.4121 92.7244 81.0821 92.7593 80.7208C92.832 79.9689 92.9515 79.1146 93.2722 78.4321C93.4394 78.0761 93.6845 77.7148 94.0542 77.4428ZM92.9364 86.0744C92.9364 86.0744 92.9369 86.0744 92.9378 86.0745C92.9369 86.0745 92.9364 86.0744 92.9364 86.0744ZM96.7569 84.6502C96.5734 84.627 96.3368 84.5927 96.0544 84.5477C95.6172 84.4781 95.1312 84.3935 94.675 84.3141C94.5757 84.2968 94.4778 84.2797 94.3822 84.2631C94.4702 83.9117 94.5253 83.5548 94.5661 83.2233C94.6201 82.7838 94.6591 82.2644 94.6956 81.7777C94.7189 81.4668 94.7413 81.1693 94.7659 80.9146C94.8383 80.1644 94.9389 79.625 95.0966 79.2894C95.1686 79.1363 95.2272 79.0824 95.2489 79.0665C95.2492 79.0663 95.2495 79.0661 95.2498 79.0658C95.2592 79.0588 95.2866 79.0383 95.3811 79.0383C96.0626 79.0383 98.03 79.1801 99.7552 79.5214C100.627 79.6939 101.355 79.9021 101.814 80.1286C101.897 80.1696 101.963 80.2074 102.015 80.2409C101.881 80.6942 101.723 81.1565 101.556 81.6475C101.452 81.9519 101.344 82.2673 101.236 82.5984C100.961 83.4401 100.695 84.3514 100.586 85.2444C100.498 85.2486 100.39 85.2455 100.26 85.2333C99.9746 85.2063 99.6531 85.1416 99.3348 85.0668C99.2332 85.0429 99.1171 85.014 99.0012 84.9852C98.8105 84.9378 98.6203 84.8906 98.496 84.8657C98.0915 84.7848 97.6715 84.7316 97.2563 84.6922C97.246 84.6911 97.2357 84.6901 97.2253 84.6893C97.0681 84.6746 96.9115 84.6618 96.7569 84.6502Z" fill="#3A2D14"/>
<path fill-rule="evenodd" clip-rule="evenodd" d="M115.561 81.0416C115.899 81.3573 116.227 81.8793 116.093 82.5483C115.998 83.0206 115.973 83.536 115.95 84.115C115.949 84.1426 115.948 84.1704 115.947 84.1984C115.926 84.7196 115.902 85.3237 115.788 85.8602C115.665 86.4385 115.405 87.104 114.776 87.5584C114.152 88.0095 113.359 88.1127 112.484 88.0155C111.69 87.9272 110.908 87.7649 110.182 87.614C110.037 87.5839 109.894 87.5543 109.754 87.5258C108.891 87.3501 108.091 87.2097 107.283 87.1932H106.678C106.354 87.1932 106.182 87.1925 106.124 87.1915C106.117 87.1914 106.102 87.1911 106.085 87.1904C106.08 87.1902 106.072 87.1898 106.062 87.1891L106.062 87.1891C106.055 87.1887 106.031 87.1871 106 87.1833C105.988 87.1818 105.949 87.1767 105.898 87.1651C105.87 87.1581 105.798 87.1362 105.754 87.1199C105.674 87.0839 105.442 86.9238 105.313 86.779C105.166 86.4635 105.215 85.8778 105.364 85.5653C105.295 85.2973 105.311 85.0316 105.344 84.8021C105.394 84.4571 105.515 83.9949 105.717 83.3546L105.743 83.2702L105.784 83.1916C105.971 82.8326 106.033 82.5159 106.077 82.1152C106.084 82.046 106.092 81.9699 106.099 81.888C106.134 81.5189 106.179 81.032 106.324 80.5251C106.459 80.0537 106.839 79.8466 106.975 79.7801C107.155 79.6927 107.345 79.6432 107.5 79.6118C107.82 79.547 108.213 79.5168 108.622 79.5075C109.451 79.4884 110.506 79.5521 111.534 79.6911C112.551 79.8286 113.612 80.0491 114.424 80.3709C114.822 80.5285 115.241 80.7414 115.561 81.0416ZM107.473 85.1819C108.42 85.2154 109.32 85.3804 110.156 85.5504C110.313 85.5823 110.467 85.6143 110.619 85.6457C111.344 85.7959 112.015 85.9352 112.707 86.012C113.327 86.0809 113.539 85.9653 113.595 85.9246C113.647 85.8873 113.742 85.7879 113.817 85.4401C113.893 85.0792 113.912 84.6322 113.936 84.0345C113.955 83.5551 113.978 82.9921 114.067 82.4295C113.984 82.3792 113.859 82.3155 113.681 82.245C113.091 82.0111 112.216 81.8175 111.263 81.6887C110.322 81.5614 109.374 81.5065 108.668 81.5228C108.468 81.5274 108.3 81.5374 108.164 81.5507C108.144 81.6908 108.13 81.8358 108.115 82.0002C108.105 82.1026 108.094 82.2126 108.081 82.3334C108.027 82.8245 107.933 83.3961 107.614 84.0395C107.465 84.5194 107.389 84.8155 107.355 84.9967C107.375 85.0232 107.395 85.0519 107.414 85.0826C107.435 85.1152 107.455 85.1483 107.473 85.1819ZM107.159 84.7767C107.159 84.7767 107.161 84.7783 107.163 84.7812C107.16 84.7781 107.159 84.7766 107.159 84.7767ZM107.331 85.162C107.331 85.1652 107.331 85.1668 107.331 85.1669C107.331 85.1669 107.331 85.1654 107.331 85.162Z" fill="#3A2D14"/>
<path fill-rule="evenodd" clip-rule="evenodd" d="M123.451 80.9925C123.841 81.0253 124.182 81.054 124.528 81.054C124.697 81.054 125.027 81.0898 125.34 81.1274C125.686 81.1689 126.108 81.2251 126.518 81.2848C126.926 81.3442 127.332 81.4086 127.642 81.4669C127.793 81.4954 127.941 81.5261 128.061 81.5578C128.115 81.572 128.2 81.5959 128.286 81.6316C128.323 81.6469 128.413 81.6856 128.511 81.7552C128.56 81.7901 128.649 81.8594 128.734 81.9704C128.819 82.0824 128.942 82.2943 128.942 82.5872C128.942 83.3674 128.93 84.9116 128.69 86.2767C128.572 86.9502 128.385 87.6686 128.061 88.244C127.736 88.8224 127.147 89.4534 126.208 89.4534C124.866 89.4534 123.558 89.0671 122.41 88.7283C122.387 88.7215 122.365 88.7148 122.342 88.7081C121.121 88.3479 120.068 88.0452 119.034 88.0452H117.658L118.073 86.7332C118.192 86.3581 118.3 85.8927 118.414 85.3671C118.439 85.2475 118.466 85.1245 118.492 84.9996C118.579 84.5934 118.67 84.1665 118.767 83.7707C118.893 83.2583 119.047 82.7243 119.253 82.2845C119.43 81.9066 119.783 81.2896 120.471 81.0929C121.214 80.8806 122.011 80.8926 122.685 80.9343C122.966 80.9516 123.217 80.9728 123.451 80.9925ZM121.152 82.9991C121.133 83.0297 121.108 83.075 121.078 83.1393C120.96 83.3916 120.844 83.7662 120.725 84.2521C120.636 84.6144 120.554 84.9973 120.469 85.3964C120.441 85.5269 120.413 85.6592 120.384 85.793C120.36 85.9056 120.335 86.0192 120.309 86.133C121.208 86.2713 122.069 86.5258 122.855 86.7578C122.874 86.7634 122.893 86.769 122.912 86.7747C124.121 87.1314 125.16 87.4311 126.175 87.4374C126.199 87.415 126.243 87.3637 126.304 87.2558C126.461 86.977 126.6 86.5238 126.705 85.9282C126.852 85.0901 126.902 84.144 126.919 83.3865C126.71 83.3518 126.473 83.3153 126.228 83.2796C125.833 83.2221 125.427 83.1682 125.1 83.1289C124.935 83.1092 124.794 83.0936 124.686 83.0831C124.595 83.0744 124.548 83.0713 124.533 83.0703C124.527 83.07 124.525 83.0699 124.528 83.0699C124.105 83.0699 123.609 83.029 123.159 82.9919C122.945 82.9742 122.741 82.9575 122.56 82.9463C121.99 82.911 121.525 82.9169 121.152 82.9991ZM127.56 83.5106C127.56 83.5106 127.559 83.5103 127.557 83.5097C127.559 83.5103 127.56 83.5106 127.56 83.5106ZM126.152 87.4526C126.151 87.4513 126.157 87.4469 126.168 87.4432C126.157 87.4521 126.152 87.4539 126.152 87.4526ZM121.189 82.9455C121.191 82.9437 121.192 82.9429 121.192 82.9429C121.192 82.943 121.191 82.9439 121.189 82.9455Z" fill="#3A2D14"/>
<path fill-rule="evenodd" clip-rule="evenodd" d="M59.2217 32.0921C58.6995 32.156 58.0905 32.2305 57.4435 32.2305C57.0057 32.2305 56.4469 32.203 55.8518 32.1737C55.5562 32.1591 55.2516 32.1441 54.9486 32.1318C54.8555 32.1281 54.7619 32.1245 54.6679 32.1212C55.4607 32.3939 56.2076 32.9452 56.4916 33.8918C57.0032 35.5972 57.1494 37.5409 55.9674 39.3487C55.8295 39.5596 55.6624 39.7636 55.4595 39.9318C55.8288 40.1233 56.2009 40.2736 56.6266 40.3709C56.723 40.393 56.8209 40.4157 56.92 40.4386C57.8101 40.6446 58.7966 40.8729 59.7058 40.8818C60.7138 40.8916 61.2881 40.6329 61.5805 40.1066C61.9309 39.4759 62.4328 38.9428 62.8221 38.5292C62.9059 38.4403 62.9845 38.3568 63.0552 38.2791C63.5001 37.7903 63.7531 37.426 63.8403 36.9899C63.9311 36.5359 63.8465 35.8283 63.5857 35.0276C63.3315 34.2468 62.9581 33.5249 62.6258 33.0819C62.2637 32.5991 61.9329 32.3426 61.6386 32.1975C61.3439 32.0523 61.0235 31.9879 60.634 31.9796C60.2265 31.971 59.7896 32.0227 59.2403 32.0899L59.2217 32.0921ZM51.9393 32.1604C51.0232 32.24 50.2277 32.4039 49.6223 32.6803C49.0131 32.9584 48.6611 33.3168 48.5017 33.7773C48.4376 33.9625 48.3949 34.2795 48.4065 34.7373C48.4177 35.1801 48.4775 35.688 48.5691 36.2164C48.7504 37.262 49.0426 38.3107 49.2555 38.9531C49.2661 38.9655 49.2944 38.9946 49.3559 39.0368C49.4797 39.122 49.6702 39.2128 49.9236 39.2974C50.3172 39.4288 50.7602 39.5122 51.1128 39.5603C50.9256 39.3177 50.7844 39.0542 50.6776 38.8155C50.4316 38.266 50.2682 37.6223 50.17 36.9994C50.071 36.3715 50.0314 35.7212 50.0547 35.1411C50.0765 34.5957 50.1576 33.9885 50.3835 33.526C50.7199 32.8371 51.3014 32.404 51.9393 32.1604ZM52.2776 40.3976C52.6491 40.5867 52.9854 40.7973 53.3553 41.0289C53.4968 41.1175 53.6433 41.2092 53.7984 41.3039C54.4527 41.7034 55.2027 42.1133 56.1774 42.3361C56.2683 42.3569 56.3648 42.3794 56.4661 42.403C57.3279 42.6039 58.5394 42.8864 59.6862 42.8975C60.9703 42.91 62.5119 42.581 63.3427 41.0856C63.5598 40.6948 63.8467 40.3878 64.2194 39.9888C64.3217 39.8794 64.4304 39.763 64.546 39.636C65.037 39.0966 65.6163 38.3888 65.817 37.3852C66.0077 36.4319 65.8049 35.3321 65.5025 34.4034C65.1935 33.4546 64.7279 32.525 64.2385 31.8724C63.7226 31.1846 63.158 30.699 62.5299 30.3894C61.9021 30.08 61.2731 29.977 60.677 29.9643C60.1124 29.9522 59.5413 30.0221 59.0323 30.0844L58.9956 30.0889C58.4543 30.1551 57.9569 30.2147 57.4435 30.2147C57.054 30.2147 56.5817 30.1913 56.0253 30.1637C55.7191 30.1485 55.3875 30.1321 55.0302 30.1176C54.0587 30.0782 52.9555 30.0573 51.8837 30.1423C50.8217 30.2264 49.7216 30.419 48.7852 30.8465C47.8299 31.2826 46.9857 31.9944 46.5968 33.1179C46.4178 33.6349 46.3771 34.2303 46.3913 34.7883C46.4058 35.3613 46.4809 35.9728 46.5829 36.5608C46.7866 37.7358 47.1115 38.8958 47.3505 39.6129C47.5202 40.1221 47.882 40.4698 48.2139 40.698C48.5498 40.9289 48.9329 41.0918 49.2852 41.2095C49.9909 41.4451 50.7438 41.5545 51.1889 41.599C51.7428 41.6544 52.2367 41.2503 52.2921 40.6964C52.3023 40.5939 52.2969 40.4935 52.2776 40.3976Z" fill="#3A2D14"/>
<path d="M47.3369 33.5137L48.2608 39.2252L61.8678 41.4091L64.8916 37.2094L63.1278 32.5897L58.9281 31.4138H49.4368L47.3369 33.5137Z" fill="#EFEBD2"/>
<path fill-rule="evenodd" clip-rule="evenodd" d="M57.5912 31.7283C56.4038 31.7926 54.9749 31.8698 54.2465 31.9386C53.9605 31.9655 53.6782 31.9904 53.3992 32.015C52.29 32.1129 51.2317 32.2062 50.1962 32.4087C49.7422 32.4974 49.4271 32.6322 49.204 32.8017C48.9939 32.9615 48.8136 33.1908 48.6864 33.5685C48.3193 34.6586 48.5039 35.9912 48.7394 37.4376C48.7513 37.5109 48.7623 37.5817 48.7731 37.6507C48.808 37.8742 48.8398 38.0783 48.889 38.2849C48.9543 38.5591 49.0227 38.704 49.0687 38.7653C49.4325 39.2505 49.8583 39.544 50.1585 39.5726C50.7126 39.6254 51.1191 40.1174 51.0663 40.6716C51.0135 41.2257 50.5215 41.6322 49.9673 41.5794C48.8022 41.4684 47.9234 40.598 47.456 39.9748C47.1601 39.5803 47.0139 39.1126 46.928 38.7519C46.8582 38.4589 46.8101 38.1486 46.7741 37.9163C46.7653 37.8596 46.7572 37.8075 46.7497 37.7615L46.7427 37.7184C46.5248 36.3806 46.2274 34.5542 46.776 32.9251C47.021 32.1974 47.4266 31.6206 47.9843 31.1968C48.529 30.7827 49.1636 30.5565 49.8093 30.4303C50.9597 30.2054 52.152 30.1006 53.2707 30.0024C53.5375 29.9789 53.8002 29.9559 54.0571 29.9316C54.8288 29.8588 56.2966 29.7795 57.4652 29.7164C57.5625 29.7111 57.6578 29.706 57.7504 29.7009C58.1071 29.6816 58.4224 29.6642 58.6709 29.6494C58.7803 29.6087 58.8987 29.5864 59.0223 29.5864C59.127 29.5864 59.2137 29.5872 59.2804 29.5889C59.3128 29.5898 59.3492 29.5911 59.3843 29.5935C59.4016 29.5946 59.4268 29.5966 59.4554 29.6L59.4563 29.6001C59.4743 29.6023 59.5412 29.6103 59.6211 29.6328L59.6215 29.633C59.6517 29.6415 59.7666 29.674 59.8932 29.7551C59.9692 29.8038 60.4617 30.1439 60.3409 30.7901C60.2914 31.055 60.1515 31.228 60.0671 31.3135C59.9805 31.4013 59.8965 31.4539 59.8505 31.4803C59.759 31.5328 59.6799 31.5587 59.6521 31.5676C59.5543 31.5987 59.4626 31.6101 59.4506 31.6116C59.4501 31.6117 59.4497 31.6117 59.4495 31.6117C59.3906 31.6196 59.3191 31.6258 59.2549 31.6309C58.9857 31.6521 58.4624 31.6811 57.8595 31.7138C57.7718 31.7186 57.6822 31.7234 57.5912 31.7283Z" fill="#3A2D14"/>
<path fill-rule="evenodd" clip-rule="evenodd" d="M51.8313 40.9179C51.488 40.994 51.123 40.9323 50.8127 40.7083C50.5094 40.4894 50.3557 40.1833 50.2762 39.9883C50.1098 39.5807 50.0387 39.0699 50.0013 38.65C49.9349 37.9046 49.9501 37.0737 49.9559 36.7593C49.9568 36.7065 49.9575 36.6682 49.9575 36.6474C49.9575 35.0508 50.0506 33.4277 50.4315 31.795C50.4393 31.7618 50.4909 31.5517 50.5497 31.3466C50.5781 31.2474 50.6151 31.1247 50.6547 31.019C50.6717 30.9733 50.7051 30.8871 50.7544 30.7991C50.7748 30.7628 50.8326 30.6619 50.9334 30.5605C50.9848 30.5089 51.3642 30.1329 51.9372 30.2966C52.3159 30.4048 52.508 30.6792 52.5712 30.7777C52.5736 30.7814 52.576 30.7852 52.5784 30.789C53.0919 30.783 53.5353 31.1685 53.5912 31.6895C53.6253 32.0079 53.6968 32.3378 53.787 32.7169C53.8006 32.7742 53.8148 32.8332 53.8293 32.8935C53.9062 33.2131 53.9924 33.5713 54.0535 33.9287C54.227 34.9438 54.2714 36.0577 54.1809 37.0834C54.091 38.1029 53.535 38.9932 53.1545 39.6025C53.1213 39.6557 53.0894 39.7068 53.0592 39.7556C53.0455 39.7778 53.0291 39.8086 52.9906 39.8828L52.9867 39.8904C52.972 39.9186 52.9537 39.954 52.9324 39.9933C52.8922 40.5131 52.4577 40.9224 51.9275 40.9224C51.8951 40.9224 51.863 40.9209 51.8313 40.9179ZM50.824 31.7695C50.8242 31.77 50.8244 31.7706 50.8245 31.7712C50.823 31.767 50.8229 31.7662 50.824 31.7695Z" fill="#3A2D14"/>
<path fill-rule="evenodd" clip-rule="evenodd" d="M59.3235 29.4062C59.8802 29.4062 60.3314 29.8575 60.3314 30.4142C60.3314 31.1237 60.3029 31.8419 60.2332 32.5595C60.1459 33.4574 60.1009 34.3636 60.0579 35.2951C60.0549 35.3606 60.0518 35.4262 60.0488 35.492C60.0092 36.3539 59.9685 37.2385 59.8936 38.1225C59.8673 38.4327 59.8254 38.754 59.787 39.0484C59.7746 39.1441 59.7625 39.2369 59.7514 39.3256C59.7038 39.7067 59.67 40.0455 59.67 40.3658C59.67 40.382 59.6703 40.4011 59.6705 40.4226C59.6729 40.6032 59.6774 40.9581 59.5582 41.3159C59.3821 41.844 58.8113 42.1294 58.2832 41.9533C57.7551 41.7773 57.4697 41.2065 57.6457 40.6784C57.6455 40.6792 57.6455 40.6793 57.6458 40.6784C57.6466 40.6755 57.6498 40.6613 57.652 40.6252C57.6535 40.6004 57.6544 40.5694 57.6545 40.525C57.6546 40.5029 57.6546 40.4797 57.6544 40.4526L57.6544 40.4415C57.6543 40.4182 57.6542 40.3921 57.6542 40.3658C57.6542 39.9149 57.7014 39.4739 57.7511 39.0758C57.7652 38.9627 57.7792 38.8548 57.7929 38.7503C57.8295 38.469 57.8628 38.2132 57.8849 37.9523C57.9564 37.1088 57.9954 36.2614 58.0355 35.3914C58.0384 35.3284 58.0413 35.2653 58.0442 35.202C58.0871 34.273 58.1339 33.3195 58.2268 32.3644C58.2892 31.7225 58.3156 31.0705 58.3156 30.4142C58.3156 29.8575 58.7669 29.4062 59.3235 29.4062Z" fill="#3A2D14"/>
<path fill-rule="evenodd" clip-rule="evenodd" d="M52.8861 31.0969C52.7718 31.0748 52.6569 31.058 52.542 31.0473C52.1893 31.0145 51.7431 31.0019 51.3046 31.1972C50.8454 31.4018 50.556 31.7589 50.3416 32.1061C49.8212 32.9492 49.3485 33.9479 49.0724 34.9411C48.8361 35.7909 48.8579 36.6788 48.8749 37.374C48.8763 37.43 48.8776 37.4848 48.8788 37.5382C48.9035 38.6615 49.5946 39.2684 50.1568 39.6794C50.9629 40.2686 51.9839 40.539 52.9442 40.3738C53.0366 40.3579 53.1282 40.3379 53.2186 40.3139C53.2284 40.3207 53.2384 40.3274 53.2484 40.334C53.3369 40.3927 53.5641 40.5415 53.8299 40.6398C53.9626 40.6888 54.165 40.7486 54.4014 40.7476C54.6542 40.7465 54.9914 40.6727 55.274 40.4018C55.5249 40.1614 55.6523 39.8639 55.7153 39.6981C55.7744 39.5428 55.8203 39.3784 55.8456 39.2881C55.8497 39.2733 55.8533 39.2604 55.8563 39.25C56.1478 38.2316 56.2813 37.1734 56.322 36.1602C56.371 34.9392 56.3636 33.0468 54.7632 31.9186C54.7166 31.8858 54.6685 31.8531 54.6189 31.8207C54.6258 31.5173 54.4962 31.2142 54.2409 31.01C53.8309 30.682 53.2433 30.726 52.8861 31.0969ZM52.2193 38.3969C52.2103 38.315 52.204 38.237 52.1994 38.164C52.1676 37.6597 52.2099 37.096 52.2382 36.719C52.2464 36.6089 52.2535 36.5147 52.2572 36.4426C52.2833 35.9291 52.3435 35.4221 52.399 34.9539C52.4058 34.897 52.4124 34.8406 52.419 34.7849C52.4811 34.2567 52.5326 33.7725 52.5399 33.2916C52.5399 33.2918 52.5399 33.2919 52.5399 33.2919C52.5399 33.2919 52.5399 33.2868 52.5395 33.2753C52.5391 33.2626 52.5383 33.2456 52.5369 33.2236C52.5344 33.1838 52.5308 33.1375 52.5263 33.0806C52.4671 33.0684 52.4099 33.0596 52.3553 33.0545C52.2485 33.0446 52.1812 33.0432 52.1393 33.0448C52.1208 33.0681 52.0934 33.106 52.057 33.1649C51.6147 33.8815 51.23 34.7064 51.0146 35.4811C50.8616 36.0313 50.875 36.6352 50.8922 37.4082C50.8929 37.4366 50.8935 37.4651 50.8941 37.494C50.8966 37.6046 50.921 37.6544 50.9567 37.7044C51.012 37.7817 51.1173 37.8845 51.3465 38.052C51.6236 38.2546 51.9325 38.3664 52.2193 38.3969ZM52.1681 33.0124C52.1681 33.0125 52.1673 33.0132 52.1658 33.0144C52.1673 33.013 52.1681 33.0123 52.1681 33.0124Z" fill="#3A2D14"/>
<path fill-rule="evenodd" clip-rule="evenodd" d="M60.5622 32.5425C60.2404 32.5537 60.2404 32.5536 60.2404 32.5536L60.2401 32.5442L60.2394 32.5205C60.2388 32.5002 60.2379 32.4713 60.237 32.4358C60.2351 32.3649 60.233 32.2666 60.2317 32.1569C60.2292 31.9507 60.229 31.6596 60.2464 31.4428C60.261 31.2607 60.2929 31.0832 60.315 30.961C60.3176 30.9465 60.32 30.9328 60.3223 30.9199C60.3475 30.7782 60.3585 30.7003 60.3606 30.6355C60.3607 30.6336 60.3607 30.6296 60.3608 30.6236C60.3616 30.5744 60.3646 30.3942 60.3832 30.2334C60.3938 30.1412 60.4145 30.0027 60.4623 29.8584C60.4953 29.7585 60.611 29.4264 60.9541 29.2119C61.1097 29.1147 61.332 29.0364 61.5941 29.0635C61.8298 29.0879 62.0057 29.1881 62.1177 29.2766C62.5323 29.1595 62.8596 29.3276 62.9846 29.4053C63.1266 29.4936 63.2261 29.5981 63.2799 29.6589C63.3935 29.7873 63.4861 29.9328 63.5464 30.0334C63.667 30.2345 63.7927 30.4907 63.7861 30.4781C63.9557 30.7996 63.9949 31.116 64.0093 31.3248C64.0156 31.4166 64.0181 31.5087 64.0199 31.576C64.0201 31.5847 64.0203 31.593 64.0205 31.6008C64.0227 31.6791 64.0247 31.7266 64.0284 31.7656C64.0352 31.8374 64.0406 31.9044 64.0458 31.9692C64.0557 32.0912 64.065 32.2055 64.0816 32.3302C64.1079 32.4041 64.1385 32.4839 64.1705 32.5675L64.1772 32.5849C64.1791 32.5899 64.1812 32.5954 64.1834 32.6012C64.21 32.6703 64.2558 32.7898 64.2808 32.8791C64.281 32.8797 64.2812 32.8804 64.2814 32.8812C64.2873 32.902 64.3119 32.9893 64.32 33.0971C64.3201 33.098 64.3202 33.0991 64.3203 33.1003C64.3233 33.1379 64.3387 33.3305 64.2516 33.5502C64.1988 33.6833 64.0808 33.8945 63.834 34.0433C63.5747 34.1996 63.3096 34.2055 63.1255 34.1708C62.845 34.118 62.6694 33.9593 62.6406 33.9333C62.6395 33.9323 62.6387 33.9315 62.638 33.9309C62.5832 33.8823 62.5446 33.8373 62.5259 33.8149C62.4499 33.8907 62.3584 33.9633 62.2484 34.0244C62.0408 34.1397 61.7627 34.2003 61.4677 34.1204C61.2035 34.0488 61.0358 33.894 60.9505 33.7974C60.8007 33.6279 60.7336 33.4437 60.7087 33.3704C60.4371 33.1982 60.2525 32.8992 60.2404 32.5536L60.5622 32.5425C60.5622 32.5425 60.5622 32.5425 60.5622 32.5425Z" fill="#EFEBD2"/>
<path fill-rule="evenodd" clip-rule="evenodd" d="M62.519 28.8594C62.9126 28.4658 63.5508 28.4658 63.9444 28.8594C65.1081 30.0231 66.2303 31.6894 66.6489 33.3862C66.9785 34.7222 67.1671 36.2137 67.0348 37.6549C66.9824 38.226 66.8154 38.7331 66.4566 39.1655C66.1218 39.569 65.6865 39.8226 65.2886 40.023C65.1831 40.0762 65.0782 40.1288 64.974 40.181C64.7581 40.5216 64.4907 40.8506 64.2071 41.0961C64.2063 41.0969 64.2007 41.102 64.1875 41.1147C64.1842 41.118 64.1787 41.1233 64.1719 41.1299C64.1557 41.1456 64.1324 41.1683 64.1145 41.1854C64.0578 41.2397 63.9629 41.3285 63.8489 41.4111C63.7467 41.4851 63.5477 41.6154 63.28 41.6673C63.0466 41.7126 62.7816 41.6922 62.5348 41.5727C62.5324 41.5729 62.5299 41.5731 62.5273 41.5733L62.5177 41.574C62.4941 41.5757 62.4631 41.5779 62.4334 41.5797C62.3993 41.5817 62.3531 41.5839 62.303 41.5839C62.357 41.5839 62.2015 41.5868 62.1122 41.5826C62.1111 41.5826 62.1098 41.5825 62.1083 41.5825C62.0743 41.581 61.9362 41.575 61.792 41.5317C61.7467 41.5182 61.6612 41.4896 61.5647 41.4335C61.4813 41.3851 61.2844 41.2562 61.1584 40.9965C61.0041 40.6784 61.0417 40.3474 61.1616 40.1044C61.2591 39.9066 61.3954 39.7923 61.4537 39.747C61.638 39.6036 61.8409 39.5021 61.9709 39.4396C62.047 39.403 62.1003 39.3784 62.1428 39.3589C62.1979 39.3334 62.2347 39.3164 62.2797 39.2925C62.6812 39.0783 63.0886 38.8713 63.4915 38.6689C63.5222 38.5858 63.5378 38.5215 63.542 38.4813C63.6786 37.1606 63.3745 35.6861 62.8824 34.3328C62.562 33.4516 62.1974 32.7691 61.6204 32.0872C61.2609 31.6623 61.3139 31.0263 61.7388 30.6667C62.0169 30.4314 62.3855 30.3728 62.7078 30.4796C62.6454 30.4132 62.5824 30.3483 62.519 30.2848C62.1254 29.8912 62.1254 29.253 62.519 28.8594Z" fill="#EFEBD2"/>
<path d="M8.7 90.7133L1.72852 79.9621C1.72852 76.0704 1.9973 68.2366 3.07242 68.035C4.41632 67.783 6.0122 72.6547 10.0439 77.6943C14.0756 82.7339 26.7587 84.7498 36.586 88.0255C46.4132 91.3013 83.2865 93.6531 88.4941 94.5771C92.6602 95.3162 123.436 97.3489 138.302 98.2728L166.776 101.129L153.673 106.504L138.302 109.78L98.4894 107.848L79.8428 106.504L51.3689 102.64L24.9948 98.0208L8.7 90.7133Z" fill="#598DCA"/>
<path fill-rule="evenodd" clip-rule="evenodd" d="M48.9458 42.4204C48.5487 42.4625 48.1487 42.5049 47.7455 42.5457C43.5986 42.965 40.3431 44.4102 36.6532 46.0482C35.8353 46.4113 34.996 46.7839 34.121 47.1568C32.3994 47.8906 30.6402 48.5545 28.9047 49.2094C28.3209 49.4297 27.7398 49.649 27.1637 49.8696C24.8591 50.752 22.6094 51.6644 20.462 52.7811C18.7616 53.6653 17.1988 54.8449 15.6493 56.1409C15.0408 56.6498 14.4165 57.1929 13.7858 57.7415C12.8588 58.5478 11.9179 59.3663 10.9927 60.1064C10.6596 60.3729 10.3402 60.6248 10.033 60.8671C7.94454 62.5138 6.41543 63.7196 4.94583 66.0778C3.40638 68.5481 2.09272 71.7035 2.02084 74.471C1.95775 76.8999 2.49744 79.2167 3.16863 81.6574C3.41288 82.5456 3.89075 83.2131 6.13204 86.0578C6.47654 86.4951 6.40135 87.1288 5.9641 87.4733C5.52684 87.8178 4.8931 87.7426 4.5486 87.3054L4.54015 87.2947C2.42004 84.6037 1.60301 83.5668 1.22493 82.1919C0.54757 79.7288 -0.065695 77.1662 0.00567043 74.4186C0.090744 71.1433 1.60392 67.6289 3.235 65.0116C4.90115 62.338 6.70785 60.9167 8.79946 59.2713C9.10457 59.0313 9.41575 58.7865 9.73344 58.5323C10.6472 57.8013 11.5117 57.0484 12.3984 56.2761C13.031 55.7251 13.6749 55.1643 14.356 54.5946C15.9449 53.2656 17.6389 51.977 19.5319 50.9926C21.7849 49.8211 24.122 48.8757 26.4428 47.987C27.0395 47.7585 27.6334 47.5344 28.2247 47.3113C29.9495 46.6604 31.6516 46.0181 33.3306 45.3024C34.1468 44.9545 34.9477 44.5982 35.7434 44.2442C39.4522 42.594 43.0467 40.9947 47.5426 40.5401C47.934 40.5005 48.3294 40.4581 48.7283 40.4154C51.8023 40.086 55.0855 39.7342 58.328 40.4649C59.6652 40.7663 60.9907 41.0956 62.3046 41.4238L62.5495 41.485C63.7838 41.7934 65.0079 42.0993 66.239 42.3834C78.0352 45.1056 88.1633 52.7538 97.2883 59.9234C97.6716 60.2246 98.1168 60.5599 98.5882 60.915C99.319 61.4655 100.113 62.0635 100.837 62.6555C102.06 63.6547 103.281 64.7862 104.108 66.0271C104.417 66.4903 104.292 67.1161 103.829 67.4248C103.366 67.7336 102.74 67.6085 102.431 67.1453C101.775 66.1614 100.745 65.1834 99.5617 64.2164C98.8445 63.6304 98.139 63.0999 97.4498 62.5819C96.9724 62.2229 96.5029 61.8699 96.0428 61.5085C86.8777 54.3073 77.0814 46.9543 65.7857 44.3476C64.5361 44.0592 63.2951 43.7492 62.0647 43.4417L61.8161 43.3796C60.5009 43.051 59.1965 42.727 57.8848 42.4315C54.9906 41.7792 52.0587 42.0902 48.9458 42.4204Z" fill="#3A2D14"/>
<path fill-rule="evenodd" clip-rule="evenodd" d="M101.375 64.9352C101.51 64.3951 102.057 64.0667 102.598 64.2017C103.175 64.346 104.654 64.49 106.327 64.6515L106.347 64.6534C107.919 64.8051 109.649 64.9721 110.531 65.1794C111.806 65.4794 113.081 65.7841 114.357 66.0887C117.988 66.9555 121.618 67.8223 125.23 68.5828C126.803 68.9139 128.404 69.2345 130.022 69.5587C141.3 71.818 153.429 74.2477 162.897 81.5778C164.735 83.0006 168.334 86.2105 170.667 89.714C171.828 91.4586 172.746 93.3795 172.89 95.2542C173.04 97.2122 172.334 99.0498 170.426 100.444C169.863 100.855 169.33 101.272 168.806 101.682C166.638 103.377 164.61 104.963 161.209 105.592C159.034 105.995 156.887 106.508 154.71 107.028C154.165 107.158 153.619 107.289 153.069 107.418C150.341 108.061 147.563 108.669 144.718 109.011C136.919 109.947 128.995 110.459 121.105 110.177C119.046 110.104 116.998 109.937 114.98 109.773C114.358 109.723 113.738 109.672 113.122 109.625C110.491 109.423 107.894 109.273 105.272 109.372C100.126 109.566 95.1714 109.644 89.9803 109.348C87.134 109.185 84.3526 108.736 81.6303 108.29L81.4507 108.261C78.7746 107.823 76.1554 107.394 73.4961 107.217C69.2377 106.933 64.9668 106.487 60.741 105.711C55.5066 104.75 50.274 104.091 44.9828 103.425C43.7395 103.268 42.4929 103.111 41.2424 102.95C36.4012 102.325 31.1378 100.845 26.5305 99.549L26.3991 99.512C25.9876 99.3963 25.5748 99.2818 25.161 99.167C21.6213 98.1853 18.0167 97.1856 14.6639 95.2485C14.3655 95.076 14.0684 94.9057 13.7729 94.7363C10.994 93.1434 8.34695 91.6259 5.92125 89.1104C5.43225 88.6033 4.2664 87.0807 3.25294 85.642C2.73797 84.9109 2.24124 84.1716 1.86942 83.5588C1.68457 83.2542 1.52045 82.9642 1.39921 82.7133C1.33881 82.5883 1.28119 82.4569 1.23672 82.3278C1.19882 82.2178 1.14062 82.0272 1.14062 81.8105C1.14062 81.2539 1.59189 80.8026 2.14855 80.8026C2.66422 80.8026 3.08944 81.1898 3.14927 81.6894C3.16077 81.7195 3.18116 81.7677 3.21431 81.8363C3.29563 82.0046 3.4228 82.2329 3.59285 82.5132C3.93082 83.0702 4.39829 83.7675 4.90098 84.4811C5.92284 85.9318 7.00611 87.3313 7.37235 87.7111C9.58869 90.0096 11.9883 91.387 14.7954 92.9984C15.0833 93.1637 15.3756 93.3315 15.6724 93.503C18.7891 95.3038 22.1392 96.2347 25.7107 97.2271C26.1192 97.3406 26.5306 97.4549 26.9449 97.5714L27.0018 97.5874C31.6596 98.8975 36.806 100.345 41.5003 100.951C42.7369 101.11 43.974 101.266 45.2115 101.422C50.507 102.088 55.8092 102.756 61.1052 103.728C65.2307 104.486 69.4198 104.925 73.6302 105.205C76.3873 105.389 79.09 105.832 81.7389 106.265L81.9558 106.301C84.6903 106.748 87.3706 107.179 90.0953 107.335C95.194 107.626 100.076 107.551 105.196 107.358C107.937 107.254 110.628 107.412 113.276 107.615C113.912 107.664 114.545 107.715 115.174 107.766C117.183 107.93 119.168 108.091 121.177 108.162C128.934 108.44 136.75 107.937 144.478 107.009C147.205 106.682 149.89 106.096 152.607 105.456C153.142 105.33 153.679 105.201 154.219 105.073C156.4 104.552 158.611 104.023 160.842 103.61C163.72 103.077 165.31 101.84 167.422 100.197C167.979 99.7634 168.573 99.3015 169.236 98.8168C170.562 97.8479 170.978 96.6943 170.88 95.4081C170.775 94.0386 170.074 92.4622 168.989 90.8312C166.826 87.5835 163.416 84.5289 161.663 83.1718C152.599 76.1544 140.985 73.8204 129.661 71.5446C128.037 71.2182 126.419 70.893 124.815 70.5554C121.174 69.7888 117.505 68.9128 113.867 68.0441C112.596 67.7407 111.329 67.4383 110.069 67.1417C109.353 66.9733 107.793 66.8182 106.133 66.658L105.939 66.6393C104.431 66.494 102.843 66.341 102.109 66.1574C101.569 66.0225 101.24 65.4753 101.375 64.9352ZM3.13797 81.6561C3.13813 81.6562 3.13923 81.6595 3.14082 81.6658C3.13862 81.6591 3.13782 81.656 3.13797 81.6561Z" fill="#3A2D14"/>
<path d="M77.0708 99.4488C76.3988 100.289 81.7745 106 81.7745 106L109.156 131.198L118.648 139.262L130.911 146.653C130.911 146.653 135.447 150.013 139.898 152.281C144.35 154.549 152.665 152.281 152.665 152.281L155.605 150.013V144.889L150.649 134.642L130.911 107.764C130.911 107.764 127.558 104.386 125.031 102.725C118.604 98.4967 105.965 97.7689 105.965 97.7689C105.965 97.7689 84.1262 97.433 82.3624 97.7689C80.5987 98.1049 77.7429 98.609 77.0708 99.4488Z" fill="#EFEBD2"/>
<path fill-rule="evenodd" clip-rule="evenodd" d="M83.9133 98.6798C83.1187 98.7037 82.6756 98.7352 82.5511 98.7589C82.4643 98.7755 82.3754 98.7923 82.2849 98.8095C81.4394 98.9697 80.4479 99.1576 79.5683 99.3933C79.0821 99.5237 78.6614 99.6607 78.3374 99.8025C78.2659 99.8338 78.2022 99.864 78.1459 99.8928C78.203 100.003 78.2789 100.136 78.3765 100.292C78.7508 100.889 79.3266 101.642 79.9494 102.399C80.5665 103.15 81.2067 103.878 81.6945 104.421C81.9379 104.691 82.1423 104.914 82.2855 105.069C82.3571 105.147 82.4134 105.208 82.4515 105.248C82.4647 105.263 82.4757 105.274 82.4844 105.284L109.824 130.443L119.238 138.441L131.472 145.815L131.511 145.843L131.511 145.844L131.513 145.845L131.522 145.852C131.53 145.858 131.543 145.867 131.559 145.879C131.592 145.903 131.642 145.939 131.706 145.986C131.836 146.08 132.028 146.218 132.272 146.391C132.76 146.737 133.458 147.222 134.293 147.777C135.969 148.891 138.179 150.274 140.356 151.383C142.298 152.372 145.228 152.41 147.843 152.129C149.12 151.992 150.265 151.785 151.091 151.613C151.503 151.527 151.834 151.45 152.061 151.395C152.118 151.381 152.169 151.368 152.213 151.357L154.597 149.518V145.12L149.782 135.164L130.144 108.422C130.121 108.399 130.09 108.369 130.053 108.332C129.959 108.239 129.82 108.103 129.646 107.934C129.298 107.597 128.808 107.13 128.24 106.612C127.093 105.567 125.671 104.352 124.478 103.567C121.446 101.572 116.854 100.36 112.91 99.6533C110.958 99.3034 109.203 99.0835 107.935 98.951C107.302 98.8849 106.792 98.8407 106.441 98.8132C106.266 98.7994 106.131 98.7898 106.04 98.7836C105.995 98.7806 105.961 98.7784 105.938 98.777L105.927 98.7763L105.704 98.7729C105.544 98.7706 105.309 98.7671 105.009 98.7628C104.409 98.7543 103.549 98.7425 102.512 98.7294C100.438 98.7032 97.6553 98.6717 94.8176 98.6507C91.9791 98.6297 89.0896 98.6193 86.8014 98.635C85.6567 98.6428 84.6678 98.6572 83.9133 98.6798ZM105.965 97.7688C106.023 96.7625 106.023 96.7626 106.023 96.7626L106.034 96.7632L106.064 96.7651C106.09 96.7667 106.127 96.7691 106.176 96.7724C106.274 96.779 106.417 96.7891 106.599 96.8035C106.965 96.8323 107.493 96.878 108.145 96.9461C109.448 97.0823 111.254 97.3085 113.266 97.6691C117.248 98.383 122.189 99.6486 125.585 101.882C126.918 102.759 128.437 104.064 129.598 105.123C130.184 105.657 130.689 106.138 131.049 106.486C131.229 106.66 131.372 106.801 131.471 106.899C131.52 106.948 131.559 106.986 131.585 107.013C131.598 107.026 131.608 107.036 131.615 107.043L131.625 107.053L131.626 107.054L131.626 107.054C131.626 107.054 131.626 107.054 130.911 107.764L131.626 107.054L131.679 107.107L151.517 134.12L156.613 144.658V150.508L153.123 153.201L152.931 153.253L152.665 152.281C152.931 153.253 152.93 153.253 152.93 153.253L152.929 153.254L152.928 153.254L152.922 153.256L152.901 153.261C152.883 153.266 152.857 153.273 152.824 153.281C152.757 153.299 152.661 153.323 152.538 153.353C152.292 153.413 151.939 153.495 151.502 153.586C150.63 153.768 149.418 153.987 148.059 154.133C145.404 154.419 141.95 154.457 139.441 153.179C137.166 152.02 134.883 150.589 133.177 149.456C132.323 148.888 131.608 148.391 131.107 148.036C130.856 147.859 130.658 147.716 130.523 147.618C130.455 147.569 130.403 147.53 130.367 147.504C130.361 147.5 130.356 147.496 130.351 147.492L118.058 140.083L108.489 131.954L81.0654 106.717L81.0406 106.691L81.7746 106C81.0406 106.691 81.0405 106.691 81.0405 106.691L81.0237 106.673C81.013 106.662 80.9974 106.645 80.9773 106.623C80.937 106.58 80.8784 106.517 80.8043 106.437C80.6561 106.276 80.4458 106.047 80.1958 105.769C79.6966 105.214 79.0349 104.461 78.3921 103.679C77.7549 102.904 77.1128 102.071 76.6682 101.362C76.4498 101.013 76.2483 100.646 76.1286 100.304C76.069 100.133 76.0119 99.9199 76.0055 99.6888C75.999 99.4561 76.0432 99.1198 76.284 98.8189C76.6105 98.4108 77.1039 98.1419 77.5291 97.9558C77.9847 97.7564 78.5142 97.5889 79.0464 97.4462C80.0039 97.1895 81.0717 96.9874 81.9068 96.8293C81.9988 96.8119 82.088 96.795 82.174 96.7787C82.4904 96.7184 83.1156 96.687 83.8529 96.6649C84.6302 96.6416 85.6369 96.6271 86.7876 96.6192C89.0902 96.6034 91.991 96.6139 94.8325 96.6349C97.675 96.6559 100.462 96.6875 102.538 96.7137C103.576 96.7268 104.436 96.7387 105.037 96.7472C105.338 96.7515 105.573 96.7549 105.734 96.7573L105.98 96.761C105.98 96.761 105.98 96.761 105.965 97.7688ZM105.965 97.7688L105.98 96.761L106.002 96.7613L106.023 96.7625L105.965 97.7688Z" fill="#3A2D14"/>
<path d="M151.276 100.716C151.318 100.989 151.389 101.262 151.484 101.534C151.871 102.655 152.638 103.76 153.213 104.767C155.048 107.978 159 109.861 162.089 111.56C165.249 113.298 168.344 114.729 171.865 115.584C173.585 116.002 178.506 116.304 179.014 113.69C179.747 109.917 173.321 104.52 170.587 102.849C167.903 101.209 164.534 100.404 161.45 99.8433C158.86 99.3722 156.278 99.3055 153.639 99.3935C152.992 99.4151 151.226 99.4 151.276 100.716Z" fill="#EFEBD2"/>
<path fill-rule="evenodd" clip-rule="evenodd" d="M153.606 98.386C156.281 98.2969 158.942 98.3625 161.631 98.8515C164.728 99.4146 168.258 100.245 171.113 101.989C172.558 102.872 174.922 104.699 176.845 106.801C177.807 107.854 178.691 109.009 179.289 110.182C179.881 111.342 180.247 112.627 180.003 113.883C179.809 114.88 179.186 115.57 178.439 116.014C177.717 116.444 176.85 116.665 176.026 116.773C174.379 116.99 172.593 116.798 171.628 116.563C167.984 115.679 164.801 114.202 161.604 112.443C161.3 112.276 160.983 112.105 160.657 111.929C159.368 111.232 157.937 110.458 156.617 109.566C154.955 108.442 153.365 107.064 152.338 105.267C152.219 105.058 152.079 104.828 151.931 104.582C151.451 103.789 150.873 102.834 150.542 101.896C150.391 101.531 150.294 101.169 150.272 100.815C150.244 100.616 150.229 100.412 150.229 100.205C150.229 99.8242 150.439 99.493 150.75 99.3214C150.764 99.3062 150.777 99.2911 150.791 99.2762C151.122 98.9142 151.541 98.7196 151.892 98.6084C152.506 98.4139 153.192 98.3966 153.516 98.3885C153.55 98.3876 153.58 98.3869 153.606 98.386ZM152.427 101.177C152.362 100.987 152.315 100.807 152.284 100.635C152.285 100.634 152.285 100.632 152.285 100.631C152.305 100.614 152.366 100.573 152.501 100.53C152.826 100.427 153.223 100.415 153.58 100.404C153.611 100.403 153.642 100.402 153.673 100.401C156.276 100.314 158.778 100.382 161.27 100.835C164.34 101.393 167.549 102.174 170.062 103.709C171.351 104.497 173.567 106.204 175.357 108.162C176.251 109.139 177.007 110.145 177.493 111.098C177.986 112.063 178.147 112.867 178.025 113.498C177.964 113.807 177.782 114.06 177.409 114.281C177.013 114.517 176.447 114.685 175.762 114.775C174.392 114.955 172.858 114.788 172.103 114.605C168.704 113.779 165.697 112.394 162.575 110.677C162.245 110.495 161.909 110.314 161.572 110.131C160.291 109.439 158.975 108.727 157.746 107.896C156.201 106.851 154.897 105.681 154.088 104.267C153.913 103.959 153.736 103.666 153.564 103.381C153.119 102.645 152.709 101.967 152.455 101.258C152.447 101.231 152.438 101.204 152.427 101.177ZM152.287 100.619C152.287 100.619 152.287 100.619 152.287 100.62C152.287 100.619 152.287 100.619 152.287 100.619Z" fill="#3A2D14"/>
<path d="M14.6672 47.9298L16.9842 45.9221L20.1971 46.3456L21.8281 47.8134L21.775 58.0221L17.7938 64.581L14.5809 64.1575L13.0192 60.434L13.8869 53.8503L14.6672 47.9298Z" fill="#EFEBD2"/>
<path fill-rule="evenodd" clip-rule="evenodd" d="M20.6981 45.6486C21.25 45.7213 21.6384 46.2277 21.5657 46.7796C21.489 47.3613 21.2524 47.8529 21.0287 48.2448C20.9248 48.4269 20.8132 48.6048 20.7142 48.7627C20.7065 48.7749 20.6989 48.787 20.6914 48.799C20.5824 48.9729 20.4882 49.1247 20.405 49.2747C20.1046 49.8158 19.8966 50.3642 19.7426 50.9575C19.9643 51.116 20.1792 51.2751 20.3862 51.4283C20.4495 51.4752 20.5122 51.5215 20.574 51.5671C20.6095 51.5933 20.6446 51.6192 20.6794 51.6449C21.0284 51.9026 21.3443 52.1358 21.6911 52.3642C21.6826 52.3587 21.682 52.3579 21.7873 52.417C21.8546 52.4548 21.9683 52.5194 22.0736 52.5938C22.1253 52.6304 22.2032 52.6889 22.2804 52.7665C22.3322 52.8185 22.5123 53.0018 22.5827 53.299C22.6243 53.4747 22.6288 53.6985 22.5365 53.9291C22.4464 54.1543 22.2971 54.3036 22.1706 54.3942C22.1031 54.4425 22.0349 54.4794 21.9702 54.5077C21.9863 54.7208 21.9678 54.8983 21.9613 54.961C21.9605 54.9692 21.9598 54.9755 21.9595 54.9796C21.9023 55.6711 21.7986 56.3825 21.7006 57.0547C21.6568 57.3555 21.6141 57.6484 21.5772 57.9282C21.5331 58.2629 21.4931 58.6139 21.452 58.9749C21.341 59.9496 21.2217 60.9975 20.9903 61.9943C20.9822 62.029 20.9761 62.072 20.9641 62.1567C20.9569 62.2071 20.9477 62.2724 20.9346 62.3595C20.9062 62.5496 20.8638 62.8042 20.7877 63.0633C20.6532 63.5221 20.2958 64.3783 19.317 64.5786L19.3106 64.58C19.2056 64.6015 19.0486 64.6336 18.9038 64.6428C18.8796 64.6443 18.8444 64.6462 18.8008 64.6459C18.7864 64.6751 18.7703 64.706 18.7571 64.729C18.706 64.8047 18.5233 64.9929 18.3803 65.0876C18.1056 65.1891 17.5286 65.141 17.2749 64.9958C17.1506 64.88 17.0022 64.6663 16.964 64.5838C16.9144 64.4622 16.9008 64.3571 16.8984 64.3385L16.8982 64.3366C16.8904 64.2791 16.8895 64.2324 16.8894 64.223L16.8893 64.2221C16.888 64.1577 16.8959 64.0424 16.9017 63.958C16.9023 63.9497 16.9029 63.9417 16.9034 63.9341C16.9333 63.4954 16.907 63.0269 16.8608 62.5045C16.849 62.3704 16.8354 62.2298 16.8215 62.0849C16.7839 61.6932 16.7433 61.271 16.725 60.8665C16.6735 59.7298 16.7152 58.5676 16.755 57.4563C16.7726 56.9667 16.7898 56.487 16.7985 56.0237C16.7991 55.9951 16.7959 55.9403 16.7864 55.798C16.7785 55.6792 16.7677 55.5146 16.7681 55.3448C16.7684 55.1786 16.779 54.9637 16.8304 54.7442C16.8803 54.5307 16.9888 54.2254 17.2503 53.9709C17.4264 53.7995 17.6195 53.7173 17.7297 53.6774C17.8475 53.6349 17.9594 53.6102 18.0289 53.5959C18.0636 53.5888 18.0979 53.5822 18.124 53.5773L18.1291 53.5763C18.1588 53.5706 18.1787 53.5668 18.1963 53.5631C18.2025 53.5618 18.2074 53.5607 18.2113 53.5599C18.2802 53.533 18.3504 53.5054 18.4218 53.4774C18.6993 53.3684 18.9961 53.2519 19.3095 53.1393C19.2656 53.1068 19.2221 53.0746 19.1788 53.0426C18.8361 52.7891 18.5129 52.5499 18.1727 52.3205C17.5108 51.8744 17.6153 51.14 17.6517 50.9482C17.6779 50.8105 17.7171 50.6896 17.7408 50.619C17.7657 50.5447 17.7709 50.53 17.7706 50.5324C17.9625 49.7693 18.2339 49.0324 18.6424 48.2964C18.7551 48.0934 18.8762 47.8993 18.9834 47.7284C18.9893 47.719 18.9951 47.7096 19.001 47.7004C19.1052 47.5341 19.1956 47.3899 19.2779 47.2457C19.4519 46.9407 19.5407 46.7165 19.5671 46.5162C19.6399 45.9643 20.1462 45.5759 20.6981 45.6486ZM21.3419 52.6058C21.3498 52.6046 21.3544 52.604 21.3554 52.6039L21.3556 52.6039C21.3511 52.6046 21.3465 52.6052 21.3419 52.6058Z" fill="#3A2D14"/>
<path fill-rule="evenodd" clip-rule="evenodd" d="M17.6498 44.5393C17.8811 44.4853 18.1864 44.4375 18.5382 44.4839C18.6747 44.5019 18.8013 44.5464 18.9133 44.6116C19.9485 44.723 20.9211 45.0412 21.732 45.5036C22.9569 46.2021 24.0198 47.3678 24.0404 48.8362C24.0676 50.7813 23.9087 52.721 23.6818 54.6025C23.5022 56.0919 23.2987 57.5774 23.0952 59.0534C22.9588 60.0427 22.7967 61.0438 22.5856 62.0386C22.4033 62.8976 22.0064 63.7218 21.2533 64.4331C20.4674 65.1753 19.3158 65.5384 18.2065 65.6282C17.0783 65.7195 15.8394 65.5427 14.7775 65.0402C13.6721 64.517 13.0774 63.7488 12.7812 62.8992C12.5611 62.2679 12.5141 61.5798 12.4806 61.0904C12.474 60.9931 12.4679 60.9035 12.461 60.8239C12.3446 59.4678 12.2986 58.1438 12.4078 56.7659C12.488 55.7556 12.6341 54.7329 12.7747 53.7491C12.8316 53.3514 12.8875 52.96 12.9378 52.5784C12.9791 52.2646 13.0147 51.908 13.0523 51.5309C13.1239 50.8124 13.2029 50.0192 13.3438 49.305C13.574 48.1384 13.9994 46.9246 14.9404 45.8412L15.7013 46.5021L14.9404 45.8412C15.3923 45.3208 16.0772 44.9987 16.6994 44.8012C16.8288 44.7107 16.9815 44.6493 17.149 44.6278C17.2416 44.616 17.3343 44.6059 17.4267 44.5976C17.4932 44.5788 17.5698 44.558 17.6498 44.5393ZM17.7835 46.5925C17.7339 46.6064 17.6802 46.6208 17.6259 46.6341C16.998 46.7878 16.597 47.0079 16.4623 47.163C15.8299 47.8912 15.5111 48.7343 15.3215 49.6952C15.1957 50.3331 15.1379 50.9284 15.076 51.5667C15.037 51.9676 14.9965 52.3856 14.9364 52.8418C14.8797 53.2714 14.8199 53.6901 14.7609 54.1023C14.6241 55.059 14.4923 55.9813 14.4174 56.9253C14.3198 58.1556 14.3587 59.3612 14.4695 60.6515C14.4818 60.7945 14.4915 60.9273 14.5007 61.0519C14.5356 61.5265 14.5618 61.8833 14.6846 62.2355C14.8073 62.5874 15.0342 62.9314 15.6399 63.218C16.3383 63.5486 17.2158 63.686 18.0439 63.6189C18.8909 63.5504 19.5355 63.2826 19.8692 62.9675C20.288 62.572 20.5053 62.1307 20.6137 61.6201C20.8116 60.6875 20.9661 59.737 21.0983 58.7781C21.3019 57.3011 21.5031 55.8314 21.6804 54.3611C21.9015 52.5276 22.0502 50.6855 22.0247 48.8644C22.0184 48.4111 21.6542 47.7798 20.7334 47.2547C19.9394 46.8019 18.8819 46.5299 17.7835 46.5925Z" fill="#3A2D14"/>
<path fill-rule="evenodd" clip-rule="evenodd" d="M22.4983 51.6467C22.5981 50.8726 22.6613 50.0558 22.5561 49.1748C22.502 48.7212 22.4175 48.2422 22.2762 47.7595C22.2556 47.6893 22.1918 47.52 22.1333 47.3881C22.1073 47.3294 22.0508 47.2042 21.9731 47.0902C21.9506 47.0572 21.9142 47.007 21.864 46.9528C21.8225 46.9079 21.7224 46.8058 21.5641 46.726C21.3912 46.6389 21.0585 46.5401 20.6895 46.7041C20.3572 46.8518 20.2156 47.1192 20.1658 47.2337C20.0795 47.432 19.9989 47.6309 19.9236 47.8165C19.921 47.823 19.9183 47.8295 19.9157 47.8361C19.8365 48.0313 19.7628 48.2127 19.6851 48.39C19.6506 48.4685 19.6081 48.5567 19.5532 48.6694C19.5498 48.6765 19.5463 48.6836 19.5428 48.6908C19.493 48.7931 19.4347 48.9128 19.3786 49.0363C19.2608 49.2958 19.124 49.6323 19.0577 50.001C18.9898 50.3795 18.9879 50.8384 19.1922 51.3022C19.3986 51.7708 19.7661 52.1326 20.2361 52.4015C20.8151 52.7327 20.9784 52.915 21.1309 53.233C21.1325 53.2477 21.1361 53.3011 21.1167 53.421C21.1019 53.5124 21.0806 53.6069 21.0511 53.7372L21.048 53.7511C21.0204 53.8732 20.9826 54.0403 20.9604 54.2092C20.8876 54.7611 21.2761 55.2675 21.828 55.3402C22.3799 55.413 22.8862 55.0245 22.9589 54.4726C22.9674 54.4085 22.9843 54.3281 23.0144 54.1949C23.0165 54.1856 23.0186 54.176 23.0209 54.1661C23.047 54.051 23.0815 53.8987 23.1067 53.743C23.1601 53.4129 23.2036 52.9001 22.9588 52.3829C22.8238 52.0977 22.672 51.8576 22.4983 51.6467Z" fill="#3A2D14"/>
<path d="M29.8514 55.7902L32.4678 54.0465L35.8039 54.8258L37.3834 56.4704L36.3983 66.6411L31.6198 72.7367L28.2837 71.9573L26.9823 68.0719L28.4929 61.6054L29.8514 55.7902Z" fill="#EFEBD2"/>
<path fill-rule="evenodd" clip-rule="evenodd" d="M36.3943 54.1868C36.9364 54.3134 37.2732 54.8555 37.1466 55.3976C37.0106 55.9795 36.7125 56.4494 36.4416 56.8156C36.3155 56.9861 36.1818 57.1515 36.0635 57.2978C36.0543 57.3091 36.0452 57.3204 36.0362 57.3315C35.9058 57.4928 35.7935 57.6331 35.693 57.7726C35.3346 58.2699 35.07 58.7835 34.857 59.346C35.077 59.5299 35.29 59.7139 35.4956 59.8914C35.558 59.9453 35.6196 59.9986 35.6806 60.0511C35.7156 60.0812 35.7502 60.111 35.7844 60.1405C36.1273 60.436 36.4394 60.7049 36.7846 60.9725C36.7794 60.9685 36.7838 60.971 36.8858 61.0394C36.9528 61.0844 37.0631 61.1593 37.1634 61.2423C37.2125 61.2829 37.2859 61.3471 37.3569 61.4296L37.3571 61.4298C37.4018 61.4817 37.5745 61.6823 37.6223 61.9916C37.6511 62.178 37.635 62.4138 37.5108 62.6451C37.3909 62.8684 37.217 63.0004 37.0822 63.0732C37.0092 63.1127 36.9367 63.1407 36.8689 63.1608C36.864 63.3689 36.8297 63.5368 36.8178 63.5954C36.8162 63.6032 36.815 63.609 36.8143 63.6128C36.691 64.2976 36.5165 64.9984 36.3522 65.6584C36.279 65.9529 36.2077 66.2392 36.1439 66.5124C36.0675 66.839 35.9939 67.1832 35.918 67.5378C35.7125 68.498 35.4907 69.5345 35.1557 70.5057C35.1449 70.5372 35.1353 70.5762 35.1159 70.6558C35.1038 70.7053 35.0878 70.7705 35.0654 70.8593C35.018 71.0463 34.9495 71.2984 34.8446 71.5518C34.6516 72.018 34.1916 72.8137 33.1855 72.901L33.1811 72.9014C33.0672 72.9113 32.9053 72.9254 32.7596 72.9188C32.7281 72.9174 32.6783 72.9147 32.6163 72.9056C32.5962 72.937 32.573 72.9715 32.5546 72.9961C32.4931 73.067 32.2866 73.233 32.1329 73.3092C31.8595 73.3747 31.3142 73.2735 31.0841 73.1157C30.9698 72.9924 30.8373 72.7686 30.8047 72.682C30.7628 72.5525 30.7578 72.4428 30.7569 72.4226L30.7568 72.4206C30.7538 72.3597 30.7573 72.3108 30.758 72.3009L30.758 72.2999C30.7627 72.2329 30.782 72.1159 30.7956 72.0334C30.797 72.0251 30.7983 72.0171 30.7996 72.0095C30.8701 71.58 30.8852 71.1135 30.8843 70.588C30.8841 70.4538 30.8827 70.3126 30.8812 70.167C30.8773 69.772 30.8731 69.3445 30.8907 68.9379C30.9403 67.7968 31.0903 66.639 31.2335 65.5347C31.2964 65.0492 31.358 64.574 31.4091 64.1151C31.4091 64.1151 31.4093 64.1136 31.4095 64.1103C31.4098 64.1071 31.4101 64.1026 31.4105 64.0967C31.4113 64.0846 31.412 64.0689 31.4128 64.0486C31.4142 64.0107 31.415 63.9691 31.4161 63.9153L31.4166 63.8932C31.4191 63.774 31.4228 63.6071 31.4388 63.4358C31.4545 63.2683 31.4857 63.0504 31.5616 62.8314C31.6364 62.6159 31.7824 62.3183 32.0811 62.093C32.278 61.9445 32.4813 61.8868 32.5933 61.861C32.7151 61.833 32.8299 61.8214 32.9027 61.815C32.9391 61.8118 32.975 61.8091 33.003 61.8071L33.0083 61.8067C33.0399 61.8043 33.062 61.8027 33.0818 61.8009C33.0929 61.7998 33.1009 61.799 33.1061 61.7984C33.1826 61.7788 33.2605 61.7587 33.3398 61.7383C33.6354 61.662 33.9499 61.5809 34.2801 61.5052C34.2433 61.4735 34.2068 61.442 34.1706 61.4107C33.8337 61.1198 33.5145 60.8442 33.1765 60.5766C32.5436 60.0754 32.7064 59.3517 32.7692 59.141C32.8103 59.0028 32.8638 58.8839 32.8953 58.8157C32.9259 58.7496 32.9339 58.7327 32.9342 58.7332C33.2065 57.991 33.5602 57.2841 34.0576 56.5939C34.1949 56.4033 34.3403 56.2228 34.4684 56.0643C34.4754 56.0557 34.4824 56.0471 34.4893 56.0385C34.614 55.8842 34.7218 55.7509 34.8209 55.6169C35.0312 55.3326 35.1401 55.1251 35.1836 54.939C35.3102 54.3969 35.8523 54.0601 36.3943 54.1868Z" fill="#3A2D14"/>
<path fill-rule="evenodd" clip-rule="evenodd" d="M33.3317 52.7446C33.574 52.7171 33.8849 52.7046 34.2321 52.7857C34.3667 52.8171 34.4886 52.8742 34.5939 52.9505C35.6652 53.1723 36.6526 53.5939 37.4569 54.1414C38.654 54.9563 39.6739 56.2274 39.5602 57.7149C39.4115 59.6603 39.0674 61.579 38.6576 63.4306C38.3332 64.896 37.9842 66.3546 37.6361 67.8034C37.4026 68.7752 37.1408 69.7565 36.828 70.7264C36.5547 71.574 36.0572 72.3559 35.2024 72.9804C34.3169 73.6274 33.0909 73.857 31.936 73.8237C30.7591 73.7897 29.4936 73.48 28.4419 72.8713C27.3532 72.2412 26.8002 71.4229 26.5647 70.5368C26.3898 69.8784 26.4032 69.1805 26.4127 68.6892C26.4146 68.5919 26.4163 68.5027 26.4164 68.4235C26.4175 67.0572 26.4897 65.729 26.7307 64.3635C26.9071 63.3634 27.1544 62.3573 27.3918 61.3915C27.4876 61.0018 27.5818 60.6187 27.6691 60.2452C27.7526 59.8877 27.8233 59.529 27.8984 59.1485C27.9272 59.0027 27.9566 58.8536 27.9876 58.7002C28.0963 58.1617 28.221 57.5908 28.3944 57.0237C28.7447 55.8787 29.3059 54.7098 30.3955 53.732C30.9167 53.2643 31.6616 53.0223 32.327 52.8969C32.4644 52.8232 32.621 52.7803 32.7877 52.7778C32.8879 52.7762 32.9879 52.7766 33.0876 52.7788C33.1604 52.7671 33.2443 52.7545 33.3317 52.7446ZM33.2159 54.8003C33.1605 54.809 33.1002 54.8179 33.0394 54.8255C32.3555 54.9101 31.9019 55.0887 31.7419 55.2323C31.014 55.8854 30.6064 56.6842 30.3221 57.6134C30.1783 58.0835 30.0692 58.5763 29.9635 59.0994C29.9367 59.2321 29.9098 59.3686 29.8824 59.5073C29.8051 59.8993 29.7242 60.3094 29.6321 60.7038C29.5332 61.1271 29.432 61.5385 29.3325 61.9433C29.1019 62.881 28.8801 63.7829 28.7159 64.7138C28.5021 65.9253 28.4333 67.1282 28.4322 68.4253C28.4321 68.5706 28.4302 68.7049 28.4285 68.8306C28.422 69.3063 28.4172 69.6588 28.513 70.0192C28.6082 70.3775 28.8169 70.7592 29.4517 71.1266C30.173 71.5441 31.1018 71.7829 31.9941 71.8086C32.9085 71.835 33.6264 71.6353 34.0132 71.3528C34.49 71.0044 34.7529 70.5931 34.9095 70.1076C35.2017 69.2016 35.4501 68.2727 35.6761 67.3324C36.0244 65.8826 36.3694 64.4404 36.6894 62.995C37.0882 61.1932 37.4115 59.3761 37.5502 57.5613C37.5832 57.1301 37.2677 56.4513 36.3225 55.8078C35.5118 55.2559 34.4009 54.8592 33.2159 54.8003Z" fill="#3A2D14"/>
<path fill-rule="evenodd" clip-rule="evenodd" d="M37.6867 60.337C37.8607 59.579 38.0003 58.7719 37.9701 57.8823C37.9544 57.4221 37.9091 56.9331 37.8042 56.4341C37.7886 56.3603 37.7367 56.1836 37.6873 56.0456C37.6651 55.9836 37.6171 55.8529 37.5466 55.7318C37.5461 55.731 37.5455 55.7298 37.5446 55.7283C37.5253 55.6943 37.4082 55.4878 37.1728 55.344C37.0166 55.2487 36.7109 55.1253 36.3419 55.2376C35.9966 55.3427 35.8213 55.5879 35.7522 55.7074C35.6433 55.8959 35.5403 56.0856 35.4444 56.2622C35.441 56.2685 35.4376 56.2747 35.4342 56.281C35.3332 56.4669 35.2396 56.6389 35.1421 56.8065C35.0993 56.8801 35.0471 56.9625 34.9791 57.0689C34.9748 57.0756 34.9705 57.0824 34.9662 57.0892C34.9046 57.1856 34.8322 57.2988 34.7617 57.4162C34.6139 57.6624 34.4369 57.987 34.3319 58.3538C34.2233 58.7331 34.1798 59.2002 34.354 59.6904C34.5281 60.1803 34.8768 60.573 35.3314 60.8833C35.9193 61.2847 36.0812 61.4928 36.2131 61.8273C36.2129 61.8445 36.2094 61.8937 36.1829 61.993C36.1595 62.0807 36.129 62.171 36.0859 62.2987L36.0814 62.3119C36.0415 62.4301 35.9859 62.5945 35.9466 62.763C35.8199 63.3051 36.1567 63.8472 36.6988 63.9738C37.2409 64.1004 37.7829 63.7637 37.9096 63.2216C37.9236 63.1615 37.9478 63.0856 37.9916 62.9559C37.9947 62.9469 37.9979 62.9375 38.0011 62.9278C38.039 62.8161 38.0896 62.6665 38.1307 62.5123C38.2186 62.1827 38.3121 61.6656 38.0996 61.1163C37.9843 60.8185 37.8479 60.5642 37.6867 60.337Z" fill="#3A2D14"/>
<path fill-rule="evenodd" clip-rule="evenodd" d="M9.86242 70.678C10.4191 70.678 10.8703 71.1292 10.8703 71.6859C10.8703 72.4555 10.9365 73.0326 11.1133 73.5142C11.2813 73.972 11.5698 74.3986 12.1129 74.8269C13.4927 75.9152 15.0814 76.7582 16.6954 76.9646C17.4953 77.0669 18.2929 77.0562 19.1636 77.0444C19.4533 77.0405 19.7512 77.0365 20.06 77.0365C20.6167 77.0365 21.0679 77.4877 21.0679 78.0444C21.0679 78.6011 20.6167 79.0523 20.06 79.0523C19.8146 79.0523 19.5576 79.0559 19.2924 79.0597C18.3907 79.0723 17.3946 79.0863 16.4396 78.9642C14.3317 78.6946 12.4056 77.6252 10.8645 76.4097C10.0516 75.7685 9.52695 75.0428 9.22084 74.2088C8.92348 73.3986 8.85449 72.5443 8.85449 71.6859C8.85449 71.1292 9.30576 70.678 9.86242 70.678Z" fill="#3A2D14"/>
<path fill-rule="evenodd" clip-rule="evenodd" d="M22.1904 73.6638C22.6883 73.9127 22.8901 74.5181 22.6412 75.016C22.1773 75.9437 21.9676 76.7681 22.0322 77.7375C22.0601 78.1569 22.1656 78.5565 22.3008 79.0685C22.309 79.0998 22.3174 79.1316 22.3259 79.1638C22.4643 79.6893 22.6276 80.3322 22.6276 81.0437C22.6276 81.6004 22.1763 82.0517 21.6197 82.0517C21.063 82.0517 20.6118 81.6004 20.6118 81.0437C20.6118 80.6214 20.516 80.2067 20.3765 79.6771C20.3656 79.6356 20.3543 79.5931 20.3428 79.5498C20.2166 79.0747 20.0623 78.4938 20.0208 77.8716C19.9273 76.4695 20.2514 75.288 20.8381 74.1145C21.0871 73.6166 21.6925 73.4148 22.1904 73.6638Z" fill="#3A2D14"/>
</svg>
