<svg width="102" height="172" viewBox="0 0 102 172" fill="none" xmlns="http://www.w3.org/2000/svg">
<path d="M3.76367 99.3974L5.75362 95.8155L10.032 97.109L12.9174 93.9251V92.1341L17.2953 91.3381L18.7878 95.8155L20.4792 100.293V106.86L13.8129 111.636H6.35061L4.26116 109.347L3.76367 106.86L6.35061 105.566L5.75362 103.974L8.93754 101.984H5.05714L3.76367 99.3974Z" fill="white"/>
<path fill-rule="evenodd" clip-rule="evenodd" d="M17.3626 91.2249L18.8817 95.7822L20.5789 100.275V106.911L13.845 111.735H6.30688L4.16919 109.394L3.65137 106.805L6.22616 105.517L5.63205 103.933L8.59078 102.084H4.99581L3.65137 99.395L5.70578 95.6971L10.0007 96.9956L12.8181 93.8867V92.0511L17.3626 91.2249ZM13.0171 92.2172V93.9635L10.0636 97.2225L5.8018 95.934L3.8763 99.3999L5.1188 101.885H9.28463L5.87552 104.016L6.47538 105.615L3.87631 106.915L4.35346 109.301L6.39466 111.536H13.7811L20.3799 106.809V100.311L18.6942 95.8489L17.2284 91.4515L13.0171 92.2172Z" fill="black"/>
<path d="M17.593 152.828L19.9809 150.34L27.5427 150.937L28.9357 153.226L27.5427 154.22L27.6865 155.097L51.7707 151.879L52.1186 151.833L52.0325 151.878L60.5759 151.833L63.2623 153.524V157.404L65.5508 156.608L70.9236 151.833H77.2915L80.4754 158.399L78.5849 165.165L72.3166 168.15L62.1679 165.663L56.4965 167.454L50.9246 165.165L50.0292 160.588L50.9246 155.713L50.0292 152.927L52.0325 151.878L51.7707 151.879L27.6865 155.097L28.5377 160.29L26.3488 165.165H23.5628L19.9809 168.051L13.0161 169.643L5.25532 168.648L2.76788 165.165L2.1709 161.683L5.9518 158.001L10.6282 156.31L17.593 155.713V152.828Z" fill="#00B100"/>
<path d="M75.5014 73.6276L72.417 69.4487L74.5064 67.0608L75.5014 63.3794L76.5959 59.0015L76.4964 55.917L80.2773 56.514L81.0733 59.3L83.1627 60.7924L86.2471 54.6236L91.222 51.8376L92.9135 52.6336L89.5306 59.3L95.5999 55.917H98.6843L98.1868 60.7924L100.077 62.2849L96.9929 66.6628L84.8542 72.3341L83.1627 75.4185L80.2773 75.8165L75.5014 73.6276Z" fill="#EFEBD2"/>
<path fill-rule="evenodd" clip-rule="evenodd" d="M91.1742 50.4958L94.5345 52.0771L92.3644 56.3534L95.2893 54.7232H100.006L99.4408 60.2616L101.704 62.0484L97.7856 67.6101L85.713 73.2507L83.9205 76.5193L80.0956 77.0469L74.7234 74.5847L70.8857 69.3852L73.4256 66.4826L74.3455 63.0789L75.3968 58.8736L75.2561 54.5126L81.2157 55.4536L82.1063 58.5709L82.7193 59.0088L85.3431 53.7613L91.1742 50.4958ZM91.2691 53.1796L87.1505 55.486L83.6054 62.5762L80.0395 60.0291L79.3382 57.5747L77.7359 57.3217L77.7942 59.1295L76.6566 63.68L75.5866 67.6391L73.9475 69.5123L76.2787 72.6707L80.4583 74.5863L82.4043 74.3179L83.9947 71.4178L96.1994 65.7156L98.4497 62.5215L96.9321 61.3234L97.362 57.1111H95.9098L86.696 62.2467L91.2918 53.1903L91.2691 53.1796Z" fill="#3A2D14"/>
<path d="M13.1157 68.8517L20.8765 67.6577L19.185 75.0205H16.2001L9.3348 81.1894V89.5472L12.1207 92.5321V94.6215L8.73781 96.512L6.44937 95.119L3.26545 90.5421L1.375 85.3683L3.26545 77.8065L6.44937 72.1351L13.1157 68.8517Z" fill="#3A2D14"/>
<path d="M20.6387 5.33675L27.305 2.15283H35.2648L37.9512 6.33172L38.4487 10.3116L30.8869 16.182L21.1362 18.6694L19.8427 16.182L18.0518 8.81916L20.6387 5.33675Z" fill="#4460A7"/>
<path d="M17.6539 23.8432L20.2409 18.8684L33.673 14.391L38.8469 10.8091L45.4137 13.0975L52.7765 18.8684L57.2539 28.7186V38.6684L53.5725 45.1357V55.3839L55.3635 58.1699L60.1393 67.6221L62.5273 80.1588L61.1343 98.5658L60.1393 114.684L55.3635 124.137L46.5082 126.425H32.678L25.8127 122.843L21.8328 116.177L20.2409 106.128V92.2975V76.3779L21.8328 67.6221L25.8127 58.1699V53.195L21.8328 46.6282L17.6539 38.6684L16.46 31.3056L17.6539 23.8432Z" fill="#97C3DC"/>
<path fill-rule="evenodd" clip-rule="evenodd" d="M33.6907 2.51981C30.7373 1.98687 27.6489 3.14083 24.6301 4.49189C23.1076 5.17332 21.6141 5.93715 20.3486 6.86604C19.7908 7.2755 19.4497 7.71146 19.2401 8.18166C19.0263 8.66107 18.92 9.24215 18.9307 9.9774C18.9398 10.6059 19.0856 11.2881 19.3069 12.0447C19.4168 12.4203 19.5398 12.7967 19.6678 13.1883L19.6706 13.1965C19.7956 13.579 19.9262 13.9784 20.0407 14.3725C20.0993 14.5744 20.1944 14.779 20.3425 15.0968L20.3442 15.1004C20.476 15.3833 20.6576 15.7732 20.7654 16.2042C20.7827 16.2737 20.8094 16.3256 20.8931 16.4882C20.9206 16.5418 20.9544 16.6073 20.996 16.6894C21.1293 16.9528 21.3504 17.4112 21.3504 17.99C21.3504 18.6494 20.8159 19.184 20.1564 19.184C19.4983 19.184 18.9645 18.6514 18.9625 17.9937C18.9602 17.9827 18.9453 17.9256 18.8656 17.7683C18.8555 17.7483 18.8405 17.7195 18.8229 17.6855C18.778 17.5991 18.7156 17.4789 18.6698 17.3826C18.5946 17.2245 18.5081 17.021 18.4487 16.7834C18.4039 16.6039 18.3195 16.4091 18.1779 16.1052C18.1691 16.0863 18.16 16.0667 18.1506 16.0466C18.0267 15.7817 17.8592 15.4233 17.7474 15.0383C17.6453 14.6865 17.5265 14.3228 17.3982 13.9305L17.3951 13.9209C17.2699 13.5381 17.1362 13.1294 17.015 12.7152C16.7722 11.885 16.5567 10.9606 16.543 10.012C16.5288 9.0322 16.6677 8.08694 17.0591 7.20916C17.4547 6.32216 18.0787 5.57007 18.9356 4.94104C20.4025 3.86425 22.0747 3.01939 23.6547 2.31228C26.6345 0.978631 30.3527 -0.50905 34.1148 0.169823C35.0256 0.334187 35.9288 0.807389 36.5554 1.59511C37.3398 2.58116 37.8937 3.60757 38.3839 4.64561C38.4774 4.84361 38.574 5.04579 38.6722 5.25151C39.2147 6.38729 39.8089 7.63137 40.2254 8.88072C40.4339 9.5063 40.0958 10.1825 39.4702 10.391C38.8447 10.5995 38.1685 10.2614 37.96 9.63586C37.5946 8.53963 37.0753 7.45085 36.5316 6.31103C36.4298 6.09769 36.3272 5.88257 36.2246 5.66527C35.7704 4.70336 35.3077 3.86246 34.6866 3.08166C34.4661 2.80439 34.1069 2.59491 33.6907 2.51981ZM18.9628 17.9957C18.9628 17.9957 18.9628 17.9954 18.9627 17.9949C18.9628 17.9955 18.9629 17.9958 18.9628 17.9957Z" fill="#3A2D14"/>
<path fill-rule="evenodd" clip-rule="evenodd" d="M38.6716 8.16968C39.331 8.16968 39.8655 8.70424 39.8655 9.36365C39.8655 9.89609 39.6407 10.3272 39.4815 10.5837C39.3465 10.8011 39.1778 11.014 39.0781 11.1398C39.0592 11.1636 39.0428 11.1843 39.0296 11.2013C38.7468 11.5648 38.416 11.8707 38.1251 12.1208C37.9908 12.2363 37.8547 12.3484 37.7313 12.4501L37.6978 12.4778C37.5614 12.5902 37.4416 12.6896 37.3314 12.7862C36.4273 13.579 35.5159 14.3752 34.442 15.0911C32.1051 16.6491 29.4808 17.7248 26.9134 18.5743C24.6795 19.3135 22.5638 19.6049 20.2614 19.6049C19.6019 19.6049 19.0674 19.0704 19.0674 18.411C19.0674 17.7515 19.6019 17.217 20.2614 17.217C22.3425 17.217 24.2013 16.9564 26.1633 16.3072C28.6357 15.4892 31.0335 14.4935 33.1174 13.1043C34.0416 12.4882 34.8416 11.7935 35.757 10.9908C35.898 10.8671 36.0441 10.7463 36.1787 10.6353L36.2096 10.6098C36.3365 10.5052 36.4538 10.4086 36.5684 10.31C36.8185 10.095 37.008 9.91099 37.1447 9.73523C37.1699 9.70285 37.1969 9.66853 37.2214 9.63757C37.2285 9.62863 37.2353 9.61997 37.2418 9.61172C37.2728 9.57239 37.3009 9.53658 37.3277 9.50136C37.3822 9.42992 37.4226 9.37278 37.4526 9.32432C37.465 9.30447 37.4741 9.28835 37.4808 9.2757C37.5258 8.65735 38.0418 8.16968 38.6716 8.16968Z" fill="#3A2D14"/>
<path fill-rule="evenodd" clip-rule="evenodd" d="M35.4136 2.41758C35.8799 2.88385 35.8799 3.63983 35.4136 4.1061C33.8205 5.69924 31.9891 6.94599 29.9462 7.90732C27.8585 8.88978 25.2973 9.80538 22.8403 9.97601C21.7316 10.053 20.6037 10.0445 19.5325 10.0363C19.2087 10.0339 18.8901 10.0315 18.5787 10.0315C17.9193 10.0315 17.3848 9.49692 17.3848 8.83751C17.3848 8.1781 17.9193 7.64354 18.5787 7.64354C18.9307 7.64354 19.2754 7.6461 19.6148 7.64861C20.666 7.65641 21.6666 7.66382 22.6748 7.59381C24.7092 7.45253 26.9621 6.67249 28.9295 5.74667C30.7453 4.89216 32.3438 3.79888 33.7251 2.41758C34.1913 1.9513 34.9473 1.9513 35.4136 2.41758Z" fill="#3A2D14"/>
<path fill-rule="evenodd" clip-rule="evenodd" d="M22.4085 12.4388C23.0341 12.2303 23.7103 12.5684 23.9188 13.1939C23.978 13.3715 24.0364 13.548 24.0947 13.7239C24.2102 14.0725 24.3248 14.4186 24.4426 14.7656C24.5114 14.968 24.6076 15.1707 24.7377 15.4451C24.7738 15.5211 24.8124 15.6026 24.8538 15.6911C25.02 16.0462 25.235 16.5262 25.3284 17.04C25.4464 17.6887 25.0161 18.3103 24.3673 18.4282C23.7185 18.5462 23.097 18.1159 22.979 17.4671C22.9464 17.2881 22.8563 17.0565 22.6909 16.703C22.6661 16.6499 22.6386 16.5922 22.6094 16.531C22.4732 16.2454 22.2997 15.8812 22.1815 15.5335C22.0609 15.1784 21.9412 14.8169 21.824 14.4629C21.7664 14.2893 21.7095 14.1174 21.6534 13.9491C21.4449 13.3235 21.783 12.6473 22.4085 12.4388Z" fill="#3A2D14"/>
<path fill-rule="evenodd" clip-rule="evenodd" d="M26.6961 11.3905C27.2615 11.0513 27.9949 11.2346 28.3342 11.8001C28.6552 12.3351 28.9216 12.8941 29.1597 13.3937C29.1656 13.4061 29.1715 13.4185 29.1774 13.4308C29.4289 13.9583 29.6513 14.4211 29.909 14.8456C30.2512 15.4092 30.0717 16.1436 29.508 16.4858C28.9444 16.828 28.21 16.6485 27.8678 16.0848C27.5393 15.5439 27.2684 14.9756 27.0262 14.4674L27.0219 14.4584C26.7697 13.9294 26.5464 13.4618 26.2865 13.0287C25.9473 12.4632 26.1306 11.7298 26.6961 11.3905Z" fill="#3A2D14"/>
<path fill-rule="evenodd" clip-rule="evenodd" d="M31.6553 8.2765C32.2556 8.00364 32.9634 8.26908 33.2363 8.86938C33.4001 9.22982 33.5757 9.52547 33.7814 9.87185C33.911 10.0901 34.0526 10.3284 34.2107 10.6158C34.5745 11.2769 34.9482 12.0868 35.023 13.0591C35.0736 13.7166 34.5816 14.2906 33.9241 14.3412C33.2667 14.3917 32.6927 13.8997 32.6421 13.2423C32.6063 12.7772 32.4253 12.3245 32.1185 11.7669C32.0374 11.6194 31.9344 11.4444 31.8217 11.2532C31.5715 10.8283 31.2738 10.3227 31.0624 9.85752C30.7895 9.25721 31.055 8.54937 31.6553 8.2765Z" fill="#3A2D14"/>
<path fill-rule="evenodd" clip-rule="evenodd" d="M35.5589 6.33723C36.1845 6.12871 36.8607 6.46679 37.0692 7.09236C37.1449 7.31946 37.2706 7.5238 37.4701 7.848C37.5407 7.9627 37.6205 8.09239 37.7106 8.24341C37.9952 8.72048 38.3929 9.44106 38.3929 10.3104C38.3929 10.9698 37.8583 11.5043 37.1989 11.5043C36.5395 11.5043 36.0049 10.9698 36.0049 10.3104C36.0049 10.1459 35.9281 9.91646 35.6599 9.46682C35.6222 9.40374 35.5771 9.33121 35.5272 9.25097C35.3011 8.88753 34.9766 8.36591 34.8038 7.84749C34.5953 7.22192 34.9333 6.54575 35.5589 6.33723Z" fill="#3A2D14"/>
<path fill-rule="evenodd" clip-rule="evenodd" d="M19.9596 17.544C20.6163 17.6037 21.1002 18.1845 21.0405 18.8412C20.9245 20.1175 20.4561 21.258 19.9951 22.249C19.8682 22.5218 19.7442 22.7794 19.625 23.0271C19.2858 23.7316 18.9854 24.3554 18.768 25.0198C17.9725 27.4504 17.5628 30.0196 17.5948 32.5754C17.6612 37.8947 20.5852 42.5359 23.5295 47.2093C23.6904 47.4648 23.8514 47.7203 24.012 47.976C24.2666 48.3815 24.5482 48.7827 24.8512 49.2123L24.8849 49.26C25.1722 49.6674 25.4786 50.1017 25.7642 50.55C26.3593 51.4841 26.9188 52.5595 27.1355 53.833C27.6156 56.6536 26.7271 58.8636 25.9065 60.9047C25.7135 61.3846 25.5244 61.8551 25.3576 62.322C25.0779 63.1051 24.7497 63.8686 24.4408 64.5869C24.3358 64.8313 24.2329 65.0705 24.135 65.3035C23.7382 66.2476 23.3962 67.1455 23.1792 68.1003C22.9202 69.2398 22.6773 70.3662 22.4481 71.5115C22.4483 71.5116 22.4453 71.5305 22.4392 71.5815C22.4347 71.6184 22.4306 71.6552 22.4257 71.698C22.422 71.7302 22.418 71.7657 22.4131 71.8072C22.3932 71.9785 22.3644 72.2134 22.3228 72.4296C22.3021 72.537 22.2734 72.6662 22.2324 72.7941C22.2023 72.8881 22.1229 73.1254 21.9409 73.3421C21.842 73.4599 21.6482 73.6492 21.3385 73.7449C20.9906 73.8524 20.6532 73.7938 20.3939 73.66C19.9984 73.456 19.8205 73.1001 19.7709 73.0008L19.7694 72.9979C19.5243 72.5076 19.6481 71.9294 20.0356 71.5788C20.0375 71.563 20.0393 71.5472 20.0412 71.5312C20.0434 71.5119 20.046 71.4895 20.0487 71.4651C20.0627 71.3405 20.0829 71.1613 20.1048 71.0522C20.3391 69.8804 20.5871 68.7306 20.8507 67.5711C21.1146 66.4097 21.5216 65.3585 21.9336 64.3783C22.0478 64.1064 22.1609 63.8434 22.2719 63.5853C22.5718 62.8874 22.8566 62.225 23.1088 61.5188C23.3365 60.8812 23.5653 60.304 23.7794 59.7637C24.5555 57.8055 25.1389 56.3334 24.7815 54.2337C24.6417 53.4124 24.2706 52.6499 23.7503 51.8331C23.4954 51.4332 23.2178 51.0395 22.9212 50.6189L22.8998 50.5886C22.6011 50.1651 22.2834 49.7136 21.9897 49.2458C21.803 48.9486 21.6135 48.6485 21.422 48.3454C18.559 43.8128 15.2823 38.6253 15.207 32.6052C15.1716 29.7769 15.6247 26.9471 16.4985 24.2771C16.77 23.4476 17.1684 22.6213 17.525 21.8817C17.6319 21.6598 17.7351 21.4458 17.83 21.2418C18.2682 20.2997 18.5855 19.4706 18.6624 18.625C18.7221 17.9683 19.3029 17.4843 19.9596 17.544ZM21.9051 71.9296C21.9052 71.9297 21.9052 71.9298 21.9053 71.9299L21.9052 71.9298C21.9052 71.9297 21.9051 71.9296 21.9051 71.9296Z" fill="#3A2D14"/>
<path fill-rule="evenodd" clip-rule="evenodd" d="M54.3583 45.3904C55.0177 45.3904 55.5523 45.9249 55.5523 46.5844C55.5523 47.349 55.3319 47.932 55.1496 48.3701C55.1231 48.4339 55.0981 48.4931 55.0747 48.5488C54.9286 48.8961 54.8412 49.1039 54.7979 49.3746C54.6157 50.5131 54.5664 51.5946 54.5664 52.8009C54.5664 55.5267 55.3921 57.1509 56.9157 59.6903C58.7202 62.6978 60.2373 65.9425 61.3999 69.2468C61.8357 70.4854 62.1207 71.7318 62.3777 72.9187C62.4111 73.073 62.4439 73.226 62.4766 73.3779C62.6992 74.4142 62.9106 75.3979 63.1985 76.3695C63.4182 77.1109 63.4688 77.8566 63.4736 78.526C63.4761 78.8621 63.4668 79.1952 63.4577 79.5046L63.4561 79.5573C63.4474 79.8532 63.4394 80.1258 63.4394 80.392C63.4394 80.972 63.45 81.575 63.4609 82.1914C63.4884 83.7489 63.5174 85.3929 63.3801 86.9722C63.2574 88.3835 63.1164 89.7952 62.9757 91.2046C62.6068 94.9002 62.2395 98.579 62.207 102.188C62.2015 102.793 62.2018 103.409 62.2022 104.032C62.2042 107.763 62.2064 111.775 60.9695 115.532C60.851 115.892 60.7361 116.26 60.6197 116.633C59.7521 119.413 58.8023 122.457 55.6504 124.32C53.3766 125.663 50.4878 126.422 48.0361 127.066C47.6712 127.162 47.316 127.255 46.974 127.347C44.442 128.031 41.9482 128.128 39.4879 128.128C36.5622 128.128 33.2238 127.976 30.2205 127.041C27.1853 126.095 24.4147 124.324 22.7827 121.06C21.3185 118.131 20.2297 114.9 19.385 111.803C18.3145 107.877 18.3578 103.572 18.3973 99.6356C18.4047 98.9077 18.4119 98.1924 18.4119 97.4944C18.4119 95.7541 18.362 93.9604 18.3113 92.1394C18.1897 87.7681 18.0637 83.2394 18.6131 78.9134C18.6845 78.3508 18.7115 77.8127 18.7408 77.2269C18.7558 76.9278 18.7714 76.6163 18.7939 76.2827C18.8567 75.3503 18.9727 74.3302 19.3278 73.3155C19.6144 72.4967 19.6442 71.5868 19.6442 70.4921C19.6442 69.8327 20.1788 69.2981 20.8382 69.2981C21.4976 69.2981 22.0321 69.8327 22.0321 70.4921C22.0321 71.5604 22.0193 72.8542 21.5817 74.1043C21.3341 74.8117 21.2349 75.5756 21.1764 76.4432C21.1598 76.6895 21.1464 76.9551 21.1323 77.2318C21.1 77.8677 21.0648 78.5619 20.982 79.2142C20.4569 83.3493 20.5751 87.5756 20.6951 91.8638C20.7473 93.7298 20.7998 95.6074 20.7998 97.4944C20.7998 98.2432 20.7929 98.9928 20.786 99.7413C20.7497 103.686 20.7138 107.599 21.6888 111.174C22.5108 114.188 23.5505 117.256 24.9185 119.992C26.1808 122.516 28.3233 123.949 30.9304 124.761C33.5694 125.582 36.6025 125.74 39.4879 125.74C41.9033 125.74 44.1367 125.64 46.3519 125.042C46.7197 124.943 47.0904 124.845 47.462 124.747C49.949 124.09 52.4727 123.424 54.4355 122.264C56.7498 120.896 57.4209 118.79 58.3279 115.944C58.4469 115.57 58.57 115.184 58.7014 114.785C59.8081 111.424 59.8102 107.846 59.8125 104.096C59.8129 103.458 59.8133 102.815 59.8191 102.167C59.8527 98.4411 60.2365 94.5972 60.6092 90.8645C60.7475 89.4789 60.8843 88.1086 61.0011 86.7653C61.1271 85.3171 61.1014 83.8729 61.0746 82.3679C61.0631 81.7222 61.0514 81.0653 61.0514 80.392C61.0514 80.089 61.0605 79.7829 61.069 79.4954L61.0708 79.4343C61.08 79.1223 61.0879 78.83 61.0858 78.5434C61.0816 77.9672 61.0363 77.4777 60.9089 77.0478C60.5931 75.9819 60.3612 74.9017 60.1404 73.8727C60.108 73.7219 60.0759 73.5723 60.0438 73.4239C59.7881 72.2431 59.5292 71.1247 59.1473 70.0394C58.0371 66.884 56.5881 63.7857 54.8681 60.9189C53.2916 58.2915 52.1785 56.2004 52.1785 52.8009C52.1785 51.5287 52.2301 50.3087 52.4399 48.9974C52.5326 48.4184 52.7423 47.9279 52.8864 47.5907C52.9075 47.5413 52.9272 47.4953 52.9449 47.4527C53.0932 47.0964 53.1643 46.8675 53.1643 46.5844C53.1643 45.9249 53.6989 45.3904 54.3583 45.3904Z" fill="#3A2D14"/>
<path fill-rule="evenodd" clip-rule="evenodd" d="M40.013 9.61116C39.6695 9.17696 39.0578 9.02764 38.5431 9.285C37.9533 9.5799 37.7142 10.2971 38.0091 10.8869C38.2321 11.3329 38.5977 11.5831 38.8766 11.722C39.1551 11.8608 39.4462 11.9381 39.6703 11.9875C39.8512 12.0273 40.0444 12.0601 40.1956 12.0858C40.2314 12.0919 40.2649 12.0976 40.2953 12.1029C40.4868 12.1361 40.5756 12.1566 40.6165 12.1703C42.016 12.6368 43.3247 13.5232 44.727 14.473C44.8841 14.5794 45.0423 14.6866 45.202 14.794C46.3853 15.5905 47.4212 16.6492 48.5151 17.7822C49.01 18.2948 49.575 18.7417 50.0627 19.1275C50.1746 19.2161 50.2825 19.3014 50.3845 19.3835C50.9667 19.8524 51.4281 20.2678 51.7745 20.7682C53.1517 22.7574 54.4093 24.9438 55.1914 27.1433C56.1827 29.9314 56.0578 32.4641 55.8908 35.6357C55.8051 37.2645 55.2386 38.7801 54.5921 40.5099C54.5705 40.5676 54.5488 40.6255 54.5271 40.6837C53.8762 42.4267 53.1643 44.3858 53.1643 46.5842C53.1643 47.2436 53.6989 47.7782 54.3583 47.7782C55.0177 47.7782 55.5522 47.2436 55.5522 46.5842C55.5522 44.8721 56.1027 43.2903 56.7642 41.5191C56.7986 41.4268 56.8335 41.3338 56.8685 41.2403C57.4835 39.5992 58.1699 37.7676 58.2755 35.7612L58.2817 35.6422C58.4439 32.5653 58.6001 29.6022 57.4413 26.3433C56.5634 23.8742 55.1823 21.4953 53.7379 19.4089C53.1856 18.6111 52.4964 18.0183 51.8823 17.5238C51.7461 17.4141 51.6153 17.3103 51.4892 17.2104C51.0139 16.8334 50.6063 16.5102 50.233 16.1236C49.1647 15.0171 47.9611 13.7726 46.5354 12.813C46.3796 12.7082 46.2204 12.5999 46.0577 12.4894C44.6996 11.5662 43.1057 10.4829 41.3716 9.90487C41.1383 9.8271 40.8828 9.78124 40.7041 9.75018C40.6548 9.74161 40.6086 9.73375 40.5649 9.72629C40.4208 9.70175 40.3028 9.68163 40.1843 9.65551C40.1076 9.6386 40.0519 9.62338 40.013 9.61116ZM39.9413 9.5846C39.9401 9.58397 39.9395 9.58364 39.9395 9.58363C39.9395 9.58363 39.9402 9.58394 39.9413 9.5846Z" fill="#3A2D14"/>
<path d="M22.668 83.2788L26.3494 69.0507L31.9212 65.0708L36.3986 66.0658L34.9062 70.9411L33.6127 75.4185L34.9062 78.8014L38.2891 76.911H42.07V81.7864L44.2589 83.2788L47.8408 81.7864L50.3283 76.911H54.2087L57.6911 81.7864V92.8306L56.1986 112.432L51.5222 119.496L43.1644 121.983H29.9313L26.3494 118.103L22.668 112.432V102.78V83.2788Z" fill="#4460A7"/>
<path fill-rule="evenodd" clip-rule="evenodd" d="M10.4119 68.7097C13.6257 67.4693 17.3634 66.1355 21.1232 66.1355C21.7826 66.1355 22.3172 66.6701 22.3172 67.3295C22.3172 67.9889 21.7826 68.5234 21.1232 68.5234C17.8611 68.5234 14.5056 69.6893 11.2717 70.9375C9.53866 71.6064 7.80649 72.4312 6.604 73.5669C5.13779 74.9516 4.08234 77.0016 3.31447 79.0663C2.55007 81.1217 2.09489 83.9609 2.60222 85.8996C3.14821 87.9861 4.27838 90.0137 5.69695 91.6856C6.06511 92.1195 6.40044 92.5698 6.71006 92.9856L6.71504 92.9923C7.03347 93.4199 7.3256 93.8119 7.63789 94.181C7.74193 94.3039 7.84476 94.409 7.97773 94.5448C8.02444 94.5925 8.07487 94.6441 8.13037 94.7015C8.32414 94.902 8.56177 95.1579 8.77296 95.4746C9.13874 96.0233 8.99048 96.7646 8.44181 97.1304C7.89315 97.4961 7.15185 97.3479 6.78608 96.7992C6.69865 96.6681 6.58422 96.5378 6.41335 96.361C6.38246 96.3291 6.34791 96.2938 6.3107 96.2559C6.16586 96.1082 5.98078 95.9194 5.81497 95.7234C5.45246 95.295 5.12114 94.8501 4.8148 94.4387L4.79977 94.4185C4.48181 93.9915 4.18918 93.5995 3.87612 93.2305C2.26087 91.3268 0.941348 88.9853 0.292064 86.5042C-0.3922 83.8893 0.231361 80.5059 1.0763 78.234C1.89081 76.0438 3.10318 73.5886 4.96439 71.8308C6.52406 70.3578 8.62827 69.3981 10.4119 68.7097Z" fill="#3A2D14"/>
<path fill-rule="evenodd" clip-rule="evenodd" d="M19.55 72.8693C19.6175 72.8694 19.6845 72.8695 19.751 72.8695C20.4104 72.8695 20.9449 73.4041 20.9449 74.0635C20.9449 74.7229 20.4104 75.2575 19.751 75.2575L19.7032 75.2575C18.3543 75.2574 17.4028 75.2574 16.4214 75.66C15.9231 75.8644 15.4458 76.2031 14.9428 76.6515C14.5922 76.9642 14.2772 77.2836 13.9391 77.6264C13.7714 77.7966 13.5979 77.9725 13.4116 78.1561C11.7156 79.8283 10.5868 81.324 9.95049 83.502C9.13699 86.2866 9.52983 88.9839 11.5032 90.8842C11.7258 91.0986 12.0849 91.3392 12.247 91.3982C12.699 91.5625 12.9858 91.8544 13.1191 91.9902C13.1474 92.0189 13.1679 92.0401 13.1838 92.0564C13.2073 92.0805 13.2203 92.0939 13.2326 92.1057C13.7813 92.4169 13.9959 93.107 13.7106 93.6777C13.4157 94.2675 12.6985 94.5066 12.1087 94.2117C11.9041 94.1094 11.7497 93.9848 11.6426 93.8878C11.563 93.8156 11.4805 93.7304 11.4361 93.6847C11.4275 93.6758 11.4204 93.6684 11.415 93.6629C11.396 93.6436 11.3816 93.6296 11.3711 93.6197C10.7963 93.3948 10.189 92.9338 9.84685 92.6043C7.05519 89.9161 6.67375 86.2027 7.65835 82.8324C8.45225 80.1148 9.88501 78.2797 11.7351 76.4557C11.8714 76.3213 12.0182 76.1726 12.1723 76.0165C12.5381 75.6459 12.9454 75.2332 13.3537 74.8692C13.9556 74.3325 14.6648 73.7996 15.515 73.4508C16.9416 72.8655 18.3228 72.8675 19.55 72.8693ZM13.2499 92.1216C13.2499 92.1217 13.2496 92.1214 13.2488 92.1207C13.2495 92.1213 13.2499 92.1216 13.2499 92.1216Z" fill="#3A2D14"/>
<path fill-rule="evenodd" clip-rule="evenodd" d="M6.53034 96.8489C6.98663 96.6405 7.27901 96.1566 7.22059 95.6308C7.14777 94.9754 6.55745 94.5032 5.90207 94.576C5.58605 94.6111 5.34819 94.7467 5.21336 94.8378C5.06773 94.9362 4.94755 95.048 4.85636 95.1421C4.67438 95.3297 4.51026 95.5491 4.38107 95.7341C4.24726 95.9258 4.12357 96.1207 4.02739 96.274C4.00499 96.3097 3.98504 96.3415 3.96726 96.3699C3.89695 96.4821 3.8604 96.5405 3.83913 96.5706C3.80132 96.6242 3.76107 96.6805 3.71893 96.7394C3.20765 97.4544 2.41877 98.5575 2.35415 99.8822C2.30198 100.952 2.56125 101.89 3.24079 102.568C3.88976 103.215 4.74113 103.439 5.47432 103.511C6.21596 103.584 7.00222 103.516 7.68603 103.432C8.03431 103.389 8.32935 103.346 8.59968 103.307C8.92637 103.259 9.21697 103.217 9.52183 103.186C10.1779 103.119 10.6556 102.533 10.5889 101.877C10.5222 101.221 9.93626 100.744 9.28023 100.81C8.96289 100.842 8.55741 100.9 8.16331 100.956C7.89002 100.995 7.62219 101.033 7.39304 101.062C6.74813 101.142 6.17664 101.181 5.70768 101.135C5.23027 101.088 5.01819 100.968 4.927 100.877C4.86639 100.816 4.70881 100.623 4.73925 99.9986C4.76815 99.4061 5.15332 98.8497 5.78999 97.9477C5.85351 97.8577 5.93806 97.7224 6.00973 97.6077C6.02376 97.5852 6.0373 97.5636 6.05009 97.5432C6.14299 97.3951 6.24076 97.2419 6.3391 97.101C6.41763 96.9885 6.48206 96.905 6.53034 96.8489ZM6.58411 96.7911C6.58481 96.7905 6.58516 96.7902 6.58516 96.7902C6.58516 96.7902 6.58481 96.7905 6.58411 96.7911Z" fill="#3A2D14"/>
<path fill-rule="evenodd" clip-rule="evenodd" d="M14.166 92.8288C14.6725 93.2509 14.741 94.0038 14.3188 94.5104C13.6939 95.2603 13.0157 96.0715 12.2534 96.8078C11.8216 97.2249 11.2555 97.704 10.621 98.0989C10.0009 98.4849 9.22614 98.8469 8.39378 98.9163C7.73664 98.9711 7.15954 98.4827 7.10478 97.8256C7.05002 97.1685 7.53833 96.5914 8.19547 96.5366C8.4927 96.5118 8.8921 96.3623 9.3591 96.0716C9.81163 95.7899 10.2454 95.4274 10.5944 95.0902C11.2499 94.4571 11.8494 93.7436 12.4844 92.9816C12.9065 92.4751 13.6594 92.4066 14.166 92.8288Z" fill="#3A2D14"/>
<path fill-rule="evenodd" clip-rule="evenodd" d="M6.16308 101.414C6.8225 101.414 7.35705 101.949 7.35705 102.608C7.35705 102.831 7.35415 103.037 7.35138 103.232C7.34556 103.644 7.34039 104.01 7.36453 104.396C7.41671 105.231 7.93802 106.294 8.57867 107.079C9.0777 107.691 9.7978 108.208 10.5115 108.446C11.137 108.655 11.4751 109.331 11.2666 109.957C11.0581 110.582 10.3819 110.92 9.75634 110.712C8.57179 110.317 7.48428 109.516 6.72806 108.588C5.91296 107.589 5.07603 106.062 4.98124 104.545C4.95117 104.064 4.95823 103.55 4.96446 103.097C4.96685 102.923 4.96912 102.759 4.96912 102.608C4.96912 101.949 5.50367 101.414 6.16308 101.414Z" fill="#3A2D14"/>
<path fill-rule="evenodd" clip-rule="evenodd" d="M16.3044 92.6262C16.2254 92.6311 16.1265 92.6441 15.9889 92.6673C15.7116 92.714 15.4207 92.7451 15.174 92.7715C15.1103 92.7783 15.0496 92.7848 14.9928 92.7912C14.6905 92.8251 14.4513 92.8594 14.2389 92.9148C14.1862 92.9286 14.1263 92.9454 14.0602 92.9639C13.7046 93.0635 13.1698 93.2133 12.6041 93.2133C11.9447 93.2133 11.4102 92.6788 11.4102 92.0193C11.4102 91.3599 11.9447 90.8254 12.6041 90.8254C12.8165 90.8254 12.9814 90.7806 13.3108 90.6912C13.4044 90.6658 13.5112 90.6368 13.6362 90.6042C14.0235 90.5032 14.4052 90.4542 14.7266 90.4181C14.8101 90.4088 14.8883 90.4004 14.9626 90.3924C15.1972 90.3671 15.3928 90.3461 15.5923 90.3125C15.9026 90.2603 16.3657 90.1911 16.8447 90.2768C17.3916 90.3748 17.8881 90.6578 18.2734 91.1617C18.7244 91.7514 19.1816 92.4605 19.2999 93.4572C19.4435 94.6673 19.3847 95.8797 18.3942 97.0683C18.0995 97.4219 17.7745 97.7232 17.49 97.9779C17.4166 98.0436 17.347 98.1053 17.2804 98.1644C17.0715 98.3496 16.8921 98.5086 16.7182 98.6826C16.6298 98.7709 16.5477 98.8634 16.4387 98.9862C16.4172 99.0103 16.3948 99.0356 16.371 99.0623C16.239 99.2104 16.0703 99.3968 15.8736 99.5739C15.6932 99.7362 15.5083 99.8235 15.3972 99.8695C15.3694 99.8811 15.3429 99.8913 15.319 99.9002C14.9654 100.201 14.4528 100.279 14.0115 100.058C13.4217 99.7634 13.1826 99.0462 13.4775 98.4564C13.6213 98.1688 13.8319 97.9854 14.0108 97.8731C14.1632 97.7775 14.3103 97.7233 14.3804 97.6986C14.4415 97.6363 14.5083 97.5633 14.5881 97.4737C14.6051 97.4547 14.623 97.4344 14.6418 97.4132C14.7499 97.2913 14.8864 97.1373 15.0297 96.994C15.2596 96.7641 15.5115 96.5409 15.7303 96.3472C15.7886 96.2955 15.8446 96.2459 15.8972 96.1988C16.1661 95.9581 16.3823 95.7525 16.5597 95.5395C16.9515 95.0694 17.0355 94.6392 16.9286 93.7385C16.8859 93.3785 16.7369 93.0852 16.3857 92.6243C16.3668 92.6237 16.3402 92.6239 16.3044 92.6262Z" fill="#3A2D14"/>
<path fill-rule="evenodd" clip-rule="evenodd" d="M17.385 92.8828C17.8508 92.416 18.6068 92.4153 19.0735 92.8811C19.7354 93.5418 20.0857 94.4168 20.278 95.2684C20.4725 96.1294 20.5295 97.074 20.5244 97.9856C20.5177 99.2125 20.39 100.546 20.2872 101.62C20.2417 102.095 20.2011 102.52 20.178 102.861C20.1491 103.289 20.1484 103.732 20.1504 104.213C20.1506 104.25 20.1507 104.287 20.1509 104.325C20.153 104.762 20.1552 105.234 20.1319 105.701C20.081 106.717 19.9057 107.854 19.2365 108.903C17.9806 110.87 16.3113 112.013 14.3564 112.792C12.1152 113.686 9.6218 113.486 7.57701 113.099C5.9904 112.798 4.04685 112.191 2.8256 110.357C2.37689 109.683 2.10502 108.782 2.075 107.917C2.04546 107.065 2.24804 106.005 3.05259 105.258C3.93277 104.441 4.88486 104.316 5.7275 104.316C6.38691 104.316 6.92146 104.851 6.92146 105.51C6.92146 106.17 6.38691 106.704 5.7275 106.704C5.15642 106.704 4.92153 106.782 4.67707 107.008C4.57837 107.1 4.4447 107.35 4.4615 107.834C4.47781 108.304 4.63484 108.765 4.8132 109.033C5.4806 110.035 6.59681 110.483 8.02128 110.752C9.93626 111.115 11.8754 111.211 13.4719 110.574C15.0796 109.933 16.2978 109.068 17.2237 107.618C17.5657 107.082 17.7043 106.433 17.7469 105.581C17.7668 105.183 17.765 104.774 17.7629 104.323C17.7628 104.29 17.7626 104.257 17.7625 104.223C17.7605 103.746 17.7601 103.224 17.7955 102.7C17.8268 102.237 17.8747 101.741 17.9248 101.223C18.0233 100.204 18.1303 99.0969 18.1365 97.9724C18.1411 97.1505 18.0872 96.4072 17.9488 95.7945C17.8082 95.1723 17.6035 94.7878 17.3866 94.5713C16.9199 94.1055 16.9192 93.3495 17.385 92.8828Z" fill="#3A2D14"/>
<path fill-rule="evenodd" clip-rule="evenodd" d="M74.2712 71.5667C74.7375 72.033 74.7375 72.789 74.2712 73.2553C73.7204 73.8061 73.2508 74.4728 72.7219 75.2234L72.6917 75.2663C71.9285 76.3496 71.0462 77.3605 70.1274 78.2792C69.6901 78.7165 69.1347 79.2014 68.4976 79.5826C67.8652 79.9609 67.0819 80.279 66.211 80.279C66.1428 80.279 66.0679 80.2799 65.9877 80.2808C65.5919 80.2852 65.065 80.2911 64.5574 80.2053C64.1972 80.1444 63.8457 80.0322 63.5883 79.95C63.5542 79.9391 63.5217 79.9288 63.4911 79.9191C63.1903 79.8243 63.0026 79.7751 62.84 79.7615C62.1829 79.7068 61.6945 79.1297 61.7493 78.4725C61.8041 77.8154 62.3812 77.3271 63.0383 77.3818C63.4938 77.4198 63.9087 77.547 64.2089 77.6416C64.244 77.6527 64.2777 77.6633 64.31 77.6736C64.5903 77.7622 64.7724 77.8198 64.9554 77.8508C65.2336 77.8978 65.4999 77.8957 65.88 77.8928C65.9814 77.892 66.091 77.8911 66.211 77.8911C66.5014 77.8911 66.8569 77.7815 67.2716 77.5334C67.6815 77.2881 68.0816 76.9479 68.4389 76.5906C69.2817 75.7479 70.0704 74.8409 70.7396 73.891C70.764 73.8564 70.7886 73.8214 70.8134 73.7862C71.3075 73.0841 71.8829 72.2665 72.5827 71.5667C73.049 71.1005 73.805 71.1005 74.2712 71.5667Z" fill="#3A2D14"/>
<path fill-rule="evenodd" clip-rule="evenodd" d="M77.5339 75.1042C78.1933 75.1042 78.7279 75.6388 78.7279 76.2982C78.7279 76.7592 78.5559 77.1085 78.4369 77.3145C78.3904 77.3949 78.3374 77.477 78.3046 77.5277C78.2987 77.537 78.2934 77.5452 78.2889 77.5521C78.2509 77.6115 78.2367 77.6361 78.2293 77.6504C78.2191 77.6703 78.2027 77.705 78.1813 77.7505C78.0938 77.9359 77.9226 78.2989 77.7455 78.5547C77.6464 78.6978 77.5699 78.8751 77.4542 79.1431C77.4151 79.2336 77.3715 79.3345 77.3211 79.4479C76.8924 80.4126 76.2007 81.2577 75.6609 81.9172C75.63 81.9549 75.5996 81.992 75.5699 82.0284C74.7191 83.0702 73.7246 84.2123 72.3458 85.0024C70.9566 85.7985 69.1498 86.6848 67.2581 86.7885C66.0968 86.8521 65.0473 86.7326 63.9595 86.4829C63.6157 86.404 63.3262 86.3665 63.0123 86.3665C62.3529 86.3665 61.8184 85.8319 61.8184 85.1725C61.8184 84.5131 62.3529 83.9786 63.0123 83.9786C63.5396 83.9786 64.0108 84.0447 64.4936 84.1555C65.4028 84.3642 66.2263 84.4535 67.1275 84.4041C68.4248 84.333 69.8173 83.6991 71.1586 82.9305C72.1242 82.3772 72.8827 81.5436 73.7203 80.518L73.7317 80.5041C74.335 79.7653 74.8438 79.1424 75.139 78.478C75.1573 78.4369 75.1791 78.3858 75.204 78.3272C75.3281 78.0354 75.5313 77.5578 75.7822 77.1954C75.8426 77.1081 75.8706 77.0474 75.9214 76.9375C75.9606 76.8526 76.0133 76.7383 76.1051 76.5596C76.1679 76.4372 76.2347 76.3319 76.2786 76.2635C76.2907 76.2445 76.3011 76.2283 76.3101 76.2143C76.3268 76.1884 76.3387 76.1698 76.3486 76.1541C76.4197 75.5627 76.9233 75.1042 77.5339 75.1042ZM76.3777 76.1045C76.3777 76.1045 76.3775 76.1049 76.3771 76.1057C76.3775 76.1049 76.3777 76.1045 76.3777 76.1045Z" fill="#3A2D14"/>
<path fill-rule="evenodd" clip-rule="evenodd" d="M73.0216 66.3533C73.6128 66.118 74.2496 66.083 74.6742 66.083C75.3336 66.083 75.8682 66.6176 75.8682 67.277C75.8682 67.9364 75.3336 68.4709 74.6742 68.4709C74.5188 68.4709 74.3656 68.4784 74.2248 68.4971C74.0815 68.5161 73.9758 68.5437 73.9049 68.5719C73.8957 68.5756 73.8877 68.579 73.8807 68.5822C73.8184 69.04 73.9252 69.4494 74.2042 69.8269C75.3878 71.4281 76.6228 72.9058 78.1256 73.9125C78.8588 74.4036 79.7783 74.7971 80.615 74.8837C81.4173 74.9668 82.0304 74.7693 82.4698 74.2266C82.6887 73.9562 82.7905 73.7557 82.8479 73.5753C82.908 73.3867 82.9413 73.152 82.9413 72.7776C82.9413 72.1182 83.4759 71.5836 84.1353 71.5836C84.7947 71.5836 85.3292 72.1182 85.3292 72.7776C85.3292 73.2846 85.2859 73.7892 85.1233 74.2999C84.9581 74.8188 84.6912 75.2777 84.3258 75.7291C83.2418 77.0681 81.7317 77.4 80.3691 77.259C79.0409 77.1215 77.7538 76.5375 76.7967 75.8965C74.931 74.6468 73.4933 72.8826 72.2839 71.2463C71.614 70.34 71.3491 69.2636 71.5319 68.144C71.6937 67.1532 72.3809 66.6084 73.0216 66.3533Z" fill="#3A2D14"/>
<path fill-rule="evenodd" clip-rule="evenodd" d="M91.7832 52.6655C91.5858 52.6902 91.3871 52.73 91.2369 52.762C90.668 52.8834 90.0598 53.0993 89.6109 53.3621C89.2091 53.5974 88.8254 53.9732 88.4308 54.4739C88.1217 54.8663 87.848 55.278 87.5582 55.7139C87.4714 55.8445 87.3831 55.9773 87.292 56.1124C86.9882 56.5629 86.748 57.0537 86.4653 57.6317C86.4219 57.7204 86.3775 57.8112 86.3317 57.9043C86.0058 58.5661 85.6145 59.3271 85.0494 60.0084C84.4279 60.758 83.1301 62.0335 81.3325 61.4343C80.2708 61.0804 79.994 60.1413 79.9299 59.563C79.8977 59.2723 79.9051 58.989 79.9141 58.7774C79.9178 58.6916 79.9213 58.6211 79.9244 58.5605C79.9303 58.4442 79.9343 58.3648 79.9335 58.2842C79.9235 57.2603 79.6576 56.7874 79.1821 56.5794C78.7759 56.4017 78.294 56.415 77.9462 56.5734C77.6409 56.7124 77.4864 56.9257 77.4807 57.2503C77.4699 57.865 77.5096 58.1803 77.6952 58.6792C77.9931 59.4797 78.1693 60.6361 77.8132 61.6535C77.6146 62.2208 77.2112 62.5509 76.9248 62.7378C76.7816 62.8313 76.6399 62.9065 76.5376 62.9599C76.5094 62.9747 76.4844 62.9876 76.462 62.9992C76.415 63.0237 76.3791 63.0423 76.3471 63.0597C76.0448 64.3375 75.9241 65.7768 76.1862 66.8945C76.304 67.3965 76.608 67.7574 77.1451 68.3949C77.2098 68.4717 77.2779 68.5526 77.3495 68.6381C77.7725 69.144 77.7054 69.897 77.1995 70.32C76.6937 70.743 75.9407 70.6759 75.5177 70.17C75.4601 70.1011 75.3971 70.0279 75.3303 69.9503C74.8313 69.3703 74.1204 68.5439 73.8614 67.4398C73.4723 65.781 73.6873 63.8849 74.0473 62.4102C74.1906 61.8231 74.6167 61.3013 75.102 61.0203C75.2008 60.9631 75.3099 60.9067 75.3878 60.8663C75.4042 60.8578 75.4193 60.85 75.4325 60.8431C75.5041 60.8057 75.5528 60.779 75.5895 60.7569C75.6609 60.4344 75.6193 59.9476 75.4572 59.5119C75.1415 58.6634 75.0786 58.0364 75.0931 57.2085C75.1172 55.8338 75.9381 54.8639 76.9565 54.4002C77.9324 53.9558 79.1224 53.9468 80.1392 54.3916C81.9561 55.1866 82.3087 56.9667 82.3214 58.2608C82.3229 58.418 82.3132 58.6093 82.3058 58.7572C82.3035 58.8027 82.3014 58.8441 82.2999 58.8791C82.2944 59.0076 82.2928 59.11 82.2959 59.1941C82.3616 59.186 82.4301 59.1617 82.5106 59.1189C82.714 59.0107 82.9496 58.7997 83.2113 58.4841C83.5803 58.0391 83.8669 57.5042 84.1894 56.8494C84.2294 56.7681 84.2702 56.6844 84.3121 56.5986C84.5884 56.0318 84.908 55.3766 85.3122 54.7772C85.3838 54.6711 85.459 54.5578 85.5376 54.4394C85.8348 53.9919 86.18 53.4722 86.5552 52.996C87.0368 52.3847 87.6371 51.7507 88.4042 51.3015C89.1249 50.8795 89.9867 50.5871 90.7387 50.4266C90.9378 50.3842 91.3217 50.305 91.7212 50.2714C91.9208 50.2545 92.157 50.246 92.3955 50.2686C92.6146 50.2894 92.9486 50.3457 93.2646 50.5389C93.9203 50.9395 94.0691 51.6626 94.1157 51.9378C94.1775 52.3026 94.1724 52.6629 94.17 52.83C94.1541 53.9212 93.703 54.8116 93.2296 55.5159C92.9246 55.9698 92.6475 56.4388 92.3498 56.9427C92.3145 57.0026 92.2788 57.063 92.2428 57.1238C91.9111 57.6845 91.5515 58.2829 91.1343 58.8634C91.05 58.9806 90.972 59.0871 90.8991 59.1866C90.6756 59.4916 90.5004 59.7307 90.3415 60.012C90.3413 60.0127 90.3329 60.0301 90.3099 60.0815C90.3073 60.0874 90.3045 60.0937 90.3015 60.1005C90.2771 60.1553 90.2398 60.2392 90.1993 60.3212C90.1547 60.4116 90.0857 60.5424 89.9917 60.6727C89.9098 60.7864 89.7325 61.0092 89.4356 61.1576C88.8458 61.4525 88.1286 61.2135 87.8337 60.6237C87.5937 60.1437 87.7074 59.5793 88.0759 59.2269C88.0885 59.1998 88.1024 59.1686 88.121 59.127L88.129 59.1089C88.1432 59.0772 88.1613 59.0369 88.1802 58.9967C88.1987 58.9577 88.2246 58.9045 88.2562 58.8484C88.4938 58.426 88.7824 58.0333 89.0231 57.7056C89.0841 57.6226 89.142 57.5438 89.1952 57.4697C89.5443 56.984 89.8566 56.4673 90.1877 55.9078C90.223 55.8481 90.2586 55.7878 90.2945 55.727C90.5876 55.2306 90.9012 54.6994 91.2477 54.1838C91.603 53.6553 91.7761 53.2244 91.7823 52.7952C91.7829 52.7527 91.7834 52.7095 91.7832 52.6655ZM92.1928 52.649C92.1927 52.6491 92.1891 52.6487 92.1826 52.6472C92.1897 52.6482 92.193 52.6489 92.1928 52.649ZM75.6511 60.7158C75.6511 60.7158 75.6509 60.716 75.6504 60.7163C75.6509 60.716 75.6511 60.7158 75.6511 60.7158Z" fill="#3A2D14"/>
<path d="M66.8446 78.503L63.2627 78.0055V84.9704H69.332L75.2024 80.7915L76.9933 75.5181L73.4114 72.0357L72.0185 73.8266L66.8446 78.503Z" fill="#3A2D14"/>
<path fill-rule="evenodd" clip-rule="evenodd" d="M24.0923 121.115C24.7517 121.115 25.2863 121.65 25.2863 122.309C25.2863 123.502 25.0467 124.646 24.7986 125.683C24.7445 125.91 24.6905 126.129 24.6377 126.344C24.4388 127.153 24.2573 127.891 24.1547 128.643C23.6032 132.688 23.0544 136.729 22.8302 140.744C22.7393 142.373 22.5643 144.005 22.3929 145.602C22.355 145.955 22.3172 146.307 22.2806 146.657C22.0767 148.605 21.9055 150.506 21.9055 152.398C21.9055 153.057 21.371 153.592 20.7115 153.592C20.0521 153.592 19.5176 153.057 19.5176 152.398C19.5176 150.373 19.7007 148.367 19.9056 146.409C19.9437 146.045 19.9824 145.684 20.0209 145.325C20.1918 143.731 20.3588 142.173 20.446 140.611C20.6764 136.485 21.2393 132.35 21.7886 128.321C21.9101 127.43 22.1308 126.535 22.3334 125.713C22.3826 125.513 22.4307 125.318 22.4761 125.128C22.7181 124.116 22.8984 123.203 22.8984 122.309C22.8984 121.65 23.4329 121.115 24.0923 121.115Z" fill="#3A2D14"/>
<path fill-rule="evenodd" clip-rule="evenodd" d="M28.4869 124.608C29.1463 124.608 29.6809 125.143 29.6809 125.802C29.6809 126.824 29.4783 127.685 29.1981 128.558C28.608 130.399 28.316 132.331 28.0118 134.343C27.9199 134.951 27.8268 135.567 27.7241 136.189L27.7117 136.264C27.1616 139.598 26.6048 142.972 26.5251 146.241C26.5041 147.101 26.4471 148.379 26.3959 149.432C26.3702 149.961 26.3458 150.437 26.3279 150.78C26.3189 150.952 26.3115 151.091 26.3064 151.187L26.2983 151.336C26.2983 151.336 26.2983 151.336 25.1061 151.271C23.9139 151.206 23.9139 151.206 23.9139 151.206L23.9218 151.059C23.9269 150.964 23.9343 150.826 23.9432 150.655C23.9611 150.314 23.9853 149.841 24.0108 149.316C24.062 148.262 24.1177 147.011 24.1379 146.183C24.2217 142.746 24.8016 139.233 25.3429 135.953L25.368 135.8C25.4585 135.252 25.5439 134.686 25.631 134.108C25.9394 132.062 26.2696 129.871 26.9242 127.829C27.1638 127.082 27.2929 126.484 27.2929 125.802C27.2929 125.143 27.8275 124.608 28.4869 124.608ZM25.041 152.463C24.3825 152.427 23.8779 151.864 23.9139 151.206L25.1061 151.271L26.2983 151.336C26.2623 151.994 25.6994 152.499 25.041 152.463Z" fill="#3A2D14"/>
<path fill-rule="evenodd" clip-rule="evenodd" d="M17.4949 149.993C18.3381 149.519 19.3115 149.381 20.1833 149.381C20.8427 149.381 21.3772 149.916 21.3772 150.575C21.3772 151.235 20.8427 151.769 20.1833 151.769C19.524 151.769 19.012 151.88 18.6664 152.074C18.3712 152.24 18.14 152.495 18.0375 152.996C18.0276 153.045 18.0119 153.16 18.2437 153.424C18.4874 153.701 18.8473 153.958 19.2471 154.227C19.9748 154.717 20.4792 154.924 21.2671 154.984C21.9246 155.035 22.4166 155.609 22.366 156.266C22.3154 156.924 21.7415 157.416 21.084 157.365C19.7905 157.266 18.8963 156.869 17.9142 156.208C17.5365 155.954 16.9252 155.542 16.4494 155C15.9618 154.444 15.4785 153.591 15.698 152.518C15.9403 151.333 16.6014 150.496 17.4949 149.993Z" fill="#3A2D14"/>
<path fill-rule="evenodd" clip-rule="evenodd" d="M26.212 151.955C26.5069 152.545 26.2679 153.262 25.6781 153.557C25.6641 153.564 25.65 153.571 25.6358 153.578C25.1444 153.824 24.4897 154.152 23.6119 154.175C22.966 154.192 22.3436 154.131 21.7961 154.076C21.7705 154.073 21.745 154.071 21.7197 154.068C21.1827 154.014 20.7182 153.967 20.2535 153.967C19.5941 153.967 19.0596 153.432 19.0596 152.773C19.0596 152.113 19.5941 151.579 20.2535 151.579C20.8436 151.579 21.4205 151.637 21.9294 151.689C21.9654 151.693 22.0011 151.696 22.0364 151.7C22.5928 151.756 23.0748 151.8 23.5499 151.788C23.858 151.78 24.0861 151.683 24.6102 151.421C25.2 151.126 25.9171 151.365 26.212 151.955Z" fill="#3A2D14"/>
<path fill-rule="evenodd" clip-rule="evenodd" d="M27.3797 151.98C27.0696 151.676 26.7868 151.628 25.8528 151.628C25.1934 151.628 24.6588 151.093 24.6588 150.434C24.6588 149.774 25.1934 149.24 25.8528 149.24C25.8712 149.24 25.8897 149.24 25.9084 149.24C26.7812 149.239 27.9945 149.239 29.0511 150.274C29.4174 150.633 29.8051 151.153 30.0797 151.722C30.3382 152.257 30.5991 153.047 30.3975 153.854C30.2394 154.486 29.8497 154.955 29.4573 155.288C29.0653 155.62 28.607 155.87 28.1804 156.062C27.4419 156.394 26.625 156.623 26.1015 156.769C26.0271 156.79 25.9587 156.809 25.8973 156.827C25.2632 157.008 24.6024 156.641 24.4212 156.007C24.2401 155.373 24.6072 154.712 25.2413 154.531C25.3165 154.509 25.3943 154.487 25.4741 154.465C26.0109 154.314 26.6396 154.137 27.2011 153.884C27.5186 153.741 27.7567 153.599 27.914 153.465C28.0517 153.349 28.0782 153.282 28.0809 153.274" fill="#3A2D14"/>
<path fill-rule="evenodd" clip-rule="evenodd" d="M17.7118 156.76C18.2402 156.514 18.5218 155.911 18.3493 155.336C18.1598 154.704 17.4942 154.346 16.8626 154.535C16.5695 154.623 16.3512 154.782 16.2193 154.892C16.0803 155.007 15.9625 155.132 15.8792 155.224C15.8357 155.272 15.794 155.319 15.7595 155.359L15.758 155.36C15.7219 155.401 15.6939 155.433 15.6672 155.463C15.6215 155.514 15.6028 155.531 15.603 155.531C15.603 155.531 15.603 155.531 15.603 155.531C15.0937 155.944 15.0126 156.691 15.4228 157.204C15.8347 157.719 16.5861 157.803 17.101 157.391C17.2439 157.276 17.3635 157.147 17.4391 157.064C17.4779 157.021 17.5164 156.977 17.5487 156.94L17.5546 156.933C17.5904 156.893 17.6197 156.859 17.6481 156.828C17.6755 156.798 17.6963 156.776 17.7118 156.76ZM17.7437 156.73C17.7444 156.729 17.7451 156.728 17.7457 156.728C17.7493 156.725 17.7486 156.726 17.7437 156.73Z" fill="#3A2D14"/>
<path fill-rule="evenodd" clip-rule="evenodd" d="M5.18516 156.801C7.439 154.843 10.8468 154.374 13.5073 154.936C13.5272 154.94 13.5473 154.944 13.5677 154.948C14.0974 155.06 14.7977 155.208 15.424 155.463C15.6845 155.569 15.9885 155.735 16.2011 155.851C16.2693 155.888 16.3281 155.92 16.373 155.943C16.6368 156.08 16.7583 156.114 16.8182 156.12C17.4749 156.179 17.9588 156.76 17.8991 157.417C17.8394 158.074 17.2587 158.557 16.602 158.498C16.0537 158.448 15.5856 158.225 15.2725 158.063C15.1222 157.985 15.0082 157.922 14.9129 157.87C14.7598 157.786 14.6546 157.728 14.5231 157.674C14.1087 157.505 13.6015 157.396 13.0141 157.272C10.8778 156.821 8.29695 157.261 6.75109 158.604C5.74929 159.474 4.77987 160.513 4.12766 161.578C3.64913 162.36 3.54401 163.448 3.69479 164.604C3.79436 165.368 4.19007 166.202 4.6816 167.075C4.93187 167.52 5.3583 167.868 5.97338 168.156C6.5988 168.449 7.32646 168.639 8.09109 168.818C9.15685 169.067 10.2471 169.177 11.3917 169.212C11.5809 169.218 11.7653 169.225 11.9452 169.231C12.9181 169.268 13.761 169.299 14.5314 169.132C15.7657 168.864 17.0487 168.123 18.2424 167.28C18.8135 166.877 19.3644 166.431 19.9461 165.957C19.9777 165.931 20.0094 165.905 20.0412 165.879C20.5848 165.435 21.1583 164.967 21.7582 164.532C22.0759 164.302 22.4889 164.055 22.9552 163.891C23.4155 163.73 24.0152 163.619 24.6451 163.785C24.8265 163.833 24.9692 163.875 25.0955 163.911C25.2874 163.967 25.4416 164.012 25.636 164.051C25.8752 164.099 26.0334 164.101 26.1535 164.077C26.1716 164.062 26.2071 164.027 26.2588 163.961C26.3735 163.813 26.4716 163.638 26.6022 163.405C26.6144 163.384 26.6269 163.361 26.6398 163.339C26.918 162.844 27.0628 162.319 27.1123 161.688C27.2184 160.337 27.0481 159.136 26.5805 157.873C26.5515 157.795 26.5287 157.718 26.5122 157.66C26.4952 157.6 26.4787 157.537 26.4651 157.485L26.465 157.485C26.4348 157.37 26.4118 157.283 26.3865 157.204C26.3843 157.197 26.3821 157.191 26.3801 157.185C26.007 156.833 25.8908 156.265 26.1321 155.782C26.427 155.193 27.1442 154.954 27.734 155.249C28.1129 155.438 28.3219 155.744 28.4254 155.925C28.5379 156.121 28.6112 156.323 28.6592 156.471C28.7062 156.617 28.7444 156.763 28.771 156.865L28.7749 156.879C28.7896 156.936 28.8002 156.976 28.8096 157.009C28.8171 157.035 28.8206 157.046 28.8208 157.047C29.4068 158.63 29.6262 160.177 29.4929 161.875C29.4213 162.787 29.1984 163.661 28.721 164.509C28.7091 164.531 28.6962 164.554 28.6823 164.579C28.5649 164.789 28.3771 165.126 28.1444 165.426C27.8884 165.755 27.4545 166.207 26.7966 166.379C26.187 166.538 25.6214 166.483 25.1675 166.392C24.883 166.335 24.5475 166.239 24.2939 166.167C24.1925 166.137 24.1042 166.112 24.0374 166.095C24.0264 166.092 23.9395 166.077 23.7462 166.144C23.5589 166.21 23.3513 166.327 23.1599 166.466C22.617 166.859 22.0922 167.287 21.5355 167.742C21.5089 167.763 21.4822 167.785 21.4555 167.807C20.8788 168.277 20.2676 168.773 19.6195 169.231C18.3629 170.118 16.7575 171.093 15.0377 171.466C13.9435 171.703 12.7465 171.655 11.7874 171.616C11.6234 171.61 11.4664 171.603 11.318 171.599C10.0708 171.56 8.8132 171.439 7.54657 171.143C6.78303 170.964 5.83527 170.729 4.96055 170.319C4.0755 169.904 3.17708 169.272 2.60033 168.246C2.09976 167.356 1.49118 166.173 1.32691 164.913C1.14446 163.514 1.20248 161.783 2.0911 160.332C2.91315 158.989 4.07219 157.768 5.18516 156.801Z" fill="#3A2D14"/>
<path fill-rule="evenodd" clip-rule="evenodd" d="M47.6426 125.836C48.2316 125.539 48.9494 125.776 49.246 126.365C49.4091 126.689 49.5801 127.02 49.754 127.358C50.2411 128.301 50.7519 129.291 51.1832 130.299C51.7227 131.561 52.1394 132.875 52.5336 134.119C52.5853 134.282 52.6366 134.443 52.6877 134.604C53.6023 137.471 54.3011 140.438 54.7767 143.405C54.9318 144.372 54.9673 145.388 54.9996 146.313C55.012 146.667 55.0239 147.007 55.0419 147.327C55.0991 148.343 55.1543 149.378 55.1812 150.415C55.1965 151.002 55.1925 151.603 55.1888 152.18C55.1871 152.431 55.1855 152.676 55.1855 152.914C55.1855 153.574 54.651 154.108 53.9916 154.108C53.3322 154.108 52.7976 153.574 52.7976 152.914C52.7976 152.642 52.7994 152.378 52.8011 152.118C52.8048 151.561 52.8083 151.024 52.7941 150.477C52.7682 149.479 52.7149 148.476 52.6577 147.461C52.6334 147.03 52.6194 146.625 52.606 146.237C52.5762 145.376 52.5493 144.596 52.4189 143.783C51.9615 140.93 51.2898 138.079 50.4127 135.329C50.3603 135.165 50.3084 135.002 50.2569 134.839C49.8583 133.583 49.4783 132.386 48.9877 131.239C48.593 130.316 48.1415 129.441 47.6676 128.523C47.4855 128.17 47.3 127.81 47.1132 127.439C46.8166 126.85 47.0536 126.132 47.6426 125.836Z" fill="#3A2D14"/>
<path fill-rule="evenodd" clip-rule="evenodd" d="M52.8193 124.03C53.3876 123.696 54.1194 123.886 54.4538 124.454C56.5247 127.975 58.5638 131.778 59.4038 136.027C59.9657 138.868 60.0976 141.806 60.2245 144.632C60.2732 145.717 60.3212 146.784 60.3924 147.824C60.4229 148.27 60.4581 148.709 60.4943 149.163L60.4977 149.204C60.4991 149.222 60.5009 149.247 60.5031 149.279C60.5136 149.424 60.5338 149.705 60.5683 149.989C60.585 150.126 60.6023 150.239 60.6183 150.321C60.8178 150.658 60.8473 151.087 60.6589 151.464C60.364 152.054 59.6468 152.293 59.0571 151.998C58.8015 151.87 58.6531 151.687 58.5836 151.589C58.5069 151.481 58.4578 151.379 58.428 151.309C58.3684 151.17 58.331 151.031 58.3071 150.93C58.2573 150.719 58.2225 150.48 58.1979 150.277C58.1723 150.067 58.1533 149.859 58.1402 149.699C58.1319 149.597 58.114 149.354 58.1173 149.395L58.1136 149.348C58.0776 148.899 58.0415 148.447 58.01 147.987C57.9303 146.824 57.8792 145.683 57.8288 144.559C57.7052 141.802 57.586 139.144 57.0612 136.49C56.3055 132.668 54.4532 129.163 52.3955 125.665C52.0612 125.096 52.2509 124.365 52.8193 124.03Z" fill="#3A2D14"/>
<path fill-rule="evenodd" clip-rule="evenodd" d="M60.931 151.503C61.3972 151.969 61.3972 152.725 60.931 153.192C60.6294 153.493 60.3099 153.707 59.8455 153.846C59.7085 153.887 59.5602 153.934 59.403 153.983C58.8338 154.163 58.1485 154.38 57.4669 154.481C56.7084 154.594 55.9404 154.602 55.2303 154.587C54.9226 154.581 54.6408 154.57 54.3706 154.561C53.9745 154.547 53.6032 154.534 53.2115 154.534C52.5521 154.534 52.0176 153.999 52.0176 153.34C52.0176 152.68 52.5521 152.146 53.2115 152.146C53.6295 152.146 54.0917 152.162 54.531 152.177C54.794 152.186 55.0488 152.195 55.281 152.2C55.9502 152.214 56.5583 152.202 57.1151 152.119C57.5921 152.048 58.0286 151.911 58.5586 151.744C58.7462 151.685 58.9455 151.622 59.1624 151.558C59.1795 151.553 59.1901 151.549 59.1959 151.546C59.2033 151.54 59.2181 151.527 59.2424 151.503C59.7087 151.037 60.4647 151.037 60.931 151.503ZM59.1902 151.551C59.1902 151.551 59.1906 151.551 59.1914 151.55C59.1905 151.551 59.1902 151.551 59.1902 151.551Z" fill="#3A2D14"/>
<path fill-rule="evenodd" clip-rule="evenodd" d="M52.5679 150.585C52.6203 150.586 52.6697 150.586 52.7157 150.586C53.3751 150.586 53.9097 151.121 53.9097 151.78C53.9097 152.44 53.3751 152.974 52.7157 152.974C52.0058 152.974 51.7955 152.979 51.5737 153.104C51.2572 153.282 51.133 153.406 51.0794 153.484C51.0468 153.531 50.9959 153.619 51.0065 153.863C51.0149 154.056 51.1057 154.283 51.3607 154.56C51.6211 154.843 51.9869 155.106 52.3906 155.347C53.166 155.809 54.0047 155.996 55.0406 156.045C55.6993 156.077 56.2078 156.636 56.1764 157.295C56.1451 157.953 55.5857 158.462 54.927 158.431C53.6575 158.37 52.3929 158.129 51.1665 157.397C50.6832 157.108 50.0912 156.707 49.6031 156.176C49.1096 155.64 48.6615 154.902 48.6208 153.966C48.5912 153.285 48.7427 152.665 49.1147 152.126C49.4657 151.618 49.9484 151.279 50.4004 151.024C51.2015 150.572 52.0391 150.58 52.5679 150.585Z" fill="#3A2D14"/>
<path fill-rule="evenodd" clip-rule="evenodd" d="M59.3894 151.568C59.3894 150.908 59.924 150.374 60.5834 150.374C62.6731 150.374 63.9879 152.222 64.2253 153.813C64.4534 155.341 63.6678 156.498 62.7225 157.21C61.8024 157.903 60.6232 158.28 59.6118 158.358C58.9543 158.408 58.3803 157.916 58.3297 157.259C58.2792 156.601 58.7712 156.027 59.4286 155.977C60.0532 155.929 60.7804 155.684 61.2857 155.303C61.7656 154.941 61.9242 154.572 61.8635 154.166C61.7354 153.307 61.0963 152.762 60.5834 152.762C59.924 152.762 59.3894 152.227 59.3894 151.568Z" fill="#3A2D14"/>
<path fill-rule="evenodd" clip-rule="evenodd" d="M74.4625 149.9C75.3672 149.956 76.3668 150.144 77.2473 150.659C79.258 151.834 80.5606 154.041 81.1359 156.051C81.6179 157.735 81.4967 159.508 81.3747 160.975C81.282 162.09 81.1053 163.526 80.2994 164.747C79.0507 166.64 76.7768 168.305 74.2449 168.351C72.2425 168.387 70.1289 168.414 68.049 168.207C67.2845 168.131 66.4681 168.021 65.6683 167.824C65.4722 167.776 65.306 167.731 65.1588 167.692C64.7879 167.592 64.5377 167.525 64.235 167.511C62.6846 167.436 61.0873 167.698 59.4177 168.011C57.7536 168.324 55.7264 168.543 53.8557 168.173C51.9357 167.792 50.1127 166.768 49.1076 164.59C48.42 163.1 48.5069 161.558 48.8455 160.196C49.1809 158.847 49.7957 157.552 50.291 156.512C50.5745 155.917 51.287 155.664 51.8824 155.947C52.4777 156.231 52.7305 156.943 52.447 157.539C51.9373 158.609 51.4312 159.693 51.1629 160.772C50.898 161.837 50.8987 162.772 51.2757 163.589C51.8829 164.905 52.9479 165.558 54.3201 165.83C55.7417 166.112 57.411 165.959 58.9765 165.665C60.642 165.351 62.4889 165.036 64.3499 165.126C64.9345 165.154 65.5229 165.313 65.9507 165.429C66.0581 165.458 66.1554 165.485 66.24 165.505C66.8822 165.664 67.5719 165.76 68.2852 165.831C70.2071 166.022 72.1889 166 74.2015 165.963C75.7418 165.935 77.3646 164.859 78.3062 163.432C78.7486 162.761 78.9037 161.875 78.995 160.777C79.1196 159.279 79.1866 157.919 78.8401 156.708C78.3724 155.074 77.3562 153.488 76.0425 152.721C75.6114 152.469 75.0284 152.328 74.313 152.283C73.6034 152.238 72.8542 152.293 72.1332 152.362C71.0611 152.466 70.3595 152.896 69.2696 153.693C68.4429 154.298 67.7209 154.935 67.1827 155.673C66.9758 155.957 66.7925 156.256 66.5803 156.603C66.535 156.677 66.4883 156.753 66.4399 156.831C66.1789 157.255 65.8719 157.736 65.4894 158.181C65.2584 158.45 64.8133 158.8 64.3598 158.983C64.1735 159.058 63.6634 159.242 63.1146 159.017C62.5605 158.79 62.3368 158.333 62.2596 157.948C61.7111 157.582 61.563 156.841 61.9287 156.292C62.2945 155.743 63.0358 155.595 63.5844 155.961C63.5913 155.966 63.6008 155.972 63.6126 155.979C63.6816 156.024 63.8283 156.119 63.9748 156.242C64.1161 156.043 64.2563 155.823 64.4073 155.578C64.4465 155.515 64.4868 155.449 64.5283 155.381C64.7412 155.033 64.9841 154.635 65.2532 154.266C65.9969 153.246 66.938 152.44 67.86 151.766C69.0026 150.93 70.1492 150.155 71.9031 149.985C72.6436 149.914 73.5519 149.843 74.4625 149.9Z" fill="#3A2D14"/>
<path d="M20.7773 152.231L24.2598 121.585L28.5381 124.968L24.2598 152.231H20.7773Z" fill="#3A2D14"/>
<path d="M53.2139 139.108L48.04 126.828L53.2139 124.371L58.3878 136.755V146.784L60.1787 153.027H54.1094L53.2139 139.108Z" fill="#3A2D14"/>
<path d="M23.7194 25.32L24.5729 22.3225L26.9395 21.7559L28.603 22.8707L32.3319 34.3146L32.0122 42.9453L29.6456 43.5118L27.1978 39.8498L25.3663 32.1997L23.7194 25.32Z" fill="#EFEBD2"/>
<path fill-rule="evenodd" clip-rule="evenodd" d="M27.0281 20.8132C27.6694 20.6597 28.3137 21.0551 28.4672 21.6964C28.6097 22.2914 28.6295 22.8588 28.6204 23.3582C28.6162 23.589 28.6054 23.8184 28.5954 24.0283C28.5947 24.0441 28.5939 24.0598 28.5932 24.0753C28.5824 24.3045 28.5731 24.5124 28.5711 24.7167C28.5634 25.4828 28.6312 26.2263 28.7589 27.0057C28.765 27.0432 28.7699 27.0801 28.7735 27.1104C28.9868 27.2173 29.194 27.3261 29.3892 27.4287C29.4495 27.4603 29.5086 27.4913 29.5664 27.5215C29.6 27.5391 29.6331 27.5564 29.6658 27.5735C29.9922 27.7443 30.2739 27.8917 30.5702 28.0248C30.5804 28.0282 30.6027 28.0358 30.6433 28.0496C30.7068 28.0712 30.8365 28.1159 30.9671 28.1802C31.0334 28.2129 31.1311 28.2655 31.2333 28.3429C31.3253 28.4125 31.4973 28.5587 31.6211 28.8012C31.7671 29.0875 31.8154 29.4551 31.6783 29.8189C31.6385 29.9247 31.5881 30.0161 31.5343 30.0943C31.6606 30.3576 31.7325 30.6322 31.7603 30.7386C31.7634 30.7505 31.7659 30.7602 31.768 30.7676C31.9801 31.5469 32.1657 32.3532 32.3447 33.1308C32.4263 33.4854 32.5066 33.834 32.5873 34.1714C32.6842 34.5759 32.7886 34.9916 32.895 35.4148C33.1762 36.5342 33.4709 37.7072 33.6747 38.8714C33.6853 38.9315 33.7028 39.0071 33.7307 39.1268C33.744 39.184 33.7596 39.2514 33.778 39.332C33.8274 39.5489 33.8867 39.8244 33.926 40.1095C33.964 40.3857 33.9922 40.7313 33.95 41.0773C33.9096 41.4086 33.7836 41.9105 33.3571 42.2954C33.3539 42.2983 33.3504 42.3016 33.3464 42.3051C33.3073 42.3406 33.2312 42.4097 33.1381 42.4792C33.1383 42.4993 33.1384 42.5192 33.138 42.5354C33.1322 42.6153 33.0758 42.8715 33.0041 43.0395C32.7145 43.4012 31.8221 43.6759 31.3557 43.5267C31.193 43.4158 30.9968 43.214 30.9476 43.1447C30.887 43.0527 30.8523 42.9702 30.8477 42.9593L30.8473 42.9583C30.8296 42.9169 30.8178 42.8826 30.8154 42.8757L30.8152 42.875C30.7972 42.8228 30.7657 42.7109 30.7353 42.6031L30.73 42.5845C30.5293 41.873 30.273 41.2345 29.9938 40.539C29.8223 40.1118 29.6422 39.6631 29.4611 39.1629C29.0123 37.9236 28.621 36.6377 28.241 35.3888C28.0711 34.8306 27.9035 34.2799 27.7341 33.744C27.717 33.6901 27.6866 33.6092 27.6308 33.4615C27.5812 33.3303 27.5178 33.1619 27.4605 32.9872C27.4041 32.8151 27.3433 32.6065 27.3057 32.3903C27.2712 32.1923 27.2364 31.8837 27.3129 31.5551C27.3714 31.3041 27.4863 31.1147 27.5827 30.988C27.6758 30.8658 27.7723 30.7756 27.8256 30.7273C27.8516 30.7038 27.8771 30.6817 27.8928 30.6679L27.8949 30.6661C27.9225 30.6274 27.9507 30.5877 27.9796 30.547C28.1597 30.2934 28.3651 30.004 28.5985 29.7102C28.5872 29.7043 28.576 29.6984 28.5648 29.6926C28.5296 29.6741 28.4948 29.6559 28.4603 29.6379C28.3943 29.6034 28.3297 29.5695 28.2662 29.5362C27.9369 29.3633 27.6386 29.2068 27.3321 29.0659C26.9234 28.8779 26.7224 28.5489 26.6335 28.3663C26.5388 28.172 26.4924 27.9823 26.4673 27.8576C26.4405 27.7247 26.4254 27.5999 26.4161 27.5171C26.4136 27.4956 26.4114 27.4753 26.4096 27.458L26.4093 27.4557C26.4075 27.4387 26.4061 27.4255 26.4047 27.4133C26.4029 27.3968 26.4019 27.389 26.4016 27.3871C26.2565 26.4999 26.174 25.6187 26.1833 24.6928C26.1858 24.4386 26.1972 24.1896 26.2079 23.9628C26.2085 23.9496 26.2091 23.9365 26.2098 23.9235C26.22 23.7058 26.2293 23.5093 26.2329 23.3147C26.2403 22.9053 26.22 22.566 26.1449 22.2524C25.9914 21.6111 26.3868 20.9667 27.0281 20.8132ZM30.783 42.7617C30.783 42.7616 30.7828 42.7607 30.7824 42.759ZM27.9269 30.638C27.9265 30.6384 27.9262 30.6387 27.9258 30.639C27.9303 30.6347 27.9311 30.6342 27.9269 30.638ZM28.8114 27.4C28.8114 27.4001 28.8109 27.3985 28.8102 27.3953C28.811 27.3983 28.8114 27.4 28.8114 27.4Z" fill="#3A2D14"/>
<path fill-rule="evenodd" clip-rule="evenodd" d="M24.209 20.7272C24.3746 20.5662 24.6716 20.3146 25.1123 20.2091C25.2642 20.1728 25.4162 20.1672 25.5618 20.1884C27.8002 19.6545 30.1746 20.9866 30.9454 23.2571C31.6732 25.4007 32.2741 27.603 32.8095 29.7721C33.2343 31.4934 33.6414 33.2186 34.0459 34.9368C34.3154 36.0818 34.5707 37.244 34.7899 38.4125C34.9652 39.3473 35.0011 40.3332 34.7515 41.3482C34.2222 43.5 31.9783 44.96 29.7906 44.4378C28.6318 44.1612 27.9164 43.3873 27.4548 42.6243C27.0946 42.0287 26.8297 41.3309 26.6253 40.7923C26.583 40.6809 26.5433 40.5763 26.5059 40.4809C25.9303 39.0126 25.4189 37.5687 24.9943 36.0217C24.6806 34.8788 24.409 33.7086 24.144 32.5671C24.0357 32.1003 23.9285 31.6383 23.8199 31.1849C23.7258 30.7916 23.6148 30.3665 23.4996 29.925C23.2875 29.1125 23.0609 28.2444 22.8978 27.4166C22.6364 26.0896 22.4873 24.6606 22.7267 23.1945C22.8411 22.4938 23.1892 21.8883 23.5723 21.4194C23.6542 21.2316 23.7856 21.0623 23.9632 20.9329C24.0101 20.8988 24.0573 20.8657 24.1047 20.8336C24.1364 20.7999 24.1717 20.7635 24.209 20.7272ZM25.634 22.6988C25.6216 22.7116 25.6089 22.7246 25.5961 22.7374C25.2914 23.0421 25.12 23.355 25.0834 23.5793C24.9085 24.6504 25.0062 25.7648 25.2407 26.9551C25.3925 27.7256 25.5821 28.449 25.7796 29.2023C25.8998 29.661 26.023 30.1307 26.1423 30.629C26.2592 31.1176 26.3711 31.5999 26.482 32.0775C26.7422 33.1989 26.9966 34.2949 27.297 35.3896C27.6921 36.8291 28.1723 38.189 28.7291 39.6093C28.7854 39.753 28.8381 39.8908 28.8888 40.0234C29.091 40.552 29.2609 40.9962 29.4981 41.3884C29.7679 41.8345 30.028 42.0395 30.345 42.1151C31.1939 42.3177 32.2014 41.7182 32.4327 40.7779C32.5811 40.1745 32.5727 39.545 32.4429 38.8527C32.2325 37.7313 31.9858 36.6066 31.7215 35.484C31.3169 33.765 30.9124 32.0514 30.4911 30.3443C29.9644 28.2101 29.3819 26.0796 28.6843 24.0248C28.2267 22.677 26.7576 22.1144 25.634 22.6988Z" fill="#3A2D14"/>
<path fill-rule="evenodd" clip-rule="evenodd" d="M29.2231 22.849C29.223 22.8474 29.223 22.8461 29.2229 22.8451C29.2233 22.8527 29.2237 22.8603 29.2242 22.8679C29.2238 22.8597 29.2234 22.8533 29.2231 22.849ZM30.937 26.9885C30.9329 26.9651 30.928 26.9417 30.9224 26.9183C30.705 26.0103 30.4539 25.0899 30.0644 24.1567C29.8658 23.6808 29.6394 23.1904 29.3746 22.7147C29.343 22.6579 29.2432 22.4986 29.1563 22.3729C29.1196 22.3196 29.0394 22.2046 28.9467 22.1051C28.9203 22.0768 28.8729 22.0279 28.8092 21.976L28.8078 21.9748C28.7681 21.9425 28.606 21.8103 28.3576 21.7421C28.2162 21.7032 27.9746 21.6652 27.6934 21.7496C27.3869 21.8415 27.1629 22.0398 27.0263 22.2538C26.8154 22.5845 26.8347 22.9116 26.8383 22.9722C26.8384 22.9739 26.8385 22.9754 26.8386 22.9767C26.8521 23.2217 26.8697 23.4661 26.8865 23.6993L26.8881 23.7223C26.9056 23.966 26.9222 24.1979 26.9344 24.4276C26.9385 24.5049 26.9411 24.6064 26.9441 24.7251C26.9549 25.15 26.9713 25.7953 27.0843 26.338C27.2419 27.0945 27.6638 28.0973 28.8263 28.5065C29.0759 28.5944 29.2032 28.6629 29.2927 28.7279C29.3789 28.7905 29.4819 28.8875 29.6302 29.0937C29.649 29.1199 29.7011 29.2206 29.7607 29.4919C29.7872 29.6125 29.8096 29.7373 29.8363 29.8866L29.8404 29.9095C29.8669 30.0576 29.8994 30.2381 29.9411 30.4123C30.0946 31.0536 30.7389 31.449 31.3802 31.2955C32.0215 31.142 32.4169 30.4976 32.2634 29.8563C32.2402 29.7595 32.2189 29.645 32.191 29.4887C32.189 29.4779 32.187 29.4668 32.185 29.4555C32.1602 29.3165 32.13 29.1478 32.093 28.9793C32.0169 28.6328 31.8826 28.1359 31.5691 27.6999C31.3784 27.4346 31.1748 27.1973 30.937 26.9885Z" fill="#3A2D14"/>
<path d="M38.2076 18.8271L39.0612 15.8296L41.4278 15.263L43.0913 16.3777L46.8202 27.8216L46.5005 36.4523L44.1339 37.0189L41.6861 33.3569L39.8546 25.7068L38.2076 18.8271Z" fill="#EFEBD2"/>
<path fill-rule="evenodd" clip-rule="evenodd" d="M41.5164 14.3203C42.1577 14.1668 42.802 14.5622 42.9555 15.2035C43.098 15.7985 43.1178 16.3659 43.1087 16.8652C43.1045 17.096 43.0936 17.3254 43.0837 17.5354C43.0829 17.5512 43.0822 17.5669 43.0815 17.5824C43.0706 17.8116 43.0614 18.0195 43.0594 18.2237C43.0517 18.9899 43.1195 19.7334 43.2472 20.5128C43.2533 20.5503 43.2582 20.5872 43.2618 20.6174C43.4751 20.7244 43.6822 20.8332 43.8775 20.9357C43.9377 20.9674 43.9968 20.9984 44.0546 21.0286C44.0883 21.0462 44.1214 21.0635 44.154 21.0806C44.4805 21.2514 44.7622 21.3988 45.0584 21.5319C45.0687 21.5353 45.0909 21.5429 45.1316 21.5567C45.1951 21.5783 45.3248 21.623 45.4554 21.6873C45.5217 21.72 45.6193 21.7726 45.7216 21.85C45.8136 21.9196 45.9856 22.0657 46.1093 22.3083C46.2554 22.5945 46.3037 22.9622 46.1666 23.326C46.1267 23.4318 46.0764 23.5232 46.0225 23.6014C46.1489 23.8647 46.2207 24.1393 46.2486 24.2457C46.2517 24.2575 46.2542 24.2673 46.2562 24.2747C46.4683 25.054 46.654 25.8603 46.833 26.6379C46.9146 26.9925 46.9948 27.3411 47.0756 27.6785C47.1725 28.083 47.2769 28.4986 47.3832 28.9219C47.6645 30.0413 47.9592 31.2143 48.163 32.3784C48.1736 32.4386 48.1911 32.5141 48.2189 32.6338C48.2323 32.6911 48.2479 32.7585 48.2663 32.8391C48.3157 33.056 48.375 33.3315 48.4143 33.6166C48.4522 33.8928 48.4805 34.2383 48.4383 34.5844C48.3979 34.9157 48.2718 35.4175 47.8454 35.8025C47.8422 35.8054 47.8386 35.8086 47.8347 35.8122C47.7956 35.8477 47.7194 35.9168 47.6263 35.9863C47.6266 36.0064 47.6267 36.0263 47.6263 36.0425C47.6205 36.1224 47.5641 36.3786 47.4924 36.5465C47.2028 36.9083 46.3103 37.183 45.844 37.0338C45.6813 36.9228 45.4851 36.7211 45.4358 36.6517C45.3753 36.5597 45.3406 36.4773 45.336 36.4664L45.3356 36.4654C45.3179 36.424 45.3061 36.3896 45.3037 36.3828L45.3035 36.3821C45.2855 36.3299 45.2539 36.218 45.2235 36.1102L45.2183 36.0915C45.0176 35.3801 44.7613 34.7415 44.4821 34.0461C44.3106 33.6189 44.1305 33.1702 43.9493 32.6699C43.5006 31.4306 43.1093 30.1447 42.7293 28.8959C42.5594 28.3377 42.3918 27.7869 42.2223 27.251C42.2053 27.1972 42.1748 27.1163 42.119 26.9686C42.0695 26.8374 42.0061 26.669 41.9488 26.4943C41.8924 26.3222 41.8316 26.1136 41.7939 25.8974C41.7595 25.6994 41.7247 25.3908 41.8012 25.0622C41.8596 24.8111 41.9745 24.6218 42.071 24.4951C42.1641 24.3729 42.2606 24.2826 42.3139 24.2344C42.3399 24.2109 42.3653 24.1887 42.3811 24.175L42.3832 24.1732C42.4108 24.1345 42.439 24.0947 42.4679 24.0541C42.648 23.8005 42.8534 23.5111 43.0868 23.2173C43.0755 23.2114 43.0643 23.2055 43.0531 23.1996C43.0179 23.1812 42.9831 23.163 42.9486 23.145C42.8826 23.1105 42.818 23.0766 42.7545 23.0433C42.4251 22.8704 42.1269 22.7139 41.8204 22.573C41.4117 22.385 41.2107 22.056 41.1218 21.8734C41.0271 21.6791 40.9807 21.4894 40.9555 21.3647C40.9287 21.2318 40.9136 21.107 40.9043 21.0242C40.9019 21.0027 40.8997 20.9823 40.8979 20.9651L40.8976 20.9628C40.8958 20.9458 40.8944 20.9326 40.893 20.9204C40.8911 20.9039 40.8901 20.8961 40.8899 20.8942C40.7448 20.0069 40.6623 19.1258 40.6716 18.1999C40.6741 17.9457 40.6855 17.6966 40.6962 17.4699C40.6968 17.4567 40.6974 17.4436 40.698 17.4306C40.7083 17.2129 40.7176 17.0164 40.7212 16.8218C40.7286 16.4123 40.7083 16.0731 40.6332 15.7594C40.4797 15.1181 40.8751 14.4738 41.5164 14.3203ZM45.2713 36.2688C45.2713 36.2687 45.2711 36.2678 45.2707 36.2661ZM42.4152 24.1451C42.4148 24.1454 42.4145 24.1457 42.4141 24.1461C42.4186 24.1417 42.4193 24.1413 42.4152 24.1451ZM43.2997 20.9071C43.2997 20.9072 43.2992 20.9056 43.2985 20.9024C43.2993 20.9054 43.2997 20.907 43.2997 20.9071Z" fill="#3A2D14"/>
<path fill-rule="evenodd" clip-rule="evenodd" d="M38.6973 14.2343C38.8629 14.0733 39.1599 13.8217 39.6006 13.7162C39.7524 13.6799 39.9044 13.6743 40.0501 13.6955C42.2885 13.1616 44.6628 14.4937 45.4337 16.7642C46.1615 18.9078 46.7624 21.1101 47.2977 23.2792C47.7226 25.0004 48.1297 26.7257 48.5342 28.4439C48.8037 29.5889 49.059 30.7511 49.2782 31.9195C49.4535 32.8544 49.4894 33.8403 49.2398 34.8553C48.7105 37.0071 46.4666 38.467 44.2789 37.9449C43.1201 37.6683 42.4047 36.8944 41.9431 36.1313C41.5829 35.5358 41.318 34.838 41.1135 34.2994C41.0713 34.188 41.0316 34.0834 40.9942 33.988C40.4185 32.5197 39.9072 31.0758 39.4825 29.5288C39.1688 28.3859 38.8972 27.2157 38.6323 26.0742C38.524 25.6074 38.4167 25.1454 38.3082 24.692C38.2141 24.2987 38.1031 23.8736 37.9878 23.4321C37.7758 22.6196 37.5492 21.7515 37.3861 20.9237C37.1246 19.5966 36.9756 18.1677 37.2149 16.7016C37.3293 16.0009 37.6775 15.3954 38.0605 14.9265C38.1425 14.7387 38.2739 14.5694 38.4515 14.44C38.4984 14.4058 38.5455 14.3727 38.593 14.3407C38.6247 14.307 38.6599 14.2706 38.6973 14.2343ZM40.1223 16.2058C40.1099 16.2187 40.0972 16.2317 40.0844 16.2445C39.7797 16.5492 39.6083 16.8621 39.5717 17.0864C39.3968 18.1575 39.4945 19.2718 39.729 20.4621C39.8808 21.2327 40.0704 21.9561 40.2679 22.7094C40.3881 23.1681 40.5113 23.6378 40.6305 24.136C40.7475 24.6247 40.8594 25.107 40.9703 25.5846C41.2305 26.706 41.4848 27.802 41.7853 28.8967C42.1804 30.3362 42.6605 31.6961 43.2174 33.1164C43.2737 33.2601 43.3264 33.3979 43.3771 33.5305C43.5793 34.0591 43.7492 34.5033 43.9864 34.8955C44.2562 35.3416 44.5163 35.5466 44.8333 35.6222C45.6822 35.8248 46.6897 35.2253 46.9209 34.2849C47.0693 33.6816 47.061 33.0521 46.9312 32.3598C46.7208 31.2384 46.4741 30.1137 46.2098 28.9911C45.8051 27.2721 45.4007 25.5585 44.9794 23.8514C44.4526 21.7172 43.8702 19.5867 43.1725 17.5319C42.7149 16.1841 41.2459 15.6215 40.1223 16.2058Z" fill="#3A2D14"/>
<path fill-rule="evenodd" clip-rule="evenodd" d="M43.7114 16.3561C43.7113 16.3545 43.7112 16.3532 43.7112 16.3522C43.7116 16.3598 43.712 16.3674 43.7125 16.375C43.7121 16.3668 43.7117 16.3604 43.7114 16.3561ZM45.4253 20.4956C45.4211 20.4722 45.4163 20.4488 45.4107 20.4254C45.1933 19.5174 44.9422 18.597 44.5527 17.6637C44.3541 17.1879 44.1277 16.6974 43.8629 16.2218C43.8313 16.165 43.7315 16.0057 43.6446 15.8799C43.6079 15.8267 43.5277 15.7117 43.435 15.6122C43.4086 15.5838 43.3612 15.535 43.2975 15.4831L43.296 15.4819C43.2564 15.4495 43.0943 15.3174 42.8459 15.2492C42.7045 15.2103 42.4629 15.1723 42.1817 15.2567C41.8752 15.3486 41.6512 15.5469 41.5146 15.7609C41.3037 16.0916 41.323 16.4187 41.3266 16.4793C41.3267 16.481 41.3268 16.4825 41.3269 16.4838C41.3404 16.7288 41.358 16.9732 41.3747 17.2064L41.3764 17.2294C41.3939 17.473 41.4104 17.705 41.4227 17.9347C41.4268 18.012 41.4294 18.1135 41.4324 18.2322C41.4432 18.6571 41.4596 19.3024 41.5726 19.8451C41.7302 20.6016 42.1521 21.6044 43.3146 22.0136C43.5642 22.1015 43.6914 22.17 43.781 22.235C43.8672 22.2976 43.9702 22.3945 44.1185 22.6008C44.1373 22.627 44.1894 22.7277 44.249 22.999C44.2755 23.1195 44.2978 23.2444 44.3246 23.3937L44.3287 23.4165C44.3552 23.5646 44.3876 23.7452 44.4293 23.9194C44.5829 24.5607 45.2272 24.9561 45.8685 24.8026C46.5098 24.649 46.9052 24.0047 46.7517 23.3634C46.7285 23.2666 46.7072 23.1521 46.6792 22.9958C46.6773 22.985 46.6753 22.9739 46.6733 22.9626C46.6485 22.8236 46.6183 22.6548 46.5813 22.4863C46.5051 22.1399 46.3709 21.643 46.0574 21.207C45.8667 20.9417 45.6631 20.7044 45.4253 20.4956Z" fill="#3A2D14"/>
<path fill-rule="evenodd" clip-rule="evenodd" d="M43.7073 42.2109C44.3667 42.2109 44.9013 42.7455 44.9013 43.4049C44.9013 45.0389 44.0308 46.7142 42.586 47.611C41.4546 48.3132 40.3517 48.2379 39.3838 48.0444C38.8612 47.9398 38.4167 47.6407 38.194 47.4908C38.1757 47.4786 38.159 47.4673 38.1438 47.4572C38.0072 47.3665 37.9325 47.3193 37.8724 47.2886C37.8655 47.2851 37.8597 47.2823 37.855 47.2801C37.2239 47.1913 36.7702 46.6189 36.8341 45.979C36.8998 45.3229 37.4848 44.8442 38.141 44.9098C38.4764 44.9433 38.7557 45.0584 38.9588 45.1621C39.156 45.2629 39.3373 45.3833 39.461 45.4654L39.4647 45.4679C39.6085 45.5634 39.6937 45.6199 39.7748 45.6643C39.8271 45.693 39.8528 45.7022 39.8577 45.7039C40.5861 45.849 40.9553 45.8126 41.3267 45.5821C42.0362 45.1417 42.5133 44.2532 42.5133 43.4049C42.5133 42.7455 43.0479 42.2109 43.7073 42.2109ZM37.8392 47.2733C37.8392 47.2733 37.8395 47.2734 37.8401 47.2736C37.8395 47.2734 37.8392 47.2733 37.8392 47.2733Z" fill="#3A2D14"/>
<path fill-rule="evenodd" clip-rule="evenodd" d="M37.4234 42.6099C38.0829 42.6099 38.6174 43.1444 38.6174 43.8038C38.6174 44.6854 38.5344 45.5031 38.2412 46.3015C37.945 47.1084 37.4653 47.8116 36.791 48.518C36.3357 48.995 35.58 49.0126 35.103 48.5573C34.626 48.102 34.6084 47.3462 35.0637 46.8692C35.5762 46.3323 35.8446 45.9007 35.9997 45.4784C36.1578 45.0476 36.2295 44.5422 36.2295 43.8038C36.2295 43.1444 36.764 42.6099 37.4234 42.6099Z" fill="#3A2D14"/>
<path fill-rule="evenodd" clip-rule="evenodd" d="M29.5384 112.498C29.7465 112.317 30.0104 112.257 30.2799 112.268C30.6391 112.283 31.0519 112.392 31.3558 112.637C31.5124 112.763 31.6483 112.933 31.7187 113.149C31.79 113.369 31.7843 113.605 31.7066 113.846C31.6499 114.021 31.5595 114.241 31.408 114.424C31.248 114.616 31.0067 114.78 30.6783 114.78C30.6307 114.78 30.5822 114.781 30.525 114.783C30.5074 114.784 30.489 114.785 30.4695 114.785C30.3916 114.788 30.3014 114.79 30.2089 114.786C30.0276 114.778 29.7967 114.746 29.5852 114.612C29.4257 114.511 29.303 114.385 29.2198 114.234C29.1377 114.086 29.1064 113.934 29.0961 113.799C29.0862 113.668 29.0954 113.539 29.1036 113.435C29.1048 113.419 29.106 113.405 29.1072 113.39C29.1146 113.298 29.1208 113.222 29.1208 113.145C29.1208 113.002 29.1957 112.877 29.3084 112.807C29.3617 112.693 29.4363 112.587 29.5384 112.498ZM29.898 113.487C29.8977 113.49 29.8974 113.494 29.8971 113.498C29.8888 113.603 29.8851 113.676 29.8898 113.739C29.8942 113.797 29.9051 113.829 29.9168 113.85C29.9274 113.869 29.9499 113.9 30.0111 113.939C30.0508 113.964 30.1184 113.985 30.2437 113.991C30.3044 113.993 30.3695 113.992 30.4439 113.99C30.4582 113.989 30.4732 113.989 30.4888 113.988C30.5484 113.986 30.6154 113.984 30.6783 113.984C30.7139 113.984 30.7469 113.974 30.7956 113.915C30.8526 113.847 30.905 113.738 30.9492 113.601C30.9823 113.499 30.9746 113.435 30.9618 113.396C30.9481 113.354 30.9177 113.306 30.8564 113.257C30.7243 113.15 30.4943 113.073 30.2475 113.063C30.1127 113.058 30.0709 113.09 30.0609 113.099C30.0479 113.11 30.0111 113.151 29.9926 113.281C29.9812 113.36 29.9472 113.431 29.898 113.487Z" fill="white"/>
<path fill-rule="evenodd" clip-rule="evenodd" d="M33.2548 107.541C33.6171 107.502 34.0134 107.578 34.2902 107.721C34.8073 107.99 34.9075 108.513 34.8166 108.93C34.7295 109.33 34.4562 109.733 34.0725 109.923C33.7869 110.065 33.5035 110.126 33.2324 110.086C32.9573 110.045 32.7371 109.907 32.5722 109.727C32.2586 109.384 32.1292 108.877 32.0987 108.45C32.0855 108.265 32.2011 108.1 32.3693 108.044C32.5749 107.704 32.9499 107.574 33.2548 107.541ZM32.9283 108.658C32.9749 108.889 33.0576 109.078 33.1595 109.19C33.2209 109.257 33.282 109.289 33.3484 109.298C33.4189 109.309 33.5374 109.3 33.7193 109.21C33.8529 109.144 33.9948 108.963 34.0388 108.761C34.0789 108.577 34.0257 108.481 33.9229 108.428C33.7936 108.36 33.5561 108.309 33.3403 108.332C33.1205 108.356 33.0533 108.435 33.0334 108.494C33.0118 108.559 32.975 108.615 32.9283 108.658Z" fill="white"/>
<path fill-rule="evenodd" clip-rule="evenodd" d="M27.5826 106.475C27.8024 106.475 27.9805 106.653 27.9805 106.873V106.926C27.9805 107.146 27.8024 107.324 27.5826 107.324C27.3628 107.324 27.1846 107.146 27.1846 106.926V106.873C27.1846 106.653 27.3628 106.475 27.5826 106.475Z" fill="white"/>
</svg>
