<svg width="219" height="140" viewBox="0 0 219 140" fill="none" xmlns="http://www.w3.org/2000/svg">
<path d="M178.194 64.2881L192.516 64.1756L199.404 60.2796L201.742 54.341L200.467 48.8667L200.799 44.75L204.643 44.7197L205.669 48.8258L206.113 54.9419L205.599 58.3453L212.765 57.7243L214.396 61.5029L212.191 64.0209L213.603 66.7526L212.153 69.2647L212.657 72.5682L210.608 74.4397L204.426 74.4882L200.586 73.9537L192.855 69.4164L178.16 68.9672L178.194 64.2881Z" fill="#FEE274"/>
<path fill-rule="evenodd" clip-rule="evenodd" d="M203.084 45.3987C202.743 45.3347 202.463 45.3972 202.253 45.4909C202.084 45.5661 201.706 45.8082 201.561 47.5638C201.535 47.8832 201.569 48.2856 201.657 48.7985C201.727 49.2002 201.82 49.6234 201.923 50.0928C201.952 50.2242 201.982 50.3592 202.012 50.4984C202.28 51.7306 202.57 53.2104 202.447 54.747C202.377 55.6169 202.046 56.5286 201.613 57.3893C201.174 58.261 200.599 59.1408 199.981 59.9607C198.755 61.5876 197.285 63.0731 196.206 63.858C195.312 64.5087 193.992 64.8329 192.613 65.011C191.194 65.1946 189.536 65.2422 187.835 65.2249C186.129 65.2076 184.348 65.1245 182.679 65.0391C182.419 65.0258 182.162 65.0124 181.908 64.9993C180.525 64.9275 179.247 64.8611 178.158 64.836C177.606 64.8232 177.175 64.3646 177.196 63.8117C177.217 63.2587 177.682 62.8208 178.235 62.8336C179.355 62.8594 180.668 62.9276 182.049 62.9994C182.301 63.0125 182.556 63.0257 182.812 63.0388C184.479 63.1241 186.224 63.2053 187.885 63.2221C189.551 63.239 191.102 63.1907 192.386 63.0247C193.712 62.8533 194.59 62.5743 195.044 62.2446C195.914 61.611 197.246 60.2864 198.389 58.7705C198.955 58.0191 199.457 57.2443 199.826 56.5105C200.201 55.7659 200.41 55.1214 200.45 54.6166C200.548 53.4038 200.322 52.1804 200.055 50.9521C200.028 50.8286 200 50.7039 199.973 50.5788C199.868 50.1024 199.761 49.6193 199.683 49.1675C199.585 48.596 199.518 47.9991 199.565 47.429C199.714 45.6265 200.152 44.2459 201.462 43.663C201.991 43.4277 202.685 43.2805 203.481 43.4298C204.277 43.579 205.097 44.0093 205.906 44.7984C206.724 45.5964 207.266 46.4982 207.539 47.5979C207.806 48.6728 207.803 49.8812 207.628 51.2761C207.602 51.4785 207.536 51.8277 207.464 52.2101C207.457 52.2473 207.45 52.2848 207.443 52.3226C207.358 52.7712 207.258 53.3035 207.17 53.8505C207.081 54.3996 207.006 54.9482 206.968 55.4286C206.928 55.9317 206.937 56.2754 206.973 56.4555C207.107 57.1264 207.288 57.3147 207.333 57.3507C207.333 57.351 207.334 57.3515 207.334 57.352C207.344 57.3609 207.382 57.3947 207.566 57.363C208.002 57.2879 208.415 57.1503 208.899 56.9886C209.147 56.9061 209.413 56.8172 209.711 56.7273C210.485 56.4936 211.474 56.26 212.446 56.5459C213.803 56.9454 214.646 57.8872 215.065 58.9382C215.473 59.9607 215.49 61.1021 215.226 62.0327C214.994 62.853 214.623 63.5646 213.993 64.1065C214.085 64.2524 214.17 64.4053 214.247 64.5608C214.512 65.0973 214.73 65.7701 214.76 66.4887C214.797 67.3871 214.531 68.3145 214.131 69.0621C213.992 69.3221 213.822 69.5871 213.622 69.833C213.697 69.9835 213.766 70.1416 213.825 70.3008C214.01 70.7948 214.157 71.4285 214.115 72.0931C214.02 73.6185 213.156 75.0659 211.721 75.6526C211.059 75.9231 210.094 76.0586 209.228 76.1269C208.33 76.1978 207.395 76.2059 206.72 76.166C206.688 76.1641 206.654 76.1621 206.618 76.16C205.993 76.1236 204.855 76.0571 203.614 75.8424C202.32 75.6185 200.809 75.2172 199.618 74.4448C198.422 73.6691 197.647 72.8462 197.041 72.2025C196.88 72.031 196.731 71.8723 196.588 71.7305C195.942 71.0864 195.326 70.6302 194.011 70.4379C192.839 70.2664 190.021 70.1792 186.928 70.1981C183.854 70.2169 180.623 70.3396 178.656 70.5646C178.105 70.6276 177.615 70.2331 177.56 69.6836C177.506 69.1341 177.907 68.6377 178.458 68.5747C180.536 68.337 183.855 68.2142 186.946 68.1952C190.02 68.1765 192.986 68.2593 194.331 68.456C196.162 68.7238 197.146 69.4369 198.013 70.3012C198.213 70.5009 198.399 70.6979 198.584 70.8936C199.172 71.516 199.747 72.1247 200.725 72.7593C201.583 73.3152 202.78 73.6603 203.984 73.8686C205.111 74.0636 206.151 74.1245 206.774 74.161C206.807 74.1629 206.838 74.1648 206.868 74.1665C207.442 74.2005 208.284 74.1947 209.101 74.1302C209.951 74.0631 210.641 73.9416 210.987 73.8001C211.568 73.5628 212.06 72.8985 212.116 71.9983C212.135 71.6926 212.066 71.3448 211.948 71.0264C211.939 71.0044 211.931 70.9828 211.923 70.9617C211.576 71.0926 211.141 71.2524 210.633 71.3739C209.879 71.5545 208.935 71.6674 207.592 71.6353C207.04 71.6221 206.609 71.1632 206.631 70.6103C206.652 70.0573 207.118 69.6198 207.67 69.633C208.874 69.6617 209.64 69.5591 210.195 69.4264C210.606 69.328 210.892 69.2196 211.218 69.0962C211.358 69.0431 211.505 68.9873 211.673 68.9283C211.793 68.8862 212.088 68.6613 212.368 68.1379C212.631 67.6478 212.778 67.077 212.758 66.602C212.743 66.2219 212.622 65.8199 212.449 65.4695C212.344 65.2579 212.238 65.0989 212.154 64.9924C211.921 65.049 211.678 65.0944 211.428 65.1311C210.851 65.2159 209.599 65.3016 208.716 65.3621C208.463 65.3794 208.239 65.3947 208.071 65.4073C207.519 65.4486 207.045 65.035 207.012 64.4834C206.979 63.9319 207.4 63.4512 207.952 63.4099C208.16 63.3944 208.419 63.3766 208.701 63.3572C209.577 63.297 210.676 63.2215 211.166 63.1496C211.953 63.0341 212.389 62.8469 212.661 62.6293C212.916 62.4253 213.131 62.1112 213.3 61.5143C213.449 60.987 213.44 60.2984 213.203 59.7038C212.977 59.1378 212.558 58.6752 211.854 58.4681C211.488 58.3604 211.001 58.4212 210.263 58.6439C210.09 58.6964 209.892 58.7619 209.681 58.8322C209.124 59.017 208.468 59.235 207.876 59.3368C207.34 59.4291 206.66 59.3993 206.062 58.918C205.502 58.4668 205.184 57.7503 205.009 56.8774C204.916 56.412 204.929 55.8364 204.971 55.3009C205.015 54.7427 205.1 54.1335 205.193 53.5598C205.286 52.9842 205.39 52.4289 205.475 51.9797L205.484 51.9309C205.568 51.486 205.623 51.1931 205.64 51.0561C205.801 49.7816 205.779 48.8486 205.595 48.1087C205.417 47.3936 205.075 46.8073 204.496 46.2425C203.908 45.6687 203.425 45.4627 203.084 45.3987Z" fill="#3A2D14"/>
<path d="M34.2686 100.569L37.5233 89.9705H68.4851L137.92 91.9734L171.886 96.8138L178.145 99.0671L179.647 105.827L178.145 111.836L174.89 116.175L37.5233 113.839L34.2686 109.332V105.827V100.569Z" fill="#3A2D14"/>
<path d="M164.459 103.407L155.612 95.729L164.459 93.4757L174.473 88.218L188.577 93.4757L189.161 98.2326L185.406 101.821L180.565 100.736L174.473 98.9003L171.719 103.407L168.297 104.826L164.459 103.407Z" fill="#3E8937"/>
<path d="M72.0739 103.574L69.4033 99.9017L76.1632 98.316L88.9318 93.2253L92.3535 90.1375L102.618 91.6396L114.052 97.5649L113.384 101.821L115.721 103.574V105.66L111.298 107.496L104.788 105.66L102.618 101.821L96.1089 100.987L91.2685 97.5649H86.3447V100.987L90.434 105.66L91.2685 109.332L85.5101 111.836L77.7488 109.332L72.0739 103.574Z" fill="#3E8937"/>
<path d="M112.883 96.2296L100.281 90.9719H120.227L147.684 93.9763L145.013 100.235L142.676 105.493L135.416 110.167H130.075L125.151 105.493L119.142 100.235L112.883 96.2296Z" fill="#F9A71A"/>
<path d="M29.2613 90.3044L35.5204 88.8022L48.456 91.3894L60.7238 97.7319L64.4793 100.236L65.2304 103.407L58.3871 104.241L50.7092 101.487L45.9523 105.326H41.5292L39.0255 100.236L36.0212 98.9838L26.5907 103.323L24.4209 101.487L25.6727 96.7305V93.0585L29.2613 90.3044Z" fill="#3E8937"/>
<path d="M24.5911 46.3435L33.0548 48.3264L40.9444 54.4864L36.7475 59.5959L29.004 54.7759L24.7978 54.4864L24.086 61.4289L24.9862 65.757L31.8514 68L35.2592 72.4882L33.5897 76.2817L35.4075 80.371L33.0548 84.0618L24.086 84.7474L14.216 82.4869L12.6427 74.1386L10.4035 68.7064L16.1924 67.2229L15.338 58.8684L17.1254 49.4486L24.5911 46.3435Z" fill="#FEE274"/>
<path fill-rule="evenodd" clip-rule="evenodd" d="M26.9099 84.7724C27.9705 85.5375 29.1606 85.839 29.7686 85.993C29.79 85.9984 29.8107 86.0036 29.8307 86.0087C31.921 86.5403 34.1964 85.8381 35.675 83.8334C36.5671 82.6238 36.3913 81.1668 35.9751 80.0229C35.5816 78.9412 34.9185 77.9654 34.3882 77.3435C35.3142 76.5509 36.0481 75.531 36.2531 74.2906C36.4929 72.8406 35.7724 71.2017 34.9407 69.917C34.0869 68.5982 32.9401 67.382 31.9566 66.742C30.7056 65.9278 29.1326 65.5031 27.8235 65.2795C27.0057 65.1397 26.248 65.0715 25.6685 65.0446C25.3338 63.0653 24.7435 58.8309 25.276 55.6735C25.3261 55.6366 25.474 55.5573 25.8477 55.5077C26.4913 55.4222 27.5353 55.484 29.0293 55.8448C31.8494 56.5259 34.127 58.7423 35.0617 59.7938C35.4075 60.1829 35.985 60.2309 36.3516 59.9011C36.7181 59.5713 36.735 58.9885 36.3892 58.5995C35.388 57.4732 32.7735 54.8731 29.3627 54.0494C27.7556 53.6612 26.4658 53.5501 25.5165 53.6762C24.657 53.7903 23.6683 54.1746 23.4915 55.1825C22.7779 59.2525 23.777 64.7987 24.0158 66.0817L24.1707 66.9135L24.9965 66.8805C25.3731 66.8654 26.4104 66.8947 27.6133 67.1003C28.8288 67.308 30.1029 67.6778 31.0283 68.2801C31.7189 68.7295 32.6822 69.7157 33.4301 70.8708C34.2 72.0601 34.5728 73.1667 34.4527 73.8926C34.2769 74.9561 33.3509 75.9642 31.9905 76.7115C30.6474 77.4492 29.1172 77.7982 28.1004 77.7222C26.9063 77.633 25.5441 77.4392 24.3758 77.057C23.17 76.6624 22.3755 76.1341 22.0344 75.521C21.7075 74.9333 21.6902 74.5665 21.7335 74.3475C21.7785 74.1195 21.9195 73.9005 22.1825 73.686C22.6742 73.285 23.3485 73.0774 23.8127 72.9346C23.8867 72.9118 23.9553 72.8907 24.017 72.8706C24.4526 72.7294 25.2561 72.5588 26.1622 72.5444C27.0746 72.5298 28.0022 72.6749 28.7508 73.0813C29.2044 73.3276 29.7501 73.1651 29.9696 72.7185C30.1892 72.2719 29.9995 71.7101 29.5459 71.4639C28.403 70.8434 27.1196 70.6803 26.0367 70.6976C24.9474 70.715 23.9712 70.9164 23.3778 71.1088C23.3463 71.119 23.3025 71.132 23.2484 71.1481C22.8262 71.2735 21.7743 71.5861 20.9925 72.2238C20.5294 72.6014 20.0916 73.143 19.9432 73.8937C19.9072 74.0757 19.8898 74.2618 19.891 74.4516C19.7556 74.2872 19.5671 74.1652 19.3476 74.1178C19.2636 74.0997 19.1458 74.072 19.0052 74.039C18.6706 73.9603 18.207 73.8513 17.7632 73.7688C17.1344 73.6519 16.3443 73.5445 15.7005 73.6454C14.8651 73.7764 14.2173 74.0617 13.7207 74.4504C12.4199 73.2521 11.9892 72.0702 11.8962 71.1323C11.8021 70.1842 12.0485 69.4262 12.212 69.0918C13.2161 67.9876 14.7395 67.7183 16.3643 67.4637L17.3572 67.3081L17.0952 66.3444C17.081 66.2922 17.0652 66.2357 17.0482 66.1746C16.7625 65.1489 16.1133 62.8186 16.2959 57.5554C16.4156 54.1068 17.1572 51.9837 18.1428 50.6379C19.1186 49.3055 20.4028 48.6403 21.8166 48.2522C24.6592 47.472 27.1081 47.8669 30.3191 48.7086C31.4687 49.0099 33.0152 49.8097 34.5243 50.7651C36.0191 51.7115 37.3805 52.7483 38.1467 53.4496C38.5303 53.8006 39.1062 53.7852 39.4331 53.4152C39.76 53.0451 39.7142 52.4606 39.3307 52.1096C38.4574 51.3103 36.9971 50.2046 35.432 49.2138C33.8813 48.232 32.13 47.3 30.6877 46.922C27.3903 46.0577 24.5573 45.5608 21.253 46.4677C19.5934 46.9233 17.9257 47.7547 16.6562 49.4882C15.3965 51.2084 14.5995 53.7205 14.4721 57.3929C14.316 61.8919 14.7473 64.3952 15.0835 65.7867C13.6564 66.043 11.9522 66.5097 10.7484 67.9054L10.6915 67.9713L10.6489 68.0477C10.3368 68.6075 9.93704 69.7748 10.0804 71.2198C10.2241 72.6677 10.9085 74.3351 12.6429 75.8867C12.2966 76.711 12.228 77.6268 12.181 78.2551C12.1747 78.3393 12.1687 78.4184 12.1626 78.4914C12.1244 78.9443 12.1994 80.0009 12.5806 81.0841C12.9643 82.1744 13.7266 83.4746 15.1913 84.0992C16.8321 84.7988 18.3913 84.7357 19.343 84.5269C20.0933 85.3903 21.2083 86.2433 22.8298 86.4694C24.8759 86.7546 26.247 85.6589 26.9099 84.7724ZM25.5864 83.3729C25.5703 83.347 25.5544 83.3208 25.5387 83.2944C25.087 82.5348 24.8286 81.6528 24.6808 80.9002C24.5317 80.1408 24.4821 79.444 24.4842 79.0109C24.4843 79.0029 24.4844 78.9949 24.4847 78.9869C24.2871 78.933 24.0916 78.8747 23.899 78.8117C22.5645 78.3751 21.1693 77.6441 20.4555 76.361C20.277 76.0402 20.1405 75.7257 20.0464 75.4187C19.9813 75.5747 19.8741 75.7036 19.7406 75.7947C19.791 75.8166 19.8405 75.8433 19.8883 75.8748C20.3208 76.1596 20.4615 76.7335 20.2027 77.1566C18.9497 79.2051 19.4277 81.3067 19.7409 81.8947C20.2149 82.7846 21.0707 84.3731 22.984 84.6399C24.4221 84.8403 25.3232 83.8763 25.5864 83.3729ZM18.8635 75.8797C18.7805 75.8606 18.6939 75.8402 18.6038 75.8189C18.2892 75.7447 17.9309 75.6601 17.5265 75.5849C16.9106 75.4704 16.3892 75.4215 16.0725 75.4711C15.0164 75.6366 14.5846 76.1131 14.3513 76.6315C14.1067 77.175 14.0567 77.8017 14.0021 78.4857C13.9953 78.5713 13.9884 78.6577 13.981 78.7449C13.9662 78.9206 14.0007 79.7078 14.2963 80.5476C14.5893 81.3803 15.0711 82.0821 15.8227 82.4026C16.7092 82.7806 17.5611 82.8511 18.2022 82.8113C18.1941 82.796 18.1862 82.7812 18.1785 82.7667C18.1667 82.7445 18.1555 82.7232 18.1447 82.7029C17.543 81.5733 17.022 78.7653 18.6368 76.1253C18.6976 76.0259 18.775 75.9437 18.8635 75.8797ZM26.3148 79.3681C26.3294 79.6909 26.3739 80.1432 26.4702 80.6337C26.5963 81.2762 26.7983 81.9159 27.0891 82.4047C27.7788 83.5644 29.2026 83.9685 30.186 84.2187M26.3148 79.3681C26.9242 79.4615 27.5181 79.5235 28.0625 79.5642C29.4969 79.6713 31.3522 79.2052 32.9063 78.3561C32.9235 78.3792 32.9418 78.4017 32.9613 78.4236C33.3848 78.9002 33.9536 79.7192 34.2664 80.5788C34.5815 81.445 34.5759 82.1583 34.1919 82.679C33.1183 84.1346 31.5537 84.5665 30.186 84.2187M25.2537 55.6937C25.2536 55.6936 25.2547 55.692 25.2574 55.6892C25.2553 55.6923 25.2539 55.6938 25.2537 55.6937Z" fill="#3A2D14"/>
<path d="M33.8517 121.35C34.4526 119.28 35.9381 117.761 36.6057 117.26L172.304 117.928H174.724C176.727 122.212 180.716 130.947 180.649 131.615C180.566 132.449 178.813 132.95 177.394 136.371C176.259 139.109 171.525 139.181 169.299 138.875H158.367C124.595 138.847 56.468 138.808 54.1312 138.875C51.2103 138.959 45.8692 138.541 41.1957 137.373C36.5222 136.205 36.6057 134.118 34.8531 132.95C33.1005 131.781 33.1006 128.36 32.9337 127.191C32.7668 126.023 33.1006 123.937 33.8517 121.35Z" fill="#FFD439"/>
<path fill-rule="evenodd" clip-rule="evenodd" d="M36.2736 116.257L172.303 116.926H175.361L175.63 117.504C176.634 119.649 178.135 122.911 179.378 125.722C179.999 127.127 180.559 128.427 180.961 129.421C181.161 129.917 181.327 130.349 181.443 130.686C181.5 130.853 181.55 131.011 181.585 131.149L181.586 131.153C181.609 131.243 181.669 131.476 181.645 131.714C181.59 132.265 181.266 132.66 181.045 132.903C180.925 133.034 180.789 133.169 180.661 133.295L180.65 133.306C180.52 133.435 180.388 133.565 180.247 133.713C179.69 134.298 178.973 135.178 178.319 136.755C177.552 138.604 175.643 139.407 173.952 139.746C172.244 140.089 170.425 140.033 169.232 139.876H158.365C124.576 139.849 56.4764 139.81 54.1593 139.876C51.1518 139.962 45.7191 139.536 40.9523 138.344C38.4543 137.72 37.1339 136.82 36.2067 135.855C35.8883 135.524 35.608 135.173 35.3742 134.881C35.295 134.782 35.2211 134.689 35.153 134.606C34.8639 134.256 34.6141 133.994 34.2971 133.783C33.0674 132.963 32.5653 131.459 32.318 130.275C32.1874 129.651 32.1129 129.037 32.0606 128.52C32.0391 128.307 32.0222 128.122 32.0073 127.959C31.9836 127.699 31.9652 127.497 31.9418 127.333C31.8374 126.602 31.8966 125.673 32.0587 124.646C32.2235 123.603 32.5057 122.392 32.8894 121.07C33.5664 118.738 35.2137 117.052 36.0043 116.459L36.2736 116.257ZM36.9621 118.263C36.3358 118.823 35.2706 120.052 34.8129 121.629C34.4456 122.894 34.1853 124.02 34.0371 124.959C33.8863 125.914 33.8621 126.612 33.9246 127.05C33.9547 127.261 33.9815 127.552 34.0095 127.856C34.0236 128.01 34.038 128.167 34.0534 128.319C34.1029 128.809 34.1691 129.342 34.2785 129.866C34.511 130.977 34.8851 131.768 35.4081 132.116C35.9673 132.489 36.3643 132.927 36.6986 133.333C36.8043 133.461 36.8999 133.58 36.9916 133.695C37.2071 133.965 37.4006 134.207 37.6504 134.467C38.2879 135.13 39.2625 135.857 41.438 136.401C46.0182 137.546 51.2677 137.955 54.1021 137.874C56.4584 137.807 124.613 137.846 158.367 137.874H169.367L169.435 137.883C170.469 138.025 172.092 138.077 173.558 137.783C175.074 137.478 176.1 136.876 176.469 135.988C177.233 134.143 178.102 133.062 178.797 132.332C178.959 132.162 179.11 132.013 179.237 131.887L179.252 131.872C179.388 131.738 179.486 131.64 179.564 131.555C179.579 131.537 179.593 131.522 179.605 131.508C179.589 131.459 179.571 131.401 179.548 131.335C179.45 131.049 179.3 130.656 179.104 130.172C178.714 129.207 178.164 127.931 177.546 126.532C176.417 123.979 175.072 121.047 174.085 118.929H172.301L36.9621 118.263ZM179.656 131.699C179.656 131.699 179.655 131.693 179.654 131.683C179.656 131.694 179.657 131.699 179.656 131.699Z" fill="#3A2D14"/>
<path d="M91.5192 90.3044L50.209 91.139L53.3803 94.9779L62.31 98.1492H73.9102L89.099 93.4757L91.5192 90.3044Z" fill="#E52421"/>
<path fill-rule="evenodd" clip-rule="evenodd" d="M91.69 90.2175L89.1486 93.5477L73.9223 98.2327H62.2951L53.3301 95.0489L50.0342 91.0591L91.69 90.2175ZM50.3828 91.219L53.4294 94.907L62.3238 98.0658H73.8972L89.0484 93.4039L91.3474 90.3914L50.3828 91.219Z" fill="black"/>
<path d="M31.5928 79.3724C32.2879 82.431 33.2669 88.1091 36.909 88.7713C38.6272 92.2077 44.5347 90.9603 47.5414 90.9603C51.4684 90.9603 55.4343 91.1133 59.3552 90.8909C64.0345 90.6254 68.7103 90.6808 73.3927 90.5086C88.0482 89.9698 102.697 90.4289 117.347 90.9777C125.289 91.2752 133.297 91.4281 141.183 92.5066C149.818 93.6874 160.384 97.7469 168.407 92.4718C175.005 88.1335 178.57 81.5453 178.57 73.7262C178.57 67.3072 178.506 59.3846 174.817 53.8165C171.166 48.3052 165.038 42.9026 159.373 39.6226C149.19 33.7274 137.352 28.9353 125.825 26.7317C118.164 25.267 110.302 25.6024 102.545 25.6024C92.247 25.6024 81.5418 26.1672 71.4816 28.4343C64.7407 29.9533 59.3684 35.0902 54.1085 39.223C49.7908 42.6154 46.2788 46.6138 42.6609 50.7326L42.6074 50.7935C39.4925 54.3397 36.8946 57.9427 34.859 62.2077C32.0925 68.0041 30.1222 72.9018 31.5928 79.3724Z" fill="#FFD439"/>
<path fill-rule="evenodd" clip-rule="evenodd" d="M106.232 26.5875C105.005 26.5957 103.776 26.6039 102.545 26.6039C92.2761 26.6039 81.6563 27.168 71.7021 29.4112C68.5103 30.1305 65.6048 31.715 62.8143 33.6689C60.9197 34.9954 59.1302 36.4519 57.3436 37.906C56.4748 38.6131 55.6067 39.3196 54.7274 40.0105C50.4942 43.3366 47.0409 47.2639 43.4136 51.3935L43.3601 51.4544C40.2866 54.9534 37.748 58.48 35.763 62.6391C33.0064 68.4148 31.1804 73.038 32.5696 79.1505C32.6223 79.3821 32.6757 79.6242 32.7309 79.8742C33.0528 81.3323 33.4348 83.0629 34.0702 84.5847C34.8283 86.4003 35.7971 87.5512 37.0884 87.786L37.5811 87.8756L37.805 88.3234C38.4031 89.5197 39.7874 90.0401 41.7992 90.1546C42.7697 90.2099 43.7937 90.1649 44.7905 90.1021C45.0058 90.0885 45.2222 90.0739 45.4373 90.0593C46.1891 90.0086 46.9246 89.9589 47.5416 89.9589C48.7022 89.9589 49.8555 89.9718 51.0033 89.9848C53.7914 90.0161 56.5475 90.0471 59.2987 89.891C62.0417 89.7354 64.8293 89.6886 67.5939 89.6423C69.5338 89.6098 71.4623 89.5775 73.3562 89.5079C88.0528 88.9675 102.735 89.4281 117.385 89.977C118.464 90.0174 119.546 90.0552 120.631 90.0931C127.498 90.3328 134.455 90.5757 141.319 91.5143C143.253 91.7788 145.281 92.1851 147.318 92.5931C147.594 92.6484 147.871 92.7038 148.147 92.7589C150.477 93.2231 152.818 93.668 155.131 93.9143C159.761 94.4075 164.129 94.0858 167.857 91.635C174.175 87.4802 177.569 81.2051 177.569 73.7261C177.569 70.5104 177.552 66.9902 177.085 63.5883C176.618 60.1855 175.711 56.9787 173.983 54.3696C170.43 49.0067 164.425 43.7046 158.871 40.4893C148.768 34.64 137.035 29.8943 125.637 27.7153C119.283 26.5005 112.795 26.5438 106.232 26.5875ZM106.173 24.5843C112.733 24.5392 119.448 24.493 126.013 25.748C137.669 27.9763 149.613 32.8147 159.875 38.7559C165.652 42.1006 171.903 47.6037 175.652 53.2634C177.613 56.2224 178.582 59.7609 179.069 63.3162C179.557 66.8724 179.572 70.5229 179.572 73.7261C179.572 81.8855 175.834 88.7868 168.957 93.3086C164.662 96.1329 159.736 96.419 154.919 95.906C152.507 95.6491 150.086 95.1875 147.756 94.7232C147.477 94.6676 147.199 94.612 146.923 94.5567C144.878 94.1472 142.916 93.7543 141.047 93.4988C134.292 92.575 127.447 92.3356 120.573 92.0953C119.486 92.0573 118.398 92.0192 117.31 91.9785C102.659 91.4296 88.0442 90.9721 73.4297 91.5094C71.4384 91.5826 69.485 91.6148 67.5437 91.6467C64.8328 91.6914 62.1456 91.7356 59.4121 91.8907C56.5891 92.0509 53.7254 92.0187 50.9094 91.9871C49.7772 91.9744 48.6527 91.9618 47.5416 91.9618C46.9988 91.9618 46.3583 92.0049 45.6223 92.0545C45.396 92.0698 45.1608 92.0856 44.9165 92.101C43.9064 92.1647 42.7823 92.2168 41.6853 92.1543C39.7036 92.0415 37.4557 91.5338 36.2542 89.6449C34.1953 89.0487 32.9809 87.1741 32.2219 85.3564C31.5107 83.6529 31.0855 81.7198 30.7672 80.2725C30.7143 80.0319 30.6643 79.8048 30.6165 79.5944C29.0645 72.7657 31.1791 67.5933 33.9554 61.7764C36.0416 57.4054 38.6989 53.726 41.8552 50.1326L41.9375 50.039C45.5361 45.942 49.0996 41.8851 53.49 38.4355C54.3121 37.7895 55.1506 37.1073 56.0048 36.4124C57.8232 34.9328 59.7125 33.3956 61.6655 32.0281C64.5614 30.0005 67.7126 28.2571 71.2617 27.4573C81.4279 25.1663 92.2183 24.601 102.545 24.601C103.748 24.601 104.958 24.5926 106.173 24.5843Z" fill="#3A2D14"/>
<path fill-rule="evenodd" clip-rule="evenodd" d="M28.9008 89.2561C31.2703 88.3832 33.3077 87.7698 35.9704 87.7698C36.5235 87.7698 36.9719 88.2181 36.9719 88.7712C36.9719 89.3243 36.5235 89.7727 35.9704 89.7727C33.6609 89.7727 31.8866 90.2906 29.5932 91.1356C29.0754 91.3263 27.9975 91.8531 27.1908 92.5082C26.7838 92.8386 26.5212 93.142 26.4001 93.3846C26.2994 93.5862 26.3227 93.6726 26.3698 93.7574C27.6304 96.0264 26.7845 98.1727 25.9159 99.8616C25.6714 100.337 25.5558 100.644 25.4914 100.938C25.4262 101.235 25.4021 101.57 25.4014 102.123C25.4678 102.157 25.5646 102.194 25.728 102.25C25.7526 102.258 25.7793 102.267 25.8075 102.277C25.9602 102.328 26.1597 102.395 26.3521 102.476C26.5656 102.566 26.9022 102.601 27.3888 102.509C27.8667 102.419 28.4095 102.222 28.9696 101.95C30.0986 101.402 31.1459 100.623 31.6661 100.103C32.7183 99.0504 34.4607 98.3434 36.1003 98.2526C37.7469 98.1614 39.6359 98.698 40.4799 100.574C40.7436 101.16 40.9317 101.791 41.0923 102.331C41.1103 102.391 41.1279 102.45 41.1453 102.508C41.3303 103.125 41.4837 103.588 41.6827 103.931C41.8639 104.245 42.0337 104.374 42.231 104.431C42.4658 104.5 42.9178 104.519 43.7529 104.226C44.3001 104.035 44.8512 103.713 45.4621 103.312C45.6256 103.204 45.7978 103.088 45.9756 102.968C46.4226 102.667 46.9054 102.341 47.3768 102.07C48.0546 101.682 48.8264 101.333 49.6875 101.23C50.5747 101.124 51.4902 101.287 52.4274 101.814C53.3234 102.318 54.2012 102.542 55.1642 102.696C55.4755 102.746 55.8228 102.791 56.1905 102.838C56.8845 102.927 57.6511 103.026 58.385 103.185C59.0773 103.335 60.351 103.569 61.5338 103.57C62.1276 103.571 62.6394 103.512 63.0227 103.388C63.4059 103.264 63.5527 103.113 63.611 103.003C63.73 102.776 63.8018 102.296 63.7547 101.607C63.7134 101 63.5914 100.38 63.4703 99.9345C63.4666 99.9308 63.4625 99.9269 63.458 99.9226C63.3924 99.8607 63.2776 99.7737 63.1008 99.6674C62.7484 99.4553 62.2619 99.2326 61.718 99.0199C60.632 98.5951 59.4677 98.2675 59.0506 98.1748C57.0815 97.7372 54.6016 96.4358 53.0152 95.5985C51.9712 95.0476 51.0571 94.4681 50.2032 93.6142C50.1261 93.5371 50.0358 93.4366 49.9607 93.3531C49.9491 93.3402 49.9378 93.3276 49.9271 93.3157C49.8352 93.2137 49.7477 93.1181 49.6614 93.0324C49.5845 92.9558 49.525 92.9038 49.483 92.8719C49.2475 92.8238 49.0543 92.7305 48.9148 92.6507C48.7688 92.5672 48.6316 92.4682 48.5422 92.4037C48.5345 92.3982 48.5271 92.3928 48.5201 92.3878C48.4314 92.324 48.3816 92.2898 48.3462 92.2687C47.9965 92.2514 47.6646 92.2581 47.299 92.2655C47.0823 92.2698 46.8539 92.2744 46.6028 92.2744C46.3049 92.2744 46.0151 92.2719 45.7322 92.2694C44.3257 92.257 43.0868 92.2461 41.8422 92.5573C41.3057 92.6914 40.7619 92.3652 40.6278 91.8286C40.4936 91.292 40.8199 90.7483 41.3565 90.6141C42.8724 90.2352 44.4097 90.2512 45.8177 90.266C46.0844 90.2688 46.3465 90.2715 46.6028 90.2715C46.7694 90.2715 46.9553 90.268 47.152 90.2643C47.5918 90.256 48.0855 90.2466 48.5379 90.2732C48.8451 90.2913 49.096 90.3974 49.2711 90.4913C49.4382 90.5808 49.5884 90.6889 49.684 90.7577L49.6899 90.762C49.8054 90.8451 49.8605 90.8842 49.9088 90.9118C49.9095 90.9122 49.9102 90.9126 49.9108 90.913C50.222 90.9651 50.4682 91.1156 50.6173 91.2205C50.7919 91.3433 50.9485 91.4875 51.074 91.6123C51.2021 91.7398 51.3211 91.8707 51.4148 91.9746C51.4278 91.9891 51.4401 92.0027 51.4517 92.0156C51.5341 92.1071 51.583 92.1614 51.6195 92.1979C52.2757 92.8541 52.9964 93.3239 53.9501 93.8272C55.6094 94.703 57.8329 95.8525 59.4851 96.2196C60.006 96.3354 61.2688 96.6935 62.4476 97.1546C63.036 97.3847 63.6412 97.655 64.1335 97.9512C64.3791 98.099 64.6248 98.2699 64.8322 98.4655C65.028 98.6502 65.2663 98.9279 65.3733 99.3022C65.5341 99.865 65.6981 100.665 65.753 101.47C65.805 102.231 65.7756 103.19 65.3834 103.935C64.9927 104.678 64.3026 105.079 63.6386 105.294C62.9748 105.508 62.2289 105.574 61.5322 105.573C60.1339 105.572 58.6948 105.301 57.9617 105.143C57.2927 104.998 56.702 104.923 56.0788 104.844C55.6903 104.795 55.2892 104.744 54.8486 104.674C53.7652 104.501 52.6289 104.226 51.4454 103.56C50.8667 103.234 50.3767 103.165 49.9248 103.219C49.4468 103.276 48.946 103.479 48.3736 103.808C47.9682 104.04 47.5838 104.3 47.1647 104.583C46.9726 104.712 46.7733 104.847 46.5612 104.986C45.923 105.405 45.2034 105.841 44.4145 106.117C43.3846 106.477 42.4693 106.587 41.6696 106.354C40.8326 106.109 40.3009 105.543 39.949 104.935C39.6148 104.357 39.4032 103.672 39.2268 103.084C39.2096 103.026 39.1927 102.97 39.1759 102.913C39.0085 102.353 38.8589 101.852 38.6534 101.396C38.2892 100.586 37.433 100.185 36.211 100.252C34.9819 100.32 33.7322 100.869 33.0823 101.519C32.3913 102.21 31.1568 103.114 29.8449 103.752C29.1846 104.073 28.4673 104.344 27.7593 104.478C27.0599 104.609 26.2848 104.621 25.5749 104.322C25.4558 104.272 25.3374 104.232 25.1856 104.181C25.1524 104.17 25.1176 104.158 25.0808 104.145C24.9001 104.084 24.6553 103.998 24.4244 103.873C24.1841 103.742 23.9094 103.544 23.7017 103.227C23.4886 102.902 23.3984 102.532 23.3984 102.149C23.3984 101.542 23.4213 101.027 23.5349 100.509C23.6503 99.9826 23.8474 99.5044 24.1347 98.9456C24.9718 97.3179 25.3438 96.0348 24.619 94.7301C24.1816 93.9429 24.2824 93.1423 24.608 92.4901C24.913 91.879 25.4252 91.3618 25.9282 90.9533C26.9415 90.1305 28.2244 89.5053 28.9008 89.2561ZM49.9305 90.9232C49.9305 90.9232 49.9299 90.923 49.9286 90.9224C49.9298 90.9229 49.9305 90.9232 49.9305 90.9232ZM48.3137 92.251C48.3137 92.251 48.3144 92.2513 48.316 92.2521C48.3145 92.2514 48.3137 92.251 48.3137 92.251ZM49.4415 92.8437C49.4414 92.8435 49.4443 92.845 49.4503 92.8488C49.4445 92.8459 49.4415 92.844 49.4415 92.8437ZM63.4978 99.9646C63.4977 99.9647 63.4966 99.9633 63.4947 99.9607C63.4969 99.9633 63.4978 99.9646 63.4978 99.9646Z" fill="#3A2D14"/>
<path fill-rule="evenodd" clip-rule="evenodd" d="M92.6356 89.6345C93.1303 89.8819 93.3308 90.4834 93.0835 90.9781C92.7932 91.5587 92.3299 92.1177 91.8894 92.5845C91.4387 93.0621 90.9559 93.5007 90.5826 93.8333C88.7658 95.4522 86.6519 96.3601 84.5025 96.9663C82.9346 97.4084 81.2868 97.7038 79.7116 97.9861C79.1569 98.0855 78.6112 98.1833 78.0812 98.2854C77.3372 98.4286 76.58 98.5924 75.8115 98.7587C73.3773 99.2854 70.8292 99.8367 68.2241 99.8367C68.161 99.8367 68.0974 99.8367 68.0334 99.8368C66.9795 99.8376 65.7889 99.8386 64.6317 99.6122C64.1926 99.5263 63.7504 99.401 63.3573 99.2896C63.2491 99.2589 63.1446 99.2293 63.0449 99.2018C62.5549 99.0669 62.1297 98.9679 61.7122 98.9401C61.1604 98.9033 60.7428 98.4261 60.7796 97.8742C60.8164 97.3223 61.2936 96.9048 61.8455 96.9416C62.4744 96.9835 63.0609 97.1288 63.5765 97.2708C63.7083 97.307 63.8335 97.3425 63.9543 97.3766C64.3324 97.4836 64.6666 97.5781 65.0163 97.6465C65.9762 97.8343 66.9872 97.8341 68.0913 97.8338C68.1354 97.8338 68.1797 97.8337 68.2241 97.8337C70.5951 97.8337 72.8488 97.347 75.2313 96.8325C76.0372 96.6584 76.8577 96.4812 77.7026 96.3186C78.2888 96.2057 78.8692 96.1017 79.444 95.9986C80.9889 95.7216 82.4929 95.452 83.9588 95.0385C85.9406 94.4797 87.7402 93.6834 89.2501 92.3379C89.6159 92.012 90.0446 91.6211 90.4328 91.2098C90.8311 90.7877 91.134 90.3984 91.292 90.0824C91.5394 89.5877 92.1409 89.3872 92.6356 89.6345Z" fill="#3A2D14"/>
<path fill-rule="evenodd" clip-rule="evenodd" d="M55.0619 91.5974C55.2056 91.0632 55.755 90.7467 56.2891 90.8903C57.3142 91.166 58.3424 91.4888 59.3456 91.8038C59.8393 91.9588 60.3269 92.112 60.8051 92.2566C62.2819 92.7033 63.7274 93.089 65.2088 93.2929C67.9026 93.6638 70.578 93.7946 73.3204 93.7946C76.0189 93.7946 78.1748 93.3085 80.4471 92.0101C80.9273 91.7356 81.539 91.9025 81.8134 92.3827C82.0879 92.8629 81.921 93.4747 81.4408 93.7491C78.8204 95.2464 76.311 95.7976 73.3204 95.7976C70.5148 95.7976 67.7442 95.6638 64.9356 95.2771C63.298 95.0517 61.7341 94.6302 60.2252 94.1737C59.7031 94.0158 59.1938 93.8558 58.6902 93.6976C57.7122 93.3904 56.7557 93.0899 55.769 92.8245C55.2349 92.6809 54.9183 92.1315 55.0619 91.5974Z" fill="#3A2D14"/>
<path fill-rule="evenodd" clip-rule="evenodd" d="M95.5742 90.5344C95.5742 89.9813 96.0226 89.533 96.5757 89.533C100.922 89.533 104.234 90.9241 107.891 92.8796C109.039 93.4936 110.252 94.0979 111.486 94.7134C114.36 96.1459 117.356 97.6397 119.958 99.4606C122.392 101.164 124.358 103.151 126.131 105.477C126.42 105.856 126.669 106.203 126.899 106.523C127.799 107.778 128.388 108.598 129.784 109.112C132.333 110.051 134.921 109.459 137.342 108.029C139.771 106.595 141.926 104.371 143.483 102.282L143.553 102.188C144.343 101.128 145.261 99.8969 145.995 98.5935C146.757 97.2387 147.252 95.9217 147.252 94.7485C147.252 94.1954 147.7 93.747 148.253 93.747C148.807 93.747 149.255 94.1954 149.255 94.7485C149.255 96.4346 148.563 98.1142 147.74 99.5759C146.942 100.994 145.957 102.316 145.18 103.357C145.149 103.398 145.119 103.439 145.089 103.479C143.432 105.702 141.09 108.141 138.361 109.754C135.624 111.37 132.394 112.209 129.092 110.992C127.068 110.246 126.08 108.849 125.144 107.527C124.943 107.243 124.744 106.962 124.538 106.692C122.87 104.503 121.049 102.669 118.809 101.101C116.333 99.3685 113.561 97.9871 110.751 96.5874C109.483 95.9553 108.206 95.3195 106.947 94.6459C103.394 92.7459 100.431 91.5359 96.5757 91.5359C96.0226 91.5359 95.5742 91.0875 95.5742 90.5344Z" fill="#3A2D14"/>
<path fill-rule="evenodd" clip-rule="evenodd" d="M172.642 88.0907C172.889 87.596 173.491 87.3955 173.986 87.6428C174.224 87.7621 174.477 87.8975 174.724 88.0298C174.781 88.06 174.837 88.09 174.892 88.1197C175.199 88.2834 175.502 88.442 175.805 88.5846C176.426 88.8767 176.966 89.0613 177.424 89.0919C178.922 89.1917 180.363 89.6958 181.677 90.1997C181.909 90.2886 182.137 90.3772 182.36 90.4644C183.45 90.8891 184.452 91.2798 185.461 91.5039C186.705 91.7804 187.995 92.5289 188.914 93.2436C189.932 94.0355 190.235 95.1472 190.258 96.1473C190.281 97.1198 190.044 98.1103 189.862 98.836C189.13 101.767 186.284 102.848 183.999 102.848C182.34 102.848 180.888 102.237 179.614 101.625C179.35 101.498 179.097 101.373 178.85 101.251C177.843 100.754 176.947 100.311 175.981 100.07C175.457 99.939 175.012 99.9261 174.686 100.015C174.404 100.093 174.178 100.251 174.016 100.602C173.903 100.846 173.837 101.126 173.745 101.516C173.714 101.643 173.682 101.781 173.644 101.934C173.512 102.46 173.308 103.189 172.81 103.753C170.839 105.988 168.233 106.045 165.922 105.334C163.643 104.633 161.452 103.143 159.921 101.945C158.973 101.203 158.185 100.302 157.463 99.4767C157.25 99.2339 157.043 98.9977 156.84 98.7739C156.659 98.5751 156.468 98.3459 156.286 98.1269C156.243 98.0758 156.201 98.0253 156.16 97.9758C155.932 97.7028 155.708 97.4419 155.478 97.2061C154.993 96.7092 154.603 96.4573 154.284 96.3994C153.74 96.3005 153.379 95.7791 153.478 95.235C153.577 94.6908 154.099 94.3299 154.643 94.4288C155.602 94.6033 156.362 95.2441 156.911 95.807C157.198 96.1012 157.463 96.4119 157.696 96.6907C157.746 96.7496 157.793 96.8065 157.839 96.8615C158.018 97.0772 158.173 97.2632 158.322 97.4266C158.581 97.712 158.823 97.9879 159.056 98.2539C159.751 99.0467 160.37 99.7527 161.155 100.367C162.632 101.523 164.589 102.828 166.511 103.42C168.403 104.001 170.054 103.849 171.308 102.428C171.451 102.266 171.568 101.978 171.7 101.45C171.721 101.368 171.742 101.277 171.765 101.178C171.863 100.757 171.991 100.209 172.197 99.763C172.62 98.8471 173.335 98.3087 174.157 98.0835C174.935 97.8704 175.756 97.9492 176.467 98.1268C177.662 98.4257 178.8 98.9893 179.819 99.4944C180.046 99.6068 180.267 99.7163 180.481 99.8194C181.719 100.414 182.822 100.845 183.999 100.845C185.84 100.845 187.507 99.9986 187.919 98.3503C188.105 97.6064 188.271 96.8612 188.256 96.1936C188.241 95.5534 188.065 95.1205 187.684 94.8246C186.897 94.2124 185.877 93.6481 185.026 93.4591C183.853 93.1984 182.679 92.74 181.59 92.3142C181.376 92.2309 181.166 92.1489 180.96 92.0698C179.653 91.5685 178.46 91.1683 177.291 91.0903C176.454 91.0345 175.64 90.7205 174.952 90.3968C174.601 90.2315 174.261 90.0529 173.95 89.8869C173.888 89.8538 173.827 89.8215 173.768 89.7899C173.523 89.6587 173.301 89.5399 173.09 89.4343C172.595 89.1869 172.395 88.5854 172.642 88.0907Z" fill="#3A2D14"/>
<path fill-rule="evenodd" clip-rule="evenodd" d="M87.0203 98.5681L87.0198 98.5701C86.703 99.7466 87.0459 100.678 87.7648 101.6C88.135 102.075 88.5936 102.53 89.1004 102.994C89.284 103.162 89.4851 103.341 89.6901 103.524C90.0144 103.813 90.3484 104.111 90.6379 104.387C91.7691 105.467 92.5278 106.898 92.4426 108.324C92.3505 109.865 91.3013 111.078 89.4987 111.627C85.5146 112.839 80.8181 112.033 77.2698 110.231C74.4103 108.779 73.1245 106.661 71.8324 104.182C70.9321 102.454 69.5921 100.963 67.9317 100.066C67.4451 99.8026 67.2639 99.1949 67.5269 98.7084C67.7899 98.2218 68.3976 98.0406 68.8841 98.3036C70.9583 99.4248 72.5588 101.242 73.6086 103.256C74.8608 105.659 75.9037 107.291 78.1766 108.445C81.3773 110.07 85.536 110.739 88.9156 109.71C90.0924 109.352 90.4112 108.74 90.4432 108.205C90.482 107.556 90.1207 106.662 89.255 105.836C88.9794 105.573 88.7027 105.327 88.407 105.064C88.1986 104.878 87.9808 104.685 87.7473 104.471C87.2149 103.983 86.659 103.439 86.1854 102.832C85.2167 101.59 84.5551 100.02 85.0857 98.0494C85.2949 97.2725 85.8556 96.8069 86.4414 96.5553C87.0001 96.3152 87.6375 96.2393 88.2088 96.2268C89.3591 96.2015 90.5854 96.4314 91.1973 96.5504C93.1671 96.9334 94.3791 98.0382 95.5505 99.183C96.5719 100.181 97.6181 100.605 99.0771 100.623C99.287 100.626 99.534 100.6 99.8525 100.559C99.8943 100.554 99.9376 100.548 99.9822 100.542C100.252 100.507 100.568 100.466 100.875 100.448C101.579 100.408 102.566 100.467 103.301 101.267C103.842 101.856 104.171 102.619 104.412 103.181C104.458 103.287 104.501 103.387 104.542 103.477C104.835 104.126 105.07 104.465 105.434 104.65C107.434 105.669 109.422 106.611 111.411 106.611C112.408 106.611 113.641 106.125 114.267 105.478C114.564 105.172 114.638 104.925 114.628 104.749C114.618 104.578 114.515 104.232 113.931 103.755C113.774 103.626 113.607 103.515 113.406 103.382L113.377 103.363C113.196 103.243 112.969 103.094 112.762 102.921C112.266 102.507 111.855 101.936 111.781 101.042C111.726 100.386 111.745 99.799 111.94 99.2147C112.133 98.6376 112.47 98.154 112.884 97.6563C113.238 97.2314 113.87 97.174 114.295 97.5281C114.72 97.8822 114.777 98.5136 114.423 98.9385C114.066 99.3672 113.915 99.6238 113.839 99.8504C113.766 100.07 113.733 100.35 113.777 100.876C113.798 101.134 113.876 101.242 114.046 101.384C114.16 101.479 114.298 101.571 114.509 101.71L114.51 101.711C114.705 101.839 114.952 102.002 115.2 102.205C116.048 102.899 116.575 103.718 116.627 104.635C116.68 105.548 116.248 106.313 115.706 106.872C114.655 107.956 112.879 108.614 111.411 108.614C108.869 108.614 106.466 107.424 104.524 106.435C103.504 105.915 103.033 105.002 102.717 104.302C102.647 104.148 102.584 104.005 102.526 103.872C102.286 103.323 102.117 102.938 101.827 102.622C101.725 102.511 101.538 102.417 100.989 102.448C100.761 102.461 100.526 102.491 100.253 102.527C100.205 102.533 100.157 102.539 100.107 102.546C99.7919 102.586 99.4182 102.63 99.0521 102.626C97.0969 102.601 95.5529 101.986 94.1506 100.615C93.0028 99.4937 92.1575 98.7775 90.815 98.5165C90.1969 98.3963 89.1633 98.2092 88.2528 98.2292C87.7937 98.2393 87.4505 98.3017 87.232 98.3955C87.0448 98.4759 87.0281 98.5389 87.0203 98.5681Z" fill="#3A2D14"/>
<path fill-rule="evenodd" clip-rule="evenodd" d="M33.7751 99.0457C34.3282 99.0457 34.7765 99.494 34.7765 100.047C34.7765 100.831 34.7385 101.628 34.7018 102.398C34.6956 102.527 34.6895 102.655 34.6837 102.781C34.6419 103.682 34.6103 104.549 34.6414 105.394C34.7033 107.078 35.0127 108.597 35.9275 109.946C36.5723 110.896 37.457 111.929 38.2709 112.336C38.7656 112.584 38.9661 113.185 38.7188 113.68C38.4714 114.175 37.8699 114.375 37.3752 114.128C36.0629 113.472 34.9338 112.049 34.2699 111.07C33.0612 109.287 32.7088 107.346 32.6398 105.468C32.6054 104.532 32.641 103.592 32.6829 102.689C32.689 102.557 32.6952 102.426 32.7014 102.296C32.7383 101.522 32.7736 100.779 32.7736 100.047C32.7736 99.494 33.222 99.0457 33.7751 99.0457Z" fill="#3A2D14"/>
<path fill-rule="evenodd" clip-rule="evenodd" d="M175.613 98.7622C175.919 98.302 176.541 98.1777 177.001 98.4845C177.764 98.9929 178.461 99.7786 179.019 100.577C179.583 101.384 180.057 102.279 180.344 103.068C180.875 104.528 180.876 106.256 180.624 107.855C180.371 109.468 179.845 111.055 179.221 112.287C178.97 112.782 178.585 113.282 178.202 113.74C177.987 113.999 177.733 114.288 177.485 114.571C177.308 114.773 177.134 114.972 176.979 115.153C176.576 115.625 176.223 116.067 175.964 116.48C175.698 116.903 175.582 117.215 175.561 117.43C175.505 117.98 175.015 118.382 174.464 118.327C173.914 118.272 173.513 117.781 173.568 117.231C173.634 116.566 173.935 115.944 174.268 115.414C174.608 114.873 175.039 114.341 175.456 113.852C175.653 113.622 175.837 113.413 176.013 113.212C176.237 112.956 176.45 112.713 176.665 112.457C177.034 112.014 177.293 111.66 177.435 111.381C177.961 110.342 178.424 108.956 178.646 107.544C178.87 106.119 178.832 104.77 178.462 103.752C178.243 103.15 177.856 102.41 177.377 101.725C176.893 101.031 176.364 100.467 175.89 100.151C175.43 99.8442 175.306 99.2224 175.613 98.7622Z" fill="#3A2D14"/>
<path d="M37.4397 114.089C36.1712 114.49 36.9111 116.593 37.4397 117.594L110.296 118.679H169.466L174.306 117.594C173.304 116.426 171.151 114.089 170.55 114.089H159.201C121.479 113.477 45.5014 112.253 43.365 112.253C40.6944 112.253 39.0253 113.588 37.4397 114.089Z" fill="#3A2D14"/>
<path fill-rule="evenodd" clip-rule="evenodd" d="M37.7617 115.038C37.7441 115.103 37.7274 115.244 37.7591 115.485C37.8056 115.837 37.9333 116.241 38.0817 116.602L110.304 117.678H169.355L172.421 116.99C172.144 116.693 171.855 116.393 171.574 116.116C171.216 115.761 170.89 115.463 170.632 115.26C170.53 115.18 170.452 115.125 170.396 115.09H159.193L159.185 115.09C121.453 114.478 45.4911 113.254 43.3655 113.254C42.2081 113.254 41.2592 113.541 40.3819 113.907C40.0351 114.052 39.7128 114.203 39.3819 114.359C39.2827 114.405 39.1828 114.452 39.0812 114.499C38.6625 114.694 38.2175 114.892 37.7617 115.038ZM170.32 115.048C170.32 115.048 170.325 115.05 170.336 115.056C170.326 115.052 170.32 115.049 170.32 115.048ZM39.6101 112.059C40.6313 111.633 41.8523 111.251 43.3655 111.251C45.5126 111.251 121.495 112.476 159.209 113.087H170.551C170.896 113.087 171.186 113.235 171.333 113.318C171.515 113.419 171.698 113.55 171.869 113.685C172.215 113.957 172.603 114.316 172.983 114.691C173.747 115.447 174.555 116.345 175.067 116.942L176.151 118.207L169.577 119.68H110.289L36.8316 118.587L36.5545 118.061C36.2607 117.505 35.8873 116.61 35.7734 115.747C35.7168 115.318 35.7106 114.8 35.8928 114.314C36.0939 113.776 36.5078 113.333 37.1386 113.134C37.4686 113.03 37.82 112.876 38.2376 112.683C38.3246 112.642 38.4149 112.6 38.5081 112.556C38.8451 112.398 39.2194 112.222 39.6101 112.059Z" fill="#3A2D14"/>
<path fill-rule="evenodd" clip-rule="evenodd" d="M66.8301 38.2341C67.1976 37.8207 67.8306 37.7835 68.244 38.1509C69.1184 38.9282 70.3357 39.7931 71.3276 40.2891C71.8223 40.5364 72.0228 41.138 71.7755 41.6327C71.5281 42.1274 70.9266 42.3279 70.4319 42.0805C69.2499 41.4895 67.8886 40.5148 66.9133 39.6479C66.4999 39.2805 66.4627 38.6475 66.8301 38.2341Z" fill="#3A2D14"/>
<path fill-rule="evenodd" clip-rule="evenodd" d="M92.6557 32.1085C93.1805 31.9336 93.7476 32.2172 93.9225 32.7419C93.9832 32.9241 94.0533 33.1148 94.1312 33.3254C94.1355 33.3369 94.1397 33.3485 94.144 33.3601C94.2166 33.5562 94.2952 33.7687 94.3689 33.984C94.5235 34.4363 94.6766 34.957 94.7307 35.4983C94.7858 36.0486 94.3842 36.5394 93.8339 36.5944C93.2835 36.6495 92.7928 36.2479 92.7377 35.6976C92.7065 35.3856 92.6119 35.0364 92.4737 34.6322C92.4083 34.4411 92.3377 34.25 92.2631 34.0484C92.2596 34.039 92.2561 34.0295 92.2526 34.0201C92.176 33.8129 92.0949 33.5929 92.0224 33.3753C91.8475 32.8506 92.131 32.2835 92.6557 32.1085Z" fill="#3A2D14"/>
<path fill-rule="evenodd" clip-rule="evenodd" d="M58.8835 60.4319C59.0521 60.9586 58.7617 61.5223 58.2349 61.6909C57.1578 62.0356 56.1411 62.2684 55.0789 62.4809C54.5366 62.5894 54.009 62.2376 53.9005 61.6953C53.792 61.1529 54.1438 60.6253 54.6861 60.5169C55.7134 60.3114 56.6484 60.0956 57.6245 59.7833C58.1512 59.6147 58.7149 59.9051 58.8835 60.4319Z" fill="#3A2D14"/>
<path fill-rule="evenodd" clip-rule="evenodd" d="M131.329 40.4226C131.329 39.8695 131.777 39.4211 132.331 39.4211H137.155C137.708 39.4211 138.157 39.8695 138.157 40.4226C138.157 40.9757 137.708 41.4241 137.155 41.4241H132.331C131.777 41.4241 131.329 40.9757 131.329 40.4226Z" fill="#3A2D14"/>
<path fill-rule="evenodd" clip-rule="evenodd" d="M111.855 49.433C112.067 48.9224 112.654 48.681 113.164 48.8937C114.082 49.2762 114.699 50.0647 115.141 50.6426C115.185 50.6997 115.227 50.7553 115.268 50.8093C115.706 51.3845 116.01 51.7843 116.382 52.032C116.842 52.3388 116.966 52.9606 116.66 53.4208C116.353 53.881 115.731 54.0054 115.271 53.6986C114.598 53.2502 114.08 52.5625 113.688 52.0418C113.64 51.9779 113.594 51.9165 113.549 51.8584C113.076 51.2391 112.751 50.8912 112.394 50.7426C111.883 50.5298 111.642 49.9435 111.855 49.433Z" fill="#3A2D14"/>
<path fill-rule="evenodd" clip-rule="evenodd" d="M89.1738 54.433C89.7104 54.2988 90.2542 54.6251 90.3883 55.1616C90.5515 55.8144 90.8747 56.3989 91.2748 57.1226C91.3075 57.1818 91.3407 57.2418 91.3744 57.3029C91.7958 58.0676 92.2822 58.986 92.4396 60.0876C92.5178 60.6351 92.1373 61.1424 91.5898 61.2206C91.0423 61.2988 90.535 60.9184 90.4568 60.3708C90.3565 59.6686 90.0424 59.0358 89.6202 58.2697C89.5832 58.2025 89.5451 58.1339 89.5062 58.064C89.1273 57.3821 88.6756 56.5691 88.4452 55.6474C88.311 55.1108 88.6373 54.5671 89.1738 54.433Z" fill="#3A2D14"/>
<path fill-rule="evenodd" clip-rule="evenodd" d="M163.011 67.0897C162.889 66.614 162.432 66.2883 161.93 66.3441C161.38 66.4052 160.984 66.9003 161.045 67.45C161.102 67.9594 161.372 68.2757 161.533 68.444C161.563 68.4745 161.594 68.5058 161.615 68.5271C161.62 68.5313 161.624 68.5352 161.627 68.5386C161.649 68.5607 161.662 68.5737 161.671 68.5833C161.928 69.0529 162.513 69.2385 162.996 68.997C163.491 68.7496 163.692 68.1481 163.444 67.6534C163.352 67.4684 163.239 67.331 163.154 67.2369C163.111 67.1907 163.071 67.1502 163.043 67.1218C163.035 67.1141 163.028 67.1073 163.022 67.1012C163.018 67.0971 163.014 67.0933 163.011 67.0897Z" fill="#3A2D14"/>
<path fill-rule="evenodd" clip-rule="evenodd" d="M92.7854 9.96952C92.7949 10.4303 92.429 10.8116 91.9682 10.821C91.886 10.8227 91.7732 10.8225 91.6333 10.8223C90.6357 10.8205 88.263 10.8164 85.8335 11.4771C84.6916 11.7876 83.3333 12.3867 82.1074 13.0504C80.872 13.7193 79.8498 14.4111 79.352 14.8753C79.0149 15.1896 78.4868 15.1711 78.1725 14.834C77.8582 14.4969 77.8767 13.9689 78.2138 13.6545C78.8654 13.0469 80.0327 12.2757 81.3127 11.5827C82.6021 10.8845 84.085 10.2229 85.3956 9.86647C88.0707 9.13899 90.6955 9.14909 91.6514 9.15277C91.7743 9.15324 91.8696 9.15361 91.9339 9.15229C92.3947 9.14282 92.776 9.5087 92.7854 9.96952Z" fill="#3A2D14"/>
<path fill-rule="evenodd" clip-rule="evenodd" d="M118.718 8.60844C118.555 9.03954 118.073 9.25683 117.642 9.09376C117.565 9.06468 117.46 9.02241 117.331 8.97003C116.406 8.59636 114.206 7.70766 111.705 7.41465C110.53 7.27692 109.046 7.3262 107.661 7.48488C106.265 7.64479 105.059 7.90549 104.424 8.15052C103.994 8.31645 103.511 8.10238 103.345 7.67237C103.179 7.24237 103.393 6.75927 103.823 6.59334C104.654 6.27258 106.025 5.99231 107.471 5.82663C108.928 5.65973 110.551 5.59883 111.9 5.75689C114.653 6.07953 117.085 7.0678 117.97 7.4277C118.084 7.47398 118.172 7.50986 118.233 7.53261C118.664 7.69568 118.881 8.17734 118.718 8.60844Z" fill="#3A2D14"/>
<path d="M102.954 33.4994C102.954 36.8333 101.888 50.0513 97.6846 50.0513C93.4811 50.0513 86.7559 40.9226 86.7559 37.5887C86.7559 34.2547 88.4071 25.3208 92.6106 25.3208C96.8141 25.3208 102.954 30.1654 102.954 33.4994Z" fill="#EFEBD2"/>
<path d="M122.274 28.4364C122.274 31.7703 123.941 44.0147 119.737 44.0147C102.759 40.5096 102.368 33.5229 102.368 30.189C102.368 26.8551 104.02 17.9211 108.223 17.9211C112.427 17.9211 122.274 25.1025 122.274 28.4364Z" fill="#EFEBD2"/>
<path d="M99.2459 23.9577C99.2459 27.2916 95.8383 29.9942 91.6348 29.9942C87.4313 29.9942 83.0479 31.3809 83.0479 28.047C83.0479 24.713 84.6991 15.7791 88.9026 15.7791C93.1061 15.7791 99.2459 20.6238 99.2459 23.9577Z" fill="#EFEBD2"/>
<path d="M119.347 20.6473C119.347 23.9812 115.939 26.6839 111.736 26.6839C107.532 26.6839 103.149 28.0705 103.149 24.7366C103.149 21.4027 104.8 12.4687 109.004 12.4687C113.207 12.4687 119.347 17.3134 119.347 20.6473Z" fill="#EFEBD2"/>
<path fill-rule="evenodd" clip-rule="evenodd" d="M97.7 53.2056L97.4914 53.2366L97.2791 53.2486C94.9825 53.3787 92.9419 52.2171 91.7561 51.4055C90.3437 50.4388 88.9429 49.1313 87.6585 47.6213C85.0804 44.5904 82.6343 40.3463 81.4271 35.3212C81.3844 35.1438 81.343 34.9664 81.3028 34.7891C81.095 34.8553 80.8843 34.9227 80.6705 34.9913C80.4458 35.0635 80.2177 35.1371 79.9861 35.2121C78.7882 35.5997 77.5008 34.9488 77.1108 33.7582C76.7207 32.5676 77.3756 31.2882 78.5735 30.9005C79.2557 30.6797 79.9086 30.4709 80.5348 30.2731C80.2141 27.3863 80.2508 24.6366 80.6928 22.2447C81.314 18.8831 83.1794 14.3191 88.1797 13.5766C92.9156 12.8735 96.9343 16.127 99.3591 19.0705C99.6512 19.4251 99.9369 19.7937 100.216 20.1754C100.304 19.4121 100.428 18.6754 100.587 17.9707C101.36 14.5406 103.441 10.1706 108.299 9.44931C113.157 8.72797 117.122 12.2004 119.433 15.1723C120.952 17.1257 122.287 19.4865 123.363 22.0924C124.066 22.028 124.705 21.972 125.266 21.925C126.521 21.8197 127.625 22.7458 127.731 23.9935C127.836 25.2413 126.905 26.338 125.649 26.4433C125.404 26.4639 125.145 26.4861 124.872 26.5099C124.984 26.918 125.09 27.3292 125.19 27.7433C126.35 32.5729 126.518 37.2997 125.661 41.099C125.051 43.8082 123.624 47.1038 120.658 48.7248C120.13 50.4546 118.927 52.2206 116.668 53.5099C115.794 54.0087 114.679 53.709 114.177 52.8403C113.675 51.9717 113.977 50.8631 114.851 50.3642C117.269 48.9838 117.521 46.8977 117.272 45.7466C117.186 45.3459 116.86 44.7724 116.214 44.2396C115.586 43.7214 114.761 43.334 113.862 43.2193C112.948 43.1026 112.299 43.2588 111.784 43.5235C111.24 43.8038 110.736 44.2636 110.224 44.9108C109.996 45.1993 109.789 45.7038 109.656 46.3593C109.529 46.9904 109.506 47.584 109.518 47.8891C109.56 48.89 108.777 49.7348 107.77 49.7761C106.763 49.8173 105.913 49.0394 105.872 48.0386C105.848 47.4598 105.89 46.5755 106.078 45.645C106.195 45.0672 106.383 44.3939 106.695 43.7409C106.45 43.4201 106.209 43.0888 105.974 42.7475C105.867 43.4717 105.727 44.1712 105.555 44.8414C104.673 48.2751 102.455 52.4995 97.7 53.2056ZM109.77 40.4872C109.879 40.4231 109.991 40.3614 110.106 40.3023C111.311 39.6823 112.712 39.4152 114.327 39.6214C115.958 39.8295 117.421 40.5212 118.545 41.4482C119.071 41.8822 119.548 42.3899 119.936 42.9522C121.739 39.9851 122.135 34.4782 120.678 28.4132C120.558 27.9172 120.429 27.4281 120.291 26.947C119.143 27.0644 117.925 27.1948 116.674 27.336C117.67 29.9098 117.81 33.3768 113.771 35.4968C111.212 36.8406 107.786 36.0142 106.381 33.4921C107.278 36.1817 108.455 38.5741 109.77 40.4872ZM100.17 29.9508C100.404 30.6772 100.614 31.4248 100.798 32.1901C102.842 40.6975 100.812 48.1758 96.6405 48.7952C94.5975 48.911 89.8235 44.8046 87.1604 38.3939C88.8407 39.9261 91.5265 40.264 93.6374 39.1558C97.8424 36.9483 97.5807 33.3261 96.5063 30.7308L97.2961 30.564C98.1999 30.3732 99.1438 30.174 100.17 29.9508ZM98.4164 25.689C97.7151 25.8394 97.046 25.9807 96.3936 26.1183L96.3915 26.1186C92.8741 26.8611 89.8644 27.4964 85.0293 28.9043C84.6099 22.9898 86.0457 18.4612 89.2393 17.987C92.248 17.5402 95.8662 20.7006 98.4164 25.689ZM104.696 24.3963C108.935 23.668 114.236 23.0241 118.688 22.5543C116.188 17.0113 112.517 13.3908 109.358 13.8597C106.242 14.3223 104.508 18.6352 104.696 24.3963Z" fill="#3A2D14"/>
<path d="M96.5352 64.3754C96.4399 64.6024 96.3011 64.8142 96.1318 65.0008C95.8026 65.9046 95.7691 66.8386 95.8653 67.9547C96.1887 71.7089 99.4942 74.49 103.248 74.1666C106.938 73.8488 109.687 70.6513 109.474 66.978L109.477 66.9778C109.385 65.9052 110.179 64.9607 111.252 64.8683C112.324 64.7759 113.269 65.5706 113.361 66.6432L113.364 66.6422C113.782 70.298 117.038 72.9787 120.728 72.6608C124.482 72.3374 127.263 69.032 126.939 65.2778C126.858 64.3316 126.587 63.4471 126.167 62.6587C125.412 62.1489 125.097 61.1616 125.462 60.2895C125.879 59.2969 127.176 58.69 128.169 59.1066C128.66 59.3127 129.011 59.6736 129.189 60.1059C130.089 61.517 130.67 63.1603 130.824 64.9432C131.332 70.8426 126.962 76.0369 121.062 76.5451C117.45 76.8563 114.101 75.338 111.932 72.7594C110.235 75.6711 107.196 77.7397 103.583 78.0509C97.6836 78.5591 92.4892 74.1888 91.981 68.2894C91.8189 66.4079 92.1531 64.5982 92.8748 62.9893L92.8841 62.9923C93.3463 62.0644 94.5847 61.5161 95.5408 61.9174C96.5335 62.334 96.9518 63.3827 96.5352 64.3754Z" fill="#3A2D14"/>
</svg>
