<svg width="1440" height="1024" viewBox="0 0 1440 1024" fill="none" xmlns="http://www.w3.org/2000/svg">
<rect width="1440" height="1024" fill="white"/>
<rect x="366" y="253" width="388" height="393" fill="#9747FF" stroke="black" stroke-width="4"/>
<circle cx="533.064" cy="433.142" r="96.7556" transform="rotate(-7.54495 533.064 433.142)" fill="#00C5F1" stroke="#3A2D14" stroke-width="6.74436"/>
<path d="M626.31 428.014C626.178 425.647 625.955 423.268 625.638 420.88C622.523 397.358 610.906 377.047 594.292 362.631L591.017 362.687C590.316 362.699 589.64 362.947 589.098 363.391L575.114 374.839C575.08 374.866 575.042 374.887 575 374.901C574.867 374.946 574.721 374.908 574.624 374.808C571.431 371.527 566.44 369.742 561.131 370.446C552.751 371.556 546.999 378.336 547.714 383.736L547.723 383.799L547.729 383.845C547.736 383.894 547.743 383.942 547.751 383.991L547.749 383.994L548.041 386.204C548.237 387.681 549.593 388.72 551.071 388.525L552.253 388.368C553.105 388.255 553.887 388.855 554 389.707C554.113 390.559 553.514 391.341 552.662 391.454L549.818 391.83C549.16 391.918 548.546 392.213 548.068 392.674L546.186 394.487C545.139 395.496 544.93 397.096 545.683 398.34L548.032 402.222C548.672 403.28 549.878 403.859 551.104 403.697L554.019 403.311C554.963 403.186 555.913 403.5 556.596 404.164L559.243 406.735C559.746 407.222 560.069 407.865 560.161 408.559L561.074 415.459C561.3 417.164 562.865 418.362 564.569 418.136L568.555 417.609C570.046 417.411 571.095 416.042 570.897 414.551C570.7 413.06 571.749 411.691 573.24 411.493L580.44 410.539C582.073 410.323 583.573 411.472 583.789 413.105C584.005 414.738 582.857 416.238 581.223 416.454L575.166 417.256C572.625 417.593 571.557 420.683 573.347 422.516L585.267 434.73C586.592 436.088 588.813 435.955 589.966 434.449L598.596 423.184C599.098 422.529 599.84 422.1 600.658 421.991L606.234 421.253C606.956 421.157 607.689 421.318 608.305 421.706L609.545 422.489C610.326 422.982 610.848 423.797 610.97 424.713L611.255 426.868C611.481 428.572 613.045 429.771 614.75 429.545L626.31 428.014Z" fill="#00B100"/>
<path d="M455.887 380.565L466.001 379.225C467.705 378.999 469.27 380.198 469.496 381.902L470.313 388.074C470.332 388.216 470.462 388.316 470.604 388.297C465.365 389.1 461.578 393.241 462.18 397.786C462.782 402.33 467.529 405.45 472.784 404.754L478.184 404.039C479.889 403.813 481.087 402.249 480.862 400.545L480.759 399.773C480.534 398.069 481.732 396.504 483.437 396.279L489.669 395.453C490.456 395.349 491.253 395.549 491.897 396.013L499.928 401.8C500.624 402.301 501.082 403.067 501.195 403.917L502.153 411.152C502.256 411.927 502.063 412.712 501.614 413.351L495.391 422.204C494.891 422.916 494.116 423.386 493.253 423.5L488.089 424.184C486.418 424.405 485.287 425.949 484.898 427.588C484.126 430.852 481.554 433.423 478.21 433.865L471.267 434.785C469.563 435.011 468.364 436.575 468.59 438.28L469.203 442.908C469.429 444.613 468.23 446.177 466.526 446.403L460.998 447.135C459.955 447.273 458.912 446.875 458.227 446.077L440.027 424.873C441.449 408.705 447.059 393.514 455.887 380.565Z" fill="#00B100"/>
<path d="M492.255 387.784C491.402 387.897 490.803 388.679 490.916 389.531C491.009 390.234 491.31 390.568 491.892 390.972L501.982 398.009C503.46 399.036 504.878 398.783 505.805 397.241L515.662 383.973C516.025 383.369 516.172 382.659 516.08 381.96L515.878 380.44C515.771 379.634 515.353 378.901 514.713 378.399L503.895 369.917C503.236 369.4 502.396 369.171 501.566 369.281L485.635 371.391C484.215 371.579 483.216 372.883 483.404 374.303C483.592 375.723 484.896 376.722 486.316 376.534L490.688 375.955C494.949 375.391 498.814 378.042 499.322 381.876C499.83 385.711 496.502 387.129 492.255 387.784Z" fill="#00B100"/>
<path d="M470.996 450.879C468.834 449.175 469.785 445.71 472.514 445.348L491.957 442.773C492.776 442.664 493.604 442.886 494.259 443.388L512.597 457.436C513.252 457.938 514.08 458.159 514.899 458.051L519.535 457.437C521.239 457.211 522.804 458.409 523.029 460.114L523.982 467.302L523.982 467.305L523.982 467.307C523.982 467.309 523.982 467.31 523.981 467.312C523.98 467.316 523.978 467.32 523.975 467.323C523.971 467.328 523.969 467.335 523.969 467.341C524.279 471.958 520.72 476.119 516.073 476.735C515.909 476.757 515.746 476.774 515.583 476.786C515.576 476.787 515.57 476.79 515.566 476.795C515.563 476.798 515.561 476.802 515.56 476.806C515.56 476.809 515.56 476.811 515.56 476.814L516.403 483.18C516.516 484.033 516.271 484.896 515.725 485.562L503.245 500.792C502.699 501.458 502.453 502.32 502.566 503.173L502.704 504.216C503.011 506.53 500.756 508.346 498.561 507.552L495.263 506.36C494.17 505.965 493.388 504.994 493.235 503.841L489.044 472.2C489.025 472.059 488.894 471.962 488.753 471.98C482.839 472.764 477.835 470.548 477.12 465.148L475.89 455.858C475.783 455.054 475.367 454.324 474.731 453.822L470.996 450.879Z" fill="#00B100"/>
<path d="M528.54 430.601C528.315 428.897 529.513 427.332 531.217 427.106L565.162 422.61C566.139 422.481 566.703 422.915 567.389 423.624L584.053 440.78C584.739 441.488 585.303 441.922 586.28 441.793L591.139 441.149C591.432 441.111 591.71 441.299 591.749 441.592C591.989 443.402 591.217 445.124 589.854 446.238C588.522 447.325 587.213 448.832 587.439 450.536L589.044 462.655C589.15 463.459 588.939 464.272 588.455 464.922L582.19 473.344C581.706 473.994 581.495 474.807 581.601 475.61L582.253 480.529C582.479 482.234 581.28 483.798 579.576 484.024L573.94 484.77C573.104 484.881 572.26 484.648 571.599 484.125L564.559 478.553C563.925 478.051 563.512 477.322 563.406 476.521L560.982 458.227C560.757 456.523 559.192 455.324 557.488 455.55L549.794 456.569C549.787 456.57 549.78 456.569 549.773 456.568C549.767 456.566 549.761 456.564 549.756 456.56C549.744 456.553 549.73 456.55 549.716 456.552C549.396 456.613 549.072 456.664 548.745 456.708C539.75 457.899 531.559 452.215 530.314 443.976L530.313 443.974L530.312 443.972L530.311 443.971L528.54 430.601Z" fill="#00B100"/>
<path d="M537.185 408.942C536.959 407.238 538.158 405.673 539.862 405.447L548.213 404.341C549.282 404.2 550.263 404.951 550.404 406.02C550.459 406.433 550.38 406.854 550.178 407.219L544.707 417.137C544.229 418.002 543.369 418.589 542.39 418.719L541.633 418.819C539.929 419.045 538.364 417.846 538.139 416.142L537.185 408.942Z" fill="#00B100"/>
<path d="M542.372 396.742C544.076 396.516 545.275 394.951 545.049 393.247L544.611 389.936C544.439 388.64 543.249 387.729 541.954 387.901C541.209 387.999 540.555 388.446 540.192 389.104L536.695 395.442C536.563 395.681 536.511 395.956 536.547 396.226C536.64 396.925 537.281 397.416 537.98 397.323L542.372 396.742Z" fill="#00B100"/>
<path d="M656.557 425.127L633.216 450.246L617.719 438.374L633.913 426.476L637.216 417.788L621.467 407.219L610.506 407.422L600.939 419.91L588.227 422.885L577.694 418.083L569.535 415.67L532.982 399.008L535.387 391.269L545.209 387.192L540.137 374.974L543.437 369.391L556.907 368.012L551.835 355.793L557.827 349.655L587.468 367.047L597.197 365.61L612.627 373.525L612.523 387.28L632.767 393.441L653.879 406.249L656.557 425.127Z" fill="#00B100"/>
<path d="M619.571 436.221C622.797 435.127 630.136 432.04 633.99 425.938C637.827 419.864 637.91 416.064 636.13 415.021C627.753 410.118 615.121 407.206 611.187 406.355C610.915 406.296 610.653 406.463 610.573 406.729C609.819 409.228 607.13 415.98 602.652 419.174C598.955 421.811 589.999 422.745 584.473 421.439C577.897 419.885 566.937 414.84 563.038 411.953C563.015 411.936 562.992 411.922 562.966 411.909C551.621 406.135 529.744 405.398 532.05 396.086C535.597 381.762 566.313 392.698 569.692 393.474M569.692 393.474C573.27 394.452 573.337 394.613 575.13 394.992M569.692 393.474C567.425 392.855 536.357 383.979 538.542 374.512C541.899 359.96 574.356 377.544 579.245 378.946C579.523 379.026 579.629 378.833 579.396 378.661C575.763 375.959 544.613 363.157 552.829 352.853C561.531 341.938 587.74 367.148 588.993 368.173C591.611 370.316 593.179 371.491 598.739 376.766M632.797 448.823C637.447 446.647 646.712 440.509 650.046 435.483C654.23 429.172 657.042 423.819 657.081 416.312C657.12 408.805 653.898 400.605 637.165 393.387C624.601 387.968 618.405 387.13 615.597 386.766C615.314 386.73 615.116 386.472 615.151 386.19C615.602 382.558 616.019 378.348 613.559 374.459C613.543 374.432 613.526 374.41 613.505 374.387C611.766 372.488 605.201 363.116 589.892 366.956" stroke="#3A2D14" stroke-width="5.70676" stroke-linecap="round"/>
<path d="M461.447 510.041L497.133 509.967L499.019 489.738L478.483 493.698L469.513 490.079L472.572 470.578L480.475 462.349L496.777 463.868L508.034 456.261L511.812 444.82L515.736 436.883L528.847 397.184L521.235 393.55L511.177 398.171L505.43 385.66L498.833 384.234L488.257 393.549L482.509 381.038L473.585 381.275L465.918 416.211L457.943 422.627L453.082 440.009L463.663 449.652L454.059 469.47L448.92 494.652L461.447 510.041Z" fill="#00B100"/>
<path d="M496.066 489.63C492.949 491.322 485.404 494.746 478.018 493.376C470.667 492.013 467.705 489.391 468.167 487.294C470.346 477.414 477.068 465.684 479.188 462.098C479.33 461.859 479.631 461.78 479.881 461.902C482.306 463.088 489.385 465.823 495.004 464.657C499.631 463.696 506.675 457.515 509.584 452.371C513.045 446.249 516.939 434.309 517.49 429.291C517.493 429.262 517.498 429.236 517.506 429.208C521.114 416.46 536.017 399.227 527.273 394.406C513.824 386.99 500.466 418.184 498.67 421.314M498.67 421.314C496.888 424.738 496.964 424.903 495.986 426.54M498.67 421.314C499.8 419.144 514.98 389.138 506.205 384.115C492.698 376.383 483.18 413.712 480.811 418.359C480.679 418.617 480.464 418.567 480.493 418.279C480.958 413.683 493.263 380.728 479.561 379.718C465.072 378.65 465.803 416.491 465.7 418.172C465.486 421.687 465.276 423.715 465.375 431.691M496.343 508.642C491.394 510.656 480.156 513.395 473.96 512.388C466.181 511.123 460.105 509.487 454.343 504.211C448.581 498.934 444.595 490.676 450.91 472.792C455.663 459.332 459.41 454.013 461.11 451.619C461.275 451.387 461.221 451.067 460.99 450.901C457.892 448.675 454.37 446.017 453.136 441.379C453.128 441.349 453.123 441.321 453.12 441.29C452.9 438.624 450.377 426.98 464.135 417.999" stroke="#3A2D14" stroke-width="5.70676" stroke-linecap="round"/>
<path d="M631.754 518.586L659.065 507.248L661.85 513.956L680.627 498.297L699.888 493.952L712.446 503.906L717.491 521.471L699.65 538.708L666.11 552.632L648.733 550.015L641.74 527.079L634.539 525.294L631.754 518.586Z" fill="#EFEBD2"/>
<path d="M577.644 484.314L588.47 461.002L606.383 434.467L622.982 436.564L652.222 506.999L640.541 512.691L611.469 451.455L586.631 493.784L577.644 484.314Z" fill="#00C5F1"/>
<path d="M589.144 494.426C597.928 474.189 602.686 463.141 611.164 454.113C611.392 453.87 611.775 453.89 611.954 454.17C618.384 464.211 634.051 496.892 638.845 512.566C638.928 512.837 638.771 513.112 638.508 513.22C636.776 513.932 634.04 515.804 632.669 517.41C631.162 519.174 630.63 520.245 631.898 522.243C632.695 523.499 636.512 525.978 640.517 525.22C640.875 525.152 641.223 525.427 641.22 525.791C641.167 532.148 645.71 550.06 652.578 552.327C664.549 556.279 687.981 545.288 699.812 538.284C709.044 532.818 710.664 531.984 714.839 526.48C723.336 515.278 711 501.672 708.948 499.435C697.902 487.392 683.152 496.382 676.858 502.646C671.374 507.713 667.191 513.441 664.019 514.281C662.14 514.778 660.754 514.881 659.772 514.881C659.259 514.88 658.939 514.015 659.288 513.637C660.697 512.108 662.17 509.911 661.491 508.309C660.669 506.367 656.133 506.623 653.466 507.067C653.143 507.121 652.845 506.9 652.819 506.573C651.939 495.456 628.462 450.197 626.127 444.681C623.903 439.426 615.412 434.006 609.137 435.817C603.134 437.55 598.92 442.958 596.072 447.544C592.547 453.221 589.031 458.888 577.786 482.896" stroke="#3A2D14" stroke-width="6.22556" stroke-linecap="round"/>
<path d="M640.932 525.705C646.401 523.996 656.782 517.609 659.483 514.914" stroke="#3A2D14" stroke-width="6.22556" stroke-linecap="round"/>
<path d="M638.754 512.975C642.586 512.708 649.993 509.027 651.964 507.026" stroke="#3A2D14" stroke-width="6.22556" stroke-linecap="round"/>
<path d="M575.803 550.239L603.114 538.901L605.899 545.609L624.676 529.95L643.937 525.605L656.495 535.559L661.54 553.125L643.699 570.361L610.158 584.285L592.782 581.668L585.788 558.732L578.587 556.947L575.803 550.239Z" fill="#EFEBD2"/>
<path d="M521.693 515.968L532.519 492.656L550.432 466.121L567.031 468.218L596.27 538.653L584.59 544.344L555.518 483.108L530.68 525.437L521.693 515.968Z" fill="#00C5F1"/>
<path d="M538.911 517.527C547.691 497.299 546.929 494.506 555.207 485.77C555.435 485.529 555.824 485.544 556.003 485.823C562.433 495.865 578.1 528.545 582.893 544.219C582.977 544.491 582.82 544.765 582.557 544.873C580.825 545.585 578.089 547.458 576.717 549.063C575.21 550.827 574.678 551.899 575.946 553.896C576.743 555.152 580.56 557.631 584.566 556.873C584.923 556.806 585.272 557.08 585.269 557.444C585.216 563.801 589.759 581.713 596.626 583.98C608.598 587.932 632.03 576.941 643.86 569.937C653.092 564.471 654.712 563.638 658.887 558.134C667.385 546.932 655.048 533.326 652.996 531.088C641.95 519.046 627.2 528.035 620.906 534.299C615.423 539.367 611.239 545.095 608.067 545.934C606.189 546.431 604.802 546.535 603.821 546.534C603.307 546.534 602.988 545.668 603.336 545.29C604.746 543.761 606.218 541.565 605.54 539.962C604.718 538.021 600.181 538.276 597.514 538.72C597.191 538.774 596.894 538.553 596.868 538.227C595.987 527.109 572.511 481.85 570.176 476.335C567.951 471.079 559.46 465.66 553.185 467.471C547.183 469.203 542.969 474.611 540.121 479.197C536.596 484.874 538.798 481.989 527.552 505.997" stroke="#3A2D14" stroke-width="6.22556" stroke-linecap="round"/>
<path d="M584.98 557.358C590.449 555.649 600.83 549.262 603.531 546.568" stroke="#3A2D14" stroke-width="6.22556" stroke-linecap="round"/>
<path d="M582.803 544.628C586.635 544.361 594.041 540.68 596.013 538.679" stroke="#3A2D14" stroke-width="6.22556" stroke-linecap="round"/>
<rect x="913" y="494" width="414" height="410" fill="#F783A4" stroke="black" stroke-width="4"/>
<path d="M1108.6 638.727L1112.2 655.797L1037.9 676.126L1034.64 660.05L1108.6 638.727Z" fill="#00C5F1"/>
<path d="M1031.44 651.693L1037.69 657.69L1040.52 680.397L1041 688.325L1036.4 692.163L1020.14 692.399L1007.08 700.831L1007.52 729.085L990.764 747.329L972.198 756.303L953.837 719.785L948.203 690.942L950.368 678.755L970.474 670.818L992.32 664.947L1008.91 659.567L1016.64 658.058L1020.02 650.715L1027.19 647.711L1031.44 651.693Z" fill="#EFEBD2"/>
<path d="M1116.48 636.724L1038.18 658.819C1034.03 644.391 1025.27 646.101 1021.19 648.501C1017.21 650.847 1015.73 658.838 1015.32 660.877C1007.7 662.455 955.611 670.556 949.118 677.817C941.877 685.915 952.077 717.61 952.788 719.877C953.572 722.382 963.893 753.492 971.739 755.323C980.7 757.414 1020.17 739.069 1006.46 703.125C1014.59 698.184 1017.63 695.985 1025.27 691.285C1027.53 693.251 1033.37 696.142 1037.76 693.658C1041.37 691.615 1043.46 685.861 1041.68 676.731C1045.44 675.462 1096.05 658.091 1119.17 655.982M1036.98 659.321C1036.02 660.915 1036.06 665.734 1037.28 668.868C1038.51 672.002 1040.62 674.686 1042.35 676.061M1015.63 659.748C1015.34 662.316 1015.24 669.784 1017.07 675.535C1019.06 681.786 1022.95 688.809 1024.34 690.571M1008.61 724.595C1009.09 722.949 1010.29 706.374 1003.62 697.942C997.425 690.113 985.77 686.064 983.887 685.658" stroke="#3A2D14" stroke-width="6.29757" stroke-linecap="round"/>
<circle cx="1170.96" cy="671.091" r="97.8747" transform="rotate(60 1170.96 671.091)" fill="#00C5F1" stroke="#3A2D14" stroke-width="6.82237"/>
<path d="M1211.78 756.283C1213.94 755.245 1216.08 754.117 1218.19 752.898C1238.98 740.898 1253.48 722.19 1260.54 701.087L1259.22 698.047C1258.94 697.397 1258.44 696.861 1257.82 696.526L1241.71 687.875C1241.67 687.854 1241.64 687.827 1241.61 687.793C1241.52 687.686 1241.5 687.535 1241.55 687.405C1243.39 683.152 1243.13 677.797 1240.42 673.105C1236.14 665.701 1227.58 662.943 1222.81 665.698L1222.75 665.731L1222.71 665.754C1222.67 665.78 1222.63 665.805 1222.58 665.831L1222.58 665.83L1220.63 666.957C1219.32 667.711 1218.87 669.381 1219.63 670.686L1220.23 671.731C1220.67 672.484 1220.41 673.447 1219.66 673.881C1218.9 674.316 1217.94 674.058 1217.5 673.305L1216.05 670.793C1215.72 670.211 1215.2 669.751 1214.59 669.482L1212.17 668.423C1210.82 667.834 1209.24 668.257 1208.37 669.441L1205.65 673.137C1204.91 674.145 1204.83 675.495 1205.46 676.579L1206.94 679.155C1207.43 679.99 1207.5 680.999 1207.14 681.894L1205.76 685.362C1205.5 686.02 1205.02 686.571 1204.41 686.925L1198.31 690.445C1196.81 691.315 1196.29 693.24 1197.16 694.746L1199.19 698.269C1199.96 699.587 1201.64 700.038 1202.96 699.277C1204.28 698.516 1205.96 698.968 1206.72 700.286L1210.4 706.649C1211.23 708.092 1210.73 709.937 1209.29 710.771C1207.85 711.604 1206 711.109 1205.17 709.666L1202.08 704.313C1200.78 702.068 1197.48 702.263 1196.46 704.645L1189.65 720.508C1188.89 722.271 1189.87 724.296 1191.72 724.792L1205.59 728.507C1206.4 728.724 1207.08 729.251 1207.5 729.975L1210.35 734.902C1210.71 735.54 1210.85 736.287 1210.72 737.013L1210.47 738.475C1210.31 739.396 1209.75 740.199 1208.94 740.666L1207.04 741.765C1205.53 742.635 1205.01 744.561 1205.88 746.067L1211.78 756.283Z" fill="#00B100"/>
<path d="M1190.29 578.626L1195.45 587.564C1196.32 589.07 1195.81 590.996 1194.3 591.865L1188.85 595.014C1188.72 595.086 1188.68 595.247 1188.75 595.372C1185.98 590.784 1180.64 588.844 1176.63 591.163C1172.61 593.481 1171.53 599.126 1174.21 603.769L1176.96 608.541C1177.83 610.047 1179.76 610.563 1181.26 609.694L1181.95 609.3C1183.45 608.431 1185.38 608.947 1186.25 610.453L1189.43 615.96C1189.83 616.656 1189.95 617.478 1189.76 618.26L1187.46 628.004C1187.26 628.848 1186.72 629.572 1185.97 630.005L1179.57 633.697C1178.89 634.092 1178.08 634.216 1177.31 634.042L1166.63 631.646C1165.77 631.453 1165.03 630.91 1164.59 630.148L1161.96 625.584C1161.1 624.108 1159.22 623.646 1157.54 623.917C1154.19 624.456 1150.79 623.044 1149.09 620.089L1145.55 613.954C1144.68 612.448 1142.75 611.932 1141.25 612.801L1137.15 615.163C1135.65 616.032 1133.72 615.516 1132.85 614.01L1130.03 609.125C1129.5 608.203 1129.47 607.075 1129.95 606.126L1142.74 580.918C1158.41 576.001 1174.78 575.376 1190.29 578.626Z" fill="#00B100"/>
<path d="M1197.6 615.414C1197.16 614.661 1196.2 614.404 1195.44 614.838C1194.82 615.197 1194.63 615.607 1194.48 616.307L1191.8 628.459C1191.41 630.238 1192.19 631.466 1193.99 631.737L1210.2 635.824C1210.91 635.93 1211.63 635.794 1212.25 635.438L1213.59 634.662C1214.3 634.251 1214.82 633.577 1215.05 632.784L1218.8 619.393C1219.02 618.578 1218.91 617.704 1218.49 616.97L1210.36 602.892C1209.64 601.637 1208.03 601.207 1206.78 601.932C1205.52 602.656 1205.09 604.261 1205.82 605.516L1208.05 609.379C1210.22 613.144 1209.24 617.783 1205.85 619.739C1202.46 621.695 1199.85 619.133 1197.6 615.414Z" fill="#00B100"/>
<path d="M1130.4 619.919C1131.15 617.239 1134.76 616.789 1136.15 619.201L1146.07 636.383C1146.49 637.106 1146.6 637.966 1146.39 638.772L1140.34 661.344C1140.12 662.15 1140.24 663.01 1140.65 663.733L1143.02 667.83C1143.89 669.336 1143.37 671.262 1141.87 672.131L1135.51 675.799L1135.51 675.8L1135.51 675.801C1135.51 675.802 1135.51 675.802 1135.51 675.802C1135.5 675.803 1135.5 675.803 1135.49 675.801C1135.49 675.799 1135.48 675.799 1135.47 675.802C1131.28 677.876 1126.01 676.157 1123.64 672.05C1123.56 671.905 1123.48 671.759 1123.4 671.612C1123.4 671.606 1123.4 671.601 1123.39 671.599C1123.39 671.598 1123.38 671.597 1123.38 671.598C1123.37 671.599 1123.37 671.6 1123.37 671.601L1117.74 674.849C1116.99 675.284 1116.09 675.388 1115.25 675.135L1096.19 669.352C1095.36 669.099 1094.46 669.203 1093.71 669.638L1092.78 670.17C1090.74 671.351 1088.17 669.944 1088.06 667.585L1087.9 664.042C1087.85 662.867 1088.46 661.761 1089.48 661.173L1117.44 645.029C1117.56 644.957 1117.6 644.797 1117.53 644.673C1114.51 639.446 1114.65 633.912 1119.42 631.157L1127.63 626.418C1128.34 626.008 1128.86 625.336 1129.09 624.547L1130.4 619.919Z" fill="#00B100"/>
<path d="M1171.59 665.88C1173.09 665.011 1175.02 665.527 1175.89 667.033L1193.21 697.029C1193.71 697.893 1193.52 698.588 1193.12 699.503L1183.52 721.71C1183.12 722.625 1182.94 723.32 1183.43 724.184L1185.91 728.477C1186.06 728.736 1185.99 729.069 1185.73 729.219C1184.13 730.142 1182.23 730.087 1180.66 729.242C1179.13 728.417 1177.21 727.775 1175.71 728.645L1165 734.828C1164.29 735.238 1163.45 735.355 1162.65 735.154L1152.36 732.55C1151.56 732.349 1150.72 732.466 1150.01 732.876L1145.66 735.386C1144.16 736.255 1142.23 735.739 1141.36 734.233L1138.49 729.253C1138.06 728.514 1137.95 727.635 1138.19 726.815L1140.68 718.081C1140.9 717.294 1141.42 716.626 1142.13 716.217L1158.3 706.883C1159.8 706.014 1160.32 704.088 1159.45 702.582L1155.52 695.783C1155.52 695.777 1155.52 695.77 1155.52 695.763C1155.51 695.757 1155.51 695.751 1155.52 695.745C1155.52 695.73 1155.52 695.716 1155.51 695.704C1155.33 695.428 1155.15 695.145 1154.99 694.856C1150.4 686.907 1152.55 677.054 1159.77 672.707L1159.77 672.704L1159.77 672.703L1159.77 672.702L1171.59 665.88Z" fill="#00B100"/>
<path d="M1195.18 665.593C1196.68 664.724 1198.61 665.24 1199.48 666.746L1203.74 674.126C1204.28 675.07 1203.96 676.278 1203.02 676.823C1202.65 677.034 1202.23 677.122 1201.81 677.075L1190.42 675.791C1189.43 675.679 1188.55 675.103 1188.05 674.237L1187.66 673.568C1186.79 672.062 1187.31 670.136 1188.81 669.267L1195.18 665.593Z" fill="#00B100"/>
<path d="M1208.59 665.729C1209.46 667.235 1211.38 667.751 1212.89 666.881L1215.81 665.192C1216.96 664.531 1217.35 663.067 1216.69 661.921C1216.31 661.263 1215.64 660.825 1214.88 660.739L1207.61 659.919C1207.33 659.888 1207.06 659.946 1206.82 660.084C1206.2 660.441 1205.99 661.23 1206.34 661.847L1208.59 665.729Z" fill="#00B100"/>
<path d="M1102.26 688.968L1090.75 680.859L1083.44 686.934L1073.74 706.478L1078.79 732.461L1099.54 758.456L1112.41 748.322L1092.33 721.863L1094.43 700.636L1102.26 688.968Z" fill="#00C5F1"/>
<path d="M1120.16 743.956L1111.81 744.724L1094.89 760.101L1089.34 765.774L1090.05 771.411L1101.36 781.32L1105.03 795.473L1086.14 816.452L1085.96 840.195L1093.15 858.051L1125.82 853.215L1141.67 842.024L1157.4 827.06L1159.52 812.817L1150.56 794.818L1139.02 777.331L1130.86 763.355L1126.41 757.597L1128.85 750.055L1125.77 743.508L1120.16 743.956Z" fill="#EFEBD2"/>
<path d="M1102.24 690.478C1102.24 690.478 1091.31 695.093 1090.86 712.591C1090.46 728.05 1110.72 745.281 1110.72 745.281M1110.72 745.281C1124.47 739.487 1128.18 743.444 1129.48 747.688C1130.75 751.835 1126.54 758.73 1125.48 760.505C1129.82 766.254 1161.21 803.516 1161.02 812.86C1160.8 823.281 1150.8 839.197 1134.87 847.827C1118.62 856.632 1100.85 860.908 1094.12 857.589C1086.42 853.798 1070.66 816.389 1103.95 797.569C1101.48 788.992 1100.77 785.516 1098.48 777.413C1095.6 777.54 1089.58 776.216 1088.11 771.719C1086.91 768.023 1089.36 765.527 1096.48 756.653M1110.72 745.281C1107.53 746.628 1105.7 748.274 1103.08 750.391C1100.48 752.507 1099.69 753.293 1096.48 756.653M1096.48 756.653C1094.66 753.447 1078.74 738.741 1073.51 718.822C1068.29 698.902 1088.16 682.47 1088.16 682.47M1126.01 759.473C1124.52 761.574 1117.12 763.175 1112.05 766.403C1106.54 769.912 1101.74 776.939 1099.61 777.434M1088.33 812.424C1089.07 810.898 1099.12 797.719 1109.36 795.373C1118.88 793.195 1129.76 797.125 1131.35 797.947M1099.21 849.219C1099.97 847.008 1103.05 841.417 1109.3 836.743C1117.1 830.9 1131.79 825.061 1135.81 823.876C1142.71 821.844 1147.29 820.91 1151.34 820.752" stroke="#3A2D14" stroke-width="6.29757" stroke-linecap="round"/>
<path d="M1134.93 567.217L1155.57 595.098L1140.88 608.298L1132.06 589.983L1124.04 585.084L1110.6 598.778L1108.76 609.714L1119.4 621.549L1130.61 634.245L1134.14 647.446L1123.73 651.48L1111.38 641.273L1109.35 651.986L1102.49 669.276L1090.93 671.67L1080.59 649.978L1063.95 635.053L1072.4 615.353L1075.45 601.3L1089.11 603.962L1099 584.979L1115.67 566.368L1134.93 567.217Z" fill="#00B100"/>
<path d="M1139.09 606.057C1138.6 602.645 1136.89 594.774 1131.54 589.807C1126.22 584.863 1122.45 584.073 1121.09 585.649C1114.36 593.403 1108.93 606.184 1107.64 609.297C1109.5 610.164 1116.48 614.293 1118.99 619.71C1121.19 623.828 1127.47 631.988 1131.75 635.884C1137.03 640.686 1135.4 647.516 1133.69 649.148C1132.13 650.644 1127.87 654.618 1121.63 650.406C1116.96 647.255 1113.34 644.036 1109.65 640.46M1108.68 640.93C1109.17 644.341 1108.28 666.2 1102.19 670.41C1097.62 673.562 1090.6 673.346 1087.6 668.071C1083.65 661.118 1087.06 652.101 1087.31 647.702C1087.5 644.182 1089.6 640.069 1090.63 638.453M1086.17 649.916C1084.5 651.054 1080.24 652.659 1076.61 649.978C1072.07 646.627 1072.71 641 1072.96 638.636C1073.2 636.271 1078.11 627.603 1084.27 624.01M1072.55 641.898C1070.99 641.759 1067.2 640.595 1064.61 637.052C1061.37 632.623 1065.01 625.648 1065.98 624.331C1068.18 621.349 1071.25 616.518 1077.33 618.462C1079.5 619.158 1082.27 621.943 1083.49 623.01M1154.08 595.249C1152.78 590.222 1148.4 579.867 1144.02 575.618C1138.52 570.283 1133.72 566.492 1126.27 565.057C1118.81 563.622 1110.06 565.3 1099.77 580.596C1091.54 592.834 1089.82 598.85 1089.01 601.304C1085.36 600.138 1081.06 598.734 1076.51 600.565C1074.38 601.909 1068.25 607.69 1071.09 617.416" stroke="#3A2D14" stroke-width="5.77277" stroke-linecap="round"/>
<path d="M1252.66 755.584L1239.92 723.298L1220.94 728.775L1231.82 745.963L1231.72 755.37L1212.98 759.526L1202.72 755.292L1198.31 739.992L1193.47 723.755L1184.13 713.759L1175.19 720.469L1177.32 736.353L1167.14 732.408L1148.83 729.071L1140.68 737.619L1153.62 757.887L1157.48 779.913L1178.67 783.181L1191.62 785.372L1197.2 775.023L1218.55 776.681L1243.18 772.392L1252.66 755.584Z" fill="#00B100"/>
<path d="M1221.89 731.487C1224.53 733.708 1230.31 739.324 1231.69 746.498C1233.06 753.638 1231.74 757.251 1229.68 757.577C1219.53 759.18 1205.81 757.017 1202.48 756.469C1202.73 754.426 1202.92 746.321 1199.65 741.317C1197.32 737.265 1193.72 727.617 1192.68 721.916C1191.4 714.889 1184.74 712.656 1182.45 713.242C1180.35 713.779 1174.72 715.285 1174.99 722.819C1175.19 728.454 1176.01 733.227 1177.09 738.253M1176.18 738.831C1173.54 736.61 1168.32 731.443 1161.51 734.388C1156.42 736.593 1152.59 744.269 1155.48 749.607C1159.29 756.643 1155.24 751.264 1159.11 753.389C1162.2 755.089 1166.8 755.484 1168.72 755.469M1156.62 753.179C1154.77 753.998 1151.15 756.762 1151.51 761.265C1151.95 766.894 1157.07 769.326 1159.2 770.372C1161.34 771.419 1171.3 771.838 1177.61 768.512M1156.22 768.988C1155.51 770.392 1154.49 774.22 1156.13 778.299C1158.17 783.399 1166.04 783.569 1167.65 783.87C1179.27 786.045 1189.99 785.004 1192.26 783.91C1194.53 782.816 1198.46 780.23 1199.4 776.516C1201.91 777.128 1207.93 778.859 1222.68 778.353C1241.11 777.72 1247.17 771.178 1249.91 764.087C1252.64 756.996 1251.96 750.913 1250.34 743.421C1249.05 737.453 1242.58 728.25 1239 724.485" stroke="#3A2D14" stroke-width="5.77277" stroke-linecap="round"/>
</svg>
