<svg width="625" height="706" viewBox="0 0 625 706" fill="none" xmlns="http://www.w3.org/2000/svg">
<path d="M301.424 377.02L332.028 376.563L342.049 511.339L313.269 511.547L301.424 377.02Z" fill="#00C5F1"/>
<path d="M297.8 514.252L310.23 505.505L350.284 508.267L364.095 510.109L369.16 519.317L364.095 547.4L374.224 572.722L423.025 581.469L448.807 616.458L458.014 651.448L388.956 670.784H337.393L317.136 662.958L310.23 625.666L307.468 586.073L303.785 555.687V541.876L292.275 533.589L289.513 520.238L297.8 514.252Z" fill="#EFEBD2"/>
<path d="M196.515 51.103C198.356 47.8803 204.341 41.4349 209.405 38.2121C215.382 34.4086 221.836 32.6875 223.217 32.2271" stroke="#3A2D14" stroke-width="10" stroke-linecap="round"/>
<path d="M264.652 9.89604C268.362 9.77465 276.988 11.4921 282.388 14.115C288.76 17.2106 293.609 21.8038 294.725 22.7385" stroke="#3A2D14" stroke-width="10" stroke-linecap="round"/>
<path d="M300.146 363.119L314.278 503.683C289.046 505.271 289.359 520.705 292.177 528.493C294.93 536.104 307.808 541.614 311.088 543.063C311.509 556.533 309.922 647.563 320.135 661.261C331.526 676.537 387.265 671.224 391.247 670.877C395.644 670.494 450.445 664.758 455.766 652.194C461.843 637.843 442.715 564.283 378.886 573.916C373.008 558.334 370.227 552.362 364.611 537.695C368.538 534.623 375.045 525.838 372.179 517.483C369.824 510.614 360.844 504.93 345.122 504.509C344.097 497.676 329.819 405.652 333 365.813M314.766 505.902C317.143 508.119 325.18 509.863 330.755 508.97C336.329 508.076 341.411 505.52 344.201 503.119M309.296 542.122C313.492 543.567 325.899 546.547 336.007 545.617C346.993 544.607 359.816 540.681 363.152 539.001M415.263 578.362C412.662 576.929 385.405 568.666 369.43 576.766C354.599 584.287 344.48 602.452 343.259 605.479" stroke="#3A2D14" stroke-width="12" stroke-linecap="round"/>
<path d="M417.534 184.354L494.026 186.27L518.094 164.31L534.846 138.999L528.942 107.974L530.209 92.1716L547.152 94.1797L562.049 113.158L557.083 143.911L563.063 159.895L601.249 158.081L610.51 176.918L599.101 188.904L607.043 202.562L599.66 214.648L602.831 230.958L592.158 239.795L559.146 238.968L538.554 235.681L496.597 212.066L418.033 207.326L417.534 184.354Z" fill="#00C5F1"/>
<path d="M393.014 180.936C424.556 182.671 482.051 189.89 498.05 180.971C509.625 174.518 531.111 154.938 532.083 141.649C533.055 128.359 525.142 115.193 525.795 106.594C526.448 97.9959 528.803 94.1496 533.221 92.7159C537.639 91.2823 544.907 91.1098 553.515 98.0291C562.124 104.948 564.575 112.857 562.902 125.734C562.446 129.246 558.015 145.957 559.745 152.277C561.814 159.835 566.008 161.275 570.403 160.825C579.274 159.917 588.89 155.507 597.009 157.71C609.526 161.107 612.616 171.892 610.318 178.874C608.02 185.856 603.226 188.845 592.738 189.704C588.558 190.046 577.799 190.167 572.954 190.282M600.815 189.556C603.54 191.335 607.486 196.573 607.905 201.914C608.43 208.589 603.316 216.269 597.686 217.666C592.055 219.063 586.843 221.257 571.477 220.401M600.104 217.348C601.881 218.838 604.987 223.763 604.748 228.456C604.45 234.323 600.5 239.297 594.472 241.074C588.444 242.85 574.569 242.838 567.022 242.204C559.739 241.593 539.396 240.053 526.865 233.158C509.728 223.729 509.159 214.604 490.119 211.679C474.888 209.339 420.29 207.483 395.941 208.837" stroke="#3A2D14" stroke-width="12" stroke-linecap="round"/>
<circle cx="251.761" cy="233.877" r="172.239" fill="#00C5F1" stroke="#3A2D14" stroke-width="13"/>
<path d="M417.021 246.584C417.339 242.39 417.501 238.152 417.501 233.877C417.501 191.765 401.795 153.322 375.922 124.085L370.147 123.42C368.911 123.278 367.664 123.557 366.607 124.211L339.335 141.094C339.269 141.135 339.196 141.163 339.12 141.178C338.876 141.225 338.628 141.126 338.479 140.926C333.626 134.41 325.261 130.106 315.755 130.106C300.754 130.106 289.053 140.695 289.053 150.363L289.053 150.477L289.054 150.56C289.054 150.646 289.056 150.733 289.057 150.82L289.053 150.826V154.782C289.053 157.427 291.197 159.571 293.842 159.571H295.959C297.484 159.571 298.721 160.808 298.721 162.334C298.721 163.859 297.484 165.096 295.959 165.096H290.868C289.689 165.096 288.541 165.473 287.591 166.173L283.859 168.923C281.781 170.454 281.04 173.22 282.075 175.585L285.303 182.964C286.182 184.974 288.169 186.274 290.364 186.274H295.583C297.274 186.274 298.872 187.048 299.919 188.375L303.978 193.516C304.748 194.491 305.166 195.697 305.166 196.939V209.293C305.166 212.344 307.64 214.818 310.691 214.818H317.827C320.497 214.818 322.661 212.653 322.661 209.984C322.661 207.314 324.825 205.15 327.495 205.15H340.386C343.31 205.15 345.68 207.52 345.68 210.444C345.68 213.368 343.31 215.738 340.386 215.738H329.54C324.993 215.738 322.393 220.926 325.114 224.569L343.242 248.837C345.257 251.534 349.194 251.818 351.575 249.438L369.384 231.629C370.42 230.592 371.825 230.01 373.29 230.01H383.274C384.566 230.01 385.817 230.464 386.81 231.291L388.811 232.958C390.07 234.007 390.798 235.562 390.798 237.202V241.06C390.798 244.111 393.272 246.584 396.323 246.584H417.021Z" fill="#00B100"/>
<path d="M128.224 123.384H146.333C149.384 123.384 151.857 125.857 151.857 128.908V139.958C151.857 140.212 152.064 140.418 152.318 140.418C142.912 140.61 135.283 147.014 135.283 155.151C135.283 163.287 142.91 169.883 152.318 169.883H161.986C165.037 169.883 167.511 167.409 167.511 164.358V162.977C167.511 159.926 169.984 157.452 173.035 157.452H184.193C185.602 157.452 186.957 157.991 187.983 158.958L200.765 171.01C201.872 172.054 202.5 173.508 202.5 175.029V187.983C202.5 189.37 201.978 190.706 201.039 191.726L188.028 205.853C186.982 206.989 185.508 207.635 183.964 207.635H174.718C171.727 207.635 169.376 210.087 168.311 212.881C166.191 218.444 161.066 222.367 155.08 222.367H142.65C139.598 222.367 137.125 224.841 137.125 227.892V236.179C137.125 239.23 134.652 241.703 131.6 241.703H121.703C119.836 241.703 118.095 240.76 117.075 239.195L89.9939 197.646C96.263 169.532 109.674 144.11 128.224 123.384Z" fill="#00B100"/>
<path d="M190.53 144.562C189.004 144.562 187.768 145.798 187.768 147.324C187.768 148.582 188.219 149.239 189.149 150.086L205.262 164.819C207.624 166.97 210.177 166.856 212.168 164.358L232.602 143.31C233.382 142.332 233.806 141.118 233.806 139.867V137.146C233.806 135.702 233.241 134.316 232.232 133.283L215.175 115.838C214.135 114.775 212.711 114.176 211.224 114.176H182.703C180.161 114.176 178.099 116.237 178.099 118.78C178.099 121.323 180.161 123.384 182.703 123.384H190.53C198.158 123.384 204.342 128.949 204.342 135.814C204.342 142.68 198.156 144.4 190.53 144.562Z" fill="#00B100"/>
<path d="M138.422 250.62C135.015 247.119 137.496 241.243 142.382 241.243H177.192C178.657 241.243 180.063 241.825 181.099 242.861L210.09 271.852C211.126 272.888 212.531 273.47 213.996 273.47H222.297C225.348 273.47 227.821 275.944 227.821 278.995V291.865L227.821 291.869L227.82 291.873C227.82 291.876 227.819 291.879 227.818 291.881C227.816 291.888 227.811 291.894 227.806 291.899C227.796 291.907 227.791 291.918 227.79 291.931C227.259 300.126 220.028 306.618 211.708 306.618C211.414 306.618 211.123 306.61 210.834 306.594C210.822 306.593 210.811 306.597 210.802 306.605C210.797 306.61 210.792 306.616 210.79 306.623C210.788 306.628 210.787 306.633 210.787 306.638V318.034C210.787 319.562 210.154 321.022 209.039 322.067L183.531 345.955C182.416 347 181.783 348.46 181.783 349.988V351.854C181.783 355.997 177.392 358.666 173.714 356.758L168.189 353.893C166.358 352.943 165.209 351.051 165.209 348.989V292.339C165.209 292.087 165 291.886 164.748 291.886C154.159 291.886 145.872 286.821 145.872 277.153V260.521C145.872 259.082 145.311 257.7 144.307 256.669L138.422 250.62Z" fill="#00B100"/>
<path d="M244.395 228.352C244.395 225.301 246.869 222.827 249.92 222.827H310.691C312.441 222.827 313.332 223.724 314.374 225.129L339.695 259.198C340.737 260.604 341.629 261.5 343.378 261.5H352.076C352.601 261.5 353.047 261.897 353.047 262.421C353.047 265.662 351.288 268.512 348.63 270.153C346.034 271.756 343.378 274.102 343.378 277.153V298.85C343.378 300.289 342.818 301.67 341.815 302.701L328.828 316.059C327.826 317.09 327.265 318.472 327.265 319.91V328.717C327.265 331.768 324.791 334.241 321.74 334.241H311.65C310.154 334.241 308.722 333.635 307.682 332.561L296.594 321.116C295.596 320.085 295.038 318.706 295.038 317.272V284.519C295.038 281.468 292.564 278.995 289.513 278.995H275.738C275.725 278.995 275.713 278.992 275.702 278.988C275.692 278.984 275.682 278.978 275.674 278.971C275.655 278.955 275.63 278.946 275.605 278.948C275.028 278.979 274.446 278.995 273.86 278.995C257.756 278.995 244.67 267.085 244.4 252.299L244.397 252.294L244.395 252.291L244.395 252.289V228.352Z" fill="#00B100"/>
<path d="M264.652 192.259C264.652 189.208 267.126 186.734 270.177 186.734H285.128C287.042 186.734 288.592 188.285 288.592 190.198C288.592 190.938 288.355 191.659 287.915 192.255L275.977 208.43C274.935 209.842 273.285 210.674 271.532 210.674H270.177C267.126 210.674 264.652 208.201 264.652 205.15V192.259Z" fill="#00B100"/>
<path d="M276.622 172.002C279.674 172.002 282.147 169.528 282.147 166.477V160.549C282.147 158.229 280.266 156.348 277.946 156.348C276.613 156.348 275.358 156.982 274.566 158.055L266.936 168.392C266.649 168.781 266.494 169.253 266.494 169.737C266.494 170.988 267.508 172.002 268.759 172.002H276.622Z" fill="#00B100"/>
<path d="M170.203 120.562C171.382 123.352 170.083 126.571 167.303 127.753C162.623 129.742 158.587 131.743 154.979 133.943C161.544 138.725 173.331 144.984 187.272 150.372C202.327 156.19 219.265 160.744 234 161.414C276.041 163.326 307.44 155.049 341.419 133.116C343.958 131.477 347.343 132.213 348.978 134.761C350.612 137.309 349.879 140.704 347.339 142.343C311.372 165.559 277.715 174.384 233.508 172.374C231.469 172.281 229.402 172.123 227.315 171.905C225.891 177.451 221.954 185.657 213.814 194.54C199.656 209.991 182.102 209.258 176.144 207.819C171.014 206.58 158.265 203.134 150.776 189.595C146.461 181.796 144.622 170.919 144.049 161.351C143.623 154.254 143.863 147.256 144.575 141.947C141.093 145.317 137.889 149.247 134.604 154.05C132.896 156.548 129.492 157.183 127.001 155.468C124.51 153.754 123.876 150.339 125.585 147.841C135.892 132.773 146.023 124.88 163.033 117.651C165.814 116.469 169.024 117.772 170.203 120.562Z" fill="#3A2D14"/>
<path d="M167.445 218.675C164.859 217.109 161.497 217.942 159.937 220.535C158.376 223.128 159.207 226.5 161.792 228.067C170.472 233.324 182.355 233.402 190.574 231.543C193.52 230.876 195.369 227.94 194.704 224.984C194.038 222.029 191.111 220.173 188.165 220.84C181.472 222.354 172.808 221.924 167.445 218.675Z" fill="#3A2D14"/>
<path d="M192.967 198.673C187.278 200.56 181.948 201.196 174.87 199.435C166.542 197.364 159.254 190.622 157.332 184.115C160.414 179.044 174.777 177.656 181.465 179.936C188.99 182.502 192.718 192.771 192.967 198.673Z" fill="#F783A4"/>
<path d="M254.984 96.6813C254.984 104.563 252.47 135.814 242.553 135.814C232.637 135.814 216.772 114.232 216.772 106.349C216.772 98.4672 220.667 77.345 230.583 77.345C240.5 77.345 254.984 88.7991 254.984 96.6813Z" fill="#EFEBD2"/>
<path d="M300.562 84.7112C300.562 92.5934 304.494 121.542 294.577 121.542C254.524 113.255 253.603 96.7369 253.603 88.8547C253.603 80.9725 257.498 59.8503 267.414 59.8503C277.331 59.8503 300.562 76.829 300.562 84.7112Z" fill="#EFEBD2"/>
<path d="M246.237 74.1223C246.237 82.0045 238.198 88.3943 228.281 88.3943C218.365 88.3943 208.024 91.6726 208.024 83.7904C208.024 75.9082 211.92 54.786 221.836 54.786C231.752 54.786 246.237 66.2401 246.237 74.1223Z" fill="#00B100"/>
<path d="M293.656 66.2957C293.656 74.1779 285.618 80.5677 275.701 80.5677C265.785 80.5677 255.444 83.8461 255.444 75.9639C255.444 68.0816 259.34 46.9595 269.256 46.9595C279.172 46.9595 293.656 58.4135 293.656 66.2957Z" fill="#00B100"/>
<path fill-rule="evenodd" clip-rule="evenodd" d="M242.59 143.272L242.098 143.345L241.597 143.374C236.179 143.681 231.365 140.935 228.568 139.016C225.236 136.73 221.931 133.639 218.901 130.069C212.819 122.903 207.049 112.869 204.201 100.989C204.1 100.569 204.002 100.15 203.908 99.7305C203.418 99.887 202.92 100.046 202.416 100.209C201.886 100.379 201.348 100.553 200.801 100.731C197.975 101.647 194.939 100.108 194.018 97.2932C193.098 94.4783 194.643 91.4535 197.469 90.537C199.078 90.0148 200.619 89.5212 202.096 89.0535C201.339 82.2284 201.426 75.7275 202.469 70.0723C203.934 62.1247 208.335 51.3344 220.131 49.5789C231.303 47.9164 240.783 55.6087 246.504 62.5678C247.193 63.4061 247.867 64.2777 248.524 65.1801C248.733 63.3755 249.025 61.6337 249.4 59.9675C251.225 51.8581 256.133 41.5263 267.593 39.8209C279.054 38.1155 288.406 46.3251 293.859 53.3515C297.443 57.9697 300.592 63.5514 303.132 69.7125C304.789 69.5601 306.297 69.4277 307.619 69.3165C310.581 69.0676 313.184 71.2572 313.434 74.2071C313.684 77.1571 311.485 79.75 308.524 79.999C307.945 80.0476 307.333 80.1002 306.691 80.1565C306.955 81.1212 307.205 82.0936 307.44 83.0724C310.177 94.4909 310.574 105.666 308.553 114.649C307.112 121.054 303.747 128.846 296.749 132.678C295.504 136.768 292.667 140.943 287.338 143.991C285.276 145.171 282.645 144.462 281.461 142.408C280.276 140.354 280.988 137.733 283.05 136.554C288.755 133.29 289.349 128.358 288.762 125.637C288.558 124.689 287.789 123.334 286.265 122.074C284.783 120.849 282.837 119.933 280.717 119.662C278.56 119.386 277.029 119.755 275.816 120.381C274.531 121.044 273.343 122.131 272.135 123.661C271.597 124.343 271.108 125.536 270.796 127.085C270.495 128.577 270.44 129.981 270.47 130.702C270.568 133.069 268.722 135.066 266.346 135.164C263.971 135.261 261.965 133.422 261.868 131.056C261.811 129.687 261.911 127.597 262.354 125.397C262.63 124.031 263.074 122.439 263.809 120.895C263.231 120.136 262.664 119.353 262.11 118.546C261.857 120.258 261.527 121.912 261.121 123.497C259.04 131.615 253.807 141.602 242.59 143.272ZM271.064 113.202C271.322 113.051 271.586 112.905 271.856 112.765C274.698 111.299 278.003 110.668 281.814 111.155C285.661 111.647 289.112 113.283 291.764 115.474C293.005 116.5 294.131 117.701 295.047 119.03C299.298 112.015 300.233 98.9956 296.795 84.6564C296.514 83.4836 296.21 82.3273 295.884 81.1898C293.176 81.4675 290.301 81.7758 287.351 82.1095C289.7 88.1947 290.03 96.3916 280.503 101.404C274.465 104.581 266.383 102.627 263.07 96.664C265.184 103.023 267.96 108.679 271.064 113.202ZM248.416 88.2916C248.968 90.009 249.465 91.7765 249.898 93.5858C254.72 113.699 249.931 131.38 240.09 132.844C235.271 133.118 224.008 123.41 217.726 108.253C221.69 111.876 228.026 112.675 233.006 110.055C242.926 104.835 242.308 96.2717 239.774 90.1357L241.637 89.7413C243.769 89.2903 245.996 88.8192 248.416 88.2916ZM244.28 78.2155C242.625 78.5712 241.047 78.9052 239.508 79.2305L239.503 79.2313C231.205 80.9867 224.105 82.4888 212.699 85.8175C211.709 71.834 215.096 61.1272 222.63 60.0062C229.728 58.9499 238.264 66.4217 244.28 78.2155ZM259.094 75.1593C269.094 73.4374 281.599 71.9152 292.103 70.8044C286.205 57.6994 277.543 49.1395 270.093 50.2482C262.742 51.342 258.65 61.5387 259.094 75.1593Z" fill="#3A2D14"/>
<path d="M348.903 118.004L343.168 140.302C342.875 141.46 342.37 142.512 341.694 143.373C341.019 144.234 340.193 144.878 339.284 145.253L321.74 152.604L339.245 159.909C340.154 160.283 340.98 160.926 341.656 161.786C342.332 162.646 342.838 163.699 343.132 164.856L348.903 187.204L354.637 164.906C354.931 163.748 355.436 162.696 356.111 161.835C356.787 160.974 357.613 160.33 358.521 159.955L376.066 152.604L358.561 145.3C357.652 144.925 356.825 144.282 356.149 143.422C355.474 142.562 354.968 141.509 354.673 140.352L348.903 118.004Z" fill="#FFD439" stroke="#3A2D14" stroke-width="10" stroke-linecap="round" stroke-linejoin="round"/>
<path d="M417.04 202.452L413.833 216.813C413.668 217.559 413.386 218.237 413.008 218.792C412.63 219.346 412.168 219.761 411.66 220.003L401.847 224.737L411.638 229.441C412.147 229.682 412.609 230.097 412.987 230.651C413.365 231.205 413.648 231.883 413.812 232.628L417.04 247.022L420.247 232.66C420.412 231.915 420.694 231.237 421.072 230.682C421.45 230.128 421.912 229.713 422.42 229.471L432.233 224.737L422.442 220.032C421.933 219.791 421.471 219.377 421.093 218.823C420.715 218.269 420.432 217.591 420.268 216.845L417.04 202.452Z" fill="#FFD439" stroke="#3A2D14" stroke-width="10" stroke-linecap="round" stroke-linejoin="round"/>
<path d="M203.42 377.517L233.806 381.2L225.519 516.094L196.975 512.411L203.42 377.517Z" fill="#00C5F1"/>
<path d="M177.638 523.46L190.069 514.713L230.123 517.475L248.998 528.524L235.417 560.061L241.172 583.771L263.27 618.76L279.384 656.972L269.716 674.928L147.253 673.546L138.966 649.146L150.015 619.681L173.265 603.107L183.623 564.895V544.178L177.638 523.46Z" fill="#EFEBD2"/>
<path d="M201.831 384.423L196.767 513.332C189.708 513.792 175.497 516.738 175.129 524.841C174.76 532.944 181.421 537.732 184.797 539.113C184.95 552.771 183.784 582.39 177.891 591.597C170.525 603.107 147.414 611.648 139.716 644.541C134.652 666.179 146.622 676.06 154.449 676.309C183.453 677.229 265.733 677.414 269.047 676.309C273.191 674.927 281.018 667.561 279.176 655.131C278.736 654.21 277.335 627.047 245.568 598.964C241.885 582.39 236.82 555.687 239.122 540.955C243.266 539.113 253.433 536.005 250.632 527.604C248.33 520.698 242.806 517.475 228.073 513.332C227.152 506.426 231.756 426.779 235.9 386.265M196.343 513.792C198.492 516.248 206.564 518.765 212.457 518.396C218.35 518.028 223.967 515.941 227.189 513.792M183.453 538.652C187.596 540.494 200.027 544.637 210.616 544.637C222.125 544.637 235.937 541.875 239.62 540.494M261.258 615.538C259.11 613.083 233.922 592.555 210.615 592.555C188.977 592.555 166.418 604.182 163.195 606.331" stroke="#3A2D14" stroke-width="12" stroke-linecap="round"/>
<path d="M47.7751 171.264L108.358 177.039V211.685L74.1157 201.711L58.3113 206.436L60.4186 240.033L72.5352 255.257H100.456L118.368 269.955L116.787 288.854L128.377 304.077L124.163 323.501L92.0272 339.249L53.0432 343.449L37.2389 309.327L22.4882 288.854L41.9802 274.155L28.8099 238.983L24.0686 195.412L47.7751 171.264Z" fill="#00B100"/>
<path d="M103.327 211.401C98.3029 208.036 86.0332 201.028 73.2761 202.184C60.5772 203.335 55.1328 207.319 55.5861 210.952C57.8156 228.822 68.1288 250.894 70.671 256.236C73.9896 254.821 87.5542 250.565 97.5713 253.638C105.276 256.001 119.05 266.816 120.383 276.806C122.167 290.178 107.982 304.28 98.4293 306.977C88.8765 309.674 75.4865 311.694 69.1317 304.936C59.3118 294.494 71.0746 286.296 73.5399 284.237C77.0313 281.32 86.1268 275.931 94.5788 277.712M118.456 295.531C123.48 298.897 132.853 307.967 130.155 317.318C127.457 326.67 120.874 331.872 113.766 332.417C109.975 332.708 102.394 333.289 96.9366 327.813C92.5706 323.432 89.6678 315.867 88.7621 312.632M98.4968 331.89C98.0171 335.41 95.1183 342.848 87.3603 344.443C77.6629 346.437 71.0789 338.993 68.2779 335.903C65.4768 332.814 60.5371 322.833 63.0722 310.582M72.0608 340.257C70.041 342.139 64.085 345.709 56.4184 344.939C46.8352 343.977 42.0098 331.04 41.4314 328.227C40.122 321.858 37.4129 312.192 47.08 306.539C50.5386 304.517 57.422 304.168 60.2409 303.833M106.806 179.164C98.7226 174.961 80.074 168.532 69.3946 169.261C55.9861 170.177 45.4098 171.993 34.7911 180.04C24.1724 188.088 16.0959 201.478 23.9883 232.845C30.3022 257.938 36.1418 267.233 38.3948 271.168C32.5945 274.56 25.7109 278.534 22.7686 286.612C22.0278 290.965 22.3722 305.754 38.3948 313.456" stroke="#3A2D14" stroke-width="11" stroke-linecap="round"/>
<circle cx="411.126" cy="48.3407" r="11.1136" fill="#FFD439" stroke="#3A2D14" stroke-width="10"/>
<circle cx="387.186" cy="17.0343" r="11.1136" fill="#FFD439" stroke="#3A2D14" stroke-width="10"/>
<circle cx="376.136" cy="80.5678" r="6.50968" fill="#FFD439" stroke="#3A2D14" stroke-width="10"/>
<circle cx="462.229" cy="104.048" r="5" fill="#FFD439" stroke="#3A2D14" stroke-width="4.73239"/>
</svg>
