<svg width="254" height="339" viewBox="0 0 254 339" fill="none" xmlns="http://www.w3.org/2000/svg">
<path d="M152.016 179.925L167.45 179.695L172.504 247.666L157.99 247.771L152.016 179.925Z" fill="#00C5F1"/>
<path d="M150.188 249.135L156.457 244.724L176.657 246.117L183.623 247.045L186.177 251.689L183.623 265.852L188.731 278.623L213.343 283.034L226.345 300.68L230.989 318.326L196.161 328.078L170.156 328.078L159.94 324.131L156.457 305.324L155.064 285.356L153.207 270.032L153.207 263.066L147.402 258.887L146.009 252.153L150.188 249.135Z" fill="#EFEBD2"/>
<path d="M151.612 172.746L157.52 244.492C144.286 245.65 144.286 253.545 145.679 257.492C147.04 261.349 153.728 263.993 155.431 264.689C155.508 271.578 153.709 318.188 158.914 325.058C164.718 332.72 193.974 329.237 196.063 329.005C198.371 328.748 227.139 325.062 230.06 318.559C233.396 311.131 224.158 273.746 190.619 279.551C187.705 271.656 186.312 268.638 183.526 261.209C185.616 259.583 189.118 254.998 187.705 250.761C186.545 247.278 181.901 244.492 173.669 244.492C173.205 241.009 166.704 194.107 168.793 173.675M157.753 245.62C158.974 246.723 163.166 247.505 166.096 246.971C169.025 246.438 171.715 245.06 173.201 243.793M154.502 264.232C156.685 264.915 163.152 266.269 168.457 265.655C174.223 264.988 180.983 262.803 182.748 261.897M209.628 281.328C208.28 280.63 194.09 276.774 185.635 281.139C177.786 285.191 172.292 294.626 171.62 296.193" stroke="#3A2D14" stroke-width="5.57245" stroke-linecap="round"/>
<path d="M99.8399 15.5923C101.209 14.3157 105.056 12.1069 107.977 11.3125C111.425 10.3749 114.79 10.5115 115.525 10.4964" stroke="#3A2D14" stroke-width="4.64371" stroke-linecap="round"/>
<path d="M130.023 7.38195C131.77 6.70804 136.163 6.09324 139.17 6.44556C142.718 6.86138 145.79 8.24332 146.477 8.50309" stroke="#3A2D14" stroke-width="4.64371" stroke-linecap="round"/>
<path d="M229.534 76.7654L199.404 79.6372V96.8679L216.434 91.9075L224.294 94.2572L223.246 110.966L217.22 118.537H203.334L194.426 125.847L195.212 135.245L189.448 142.816L191.544 152.476L207.526 160.308L226.914 162.397L234.774 145.427L242.109 135.245L232.416 127.935L238.965 110.444L241.323 88.7747L229.534 76.7654Z" fill="#00C5F1"/>
<path d="M201.906 96.7262C204.404 95.0525 210.506 91.5673 216.851 92.1422C223.166 92.7146 225.874 94.6962 225.648 96.503C224.54 105.39 219.411 116.367 218.146 119.023C216.496 118.32 209.75 116.203 204.768 117.731C200.937 118.907 194.086 124.285 193.423 129.253C192.536 135.903 199.591 142.917 204.341 144.258C209.092 145.6 215.751 146.604 218.912 143.243C223.795 138.05 217.946 133.973 216.72 132.949C214.983 131.498 210.46 128.818 206.256 129.704M194.382 138.566C191.883 140.24 187.222 144.75 188.564 149.401C189.905 154.052 193.179 156.639 196.714 156.91C198.599 157.055 202.37 157.344 205.084 154.62C207.255 152.442 208.699 148.68 209.149 147.071M204.308 156.648C204.546 158.399 205.988 162.098 209.846 162.891C214.669 163.882 217.943 160.181 219.336 158.644C220.729 157.107 223.186 152.144 221.925 146.051M217.455 160.809C218.46 161.745 221.422 163.521 225.234 163.138C230 162.659 232.4 156.226 232.688 154.826C233.339 151.659 234.686 146.852 229.879 144.04C228.159 143.035 224.735 142.861 223.333 142.695M200.175 80.694C204.196 78.6038 213.47 75.4063 218.781 75.769C225.449 76.2243 230.709 77.1274 235.99 81.1298C241.271 85.1321 245.288 91.7913 241.363 107.391C238.223 119.87 235.318 124.492 234.198 126.45C237.083 128.136 240.506 130.113 241.969 134.13C242.338 136.295 242.166 143.65 234.198 147.48" stroke="#3A2D14" stroke-width="5.10808" stroke-linecap="round"/>
<circle cx="126.97" cy="107.734" r="86.6052" fill="#00C5F1" stroke="#3A2D14" stroke-width="6.03683"/>
<path d="M210.314 114.143C210.475 112.028 210.556 109.89 210.556 107.734C210.556 86.496 202.636 67.1081 189.587 52.3629L186.674 52.0278C186.051 51.9562 185.422 52.0967 184.889 52.4268L171.135 60.9413C171.102 60.9619 171.065 60.9761 171.027 60.9836C170.904 61.0073 170.778 60.9572 170.704 60.8568C168.256 57.5701 164.037 55.3999 159.243 55.3999C151.678 55.3999 145.776 60.7402 145.776 65.6161L145.777 65.6732L145.777 65.7151C145.777 65.7588 145.778 65.8027 145.779 65.8466L145.776 65.8495V67.8443C145.776 69.1784 146.858 70.2598 148.192 70.2598H149.259C150.029 70.2598 150.652 70.8836 150.652 71.6529C150.652 72.4223 150.029 73.046 149.259 73.046H146.692C146.097 73.046 145.518 73.2364 145.039 73.5892L143.157 74.9762C142.109 75.7484 141.735 77.1434 142.257 78.336L143.885 82.0572C144.329 83.0713 145.331 83.7266 146.438 83.7266H149.07C149.923 83.7266 150.728 84.117 151.257 84.7864L153.304 87.3789C153.692 87.8707 153.903 88.4789 153.903 89.1054V95.3359C153.903 96.8747 155.15 98.1221 156.689 98.1221H160.288C161.635 98.1221 162.726 97.0305 162.726 95.6841C162.726 94.3377 163.818 93.2462 165.164 93.2462H171.665C173.14 93.2462 174.335 94.4417 174.335 95.9163C174.335 97.3909 173.14 98.5865 171.665 98.5865H166.195C163.902 98.5865 162.591 101.203 163.963 103.04L173.106 115.279C174.122 116.639 176.107 116.782 177.308 115.582L186.289 106.6C186.812 106.078 187.521 105.784 188.26 105.784H193.294C193.946 105.784 194.577 106.013 195.078 106.43L196.087 107.271C196.722 107.8 197.089 108.584 197.089 109.411V111.357C197.089 112.895 198.337 114.143 199.876 114.143H210.314Z" fill="#00B100"/>
<path d="M64.6664 52.0096H73.7989C75.3377 52.0096 76.5852 53.257 76.5852 54.7958V60.3682C76.5852 60.4965 76.6891 60.6004 76.8174 60.6004C72.0737 60.6971 68.2265 63.9269 68.2265 68.0304C68.2265 72.1337 72.0728 75.4603 76.8174 75.4603H81.6933C83.232 75.4603 84.4795 74.2129 84.4795 72.6741V71.9775C84.4795 70.4387 85.7269 69.1913 87.2657 69.1913H92.8927C93.6033 69.1913 94.2871 69.4628 94.8041 69.9503L101.251 76.0285C101.809 76.555 102.126 77.2884 102.126 78.0558V84.5889C102.126 85.2883 101.863 85.962 101.389 86.4764L94.8268 93.6009C94.2992 94.1737 93.5561 94.4995 92.7774 94.4995H88.1144C86.6059 94.4995 85.4202 95.7361 84.8831 97.1456C83.8142 99.951 81.2294 101.929 78.2105 101.929H71.9415C70.4027 101.929 69.1552 103.177 69.1552 104.716V108.895C69.1552 110.434 67.9078 111.681 66.369 111.681H61.3776C60.4358 111.681 59.5577 111.205 59.0434 110.416L45.3857 89.4622C48.5474 75.2831 55.3111 62.4622 64.6664 52.0096Z" fill="#00B100"/>
<path d="M96.0888 62.6901C95.3194 62.6901 94.6956 63.3139 94.6956 64.0832C94.6956 64.7175 94.9233 65.0491 95.3922 65.4763L103.519 72.9063C104.71 73.9913 105.997 73.9339 107.001 72.6741L117.307 62.0591C117.7 61.5657 117.914 60.9533 117.914 60.3224V58.95C117.914 58.2219 117.629 57.5227 117.12 57.0021L108.518 48.2041C107.994 47.6681 107.275 47.3658 106.526 47.3658H92.1416C90.8593 47.3658 89.8197 48.4054 89.8197 49.6877C89.8197 50.97 90.8593 52.0096 92.1416 52.0096H96.0888C99.9357 52.0096 103.054 54.8163 103.054 58.2786C103.054 61.7409 99.9349 62.6085 96.0888 62.6901Z" fill="#00B100"/>
<path d="M69.8095 116.178C68.0913 114.412 69.3425 111.449 71.8064 111.449H89.3622C90.1012 111.449 90.8099 111.743 91.3324 112.265L105.953 126.886C106.476 127.409 107.184 127.702 107.923 127.702H112.11C113.648 127.702 114.896 128.949 114.896 130.488V136.979L114.896 136.981L114.895 136.983C114.895 136.985 114.895 136.986 114.894 136.987C114.893 136.991 114.891 136.994 114.888 136.996C114.883 137 114.88 137.006 114.88 137.012C114.612 141.145 110.966 144.419 106.769 144.419C106.621 144.419 106.474 144.415 106.329 144.407C106.323 144.407 106.317 144.409 106.313 144.413C106.31 144.415 106.308 144.418 106.306 144.422C106.305 144.424 106.305 144.427 106.305 144.43V150.177C106.305 150.948 105.986 151.684 105.423 152.211L92.5589 164.258C91.9964 164.785 91.6772 165.521 91.6772 166.292V167.233C91.6772 169.323 89.4628 170.669 87.6081 169.707L84.8218 168.261C83.8983 167.782 83.3186 166.828 83.3186 165.788V137.218C83.3186 137.091 83.2135 136.989 83.0864 136.989C77.7461 136.989 73.5668 134.435 73.5668 129.56V121.172C73.5668 120.446 73.2836 119.749 72.7775 119.229L69.8095 116.178Z" fill="#00B100"/>
<path d="M123.254 104.948C123.254 103.409 124.502 102.162 126.041 102.162H156.689C157.572 102.162 158.021 102.614 158.547 103.323L171.317 120.504C171.842 121.213 172.292 121.665 173.174 121.665H177.561C177.825 121.665 178.05 121.865 178.05 122.13C178.05 123.764 177.163 125.202 175.823 126.029C174.514 126.837 173.174 128.021 173.174 129.56V140.502C173.174 141.227 172.891 141.924 172.386 142.444L165.836 149.181C165.331 149.701 165.048 150.398 165.048 151.123V155.564C165.048 157.103 163.8 158.351 162.262 158.351H157.173C156.418 158.351 155.696 158.045 155.172 157.503L149.58 151.731C149.076 151.211 148.795 150.516 148.795 149.792V133.274C148.795 131.736 147.547 130.488 146.009 130.488H139.061C139.055 130.488 139.049 130.487 139.043 130.485C139.038 130.483 139.033 130.48 139.029 130.476C139.02 130.468 139.007 130.464 138.994 130.465C138.703 130.48 138.41 130.488 138.114 130.488C129.993 130.488 123.393 124.482 123.257 117.025L123.256 117.022L123.255 117.021L123.254 117.02V104.948Z" fill="#00B100"/>
<path d="M133.471 86.745C133.471 85.2062 134.718 83.9588 136.257 83.9588H143.797C144.762 83.9588 145.544 84.7409 145.544 85.7057C145.544 86.0792 145.425 86.4427 145.203 86.7432L139.182 94.9008C138.657 95.6125 137.825 96.0324 136.94 96.0324H136.257C134.718 96.0324 133.471 94.785 133.471 93.2462V86.745Z" fill="#00B100"/>
<path d="M139.507 76.5288C141.046 76.5288 142.294 75.2814 142.294 73.7426V70.7531C142.294 69.5831 141.345 68.6345 140.175 68.6345C139.503 68.6345 138.87 68.9539 138.47 69.495L134.623 74.7083C134.478 74.9047 134.399 75.1424 134.399 75.3866C134.399 76.0174 134.911 76.5288 135.542 76.5288H139.507Z" fill="#00B100"/>
<path d="M128.595 38.5428C128.595 42.518 127.327 58.2786 122.326 58.2786C117.324 58.2786 109.323 47.3939 109.323 43.4187C109.323 39.4435 111.288 28.791 116.289 28.791C121.29 28.791 128.595 34.5676 128.595 38.5428Z" fill="#EFEBD2"/>
<path d="M151.581 32.506C151.581 36.4812 153.564 51.0809 148.563 51.0809C128.362 46.9015 127.898 38.5709 127.898 34.5957C127.898 30.6205 129.862 19.968 134.864 19.968C139.865 19.968 151.581 28.5308 151.581 32.506Z" fill="#EFEBD2"/>
<path d="M124.183 27.1657C124.183 31.141 120.129 34.3635 115.128 34.3635C110.127 34.3635 104.912 36.0169 104.912 32.0416C104.912 28.0664 106.876 17.414 111.877 17.414C116.878 17.414 124.183 23.1905 124.183 27.1657Z" fill="#00B100"/>
<path d="M148.098 23.2186C148.098 27.1938 144.044 30.4163 139.043 30.4163C134.042 30.4163 128.827 32.0697 128.827 28.0945C128.827 24.1193 130.791 13.4668 135.792 13.4668C140.793 13.4668 148.098 19.2434 148.098 23.2186Z" fill="#00B100"/>
<path fill-rule="evenodd" clip-rule="evenodd" d="M122.344 62.0397L122.096 62.0766L121.843 62.091C119.111 62.2461 116.683 60.8611 115.272 59.8934C113.592 58.7407 111.925 57.1816 110.397 55.3812C107.33 51.7673 104.42 46.7069 102.983 40.7151C102.933 40.5035 102.883 40.2921 102.835 40.0806C102.588 40.1596 102.338 40.2399 102.083 40.3218C101.816 40.4078 101.544 40.4956 101.269 40.585C99.8436 41.0472 98.3121 40.2711 97.848 38.8515C97.3839 37.4318 98.163 35.9063 99.5882 35.4441C100.4 35.1808 101.177 34.9318 101.922 34.6959C101.54 31.2538 101.584 27.9753 102.11 25.1232C102.849 21.115 105.068 15.6732 111.017 14.7879C116.652 13.9494 121.433 17.8288 124.318 21.3385C124.665 21.7613 125.005 22.2008 125.337 22.656C125.442 21.7458 125.589 20.8674 125.778 20.0271C126.699 15.9373 129.174 10.7267 134.954 9.86663C140.734 9.00654 145.45 13.1469 148.2 16.6905C150.008 19.0196 151.596 21.8345 152.877 24.9417C153.713 24.8649 154.473 24.7981 155.14 24.742C156.633 24.6165 157.946 25.7208 158.072 27.2085C158.198 28.6963 157.09 30.004 155.596 30.1295C155.304 30.154 154.996 30.1806 154.672 30.209C154.805 30.6955 154.931 31.1859 155.049 31.6795C156.43 37.4382 156.63 43.0742 155.611 47.6043C154.884 50.8346 153.187 54.7642 149.658 56.6969C149.03 58.7595 147.599 60.8652 144.911 62.4025C143.872 62.9973 142.545 62.6399 141.947 61.6041C141.35 60.5684 141.709 59.2466 142.749 58.6517C145.626 57.0058 145.926 54.5185 145.63 53.1459C145.527 52.6681 145.139 51.9843 144.37 51.349C143.623 50.7312 142.642 50.2692 141.572 50.1325C140.485 49.9934 139.713 50.1796 139.101 50.4952C138.453 50.8294 137.854 51.3777 137.244 52.1493C136.973 52.4934 136.726 53.0949 136.569 53.8765C136.417 54.629 136.39 55.3368 136.405 55.7005C136.454 56.8939 135.523 57.9012 134.325 57.9505C133.127 57.9997 132.116 57.0721 132.066 55.8788C132.038 55.1887 132.088 54.1343 132.312 53.0248C132.451 52.3358 132.674 51.533 133.045 50.7544C132.754 50.3719 132.468 49.9769 132.188 49.5699C132.061 50.4334 131.894 51.2675 131.69 52.0666C130.64 56.1608 128.001 61.1978 122.344 62.0397ZM136.704 46.8749C136.834 46.7984 136.967 46.7248 137.104 46.6544C138.537 45.9152 140.204 45.5967 142.125 45.8424C144.066 46.0906 145.806 46.9153 147.144 48.0206C147.77 48.5382 148.338 49.1435 148.799 49.814C150.943 46.2762 151.415 39.71 149.681 32.4784C149.539 31.8869 149.386 31.3037 149.222 30.7301C147.856 30.8701 146.406 31.0256 144.918 31.1939C146.103 34.2629 146.269 38.3967 141.465 40.9245C138.419 42.5268 134.343 41.5414 132.672 38.5341C133.739 41.7411 135.139 44.5937 136.704 46.8749ZM125.282 34.3117C125.561 35.1779 125.811 36.0692 126.03 36.9817C128.461 47.1256 126.046 56.0424 121.083 56.7809C118.653 56.919 112.973 52.0227 109.804 44.3788C111.804 46.2058 114.999 46.6087 117.51 45.2874C122.513 42.6552 122.202 38.3363 120.924 35.2417L121.863 35.0428C122.939 34.8154 124.062 34.5778 125.282 34.3117ZM123.196 29.2301C122.362 29.4095 121.566 29.5779 120.79 29.742L120.787 29.7423C116.602 30.6277 113.021 31.3852 107.269 33.0639C106.77 26.0117 108.478 20.612 112.278 20.0466C115.857 19.5139 120.162 23.2822 123.196 29.2301ZM130.667 27.6887C135.711 26.8203 142.017 26.0526 147.315 25.4924C144.34 18.8832 139.972 14.5663 136.214 15.1254C132.507 15.677 130.443 20.8195 130.667 27.6887Z" fill="#3A2D14"/>
<path d="M102.589 180.176L117.914 182.034L113.734 250.064L99.3389 248.206L102.589 180.176Z" fill="#00C5F1"/>
<path d="M89.5876 253.779L95.8566 249.367L116.057 250.76L125.576 256.333L118.727 272.238L121.629 284.195L132.774 301.841L140.901 321.113L136.025 330.168L74.2633 329.471L70.084 317.165L75.6564 302.306L87.3818 293.947L92.606 274.676V264.227L89.5876 253.779Z" fill="#EFEBD2"/>
<path d="M101.788 183.659L99.2343 248.671C95.6741 248.903 88.5073 250.389 88.3215 254.475C88.1358 258.562 91.4947 260.977 93.1974 261.673C93.2748 268.561 92.6866 283.499 89.7146 288.142C85.9996 293.947 74.3444 298.254 70.4621 314.843C67.9082 325.756 73.9448 330.739 77.8921 330.864C92.5198 331.329 134.016 331.422 135.687 330.864C137.777 330.168 141.724 326.453 140.795 320.184C140.573 319.72 139.867 306.021 123.846 291.857C121.988 283.499 119.434 270.032 120.595 262.602C122.685 261.673 127.812 260.106 126.4 255.869C125.239 252.386 122.453 250.76 115.023 248.671C114.558 245.188 116.88 205.02 118.97 184.588M99.0207 248.903C100.104 250.141 104.175 251.411 107.147 251.225C110.119 251.039 112.952 249.987 114.577 248.903M92.5197 261.441C94.6094 262.369 100.878 264.459 106.219 264.459C112.023 264.459 118.989 263.066 120.846 262.369M131.759 300.216C130.675 298.978 117.973 288.625 106.218 288.625C95.3057 288.625 83.9286 294.489 82.3033 295.573" stroke="#3A2D14" stroke-width="5.57245" stroke-linecap="round"/>
<path d="M24.0937 76.1569L54.6475 79.0691V96.5425L37.3779 91.5123L29.4074 93.895L30.4701 110.839L36.5809 118.517H50.6622L59.6955 125.93L58.8984 135.46L64.7435 143.138L62.618 152.934L46.4112 160.876L26.7506 162.994L18.78 145.786L11.3408 135.46L21.1712 128.048L14.529 110.309L12.1379 88.3353L24.0937 76.1569Z" fill="#00B100"/>
<path d="M52.1107 96.3991C49.577 94.7018 43.3891 91.1675 36.9553 91.7506C30.5509 92.331 27.8052 94.3405 28.0338 96.1727C29.1581 105.185 34.3594 116.316 35.6415 119.01C37.3151 118.297 44.1561 116.151 49.208 117.7C53.0935 118.892 60.0405 124.346 60.7126 129.384C61.6122 136.128 54.4585 143.24 49.6408 144.601C44.823 145.961 38.0701 146.979 34.8652 143.571C29.9127 138.305 35.8451 134.171 37.0884 133.132C38.8492 131.661 43.4362 128.943 47.6988 129.842M59.7409 138.828C62.2745 140.526 67.0015 145.1 65.6408 149.816C64.2802 154.532 60.96 157.156 57.3755 157.431C55.4638 157.577 51.6403 157.87 48.8879 155.109C46.6861 152.899 45.2221 149.084 44.7653 147.453M49.6748 157.165C49.4329 158.94 47.9709 162.691 44.0584 163.496C39.1677 164.501 35.8472 160.747 34.4346 159.189C33.0219 157.631 30.5307 152.597 31.8092 146.419M36.3424 161.385C35.3238 162.334 32.32 164.134 28.4535 163.746C23.6205 163.261 21.1869 156.736 20.8952 155.317C20.2348 152.105 18.8685 147.231 23.7439 144.38C25.4882 143.36 28.9596 143.184 30.3813 143.015M53.8654 80.1411C49.7887 78.0215 40.3837 74.7789 34.9978 75.1467C28.2355 75.6085 22.9016 76.5243 17.5463 80.583C12.191 84.6418 8.11779 91.3947 12.0981 107.214C15.2824 119.869 18.2275 124.556 19.3637 126.541C16.4385 128.252 12.9669 130.256 11.483 134.33C11.1094 136.525 11.2831 143.984 19.3637 147.868" stroke="#3A2D14" stroke-width="5.10808" stroke-linecap="round"/>
<path d="M121.063 69.7305C120.949 70.0008 120.784 70.2531 120.582 70.4753C120.19 71.5519 120.15 72.6643 120.265 73.9938C120.65 78.4654 124.587 81.778 129.059 81.3928C133.453 81.0143 136.728 77.2057 136.474 72.8304L136.478 72.8302C136.368 71.5527 137.314 70.4276 138.592 70.3176C139.869 70.2075 140.994 71.1541 141.104 72.4316L141.107 72.4304C141.605 76.7849 145.484 79.9779 149.878 79.5993C154.35 79.2141 157.662 75.2769 157.277 70.8053C157.18 69.6782 156.857 68.6248 156.357 67.6856C155.458 67.0785 155.082 65.9024 155.518 64.8637C156.014 63.6815 157.559 62.9585 158.741 63.4547C159.327 63.7002 159.744 64.1301 159.957 64.645C161.028 66.3258 161.721 68.2832 161.904 70.4067C162.509 77.4336 157.304 83.6205 150.277 84.2259C145.974 84.5966 141.986 82.7881 139.401 79.7167C137.38 83.1848 133.76 85.6487 129.457 86.0194C122.43 86.6247 116.243 81.4192 115.638 74.3924C115.445 72.1514 115.843 69.9958 116.703 68.0794L116.714 68.083C117.264 66.9778 118.739 66.3248 119.878 66.8027C121.061 67.2989 121.559 68.548 121.063 69.7305Z" fill="#3A2D14"/>
</svg>
