<svg width="184" height="162" viewBox="0 0 184 162" fill="none" xmlns="http://www.w3.org/2000/svg">
<path d="M138.602 13.2751L150.798 19.2228L155.993 24.4177C156.645 25.1956 158.086 27.3388 158.628 29.6878C159.306 32.624 160.661 37.5929 160.962 41.5079C161.263 45.4228 162.468 48.5096 162.468 51.9728V68.1596V80.1303V88.8636V102.566C162.468 104.553 160.661 107.259 159.757 108.363L155.278 112.692L159.757 113.332L162.468 123.571V136.37C162.468 137.936 154.688 143.447 150.798 146.007L129.266 161.064H124.749H104.346H94.8597C90.9197 160.788 80.7207 160.1 71.4453 159.558C59.8511 158.881 60.4534 157.827 56.162 156.999C52.7289 156.336 48.0059 155.317 46.0735 154.891L32.2207 150.976L21.2287 146.308L19.9488 144.35L17.5396 133.584L16.2598 124.399V119.581L18.9701 116.795L37.2649 122.743L67.0034 127.11L110.67 128.465H124.749L129.283 126.867L134.461 121.689L136.569 111.826L138.602 95.4136L139.505 69.8159V45.9498L138.602 13.2751Z" fill="#EFEBD2"/>
<path fill-rule="evenodd" clip-rule="evenodd" d="M137.657 11.8093L151.33 18.4769L156.66 23.8066L156.685 23.8369C157.395 24.6826 158.924 26.952 159.508 29.4845C159.631 30.0167 159.779 30.6248 159.94 31.2878C160.647 34.2017 161.612 38.1763 161.863 41.4384C161.996 43.163 162.309 44.7211 162.623 46.2799C162.653 46.4307 162.684 46.5815 162.714 46.7324C163.053 48.4262 163.371 50.1423 163.371 51.9726V102.566C163.371 103.789 162.831 105.124 162.249 106.219C161.653 107.341 160.941 108.342 160.457 108.935L160.423 108.976L157.233 112.059L160.478 112.522L163.371 123.453V136.37C163.371 136.875 163.089 137.337 162.859 137.657C162.596 138.021 162.236 138.416 161.825 138.82C160.998 139.633 159.872 140.574 158.647 141.528C156.195 143.438 153.263 145.466 151.306 146.754L129.551 161.967H94.8282L94.7967 161.965C90.8588 161.689 80.6636 161.002 71.3928 160.46C63.109 159.976 60.8764 159.276 58.8147 158.629C57.9768 158.366 57.1671 158.112 55.991 157.885C52.5459 157.221 47.8135 156.2 45.8789 155.773L45.8532 155.767L31.9202 151.829L20.623 147.032L19.1031 144.707L16.6501 133.745L15.3564 124.462V119.214L18.7148 115.762L37.4718 121.86L67.0834 126.208L110.684 127.561H124.594L128.79 126.082L133.633 121.239L135.677 111.676L137.7 95.3418L138.602 69.7997V45.962L137.657 11.8093ZM133.632 124.376L132.736 124.692L135.289 122.139L137.461 111.976L139.503 95.485L140.409 69.8317V45.9372L139.546 14.7406L150.266 19.9684L155.325 25.0272C155.932 25.7621 157.255 27.7541 157.748 29.8908C157.88 30.4613 158.034 31.099 158.2 31.7841C158.907 34.7021 159.823 38.4788 160.061 41.577C160.203 43.4174 160.538 45.081 160.85 46.6282C160.881 46.7822 160.912 46.935 160.942 47.0867C161.281 48.7808 161.564 50.3398 161.564 51.9726V102.566C161.564 103.33 161.201 104.341 160.654 105.372C160.134 106.35 159.51 107.233 159.091 107.751L150.261 116.284L138.235 122.742L133.634 124.375L133.632 124.376ZM134.234 126.079L134.233 126.08L129.568 127.735L129.563 127.726L124.903 129.368H110.656L66.9236 128.011L37.0583 123.625L19.2256 117.828L17.1633 119.948V124.336L18.4295 133.423L20.7948 143.993L21.8347 145.583L32.5214 150.122L46.2941 154.014C48.2401 154.443 52.9273 155.454 56.3333 156.111C57.6937 156.374 58.5635 156.648 59.4309 156.922C61.4409 157.555 63.4385 158.185 71.4982 158.656C80.7536 159.197 90.9267 159.883 94.8915 160.16H128.982L150.291 145.259L150.302 145.252C152.234 143.98 155.131 141.977 157.537 140.103C158.742 139.164 159.805 138.273 160.558 137.532C160.937 137.16 161.215 136.847 161.393 136.6C161.518 136.427 161.555 136.338 161.564 136.318V123.688L159.037 114.142L155.588 113.649L151.336 117.758L138.969 124.399L134.236 126.079L134.234 126.079Z" fill="#3A2D14"/>
<path d="M31.6175 12.8987C32.8823 9.94746 34.0517 7.60352 34.4784 6.80045C35.1409 5.48386 38.8701 4.84651 40.652 4.69241L50.8157 3.11138C54.3542 2.88552 61.1602 2.43379 60.0761 2.43379C58.9919 2.43379 70.7669 1.48015 76.7899 1.00333C81.4577 0.928045 91.9979 0.822643 96.8163 1.00333C101.635 1.18402 111.573 2.03226 115.939 2.43379L128.06 4.7677C130.771 6.22325 136.463 9.46562 137.547 10.7907C138.631 12.1157 139.103 13.8524 139.203 14.555V25.4717C139.429 34.7822 139.745 53.6291 139.203 54.5326C138.525 55.6619 139.429 79.001 139.203 83.4429C138.977 87.8849 138.074 100.458 137.547 103.921C137.125 106.692 136.468 110.195 136.192 111.6L134.083 121.162L131.524 125.152C130.294 126.156 127.037 128.164 123.844 128.164H119.854H103.366H84.695L65.6473 126.959C64.6435 126.808 60.1212 126.236 50.0629 125.152C40.0045 124.068 28.9573 120.334 24.691 118.602L15.5813 114.386C14.8786 113.382 13.5636 110.863 13.9249 108.815C14.3767 106.255 15.5813 82.2383 15.5813 76.667C15.5813 71.0958 17.9152 61.7602 18.5928 54.5326C19.2703 47.305 20.2491 48.2837 21.3784 41.0562C22.5077 33.8286 25.1428 30.3654 26.4979 25.4717C27.8531 20.578 30.0364 16.5878 31.6175 12.8987Z" fill="#EFEBD2"/>
<path fill-rule="evenodd" clip-rule="evenodd" d="M76.7754 0.0998744C81.4379 0.0246735 92.0032 -0.0813729 96.8502 0.100391C101.697 0.282154 111.66 1.13287 116.022 1.53401L116.066 1.53809L128.367 3.90646L128.488 3.97164C129.854 4.705 131.969 5.88784 133.884 7.05687C134.841 7.64098 135.757 8.22747 136.509 8.75652C137.232 9.26584 137.887 9.77998 138.246 10.2185C139.467 11.7108 139.982 13.6211 140.097 14.4271L140.107 14.4907V25.4607C140.22 30.1191 140.355 37.1578 140.395 43.1487C140.414 46.1454 140.41 48.8868 140.367 50.9389C140.345 51.9634 140.314 52.8269 140.269 53.4684C140.247 53.7877 140.221 54.0664 140.189 54.2885C140.173 54.399 140.154 54.5095 140.129 54.6109C140.113 54.6772 140.082 54.7936 140.022 54.9158C140.014 54.9538 140.002 55.0171 139.99 55.1118C139.963 55.3125 139.94 55.5971 139.92 55.9652C139.881 56.6983 139.86 57.7029 139.852 58.9068C139.838 61.3114 139.881 64.4641 139.937 67.7298C139.96 69.0289 139.984 70.3483 140.009 71.6459C140.106 76.8364 140.197 81.6792 140.105 83.4887C139.88 87.9256 138.975 100.542 138.44 104.057C138.016 106.846 137.355 110.364 137.078 111.774L137.076 111.785L134.931 121.514L132.207 125.761L132.095 125.852C131.421 126.402 130.234 127.196 128.797 127.855C127.364 128.513 125.618 129.067 123.845 129.067H84.6666L65.5518 127.858L65.5134 127.852C64.5312 127.705 60.0276 127.135 49.9662 126.05C39.7932 124.954 28.6597 121.188 24.3514 119.439L24.3313 119.431L14.9809 115.103L14.8412 114.904C14.4487 114.343 13.9065 113.393 13.5061 112.303C13.1109 111.227 12.8146 109.908 13.0354 108.658C13.1374 108.079 13.2947 106.161 13.4729 103.436C13.649 100.743 13.8417 97.3318 14.0203 93.8241C14.3782 86.7982 14.6779 79.4252 14.6779 76.6669C14.6779 73.7909 15.2771 69.986 15.9423 66.0695C16.0309 65.5478 16.1208 65.0237 16.2109 64.4986C16.8033 61.0436 17.4028 57.5479 17.6934 54.4481C18.038 50.7725 18.464 49.1513 18.9512 47.5337C18.9928 47.3957 19.0347 47.2581 19.0769 47.1193C19.5104 45.6955 19.9804 44.1514 20.4859 40.9166C21.065 37.2101 22.032 34.4668 23.0168 32.0479C23.263 31.4432 23.507 30.8658 23.7448 30.303C24.4668 28.594 25.1317 27.0203 25.6274 25.2305C26.6368 21.5853 28.1128 18.3945 29.4351 15.536C29.9161 14.4962 30.3767 13.5004 30.7872 12.5427C32.0574 9.5788 33.2343 7.21749 33.6766 6.38411C33.9718 5.80563 34.5307 5.41122 35.0518 5.13743C35.6013 4.84865 36.2529 4.6203 36.9042 4.43976C38.195 4.08191 39.6128 3.87717 40.5432 3.79491L50.7174 2.21225L50.7583 2.20964C52.5267 2.09676 55.1107 1.9275 57.1162 1.78653C58.1202 1.71596 58.9741 1.65283 59.5079 1.60756C59.5611 1.60304 59.6101 1.59879 59.655 1.5948C59.6704 1.58825 59.6834 1.58318 59.6934 1.57945C59.7405 1.56177 59.7798 1.55144 59.7981 1.54681C59.8968 1.52194 60.0395 1.50518 60.1307 1.49447C60.373 1.46602 60.7776 1.426 61.3 1.37761C62.3499 1.28036 63.9117 1.14597 65.6926 0.99694C69.2556 0.698769 73.7065 0.341036 76.7187 0.102575L76.747 0.100333L76.7754 0.0998744ZM60.0139 1.55806C60.014 1.55806 60.0122 1.55837 60.0082 1.55897C60.0117 1.55835 60.0137 1.55806 60.0139 1.55806ZM76.8329 1.90608C73.8226 2.14443 69.3913 2.50062 65.8432 2.79754C64.063 2.94652 62.508 3.08034 61.4667 3.1768C61.0912 3.21159 60.7872 3.24109 60.565 3.26442C60.54 3.27587 60.5216 3.28291 60.5128 3.28627L60.5112 3.28688C60.4685 3.30326 60.4328 3.31325 60.4136 3.31833C60.3488 3.33551 60.2866 3.34442 60.2636 3.34772L60.2629 3.34782C60.1428 3.36503 59.9246 3.3856 59.6606 3.40799C59.1126 3.45447 58.2471 3.51839 57.2429 3.58898C55.2472 3.72926 52.6832 3.89728 50.9143 4.01025L40.7605 5.58972L40.7299 5.59237C39.8778 5.66607 38.5574 5.85649 37.3869 6.18098C36.8003 6.34361 36.284 6.5311 35.8923 6.73693C35.4751 6.95615 35.3229 7.13214 35.2855 7.20643L35.281 7.21535L35.2763 7.22418C34.8622 8.00379 33.7035 10.325 32.448 13.2545C32.0014 14.2965 31.517 15.3436 31.0217 16.4143C29.7167 19.2356 28.3355 22.2214 27.3687 25.7127C26.8389 27.6259 26.1117 29.3462 25.378 31.0819C25.1475 31.6273 24.9163 32.1743 24.6903 32.7292C23.7364 35.0723 22.8213 37.6744 22.2711 41.1955C21.7464 44.5539 21.2489 46.1886 20.8061 47.6436C20.764 47.7819 20.7224 47.9185 20.6813 48.0548C20.2275 49.5616 19.8254 51.0648 19.4924 54.6168C19.1948 57.7912 18.5819 61.364 17.9906 64.8113C17.9007 65.3351 17.8114 65.856 17.7237 66.3721C17.0526 70.3231 16.4848 73.9717 16.4848 76.6669C16.4848 79.4799 16.1822 86.9008 15.8249 93.916C15.646 97.4289 15.4528 100.85 15.276 103.554C15.1012 106.226 14.9385 108.27 14.8148 108.972C14.6741 109.769 14.8547 110.734 15.2023 111.68C15.4992 112.489 15.8895 113.207 16.1902 113.672L25.0509 117.773C29.2897 119.491 40.2317 123.184 50.1598 124.254C60.093 125.324 64.6449 125.898 65.7426 126.06L84.7237 127.26H123.845C125.263 127.26 126.742 126.81 128.043 126.213C129.26 125.655 130.265 124.993 130.843 124.539L133.236 120.81L135.307 111.416C135.583 110.009 136.236 106.53 136.654 103.785C137.173 100.373 138.075 87.8438 138.301 83.3969C138.389 81.6571 138.3 76.9184 138.203 71.7378C138.178 70.4267 138.153 69.0873 138.13 67.761C138.074 64.4955 138.031 61.324 138.046 58.8962C138.053 57.6838 138.074 56.645 138.116 55.8683C138.136 55.4815 138.163 55.1445 138.198 54.8771C138.216 54.744 138.237 54.6136 138.265 54.4957C138.283 54.4172 138.316 54.2906 138.379 54.1601C138.384 54.1331 138.392 54.091 138.401 54.0305C138.424 53.8728 138.446 53.6448 138.467 53.344C138.508 52.7456 138.539 51.9158 138.56 50.9008C138.603 48.874 138.607 46.1524 138.588 43.1606C138.548 37.1793 138.413 30.1457 138.3 25.4935L138.3 25.4825V14.6235C138.196 13.9857 137.765 12.4841 136.848 11.3626C136.664 11.1386 136.202 10.7505 135.468 10.2338C134.762 9.73671 133.883 9.17319 132.943 8.59912C131.119 7.48568 129.101 6.35453 127.754 5.62861L115.812 3.32924C111.419 2.9257 101.556 2.08503 96.7825 1.90602C92.0025 1.72677 81.5202 1.83074 76.8329 1.90608ZM138.37 54.1953C138.37 54.1952 138.371 54.1917 138.373 54.1854C138.371 54.1922 138.37 54.1953 138.37 54.1953ZM60.0554 1.52982C60.0558 1.52973 60.0612 1.52976 60.0704 1.5302C60.0596 1.53014 60.055 1.52992 60.0554 1.52982ZM46.9931 16.0427C47.1572 16.0522 47.3034 16.0607 47.4279 16.0607H74.8372L74.8419 16.0607C77.2477 16.0858 82.5733 16.1511 84.5719 16.2117C85.6746 16.2451 85.9896 16.2641 86.3789 16.2875C86.4323 16.2907 86.4872 16.2941 86.5457 16.2975C87.0143 16.3251 87.7395 16.3624 89.9953 16.4376C92.3202 16.5151 96.7618 17.1276 100.987 17.8036C105.226 18.4818 109.334 19.2384 111.02 19.6216C112.691 20.0013 114.884 20.554 116.924 21.2148C118.925 21.863 120.91 22.6553 122.065 23.5538C123.429 24.6145 123.73 26.0995 123.89 28.5467C123.948 29.4414 123.988 30.5175 124.036 31.8057C124.054 32.3077 124.074 32.842 124.097 33.4103C124.178 35.4476 124.295 37.9546 124.52 41.0662C125.245 51.099 125.175 59.756 125.048 62.8511L125.048 62.8649L125.047 62.8786C124.418 71.6548 123.151 89.594 123.091 91.378C123.014 93.6926 121.878 103.761 120.737 108.934C120.257 111.108 119.41 112.432 118.373 113.111C117.416 113.737 116.415 113.736 115.693 113.482H98.1356C96.3199 113.637 89.5275 113.747 76.1393 113.029C67.6642 112.575 61.9593 111.723 57.557 110.898C56.0769 110.62 54.7608 110.35 53.5458 110.1C51.113 109.6 49.0854 109.183 46.9575 108.96C41.6838 108.408 36.5487 106.845 34.6142 106.122L34.6094 106.121L34.6046 106.119C33.4938 105.69 31.7637 105.001 30.1798 104.327C29.3883 103.99 28.627 103.655 27.9951 103.355C27.3843 103.066 26.8325 102.783 26.5041 102.551C25.7577 102.024 25.3679 101.214 25.1637 100.53C24.9587 99.8433 24.9034 99.1617 24.917 98.7115V72.8973L26.1355 66.1197L26.1359 66.1174L27.4159 58.8891L27.4165 58.886C27.7679 56.9784 28.5576 52.5339 28.9159 49.9657C29.1557 48.2471 30.0521 45.2864 31.1864 41.9771C32.3307 38.6389 33.7472 34.862 35.067 31.4683L39.9183 18.9933L40.1713 18.8343C41.0427 18.2865 43.0539 17.0433 43.9913 16.5434C45.1319 15.9351 46.2477 15.9996 46.9931 16.0427ZM46.6878 17.8454C45.9997 17.8127 45.4959 17.7887 44.8416 18.1377C44.0474 18.5613 42.3485 19.6042 41.3855 20.2058L36.751 32.1232C35.4357 35.5053 34.0289 39.2571 32.8957 42.563C31.7526 45.8978 30.9174 48.6966 30.7055 50.2154C30.3413 52.8255 29.5456 57.3016 29.194 59.2102C29.1938 59.2113 29.1936 59.2123 29.1934 59.2134L27.9145 66.436L26.7239 73.0584V98.7417L26.7234 98.7572C26.7138 99.0351 26.75 99.5271 26.8951 100.013C27.0435 100.51 27.2686 100.879 27.5461 101.075C27.7296 101.204 28.1458 101.428 28.7682 101.722C29.3695 102.007 30.1063 102.332 30.8871 102.664C32.4456 103.327 34.1536 104.007 35.2513 104.432C37.0854 105.116 42.0644 106.631 47.1455 107.163C49.3619 107.395 51.5266 107.84 54.0186 108.352C55.219 108.598 56.4953 108.86 57.89 109.122C62.221 109.934 67.8468 110.776 76.236 111.225C89.7274 111.948 96.4053 111.823 98.0157 111.679L98.0559 111.676H116.057L116.233 111.754C116.457 111.855 116.9 111.916 117.383 111.599C117.877 111.276 118.548 110.466 118.972 108.545C120.09 103.479 121.212 93.5205 121.285 91.3178C121.346 89.4891 122.617 71.5092 123.244 62.7634C123.367 59.723 123.437 51.145 122.718 41.1965C122.491 38.0592 122.373 35.5314 122.291 33.482C122.268 32.8961 122.248 32.3518 122.229 31.845C122.182 30.5699 122.143 29.5321 122.087 28.6641C121.926 26.1988 121.625 25.5005 120.956 24.9801C120.079 24.2977 118.375 23.5842 116.367 22.9337C114.398 22.2958 112.262 21.7568 110.62 21.3836C108.993 21.0139 104.932 20.2648 100.702 19.5878C96.4568 18.9087 92.1275 18.3166 89.9351 18.2435C87.6738 18.1681 86.9308 18.1302 86.4396 18.1013C86.3807 18.0978 86.3258 18.0945 86.2725 18.0913C85.895 18.0685 85.5953 18.0504 84.5172 18.0177C82.5419 17.9579 77.2426 17.8927 74.8278 17.8676H47.4279C47.1541 17.8676 46.9112 17.856 46.6878 17.8454Z" fill="#3A2D14"/>
<path d="M80.7809 17.1899H44.5677L40.2764 20.5026L32.7476 40.1526L30.0373 49.3376L28.0798 62.814L25.8965 75.1612V90.5198V95.7146V100.684L28.0798 102.265L37.566 106.104L50.4401 108.589L62.5614 110.546L79.8022 112.579H91.9234H112.176H117.22L119.479 109.869L121.06 102.265L123.318 76.6669L124.372 65.0727V49.3376L123.243 34.1296V26.9773L121.662 24.5681L114.735 21.6319L99.0757 18.5451L89.5142 17.1899H80.7809Z" fill="#4460A7"/>
<path fill-rule="evenodd" clip-rule="evenodd" d="M44.2587 16.2866H89.5771L99.2257 17.6541L115.001 20.7637L122.266 23.8434L124.146 26.7074V34.0962L125.275 49.3042V65.1138L124.217 76.7464L124.217 76.7488L121.954 102.397L120.316 110.274L117.642 113.483H79.7483L62.4356 111.441L50.2816 109.479L37.3077 106.975L27.6381 103.061L24.9922 101.145V75.082L27.1869 62.6705L29.1517 49.144L31.8904 39.8628L39.5226 19.9426L44.2587 16.2866ZM44.875 18.0935L41.0284 21.0628L33.6032 40.4426L30.9212 49.5315L28.971 62.9578L26.7991 75.2405V100.222L28.5198 101.468L37.8227 105.234L50.5968 107.699L62.6855 109.651L79.8544 111.676H116.796L118.639 109.464L120.163 102.133L122.417 76.5876L122.418 76.5852L123.468 65.0318V49.3712L122.339 34.1632V27.2474L121.056 25.293L114.468 22.5003L98.924 19.4363L89.4497 18.0935H44.875Z" fill="#3A2D14"/>
<path fill-rule="evenodd" clip-rule="evenodd" d="M159.684 114.767C160.168 114.888 160.462 115.379 160.341 115.863C160.233 116.296 159.963 116.708 159.762 116.991C159.653 117.147 159.539 117.296 159.441 117.424L159.428 117.44C159.332 117.567 159.256 117.666 159.196 117.751C157.823 119.696 156.045 121.38 154.289 122.843C151.207 125.408 147.642 127.436 144.235 129.375C143.87 129.583 143.506 129.79 143.145 129.997C142.882 130.147 142.618 130.299 142.353 130.451C139.858 131.884 137.237 133.389 134.472 134.444C133.546 134.797 132.638 135.006 131.606 135.006C131.107 135.006 130.702 134.602 130.702 134.103C130.702 133.604 131.107 133.199 131.606 133.199C132.373 133.199 133.061 133.048 133.828 132.755C136.452 131.755 138.948 130.322 141.463 128.878C141.724 128.728 141.986 128.578 142.248 128.428C142.608 128.222 142.969 128.017 143.33 127.811C146.759 125.859 150.181 123.91 153.133 121.454C154.837 120.035 156.478 118.468 157.72 116.709C157.8 116.595 157.896 116.47 157.984 116.354L158.005 116.327C158.104 116.198 158.199 116.072 158.288 115.947C158.485 115.67 158.57 115.499 158.588 115.425C158.709 114.941 159.2 114.646 159.684 114.767Z" fill="#3A2D14"/>
<path fill-rule="evenodd" clip-rule="evenodd" d="M125.752 134.077C127.608 133.855 129.518 133.626 131.435 133.626C131.934 133.626 132.338 134.031 132.338 134.53C132.338 135.029 131.934 135.433 131.435 135.433C129.625 135.433 127.899 135.641 126.104 135.856C125.223 135.962 124.327 136.07 123.395 136.156C120.71 136.405 118.005 136.458 115.305 136.267C114.581 136.215 113.896 136.214 113.176 136.212C112.735 136.211 112.282 136.21 111.799 136.197C111.257 136.183 110.713 136.149 110.189 136.116C110.11 136.111 110.031 136.106 109.952 136.101C109.348 136.064 108.768 136.032 108.195 136.032C108.076 136.032 107.954 136.032 107.83 136.032C106.75 136.035 105.504 136.038 104.367 135.848C103.875 135.766 103.543 135.301 103.625 134.809C103.707 134.317 104.172 133.984 104.664 134.066C105.642 134.229 106.729 134.227 107.834 134.225C107.954 134.225 108.075 134.225 108.195 134.225C108.829 134.225 109.459 134.26 110.065 134.298C110.145 134.303 110.226 134.308 110.306 134.313C110.833 134.346 111.34 134.378 111.846 134.391C112.237 134.401 112.653 134.403 113.08 134.404C113.852 134.407 114.661 134.41 115.433 134.464C118.025 134.648 120.63 134.597 123.228 134.357C124.055 134.28 124.898 134.179 125.752 134.077Z" fill="#3A2D14"/>
<path fill-rule="evenodd" clip-rule="evenodd" d="M71.6459 134.387C71.7165 133.893 72.1741 133.55 72.668 133.62C76.5336 134.172 80.4232 134.065 84.3873 133.955C86.0182 133.91 87.6617 133.865 89.3212 133.865C91.894 133.865 94.4666 133.896 97.0333 133.928L97.0379 133.928C99.608 133.96 102.172 133.991 104.736 133.991C105.235 133.991 105.64 134.396 105.64 134.895C105.64 135.394 105.235 135.798 104.736 135.798C102.16 135.798 99.5845 135.767 97.0166 135.735L97.0156 135.735C94.4455 135.703 91.8825 135.672 89.3212 135.672C87.7718 135.672 86.1925 135.715 84.5967 135.759C80.5708 135.87 76.4391 135.984 72.4125 135.409C71.9186 135.338 71.5754 134.881 71.6459 134.387Z" fill="#3A2D14"/>
<path fill-rule="evenodd" clip-rule="evenodd" d="M47.595 130.453C47.6569 129.958 48.1084 129.606 48.6035 129.668C49.3728 129.764 50.1224 129.974 50.8069 130.171C50.8664 130.188 50.9254 130.205 50.984 130.222C51.62 130.406 52.1997 130.574 52.7788 130.675C53.0862 130.729 53.3977 130.768 53.7348 130.811L53.7391 130.811C54.0706 130.853 54.4274 130.898 54.787 130.962C55.3326 131.059 55.8696 131.177 56.3869 131.291L56.4195 131.298C56.9309 131.411 57.4229 131.52 57.9175 131.61C59.3135 131.864 60.72 132.078 62.1398 132.29C62.2949 132.313 62.4502 132.336 62.6057 132.359C63.8691 132.547 65.1432 132.737 66.4125 132.953C68.6759 133.338 70.7989 133.681 73.0151 133.681C73.514 133.681 73.9185 134.086 73.9185 134.585C73.9185 135.084 73.514 135.488 73.0151 135.488C70.6263 135.488 68.3622 135.117 66.1095 134.734C64.8599 134.522 63.605 134.335 62.3393 134.146C62.1841 134.123 62.0287 134.1 61.8731 134.077C60.4532 133.865 59.0214 133.647 57.5943 133.388C57.0657 133.292 56.5445 133.176 56.0427 133.066L55.997 133.055C55.4754 132.94 54.9739 132.83 54.4711 132.741C54.1636 132.686 53.8512 132.646 53.5135 132.604L53.4904 132.601C53.1665 132.56 52.8183 132.516 52.468 132.455C51.7861 132.336 51.1114 132.141 50.4928 131.961C50.4299 131.943 50.3676 131.925 50.3059 131.907C49.6155 131.708 48.991 131.538 48.3794 131.461C47.8843 131.399 47.5331 130.948 47.595 130.453Z" fill="#3A2D14"/>
<path fill-rule="evenodd" clip-rule="evenodd" d="M15.9316 119.393C16.2844 119.04 16.8565 119.04 17.2093 119.393C17.3692 119.553 17.4791 119.738 17.5503 119.87C17.6188 119.997 17.6831 120.136 17.735 120.249C17.7395 120.258 17.744 120.268 17.7483 120.278C17.8799 120.562 17.9495 120.688 18.0015 120.745C18.4891 121.279 19.1001 121.764 19.7405 122.194C21.3262 123.258 23.1463 124.008 25.025 124.664C26.7553 125.268 28.5856 125.574 30.4823 125.891C30.8077 125.945 31.1352 126 31.4644 126.056C33.7845 126.455 35.9175 127.084 38.1079 127.834C40.0919 128.513 42.1196 129.107 44.1413 129.412C45.3265 129.591 46.5216 129.587 47.7962 129.582C47.999 129.582 48.2038 129.581 48.411 129.581C48.9099 129.581 49.3144 129.985 49.3144 130.484C49.3144 130.983 48.9099 131.388 48.411 131.388C48.2163 131.388 48.0192 131.389 47.82 131.389C46.5544 131.395 45.2056 131.4 43.8718 131.199C41.6939 130.87 39.5487 130.237 37.5227 129.543C35.3783 128.809 33.3462 128.213 31.1585 127.837C30.8467 127.783 30.5305 127.731 30.2112 127.678C28.3214 127.363 26.3183 127.03 24.4293 126.37C22.5047 125.698 20.5122 124.887 18.7339 123.694C18.0219 123.217 17.2851 122.64 16.6671 121.963C16.4028 121.674 16.2262 121.291 16.1218 121.065C16.1173 121.055 16.1129 121.046 16.1087 121.037L16.103 121.025C16.0431 120.895 16.0009 120.804 15.9599 120.728C15.9361 120.684 15.9219 120.663 15.9176 120.656C15.5789 120.302 15.5835 119.741 15.9316 119.393Z" fill="#3A2D14"/>
<path fill-rule="evenodd" clip-rule="evenodd" d="M30.9089 120.083C31.2844 120.412 31.3224 120.982 30.9939 121.358C30.4657 121.962 29.9444 122.558 29.4491 123.163C29.2987 123.347 29.1348 123.555 28.9648 123.77C28.7073 124.097 28.4359 124.441 28.1769 124.746C28.1147 124.819 28.0456 124.909 27.9581 125.026C27.9463 125.042 27.9341 125.058 27.9216 125.074C27.8472 125.174 27.7612 125.289 27.6726 125.4C27.4751 125.649 27.1903 125.978 26.8196 126.201C26.3917 126.458 25.8368 126.319 25.5801 125.891C25.3233 125.463 25.4621 124.908 25.8899 124.651C25.9656 124.606 26.0828 124.497 26.2583 124.276C26.3289 124.187 26.3969 124.096 26.4721 123.996C26.4852 123.978 26.4986 123.96 26.5123 123.942C26.5986 123.827 26.6979 123.695 26.8006 123.575C27.0534 123.278 27.2718 123 27.5012 122.708C27.672 122.491 27.8489 122.266 28.0506 122.019C28.568 121.387 29.109 120.768 29.634 120.168C29.9626 119.793 30.5334 119.755 30.9089 120.083Z" fill="#3A2D14"/>
<path fill-rule="evenodd" clip-rule="evenodd" d="M72.3329 133.975C72.8319 133.975 73.2364 134.38 73.2364 134.879C73.2364 135.655 73.2244 136.424 73.2126 137.185C73.1807 139.24 73.1496 141.246 73.3556 143.237C73.6951 146.519 74.2824 149.864 74.9783 153.112C75.192 154.109 75.4709 155.116 75.7638 156.139C75.8133 156.312 75.8633 156.485 75.9134 156.659C76.1573 157.506 76.4046 158.365 76.6159 159.21C76.7369 159.694 76.4426 160.184 75.9585 160.305C75.4745 160.426 74.984 160.132 74.8629 159.648C74.6602 158.837 74.4236 158.015 74.1798 157.169C74.129 156.993 74.0779 156.815 74.0268 156.637C73.7327 155.61 73.4391 154.552 73.2115 153.49C72.5067 150.201 71.9064 146.788 71.5583 143.422C71.3404 141.316 71.3741 139.15 71.4066 137.061C71.4181 136.322 71.4295 135.592 71.4295 134.879C71.4295 134.38 71.834 133.975 72.3329 133.975Z" fill="#3A2D14"/>
<path fill-rule="evenodd" clip-rule="evenodd" d="M78.2062 134.68C78.7051 134.68 79.1096 135.084 79.1096 135.583C79.1096 138.508 79.1688 141.229 79.768 144.007C80.2798 146.38 80.9494 148.764 81.702 151.084C82.1753 152.543 82.7038 153.984 83.2415 155.44C83.2724 155.524 83.3033 155.608 83.3343 155.692C83.84 157.061 84.3515 158.445 84.8191 159.848C84.9769 160.321 84.721 160.833 84.2477 160.991C83.7743 161.149 83.2627 160.893 83.1049 160.419C82.6468 159.045 82.1448 157.686 81.6367 156.311C81.6066 156.229 81.5765 156.148 81.5464 156.066C81.0096 154.612 80.4692 153.14 79.9832 151.642C79.2162 149.277 78.529 146.833 78.0017 144.388C77.3584 141.405 77.3027 138.515 77.3027 135.583C77.3027 135.084 77.7072 134.68 78.2062 134.68Z" fill="#3A2D14"/>
<path fill-rule="evenodd" clip-rule="evenodd" d="M92.4698 138.448C93.3854 138.454 94.3793 138.592 95.355 139.183C97.4441 140.448 98.0503 142.748 97.7653 144.833C97.4827 146.9 96.3048 148.989 94.5025 150.047C93.6522 150.546 92.5724 150.884 91.4907 150.964C90.4141 151.043 89.2423 150.871 88.2816 150.238C86.496 149.061 85.7173 147.085 85.8276 145.1C85.8861 144.048 86.1401 142.505 86.7398 141.193C87.2717 140.03 88.2009 138.807 89.7075 138.59C89.7857 138.568 89.8682 138.556 89.9534 138.556C90.3369 138.556 90.7246 138.531 91.1463 138.503L91.155 138.502C91.5694 138.475 92.0185 138.445 92.4698 138.448ZM90.2831 140.358C90.252 140.362 90.2204 140.363 90.1884 140.363C89.479 140.363 88.8733 140.872 88.3831 141.945C87.9064 142.987 87.6823 144.29 87.6317 145.2C87.5509 146.655 88.1149 147.964 89.276 148.729C89.8012 149.075 90.5364 149.222 91.3584 149.162C92.1753 149.102 92.9858 148.842 93.5878 148.489C94.8211 147.765 95.7519 146.22 95.9751 144.588C96.1959 142.973 95.7052 141.508 94.419 140.729C93.8265 140.37 93.1961 140.26 92.4582 140.255C92.0828 140.253 91.6978 140.277 91.2742 140.305L91.24 140.307C90.9368 140.328 90.6134 140.349 90.2831 140.358Z" fill="#3A2D14"/>
<path fill-rule="evenodd" clip-rule="evenodd" d="M108.779 139.804C108.933 139.685 109.125 139.613 109.335 139.613C111.1 139.613 113.617 139.698 115.02 141.804C116.198 143.57 116.562 145.946 115.795 148.022C115.49 148.845 115.062 149.906 114.42 150.792C113.773 151.686 112.831 152.505 111.49 152.634C109.509 152.824 107.243 152.481 105.504 151.154C104.516 150.4 104.048 149.25 103.866 148.156C103.683 147.054 103.77 145.895 104 144.955C104.293 143.761 104.955 142.488 105.88 141.499C106.637 140.691 107.624 140.021 108.779 139.804ZM109.999 141.429C109.871 141.498 109.725 141.538 109.57 141.538C108.731 141.538 107.908 141.977 107.199 142.734C106.491 143.491 105.976 144.485 105.755 145.385C105.576 146.119 105.511 147.029 105.649 147.86C105.788 148.699 106.112 149.345 106.601 149.718C107.863 150.681 109.622 150.998 111.317 150.835C111.947 150.775 112.476 150.396 112.957 149.732C113.443 149.061 113.801 148.202 114.1 147.395C114.653 145.898 114.396 144.125 113.517 142.806C112.809 141.744 111.57 141.478 109.999 141.429Z" fill="#3A2D14"/>
<path fill-rule="evenodd" clip-rule="evenodd" d="M131.065 133.975C131.564 133.975 131.969 134.38 131.969 134.879C131.969 137.713 132.056 140.547 132.145 143.397L132.145 143.402C132.233 146.247 132.321 149.108 132.321 151.976C132.321 154.393 132.014 156.68 131.575 159.009C131.536 159.211 131.374 159.721 131.223 160.114C131.146 160.313 131.048 160.549 130.941 160.73L130.939 160.734C130.904 160.794 130.788 160.991 130.585 161.131C130.469 161.211 130.182 161.368 129.81 161.271C129.438 161.175 129.263 160.899 129.2 160.773C129.002 160.377 129.122 159.906 129.463 159.648C129.484 159.598 129.509 159.537 129.536 159.466C129.603 159.293 129.668 159.103 129.719 158.941C129.768 158.788 129.792 158.7 129.798 158.679C129.799 158.675 129.799 158.673 129.799 158.674C130.227 156.405 130.514 154.238 130.514 151.976C130.514 149.139 130.427 146.304 130.339 143.453L130.338 143.444C130.25 140.601 130.162 137.743 130.162 134.879C130.162 134.38 130.566 133.975 131.065 133.975ZM129.384 159.814C129.371 159.836 129.371 159.831 129.386 159.81C129.385 159.812 129.384 159.813 129.384 159.814Z" fill="#3A2D14"/>
<path fill-rule="evenodd" clip-rule="evenodd" d="M23.7413 127.879C24.2403 127.879 24.6448 128.283 24.6448 128.782C24.6448 130.853 24.9243 132.921 25.3177 135.004C25.4593 135.754 25.668 136.438 25.9727 137.142C26.1484 137.547 26.1941 137.879 26.1941 138.26C26.1941 138.759 25.7896 139.164 25.2906 139.164C24.7916 139.164 24.3872 138.759 24.3872 138.26C24.3872 138.068 24.3715 137.991 24.3148 137.86C23.9561 137.032 23.7083 136.219 23.5422 135.34C23.1384 133.202 22.8379 131.01 22.8379 128.782C22.8379 128.283 23.2424 127.879 23.7413 127.879Z" fill="#3A2D14"/>
<path fill-rule="evenodd" clip-rule="evenodd" d="M67.8507 136.81C68.3497 136.81 68.7542 137.214 68.7542 137.713C68.7542 139.625 68.7956 141.495 68.9729 143.37C69.0642 144.335 69.1187 145.398 69.1187 146.371C69.1187 146.87 68.7142 147.274 68.2152 147.274C67.7163 147.274 67.3118 146.87 67.3118 146.371C67.3118 145.46 67.2605 144.454 67.1741 143.54C66.9889 141.583 66.9473 139.648 66.9473 137.713C66.9473 137.214 67.3518 136.81 67.8507 136.81Z" fill="#3A2D14"/>
<path fill-rule="evenodd" clip-rule="evenodd" d="M29.665 130.795C30.164 130.795 30.5685 131.2 30.5685 131.699C30.5685 132.026 30.5444 132.422 30.5221 132.791C30.5091 133.005 30.4967 133.209 30.4898 133.386C30.4683 133.941 30.4864 134.387 30.5811 134.727C30.7 135.156 30.5862 135.535 30.4261 135.806C30.278 136.057 30.0746 136.247 29.9175 136.377C29.7579 136.509 29.5865 136.626 29.462 136.711L29.4552 136.716C29.306 136.818 29.2421 136.863 29.2109 136.891C28.6757 137.365 28.0949 137.833 27.5361 138.282C27.2116 138.543 26.8945 138.798 26.5981 139.045C26.2147 139.365 25.6451 139.313 25.3256 138.93C25.0062 138.546 25.058 137.977 25.4413 137.657C25.7915 137.365 26.1302 137.093 26.4621 136.827C26.9902 136.402 27.501 135.992 28.0129 135.538C28.139 135.427 28.2995 135.317 28.4108 135.241C28.4191 135.236 28.4271 135.23 28.4348 135.225C28.5701 135.132 28.6769 135.058 28.7658 134.985C28.7715 134.98 28.7768 134.975 28.7819 134.971C28.6654 134.414 28.6644 133.828 28.6843 133.316C28.695 133.042 28.7102 132.802 28.7242 132.579C28.744 132.267 28.7616 131.988 28.7616 131.699C28.7616 131.2 29.1661 130.795 29.665 130.795Z" fill="#3A2D14"/>
<path fill-rule="evenodd" clip-rule="evenodd" d="M22.7471 128.691C22.7471 128.192 23.1516 127.788 23.6505 127.788C25.5403 127.788 27.3503 128.651 28.7797 129.38C30.099 130.053 31.4269 130.436 32.9203 130.868C33.0853 130.916 33.2524 130.964 33.4216 131.013C33.9765 131.175 34.5263 131.338 35.0725 131.5C38.5038 132.516 41.7914 133.49 45.2965 133.853C45.6937 133.894 46.0641 133.941 46.4215 133.987C47.0784 134.071 47.6912 134.149 48.345 134.173C48.5693 134.181 48.8033 134.187 49.0439 134.193C49.8689 134.214 50.7714 134.236 51.6246 134.358C52.5711 134.494 53.5287 134.558 54.5253 134.625L54.5425 134.626C55.5226 134.692 56.5411 134.76 57.5584 134.905C58.0861 134.98 58.5868 135.091 59.0523 135.196C59.0801 135.202 59.1077 135.209 59.1352 135.215C59.5783 135.315 59.9884 135.407 60.409 135.474C61.5562 135.659 62.7356 135.835 63.8435 135.895C63.8947 135.897 63.9542 135.899 64.0204 135.902C64.2962 135.91 64.687 135.923 65.0619 136.017C65.546 136.138 65.8403 136.628 65.7193 137.112C65.5983 137.596 65.1077 137.891 64.6237 137.77C64.4518 137.727 64.3136 137.722 64.0822 137.713C63.9883 137.71 63.8791 137.706 63.746 137.699C62.533 137.633 61.2692 137.443 60.1227 137.259C59.644 137.182 59.1817 137.077 58.7501 136.98C58.7184 136.973 58.6869 136.966 58.6555 136.959C58.1876 136.853 57.751 136.758 57.3029 136.694C56.358 136.559 55.4013 136.494 54.4046 136.428L54.3899 136.427C53.409 136.361 52.3888 136.293 51.3691 136.147C50.6306 136.042 49.8747 136.022 49.0711 136.001C48.8124 135.995 48.5489 135.988 48.2794 135.978C47.5487 135.952 46.7894 135.856 46.0803 135.766C45.7429 135.723 45.4168 135.682 45.1106 135.65C41.4254 135.269 37.9614 134.242 34.5396 133.227C33.9976 133.066 33.4567 132.906 32.9162 132.748C32.7479 132.699 32.5792 132.65 32.4102 132.602C30.9373 132.177 29.441 131.745 27.9587 130.989C26.5019 130.246 25.0521 129.594 23.6505 129.594C23.1516 129.594 22.7471 129.19 22.7471 128.691Z" fill="#3A2D14"/>
<path fill-rule="evenodd" clip-rule="evenodd" d="M63.9395 136.984C63.9395 136.485 64.3439 136.081 64.8429 136.081H68.1237C68.6227 136.081 69.0271 136.485 69.0271 136.984C69.0271 137.483 68.6227 137.888 68.1237 137.888H64.8429C64.3439 137.888 63.9395 137.483 63.9395 136.984Z" fill="#3A2D14"/>
<path fill-rule="evenodd" clip-rule="evenodd" d="M24.3918 138.63C24.4391 138.133 24.8801 137.769 25.3769 137.816C26.8487 137.957 28.1701 138.473 29.381 139.051C29.8683 139.283 30.3519 139.532 30.8201 139.774C30.9316 139.831 31.0422 139.888 31.1517 139.944C31.7293 140.241 32.2872 140.52 32.8481 140.762C35.1728 141.763 37.7566 142.134 40.4066 142.515C40.7679 142.566 41.1303 142.619 41.4936 142.672C41.6365 142.694 41.7786 142.715 41.92 142.736C43.27 142.937 44.5528 143.129 45.8728 143.211C46.7007 143.263 47.5123 143.361 48.3092 143.471L48.3937 143.483C49.3932 143.62 50.4122 143.761 51.4242 143.931C51.558 143.953 51.7229 143.988 51.8572 144.016C51.9252 144.03 51.9854 144.042 52.0296 144.051C52.2004 144.084 52.3298 144.101 52.4489 144.101C52.9479 144.101 53.3524 144.505 53.3524 145.004C53.3524 145.503 52.9479 145.907 52.4489 145.907C52.1622 145.907 51.9035 145.867 51.688 145.825C51.5781 145.804 51.4947 145.786 51.4196 145.77C51.3208 145.749 51.2363 145.731 51.1245 145.713C50.1396 145.547 49.144 145.41 48.1368 145.271L48.0627 145.261C47.2825 145.154 46.5221 145.062 45.7601 145.015C44.3581 144.927 42.998 144.724 41.6595 144.524C41.5156 144.502 41.372 144.481 41.2285 144.46C40.8776 144.408 40.5213 144.357 40.1609 144.305C37.5367 143.931 34.6956 143.525 32.1334 142.421C31.5128 142.154 30.9091 141.851 30.3266 141.552C30.2104 141.492 30.0954 141.433 29.9811 141.374C29.5151 141.134 29.0628 140.901 28.6034 140.682C27.4634 140.138 26.3664 139.726 25.2056 139.615C24.7088 139.568 24.3445 139.127 24.3918 138.63Z" fill="#3A2D14"/>
<path fill-rule="evenodd" clip-rule="evenodd" d="M51.0898 145.004C51.0898 144.505 51.4943 144.101 51.9933 144.101C52.6436 144.101 53.2463 144.203 53.788 144.309C53.9087 144.332 54.0251 144.356 54.1385 144.379C54.5544 144.462 54.9292 144.538 55.3243 144.582C57.0493 144.776 58.7455 144.863 60.4898 144.952C60.9979 144.978 61.51 145.004 62.0282 145.034C62.7568 145.075 63.5733 145.131 64.3396 145.251C64.5448 145.283 64.7541 145.289 65.0338 145.297C65.0507 145.298 65.0679 145.298 65.0854 145.299C65.3696 145.307 65.726 145.32 66.0958 145.394C66.2553 145.427 66.4135 145.459 66.571 145.491C66.939 145.566 67.303 145.641 67.6696 145.712C67.6944 145.717 67.7532 145.725 67.8723 145.738C67.8918 145.74 67.9127 145.742 67.9346 145.744C68.0274 145.754 68.139 145.766 68.2461 145.779C68.3764 145.796 68.5353 145.82 68.6846 145.858C68.7597 145.877 68.852 145.905 68.9466 145.946C69.0322 145.983 69.1765 146.055 69.3095 146.188C69.6623 146.541 69.6623 147.113 69.3095 147.466C69.0102 147.765 68.553 147.81 68.2058 147.602C68.1627 147.593 68.1002 147.582 68.0157 147.572C67.9316 147.561 67.847 147.552 67.756 147.542C67.7314 147.54 67.7064 147.537 67.6808 147.534C67.5774 147.523 67.4384 147.508 67.3226 147.486C66.9485 147.412 66.5731 147.336 66.2018 147.26C66.0461 147.228 65.891 147.197 65.7371 147.165C65.5354 147.125 65.3196 147.113 65.0315 147.105C65.0083 147.104 64.9845 147.103 64.9601 147.103C64.7041 147.095 64.384 147.086 64.0606 147.036C63.389 146.931 62.6488 146.878 61.9267 146.838C61.4292 146.81 60.9304 146.784 60.4305 146.759C58.6765 146.669 56.9075 146.578 55.1226 146.378C54.6415 146.324 54.1687 146.228 53.7439 146.143C53.6401 146.122 53.5392 146.101 53.4417 146.082C52.9234 145.981 52.4617 145.907 51.9933 145.907C51.4943 145.907 51.0898 145.503 51.0898 145.004Z" fill="#3A2D14"/>
<path fill-rule="evenodd" clip-rule="evenodd" d="M82.4531 155.277C82.4531 154.778 82.8576 154.374 83.3566 154.374C84.4942 154.374 85.5864 154.534 86.6036 154.685C86.6201 154.687 86.6366 154.689 86.6531 154.692C87.6712 154.843 88.6128 154.983 89.5668 154.994C91.2233 155.013 92.8749 155.007 94.5342 155C95.3677 154.997 96.2032 154.994 97.0422 154.994C98.17 154.994 99.3024 154.987 100.438 154.981C104.725 154.957 109.059 154.933 113.366 155.249C116.365 155.469 119.37 155.446 122.414 155.422C123.367 155.415 124.324 155.407 125.286 155.407C125.996 155.407 126.72 155.232 127.569 155.021L127.625 155.007C128.419 154.809 129.334 154.58 130.269 154.58C130.768 154.58 131.172 154.985 131.172 155.484C131.172 155.983 130.768 156.387 130.269 156.387C129.573 156.387 128.857 156.562 128.006 156.774L127.969 156.783C127.167 156.983 126.24 157.214 125.286 157.214C124.356 157.214 123.42 157.221 122.479 157.229C119.42 157.253 116.313 157.277 113.233 157.051C109.005 156.74 104.764 156.764 100.486 156.788C99.3409 156.794 98.1931 156.801 97.0422 156.801C96.2181 156.801 95.3902 156.804 94.5602 156.807C92.8922 156.813 91.2158 156.82 89.546 156.801C88.4671 156.788 87.4187 156.632 86.4357 156.486C86.4031 156.482 86.3707 156.477 86.3383 156.472C85.3072 156.319 84.3416 156.181 83.3566 156.181C82.8576 156.181 82.4531 155.776 82.4531 155.277Z" fill="#3A2D14"/>
<path d="M8.63811 82.1628L18.5453 83.1071V88.773L12.9456 87.1419L10.3611 87.9145L10.7057 93.4087L12.6871 95.8982H17.2531L20.1822 98.3019L19.9237 101.392L21.819 103.882L21.1298 107.058L15.8747 109.634L9.49961 110.32L6.91512 104.74L4.50293 101.392L7.69047 98.9886L5.53673 93.237L4.76138 86.1118L8.63811 82.1628Z" fill="#EFEBD2"/>
<path fill-rule="evenodd" clip-rule="evenodd" d="M17.7321 109.062C18.5038 109.28 19.2278 109.224 19.6 109.195C19.615 109.194 19.6294 109.193 19.6433 109.192C21.2028 109.072 22.5343 107.934 23.0558 106.126C23.3738 105.024 22.9585 104.01 22.4609 103.281C22.0125 102.625 21.4288 102.093 20.968 101.758C21.3706 100.973 21.6055 100.081 21.4829 99.1622C21.3352 98.0551 20.5424 97.0379 19.7512 96.3029C18.945 95.5541 17.9608 94.9325 17.1745 94.6913C16.1745 94.3846 15.0606 94.4551 14.183 94.6038C13.7313 94.6803 13.3145 94.7824 12.9699 94.8831C12.3476 93.5079 11.207 90.7747 10.9003 88.4984C10.9327 88.4677 10.9943 88.4201 11.1055 88.3588C11.4392 88.1748 12.0546 87.9823 13.0334 87.8936C14.8176 87.7319 16.6166 88.7314 17.4119 89.2642C17.7919 89.5187 18.3063 89.417 18.5609 89.037C18.8154 88.657 18.7138 88.1426 18.3338 87.8881C17.4859 87.3201 15.272 86.0276 12.8839 86.244C11.786 86.3435 10.9179 86.5709 10.3059 86.9083C9.72895 87.2263 9.14313 87.7969 9.24398 88.6053C9.6276 91.68 11.3764 95.4057 11.7848 96.2638L12.1263 96.9815L12.8574 96.6697C13.066 96.5808 13.6933 96.3666 14.4596 96.2368C15.2364 96.1053 16.0507 96.0791 16.6888 96.2748C17.1623 96.4201 17.9344 96.876 18.624 97.5165C19.3285 98.1709 19.7709 98.8548 19.8412 99.3812C19.9445 100.156 19.5864 101.054 18.9206 101.87C18.2544 102.686 17.4181 103.247 16.8469 103.409C16.1001 103.62 15.245 103.791 14.4807 103.79C13.6948 103.79 13.1714 103.61 12.8842 103.305C12.5787 102.98 12.4993 102.737 12.4829 102.583C12.4662 102.425 12.5054 102.258 12.6107 102.07C12.8137 101.707 13.1525 101.432 13.4118 101.222C13.4546 101.187 13.4953 101.154 13.5328 101.122C13.755 100.937 14.1939 100.644 14.7223 100.436C15.2553 100.225 15.7984 100.131 16.2715 100.23C16.7191 100.325 17.1583 100.038 17.2526 99.5907C17.3469 99.1432 17.0606 98.7039 16.613 98.6096C15.704 98.4181 14.8123 98.6189 14.1133 98.8952C13.4098 99.1733 12.8195 99.56 12.4708 99.8514C12.4557 99.864 12.4336 99.8815 12.4055 99.9037C12.1747 100.086 11.5437 100.585 11.1653 101.261C10.9399 101.664 10.7741 102.173 10.8358 102.757C10.8395 102.793 10.8441 102.828 10.8495 102.864C10.8099 102.863 10.7697 102.864 10.7292 102.869C10.6827 102.875 10.6113 102.882 10.5234 102.89C10.2986 102.912 9.96583 102.945 9.66537 102.991C9.24816 103.054 8.6869 103.168 8.25673 103.419C7.81306 103.679 7.48334 103.986 7.24443 104.321C5.5298 103.296 5.439 101.646 5.50552 101.085C5.88093 100.14 6.6994 99.6337 7.65013 99.0778L8.38089 98.6505L7.97319 97.9384C7.95382 97.9045 7.9326 97.868 7.90962 97.8284C7.5267 97.1687 6.65385 95.6649 5.7017 91.8807C5.07735 89.3994 5.11078 87.7275 5.4431 86.5624C5.76876 85.4205 6.40438 84.6845 7.16539 84.1077C8.70545 82.9405 10.2349 82.6577 12.3803 82.5112C13.1018 82.4619 14.1847 82.6593 15.3104 82.9873C16.4177 83.3099 17.4578 83.7262 18.0598 84.0392C18.4656 84.2501 18.9656 84.0922 19.1766 83.6864C19.3876 83.2806 19.2297 82.7806 18.8239 82.5696C18.1039 82.1953 16.9582 81.7422 15.7737 81.3971C14.6075 81.0573 13.2923 80.7887 12.2675 80.8587C10.0275 81.0117 8.09784 81.3227 6.16494 82.7877C5.18947 83.527 4.29647 84.5437 3.85029 86.1081C3.41077 87.6491 3.42915 89.6368 4.09544 92.2849C4.88869 95.4375 5.64466 97.1194 6.13904 98.0535C5.31649 98.5769 4.38055 99.3302 3.92098 100.592L3.89529 100.662L3.8827 100.736C3.73038 101.631 3.81139 104.411 6.70546 105.916C6.66788 106.577 6.80805 107.231 6.90354 107.676C6.91668 107.737 6.92898 107.795 6.93985 107.847C7.00926 108.185 7.27285 108.928 7.73568 109.621C8.19081 110.302 8.96704 111.122 10.1191 111.238C11.2531 111.352 12.2042 110.999 12.8127 110.631C13.4768 111.051 14.36 111.363 15.4286 111.144C16.3124 110.962 16.9158 110.442 17.2965 109.9C17.4907 109.624 17.6328 109.334 17.7321 109.062ZM16.2554 108.212C16.2507 108.207 16.246 108.202 16.2413 108.198C15.7925 107.747 15.4478 107.167 15.2027 106.664C14.9768 106.2 14.8129 105.754 14.7194 105.443C14.6394 105.445 14.5595 105.447 14.4799 105.447C13.6948 105.446 12.8215 105.307 12.118 104.819C12.1166 104.866 12.111 104.915 12.101 104.963C11.7434 106.691 12.4629 108.058 12.7548 108.38C13.2634 108.941 14.0304 109.74 15.0951 109.521C15.4799 109.442 15.7478 109.223 15.9409 108.948C16.1279 108.682 16.2232 108.39 16.2554 108.212ZM10.4966 104.558C10.4898 104.58 10.4839 104.604 10.479 104.627C10.0192 106.849 10.8598 108.709 11.4807 109.439C11.1559 109.555 10.7455 109.636 10.2846 109.59C9.86958 109.548 9.46769 109.232 9.11283 108.701C8.76568 108.181 8.58742 107.636 8.56224 107.514C8.54911 107.45 8.53592 107.387 8.52289 107.325C8.41777 106.823 8.3237 106.374 8.36433 105.941C8.40252 105.533 8.55906 105.161 9.09282 104.849C9.22823 104.77 9.51259 104.689 9.91483 104.628C10.1307 104.595 10.3209 104.575 10.4966 104.558ZM16.3919 105.227C16.4649 105.431 16.5658 105.68 16.6918 105.939C16.8996 106.365 17.1492 106.762 17.4144 107.028C18.0064 107.622 18.8586 107.591 19.5166 107.54M16.3919 105.227C16.7113 105.159 17.0163 105.082 17.297 105.003C18.2185 104.743 19.2384 104.022 20.0291 103.123C20.3591 103.368 20.7812 103.759 21.0931 104.215C21.4571 104.748 21.5875 105.24 21.4643 105.667C21.1035 106.918 20.2816 107.481 19.5166 107.54M10.8679 88.5381C10.867 88.5379 10.8692 88.5326 10.8774 88.5226C10.8729 88.5332 10.8689 88.5382 10.8679 88.5381Z" fill="#3A2D14"/>
<path d="M8.63811 82.1628L18.5453 83.1071V88.773L12.9456 87.1419L10.3611 87.9145L10.7057 93.4087L12.6871 95.8982H17.2531L20.1822 98.3019L19.9237 101.392L21.819 103.882L21.1298 107.058L15.8747 109.634L9.49961 110.32L6.91512 104.74L4.50293 101.392L7.69047 98.9886L5.53673 93.237L4.76138 86.1118L8.63811 82.1628Z" fill="#EFEBD2"/>
<path fill-rule="evenodd" clip-rule="evenodd" d="M17.7321 109.062C18.5038 109.28 19.2278 109.224 19.6 109.195C19.615 109.194 19.6294 109.193 19.6433 109.192L19.6433 109.192C21.2029 109.072 22.5343 107.934 23.0558 106.126C23.3738 105.024 22.9585 104.01 22.4609 103.281C22.0125 102.625 21.4288 102.093 20.968 101.758C21.3706 100.973 21.6055 100.081 21.4829 99.1622C21.3352 98.0551 20.5424 97.0379 19.7512 96.3029C18.945 95.5541 17.9608 94.9325 17.1745 94.6913C16.1745 94.3846 15.0606 94.4551 14.183 94.6038C13.7313 94.6803 13.3145 94.7824 12.9699 94.8831C12.3476 93.5079 11.207 90.7747 10.9003 88.4984C10.9327 88.4677 10.9943 88.4201 11.1055 88.3588C11.4392 88.1748 12.0546 87.9823 13.0334 87.8936C14.8176 87.7319 16.6166 88.7314 17.4119 89.2642C17.7919 89.5187 18.3063 89.417 18.5609 89.037C18.8154 88.657 18.7138 88.1426 18.3338 87.8881C17.4859 87.3201 15.272 86.0276 12.8839 86.244C11.786 86.3435 10.9179 86.5709 10.3059 86.9083C9.72894 87.2263 9.14313 87.7969 9.24398 88.6053C9.6276 91.68 11.3764 95.4057 11.7848 96.2638L12.1263 96.9815L12.8574 96.6697C13.066 96.5808 13.6933 96.3666 14.4596 96.2368C15.2364 96.1053 16.0507 96.0791 16.6888 96.2748C17.1623 96.4201 17.9344 96.876 18.624 97.5165C19.3285 98.1709 19.7709 98.8548 19.8412 99.3812C19.9445 100.156 19.5864 101.054 18.9206 101.87C18.2544 102.686 17.4181 103.247 16.8469 103.409C16.1001 103.62 15.245 103.791 14.4807 103.79C13.6948 103.79 13.1714 103.61 12.8842 103.305C12.5787 102.98 12.4993 102.737 12.4829 102.583C12.4662 102.425 12.5054 102.258 12.6107 102.07C12.8137 101.707 13.1525 101.432 13.4118 101.222C13.4546 101.187 13.4953 101.154 13.5328 101.122C13.755 100.937 14.1939 100.644 14.7223 100.436C15.2553 100.225 15.7984 100.131 16.2715 100.23C16.7191 100.325 17.1583 100.038 17.2526 99.5907C17.3469 99.1432 17.0606 98.7039 16.613 98.6096C15.704 98.4181 14.8123 98.6189 14.1133 98.8952C13.4098 99.1733 12.8195 99.56 12.4708 99.8514C12.4557 99.864 12.4336 99.8815 12.4055 99.9037C12.1747 100.086 11.5437 100.585 11.1653 101.261C10.9399 101.664 10.7741 102.173 10.8358 102.757C10.8395 102.793 10.8441 102.828 10.8495 102.864C10.8099 102.863 10.7697 102.864 10.7292 102.869C10.6827 102.875 10.6113 102.882 10.5234 102.89C10.2986 102.912 9.96583 102.945 9.66537 102.991C9.24816 103.054 8.6869 103.168 8.25673 103.419C7.81306 103.679 7.48334 103.986 7.24443 104.321C5.5298 103.296 5.439 101.646 5.50552 101.085C5.88424 100.132 6.71285 99.6259 7.67251 99.0647L8.38088 98.6505L7.97319 97.9384C7.95382 97.9045 7.9326 97.868 7.90962 97.8284C7.5267 97.1687 6.65385 95.6649 5.7017 91.8807C5.07735 89.3994 5.11078 87.7275 5.4431 86.5624C5.76876 85.4206 6.40438 84.6845 7.16539 84.1077C8.70545 82.9405 10.2349 82.6577 12.3803 82.5112C13.1018 82.4619 14.1847 82.6593 15.3104 82.9873C16.4177 83.3099 17.4578 83.7262 18.0598 84.0392C18.4656 84.2501 18.9656 84.0922 19.1766 83.6864C19.3876 83.2806 19.2297 82.7806 18.8239 82.5696C18.1039 82.1953 16.9582 81.7422 15.7737 81.3971C14.6075 81.0573 13.2923 80.7887 12.2675 80.8587C10.0275 81.0117 8.09784 81.3227 6.16494 82.7877C5.18947 83.527 4.29647 84.5437 3.85029 86.1081C3.41077 87.6491 3.42915 89.6368 4.09544 92.2849C4.88867 95.4374 5.64462 97.1193 6.139 98.0534C5.31606 98.5771 4.38027 99.331 3.92098 100.592L3.89529 100.662L3.8827 100.736C3.73038 101.631 3.81139 104.411 6.70546 105.916C6.66788 106.577 6.80805 107.231 6.90354 107.676C6.91668 107.737 6.92898 107.795 6.93985 107.847C7.00926 108.185 7.27285 108.928 7.73568 109.621C8.19081 110.302 8.96704 111.122 10.1191 111.238C11.2531 111.352 12.2042 110.999 12.8127 110.631C13.4768 111.051 14.36 111.363 15.4286 111.144C16.3124 110.962 16.9158 110.442 17.2965 109.9C17.4907 109.624 17.6328 109.334 17.7321 109.062ZM16.2554 108.212C16.2507 108.207 16.246 108.202 16.2413 108.198C15.7925 107.747 15.4478 107.167 15.2027 106.664C14.9768 106.2 14.8129 105.754 14.7194 105.443C14.6394 105.445 14.5595 105.447 14.4799 105.447C13.6948 105.446 12.8215 105.307 12.118 104.819C12.1166 104.866 12.111 104.915 12.101 104.963C11.7434 106.691 12.4629 108.058 12.7548 108.38C13.2634 108.941 14.0304 109.74 15.0951 109.521C15.4799 109.442 15.7478 109.223 15.9409 108.948C16.1279 108.682 16.2232 108.39 16.2554 108.212ZM10.4966 104.558C10.4898 104.58 10.4839 104.604 10.479 104.627C10.0192 106.849 10.8598 108.709 11.4807 109.439C11.1559 109.555 10.7455 109.636 10.2846 109.59C9.86958 109.548 9.46769 109.232 9.11283 108.701C8.76568 108.181 8.58742 107.636 8.56224 107.514C8.54911 107.45 8.53592 107.387 8.52289 107.325C8.41777 106.823 8.3237 106.374 8.36433 105.941C8.40252 105.533 8.55906 105.161 9.09282 104.849C9.22823 104.77 9.51259 104.689 9.91483 104.628C10.1307 104.595 10.3209 104.575 10.4966 104.558ZM16.3919 105.227C16.4649 105.431 16.5658 105.68 16.6918 105.939C16.8996 106.365 17.1492 106.762 17.4144 107.028C18.0064 107.622 18.8586 107.591 19.5166 107.54M16.3919 105.227C16.7113 105.159 17.0163 105.082 17.297 105.003C18.2185 104.743 19.2384 104.022 20.0291 103.123C20.3591 103.368 20.7812 103.759 21.0931 104.215C21.4571 104.748 21.5875 105.24 21.4643 105.667C21.1035 106.918 20.2817 107.481 19.5167 107.54M10.8679 88.5381C10.867 88.5379 10.8692 88.5326 10.8774 88.5226C10.8729 88.5332 10.8689 88.5382 10.8679 88.5381Z" fill="#3A2D14"/>
<path d="M148.039 90.7092L160.854 90.7092L166.991 87.5221L169.044 82.6108L167.868 78.061L168.138 74.6479L171.577 74.6479L172.522 78.061L172.959 83.1378L172.522 85.9578L178.929 85.4893L180.413 88.6347L178.457 90.7092L179.738 92.9846L178.457 95.0592L178.929 97.803L177.108 99.3422L171.577 99.3422L168.138 98.8737L161.191 95.0592L148.039 94.5907L148.039 90.7092Z" fill="#EFEBD2"/>
<path fill-rule="evenodd" clip-rule="evenodd" d="M170.198 75.2747C169.879 75.217 169.618 75.2698 169.425 75.3483C169.282 75.4065 168.962 75.5729 168.846 76.9981C168.826 77.2449 168.856 77.5651 168.938 77.9873C169.002 78.3177 169.087 78.6654 169.183 79.0549C169.21 79.1645 169.237 79.2774 169.265 79.3942C169.513 80.4178 169.788 81.6656 169.685 82.9627C169.626 83.7094 169.327 84.4803 168.943 85.196C168.553 85.9227 168.041 86.6531 167.492 87.3312C166.402 88.677 165.093 89.9022 164.132 90.5472C163.339 91.0792 162.167 91.3378 160.939 91.4761C159.674 91.6187 158.194 91.6475 156.673 91.6221C155.148 91.5966 153.555 91.5161 152.061 91.4344C151.829 91.4216 151.599 91.4089 151.372 91.3963C150.134 91.3277 148.988 91.2643 148.013 91.2363C147.515 91.222 147.122 90.8061 147.136 90.3073C147.15 89.8086 147.566 89.4159 148.065 89.4302C149.067 89.4589 150.241 89.524 151.477 89.5925C151.703 89.605 151.931 89.6176 152.16 89.6302C153.653 89.7119 155.215 89.7906 156.703 89.8154C158.195 89.8403 159.585 89.8104 160.737 89.6806C161.927 89.5466 162.719 89.3192 163.125 89.0467C163.899 88.5275 165.078 87.4398 166.088 86.1938C166.588 85.5761 167.029 84.9408 167.351 84.341C167.679 83.7302 167.853 83.2136 167.884 82.8205C167.961 81.8382 167.756 80.8401 167.509 79.819C167.485 79.7174 167.459 79.6144 167.434 79.5109C167.337 79.1146 167.237 78.7091 167.164 78.3305C167.071 77.8518 167.005 77.3424 167.045 76.8517C167.169 75.3271 167.568 74.1527 168.744 73.6745C169.211 73.4848 169.819 73.37 170.519 73.4967C171.221 73.6235 171.955 73.9818 172.689 74.6461C173.43 75.3169 173.932 76.081 174.191 77.0203C174.443 77.9365 174.446 78.9585 174.298 80.1233C174.275 80.2957 174.218 80.5893 174.156 80.9036C174.15 80.9352 174.144 80.9669 174.137 80.9988C174.064 81.3704 173.979 81.8097 173.904 82.261C173.828 82.7142 173.765 83.1647 173.735 83.5574C173.703 83.9721 173.714 84.2407 173.743 84.3705C173.863 84.9072 174.016 85.0449 174.046 85.0672C174.046 85.0674 174.046 85.0676 174.047 85.0679C174.057 85.0762 174.102 85.1103 174.284 85.0824C174.678 85.0224 175.052 84.9093 175.487 84.7777C175.707 84.711 175.943 84.6395 176.206 84.5677C176.897 84.3789 177.766 84.196 178.621 84.435C181.103 85.1287 181.619 87.5854 181.162 89.1164C180.962 89.7877 180.644 90.3689 180.117 90.8133C180.18 90.9108 180.24 91.0114 180.294 91.1133C180.54 91.5688 180.746 92.1457 180.779 92.7663C180.82 93.5432 180.579 94.3341 180.219 94.9634C180.104 95.1641 179.967 95.3663 179.808 95.5555C179.863 95.6619 179.914 95.7718 179.959 95.8822C180.131 96.3028 180.273 96.8492 180.239 97.4264C180.16 98.7508 179.363 99.9586 178.094 100.432C177.51 100.649 176.654 100.755 175.881 100.806C175.08 100.859 174.247 100.859 173.645 100.822C173.616 100.82 173.586 100.818 173.554 100.816C172.995 100.782 171.979 100.72 170.87 100.534C169.715 100.34 168.365 99.999 167.297 99.3521C166.221 98.7 165.52 98.01 164.974 97.472C164.828 97.3289 164.694 97.1965 164.566 97.0785C163.99 96.5452 163.433 96.1576 162.241 95.9875C161.187 95.837 158.661 95.7463 155.894 95.7419C153.142 95.7374 150.25 95.8181 148.488 95.9923C147.991 96.0413 147.549 95.6786 147.5 95.1821C147.451 94.6855 147.814 94.2432 148.31 94.1941C150.165 94.0108 153.131 93.9305 155.897 93.935C158.647 93.9394 161.297 94.0275 162.497 94.1988C164.123 94.431 165.006 95.0239 165.793 95.7518C165.974 95.9193 166.142 96.0843 166.309 96.248C166.839 96.7678 167.355 97.2745 168.233 97.8066C169.007 98.2749 170.086 98.5705 171.168 98.7518C172.181 98.9215 173.115 98.9789 173.672 99.0132C173.702 99.015 173.73 99.0168 173.757 99.0185C174.274 99.0506 175.029 99.0512 175.762 99.0028C176.524 98.9526 177.147 98.856 177.463 98.7384C177.992 98.541 178.394 98.0057 178.435 97.3188C178.449 97.0915 178.391 96.8222 178.287 96.5669C178.282 96.5549 178.277 96.5432 178.272 96.5315C177.958 96.6395 177.564 96.7731 177.099 96.8731C176.43 97.0169 175.591 97.1041 174.394 97.0689C173.895 97.0542 173.503 96.638 173.518 96.1393C173.532 95.6405 173.948 95.2481 174.447 95.2628C175.528 95.2946 176.218 95.2142 176.719 95.1066C177.089 95.0271 177.348 94.9378 177.64 94.8372C177.764 94.7942 177.895 94.7491 178.043 94.7019C178.158 94.6651 178.413 94.4816 178.65 94.0665C178.875 93.6734 178.994 93.224 178.975 92.8612C178.959 92.5701 178.856 92.2531 178.704 91.97C178.611 91.7975 178.517 91.6687 178.444 91.5833C178.229 91.6312 178.005 91.6687 177.774 91.6986C177.261 91.7648 176.146 91.8275 175.356 91.8719C175.128 91.8847 174.928 91.896 174.776 91.9054C174.278 91.9363 173.85 91.5577 173.819 91.0597C173.788 90.5617 174.166 90.1329 174.664 90.102C174.849 90.0905 175.08 90.0775 175.331 90.0633C176.115 90.0191 177.102 89.9634 177.543 89.9065C178.253 89.8149 178.648 89.66 178.89 89.4809C179.11 89.3183 179.29 89.0731 179.431 88.6002C179.694 87.7178 179.35 86.5151 178.135 86.1752C177.79 86.079 177.341 86.1308 176.682 86.3107C176.525 86.3538 176.347 86.4073 176.157 86.4646C175.661 86.614 175.081 86.7887 174.557 86.8687C174.092 86.9396 173.497 86.9141 172.962 86.5129C172.447 86.127 172.147 85.5109 171.98 84.7648C171.889 84.3583 171.899 83.8643 171.933 83.418C171.97 82.9496 172.042 82.4405 172.122 81.9636C172.202 81.4846 172.291 81.0231 172.364 80.651L172.37 80.6202C172.444 80.2435 172.491 80.0035 172.505 79.8944L173.401 80.0088L172.505 79.8944C172.639 78.8468 172.612 78.0922 172.449 77.5C172.292 76.9308 171.994 76.4546 171.476 75.9857C170.951 75.5103 170.516 75.3323 170.198 75.2747Z" fill="#3A2D14"/>
<path fill-rule="evenodd" clip-rule="evenodd" d="M28.6483 134.932C28.6935 134.435 29.1329 134.069 29.6298 134.114C30.3937 134.183 31.1326 134.513 31.7448 134.835C32.0537 134.997 32.3555 135.172 32.6297 135.33L32.6432 135.338C32.9281 135.503 33.179 135.647 33.4103 135.766C34.9724 136.571 36.537 137.266 38.1863 137.8C39.9791 138.38 42.0109 138.647 43.9812 138.877C44.7618 138.968 45.5313 139.066 46.2961 139.163C47.5201 139.318 48.7321 139.471 49.9586 139.595C51.6244 139.764 53.3117 139.837 55.0304 139.912C55.3703 139.926 55.7113 139.941 56.0537 139.957C58.1131 140.051 60.2076 140.174 62.2688 140.496C62.7682 140.574 63.3351 140.543 64.021 140.505C64.2251 140.494 64.4398 140.482 64.6664 140.473C65.5535 140.435 66.6499 140.432 67.5726 140.894C68.0189 141.117 68.1998 141.659 67.9767 142.106C67.7535 142.552 67.2108 142.733 66.7646 142.51C66.3054 142.28 65.6473 142.24 64.7428 142.278C64.5838 142.285 64.4146 142.294 64.2385 142.304C63.5242 142.345 62.6975 142.391 61.9898 142.281C60.0341 141.975 58.0249 141.856 55.9713 141.762C55.6376 141.747 55.3023 141.732 54.9659 141.717C53.2471 141.643 51.499 141.567 49.777 141.393C48.5349 141.268 47.2743 141.108 46.0284 140.95C45.2681 140.854 44.5133 140.758 43.7715 140.672C41.8146 140.443 39.6149 140.161 37.6301 139.519C35.8616 138.947 34.2041 138.208 32.5828 137.373C32.3069 137.23 32.0184 137.064 31.7434 136.905L31.7389 136.902C31.4555 136.738 31.1804 136.579 30.9041 136.434C30.3356 136.135 29.8591 135.949 29.4662 135.913C28.9693 135.868 28.6031 135.429 28.6483 134.932Z" fill="#3A2D14"/>
<path d="M98.5484 32.0969L94.1065 30.8923L90.8691 49.7142V75.1613H96.591L100.581 68.4607L103.141 58.5981L104.044 47.6061L101.711 38.0446L98.5484 32.0969Z" fill="#EFEBD2"/>
<path fill-rule="evenodd" clip-rule="evenodd" d="M93.3846 29.7603L99.1626 31.3272L102.561 37.7203L104.957 47.534L104.035 58.7495L101.423 68.8121L97.1046 76.0645H89.9658V49.6368L93.3846 29.7603ZM94.8287 32.024L91.7727 49.7911V74.2576H96.0776L99.7392 68.1089L102.247 58.4463L103.132 47.6779L100.86 38.3686L97.9345 32.8663L94.8287 32.024Z" fill="#3A2D14"/>
<path fill-rule="evenodd" clip-rule="evenodd" d="M92.5582 30.4088C93.3946 30.1469 94.1407 30.1113 94.8941 30.1113C96.4777 30.1113 97.823 30.5586 98.9696 31.4392C100.097 32.3051 100.98 33.5497 101.729 35.0627C103.349 38.3321 104.207 41.578 104.499 45.3873C104.941 51.1597 104.573 57.7088 103.174 63.308C102.568 65.7297 101.705 69.0762 100.309 71.8219C98.9351 74.5227 96.8632 76.9897 93.7081 76.9897C92.3735 76.9897 90.7425 76.9215 89.1899 76.4786C87.6243 76.0319 86.0865 75.1889 85.0206 73.6104C80.7371 67.2669 80.2768 58.4665 80.832 50.9336C81.0629 47.8013 81.4995 44.2396 82.3141 41.1933C82.8561 39.1662 83.6996 37.6158 84.8889 36.114C85.1169 35.8262 85.3509 35.5191 85.5921 35.2027C86.4184 34.1185 87.3288 32.9239 88.3684 32.0125C89.1385 31.3373 89.9794 31.178 90.7113 31.1501C90.8664 31.0249 91.0638 30.9499 91.2786 30.9499C91.324 30.9499 91.421 30.9303 91.6632 30.8116C91.698 30.7945 91.7402 30.7729 91.7881 30.7483C91.9853 30.6471 92.2798 30.496 92.5582 30.4088ZM92.6569 32.3348C92.5415 32.7009 92.1993 32.9664 91.7951 32.9664C91.6277 32.9664 91.4743 32.9647 91.3328 32.9631C90.4634 32.9536 90.0412 32.9489 89.5595 33.3712C88.6695 34.1514 87.9136 35.1419 87.1094 36.1956C86.8485 36.5374 86.5826 36.8858 86.3054 37.2358C85.253 38.5648 84.5313 39.8959 84.0596 41.66C83.2875 44.5478 82.8614 47.9811 82.634 51.0664C82.0839 58.5301 82.5969 66.7923 86.5181 72.5992C87.2785 73.7253 88.3956 74.373 89.6856 74.741C90.9885 75.1127 92.4138 75.1828 93.7081 75.1828C95.7707 75.1828 97.3853 73.5842 98.6979 71.0028C99.9878 68.4663 100.81 65.3141 101.421 62.8698C102.765 57.4931 103.127 51.143 102.697 45.5253C102.422 41.9296 101.62 38.9115 100.11 35.8647C99.4285 34.4883 98.6972 33.5084 97.869 32.8722C97.0598 32.2507 96.108 31.9182 94.8941 31.9182C94.2004 31.9182 93.6718 31.9535 93.0981 32.1332C92.9799 32.1702 92.8785 32.2219 92.7165 32.3045C92.6975 32.3142 92.6777 32.3243 92.6569 32.3348Z" fill="#3A2D14"/>
<path fill-rule="evenodd" clip-rule="evenodd" d="M93.671 31.544C94.169 31.5127 94.5981 31.8911 94.6294 32.389C94.6726 33.0763 94.8206 33.7984 95.0069 34.5677C95.0606 34.7897 95.1186 35.0196 95.1777 35.2536C95.3159 35.801 95.4597 36.371 95.5677 36.9151C95.9916 39.0508 96.3148 41.1382 96.4792 43.3501C96.4957 43.573 96.5125 43.7964 96.5293 44.0201C96.6948 46.2243 96.8632 48.4667 96.8632 50.7235C96.8632 51.0522 96.8739 51.3996 96.886 51.7704L96.8878 51.8266C96.8992 52.176 96.9113 52.5445 96.9141 52.9132C96.9202 53.6846 96.8877 54.5159 96.706 55.2941C96.6661 55.465 96.6362 55.6941 96.5982 55.9853C96.5724 56.1839 96.5427 56.4113 96.5036 56.6688C96.4605 56.9516 96.4066 57.2563 96.3328 57.5308C96.2672 57.7749 96.1552 58.1214 95.9344 58.3916C95.7701 58.5926 95.5684 58.6904 95.4367 58.7392C95.2987 58.7902 95.1646 58.8142 95.0585 58.827C94.8471 58.8525 94.6252 58.8471 94.4471 58.8366C94.2624 58.8257 94.0803 58.8064 93.9444 58.7919L93.9317 58.7905C93.8662 58.7835 93.8152 58.7781 93.7728 58.7741C93.7379 58.7709 93.7231 58.7701 93.7215 58.77C93.6253 58.7704 93.5289 58.7793 93.4269 58.7958C93.8256 59.0748 94.1975 59.3674 94.5332 59.6317C94.5528 59.647 94.5722 59.6623 94.5915 59.6775C95.7815 60.6136 96.0293 62.1837 95.9982 63.5185C95.9658 64.9033 95.6275 66.3482 95.3189 67.3903C94.9024 68.7971 94.3378 70.2466 93.6694 71.5217C93.533 71.7817 93.4215 72.062 93.2899 72.3924C93.2457 72.5034 93.1992 72.6201 93.1488 72.7437C92.9651 73.1936 92.7308 73.7255 92.3817 74.1763C92.3066 74.2733 92.2233 74.3855 92.1347 74.5049C91.9375 74.7703 91.7139 75.0713 91.4959 75.3197C91.152 75.7114 90.7162 76.1074 90.1199 76.3506C89.6579 76.539 89.1306 76.3172 88.9421 75.8552C88.7537 75.3932 88.9755 74.8659 89.4375 74.6775C89.675 74.5806 89.8919 74.4079 90.1381 74.1275C90.3099 73.9318 90.4525 73.7391 90.6192 73.5137C90.7182 73.3798 90.8258 73.2345 90.953 73.0701C91.1389 72.83 91.2968 72.4995 91.4759 72.0607C91.511 71.9747 91.5477 71.8825 91.586 71.7861C91.7247 71.4371 91.8846 71.0345 92.0691 70.6827C92.6747 69.5276 93.1977 68.1899 93.5864 66.8773C93.8757 65.9001 94.1648 64.6304 94.1918 63.4763C94.2199 62.2721 93.9589 61.4788 93.4744 61.0977C92.6707 60.4655 91.9337 59.8924 91.1926 59.5901C91.0313 59.5243 90.8284 59.4216 90.6599 59.2539C90.4889 59.0839 90.2323 58.7054 90.3817 58.2138C90.5078 57.799 90.8424 57.6112 90.9936 57.5413C91.1777 57.4563 91.3751 57.4134 91.5519 57.3907C91.7789 57.3614 91.9871 57.3022 92.2674 57.2224C92.3233 57.2065 92.3821 57.1898 92.4444 57.1723C92.7909 57.0752 93.2285 56.9631 93.7277 56.9631C93.8043 56.9631 93.8845 56.9699 93.9391 56.9749C93.9953 56.9801 94.0592 56.987 94.1201 56.9935L94.1365 56.9952C94.2754 57.0101 94.4172 57.0248 94.5531 57.0328C94.5675 57.0337 94.5814 57.0344 94.5949 57.035C94.6395 56.8624 94.6794 56.6456 94.7172 56.3971C94.7396 56.2496 94.7626 56.077 94.7863 55.8986C94.8354 55.5288 94.888 55.1336 94.9464 54.8832C95.0787 54.3167 95.113 53.6567 95.1073 52.9274C95.1046 52.5817 95.0933 52.2337 95.0817 51.8788L95.0801 51.8292C95.0681 51.462 95.0563 51.0861 95.0563 50.7235C95.0563 48.5383 94.8931 46.3636 94.7269 44.1485C94.7103 43.9274 94.6937 43.7059 94.6772 43.484C94.5198 41.3649 94.2094 39.353 93.7954 37.2669C93.6967 36.7695 93.5717 36.2745 93.4392 35.75C93.3774 35.5052 93.3139 35.2538 93.2507 34.9928C93.0589 34.2006 92.8795 33.3532 92.826 32.5024C92.7947 32.0044 93.173 31.5754 93.671 31.544ZM91.847 57.9042C91.8471 57.9042 91.8489 57.9051 91.8522 57.907C91.8486 57.9052 91.847 57.9043 91.847 57.9042Z" fill="#3A2D14"/>
<path fill-rule="evenodd" clip-rule="evenodd" d="M92.7439 31.5719C92.9998 31.5853 93.2194 31.5969 93.4238 31.5969C93.9227 31.5969 94.3272 32.0013 94.3272 32.5003C94.3272 32.9993 93.9227 33.4037 93.4238 33.4037C93.1684 33.4037 92.8973 33.3895 92.6482 33.3763C92.6142 33.3745 92.5806 33.3728 92.5475 33.371C92.2597 33.3562 91.9941 33.3448 91.7406 33.3507C91.2175 33.363 90.8797 33.449 90.6592 33.6079C90.2544 33.8996 89.6898 33.8079 89.3981 33.4031C89.1064 32.9983 89.1981 32.4336 89.6029 32.1419C90.271 31.6606 91.0579 31.5593 91.6983 31.5443C92.0264 31.5366 92.3523 31.5516 92.6408 31.5666C92.6758 31.5684 92.7102 31.5702 92.7439 31.5719Z" fill="#3A2D14"/>
<path fill-rule="evenodd" clip-rule="evenodd" d="M77.6395 31.7726C77.9321 31.3685 78.4969 31.278 78.9011 31.5706C79.4401 31.9609 79.951 32.5039 80.4196 33.041C80.6562 33.3123 80.8648 33.5607 81.0694 33.8045C81.3154 34.0975 81.5557 34.3838 81.8324 34.695C82.3039 35.2252 82.7475 35.6684 83.1782 35.9763C83.6085 36.2839 83.9571 36.4069 84.2512 36.4069C84.7501 36.4069 85.1546 36.8114 85.1546 37.3104C85.1546 37.8093 84.7501 38.2138 84.2512 38.2138C83.4396 38.2138 82.7254 37.8738 82.1273 37.4462C81.5296 37.0188 80.9791 36.4545 80.4822 35.8957C80.2193 35.6 79.9251 35.2509 79.6457 34.9193C79.4347 34.6689 79.2322 34.4285 79.058 34.2289C78.6008 33.7048 78.2029 33.2959 77.8415 33.0342C77.4373 32.7416 77.3469 32.1768 77.6395 31.7726Z" fill="#3A2D14"/>
<path fill-rule="evenodd" clip-rule="evenodd" d="M84.2735 25.0795C84.7067 24.8318 85.2586 24.9822 85.5063 25.4154C86.0076 26.2923 86.4082 27.2035 86.7822 28.0544C86.9048 28.3332 87.0245 28.6055 87.144 28.868C87.6413 29.9606 88.1623 30.9558 88.9357 31.8575C89.2605 32.2363 89.2168 32.8066 88.838 33.1315C88.4593 33.4563 87.8889 33.4126 87.5641 33.0338C86.6234 31.9369 86.0185 30.7571 85.4994 29.6165C85.3594 29.3089 85.2273 29.0085 85.0974 28.7132C84.7335 27.8857 84.3876 27.0992 83.9377 26.3122C83.69 25.8791 83.8404 25.3272 84.2735 25.0795Z" fill="#3A2D14"/>
<path fill-rule="evenodd" clip-rule="evenodd" d="M93.0714 22.3848C93.5704 22.3848 93.9749 22.7893 93.9749 23.2882V31.0148C93.9749 31.5137 93.5704 31.9182 93.0714 31.9182C92.5725 31.9182 92.168 31.5137 92.168 31.0148V23.2882C92.168 22.7893 92.5725 22.3848 93.0714 22.3848Z" fill="#3A2D14"/>
<path fill-rule="evenodd" clip-rule="evenodd" d="M86.8384 74.0381C87.3373 74.0381 87.7418 74.4426 87.7418 74.9415C87.7418 75.4721 87.6381 76.3493 87.4662 77.1642C87.3792 77.5769 87.2694 77.999 87.1361 78.3714C87.0127 78.7162 86.8331 79.124 86.5607 79.4184C86.2218 79.7846 85.6502 79.8068 85.284 79.4679C84.9178 79.129 84.8956 78.5574 85.2345 78.1912C85.2341 78.1916 85.2341 78.1916 85.2347 78.1909C85.2382 78.1864 85.2619 78.1559 85.2998 78.0829C85.3409 78.0034 85.3868 77.8968 85.435 77.7622C85.5316 77.4924 85.6214 77.1553 85.6982 76.7914C85.8539 76.053 85.9349 75.3072 85.9349 74.9415C85.9349 74.4426 86.3394 74.0381 86.8384 74.0381Z" fill="#3A2D14"/>
<path fill-rule="evenodd" clip-rule="evenodd" d="M91.9991 75.8982C92.498 75.8982 92.9025 76.3027 92.9025 76.8016C92.9025 76.9024 92.9189 77.105 92.9448 77.4244C92.9477 77.4609 92.9508 77.4988 92.954 77.5383C92.9827 77.8949 93.0161 78.3324 93.0287 78.7642C93.041 79.1868 93.0354 79.651 92.9711 80.0496C92.9392 80.2476 92.8861 80.4741 92.7876 80.6853C92.6923 80.8897 92.5077 81.1781 92.1598 81.3405C91.7077 81.5515 91.1701 81.3561 90.959 80.9039C90.7875 80.5364 90.8845 80.1124 91.1697 79.8533C91.1754 79.8285 91.1814 79.7982 91.1873 79.762C91.2238 79.5352 91.234 79.2077 91.2226 78.817C91.2114 78.4355 91.1815 78.0383 91.1529 77.6835C91.1495 77.6415 91.1461 77.5991 91.1426 77.5567C91.1192 77.2703 91.0956 76.9821 91.0956 76.8016C91.0956 76.3027 91.5001 75.8982 91.9991 75.8982Z" fill="#3A2D14"/>
<path fill-rule="evenodd" clip-rule="evenodd" d="M96.0109 75.469C96.5098 75.469 96.9143 75.8735 96.9143 76.3724C96.9143 77.0844 97.1465 77.7553 97.4482 78.587C97.4565 78.61 97.4648 78.633 97.4733 78.6562C97.7528 79.426 98.0903 80.3553 98.0903 81.3804C98.0903 81.8793 97.6858 82.2838 97.1868 82.2838C96.6879 82.2838 96.2834 81.8793 96.2834 81.3804C96.2834 80.6956 96.0535 80.0413 95.7495 79.2031C95.7449 79.1902 95.7402 79.1773 95.7355 79.1643C95.4517 78.3823 95.1074 77.4334 95.1074 76.3724C95.1074 75.8735 95.5119 75.469 96.0109 75.469Z" fill="#3A2D14"/>
<path fill-rule="evenodd" clip-rule="evenodd" d="M101.305 24.5628C101.787 24.694 102.07 25.1907 101.939 25.6721C101.692 26.5792 101.273 27.5009 100.888 28.3495C100.772 28.6054 100.659 28.8547 100.554 29.095C100.078 30.1902 99.7366 31.1775 99.7366 32.1594C99.7366 32.6583 99.3321 33.0628 98.8331 33.0628C98.3342 33.0628 97.9297 32.6583 97.9297 32.1594C97.9297 30.7814 98.4064 29.5031 98.8976 28.3741C99.0295 28.071 99.1607 27.7815 99.2875 27.5017C99.6574 26.6855 99.9902 25.9511 100.196 25.1968C100.327 24.7154 100.824 24.4316 101.305 24.5628Z" fill="#3A2D14"/>
<path fill-rule="evenodd" clip-rule="evenodd" d="M107.17 32.4671C107.633 32.6549 107.855 33.1819 107.667 33.6441C107.149 34.9205 106.258 35.8529 105.395 36.6286C105.091 36.9019 104.801 37.1478 104.526 37.3815C103.972 37.8519 103.477 38.2728 103.038 38.7682C102.707 39.1416 102.136 39.176 101.762 38.845C101.389 38.514 101.354 37.943 101.685 37.5696C102.211 36.977 102.869 36.4169 103.474 35.9023C103.725 35.6882 103.968 35.482 104.187 35.2846C104.988 34.5649 105.631 33.8553 105.993 32.964C106.181 32.5017 106.708 32.2793 107.17 32.4671Z" fill="#3A2D14"/>
<path d="M94.395 35.9348L92.6924 31.7302L86.3421 34.4212L83.7652 39.4667L82.0166 48.8849V59.8169L83.7652 67.5533L86.3421 73.4397L89.7934 75.514L92.6924 71.7579L94.395 67.5533V61.8911L92.6924 59.8169L90.9898 57.5183H94.395L95.7755 55.388V48.8849V43.2228L94.395 35.9348Z" fill="#3A2D14"/>
<path fill-rule="evenodd" clip-rule="evenodd" d="M93.1853 30.54L95.2661 35.6786L96.6791 43.1378V55.655L94.8862 58.4216H92.7835L93.4051 59.2609L95.2986 61.5677V67.7291L93.4834 72.2117L90.0174 76.7024L85.6301 74.0656L82.9031 67.8364L81.1133 59.9175V48.8016L82.9011 39.1725L85.6872 33.7174L93.1853 30.54ZM86.9974 35.1246L84.6297 39.7605L82.9202 48.9679V59.7159L84.6276 67.2698L87.0544 72.8135L89.5696 74.3252L91.9016 71.3038L93.4917 67.3772V62.2143L91.9799 60.3725L89.1964 56.6148H93.904L94.8722 55.1207V43.3074L93.5241 36.1908L92.1997 32.9201L86.9974 35.1246Z" fill="#3A2D14"/>
<path d="M60.4537 28.1821L56.0118 26.9775L52.7744 45.7994V71.2465H58.4962L62.4865 64.5459L65.0462 54.6833L65.9497 43.6913L63.6158 34.1298L60.4537 28.1821Z" fill="#EFEBD2"/>
<path fill-rule="evenodd" clip-rule="evenodd" d="M55.2899 25.8455L61.0679 27.4124L64.4668 33.8055L66.8622 43.6192L65.9404 54.8347L63.3287 64.8973L59.0099 72.1497H51.8711V45.722L55.2899 25.8455ZM56.7339 28.1092L53.678 45.8763V70.3428H57.9829L61.6445 64.1941L64.1523 54.5315L65.0374 43.7631L62.7651 34.4538L59.8398 28.9515L56.7339 28.1092Z" fill="#3A2D14"/>
<path fill-rule="evenodd" clip-rule="evenodd" d="M54.4634 26.494C55.2999 26.2321 56.0459 26.1965 56.7994 26.1965C58.3829 26.1965 59.7283 26.6438 60.8749 27.5244C62.0023 28.3903 62.8852 29.6349 63.6347 31.1479C65.2543 34.4174 66.1123 37.6632 66.4041 41.4725C66.8462 47.2449 66.4785 53.794 65.079 59.3932C64.4736 61.8149 63.61 65.1614 62.2138 67.9071C60.8404 70.6079 58.7685 73.0749 55.6133 73.0749C54.2788 73.0749 52.6478 73.0067 51.0952 72.5638C49.5295 72.1171 47.9918 71.2741 46.9259 69.6956C42.6424 63.3521 42.1821 54.5517 42.7373 47.0188C42.9681 43.8865 43.4048 40.3248 44.2193 37.2785C44.7613 35.2514 45.6049 33.701 46.7942 32.1992C47.0221 31.9114 47.2562 31.6043 47.4973 31.2879C48.3236 30.2037 49.2341 29.0091 50.2737 28.0977C51.0438 27.4225 51.8846 27.2632 52.6166 27.2353C52.7717 27.1101 52.969 27.0351 53.1839 27.0351C53.2293 27.0351 53.3263 27.0155 53.5685 26.8968C53.6033 26.8797 53.6455 26.8581 53.6934 26.8335C53.8906 26.7323 54.1851 26.5812 54.4634 26.494ZM54.5622 28.42C54.4468 28.7861 54.1046 29.0516 53.7004 29.0516C53.533 29.0516 53.3796 29.0499 53.238 29.0484C52.3687 29.0388 51.9465 29.0341 51.4648 29.4564C50.5748 30.2366 49.8189 31.2271 49.0146 32.2808C48.7538 32.6226 48.4879 32.971 48.2107 33.321C47.1582 34.65 46.4366 35.9811 45.9649 37.7452C45.1928 40.633 44.7667 44.0663 44.5393 47.1516C43.9892 54.6153 44.5022 62.8775 48.4233 68.6844C49.1837 69.8105 50.3009 70.4582 51.5909 70.8262C52.8938 71.1979 54.319 71.268 55.6133 71.268C57.676 71.268 59.2905 69.6694 60.6032 67.0881C61.893 64.5515 62.715 61.3993 63.326 58.955C64.6699 53.5783 65.0328 47.2282 64.6025 41.6105C64.3271 38.0148 63.5249 34.9967 62.0156 31.9499C61.3337 30.5735 60.6025 29.5936 59.7742 28.9574C58.9651 28.3359 58.0132 28.0034 56.7994 28.0034C56.1057 28.0034 55.577 28.0387 55.0033 28.2184C54.8852 28.2554 54.7838 28.3071 54.6218 28.3897C54.6028 28.3994 54.583 28.4095 54.5622 28.42Z" fill="#3A2D14"/>
<path fill-rule="evenodd" clip-rule="evenodd" d="M55.5753 27.629C56.0733 27.5977 56.5024 27.976 56.5337 28.474C56.5769 29.1613 56.7249 29.8834 56.9112 30.6526C56.9649 30.8746 57.0229 31.1045 57.082 31.3385C57.2202 31.886 57.364 32.456 57.472 33.0001C57.8959 35.1357 58.2191 37.2231 58.3835 39.4351C58.4 39.658 58.4168 39.8813 58.4336 40.1051C58.5991 42.3092 58.7675 44.5517 58.7675 46.8085C58.7675 47.1372 58.7782 47.4846 58.7903 47.8553L58.7921 47.9116C58.8035 48.2609 58.8156 48.6295 58.8184 48.9982C58.8245 49.7696 58.792 50.6008 58.6103 51.3791C58.5704 51.55 58.5405 51.7791 58.5025 52.0703C58.4767 52.2688 58.447 52.4962 58.4078 52.7537C58.3648 53.0365 58.3109 53.3413 58.2371 53.6158C58.1715 53.8598 58.0595 54.2063 57.8387 54.4765C57.6744 54.6775 57.4727 54.7753 57.341 54.8241C57.203 54.8752 57.0689 54.8992 56.9628 54.912C56.7514 54.9375 56.5295 54.932 56.3514 54.9216C56.1667 54.9107 55.9846 54.8914 55.8487 54.8768L55.836 54.8755C55.7705 54.8685 55.7195 54.863 55.6771 54.8591C55.6422 54.8559 55.6274 54.8551 55.6258 54.8549C55.5296 54.8553 55.4332 54.8642 55.3312 54.8808C55.7299 55.1597 56.1018 55.4524 56.4375 55.7166C56.4571 55.732 56.4765 55.7473 56.4958 55.7625C57.6858 56.6985 57.9336 58.2686 57.9025 59.6035C57.8701 60.9883 57.5318 62.4331 57.2232 63.4753C56.8067 64.882 56.2421 66.3316 55.5737 67.6066C55.4373 67.8666 55.3257 68.1469 55.1942 68.4773C55.15 68.5884 55.1035 68.7051 55.0531 68.8286C54.8694 69.2785 54.6351 69.8104 54.286 70.2613C54.2109 70.3582 54.1276 70.4704 54.0389 70.5898C53.8418 70.8552 53.6182 71.1563 53.4002 71.4047C53.0563 71.7963 52.6205 72.1923 52.0242 72.4355C51.5622 72.624 51.0349 72.4022 50.8464 71.9402C50.658 71.4782 50.8798 70.9509 51.3418 70.7625C51.5793 70.6656 51.7962 70.4928 52.0424 70.2125C52.2142 70.0168 52.3568 69.824 52.5235 69.5987C52.6225 69.4648 52.7301 69.3194 52.8573 69.1551C53.0432 68.9149 53.2011 68.5845 53.3802 68.1457C53.4153 68.0597 53.452 67.9674 53.4902 67.8711C53.629 67.522 53.7889 67.1195 53.9734 66.7676C54.579 65.6125 55.102 64.2749 55.4907 62.9623C55.78 61.9851 56.0691 60.7154 56.096 59.5613C56.1242 58.3571 55.8632 57.5638 55.3787 57.1827C54.575 56.5505 53.838 55.9773 53.0969 55.6751C52.9356 55.6093 52.7327 55.5065 52.5642 55.3389C52.3932 55.1689 52.1366 54.7904 52.286 54.2987C52.4121 53.8839 52.7467 53.6961 52.8979 53.6263C53.082 53.5412 53.2794 53.4984 53.4562 53.4756C53.6832 53.4464 53.8914 53.3871 54.1717 53.3073C54.2276 53.2914 54.2864 53.2747 54.3487 53.2573C54.6952 53.1602 55.1328 53.048 55.632 53.048C55.7086 53.048 55.7888 53.0548 55.8434 53.0599C55.8996 53.0651 55.9635 53.0719 56.0244 53.0784L56.0408 53.0802C56.1797 53.095 56.3215 53.1098 56.4574 53.1178C56.4718 53.1186 56.4857 53.1194 56.4992 53.12C56.5438 52.9474 56.5837 52.7306 56.6215 52.4821C56.6439 52.3345 56.6669 52.162 56.6906 51.9836C56.7397 51.6137 56.7923 51.2186 56.8507 50.9682C56.983 50.4017 57.0173 49.7417 57.0116 49.0123C57.0089 48.6667 56.9976 48.3186 56.986 47.9638L56.9844 47.9141C56.9724 47.5469 56.9606 47.171 56.9606 46.8085C56.9606 44.6233 56.7974 42.4486 56.6312 40.2334C56.6146 40.0124 56.598 39.7909 56.5815 39.5689C56.4241 37.4499 56.1137 35.4379 55.6997 33.3519C55.601 32.8544 55.476 32.3595 55.3435 31.835C55.2816 31.5901 55.2182 31.3388 55.155 31.0778C54.9632 30.2855 54.7838 29.4381 54.7303 28.5874C54.699 28.0894 55.0773 27.6603 55.5753 27.629ZM53.7513 53.9892C53.7514 53.9892 53.7532 53.9901 53.7565 53.9919C53.7529 53.9902 53.7512 53.9892 53.7513 53.9892Z" fill="#3A2D14"/>
<path fill-rule="evenodd" clip-rule="evenodd" d="M54.6492 27.6571C54.905 27.6705 55.1247 27.6821 55.3291 27.6821C55.828 27.6821 56.2325 28.0865 56.2325 28.5855C56.2325 29.0845 55.828 29.489 55.3291 29.489C55.0736 29.489 54.8026 29.4747 54.5535 29.4615C54.5195 29.4597 54.4859 29.458 54.4528 29.4562C54.165 29.4414 53.8994 29.43 53.6459 29.4359C53.1228 29.4482 52.785 29.5342 52.5645 29.6931C52.1597 29.9848 51.595 29.8931 51.3033 29.4883C51.0116 29.0835 51.1033 28.5188 51.5082 28.2272C52.1762 27.7458 52.9632 27.6445 53.6035 27.6295C53.9317 27.6218 54.2575 27.6368 54.5461 27.6518C54.5811 27.6536 54.6155 27.6554 54.6492 27.6571Z" fill="#3A2D14"/>
<path fill-rule="evenodd" clip-rule="evenodd" d="M39.5448 27.8579C39.8374 27.4537 40.4022 27.3632 40.8064 27.6558C41.3454 28.0461 41.8563 28.5891 42.3249 29.1263C42.5615 29.3975 42.77 29.6459 42.9747 29.8897C43.2207 30.1827 43.461 30.469 43.7377 30.7802C44.2092 31.3104 44.6528 31.7536 45.0835 32.0615C45.5137 32.3691 45.8623 32.4921 46.1564 32.4921C46.6554 32.4921 47.0599 32.8966 47.0599 33.3956C47.0599 33.8945 46.6554 34.299 46.1564 34.299C45.3448 34.299 44.6307 33.959 44.0326 33.5314C43.4349 33.104 42.8844 32.5397 42.3875 31.9809C42.1245 31.6852 41.8303 31.3361 41.551 31.0046C41.34 30.7541 41.1375 30.5137 40.9633 30.3141C40.5061 29.79 40.1082 29.3811 39.7468 29.1194C39.3426 28.8269 39.2522 28.262 39.5448 27.8579Z" fill="#3A2D14"/>
<path fill-rule="evenodd" clip-rule="evenodd" d="M46.1788 21.1647C46.612 20.917 47.1639 21.0674 47.4115 21.5006C47.9129 22.3775 48.3135 23.2887 48.6875 24.1396C48.8101 24.4184 48.9298 24.6907 49.0492 24.9532C49.5465 26.0458 50.0676 27.041 50.841 27.9427C51.1658 28.3215 51.1221 28.8919 50.7433 29.2167C50.3645 29.5415 49.7942 29.4978 49.4694 29.119C48.5287 28.0221 47.9238 26.8423 47.4047 25.7017C47.2647 25.3941 47.1326 25.0937 47.0027 24.7984C46.6388 23.9709 46.2929 23.1844 45.8429 22.3974C45.5953 21.9643 45.7457 21.4124 46.1788 21.1647Z" fill="#3A2D14"/>
<path fill-rule="evenodd" clip-rule="evenodd" d="M54.9767 18.47C55.4756 18.47 55.8801 18.8745 55.8801 19.3734V27.1C55.8801 27.5989 55.4756 28.0034 54.9767 28.0034C54.4777 28.0034 54.0732 27.5989 54.0732 27.1V19.3734C54.0732 18.8745 54.4777 18.47 54.9767 18.47Z" fill="#3A2D14"/>
<path fill-rule="evenodd" clip-rule="evenodd" d="M48.7436 70.1233C49.2426 70.1233 49.6471 70.5278 49.6471 71.0267C49.6471 71.5573 49.5433 72.4345 49.3715 73.2494C49.2844 73.6621 49.1747 74.0842 49.0414 74.4566C48.9179 74.8014 48.7384 75.2092 48.466 75.5036C48.1271 75.8698 47.5555 75.892 47.1893 75.5531C46.823 75.2142 46.8009 74.6426 47.1398 74.2764C47.1394 74.2768 47.1394 74.2768 47.1399 74.2761C47.1434 74.2716 47.1672 74.2411 47.205 74.1681C47.2462 74.0886 47.2921 73.982 47.3403 73.8474C47.4369 73.5776 47.5267 73.2405 47.6035 72.8766C47.7592 72.1382 47.8402 71.3924 47.8402 71.0267C47.8402 70.5278 48.2447 70.1233 48.7436 70.1233Z" fill="#3A2D14"/>
<path fill-rule="evenodd" clip-rule="evenodd" d="M53.9044 71.9834C54.4033 71.9834 54.8078 72.3879 54.8078 72.8868C54.8078 72.9876 54.8242 73.1902 54.8501 73.5096C54.853 73.5461 54.8561 73.584 54.8593 73.6236C54.888 73.9801 54.9214 74.4176 54.934 74.8495C54.9463 75.272 54.9406 75.7362 54.8764 76.1348C54.8445 76.3328 54.7914 76.5593 54.6929 76.7705C54.5975 76.9749 54.413 77.2633 54.0651 77.4257C53.6129 77.6367 53.0753 77.4413 52.8643 76.9891C52.6928 76.6216 52.7898 76.1976 53.0749 75.9385C53.0807 75.9137 53.0867 75.8834 53.0925 75.8472C53.1291 75.6204 53.1392 75.2929 53.1278 74.9022C53.1167 74.5207 53.0868 74.1235 53.0582 73.7687C53.0548 73.7267 53.0514 73.6843 53.0479 73.6419C53.0245 73.3555 53.0009 73.0674 53.0009 72.8868C53.0009 72.3879 53.4054 71.9834 53.9044 71.9834Z" fill="#3A2D14"/>
<path fill-rule="evenodd" clip-rule="evenodd" d="M57.9161 71.5542C58.4151 71.5542 58.8196 71.9587 58.8196 72.4576C58.8196 73.1696 59.0518 73.8405 59.3534 74.6722C59.3617 74.6952 59.3701 74.7182 59.3785 74.7414C59.6581 75.5112 59.9956 76.4405 59.9956 77.4656C59.9956 77.9646 59.5911 78.369 59.0921 78.369C58.5932 78.369 58.1887 77.9646 58.1887 77.4656C58.1887 76.7808 57.9588 76.1265 57.6548 75.2883C57.6501 75.2754 57.6455 75.2625 57.6407 75.2495C57.357 74.4675 57.0127 73.5186 57.0127 72.4576C57.0127 71.9587 57.4172 71.5542 57.9161 71.5542Z" fill="#3A2D14"/>
<path fill-rule="evenodd" clip-rule="evenodd" d="M63.2104 20.648C63.6918 20.7792 63.9756 21.2759 63.8444 21.7573C63.5971 22.6644 63.1788 23.5861 62.7936 24.4347C62.6774 24.6906 62.5643 24.9399 62.4598 25.1802C61.9833 26.2754 61.6419 27.2627 61.6419 28.2446C61.6419 28.7436 61.2374 29.148 60.7384 29.148C60.2394 29.148 59.835 28.7436 59.835 28.2446C59.835 26.8666 60.3117 25.5883 60.8029 24.4593C60.9348 24.1562 61.066 23.8668 61.1928 23.5869C61.5627 22.7707 61.8955 22.0363 62.1011 21.282C62.2324 20.8006 62.729 20.5168 63.2104 20.648Z" fill="#3A2D14"/>
<path fill-rule="evenodd" clip-rule="evenodd" d="M69.0755 28.5523C69.5378 28.7401 69.7603 29.2671 69.5724 29.7293C69.0539 31.0057 68.1632 31.9381 67.3002 32.7138C66.996 32.9871 66.7065 33.233 66.4313 33.4667C65.8775 33.9371 65.382 34.358 64.9428 34.8534C64.6118 35.2268 64.0408 35.2612 63.6674 34.9302C63.2941 34.5992 63.2597 34.0282 63.5907 33.6548C64.116 33.0622 64.7742 32.5021 65.3789 31.9875C65.6305 31.7734 65.8728 31.5672 66.0924 31.3698C66.8932 30.6501 67.5363 29.9405 67.8984 29.0492C68.0863 28.587 68.6132 28.3645 69.0755 28.5523Z" fill="#3A2D14"/>
<path d="M56.3003 32.02L54.5977 27.8154L48.2474 30.5064L45.6705 35.5519L43.9219 44.9701V55.9021L45.6705 63.6385L48.2474 69.5249L51.6986 71.5992L54.5977 67.8431L56.3003 63.6385V57.9763L54.5977 55.9021L52.8951 53.6036H56.3003L57.6808 51.4732V44.9701V39.308L56.3003 32.02Z" fill="#3A2D14"/>
<path fill-rule="evenodd" clip-rule="evenodd" d="M55.0906 26.6252L57.1714 31.7638L58.5844 39.223V51.7402L56.7915 54.5069H54.6887L55.3104 55.3461L57.2039 57.6529V63.8143L55.3887 68.2969L51.9226 72.7876L47.5354 70.1508L44.8084 63.9216L43.0186 56.0027V44.8868L44.8063 35.2577L47.5924 29.8026L55.0906 26.6252ZM48.9026 31.2098L46.5349 35.8457L44.8254 45.0532V55.8011L46.5328 63.355L48.9597 68.8987L51.4749 70.4104L53.8069 67.389L55.397 63.4624V58.2995L53.8852 56.4577L51.1017 52.7H55.8093L56.7775 51.2059V39.3926L55.4294 32.276L54.105 29.0053L48.9026 31.2098Z" fill="#3A2D14"/>
<path fill-rule="evenodd" clip-rule="evenodd" d="M52.6297 83.0183C53.1223 82.9388 53.5861 83.2736 53.6656 83.7662C53.7077 84.0269 53.8801 84.3614 54.1923 84.819C54.2652 84.9259 54.3512 85.0463 54.4427 85.1744C54.6785 85.5047 54.9511 85.8865 55.1323 86.2217C55.7742 87.4095 56.2723 88.7142 56.3974 90.1867C56.4332 90.6087 56.4833 91.0805 56.5363 91.58C56.6337 92.4973 56.7409 93.508 56.7882 94.4754C56.8623 95.9921 56.8071 97.6063 56.3134 98.9966C56.1464 99.4668 55.6299 99.7126 55.1597 99.5456C54.6895 99.3787 54.4437 98.8621 54.6107 98.3919C54.9836 97.3417 55.0543 96.0149 54.9834 94.5635C54.9381 93.6357 54.8422 92.7382 54.7488 91.8632C54.6937 91.3481 54.6395 90.8407 54.597 90.3396C54.4992 89.1885 54.1079 88.1267 53.5427 87.0808C53.4165 86.8472 53.2552 86.622 53.056 86.3439C52.9485 86.1937 52.8298 86.0281 52.6997 85.8374C52.3799 85.3686 51.9933 84.7451 51.8818 84.0541C51.8023 83.5616 52.1371 83.0978 52.6297 83.0183Z" fill="#3A2D14"/>
<path fill-rule="evenodd" clip-rule="evenodd" d="M87.5285 83.3712C88.0229 83.4387 88.3689 83.8942 88.3014 84.3886C88.116 85.7463 87.4129 86.9091 86.8163 87.896C86.771 87.9708 86.7264 88.0446 86.6827 88.1174C86.0241 89.2135 85.5182 90.1439 85.462 91.2206C85.4201 92.0239 85.3919 92.9555 85.495 93.8204C85.6008 94.7075 85.8295 95.3793 86.1842 95.7788C86.5155 96.1519 86.4816 96.723 86.1084 97.0542C85.7353 97.3855 85.1643 97.3516 84.833 96.9784C84.1088 96.1627 83.8209 95.0413 83.7008 94.0343C83.5781 93.005 83.615 91.9417 83.6576 91.1264C83.7401 89.5465 84.4883 88.2612 85.1338 87.1868C85.1614 87.141 85.1888 87.0955 85.2159 87.0504C85.8613 85.9774 86.3781 85.1183 86.5111 84.1441C86.5787 83.6497 87.0342 83.3037 87.5285 83.3712Z" fill="#3A2D14"/>
<path fill-rule="evenodd" clip-rule="evenodd" d="M85.2473 90.3613C85.4227 90.8284 85.1862 91.3493 84.7191 91.5246C83.6797 91.9149 82.4043 91.9279 81.5021 91.9371C81.4578 91.9376 81.4144 91.938 81.372 91.9385C79.9152 91.9549 78.4521 91.9494 76.9972 91.9439C76.2736 91.9412 75.552 91.9385 74.8342 91.9385H56.0949C55.5959 91.9385 55.1914 91.534 55.1914 91.0351C55.1914 90.5361 55.5959 90.1316 56.0949 90.1316H74.8342C75.5667 90.1316 76.2956 90.1344 77.0226 90.1371C78.469 90.1425 79.9078 90.148 81.3516 90.1317C82.3617 90.1203 83.3537 90.1072 84.084 89.833C84.5511 89.6577 85.072 89.8942 85.2473 90.3613Z" fill="#3A2D14"/>
<path fill-rule="evenodd" clip-rule="evenodd" d="M67.4309 84.0465C67.943 84.5144 68.3406 85.1483 68.6437 85.6954C68.8327 86.0364 69.0061 86.3852 69.1617 86.7056C69.4533 86.9422 69.711 87.2214 69.9356 87.5344C70.1683 87.8589 70.3638 88.2164 70.5277 88.596C70.6105 88.2114 70.728 87.8325 70.8833 87.4719C70.7937 87.4981 70.6963 87.5113 70.5924 87.5073C70.3236 87.4969 70.1416 87.3731 70.0766 87.3251C69.9967 87.266 69.9415 87.2057 69.9122 87.1718C69.8119 87.0553 69.7366 86.9138 69.7002 86.8447C69.6052 86.6642 69.4914 86.4115 69.3856 86.1707C69.3258 86.0347 69.2745 85.9161 69.225 85.8016C69.1733 85.6824 69.1237 85.5677 69.0685 85.4426C69.0204 85.3335 68.9782 85.2397 68.943 85.1651C68.9255 85.1279 68.9111 85.0984 68.8997 85.076C68.8894 85.0558 68.8844 85.047 68.884 85.0463C68.8839 85.0462 68.884 85.0463 68.8843 85.0468C68.5673 84.5165 68.0623 84.1858 67.4309 84.0465ZM74.7817 85.0329C74.9335 84.9795 75.0853 84.9305 75.2365 84.8864C75.4798 84.8155 75.6387 84.8263 75.7475 84.8553C75.8598 84.8852 75.9832 84.952 76.1261 85.0879C76.4432 85.3898 76.7275 85.8989 77.071 86.6024C78.5598 89.6513 79.0649 94.0578 77.8626 97.2693C77.5494 98.1059 77.111 99.1483 76.569 100.054C76.5078 100.157 76.4463 100.256 76.3846 100.351C76.8795 99.4797 77.2765 98.46 77.3405 98.2896C78.2923 95.7558 78.4023 92.209 77.759 89.574C77.5617 88.766 77.2191 87.5693 76.6481 86.6172C76.3615 86.1393 75.9798 85.6584 75.4694 85.3358C75.2562 85.201 75.026 85.0976 74.7817 85.0329ZM74.7164 101.933C74.6595 101.943 74.6003 101.949 74.539 101.95C74.274 101.957 74.0444 101.881 73.854 101.761C73.8059 101.878 73.7469 101.992 73.6747 102.1C73.6473 102.141 73.6181 102.181 73.5872 102.22C73.9853 102.161 74.3618 102.07 74.7164 101.933ZM70.9399 102.285C70.7108 102.084 70.5402 101.849 70.4107 101.617C70.3079 101.432 70.2227 101.233 70.1507 101.03C69.4859 100.722 68.9348 100.136 68.5261 99.6068C68.5138 99.5909 68.5015 99.5749 68.4893 99.5589C68.5046 99.6033 68.5201 99.6476 68.5355 99.6917C68.5748 99.8036 68.6571 99.985 68.7547 100.2C68.8021 100.304 68.853 100.416 68.9043 100.532C68.9622 100.663 69.0488 100.86 69.0895 101.012C69.0984 101.045 69.127 101.152 69.1276 101.283C69.1278 101.342 69.1244 101.502 69.0409 101.68C68.9617 101.85 68.8127 102.024 68.5955 102.124C68.9284 102.199 69.2751 102.24 69.6359 102.244C70.0502 102.249 70.4346 102.265 70.8088 102.279C70.8526 102.281 70.8963 102.283 70.9399 102.285ZM67.1225 101.506C67.0932 101.48 67.0628 101.453 67.031 101.426C66.9383 101.345 66.8341 101.254 66.711 101.14C65.0437 99.6062 64.0299 97.2666 63.4762 94.8832C63.0217 92.9271 62.8587 90.8633 62.9306 89.0277C62.6987 89.39 62.552 89.8616 62.5328 90.4888C62.4445 93.376 63.6138 96.8327 65.0761 99.2799C65.6636 100.263 66.3444 101.008 67.1225 101.506ZM64.828 87.864C64.8223 87.911 64.8172 87.9565 64.8128 88.0002C64.6168 89.9131 64.7252 92.275 65.2362 94.4743C65.3128 94.8042 65.3979 95.1278 65.4915 95.4437C65.0841 93.4532 64.8416 91.3959 64.8821 89.4822C64.8884 89.185 64.9631 88.4614 65.1777 87.8766C65.188 87.8485 65.1996 87.8179 65.2127 87.7854C65.0819 87.808 64.9534 87.8341 64.828 87.864ZM69.8967 92.2897C70.1049 93.132 70.2423 94.0295 70.3725 94.8796C70.3947 95.0249 70.4167 95.1688 70.4389 95.3107C70.4454 95.332 70.4519 95.3532 70.4584 95.3745C70.8323 96.5965 71.2201 97.8638 71.5242 99.14C71.5808 99.2394 71.6403 99.3362 71.7032 99.4306C71.7949 99.5684 71.9069 99.7694 71.9451 100.013C71.9689 100.165 71.9637 100.355 71.8966 100.542C71.9254 100.613 71.956 100.678 71.9892 100.737C72.0606 100.866 72.1206 100.922 72.1595 100.948C72.1721 100.956 72.1894 100.966 72.2147 100.975C72.2278 100.922 72.2395 100.857 72.2478 100.778C72.2932 100.353 72.2156 99.807 72.1121 99.4865C71.9618 99.021 71.791 98.5533 71.6167 98.076C71.1658 96.8412 70.6913 95.5417 70.4866 94.0472C70.4108 93.4942 70.378 92.9309 70.3657 92.3749C70.2172 92.3874 70.0862 92.3613 69.987 92.3267C69.955 92.3156 69.9249 92.3031 69.8967 92.2897ZM66.9185 89.3428C66.8602 89.2389 66.8007 89.1403 66.74 89.0475C66.7388 89.0553 66.7375 89.0631 66.7362 89.071C66.7041 89.2732 66.691 89.4392 66.6888 89.5121C66.7492 89.4527 66.8249 89.3928 66.9185 89.3428ZM66.9371 88.3616C66.9372 88.3616 66.9364 88.3628 66.9349 88.3648C66.9363 88.3626 66.9371 88.3615 66.9371 88.3616ZM66.2606 88.4639C66.2588 88.4625 66.2578 88.4617 66.2578 88.4617C66.2578 88.4616 66.2588 88.4623 66.2606 88.4639ZM66.6198 85.8564C66.6089 85.8565 66.5981 85.8567 66.5872 85.8569C66.1798 85.8637 65.7395 85.8885 65.2894 85.9468C65.3243 85.86 65.3612 85.7763 65.4001 85.6968C65.5718 85.3453 65.7211 85.203 65.7926 85.163C65.8112 85.1525 65.8165 85.1529 65.8207 85.1532C65.8211 85.1532 65.8215 85.1532 65.8218 85.1532C65.8321 85.1537 65.8915 85.1584 66.0095 85.2267C66.1916 85.332 66.3968 85.5436 66.6198 85.8564ZM63.2346 86.5065C63.1164 86.5612 63.0001 86.6203 62.8862 86.6842C62.7481 86.7616 62.6145 86.8456 62.4859 86.9362C62.7371 86.2256 63.1207 85.6091 63.6911 85.0878C63.4914 85.5397 63.3427 86.0377 63.2346 86.5065ZM60.722 90.9374C60.4419 90.784 60.252 90.4864 60.252 90.1445C60.252 87.7985 60.595 85.3607 62.6228 83.6205C63.6271 82.7586 65.1086 82.2001 66.5399 82.1648C67.985 82.1292 69.5477 82.6353 70.4351 84.1195C70.5225 84.2657 70.6315 84.5086 70.7219 84.7138C70.7652 84.8121 70.8201 84.9384 70.8756 85.0664C72.0395 84.2475 73.3721 83.5479 74.7308 83.1517C75.243 83.0024 75.7405 82.9836 76.2125 83.1093C76.6808 83.234 77.0623 83.4845 77.3718 83.7791C77.9592 84.3382 78.3691 85.1428 78.6947 85.8096C80.3556 89.211 80.9644 94.1376 79.5548 97.9028C79.2261 98.7809 78.7432 99.9396 78.1197 100.982C77.5169 101.99 76.6896 103.05 75.6074 103.521C74.5829 103.966 73.5052 104.093 72.494 104.116C71.8942 104.13 71.2388 104.105 70.631 104.082C70.2673 104.068 69.9207 104.055 69.6133 104.051C66.9328 104.017 64.9108 102.526 63.5251 100.207C62.0207 97.6892 60.7577 94.1379 60.722 90.9374ZM68.1476 93.9504C68.1923 94.1014 68.236 94.2515 68.2793 94.4004C68.346 94.6295 68.4117 94.8554 68.4786 95.0767C68.543 95.2896 68.6077 95.5017 68.6724 95.7132C68.7017 95.8975 68.7324 96.0844 68.7651 96.274C68.7837 96.3816 68.8029 96.4898 68.823 96.5985C68.4522 95.7649 68.2475 94.8889 68.1476 93.9504ZM72.2418 93.5154C72.245 93.2114 72.2499 92.9095 72.2547 92.6111C72.2626 92.1171 72.2704 91.6327 72.2704 91.1638C72.2704 91.0661 72.3044 89.9178 72.4354 88.8586C72.4614 88.6492 72.4925 88.4298 72.5309 88.2146C72.2995 88.7648 72.1797 89.4162 72.1797 90.0653C72.1797 90.3727 72.1762 90.6723 72.1729 90.9659C72.1627 91.8561 72.1531 92.6907 72.2418 93.5154ZM75.4923 88.3567C75.5683 88.7539 75.6005 89.1383 75.6209 89.4021C75.7403 90.9492 75.8168 92.518 75.8168 94.083C75.8168 94.2611 75.8221 94.4754 75.8277 94.7053C75.8374 95.0992 75.8481 95.5388 75.8356 95.9212C75.814 96.5764 75.7279 97.3051 75.4229 97.9922C75.2369 98.4112 74.7712 98.6188 74.343 98.4927C74.3541 98.5662 74.3658 98.6397 74.3783 98.7132C74.4481 99.123 74.5339 99.4736 74.6339 99.7559C74.6883 99.6716 74.7465 99.5758 74.8076 99.4685C75.2335 98.7217 75.5942 97.8003 75.649 97.6543C76.4585 95.4992 76.5711 92.3269 76.0037 90.0025C75.8792 89.4928 75.7114 88.9017 75.4923 88.3567ZM74.275 100.202C74.275 100.202 74.2776 100.2 74.2827 100.197C74.2776 100.201 74.275 100.202 74.275 100.202ZM74.4772 87.8964C74.4773 87.8966 74.4756 87.8999 74.4721 87.9056C74.4753 87.899 74.4771 87.8962 74.4772 87.8964Z" fill="#3A2D14"/>
<path fill-rule="evenodd" clip-rule="evenodd" d="M69.8285 102.489C70.0322 102.596 70.2945 102.732 70.5401 102.824C71.0072 102.999 71.5281 102.763 71.7034 102.296C71.8788 101.829 71.6423 101.308 71.1752 101.133C71.0321 101.079 70.9047 101.012 70.7298 100.921C70.6504 100.879 70.5612 100.832 70.4562 100.779C70.1707 100.635 69.7731 100.45 69.3174 100.399C69.316 100.399 69.3144 100.399 69.3128 100.398C69.2555 100.392 69.1011 100.374 68.9443 100.4C68.8965 100.408 68.7962 100.428 68.6823 100.483C68.5751 100.536 68.3445 100.676 68.2291 100.978C68.1051 101.303 68.1993 101.585 68.2756 101.729C68.3469 101.864 68.4351 101.949 68.4743 101.984C68.5992 102.097 68.7445 102.163 68.7768 102.177C68.7786 102.178 68.78 102.179 68.781 102.179C68.8433 102.207 68.91 102.234 68.9691 102.257C69.1865 102.339 69.5064 102.442 69.6045 102.465C69.6796 102.483 69.7547 102.49 69.8285 102.489ZM69.5327 100.536C69.5109 100.526 69.5157 100.526 69.5365 100.538C69.5351 100.537 69.5338 100.536 69.5327 100.536ZM69.1 102.193C69.091 102.192 69.0859 102.192 69.0856 102.192C69.0853 102.192 69.0898 102.192 69.1 102.193Z" fill="#3A2D14"/>
<path d="M61.6572 92.0256V87.3578L65.271 84.0452H68.4331L70.9929 86.3038L74.9078 84.0452L78.0699 86.3038L79.1239 92.0256L78.0699 98.3498L73.5526 102.415H66.4756L63.7653 98.3498L61.6572 92.0256Z" fill="#3A2D14"/>
<path fill-rule="evenodd" clip-rule="evenodd" d="M74.96 82.9722L78.8923 85.781L80.0412 92.0179L78.9092 98.81L73.8994 103.319H65.9922L62.9466 98.7503L60.7539 92.1723V86.9604L64.9197 83.1418H68.7748L71.1039 85.1968L74.96 82.9722ZM65.6226 84.9487L62.5608 87.7553V91.8791L64.5842 97.9493L66.9592 101.512H73.2061L77.2308 97.8896L78.2068 92.0335L77.2477 86.8267L74.8558 85.1183L70.8821 87.4108L68.0916 84.9487H65.6226Z" fill="#3A2D14"/>
</svg>
