<svg width="681" height="609" viewBox="0 0 681 609" fill="none" xmlns="http://www.w3.org/2000/svg">
<path d="M625.879 296.439L607.667 318.383L612.051 334.588L639.032 342.015L681.527 337.289L722.335 289.011V275.507L691.982 269.768L625.879 296.439Z" fill="#EFEBD2"/>
<path fill-rule="evenodd" clip-rule="evenodd" d="M677.579 271.606C690.21 266.915 703.599 265.338 717.175 269.374C720.876 270.475 723.379 272.828 724.735 275.869C726.012 278.732 726.162 281.934 725.878 284.812C725.311 290.558 722.862 296.505 721.021 299.853C717.313 306.595 712.068 311.718 706.988 316.307C706.045 317.158 705.113 317.988 704.195 318.805C700.034 322.507 696.164 325.952 692.903 330.027C687.411 336.893 682.237 341.006 676.021 343.256C669.975 345.444 663.313 345.715 655.335 345.715C655.041 345.715 654.734 345.716 654.415 345.716C648.151 345.722 637.137 345.733 627.158 343.586C621.91 342.457 616.64 340.672 612.409 337.751C608.086 334.767 604.763 330.519 603.866 324.692C603.184 320.254 603.854 316.286 605.669 312.925C606.72 310.978 608.107 309.324 609.703 307.94C615.181 295.639 627.277 288.546 639.667 283.671C646.299 281.061 653.288 278.985 659.82 277.099C660.529 276.894 661.231 276.692 661.927 276.492C667.719 274.825 673.034 273.295 677.579 271.606ZM616.262 312.931C616.568 312.73 616.887 312.536 617.22 312.351C618.969 311.38 619.699 309.284 619.009 307.467C623.819 300.194 632.285 295.123 642.579 291.073C648.827 288.614 655.492 286.628 662.027 284.741C662.733 284.537 663.439 284.334 664.143 284.131C669.876 282.482 675.501 280.863 680.349 279.063C691.788 274.814 703.373 273.569 714.909 276.998C716.37 277.433 717.055 278.177 717.471 279.11C717.967 280.221 718.176 281.87 717.963 284.032C717.535 288.367 715.569 293.261 714.052 296.02C711.025 301.522 706.642 305.901 701.657 310.404C700.817 311.163 699.954 311.929 699.078 312.708C694.896 316.423 690.415 320.405 686.693 325.058C681.784 331.194 677.728 334.179 673.314 335.777C668.73 337.436 663.362 337.762 655.335 337.762C655.079 337.762 654.815 337.762 654.544 337.762C648.207 337.766 637.95 337.772 628.831 335.81C624.081 334.788 619.949 333.291 616.928 331.205C613.999 329.184 612.223 326.702 611.728 323.482C611.282 320.585 611.755 318.394 612.667 316.705C612.927 316.223 613.235 315.761 613.588 315.321C614.769 315.004 615.785 314.149 616.262 312.931Z" fill="#3A2D14"/>
<path d="M64.8172 215.085L110.22 190.892L161.589 171.008L213.952 161.728L309.729 190.892L398.879 250.878L557.956 288.327L639.151 320.805L674.943 370.848L676.601 392.058L609.987 416.583L557.956 432.822L340.551 416.583H248.087L110.22 392.058L46.9211 362.894L6.48901 330.416V288.327L24.0538 250.878L64.8172 215.085Z" fill="#EFEBD2"/>
<path d="M237.151 93.1263L230.854 158.746V164.711L349.167 215.085V152.449V109.034L338.894 56.6712L325.969 16.902L314.038 3.31413H292.828L267.309 25.1872L249.082 56.6712L237.151 93.1263Z" fill="#EFEBD2"/>
<path d="M455.881 319.765L424.773 315.503L418.763 339.763L422.298 341.73L451.993 345.992L455.881 319.765Z" fill="#97C3DC"/>
<path d="M506.256 324.975L476.814 320.805L471.126 344.538L474.472 346.463L502.575 350.632L506.256 324.975Z" fill="#97C3DC"/>
<path fill-rule="evenodd" clip-rule="evenodd" d="M302.888 7.95385C288.201 7.95385 274.38 19.8205 267.187 33.0116C264.945 37.1238 262.087 41.5459 259.251 45.9349C257.734 48.2816 256.224 50.6188 254.816 52.8942C250.625 59.6722 247.126 66.2204 245.622 72.4631C241.975 87.5943 240.092 102.2 238.203 117.893C237.857 120.765 237.724 123.662 237.583 126.735C237.527 127.955 237.469 129.203 237.397 130.488C237.15 134.866 236.729 139.512 235.455 143.996C234.929 145.845 235.188 147.796 235.593 150.849L235.594 150.853C235.956 153.578 236.458 157.364 234.946 161.14C234.129 163.179 231.814 164.17 229.776 163.353C227.737 162.537 226.746 160.222 227.562 158.183C228.199 156.592 228.095 154.804 227.709 151.896C227.685 151.715 227.659 151.528 227.633 151.336C227.286 148.79 226.812 145.311 227.804 141.823C228.827 138.219 229.216 134.297 229.456 130.041C229.517 128.944 229.57 127.809 229.623 126.652C229.769 123.473 229.923 120.128 230.306 116.942C232.195 101.253 234.122 86.231 237.889 70.5994C239.709 63.048 243.796 55.5923 248.052 48.7109C249.658 46.1129 251.266 43.6283 252.821 41.2241C255.534 37.0319 258.089 33.0838 260.204 29.2042C268.111 14.7025 284.104 0 302.888 0C308.993 0 314.116 1.30943 318.42 3.73853C322.713 6.16135 325.971 9.57301 328.539 13.4553C333.133 20.3992 335.775 29.3117 338.202 37.5011C338.422 38.2441 338.641 38.9812 338.859 39.7103C345.262 61.1253 349.497 85.0038 351.664 107.105C354.242 133.38 353.914 159.728 353.588 185.919C353.48 194.667 353.371 203.398 353.371 212.103C353.371 214.299 351.591 216.079 349.394 216.079C347.198 216.079 345.417 214.299 345.417 212.103C345.417 203.175 345.527 194.305 345.637 185.475C345.96 159.401 346.279 133.68 343.749 107.882C341.62 86.1827 337.467 62.8208 331.238 41.9888C331.041 41.3274 330.845 40.6699 330.651 40.0166C328.121 31.513 325.809 23.7442 321.906 17.8441C319.867 14.7627 317.475 12.338 314.511 10.6653C311.558 8.99897 307.818 7.95385 302.888 7.95385Z" fill="#3A2D14"/>
<path fill-rule="evenodd" clip-rule="evenodd" d="M380.238 379.717C382.91 379.753 385.547 379.789 388.132 379.789C413.483 379.789 442.824 382.291 467.498 390.059C486.876 396.16 505.538 402.876 518.642 420.834C522.057 425.514 525.277 430.118 528.458 434.666C534.516 443.328 540.431 451.785 547.276 460.17C570.976 489.202 594.544 522.168 611.893 555.847C612.001 556.055 612.11 556.266 612.221 556.481C614.698 561.284 618.078 567.834 619.706 574.56C621.424 581.653 621.384 589.768 615.554 596.431C610.937 601.707 605.454 603.736 599.908 604.438C596.229 604.904 592.174 604.792 588.429 604.689C586.912 604.647 585.445 604.607 584.075 604.607C559.841 604.607 532.346 593.487 512.165 583.457C485.051 569.981 460.688 551.826 437.378 532.594C427.941 524.808 418.74 516.902 409.599 509.048C395.989 497.354 382.512 485.775 368.589 474.876C348.488 459.141 325.788 439.357 314.728 414.326C314.625 414.092 314.319 413.577 313.672 412.72C313.06 411.91 312.283 410.977 311.384 409.929C310.968 409.445 310.524 408.934 310.065 408.405C309.71 407.997 309.346 407.578 308.979 407.152C308.755 406.95 308.551 406.719 308.372 406.461C308.352 406.431 308.331 406.402 308.31 406.373C308.085 406.109 307.859 405.844 307.636 405.578C307.386 405.316 307.097 405.034 306.753 404.697C306.486 404.436 306.186 404.142 305.845 403.8C304.869 402.821 303.15 401.064 302.592 398.674C302.54 398.45 302.499 398.227 302.468 398.006C302.151 397.235 301.9 396.387 301.818 395.501C301.648 393.672 302.228 391.565 304.188 390.168C305.265 389.402 306.509 389.043 307.715 388.891C309.503 387.589 311.779 386.26 314.575 384.858C318.356 382.961 322.254 382.64 325.512 382.53C326.311 382.503 327.055 382.487 327.758 382.472C330.155 382.42 332.054 382.38 333.897 381.948C337.324 381.146 340.851 381.047 344.008 381.016C344.486 381.011 344.955 381.008 345.414 381.005C348.129 380.986 350.546 380.969 352.87 380.664C361.958 379.468 371.295 379.595 380.238 379.717ZM311.13 396.351C311.676 396.087 312.153 395.701 312.525 395.228C313.758 394.345 315.558 393.263 318.141 391.967C320.306 390.881 322.744 390.582 325.78 390.479C326.31 390.461 326.876 390.451 327.469 390.439C329.977 390.391 332.969 390.334 335.71 389.693C338.197 389.111 340.941 389 344.087 388.969C344.511 388.965 344.945 388.963 345.387 388.96C348.074 388.943 351.051 388.925 353.908 388.549C362.369 387.436 370.912 387.55 379.737 387.668C382.506 387.705 385.302 387.743 388.132 387.743C413.099 387.743 441.53 390.223 465.11 397.646C484.522 403.757 500.799 409.876 512.217 425.523C515.431 429.927 518.559 434.397 521.7 438.887C527.873 447.708 534.096 456.602 541.115 465.2C564.617 493.991 587.818 526.481 604.823 559.489L605.021 559.874C607.587 564.853 610.578 570.656 611.976 576.432C613.394 582.291 612.982 587.291 609.568 591.193C606.55 594.642 603.062 596.021 598.909 596.547C595.857 596.934 592.812 596.847 589.378 596.75C587.717 596.703 585.964 596.653 584.075 596.653C561.815 596.653 535.742 586.293 515.705 576.335C489.401 563.261 465.588 545.557 442.44 526.459C433.286 518.906 424.173 511.079 415.049 503.241C401.28 491.415 387.486 479.568 373.492 468.613C353.387 452.875 332.182 434.147 322.003 411.111C321.514 410.005 320.748 408.892 320.017 407.924C319.251 406.91 318.342 405.824 317.421 404.75C316.93 404.178 316.436 403.61 315.946 403.046C315.452 402.476 314.961 401.911 314.482 401.352C314.22 401.019 313.941 400.694 313.658 400.382C313.066 399.678 312.499 398.983 311.973 398.303C311.519 397.714 311.125 397.174 310.796 396.684C310.823 396.655 310.852 396.625 310.882 396.593C310.958 396.515 311.041 396.435 311.13 396.351Z" fill="#3A2D14"/>
<path d="M282.223 436.135L299.787 425.53H399.873H425.723L436.328 446.74V470.602L411.141 492.806L372.366 508.714H327.957L295.81 492.806L274.6 470.602V453.037L282.223 436.135Z" fill="#EFEBD2"/>
<path fill-rule="evenodd" clip-rule="evenodd" d="M299.695 425.199H425.928L436.66 446.662V470.752L411.318 493.092L372.431 509.046H327.88L295.611 493.078L274.269 470.735V452.966L281.963 435.905L299.695 425.199ZM299.879 425.862L282.482 436.366L274.931 453.108V470.469L296.01 492.535L328.035 508.383H372.301L410.964 492.521L435.997 470.452V446.819L425.518 425.862H299.879Z" fill="black"/>
<path fill-rule="evenodd" clip-rule="evenodd" d="M319.457 418.57C320.062 418.571 320.686 418.571 321.329 418.571C323.525 418.571 325.306 420.351 325.306 422.548C325.306 424.744 323.525 426.525 321.329 426.525C320.811 426.525 320.308 426.525 319.82 426.524C312.521 426.523 308.516 426.522 305.586 426.857C302.795 427.176 301.114 427.784 298.304 429.297C292.399 432.477 289.527 434.276 285.838 439.058C282.722 443.099 279.793 447.386 278.178 451.793C276.6 456.097 276.348 460.295 278.271 464.482C288.323 486.358 314.565 503.634 339.191 504.194C362.838 504.731 390.32 497.784 412.207 488.096C421.183 484.123 427.079 478.213 430.456 471.06C433.861 463.849 434.845 455.073 433.417 445.232C433.417 445.238 433.416 445.233 433.412 445.218C433.388 445.134 433.275 444.735 432.932 443.946C432.569 443.112 432.05 442.07 431.404 440.908C430.107 438.575 428.393 435.931 426.604 433.703C424.949 431.642 423.522 430.31 422.533 429.698C421.434 431.334 419.264 431.938 417.455 431.033C415.491 430.051 414.694 427.662 415.676 425.698C416.545 423.96 417.956 422.367 420.095 421.722C422.158 421.101 424.09 421.609 425.517 422.281C428.247 423.564 430.793 426.216 432.806 428.723C434.924 431.361 436.882 434.392 438.355 437.042C439.094 438.371 439.736 439.648 440.225 440.772C440.671 441.798 441.131 443.007 441.288 444.09C442.882 455.07 441.877 465.501 437.648 474.457C433.392 483.47 426.009 490.685 415.426 495.369C392.77 505.397 364.116 512.716 339.01 512.146C311.373 511.518 282.377 492.47 271.044 467.802C268.02 461.22 268.617 454.764 270.71 449.056C272.765 443.451 276.326 438.367 279.541 434.2C284.242 428.105 288.27 425.666 294.533 422.294L296.419 425.795L294.533 422.294C297.992 420.431 300.647 419.416 304.684 418.954C308.087 418.566 312.563 418.568 319.457 418.57ZM421.893 429.385C421.893 429.385 421.898 429.386 421.907 429.389C421.898 429.387 421.893 429.386 421.893 429.385Z" fill="#3A2D14"/>
<path d="M349.638 487.527L367.395 475.905L442.625 471.597L470.79 478.556L479.743 496.498V516.681L458.479 535.463L425.742 548.919L387.28 550.804H362.093L343.202 542.469L337.237 516.681L343.202 501.824L349.638 487.527Z" fill="#EFEBD2"/>
<path fill-rule="evenodd" clip-rule="evenodd" d="M406.99 467.182C408.372 467.195 409.719 467.207 411.015 467.207C420.344 467.207 431.204 467.273 441.784 468.74C452.35 470.205 462.971 473.106 471.705 479.002C477.654 483.017 481.557 487.836 483.538 493.169C485.517 498.496 485.46 504.017 484.027 509.241C481.198 519.554 472.967 528.984 463.369 534.983C446.401 545.588 424.812 553.416 404.883 555.46C404.313 555.519 403.724 555.579 403.118 555.642C395.504 556.431 385.214 557.497 375.154 557.377C364.484 557.249 353.119 555.802 345.429 550.477C333.017 541.884 331.041 528.381 333.657 515.922C336.254 503.553 343.455 491.365 350.774 483.588C354.329 479.811 359.046 477.769 363.318 476.238C364.739 475.728 366.088 475.28 367.377 474.851C370.248 473.895 372.821 473.039 375.24 471.83C380.939 468.98 387.235 467.868 393.326 467.429C397.91 467.099 402.626 467.142 406.99 467.182ZM393.898 475.363C388.299 475.766 383.175 476.755 378.797 478.944C375.844 480.421 372.408 481.565 369.308 482.598C368.144 482.985 367.028 483.357 366.002 483.725C361.927 485.186 358.753 486.716 356.566 489.04C350.102 495.907 343.697 506.815 341.441 517.556C339.205 528.207 341.132 537.829 349.957 543.938C355.53 547.797 364.748 549.298 375.249 549.423C384.828 549.538 394.684 548.518 402.352 547.725C402.938 547.664 403.512 547.605 404.071 547.548C422.693 545.638 443.128 538.255 459.154 528.238C467.544 522.994 474.19 515.035 476.356 507.137C477.421 503.254 477.391 499.464 476.082 495.939C474.775 492.419 472.073 488.846 467.255 485.594C459.943 480.658 450.676 478.002 440.692 476.618C430.724 475.236 420.375 475.161 411.015 475.161C409.563 475.161 408.116 475.148 406.673 475.135C402.383 475.096 398.129 475.058 393.898 475.363Z" fill="#3A2D14"/>
<path fill-rule="evenodd" clip-rule="evenodd" d="M311.15 432.388C315.426 430.633 319.879 431.792 323.949 435.294C329.404 439.988 331.78 447.595 331.721 454.608C331.663 461.611 329.163 469.168 323.404 473.591C318.746 477.169 312.099 478.855 306.104 478.103C299.976 477.334 293.839 473.853 291.752 466.477C290.936 463.594 291.764 460.303 292.731 457.657C293.777 454.796 295.361 451.719 297.074 448.823C299.467 444.778 302.289 440.788 304.628 437.904C306.323 435.577 308.464 433.492 311.15 432.388ZM312.222 451.081C312.223 451.08 312.228 451.099 312.234 451.143C312.223 451.105 312.221 451.083 312.222 451.081Z" fill="#3A2D14"/>
<path fill-rule="evenodd" clip-rule="evenodd" d="M372.156 486.724C377.101 487.167 380.935 490.898 383.607 496.575C385.872 501.39 385.842 507.816 384.808 513.755C383.75 519.834 381.508 526.161 378.562 531.174C377.089 533.682 375.367 535.985 373.42 537.768C371.493 539.533 369.111 541 366.346 541.357C360.186 542.154 355.588 537.403 352.461 530.322C351.838 528.91 351.676 527.159 351.639 525.692C351.599 524.077 351.705 522.207 351.93 520.235C352.19 517.955 352.621 515.445 353.217 512.912C353.088 510.139 353.446 507.338 354.119 504.717C355.307 500.092 357.577 495.626 360.504 492.305C363.34 489.087 367.411 486.299 372.156 486.724Z" fill="#3A2D14"/>
<path d="M60.3702 224.465C58.4042 228.93 58.839 233.547 60.783 238.443C67.1814 254.557 85.8287 264.066 100.009 272.065C113.326 279.577 127.326 283.035 142.224 285.888C150.201 287.415 157.943 287.333 166.56 287.333C174.912 283.024 174.503 281.915 177.06 277.015C180.918 269.622 183.028 262.948 174.912 259.083C160.049 252.005 144.813 241.854 132.511 230.971C123.137 222.68 110.515 197.608 95.8062 200.898C84.3288 203.465 68.0398 214.025 60.3702 224.465Z" fill="#97C2DC"/>
<path fill-rule="evenodd" clip-rule="evenodd" d="M128.013 219.85C130.783 223.364 133.115 226.196 135.146 227.992C147.176 238.635 162.102 248.578 176.622 255.492C179.104 256.674 181.114 258.219 182.492 260.223C183.893 262.261 184.45 264.5 184.453 266.72C184.46 270.878 182.502 275.183 180.586 278.855C180.29 279.422 180.035 279.939 179.786 280.444L179.734 280.551C179.508 281.009 179.274 281.486 179.037 281.937C178.508 282.945 177.887 283.983 176.964 285.028C175.168 287.063 172.584 288.7 168.384 290.867L167.526 291.309H166.56C166.103 291.309 165.647 291.31 165.192 291.31C157.171 291.315 149.446 291.32 141.476 289.794C126.481 286.922 111.956 283.37 98.0552 275.529C97.1059 274.993 96.128 274.447 95.1281 273.888C88.7927 270.345 81.5715 266.308 75.1015 261.486C67.5921 255.89 60.6738 248.944 57.0869 239.91C55.3489 235.533 54.551 230.992 55.5589 226.43C55.3876 225.458 55.5758 224.421 56.1666 223.535C56.4082 223.173 56.6583 222.812 56.9163 222.453C58.6463 218.751 61.5951 215.384 65.7286 212.248C66.2847 211.826 66.9161 211.573 67.5613 211.48C69.7688 209.678 72.0991 207.974 74.4703 206.41C81.1767 201.985 88.5701 198.441 94.9382 197.017C99.9004 195.907 104.489 197.267 108.459 199.623C112.374 201.947 115.942 205.384 119.123 208.94C121.814 211.947 124.384 215.225 126.731 218.217C127.166 218.773 127.594 219.318 128.013 219.85ZM63.8488 226.452C67.336 221.839 72.7972 217.042 78.8505 213.049C85.0754 208.942 91.5651 205.922 96.6745 204.779C99.0666 204.244 101.571 204.784 104.398 206.462C107.279 208.173 110.21 210.906 113.195 214.243C115.698 217.041 118.084 220.082 120.434 223.078C120.879 223.645 121.323 224.211 121.766 224.773C124.459 228.189 127.22 231.601 129.876 233.95C142.449 245.072 157.995 255.432 173.202 262.674C174.779 263.424 175.548 264.163 175.937 264.729C176.302 265.26 176.498 265.876 176.5 266.732C176.503 268.725 175.476 271.454 173.534 275.175C173.191 275.833 172.9 276.423 172.649 276.933L172.612 277.009C172.371 277.498 172.181 277.885 171.994 278.24C171.62 278.953 171.341 279.38 171.003 279.763C170.328 280.527 169.083 281.505 165.584 283.356C165.531 283.356 165.478 283.356 165.425 283.356C157.199 283.359 150.176 283.361 142.972 281.982C128.172 279.148 114.696 275.784 101.963 268.601C100.971 268.041 99.9654 267.479 98.9509 266.911C92.588 263.351 85.8721 259.593 79.8544 255.108C72.8954 249.922 67.2909 244.056 64.4793 236.975C62.8508 232.874 62.6262 229.527 63.8488 226.452Z" fill="#3A2D14"/>
<path d="M214.229 301.541C214.621 301.84 215.392 302.195 216.66 302.512C225.281 304.667 227.061 304.307 235.06 308.116C244.989 312.844 245.093 313.856 246.454 302.512C246.967 298.236 253.805 285.344 249.162 282.152C245.197 279.426 219.182 268.702 219.182 276.548C219.182 282.351 217.597 282.152 216.66 291.31C216.092 296.866 214.824 298.337 214.336 300.868C214.294 301.084 214.259 301.307 214.229 301.541Z" fill="#97C3DC"/>
<path fill-rule="evenodd" clip-rule="evenodd" d="M244.353 275.36C247.346 276.624 250.056 277.94 251.415 278.875C254.169 280.768 254.742 283.824 254.747 286.07C254.752 288.37 254.188 290.852 253.564 293.023C253.033 294.873 252.38 296.754 251.819 298.368C251.711 298.68 251.606 298.982 251.507 299.271C250.819 301.267 250.469 302.429 250.403 302.986C250.073 305.728 249.785 308.078 249.354 309.802C248.987 311.274 248.156 313.951 245.445 315.034C244.159 315.548 242.918 315.494 241.979 315.328C241.053 315.165 240.146 314.843 239.335 314.512C238.207 314.052 236.805 313.373 235.242 312.617C234.633 312.322 234 312.016 233.35 311.706C227.914 309.118 225.838 308.665 221.692 307.759C220.317 307.459 218.714 307.109 216.685 306.615C216.663 306.609 216.64 306.604 216.618 306.598C216.472 306.563 216.325 306.526 216.175 306.489C215.58 306.845 214.883 307.049 214.139 307.049C211.943 307.049 210.162 305.269 210.162 303.073C210.162 302.879 210.165 302.689 210.171 302.503C209.954 301.886 209.825 301.083 210.039 300.163C210.195 299.491 210.488 298.946 210.836 298.513C211.027 297.881 211.236 297.287 211.416 296.778C211.519 296.485 211.613 296.219 211.687 295.991C212.055 294.863 212.451 293.383 212.704 290.905C213.203 286.026 213.893 283.55 214.445 281.591L214.461 281.534C214.922 279.9 215.206 278.896 215.206 276.548C215.206 274.238 216.283 272.258 218.19 271.058C219.804 270.043 221.687 269.788 223.221 269.754C226.357 269.685 230.216 270.523 233.799 271.568C237.477 272.64 241.248 274.048 244.353 275.36ZM219.534 299.116C219.404 299.006 219.271 298.899 219.138 298.795C219.174 298.687 219.211 298.574 219.25 298.455C219.78 296.826 220.302 294.792 220.617 291.714C221.051 287.471 221.616 285.466 222.089 283.792L222.1 283.75C222.59 282.015 223.038 280.412 223.138 277.716C223.218 277.712 223.304 277.708 223.397 277.706C225.263 277.665 228.156 278.207 231.572 279.203C234.893 280.172 238.369 281.466 241.257 282.686C244.007 283.848 245.941 284.825 246.725 285.309C246.756 285.438 246.792 285.679 246.793 286.087C246.796 287.236 246.489 288.843 245.919 290.828C245.454 292.449 244.885 294.087 244.325 295.703C244.211 296.03 244.098 296.356 243.986 296.68C243.392 298.405 242.695 300.457 242.505 302.038C242.239 304.259 242.04 305.818 241.836 306.934C241.06 306.596 240.149 306.155 238.989 305.593C238.335 305.276 237.602 304.922 236.77 304.525C230.467 301.524 227.485 300.873 223 299.894C221.948 299.664 220.813 299.417 219.534 299.116ZM241.421 308.545C241.421 308.543 241.429 308.522 241.45 308.486C241.432 308.529 241.422 308.547 241.421 308.545ZM243.366 307.496C243.371 307.497 243.373 307.497 243.373 307.497C243.373 307.497 243.371 307.497 243.366 307.496ZM246.681 285.185C246.682 285.184 246.69 285.195 246.7 285.224C246.685 285.201 246.68 285.186 246.681 285.185Z" fill="#3A2D14"/>
<path d="M262.89 316.521C264.356 320.92 277.87 321.223 281.891 321.378C287.262 321.584 293.763 321.378 298.94 321.378C302.956 321.378 302.276 312.082 302.77 308.874C303.199 306.083 303.604 299.413 301.182 296.721C298.292 293.51 284.343 294.124 280.075 292.986C278.572 292.585 269.879 290.69 268.966 289.321C266.252 289.321 267.013 296.759 266.252 299.804C264.863 305.359 264.014 310.9 262.89 316.521Z" fill="#97C3DC"/>
<path fill-rule="evenodd" clip-rule="evenodd" d="M263.854 288.952C264.431 287.617 265.935 285.344 268.966 285.344H271.094L271.885 286.53C271.999 286.581 272.142 286.641 272.318 286.709C273.105 287.015 274.179 287.352 275.374 287.688C277.065 288.163 278.496 288.507 279.605 288.773C280.199 288.916 280.7 289.037 281.099 289.143C281.755 289.318 283.058 289.475 285.077 289.633C285.754 289.686 286.514 289.739 287.315 289.796C288.662 289.89 290.123 289.992 291.498 290.115C293.733 290.314 296.103 290.593 298.161 291.068C299.193 291.307 300.249 291.618 301.22 292.045C302.159 292.457 303.254 293.079 304.138 294.061C306.327 296.493 306.861 300.068 307.014 302.511C307.184 305.21 306.948 307.868 306.7 309.479C306.623 309.98 306.582 310.781 306.517 312.037C306.512 312.15 306.506 312.266 306.499 312.386C306.431 313.705 306.338 315.334 306.112 316.897C305.896 318.389 305.509 320.231 304.645 321.797C303.705 323.5 301.874 325.355 298.94 325.355C297.368 325.355 295.615 325.376 293.781 325.397C289.817 325.444 285.473 325.496 281.738 325.352C281.574 325.346 281.391 325.339 281.19 325.332C279.018 325.253 274.789 325.101 270.809 324.469C268.65 324.126 266.332 323.61 264.363 322.777C262.582 322.024 260.052 320.583 259.117 317.779L258.783 316.777L258.99 315.741C259.333 314.028 259.659 312.265 259.99 310.475C260.698 306.649 261.429 302.7 262.394 298.839C262.486 298.468 262.567 297.773 262.648 296.606C262.665 296.364 262.682 296.103 262.699 295.827C262.756 294.944 262.822 293.923 262.923 292.99C263.051 291.815 263.279 290.281 263.854 288.952ZM271.586 286.385C271.492 286.332 271.507 286.33 271.587 286.385C271.587 286.385 271.586 286.385 271.586 286.385ZM270.583 297.157C270.508 298.24 270.398 299.616 270.11 300.768C269.204 304.393 268.552 307.92 267.872 311.604C267.647 312.824 267.418 314.061 267.176 315.324C267.261 315.364 267.356 315.407 267.461 315.451C268.563 315.918 270.151 316.311 272.056 316.614C275.528 317.164 279.287 317.302 281.492 317.383C281.689 317.391 281.873 317.397 282.044 317.404C285.582 317.54 289.548 317.492 293.399 317.446C294.928 317.428 296.438 317.41 297.897 317.403C298.011 317.029 298.134 316.491 298.24 315.76C298.408 314.599 298.488 313.302 298.556 311.976C298.563 311.837 298.571 311.694 298.578 311.548C298.633 310.452 298.695 309.203 298.839 308.269C299.021 307.089 299.202 305.017 299.076 303.01C298.945 300.922 298.531 299.819 298.284 299.457C298.236 299.429 298.151 299.384 298.02 299.327C297.658 299.168 297.117 298.991 296.369 298.818C294.865 298.47 292.939 298.229 290.792 298.037C289.461 297.919 288.179 297.829 286.908 297.741C286.089 297.684 285.275 297.627 284.457 297.563C282.569 297.415 280.529 297.223 279.05 296.828C278.965 296.806 278.726 296.748 278.379 296.664C277.26 296.393 275.02 295.85 273.224 295.346C272.411 295.117 271.563 294.865 270.759 294.597C270.716 295.105 270.683 295.63 270.647 296.189C270.627 296.5 270.606 296.822 270.583 297.157Z" fill="#3A2D14"/>
<path d="M352.481 304.897L323.317 300.589L317.683 325.113L320.997 327.102L348.836 331.41L352.481 304.897Z" fill="#97C3DC"/>
<path fill-rule="evenodd" clip-rule="evenodd" d="M355.934 300.985C356.285 301.29 356.876 301.89 357.219 302.834C358.046 305.109 358.086 307.53 357.87 309.703C357.652 311.9 357.136 314.161 356.599 316.245C356.345 317.228 356.104 318.114 355.873 318.962C355.573 320.063 355.29 321.101 355.019 322.211C354.562 324.083 354.303 325.555 354.282 326.682C354.278 326.94 354.274 327.203 354.27 327.469C354.254 328.55 354.238 329.66 354.156 330.584C354.058 331.679 353.823 333.357 352.759 334.799C351.5 336.503 349.693 337.126 348.073 337.274C346.597 337.409 344.929 337.193 343.211 336.865C340.124 336.277 337.031 335.563 334.042 334.872C332.696 334.561 331.37 334.255 330.075 333.967C328.482 333.613 326.088 333.18 323.572 332.724C322.306 332.495 321.009 332.26 319.769 332.027C317.994 331.694 316.297 331.357 315.126 331.058C314.653 330.937 313.862 330.728 313.216 330.399C313.035 330.308 312.674 330.113 312.298 329.787C312.028 329.552 311.057 328.667 310.902 327.108C310.818 326.253 310.999 325.536 311.281 324.962C312.172 320.723 313.356 316.577 314.519 312.569C314.604 312.276 314.688 311.984 314.773 311.693C315.94 307.677 317.066 303.8 317.938 299.875C318.247 298.484 319.146 297.683 319.657 297.324C320.181 296.955 320.693 296.762 321.008 296.659C321.652 296.45 322.327 296.354 322.859 296.299C323.981 296.183 325.402 296.164 326.916 296.197C329.991 296.263 333.979 296.557 337.925 296.975C341.872 297.393 345.886 297.947 349.009 298.55C350.552 298.849 351.992 299.181 353.128 299.547C353.682 299.726 354.31 299.958 354.884 300.268C355.172 300.423 355.554 300.654 355.934 300.985ZM319.672 323.91C320.157 324.006 320.68 324.106 321.236 324.21C322.325 324.415 323.528 324.633 324.747 324.853C327.367 325.328 330.054 325.814 331.8 326.202C333.236 326.522 334.637 326.845 336.021 327.165C338.93 327.838 341.765 328.493 344.699 329.052C345.356 329.177 345.871 329.255 346.271 329.302C346.294 328.821 346.302 328.257 346.313 327.539C346.318 327.234 346.323 326.901 346.33 326.534C346.368 324.494 346.805 322.323 347.292 320.326C347.568 319.195 347.917 317.906 348.254 316.666C348.483 315.818 348.707 314.994 348.896 314.259C349.409 312.273 349.799 310.489 349.955 308.916C350.034 308.129 350.045 307.469 350.006 306.919C349.36 306.746 348.52 306.557 347.499 306.36C344.676 305.814 340.903 305.289 337.087 304.885C333.271 304.48 329.521 304.208 326.745 304.149C326.125 304.135 325.578 304.133 325.106 304.141C324.289 307.45 323.344 310.703 322.425 313.863C322.336 314.171 322.246 314.479 322.158 314.785C321.258 317.886 320.396 320.904 319.672 323.91ZM347.394 329.348C347.394 329.348 347.393 329.348 347.39 329.349C347.393 329.348 347.394 329.348 347.394 329.348Z" fill="#3A2D14"/>
<path d="M404.844 311.148L373.736 306.886L367.726 331.147L371.261 333.114L400.955 337.376L404.844 311.148Z" fill="#97C3DC"/>
<path fill-rule="evenodd" clip-rule="evenodd" d="M371.106 305.562C372.617 304.45 374.404 303.903 376.342 303.903C379.555 303.903 387.835 304.515 395.144 305.961C398.761 306.676 402.467 307.656 405.243 309.026C406.61 309.701 408.095 310.633 409.173 311.963C410.373 313.444 411.091 315.49 410.457 317.773C409.815 320.085 408.957 322.6 408.13 325.024C407.739 326.172 407.354 327.298 407.003 328.374C405.852 331.899 404.963 335.12 404.702 337.989C404.584 339.288 404.135 340.548 403.272 341.617C402.427 342.664 401.365 343.303 400.364 343.685C398.491 344.4 396.421 344.367 394.847 344.219C393.172 344.061 391.485 343.707 390.121 343.386C389.4 343.216 388.836 343.074 388.372 342.958C387.834 342.822 387.431 342.721 387.073 342.649C385.803 342.395 384.481 342.225 383.088 342.093C382.518 342.079 381.805 342.015 381.021 341.921C380.371 341.873 379.707 341.829 379.026 341.783C378.61 341.755 378.189 341.726 377.761 341.697C374.44 341.466 370.733 341.153 367.297 340.134C366.482 339.893 365.537 339.605 364.931 339.294C364.818 339.236 364.625 339.132 364.407 338.98C364.266 338.881 363.738 338.511 363.305 337.836C363.067 337.463 362.742 336.818 362.683 335.951C362.618 335.002 362.896 334.102 363.399 333.385C363.482 333.267 363.569 333.157 363.657 333.056C363.705 332.972 363.756 332.889 363.81 332.808C364.387 331.942 364.884 330.229 365.232 327.399C365.436 325.74 365.551 324.155 365.674 322.471C365.765 321.223 365.86 319.921 365.997 318.496C366.284 315.529 366.755 312.158 368.021 309.465C368.681 308.061 369.648 306.635 371.106 305.562ZM366.696 339.619C366.696 339.619 366.698 339.619 366.702 339.619C366.698 339.619 366.696 339.619 366.696 339.619ZM381.77 334C381.047 333.908 380.113 333.773 378.999 333.595C377.273 333.321 375.356 332.987 373.556 332.673C373.164 332.605 372.778 332.538 372.401 332.472C372.748 331.086 372.965 329.678 373.126 328.369C373.339 326.636 373.493 324.586 373.637 322.666C373.729 321.439 373.817 320.265 373.914 319.26C374.2 316.3 374.597 314.172 375.22 312.848C375.503 312.244 375.735 312.031 375.82 311.968C375.821 311.967 375.823 311.967 375.824 311.966C375.861 311.938 375.969 311.857 376.342 311.857C379.031 311.857 386.794 312.417 393.601 313.763C397.042 314.444 399.912 315.265 401.724 316.159C402.051 316.321 402.313 316.47 402.518 316.602C401.989 318.391 401.366 320.215 400.704 322.152C400.294 323.353 399.869 324.598 399.443 325.904C398.358 329.225 397.311 332.821 396.879 336.344C396.533 336.361 396.104 336.348 395.594 336.3C394.466 336.194 393.198 335.939 391.942 335.643C391.541 335.549 391.083 335.435 390.626 335.322C389.873 335.135 389.123 334.948 388.632 334.85C387.036 334.531 385.379 334.321 383.741 334.165C383.7 334.161 383.66 334.157 383.619 334.154C382.998 334.096 382.381 334.045 381.77 334Z" fill="#3A2D14"/>
<path fill-rule="evenodd" clip-rule="evenodd" d="M455.967 319.762C457.298 321.008 458.591 323.068 458.063 325.707C457.691 327.571 457.592 329.604 457.501 331.889C457.496 331.998 457.492 332.107 457.488 332.218C457.406 334.274 457.312 336.658 456.861 338.775C456.375 341.057 455.348 343.682 452.867 345.475C450.405 347.255 447.276 347.662 443.825 347.279C440.691 346.93 437.607 346.29 434.742 345.695C434.17 345.576 433.607 345.459 433.054 345.346C429.647 344.654 426.493 344.099 423.304 344.034H420.915C419.637 344.034 418.961 344.032 418.729 344.028C418.703 344.027 418.642 344.026 418.577 344.023C418.558 344.022 418.525 344.021 418.485 344.018L418.484 344.018C418.458 344.016 418.363 344.01 418.243 343.995C418.195 343.989 418.038 343.969 417.84 343.923C417.73 343.896 417.443 343.809 417.27 343.745C416.954 343.603 416.041 342.971 415.531 342.4C414.951 341.155 415.145 338.844 415.73 337.611C415.458 336.554 415.521 335.505 415.652 334.6C415.848 333.239 416.325 331.415 417.122 328.889L417.227 328.555L417.389 328.245C418.128 326.829 418.372 325.579 418.544 323.998C418.574 323.725 418.602 323.425 418.632 323.102C418.768 321.646 418.948 319.724 419.519 317.724C420.051 315.864 421.553 315.047 422.09 314.785C422.797 314.44 423.546 314.245 424.159 314.121C425.422 313.865 426.973 313.746 428.585 313.709C431.856 313.634 436.018 313.885 440.074 314.433C444.089 314.976 448.275 315.846 451.478 317.116C453.048 317.738 454.702 318.578 455.967 319.762ZM424.052 336.098C427.791 336.231 431.342 336.882 434.639 337.552C435.259 337.678 435.867 337.804 436.466 337.928C439.325 338.521 441.976 339.07 444.703 339.373C447.15 339.645 447.986 339.19 448.208 339.029C448.412 338.882 448.79 338.489 449.082 337.117C449.386 335.693 449.459 333.929 449.553 331.571C449.629 329.679 449.719 327.458 450.07 325.238C449.743 325.04 449.251 324.789 448.548 324.51C446.219 323.587 442.765 322.824 439.009 322.316C435.294 321.813 431.554 321.597 428.767 321.661C427.98 321.679 427.316 321.719 426.78 321.771C426.702 322.324 426.647 322.896 426.584 323.545C426.545 323.949 426.503 324.382 426.451 324.859C426.24 326.797 425.869 329.052 424.611 331.591C424.02 333.484 423.723 334.653 423.586 335.368C423.664 335.472 423.743 335.585 423.821 335.706C423.904 335.835 423.98 335.966 424.052 336.098ZM422.814 334.499C422.814 334.5 422.82 334.506 422.831 334.517C422.819 334.505 422.814 334.499 422.814 334.499ZM423.494 336.02C423.494 336.032 423.494 336.039 423.494 336.039C423.494 336.039 423.493 336.033 423.494 336.02Z" fill="#3A2D14"/>
<path fill-rule="evenodd" clip-rule="evenodd" d="M487.095 319.568C488.633 319.698 489.978 319.811 491.342 319.811C492.008 319.811 493.311 319.952 494.546 320.1C495.912 320.264 497.579 320.486 499.196 320.721C500.804 320.956 502.407 321.21 503.629 321.44C504.226 321.552 504.812 321.674 505.284 321.798C505.497 321.855 505.833 321.949 506.172 322.09C506.318 322.15 506.674 322.303 507.059 322.578C507.252 322.715 507.603 322.989 507.937 323.427C508.274 323.868 508.761 324.704 508.761 325.86C508.761 328.938 508.713 335.031 507.767 340.418C507.3 343.075 506.56 345.909 505.283 348.18C504 350.462 501.676 352.952 497.971 352.952C492.677 352.952 487.516 351.428 482.988 350.091C482.898 350.064 482.807 350.038 482.718 350.011C477.902 348.59 473.748 347.396 469.667 347.396H464.238L465.876 342.219C466.344 340.739 466.77 338.903 467.218 336.829C467.32 336.357 467.424 335.872 467.529 335.379C467.87 333.776 468.229 332.092 468.613 330.53C469.11 328.508 469.717 326.401 470.529 324.666C471.227 323.175 472.62 320.74 475.336 319.964C478.268 319.126 481.411 319.174 484.071 319.338C485.179 319.407 486.172 319.49 487.095 319.568ZM478.024 327.485C477.95 327.606 477.851 327.785 477.733 328.038C477.266 329.034 476.808 330.512 476.337 332.429C475.985 333.859 475.663 335.37 475.328 336.944C475.218 337.459 475.107 337.981 474.993 338.509C474.897 338.953 474.799 339.402 474.698 339.851C478.242 340.396 481.643 341.401 484.743 342.316C484.819 342.338 484.894 342.36 484.969 342.382C489.739 343.79 493.837 344.972 497.841 344.998C497.938 344.909 498.111 344.707 498.351 344.281C498.969 343.181 499.52 341.393 499.933 339.042C500.513 335.736 500.711 332.003 500.776 329.014C499.952 328.877 499.017 328.733 498.049 328.592C496.492 328.365 494.892 328.153 493.599 327.997C492.951 327.92 492.394 327.858 491.966 327.817C491.608 327.782 491.423 327.77 491.362 327.766C491.339 327.765 491.333 327.765 491.342 327.765C489.674 327.765 487.719 327.603 485.941 327.457C485.097 327.387 484.294 327.321 483.58 327.277C481.328 327.138 479.496 327.161 478.024 327.485ZM503.307 329.504C503.307 329.504 503.303 329.503 503.296 329.5C503.304 329.503 503.307 329.504 503.307 329.504ZM497.75 345.058C497.749 345.052 497.771 345.035 497.815 345.02C497.772 345.055 497.75 345.063 497.75 345.058ZM478.17 327.274C478.176 327.267 478.18 327.264 478.18 327.264C478.18 327.264 478.177 327.267 478.17 327.274Z" fill="#3A2D14"/>
<path fill-rule="evenodd" clip-rule="evenodd" d="M233.669 126.624C231.609 126.876 229.206 127.17 226.653 127.17C224.925 127.17 222.72 127.061 220.373 126.946C219.206 126.888 218.005 126.829 216.809 126.781C216.442 126.766 216.072 126.752 215.701 126.739C218.83 127.815 221.777 129.99 222.897 133.725C224.916 140.454 225.493 148.123 220.829 155.256C220.285 156.088 219.625 156.893 218.825 157.557C220.282 158.312 221.75 158.905 223.43 159.289C223.81 159.376 224.197 159.466 224.588 159.556C228.099 160.369 231.992 161.27 235.579 161.305C239.556 161.344 241.822 160.323 242.976 158.246C244.359 155.758 246.339 153.654 247.875 152.023C248.206 151.672 248.516 151.342 248.795 151.036C250.55 149.107 251.548 147.669 251.893 145.949C252.251 144.158 251.917 141.366 250.888 138.206C249.885 135.126 248.411 132.277 247.1 130.529C245.672 128.625 244.366 127.612 243.205 127.04C242.043 126.467 240.778 126.213 239.242 126.18C237.634 126.146 235.91 126.35 233.742 126.615L233.669 126.624ZM204.935 126.894C201.321 127.208 198.182 127.854 195.793 128.945C193.39 130.042 192.001 131.456 191.372 133.273C191.119 134.004 190.95 135.255 190.996 137.061C191.04 138.808 191.276 140.812 191.638 142.897C192.353 147.022 193.506 151.16 194.346 153.695C194.388 153.744 194.499 153.859 194.742 154.025C195.231 154.361 195.982 154.72 196.982 155.054C198.535 155.572 200.283 155.901 201.674 156.091C200.936 155.134 200.378 154.094 199.957 153.152C198.986 150.984 198.342 148.444 197.954 145.987C197.564 143.509 197.408 140.943 197.499 138.654C197.585 136.502 197.905 134.107 198.797 132.282C200.124 129.564 202.418 127.855 204.935 126.894ZM206.27 159.394C207.736 160.141 209.063 160.972 210.522 161.885C211.081 162.235 211.658 162.597 212.271 162.971C214.852 164.547 217.811 166.164 221.657 167.043C222.016 167.125 222.397 167.214 222.796 167.307C226.197 168.1 230.977 169.214 235.502 169.258C240.568 169.308 246.651 168.01 249.929 162.109C250.786 160.567 251.918 159.356 253.388 157.782C253.792 157.35 254.221 156.891 254.677 156.39C256.614 154.261 258.9 151.469 259.692 147.509C260.444 143.747 259.644 139.408 258.451 135.743C257.232 132 255.395 128.332 253.463 125.757C251.428 123.043 249.2 121.127 246.722 119.906C244.245 118.685 241.763 118.278 239.411 118.228C237.184 118.181 234.93 118.457 232.922 118.702L232.777 118.72C230.641 118.981 228.679 119.216 226.653 119.216C225.116 119.216 223.253 119.124 221.057 119.015C219.849 118.955 218.541 118.891 217.131 118.833C213.298 118.678 208.945 118.595 204.716 118.931C200.526 119.263 196.185 120.023 192.49 121.709C188.721 123.43 185.39 126.238 183.855 130.671C183.149 132.711 182.989 135.061 183.045 137.262C183.102 139.523 183.398 141.936 183.801 144.256C184.605 148.892 185.886 153.469 186.829 156.299C187.499 158.308 188.927 159.68 190.236 160.58C191.561 161.491 193.073 162.134 194.463 162.598C197.247 163.528 200.218 163.959 201.974 164.135C204.16 164.353 206.109 162.759 206.327 160.573C206.368 160.169 206.346 159.773 206.27 159.394Z" fill="#3A2D14"/>
<path d="M186.776 132.233L190.422 154.769L244.11 163.385L256.041 146.815L249.082 128.587L232.511 123.947H195.062L186.776 132.233Z" fill="#EFEBD2"/>
<path fill-rule="evenodd" clip-rule="evenodd" d="M227.235 125.189C222.55 125.443 216.912 125.747 214.038 126.019C212.91 126.125 211.796 126.223 210.695 126.32C206.318 126.706 202.143 127.075 198.057 127.874C196.266 128.224 195.022 128.756 194.142 129.424C193.313 130.055 192.602 130.96 192.1 132.45C190.651 136.751 191.38 142.009 192.309 147.716C192.356 148.005 192.4 148.285 192.442 148.557C192.58 149.439 192.705 150.244 192.899 151.059C193.157 152.141 193.427 152.713 193.608 152.955C195.044 154.869 196.724 156.027 197.908 156.14C200.095 156.348 201.698 158.29 201.49 160.476C201.282 162.663 199.341 164.266 197.154 164.058C192.557 163.62 189.089 160.186 187.245 157.727C186.078 156.17 185.501 154.325 185.162 152.902C184.887 151.746 184.697 150.521 184.554 149.605C184.52 149.381 184.488 149.176 184.458 148.994L184.431 148.824C183.571 143.545 182.397 136.339 184.562 129.911C185.529 127.04 187.129 124.764 189.329 123.092C191.479 121.458 193.983 120.566 196.531 120.068C201.07 119.18 205.774 118.767 210.188 118.379C211.241 118.287 212.277 118.196 213.291 118.1C216.336 117.813 222.127 117.5 226.738 117.251C227.122 117.23 227.498 117.21 227.863 117.19C229.271 117.113 230.515 117.045 231.495 116.986C231.927 116.826 232.394 116.738 232.882 116.738C233.295 116.738 233.637 116.741 233.9 116.748C234.028 116.751 234.172 116.756 234.31 116.766C234.379 116.77 234.478 116.778 234.59 116.792L234.594 116.792C234.665 116.8 234.929 116.832 235.244 116.921L235.246 116.922C235.365 116.955 235.818 117.083 236.318 117.403C236.618 117.596 238.561 118.937 238.085 121.487C237.889 122.533 237.337 123.215 237.004 123.552C236.662 123.899 236.331 124.107 236.15 124.211C235.789 124.418 235.477 124.52 235.367 124.555C234.981 124.678 234.619 124.723 234.572 124.729C234.57 124.729 234.568 124.729 234.567 124.729C234.335 124.76 234.053 124.785 233.8 124.805C232.737 124.888 230.673 125.003 228.294 125.132C227.948 125.151 227.594 125.17 227.235 125.189Z" fill="#3A2D14"/>
<path fill-rule="evenodd" clip-rule="evenodd" d="M204.507 161.448C203.153 161.748 201.713 161.505 200.488 160.621C199.291 159.757 198.685 158.549 198.371 157.78C197.715 156.172 197.434 154.156 197.287 152.499C197.025 149.558 197.085 146.28 197.107 145.04C197.111 144.831 197.114 144.68 197.114 144.598C197.114 138.298 197.481 131.894 198.984 125.452C199.015 125.321 199.218 124.492 199.45 123.683C199.562 123.291 199.709 122.807 199.865 122.39C199.932 122.21 200.064 121.87 200.258 121.523C200.338 121.379 200.566 120.981 200.964 120.581C201.167 120.377 202.664 118.894 204.925 119.54C206.419 119.967 207.177 121.049 207.426 121.438C207.436 121.453 207.445 121.468 207.455 121.483C209.481 121.459 211.231 122.98 211.451 125.036C211.586 126.292 211.868 127.594 212.224 129.09C212.277 129.316 212.333 129.548 212.391 129.786C212.694 131.047 213.034 132.461 213.275 133.871C213.96 137.876 214.135 142.271 213.778 146.318C213.423 150.341 211.229 153.854 209.728 156.258C209.597 156.468 209.471 156.669 209.352 156.862C209.298 156.95 209.233 157.071 209.081 157.364L209.066 157.394C209.008 157.505 208.936 157.645 208.852 157.8C208.693 159.851 206.979 161.466 204.887 161.466C204.759 161.466 204.632 161.46 204.507 161.448ZM200.533 125.352C200.533 125.354 200.534 125.356 200.535 125.358C200.529 125.342 200.528 125.339 200.533 125.352Z" fill="#3A2D14"/>
<path fill-rule="evenodd" clip-rule="evenodd" d="M234.069 116.027C236.266 116.027 238.046 117.807 238.046 120.004C238.046 122.803 237.934 125.637 237.658 128.468C237.314 132.011 237.137 135.587 236.967 139.262C236.955 139.52 236.943 139.779 236.931 140.039C236.775 143.44 236.614 146.93 236.318 150.418C236.215 151.642 236.049 152.91 235.898 154.071C235.849 154.449 235.801 154.815 235.757 155.165C235.57 156.669 235.436 158.005 235.436 159.269C235.436 159.333 235.437 159.408 235.438 159.493C235.448 160.206 235.466 161.606 234.995 163.018C234.3 165.102 232.048 166.228 229.965 165.533C227.881 164.838 226.755 162.586 227.449 160.503C227.448 160.506 227.448 160.506 227.449 160.503C227.453 160.491 227.465 160.435 227.474 160.293C227.48 160.195 227.483 160.072 227.484 159.897C227.484 159.81 227.484 159.718 227.484 159.612L227.483 159.568C227.483 159.476 227.482 159.373 227.482 159.269C227.482 157.49 227.669 155.75 227.865 154.179C227.921 153.733 227.976 153.307 228.03 152.895C228.174 151.785 228.306 150.776 228.393 149.746C228.675 146.418 228.829 143.075 228.987 139.642C228.998 139.393 229.01 139.144 229.021 138.895C229.191 135.229 229.375 131.467 229.742 127.699C229.988 125.166 230.092 122.593 230.092 120.004C230.092 117.807 231.873 116.027 234.069 116.027Z" fill="#3A2D14"/>
<path fill-rule="evenodd" clip-rule="evenodd" d="M208.669 122.698C208.218 122.611 207.764 122.544 207.311 122.502C205.919 122.373 204.159 122.323 202.429 123.094C200.617 123.901 199.475 125.31 198.629 126.68C196.576 130.006 194.711 133.947 193.621 137.866C192.689 141.219 192.775 144.722 192.842 147.465C192.847 147.686 192.853 147.902 192.857 148.113C192.955 152.545 195.682 154.94 197.9 156.561C201.08 158.886 205.109 159.953 208.898 159.301C209.263 159.238 209.624 159.16 209.981 159.065C210.019 159.092 210.059 159.118 210.098 159.144C210.447 159.376 211.344 159.963 212.392 160.351C212.916 160.544 213.715 160.78 214.648 160.776C215.645 160.772 216.975 160.481 218.091 159.412C219.081 158.463 219.583 157.289 219.832 156.635C220.065 156.022 220.246 155.374 220.346 155.017C220.362 154.959 220.376 154.908 220.388 154.867C221.538 150.849 222.065 146.674 222.226 142.676C222.419 137.858 222.39 130.391 216.075 125.94C215.891 125.81 215.701 125.681 215.506 125.554C215.533 124.357 215.021 123.161 214.014 122.355C212.396 121.061 210.078 121.235 208.669 122.698ZM206.038 151.501C206.002 151.178 205.977 150.87 205.959 150.582C205.834 148.592 206.001 146.368 206.112 144.881C206.145 144.446 206.173 144.075 206.187 143.79C206.29 141.764 206.528 139.764 206.747 137.916C206.773 137.692 206.8 137.469 206.826 137.249C207.07 135.165 207.274 133.255 207.303 131.357C207.303 131.358 207.303 131.359 207.303 131.359C207.303 131.359 207.303 131.339 207.301 131.293C207.299 131.243 207.296 131.176 207.291 131.089C207.281 130.932 207.267 130.749 207.249 130.525C207.015 130.477 206.79 130.442 206.574 130.422C206.153 130.383 205.887 130.377 205.722 130.383C205.649 130.475 205.541 130.625 205.397 130.858C203.652 133.685 202.134 136.94 201.284 139.996C200.681 142.167 200.734 144.55 200.802 147.6C200.804 147.712 200.807 147.825 200.809 147.938C200.819 148.375 200.915 148.572 201.056 148.769C201.274 149.074 201.69 149.479 202.594 150.14C203.687 150.94 204.906 151.381 206.038 151.501ZM205.836 130.256C205.836 130.256 205.833 130.259 205.827 130.264C205.833 130.258 205.836 130.256 205.836 130.256Z" fill="#3A2D14"/>
<path fill-rule="evenodd" clip-rule="evenodd" d="M238.956 128.401C237.687 128.445 237.687 128.445 237.687 128.445L237.685 128.408L237.682 128.314C237.68 128.234 237.677 128.12 237.673 127.98C237.666 127.7 237.657 127.313 237.652 126.88C237.642 126.066 237.642 124.918 237.71 124.062C237.768 123.344 237.894 122.643 237.981 122.161C237.991 122.104 238.001 122.05 238.01 121.999C238.109 121.44 238.153 121.132 238.161 120.877C238.161 120.87 238.161 120.854 238.162 120.83C238.165 120.636 238.176 119.925 238.25 119.29C238.292 118.926 238.373 118.38 238.562 117.811C238.692 117.416 239.149 116.106 240.502 115.26C241.116 114.876 241.994 114.567 243.028 114.674C243.957 114.771 244.652 115.166 245.094 115.515C246.729 115.053 248.021 115.716 248.514 116.023C249.074 116.371 249.467 116.784 249.679 117.024C250.128 117.53 250.493 118.104 250.731 118.501C251.206 119.295 251.702 120.305 251.676 120.256C252.346 121.524 252.5 122.773 252.557 123.597C252.582 123.959 252.592 124.322 252.599 124.588C252.6 124.622 252.601 124.655 252.601 124.686C252.61 124.995 252.618 125.182 252.633 125.336C252.659 125.619 252.681 125.883 252.701 126.139C252.74 126.621 252.777 127.072 252.843 127.564C252.946 127.855 253.067 128.17 253.193 128.5L253.22 128.569C253.227 128.588 253.235 128.61 253.244 128.633C253.349 128.906 253.53 129.377 253.629 129.73C253.629 129.732 253.63 129.734 253.631 129.737C253.654 129.82 253.751 130.164 253.783 130.59C253.783 130.593 253.784 130.597 253.784 130.602C253.796 130.751 253.857 131.51 253.513 132.377C253.305 132.903 252.839 133.736 251.866 134.323C250.842 134.94 249.797 134.963 249.07 134.826C247.963 134.618 247.271 133.992 247.157 133.889C247.152 133.885 247.149 133.882 247.146 133.88C246.93 133.688 246.778 133.51 246.704 133.422C246.404 133.721 246.043 134.007 245.609 134.248C244.79 134.703 243.693 134.942 242.529 134.627C241.486 134.345 240.825 133.734 240.488 133.353C239.897 132.684 239.632 131.957 239.534 131.668C238.463 130.988 237.734 129.809 237.687 128.445L238.956 128.401C238.956 128.401 238.956 128.401 238.956 128.401Z" fill="#EFEBD2"/>
<path fill-rule="evenodd" clip-rule="evenodd" d="M246.678 113.87C248.231 112.316 250.749 112.316 252.302 113.87C256.894 118.461 261.322 125.036 262.973 131.731C264.274 137.002 265.018 142.887 264.496 148.574C264.289 150.827 263.63 152.828 262.215 154.534C260.894 156.126 259.176 157.126 257.606 157.917C257.19 158.127 256.776 158.335 256.365 158.541C255.513 159.884 254.458 161.182 253.339 162.151C253.335 162.154 253.313 162.175 253.262 162.225C253.248 162.237 253.227 162.259 253.2 162.284C253.136 162.347 253.044 162.436 252.974 162.504C252.75 162.718 252.375 163.068 251.925 163.394C251.522 163.686 250.737 164.2 249.681 164.405C248.76 164.584 247.714 164.503 246.741 164.032C246.731 164.033 246.721 164.033 246.711 164.034L246.673 164.037C246.58 164.043 246.458 164.052 246.341 164.059C246.206 164.067 246.024 164.076 245.826 164.076C246.039 164.076 245.425 164.087 245.073 164.071C245.069 164.071 245.064 164.071 245.058 164.07C244.924 164.064 244.379 164.041 243.81 163.87C243.631 163.817 243.294 163.704 242.913 163.483C242.584 163.292 241.807 162.783 241.31 161.758C240.701 160.503 240.849 159.197 241.322 158.238C241.707 157.458 242.245 157.007 242.475 156.828C243.202 156.262 244.003 155.862 244.516 155.615C244.816 155.471 245.026 155.374 245.194 155.297C245.411 155.196 245.557 155.129 245.734 155.035C247.318 154.19 248.925 153.373 250.515 152.574C250.636 152.247 250.698 151.993 250.714 151.834C251.253 146.623 250.054 140.805 248.112 135.466C246.848 131.989 245.409 129.296 243.133 126.605C241.714 124.929 241.923 122.419 243.6 121.001C244.697 120.072 246.151 119.841 247.423 120.262C247.177 120 246.928 119.744 246.678 119.494C245.125 117.941 245.125 115.423 246.678 113.87Z" fill="#EFEBD2"/>
<path d="M34.3274 357.923L6.82031 315.503C6.82031 300.147 7.88083 269.238 12.1229 268.442C17.4254 267.448 23.7222 286.67 39.6299 306.555C55.5376 326.439 105.581 334.393 144.356 347.318C183.131 360.243 328.62 369.523 349.167 373.168C365.605 376.084 487.034 384.105 545.693 387.75L658.042 399.018L606.342 420.228L545.693 433.153L388.605 425.531L315.032 420.228L202.684 404.983L98.621 386.756L34.3274 357.923Z" fill="#598DCA"/>
<path fill-rule="evenodd" clip-rule="evenodd" d="M193.123 167.376C191.556 167.542 189.978 167.709 188.387 167.87C172.025 169.525 159.18 175.227 144.621 181.69C141.393 183.123 138.082 184.593 134.63 186.064C127.837 188.96 120.896 191.579 114.048 194.163C111.744 195.032 109.452 195.897 107.178 196.768C98.0851 200.25 89.209 203.85 80.7358 208.256C74.0268 211.744 67.8604 216.398 61.7465 221.512C59.3457 223.52 56.8825 225.663 54.3939 227.828C50.7364 231.009 47.0239 234.238 43.3735 237.159C42.0592 238.21 40.799 239.204 39.5865 240.16C31.3464 246.658 25.313 251.415 19.5145 260.72C13.4404 270.467 8.25716 282.917 7.97354 293.836C7.72461 303.42 9.85402 312.561 12.5023 322.191C13.466 325.696 15.3515 328.33 24.1949 339.554C25.5542 341.279 25.2575 343.78 23.5322 345.139C21.807 346.498 19.3065 346.202 17.9472 344.476L17.9138 344.434C9.54863 333.817 6.32493 329.725 4.83315 324.3C2.16052 314.582 -0.259209 304.471 0.0223735 293.63C0.358044 280.706 6.32851 266.84 12.7642 256.513C19.3382 245.964 26.4668 240.356 34.7196 233.864C35.9235 232.917 37.1513 231.951 38.4047 230.948C42.01 228.064 45.4211 225.093 48.9197 222.045C51.4157 219.872 53.9562 217.659 56.6436 215.411C62.9131 210.167 69.597 205.083 77.0662 201.199C85.9556 196.576 95.1771 192.846 104.334 189.34C106.688 188.438 109.032 187.554 111.365 186.673C118.17 184.105 124.886 181.571 131.511 178.747C134.731 177.375 137.892 175.969 141.031 174.572C155.665 168.061 169.847 161.751 187.587 159.957C189.131 159.801 190.691 159.633 192.265 159.465C204.394 158.165 217.348 156.777 230.142 159.66C235.418 160.849 240.648 162.149 245.832 163.444L246.799 163.685C251.669 164.902 256.499 166.109 261.356 167.23C307.9 177.971 347.862 208.148 383.865 236.437C385.378 237.625 387.135 238.948 388.995 240.349C391.878 242.521 395.01 244.881 397.869 247.217C402.693 251.159 407.511 255.623 410.775 260.52C411.993 262.347 411.499 264.816 409.672 266.035C407.844 267.253 405.375 266.759 404.157 264.932C401.569 261.05 397.504 257.191 392.836 253.375C390.006 251.063 387.222 248.97 384.503 246.926C382.619 245.51 380.767 244.117 378.951 242.691C342.789 214.277 304.136 185.265 259.567 174.98C254.637 173.842 249.741 172.619 244.886 171.406L243.905 171.16C238.715 169.864 233.568 168.586 228.393 167.42C216.974 164.846 205.405 166.073 193.123 167.376Z" fill="#3A2D14"/>
<path fill-rule="evenodd" clip-rule="evenodd" d="M399.992 256.211C400.524 254.08 402.683 252.785 404.814 253.317C407.093 253.887 412.928 254.455 419.529 255.092L419.609 255.099C425.812 255.698 432.639 256.357 436.115 257.175C441.146 258.359 446.18 259.56 451.214 260.762C465.539 264.183 479.862 267.603 494.115 270.603C500.321 271.91 506.636 273.175 513.02 274.454C557.522 283.368 605.377 292.955 642.735 321.877C649.986 327.491 664.187 340.156 673.391 353.98C677.974 360.863 681.596 368.442 682.163 375.839C682.754 383.565 679.969 390.815 672.44 396.318C670.22 397.94 668.118 399.584 666.048 401.202C657.494 407.89 649.494 414.145 636.074 416.63C627.493 418.219 619.02 420.243 610.433 422.294C608.283 422.808 606.125 423.323 603.957 423.834C593.191 426.369 582.233 428.77 571.008 430.117C540.234 433.81 508.969 435.831 477.837 434.72C469.715 434.43 461.635 433.773 453.67 433.126C451.215 432.927 448.771 432.728 446.34 432.542C435.958 431.744 425.711 431.154 415.367 431.544C395.063 432.31 375.513 432.617 355.031 431.447C343.8 430.805 332.826 429.033 322.084 427.275L321.376 427.159C310.817 425.43 300.482 423.738 289.99 423.039C273.188 421.919 256.336 420.161 239.663 417.098C219.01 413.305 198.364 410.706 177.486 408.077C172.581 407.46 167.662 406.841 162.728 406.204C143.626 403.739 122.859 397.898 104.68 392.785L104.162 392.639C102.538 392.183 100.909 391.731 99.2767 391.278C85.31 387.404 71.0875 383.46 57.8587 375.817C56.6812 375.136 55.5091 374.464 54.3429 373.796C43.3786 367.511 32.9341 361.524 23.3632 351.598C21.4338 349.597 16.8337 343.59 12.835 337.913C10.8031 335.028 8.84311 332.111 7.37605 329.694C6.64671 328.491 5.99914 327.347 5.52076 326.357C5.28247 325.864 5.05511 325.346 4.87964 324.836C4.73011 324.402 4.50049 323.65 4.50049 322.795C4.50049 320.599 6.28102 318.818 8.47741 318.818C10.512 318.818 12.1898 320.346 12.4259 322.317C12.4713 322.436 12.5517 322.626 12.6825 322.897C13.0034 323.561 13.5052 324.462 14.1761 325.568C15.5096 327.765 17.3541 330.517 19.3375 333.332C23.3694 339.056 27.6436 344.578 29.0887 346.077C37.8336 355.146 47.3015 360.581 58.3774 366.939C59.5136 367.591 60.6668 368.253 61.8378 368.93C74.1353 376.035 87.3534 379.708 101.445 383.624C103.057 384.072 104.68 384.523 106.315 384.982L106.539 385.045C124.918 390.214 145.224 395.926 163.746 398.315C168.625 398.945 173.506 399.559 178.389 400.174C199.283 402.804 220.204 405.437 241.1 409.275C257.377 412.265 273.906 413.995 290.519 415.103C301.398 415.828 312.062 417.574 322.513 419.285L323.369 419.425C334.158 421.191 344.734 422.892 355.484 423.506C375.602 424.656 394.867 424.358 415.067 423.596C425.883 423.188 436.5 423.809 446.949 424.611C449.459 424.804 451.953 425.006 454.438 425.208C462.364 425.852 470.196 426.488 478.121 426.771C508.73 427.864 539.566 425.88 570.06 422.22C580.818 420.929 591.414 418.616 602.134 416.092C604.246 415.594 606.365 415.088 608.492 414.58C617.099 412.524 625.824 410.44 634.626 408.81C645.98 406.707 652.254 401.826 660.588 395.342C662.787 393.631 665.129 391.809 667.747 389.896C672.978 386.073 674.62 381.521 674.232 376.446C673.818 371.043 671.054 364.823 666.77 358.388C658.238 345.573 644.782 333.521 637.866 328.166C602.102 300.478 556.277 291.269 511.597 282.29C505.189 281.002 498.805 279.719 492.477 278.387C478.11 275.362 463.633 271.905 449.278 268.478C444.265 267.281 439.267 266.087 434.293 264.917C431.469 264.253 425.313 263.641 418.765 263.009L417.999 262.935C412.049 262.362 405.784 261.758 402.886 261.034C400.755 260.501 399.459 258.342 399.992 256.211ZM12.3813 322.186C12.3819 322.186 12.3863 322.199 12.3926 322.224C12.3839 322.198 12.3807 322.185 12.3813 322.186Z" fill="#3A2D14"/>
<path d="M304.095 392.39C301.443 395.704 322.654 418.24 322.654 418.24L430.694 517.663L468.143 549.478L516.529 578.642C516.529 578.642 534.426 591.899 551.99 600.847C569.554 609.795 602.364 600.847 602.364 600.847L613.964 591.899V571.683L594.411 531.251L516.529 425.199C516.529 425.199 503.299 411.872 493.33 405.315C467.97 388.633 418.1 385.762 418.1 385.762C418.1 385.762 331.933 384.436 324.974 385.762C318.015 387.087 306.747 389.076 304.095 392.39Z" fill="#EFEBD2"/>
<path fill-rule="evenodd" clip-rule="evenodd" d="M331.093 389.356C327.957 389.45 326.209 389.575 325.718 389.668C325.375 389.734 325.024 389.8 324.667 389.868C321.331 390.5 317.419 391.241 313.949 392.171C312.03 392.686 310.37 393.226 309.092 393.786C308.81 393.909 308.559 394.028 308.336 394.142C308.562 394.577 308.861 395.101 309.246 395.715C310.723 398.073 312.995 401.043 315.452 404.032C317.887 406.995 320.413 409.868 322.338 412.007C323.298 413.075 324.105 413.955 324.67 414.568C324.952 414.873 325.174 415.112 325.325 415.273C325.377 415.329 325.42 415.376 325.455 415.413L433.329 514.683L470.472 546.239L518.744 575.334L518.896 575.446L518.897 575.448L518.905 575.454L518.94 575.479C518.972 575.503 519.021 575.539 519.086 575.587C519.216 575.682 519.412 575.825 519.668 576.011C520.18 576.382 520.935 576.926 521.898 577.608C523.824 578.972 526.577 580.886 529.874 583.077C536.484 587.47 545.207 592.928 553.795 597.303C561.459 601.208 573.018 601.358 583.338 600.248C588.375 599.706 592.892 598.892 596.151 598.212C597.778 597.873 599.084 597.568 599.978 597.35C600.206 597.295 600.407 597.245 600.579 597.201L609.987 589.944V572.594L590.989 533.311L513.502 427.797C513.411 427.706 513.291 427.587 513.144 427.441C512.772 427.073 512.226 426.537 511.539 425.872C510.165 424.541 508.229 422.698 505.989 420.655C501.463 416.529 495.854 411.735 491.145 408.637C479.183 400.769 461.064 395.986 445.503 393.197C437.802 391.817 430.876 390.949 425.875 390.426C423.377 390.165 421.364 389.991 419.981 389.882C419.289 389.828 418.756 389.79 418.398 389.766C418.219 389.754 418.085 389.745 417.996 389.74L417.95 389.737L417.072 389.724C416.44 389.714 415.511 389.701 414.328 389.684C411.96 389.65 408.569 389.604 404.477 389.552C396.295 389.448 385.314 389.324 374.117 389.241C362.917 389.159 351.516 389.117 342.488 389.179C337.971 389.21 334.07 389.267 331.093 389.356ZM418.1 385.762C418.329 381.791 418.329 381.791 418.33 381.791L418.374 381.794L418.492 381.801C418.594 381.808 418.742 381.817 418.934 381.83C419.32 381.856 419.882 381.896 420.604 381.953C422.047 382.066 424.129 382.247 426.702 382.516C431.844 383.053 438.97 383.945 446.907 385.368C462.62 388.185 482.117 393.179 495.516 401.992C500.775 405.452 506.766 410.6 511.347 414.777C513.66 416.886 515.655 418.785 517.073 420.158C517.782 420.844 518.348 421.401 518.738 421.787C518.933 421.98 519.085 422.131 519.188 422.234C519.24 422.286 519.28 422.326 519.307 422.353L519.347 422.394L519.35 422.396L519.351 422.397C519.351 422.397 519.351 422.398 516.529 425.199L519.351 422.398L519.559 422.607L597.832 529.191L617.94 570.772V593.854L604.17 604.477L603.411 604.684L602.364 600.847C603.411 604.684 603.41 604.684 603.409 604.684L603.406 604.685L603.399 604.687L603.375 604.693L603.292 604.715C603.221 604.734 603.12 604.761 602.989 604.795C602.727 604.863 602.347 604.959 601.862 605.078C600.893 605.314 599.499 605.639 597.775 605.998C594.334 606.716 589.55 607.58 584.189 608.156C573.713 609.283 560.085 609.434 550.185 604.39C541.209 599.818 532.201 594.173 525.471 589.701C522.098 587.459 519.28 585.5 517.301 584.099C516.312 583.398 515.532 582.836 514.997 582.448C514.729 582.254 514.523 582.103 514.382 582C514.359 581.983 514.338 581.968 514.318 581.953L465.814 552.718L428.059 520.643L319.856 421.069L319.758 420.965L322.654 418.24C319.758 420.965 319.758 420.965 319.757 420.965L319.691 420.894C319.649 420.849 319.588 420.784 319.508 420.698C319.349 420.528 319.118 420.279 318.825 419.962C318.241 419.329 317.411 418.423 316.424 417.326C314.455 415.137 311.844 412.169 309.308 409.083C306.794 406.024 304.26 402.738 302.506 399.938C301.644 398.562 300.849 397.115 300.377 395.764C300.142 395.091 299.916 394.249 299.891 393.337C299.865 392.419 300.04 391.092 300.99 389.905C302.278 388.295 304.225 387.234 305.903 386.499C307.7 385.713 309.789 385.052 311.889 384.489C315.667 383.476 319.88 382.679 323.176 382.055C323.539 381.986 323.891 381.919 324.23 381.855C325.478 381.617 327.945 381.493 330.854 381.406C333.921 381.314 337.893 381.257 342.433 381.226C351.519 381.163 362.964 381.205 374.176 381.288C385.391 381.371 396.387 381.495 404.578 381.599C408.674 381.65 412.069 381.697 414.44 381.731C415.626 381.748 416.556 381.761 417.19 381.771L418.16 381.785C418.161 381.785 418.161 381.785 418.1 385.762ZM418.1 385.762L418.161 381.785L418.245 381.786L418.329 381.791L418.1 385.762Z" fill="#3A2D14"/>
<path d="M596.882 397.391C597.046 398.468 597.329 399.545 597.701 400.619C599.231 405.038 602.254 409.399 604.524 413.372C611.766 426.045 627.359 433.473 639.548 440.177C652.014 447.033 664.225 452.679 678.12 456.054C684.907 457.702 704.32 458.896 706.325 448.582C709.22 433.695 683.865 412.401 673.077 405.807C662.488 399.336 649.192 396.158 637.026 393.946C626.804 392.088 616.619 391.825 606.206 392.172C603.654 392.257 596.686 392.197 596.882 397.391Z" fill="#EFEBD2"/>
<path fill-rule="evenodd" clip-rule="evenodd" d="M606.072 388.197C616.629 387.845 627.126 388.104 637.737 390.034C649.956 392.255 663.886 395.531 675.15 402.414C680.852 405.899 690.18 413.107 697.766 421.401C701.564 425.553 705.051 430.112 707.411 434.739C709.746 439.317 711.192 444.387 710.228 449.342C709.463 453.278 707.003 456.001 704.058 457.751C701.206 459.447 697.788 460.318 694.535 460.747C688.037 461.603 680.99 460.844 677.181 459.919C662.804 456.427 650.246 450.6 637.63 443.662C636.432 443.002 635.181 442.326 633.894 441.631C628.808 438.882 623.162 435.831 617.952 432.307C611.395 427.873 605.123 422.437 601.071 415.346C600.6 414.521 600.05 413.613 599.464 412.644C597.57 409.516 595.289 405.746 593.986 402.045C593.387 400.604 593.006 399.179 592.92 397.781C592.809 396.994 592.748 396.19 592.748 395.372C592.748 393.872 593.579 392.565 594.807 391.888C594.858 391.828 594.911 391.768 594.965 391.71C596.274 390.281 597.928 389.513 599.312 389.074C601.736 388.307 604.442 388.239 605.718 388.207C605.853 388.203 605.972 388.2 606.072 388.197ZM601.421 399.209C601.167 398.461 600.979 397.749 600.859 397.072C600.86 397.065 600.861 397.06 600.861 397.054C600.942 396.988 601.181 396.826 601.714 396.657C602.995 396.251 604.564 396.202 605.97 396.158C606.094 396.154 606.216 396.151 606.337 396.147C616.608 395.804 626.48 396.071 636.314 397.859C648.427 400.061 661.088 403.142 671.002 409.201C676.089 412.309 684.833 419.045 691.897 426.769C695.425 430.626 698.408 434.593 700.325 438.353C702.267 442.16 702.905 445.334 702.421 447.823C702.184 449.044 701.465 450.039 699.994 450.914C698.43 451.844 696.195 452.505 693.495 452.861C688.089 453.574 682.036 452.913 679.058 452.19C665.644 448.932 653.78 443.466 641.464 436.692C640.159 435.975 638.836 435.259 637.503 434.539C632.451 431.806 627.257 428.998 622.408 425.719C616.311 421.595 611.166 416.98 607.977 411.399C607.284 410.187 606.585 409.03 605.907 407.907C604.151 405 602.534 402.324 601.533 399.53C601.501 399.422 601.463 399.315 601.421 399.209ZM600.87 397.008C600.87 397.008 600.869 397.009 600.869 397.012C600.869 397.009 600.87 397.008 600.87 397.008Z" fill="#3A2D14"/>
<path d="M57.8702 189.114L67.0125 181.193L79.6896 182.863L86.1248 188.655L85.9151 228.935L70.207 254.814L57.53 253.143L51.3679 238.451L54.7915 212.475L57.8702 189.114Z" fill="#EFEBD2"/>
<path fill-rule="evenodd" clip-rule="evenodd" d="M81.6693 180.114C83.8469 180.401 85.3795 182.398 85.0925 184.576C84.79 186.871 83.8562 188.811 82.9739 190.357C82.5639 191.076 82.1235 191.778 81.7329 192.401C81.7026 192.449 81.6726 192.497 81.6429 192.544C81.213 193.23 80.8411 193.829 80.5127 194.421C79.3277 196.556 78.5069 198.72 77.8993 201.061C78.7738 201.686 79.6219 202.314 80.4385 202.918C80.6886 203.103 80.9356 203.286 81.1796 203.466C81.3197 203.569 81.4583 203.672 81.5955 203.773C82.9727 204.79 84.2189 205.71 85.5871 206.611C85.5539 206.589 85.5515 206.586 85.9669 206.819C86.2322 206.968 86.681 207.223 87.0964 207.517C87.3005 207.661 87.608 207.892 87.9127 208.198C88.1168 208.403 88.8273 209.127 89.1053 210.299C89.2696 210.993 89.2871 211.875 88.9231 212.785C88.5675 213.674 87.9784 214.263 87.4794 214.621C87.2131 214.811 86.9439 214.957 86.6887 215.068C86.752 215.909 86.6792 216.61 86.6536 216.857C86.6502 216.889 86.6476 216.914 86.6463 216.93C86.4206 219.659 86.0114 222.466 85.6249 225.118C85.4519 226.305 85.2834 227.461 85.138 228.565C84.9639 229.885 84.8062 231.27 84.644 232.695C84.206 236.54 83.7351 240.675 82.8221 244.608C82.7903 244.745 82.7662 244.915 82.7188 245.249C82.6905 245.448 82.654 245.705 82.6026 246.049C82.4905 246.799 82.3229 247.804 82.023 248.826C81.492 250.636 80.0818 254.015 76.2201 254.805L76.1945 254.81C75.7802 254.895 75.161 255.022 74.5897 255.058C74.494 255.064 74.3551 255.072 74.1834 255.07C74.1263 255.186 74.0629 255.308 74.0108 255.398C73.809 255.697 73.0884 256.439 72.5242 256.813C71.4401 257.214 69.1635 257.024 68.1627 256.451C67.6722 255.994 67.0864 255.151 66.936 254.825C66.7402 254.346 66.6866 253.931 66.677 253.857L66.6761 253.85C66.6456 253.623 66.642 253.439 66.6413 253.402L66.6412 253.398C66.6359 253.144 66.6672 252.689 66.6902 252.356C66.6924 252.323 66.6946 252.292 66.6966 252.262C66.8145 250.531 66.7109 248.682 66.5287 246.621C66.4819 246.092 66.4286 245.537 66.3736 244.966C66.225 243.42 66.0648 241.754 65.9926 240.158C65.7897 235.673 65.9541 231.087 66.1113 226.703C66.1806 224.771 66.2485 222.878 66.2829 221.05C66.285 220.937 66.2724 220.721 66.235 220.159C66.2037 219.691 66.1612 219.041 66.1627 218.371C66.1642 217.716 66.2059 216.868 66.4085 216.001C66.6055 215.159 67.0337 213.954 68.0653 212.95C68.7602 212.274 69.5224 211.95 69.9569 211.793C70.4218 211.625 70.8635 211.527 71.1376 211.471C71.2745 211.443 71.4098 211.417 71.513 211.397L71.5331 211.393C71.6499 211.371 71.7287 211.356 71.7981 211.341C71.8224 211.336 71.8419 211.332 71.8572 211.329C72.129 211.223 72.406 211.114 72.688 211.003C73.7829 210.573 74.9538 210.114 76.1905 209.669C76.0172 209.541 75.8454 209.414 75.6748 209.288C74.3226 208.287 73.0472 207.344 71.7047 206.439C69.0931 204.678 69.5056 201.781 69.6494 201.024C69.7526 200.48 69.9073 200.004 70.0009 199.725C70.0992 199.432 70.1197 199.374 70.1185 199.383C70.8756 196.372 71.9464 193.465 73.5583 190.561C74.0027 189.76 74.4808 188.994 74.9036 188.32C74.9269 188.283 74.95 188.246 74.973 188.209C75.3842 187.553 75.741 186.984 76.0656 186.415C76.7523 185.212 77.1027 184.327 77.2068 183.537C77.4938 181.359 79.4917 179.827 81.6693 180.114ZM84.2097 207.564C84.2406 207.559 84.259 207.557 84.263 207.557L84.2637 207.557C84.2457 207.559 84.2277 207.562 84.2097 207.564Z" fill="#3A2D14"/>
<path fill-rule="evenodd" clip-rule="evenodd" d="M69.6407 175.737C70.5533 175.524 71.7576 175.335 73.1459 175.518C73.6846 175.589 74.1838 175.765 74.6258 176.022C78.7104 176.461 82.5482 177.717 85.7474 179.541C90.5805 182.298 94.7744 186.897 94.8555 192.69C94.963 200.365 94.3359 208.019 93.4407 215.442C92.732 221.319 91.9293 227.18 91.1263 233.004C90.5882 236.907 89.9485 240.857 89.1156 244.783C88.3963 248.172 86.8302 251.424 83.8586 254.23C80.7577 257.159 76.2139 258.592 71.8372 258.946C67.3857 259.306 62.4973 258.609 58.3076 256.626C53.946 254.562 51.5995 251.531 50.4306 248.178C49.5623 245.688 49.3767 242.972 49.2448 241.041C49.2186 240.657 49.1944 240.304 49.1675 239.99C48.7082 234.639 48.5264 229.415 48.9576 223.978C49.2738 219.992 49.8505 215.957 50.4053 212.075C50.6295 210.506 50.8502 208.962 51.0486 207.456C51.2118 206.218 51.352 204.811 51.5003 203.323C51.7828 200.488 52.0947 197.358 52.6507 194.54C53.5589 189.937 55.2372 185.148 58.95 180.873L61.9526 183.481L58.95 180.873C60.7333 178.82 63.4355 177.549 65.8908 176.77C66.4013 176.413 67.0035 176.17 67.6646 176.086C68.0302 176.039 68.3955 175.999 68.7604 175.967C69.0227 175.892 69.3248 175.81 69.6407 175.737ZM70.168 183.838C69.9725 183.892 69.7607 183.95 69.5461 184.002C67.0688 184.608 65.4867 185.477 64.9552 186.089C62.4599 188.962 61.2022 192.289 60.4541 196.08C59.9575 198.597 59.7295 200.946 59.4851 203.464C59.3316 205.046 59.1715 206.695 58.9343 208.495C58.7109 210.19 58.4747 211.842 58.2421 213.469C57.7023 217.244 57.182 220.883 56.8866 224.607C56.5016 229.462 56.6552 234.219 57.0922 239.31C57.1406 239.874 57.1791 240.398 57.2153 240.89C57.353 242.762 57.4566 244.17 57.9411 245.56C58.4251 246.948 59.3205 248.305 61.71 249.436C64.4658 250.741 67.9282 251.283 71.1955 251.018C74.5377 250.748 77.0809 249.691 78.3975 248.448C80.0499 246.887 80.9075 245.146 81.335 243.131C82.1159 239.451 82.7254 235.701 83.247 231.918C84.0506 226.09 84.8445 220.291 85.5441 214.49C86.4164 207.256 87.0031 199.987 86.9024 192.802C86.8774 191.013 85.4405 188.523 81.8072 186.451C78.6745 184.664 74.5018 183.591 70.168 183.838Z" fill="#3A2D14"/>
<path fill-rule="evenodd" clip-rule="evenodd" d="M88.7694 203.78C89.163 200.725 89.4124 197.503 88.9974 194.027C88.7837 192.237 88.4507 190.347 87.8929 188.442C87.8118 188.165 87.56 187.497 87.3293 186.977C87.2267 186.746 87.0035 186.252 86.6969 185.802C86.6083 185.671 86.4647 185.473 86.2668 185.259C86.103 185.082 85.708 184.679 85.0832 184.365C84.4012 184.021 83.0882 183.631 81.6325 184.278C80.3214 184.861 79.7625 185.916 79.5659 186.368C79.2255 187.15 78.9075 187.935 78.6106 188.667C78.6001 188.693 78.5897 188.719 78.5793 188.745C78.2669 189.515 77.9759 190.231 77.6692 190.93C77.5335 191.24 77.3657 191.588 77.1491 192.033C77.1356 192.061 77.1219 192.089 77.108 192.117C76.9114 192.521 76.6815 192.993 76.4601 193.48C75.9951 194.504 75.4553 195.832 75.1941 197.286C74.9259 198.78 74.9185 200.591 75.7246 202.421C76.5389 204.269 77.9892 205.697 79.8436 206.758C82.1279 208.065 82.7725 208.784 83.3739 210.039C83.3804 210.097 83.3946 210.308 83.318 210.781C83.2597 211.141 83.1754 211.514 83.0592 212.028L83.0468 212.083C82.938 212.565 82.7891 213.224 82.7012 213.891C82.4142 216.068 83.9468 218.066 86.1244 218.353C88.302 218.64 90.2999 217.108 90.5869 214.93C90.6202 214.677 90.6869 214.36 90.8055 213.834C90.8138 213.798 90.8224 213.76 90.8312 213.721C90.9342 213.266 91.0704 212.666 91.1698 212.051C91.3805 210.749 91.5521 208.725 90.5863 206.685C90.0537 205.559 89.4545 204.612 88.7694 203.78Z" fill="#3A2D14"/>
<path d="M117.784 220.128L128.107 213.248L141.271 216.323L147.503 222.812L143.616 262.942L124.761 286.993L111.598 283.918L106.463 268.588L112.424 243.073L117.784 220.128Z" fill="#EFEBD2"/>
<path fill-rule="evenodd" clip-rule="evenodd" d="M143.601 213.802C145.74 214.302 147.069 216.441 146.569 218.58C146.033 220.876 144.857 222.73 143.788 224.175C143.29 224.848 142.762 225.5 142.296 226.077C142.259 226.122 142.223 226.167 142.188 226.211C141.674 226.847 141.23 227.401 140.834 227.951C139.42 229.913 138.376 231.94 137.536 234.159C138.404 234.885 139.244 235.611 140.055 236.311C140.301 236.524 140.545 236.734 140.785 236.941C140.923 237.06 141.06 237.177 141.195 237.294C142.548 238.46 143.779 239.521 145.141 240.577C145.121 240.561 145.138 240.571 145.54 240.841C145.805 241.018 146.24 241.314 146.636 241.641C146.829 241.802 147.119 242.055 147.399 242.38L147.4 242.381C147.576 242.586 148.258 243.377 148.446 244.598C148.56 245.333 148.496 246.263 148.006 247.176C147.533 248.057 146.847 248.578 146.315 248.865C146.027 249.021 145.741 249.132 145.474 249.211C145.454 250.032 145.319 250.695 145.272 250.926C145.266 250.956 145.261 250.979 145.258 250.994C144.772 253.696 144.083 256.461 143.435 259.066C143.146 260.227 142.865 261.357 142.613 262.435C142.312 263.724 142.021 265.082 141.722 266.481C140.911 270.27 140.036 274.359 138.714 278.191C138.671 278.316 138.634 278.469 138.557 278.784C138.509 278.979 138.446 279.236 138.357 279.586C138.171 280.324 137.9 281.319 137.486 282.319C136.725 284.158 134.91 287.298 130.94 287.642L130.923 287.644C130.474 287.683 129.835 287.739 129.26 287.712C129.136 287.707 128.939 287.696 128.694 287.661C128.615 287.784 128.524 287.92 128.451 288.018C128.208 288.297 127.394 288.952 126.787 289.253C125.708 289.511 123.557 289.112 122.649 288.49C122.198 288.003 121.675 287.12 121.547 286.778C121.381 286.267 121.361 285.834 121.358 285.755L121.358 285.747C121.346 285.507 121.359 285.314 121.362 285.274L121.362 285.27C121.381 285.006 121.457 284.545 121.511 284.219C121.516 284.186 121.521 284.155 121.526 284.125C121.805 282.43 121.864 280.589 121.861 278.516C121.86 277.987 121.854 277.429 121.848 276.855C121.833 275.296 121.816 273.61 121.886 272.005C122.081 267.503 122.673 262.935 123.238 258.578C123.486 256.662 123.729 254.787 123.931 252.976C123.931 252.976 123.932 252.97 123.933 252.957C123.934 252.945 123.935 252.927 123.937 252.903C123.94 252.856 123.943 252.794 123.946 252.714C123.951 252.564 123.955 252.4 123.959 252.188L123.961 252.101C123.971 251.63 123.985 250.972 124.048 250.296C124.11 249.635 124.233 248.775 124.533 247.911C124.828 247.061 125.404 245.887 126.583 244.998C127.36 244.412 128.162 244.184 128.604 244.083C129.084 243.972 129.537 243.926 129.824 243.901C129.968 243.888 130.11 243.878 130.22 243.869L130.241 243.868C130.366 243.859 130.453 243.852 130.531 243.845C130.575 243.841 130.606 243.838 130.627 243.835C130.929 243.758 131.236 243.679 131.549 243.598C132.716 243.297 133.956 242.977 135.259 242.679C135.114 242.554 134.97 242.429 134.827 242.306C133.498 241.158 132.238 240.07 130.905 239.015C128.408 237.037 129.05 234.182 129.298 233.35C129.46 232.805 129.671 232.336 129.795 232.067C129.916 231.806 129.947 231.739 129.949 231.741C131.023 228.813 132.419 226.023 134.381 223.3C134.923 222.548 135.497 221.836 136.002 221.211C136.03 221.177 136.057 221.143 136.084 221.109C136.577 220.5 137.002 219.974 137.393 219.445C138.223 218.324 138.652 217.505 138.824 216.77C139.324 214.632 141.462 213.303 143.601 213.802Z" fill="#3A2D14"/>
<path fill-rule="evenodd" clip-rule="evenodd" d="M131.514 208.111C132.47 208.003 133.697 207.954 135.067 208.274C135.598 208.398 136.079 208.623 136.494 208.924C140.721 209.799 144.617 211.463 147.79 213.623C152.514 216.838 156.538 221.853 156.089 227.723C155.503 235.398 154.145 242.969 152.528 250.275C151.248 256.057 149.871 261.812 148.498 267.528C147.576 271.363 146.544 275.235 145.309 279.061C144.231 282.406 142.268 285.491 138.895 287.955C135.401 290.508 130.564 291.413 126.007 291.282C121.364 291.148 116.37 289.926 112.221 287.524C107.925 285.038 105.743 281.809 104.814 278.313C104.124 275.716 104.177 272.962 104.214 271.023C104.221 270.639 104.228 270.287 104.228 269.975C104.233 264.584 104.518 259.344 105.469 253.956C106.165 250.009 107.141 246.04 108.077 242.229C108.455 240.692 108.827 239.18 109.171 237.706C109.501 236.296 109.78 234.881 110.076 233.379C110.19 232.804 110.306 232.216 110.428 231.61C110.857 229.486 111.349 227.233 112.033 224.995C113.416 220.478 115.63 215.865 119.929 212.007C121.985 210.162 124.924 209.207 127.55 208.713C128.092 208.422 128.71 208.253 129.367 208.242C129.763 208.236 130.157 208.238 130.551 208.246C130.838 208.2 131.169 208.151 131.514 208.111ZM131.057 216.222C130.838 216.257 130.601 216.292 130.361 216.322C127.662 216.656 125.873 217.361 125.241 217.927C122.369 220.504 120.761 223.656 119.639 227.322C119.072 229.177 118.641 231.121 118.224 233.185C118.118 233.709 118.012 234.247 117.904 234.795C117.599 236.342 117.28 237.96 116.917 239.516C116.526 241.186 116.127 242.809 115.734 244.407C114.825 248.106 113.95 251.665 113.302 255.338C112.458 260.118 112.187 264.864 112.182 269.982C112.182 270.555 112.175 271.085 112.168 271.581C112.142 273.458 112.123 274.849 112.501 276.271C112.877 277.685 113.7 279.191 116.205 280.64C119.051 282.288 122.716 283.23 126.236 283.332C129.844 283.436 132.677 282.648 134.203 281.533C136.084 280.158 137.122 278.535 137.739 276.62C138.892 273.045 139.873 269.38 140.764 265.67C142.139 259.95 143.5 254.259 144.762 248.556C146.336 241.447 147.611 234.277 148.159 227.116C148.289 225.415 147.044 222.737 143.315 220.198C140.116 218.02 135.733 216.455 131.057 216.222Z" fill="#3A2D14"/>
<path fill-rule="evenodd" clip-rule="evenodd" d="M148.697 238.068C149.384 235.078 149.935 231.893 149.815 228.383C149.754 226.567 149.575 224.638 149.161 222.669C149.1 222.378 148.895 221.68 148.7 221.136C148.612 220.891 148.423 220.376 148.145 219.898C148.143 219.895 148.14 219.89 148.137 219.884C148.061 219.75 147.599 218.935 146.669 218.368C146.053 217.992 144.847 217.505 143.391 217.948C142.029 218.363 141.337 219.33 141.065 219.801C140.635 220.546 140.228 221.294 139.85 221.991C139.837 222.015 139.823 222.04 139.81 222.065C139.411 222.798 139.042 223.477 138.657 224.138C138.488 224.428 138.282 224.754 138.014 225.174C137.997 225.2 137.98 225.227 137.963 225.254C137.72 225.634 137.434 226.081 137.156 226.544C136.573 227.515 135.875 228.796 135.46 230.243C135.032 231.74 134.86 233.583 135.548 235.517C136.234 237.45 137.611 239 139.404 240.224C141.724 241.808 142.363 242.629 142.883 243.949C142.882 244.016 142.868 244.211 142.764 244.602C142.672 244.948 142.551 245.305 142.381 245.808L142.363 245.861C142.206 246.327 141.987 246.976 141.831 247.641C141.332 249.779 142.661 251.918 144.799 252.418C146.938 252.918 149.077 251.589 149.577 249.45C149.632 249.213 149.728 248.913 149.9 248.402C149.913 248.366 149.925 248.329 149.938 248.291C150.087 247.85 150.287 247.26 150.449 246.651C150.796 245.351 151.165 243.311 150.326 241.143C149.872 239.968 149.333 238.965 148.697 238.068Z" fill="#3A2D14"/>
<path fill-rule="evenodd" clip-rule="evenodd" d="M38.9122 278.871C41.1086 278.871 42.8891 280.651 42.8891 282.848C42.8891 285.884 43.1501 288.161 43.8476 290.062C44.5105 291.868 45.6489 293.551 47.7918 295.241C53.2361 299.535 59.5043 302.861 65.8727 303.676C69.0288 304.079 72.1759 304.037 75.6112 303.99C76.7547 303.975 77.93 303.959 79.1483 303.959C81.3447 303.959 83.1252 305.74 83.1252 307.936C83.1252 310.132 81.3447 311.913 79.1483 311.913C78.1801 311.913 77.166 311.927 76.1196 311.942C72.562 311.992 68.6314 312.047 64.8635 311.565C56.5463 310.501 48.9465 306.282 42.8661 301.486C39.6586 298.956 37.5886 296.093 36.3808 292.802C35.2075 289.605 34.9353 286.234 34.9353 282.848C34.9353 280.651 36.7158 278.871 38.9122 278.871Z" fill="#3A2D14"/>
<path fill-rule="evenodd" clip-rule="evenodd" d="M87.554 290.651C89.5185 291.634 90.3148 294.022 89.3325 295.987C87.5023 299.647 86.6747 302.9 86.9297 306.725C87.04 308.38 87.4562 309.956 87.9894 311.977C88.022 312.1 88.0551 312.225 88.0885 312.352C88.6346 314.426 89.279 316.962 89.279 319.77C89.279 321.967 87.4985 323.747 85.3021 323.747C83.1057 323.747 81.3252 321.967 81.3252 319.77C81.3252 318.104 80.9472 316.467 80.3969 314.378C80.3538 314.214 80.3092 314.046 80.2638 313.875C79.766 312.001 79.1571 309.709 78.9935 307.254C78.6247 301.722 79.9033 297.06 82.2184 292.43C83.2007 290.465 85.5895 289.669 87.554 290.651Z" fill="#3A2D14"/>
</svg>
