<svg width="155" height="188" viewBox="0 0 155 188" fill="none" xmlns="http://www.w3.org/2000/svg">
<path d="M16.2468 64.1629C18.1992 60.0524 30.3475 43.9429 31.7223 41.4246C36.6574 31.3866 36.0272 24.8589 43.7094 16.0864C47.2193 12.0783 52.1781 4.08174 57.329 2.36616C64.0551 0.125944 74.8684 1.71624 78.8748 7.94349C83.0253 14.3946 78.9901 27.5443 80.1028 35.0493C82.9407 54.1897 100.322 47.8368 109.24 36.9456C117.303 27.0987 122.558 0.123895 137.93 6.38184C146.675 9.94144 152.443 22.5702 152.443 31.2567C152.443 53.0382 154.363 75.7036 150.434 97.1807C144.812 127.908 107.298 220.754 65.1436 172.252C54.7371 160.278 43.7731 168.08 27.4543 162.435C12.968 157.425 7.6495 151.295 2.44782 136.445C-2.32154 122.829 10.4607 76.3453 16.2468 64.1629Z" fill="#DFE6EF"/>
<path fill-rule="evenodd" clip-rule="evenodd" d="M69.4161 0.609412C73.6547 1.54821 77.7573 3.63846 80.0319 7.17365C81.2345 9.04278 81.797 11.3172 82.0307 13.6851C82.2651 16.0598 82.1778 18.6355 82.0008 21.1739C81.9156 22.3956 81.8084 23.6234 81.7036 24.8235L81.6905 24.9735C81.5811 26.226 81.4755 27.4466 81.3981 28.6245C81.2423 30.9964 81.2082 33.1045 81.4639 34.8294C82.1446 39.4199 83.6663 42.2676 85.5147 43.9096C87.3403 45.5313 89.6536 46.1269 92.2652 45.8767C97.5934 45.3662 103.866 41.3344 108.187 36.0575C110.087 33.7368 111.865 30.3456 113.74 26.5115C114.089 25.799 114.44 25.0723 114.796 24.3374C116.324 21.1785 117.924 17.8697 119.675 14.9022C121.826 11.2566 124.309 7.93464 127.365 5.95293C130.52 3.90751 134.205 3.34572 138.471 5.08205C143.252 7.02804 147.083 11.3783 149.701 16.2194C152.326 21.0736 153.845 26.6268 153.845 31.237C153.845 36.5314 153.961 41.9032 154.077 47.3149C154.436 64.0082 154.804 81.0807 151.813 97.4281C148.971 112.959 138.116 144.064 122.614 165.259C114.879 175.836 105.815 184.182 95.8009 186.665C85.6126 189.192 74.8664 185.562 64.1005 173.176C61.6353 170.339 59.1827 168.721 56.664 167.766C54.1223 166.803 51.4389 166.488 48.4484 166.364C47.3206 166.317 46.1489 166.299 44.9327 166.28C39.7653 166.201 33.7951 166.109 26.9861 163.754C19.6287 161.21 14.4469 158.329 10.4448 154.09C6.45551 149.865 3.74677 144.403 1.12233 136.911C-0.178148 133.199 -0.237877 127.473 0.381472 120.997C1.0071 114.455 2.35144 106.925 4.02056 99.4678C7.35168 84.5851 12.0219 69.7961 14.982 63.5641C15.5221 62.427 16.7085 60.5637 18.1334 58.451C19.579 56.3077 21.3324 53.8176 23.0605 51.3875C23.7809 50.3744 24.4955 49.3737 25.1825 48.4117C26.149 47.0583 27.0609 45.7813 27.8575 44.6539C29.2247 42.7192 30.1747 41.3322 30.485 40.7737C32.2474 37.1841 33.2652 34.1017 34.2551 31.1036C34.6202 29.9978 34.9816 28.9034 35.3751 27.7993C36.8337 23.7069 38.6723 19.7128 42.6619 15.1572C43.495 14.206 44.4211 13.0115 45.4517 11.6822L45.4952 11.626C46.532 10.2887 47.6619 8.83377 48.8482 7.44707C51.1703 4.73285 53.9138 2.02419 56.8866 1.03411C60.5182 -0.175394 65.1609 -0.333084 69.4161 0.609412ZM32.5336 42.6968C32.6245 42.6009 32.7029 42.4902 32.7651 42.366C32.8241 42.2481 32.8823 42.1307 32.9398 42.0138L31.7054 41.4079L32.9398 42.0138C34.8016 38.2271 35.907 34.8787 36.9145 31.8272C37.2676 30.7574 37.6088 29.7242 37.9662 28.7213C39.3479 24.8448 41.0365 21.1865 44.7319 16.9669C45.6199 15.9528 46.5893 14.7024 47.5925 13.4085L47.6696 13.309C48.7114 11.9652 49.8022 10.5614 50.939 9.23271C53.2631 6.51609 55.5764 4.36724 57.7563 3.64121C60.8532 2.60982 64.9834 2.44245 68.8209 3.2924C72.675 4.14606 75.9849 5.96577 77.7183 8.65972C78.5916 10.0171 79.0815 11.8069 79.2935 13.9548C79.5048 16.0959 79.431 18.4878 79.2569 20.9829C79.1735 22.18 79.0681 23.3862 78.9628 24.5926L78.9504 24.7347C78.8413 25.9835 78.7332 27.2327 78.6535 28.4445C78.4954 30.852 78.4423 33.2033 78.7431 35.2321C79.4819 40.2147 81.1982 43.7525 83.6872 45.9634C86.1989 48.1946 89.3224 48.9193 92.5277 48.6123C98.8332 48.0082 105.715 43.4153 110.316 37.7977C112.448 35.1935 114.352 31.5182 116.211 27.7183C116.573 26.9797 116.933 26.235 117.294 25.4889C118.819 22.3365 120.357 19.1575 122.044 16.2977C124.138 12.7488 126.356 9.88309 128.863 8.25825C131.271 6.69713 134.01 6.23348 137.433 7.62707C141.4 9.24177 144.827 12.9882 147.281 17.5258C149.728 22.0503 151.095 27.158 151.095 31.237C151.095 36.6662 151.212 42.1246 151.329 47.5881C151.685 64.2136 152.043 80.8871 149.107 96.934C146.325 112.14 135.605 142.84 120.394 163.637C112.773 174.056 104.197 181.752 95.1385 183.998C86.2544 186.201 76.496 183.246 66.1772 171.374C63.4372 168.221 60.615 166.324 57.6392 165.197C54.6863 164.078 51.6556 163.746 48.5622 163.618C47.3306 163.567 46.0885 163.547 44.8275 163.526C39.6911 163.443 34.2391 163.355 27.8858 161.157C20.7516 158.69 16.0274 155.998 12.4455 152.205C8.85081 148.397 6.29754 143.366 3.71841 136.003C2.63335 132.906 2.50229 127.712 3.1195 121.258C3.73043 114.87 5.05 107.461 6.70475 100.068C10.0214 85.2496 14.6387 70.6965 17.4668 64.7424C17.9033 63.8236 18.9683 62.1307 20.4143 59.9867C21.8397 57.8734 23.5765 55.4066 25.3027 52.9792C26.0152 51.9772 26.7274 50.9799 27.4141 50.0182C28.3853 48.6581 29.3057 47.3693 30.1045 46.2389C31.1325 44.7841 32.0059 43.5271 32.5336 42.6968Z" fill="#3A2D14"/>
<path d="M74.5847 14.579C74.5847 13.5481 71.8297 9.841 71.7382 9.65368C71.2645 8.68342 68.7999 7.66543 67.8205 7.36299C64.4558 6.32394 65.1587 7.68887 62.8645 10.3796C60.8139 12.7845 59.2619 15.5685 57.8823 18.3906C56.4738 21.272 54.8255 24.5426 53.9052 27.6193C52.8177 31.2549 51.9449 34.9491 51.3558 38.6757C52.4447 38.9429 54.9666 39.6149 56.3423 40.1647C58.062 40.852 65.9727 35.5831 67.3485 35.1249C68.7242 34.6667 71.7382 31.4596 72.9662 30.1996C74.1942 28.9397 75.1445 26.0761 75.6031 24.8162C76.0617 23.5562 75.7177 21.0363 75.6031 18.3906C75.5114 16.274 74.8859 14.9676 74.5847 14.579Z" fill="white"/>
<path fill-rule="evenodd" clip-rule="evenodd" d="M65.8597 5.6167C66.5589 5.57902 67.3411 5.75241 68.2131 6.02169C68.7775 6.19597 69.7157 6.55686 70.5907 7.01047C71.0292 7.23782 71.4861 7.50594 71.8831 7.80606C72.2335 8.07097 72.6593 8.45019 72.9253 8.94839C72.9438 8.97582 72.9707 9.01504 73.0076 9.06834C73.0512 9.13125 73.1001 9.2013 73.1564 9.28192C73.2106 9.35963 73.2717 9.44716 73.3416 9.54759C73.6157 9.94192 73.9787 10.4695 74.3409 11.0278C74.7001 11.5812 75.0741 12.1886 75.3631 12.7398C75.5071 13.0146 75.6428 13.2994 75.7455 13.5721C75.7951 13.7038 75.852 13.8703 75.8935 14.0564C76.3674 14.8565 76.884 16.3215 76.9703 18.3118C76.9981 18.9535 77.0398 19.5899 77.0811 20.2184L77.0815 20.2257C77.1225 20.8501 77.1633 21.4722 77.1857 22.0537C77.2278 23.1486 77.2227 24.3537 76.8887 25.2716C76.8512 25.3745 76.8092 25.4919 76.7628 25.6214C76.5395 26.2451 76.2165 27.1474 75.8268 28.0434C75.3709 29.0914 74.7446 30.3253 73.9424 31.1484C73.839 31.2545 73.7208 31.3766 73.5904 31.5114C72.9666 32.1561 72.0611 33.0918 71.1451 33.9548C70.5903 34.4775 70.0102 34.9941 69.4658 35.4172C68.9573 35.8123 68.3529 36.2282 67.7695 36.4225L67.7695 36.4226C67.7678 36.4231 67.7531 36.4284 67.7224 36.4413C67.6899 36.455 67.6473 36.4741 67.5935 36.4997C67.4849 36.5512 67.3483 36.6207 67.1824 36.7087C66.8502 36.8852 66.4365 37.1173 65.956 37.3909C65.7401 37.5138 65.5115 37.6447 65.2731 37.7811C64.4636 38.2443 63.541 38.7724 62.6154 39.2767C61.4215 39.9274 60.1705 40.5678 59.0879 41.0035C58.5489 41.2204 58.0076 41.4048 57.5096 41.5076C57.0664 41.5991 56.4162 41.6809 55.8087 41.4382C54.9621 41.0998 53.6051 40.6987 52.4681 40.3887C51.5865 46.8408 51.5991 53.353 52.8572 59.7951C53.9535 65.4083 56.9811 71.1815 61.2585 75.4345C65.53 79.6817 70.9502 82.3261 76.8596 81.9452C84.0651 81.4808 91.2847 79.8133 98.3175 77.846C100.399 77.2637 102.707 76.5684 104.858 75.6418C107.02 74.7108 108.931 73.5843 110.28 72.1871C112.454 69.9346 113.6 67.0899 114.194 63.9469C114.792 60.786 114.816 57.4242 114.816 54.1796C114.816 51.2023 115.129 48.4636 115.816 45.5679C118.033 36.2138 119.401 24.6421 120.566 14.7811C120.614 14.3822 120.66 13.9862 120.707 13.5931C120.796 12.8387 121.481 12.2995 122.236 12.3887C122.991 12.478 123.531 13.1619 123.441 13.9163C123.393 14.3287 123.343 14.7449 123.294 15.1647C122.134 24.9763 120.75 36.6886 118.495 46.2019C117.859 48.8857 117.569 51.4114 117.569 54.1796C117.569 57.3945 117.552 61.0062 116.9 64.4577C116.243 67.9272 114.928 71.3339 112.262 74.0967C110.553 75.867 108.267 77.1693 105.948 78.168C103.619 79.1711 101.164 79.9064 99.0599 80.4951C91.964 82.4801 84.528 84.2077 77.0369 84.6905C70.1425 85.1349 63.9903 82.032 59.3161 77.3844C54.6477 72.7426 51.3561 66.4734 50.1547 60.322C48.7267 53.0106 48.8314 45.6576 49.9699 38.4563C50.5703 34.6591 51.4584 30.9021 52.562 27.2128C53.4511 24.2406 54.9827 21.1164 56.3074 18.4142C56.4145 18.1959 56.5201 17.9803 56.624 17.7677C58.0218 14.9083 59.6349 12.0005 61.7989 9.46261C62.3103 8.86277 62.6563 8.33615 62.9523 7.86712C62.9848 7.81565 63.0183 7.76194 63.0529 7.70656C63.2965 7.31636 63.5919 6.84312 63.9366 6.48795C64.4287 5.981 65.0487 5.66043 65.8597 5.6167ZM52.8951 37.6541C54.1015 37.9776 55.6776 38.4336 56.7352 38.846C56.7723 38.8436 56.8421 38.8364 56.9523 38.8136C57.222 38.7579 57.5922 38.6397 58.059 38.4518C58.9877 38.078 60.1246 37.5005 61.2969 36.8617C62.1946 36.3724 63.0825 35.8643 63.8885 35.4031C64.1314 35.2641 64.3668 35.1294 64.5928 35.0007C65.075 34.7262 65.5191 34.4766 65.89 34.2796C66.2323 34.0979 66.6023 33.9115 66.8988 33.8127C67.0038 33.7778 67.2928 33.6206 67.7754 33.2456C68.2221 32.8985 68.731 32.448 69.256 31.9534C70.1202 31.1392 70.97 30.2612 71.5958 29.6146C71.7317 29.4742 71.857 29.3448 71.9696 29.2292C72.3963 28.7915 72.8598 27.9621 73.3014 26.947C73.6506 26.1441 73.9361 25.3475 74.1604 24.7217C74.2102 24.5825 74.2571 24.4519 74.3009 24.3315C74.4258 23.9884 74.4781 23.3023 74.4342 22.1593C74.4135 21.6218 74.3754 21.0382 74.3339 20.4057L74.3326 20.3851C74.2919 19.7651 74.2484 19.1031 74.2193 18.4308C74.1787 17.4943 74.021 16.7593 73.8529 16.236C73.7687 15.9738 73.6833 15.7689 73.6113 15.6213C73.537 15.4688 73.4891 15.402 73.4872 15.3992L73.4871 15.3991L73.1989 15.0273V14.6296C73.1933 14.6109 73.1838 14.5819 73.1685 14.5413C73.1201 14.4129 73.0397 14.2371 72.9238 14.0161C72.693 13.5758 72.372 13.0506 72.0305 12.5242C71.692 12.0027 71.3486 11.5032 71.0801 11.117C71.0181 11.0279 70.9572 10.9406 70.9015 10.8608C70.8412 10.7743 70.7869 10.6966 70.7439 10.6346C70.7012 10.5729 70.6614 10.515 70.6294 10.4671C70.629 10.4665 70.6283 10.4655 70.6274 10.4642C70.6139 10.4442 70.5465 10.3449 70.4948 10.2414C70.496 10.2439 70.4966 10.2452 70.4963 10.2454C70.4944 10.2467 70.4328 10.1594 70.2216 9.99977C69.9922 9.82634 69.6823 9.63882 69.3225 9.45228C68.6008 9.07813 67.8157 8.77833 67.4 8.64996C66.5884 8.39934 66.1959 8.35355 66.0081 8.36367C65.9673 8.36587 65.9545 8.36521 65.9452 8.37056C65.9372 8.37514 65.9317 8.38413 65.9133 8.40312C65.7858 8.53444 65.6606 8.73309 65.3618 9.20707C65.3363 9.24744 65.3096 9.28981 65.2815 9.33431C64.9585 9.84619 64.5315 10.5 63.895 11.2465C61.9549 13.5219 60.4616 16.1861 59.0983 18.9749C58.9999 19.1761 58.9008 19.3784 58.8013 19.5817C57.4537 22.3325 56.0207 25.2578 55.2002 28.0005C54.2476 31.1852 53.464 34.4089 52.8951 37.6541ZM72.9011 8.91153C72.9014 8.91178 72.9041 8.91598 72.9086 8.92333C72.9031 8.91495 72.9009 8.91127 72.9011 8.91153Z" fill="#3A2D14"/>
<path fill-rule="evenodd" clip-rule="evenodd" d="M136.364 10.8931C136.746 11.2095 137.171 11.561 137.708 11.9807C138.307 12.4495 138.41 13.3115 137.937 13.906C137.464 14.5004 136.595 14.6022 135.995 14.1334C135.437 13.6968 134.939 13.2852 134.535 12.9517C134.335 12.7861 134.158 12.6397 134.008 12.5191C133.818 12.3657 133.667 12.2487 133.541 12.1595C133.425 12.3214 133.266 12.5671 133.048 12.9362C130.151 17.8363 128.875 24.7644 128.197 30.529C127.932 32.7805 127.829 34.9845 127.724 37.2409C127.658 38.6517 127.592 40.0831 127.484 41.5594C127.345 43.4622 127.088 45.3417 126.838 47.1726L126.812 47.3646C126.552 49.2709 126.303 51.1272 126.182 52.9947C125.774 59.2853 125.376 65.6721 125.376 71.9247C125.376 74.2279 125.78 79.2466 127.204 83.0113C127.925 84.9166 128.818 86.2577 129.822 86.8909C130.678 87.4304 131.863 87.6097 133.727 86.5475C135.513 85.5292 136.819 83.7655 137.885 81.6004C138.717 79.9086 139.345 78.1028 139.953 76.3516C140.129 75.8449 140.304 75.3428 140.481 74.8494C140.571 74.6004 140.66 74.3521 140.749 74.1044C142.666 68.7762 144.488 63.7145 145.689 58.2702C145.852 57.5306 146.589 57.0622 147.335 57.224C148.081 57.3857 148.554 58.1165 148.391 58.8561C147.151 64.4761 145.275 69.6883 143.371 74.9767C143.276 75.2409 143.181 75.5053 143.086 75.7699C142.929 76.2062 142.768 76.6693 142.601 77.1507C141.986 78.9225 141.285 80.9438 140.37 82.8024C139.199 85.1824 137.584 87.5114 135.105 88.9243C132.575 90.3667 130.261 90.4166 128.338 89.2043C126.564 88.0858 125.401 86.0531 124.615 83.9741C123.024 79.7702 122.61 74.3788 122.61 71.9247C122.61 65.5714 123.015 59.1005 123.422 52.8188C123.55 50.8411 123.812 48.8931 124.071 46.9969L124.093 46.8362C124.346 44.9817 124.593 43.1772 124.725 41.3612C124.822 40.0419 124.887 38.6716 124.952 37.2806C125.063 34.935 125.177 32.5303 125.45 30.2113C126.131 24.4236 127.448 16.9863 130.662 11.5497C131.04 10.9104 131.436 10.2845 131.898 9.87042C132.154 9.64071 132.489 9.41923 132.917 9.31672C133.357 9.21139 133.768 9.26165 134.119 9.37616C134.72 9.57216 135.286 10.0152 135.753 10.392C135.952 10.5519 136.151 10.7171 136.364 10.8931Z" fill="#3A2D14"/>
<path fill-rule="evenodd" clip-rule="evenodd" d="M133.872 12.9704C133.396 13.1653 132.84 13.5891 132.413 14.2421C131.998 14.8758 131.15 15.0515 130.52 14.6344C129.889 14.2173 129.715 13.3654 130.13 12.7317C130.841 11.6454 131.82 10.8436 132.842 10.4256C133.819 10.0263 135.098 9.89115 136.127 10.6299C137.382 11.5306 138.381 12.7093 139.232 13.8772C139.66 14.464 140.063 15.0653 140.444 15.6404C140.499 15.7235 140.554 15.8059 140.608 15.8876C140.934 16.3794 141.243 16.8468 141.557 17.2939C143.531 20.1088 144.59 23.3781 145.564 26.3877C145.651 26.6559 145.737 26.9221 145.823 27.1856C146.039 27.8469 146.265 28.5233 146.494 29.2114C147.656 32.6975 148.918 36.4823 149.556 40.1178C150.038 42.8621 149.789 45.3765 149.452 47.7549C149.386 48.2199 149.317 48.677 149.249 49.1292C148.963 51.0334 148.689 52.8514 148.689 54.812C148.689 57.3075 148.322 59.9223 147.256 63.0426C147.011 63.7601 146.233 64.1419 145.519 63.8954C144.806 63.6489 144.426 62.8675 144.671 62.15C145.639 59.3176 145.956 57.0045 145.956 54.812C145.956 52.6245 146.268 50.5588 146.557 48.6408C146.622 48.2086 146.686 47.7839 146.746 47.367C147.074 45.0556 147.268 42.8956 146.865 40.5952C146.265 37.181 145.083 33.6303 143.921 30.1424C143.687 29.4395 143.454 28.739 143.226 28.0427C143.145 27.7951 143.065 27.5485 142.986 27.3033C141.983 24.2176 141.048 21.3365 139.323 18.8768C138.986 18.3971 138.654 17.8951 138.329 17.4051C138.276 17.3244 138.223 17.2441 138.17 17.1642C137.79 16.5913 137.416 16.0345 137.027 15.5012C136.246 14.4288 135.449 13.5187 134.539 12.8655C134.542 12.8678 134.543 12.8689 134.543 12.8691C134.542 12.8715 134.349 12.7753 133.872 12.9704Z" fill="#3A2D14"/>
<path fill-rule="evenodd" clip-rule="evenodd" d="M40.1566 101.694C40.1646 101.758 40.1706 101.805 40.1739 101.833C40.64 105.78 41.8871 109.511 43.1723 113.356C43.2837 113.69 43.3955 114.024 43.507 114.359C46.7488 124.106 50.127 132.374 58.0655 138.853C60.81 141.093 63.9865 142.665 67.2418 144.276C67.6855 144.495 68.1306 144.716 68.5763 144.938C68.9727 145.136 69.1334 145.618 68.9352 146.015C68.737 146.411 68.2549 146.572 67.8584 146.373C67.4208 146.155 66.9796 145.937 66.5363 145.717C63.297 144.116 59.9459 142.459 57.0503 140.096C48.7304 133.306 45.2368 124.646 41.9838 114.865C41.8705 114.524 41.7564 114.183 41.6421 113.842C40.3657 110.025 39.0663 106.141 38.5798 102.021C38.5771 101.998 38.572 101.958 38.5648 101.901C38.4883 101.299 38.1826 98.8886 38.1587 96.8176C38.1522 96.2477 38.1666 95.6884 38.2156 95.1895C38.2634 94.7038 38.3489 94.2184 38.5123 93.8276C38.6623 93.4689 38.9999 92.9217 39.6797 92.8724C40.275 92.8293 40.7631 93.2156 41.1092 93.5758C42.9967 95.5398 44.5698 97.8609 46.0549 100.176C46.3503 100.636 46.6417 101.096 46.9315 101.552C48.1122 103.414 49.2645 105.23 50.5342 106.881C53.3884 110.594 56.5183 114.071 59.6728 117.575C60.0896 118.038 60.5068 118.501 60.9239 118.966C61.2199 119.296 61.1925 119.803 60.8626 120.099C60.5328 120.395 60.0253 120.367 59.7293 120.037C59.3139 119.575 58.8974 119.112 58.4804 118.649C55.3304 115.15 52.1563 111.624 49.2615 107.859C47.9432 106.144 46.7419 104.25 45.558 102.384C45.2727 101.934 44.9884 101.486 44.7038 101.042C43.224 98.7355 41.7221 96.5296 39.9517 94.6874C39.9423 94.6776 39.9332 94.6683 39.9243 94.6593C39.8805 94.8296 39.8414 95.0578 39.813 95.3464C39.7717 95.7665 39.7576 96.2627 39.7637 96.7992C39.7864 98.7614 40.0766 101.061 40.1566 101.694ZM40.0374 94.3594C40.0375 94.3598 40.0352 94.3636 40.0303 94.3695C40.0349 94.362 40.0373 94.359 40.0374 94.3594Z" fill="#3A2D14"/>
<path fill-rule="evenodd" clip-rule="evenodd" d="M109.87 120.756C110.098 121.136 109.975 121.63 109.594 121.858C105.224 124.482 101.835 125.914 96.4125 126.406C93.6688 126.655 91.9503 126.668 90.2679 126.629C89.8619 126.62 89.4609 126.608 89.0498 126.595C87.7629 126.556 86.3779 126.514 84.4365 126.548C83.7214 126.56 83.2216 126.537 82.8634 126.517C82.8339 126.515 82.806 126.513 82.7796 126.512C82.5662 126.5 82.4531 126.493 82.3857 126.492C82.344 126.544 82.2969 126.609 82.2266 126.707C82.1645 126.793 82.0842 126.904 81.9734 127.054C81.7093 127.411 81.2062 127.486 80.8496 127.222C80.4931 126.957 80.4182 126.454 80.6823 126.097C80.7399 126.02 80.797 125.941 80.8527 125.864C80.9884 125.676 81.1159 125.499 81.2224 125.379C81.3141 125.276 81.4333 125.161 81.5925 125.068C81.7591 124.972 81.9273 124.924 82.0883 124.902C82.3075 124.872 82.5797 124.889 82.8326 124.905C82.8739 124.907 82.9147 124.91 82.9547 124.912C83.2874 124.931 83.7454 124.952 84.4087 124.94C86.392 124.906 87.8255 124.95 89.1185 124.989C89.5235 125.001 89.9148 125.013 90.3048 125.022C91.9347 125.06 93.5919 125.048 96.2673 124.805C101.386 124.34 104.543 123.016 108.768 120.48C109.148 120.252 109.642 120.375 109.87 120.756Z" fill="#3A2D14"/>
<path d="M98.5431 53.3716L93.1513 51.9058L89.2217 74.8096V105.776H96.167L101.01 97.6218L104.118 85.6202L105.214 72.2443L102.381 60.6092L98.5431 53.3716Z" fill="#EFEBD2"/>
<path fill-rule="evenodd" clip-rule="evenodd" d="M92.2586 50.5029L99.2878 52.4018L103.423 60.1493L106.337 72.0422L105.215 85.6338L102.038 97.8283L96.7841 106.617H88.0996V74.5906L92.2586 50.5029ZM94.0154 53.2463L90.2978 74.7775V104.428H95.5348L99.9892 96.9761L103.04 85.2664L104.117 72.2166L101.352 60.9351L97.7938 54.267L94.0154 53.2463Z" fill="#3A2D14"/>
<path fill-rule="evenodd" clip-rule="evenodd" d="M91.3442 51.4236C92.3597 51.107 93.2655 51.064 94.1803 51.064C96.103 51.064 97.7364 51.6047 99.1285 52.6693C100.497 53.7162 101.569 55.2209 102.479 57.0501C104.446 61.0028 105.488 64.927 105.842 69.5324C106.379 76.5113 105.932 84.429 104.233 91.1984C103.498 94.1262 102.449 98.1721 100.754 101.492C99.0867 104.757 96.5711 107.739 92.7403 107.739C91.12 107.739 89.1397 107.657 87.2546 107.121C85.3537 106.581 83.4867 105.562 82.1925 103.654C76.9917 95.9847 76.4329 85.345 77.107 76.2378C77.3872 72.451 77.9174 68.1449 78.9064 64.4619C79.5644 62.0112 80.5887 60.1368 82.0326 58.3212C82.3094 57.9732 82.5935 57.6019 82.8863 57.2194C83.8896 55.9086 84.995 54.4644 86.2572 53.3625C87.1923 52.5462 88.2131 52.3536 89.1019 52.3199C89.2901 52.1684 89.5297 52.0777 89.7906 52.0777C89.8457 52.0777 89.9635 52.0541 90.2576 51.9106C90.2998 51.8899 90.351 51.8638 90.4092 51.8341C90.6486 51.7117 91.0062 51.529 91.3442 51.4236ZM91.4641 53.7522C91.324 54.1948 90.9085 54.5157 90.4177 54.5157C90.2144 54.5157 90.0282 54.5137 89.8564 54.5118C88.8009 54.5002 88.2882 54.4946 87.7034 55.0051C86.6228 55.9484 85.705 57.1459 84.7285 58.4198C84.4119 58.833 84.089 59.2542 83.7524 59.6774C82.4746 61.2841 81.5985 62.8934 81.0258 65.0262C80.0882 68.5175 79.5709 72.6684 79.2948 76.3984C78.6269 85.422 79.2498 95.4109 84.0106 102.431C84.9338 103.793 86.2903 104.576 87.8564 105.021C89.4384 105.47 91.1688 105.555 92.7403 105.555C95.2447 105.555 97.2049 103.622 98.7987 100.501C100.365 97.4347 101.363 93.6238 102.105 90.6686C103.736 84.1682 104.177 76.491 103.654 69.6993C103.32 65.3521 102.346 61.7033 100.514 58.0198C99.6857 56.3556 98.7979 55.1709 97.7922 54.4018C96.8098 53.6505 95.6541 53.2485 94.1803 53.2485C93.3381 53.2485 92.6962 53.2912 91.9997 53.5083C91.8562 53.5531 91.7332 53.6156 91.5364 53.7155C91.5134 53.7272 91.4893 53.7394 91.4641 53.7522Z" fill="#3A2D14"/>
<path fill-rule="evenodd" clip-rule="evenodd" d="M92.6681 52.7498C93.259 52.7118 93.7681 53.1707 93.8052 53.7747C93.8565 54.6083 94.0322 55.4841 94.2531 56.4172C94.3169 56.6865 94.3858 56.9653 94.4558 57.2492C94.6198 57.9132 94.7905 58.6045 94.9186 59.2645C95.4216 61.8549 95.8051 64.3868 96.0001 67.0697C96.0197 67.3401 96.0396 67.611 96.0596 67.8824C96.2559 70.5558 96.4557 73.2758 96.4557 76.0131C96.4557 76.4119 96.4685 76.8332 96.4828 77.2829L96.485 77.3511C96.4985 77.7749 96.5128 78.2219 96.5162 78.6691C96.5233 79.6048 96.4848 80.613 96.2692 81.557C96.2218 81.7643 96.1864 82.0422 96.1414 82.3954C96.1106 82.6362 96.0755 82.912 96.029 83.2243C95.978 83.5674 95.9139 83.937 95.8264 84.2699C95.7486 84.566 95.6156 84.9862 95.3536 85.3139C95.1587 85.5578 94.9195 85.6764 94.7632 85.7356C94.5995 85.7975 94.4403 85.8266 94.3144 85.8421C94.0636 85.8731 93.8002 85.8664 93.589 85.8537C93.3698 85.8406 93.1538 85.8171 92.9925 85.7995L92.9774 85.7979C92.8997 85.7894 92.8393 85.7828 92.7889 85.778C92.7475 85.7741 92.73 85.7731 92.7281 85.773C92.6139 85.7734 92.4996 85.7842 92.3784 85.8043C92.8515 86.1426 93.2928 86.4976 93.6912 86.8181C93.7143 86.8368 93.7374 86.8553 93.7603 86.8737C95.1722 88.0091 95.4663 89.9135 95.4293 91.5326C95.391 93.2123 94.9895 94.9648 94.6234 96.2288C94.1292 97.9351 93.4593 99.6933 92.6662 101.24C92.5044 101.555 92.372 101.895 92.2159 102.296C92.1635 102.431 92.1083 102.572 92.0485 102.722C91.8305 103.268 91.5525 103.913 91.1383 104.46C91.0493 104.577 90.9504 104.713 90.8452 104.858C90.6113 105.18 90.346 105.545 90.0873 105.847C89.6792 106.322 89.1622 106.802 88.4546 107.097C87.9064 107.326 87.2808 107.057 87.0572 106.496C86.8336 105.936 87.0968 105.296 87.6449 105.068C87.9268 104.95 88.1842 104.741 88.4762 104.401C88.6801 104.163 88.8493 103.929 89.0471 103.656C89.1646 103.494 89.2922 103.317 89.4431 103.118C89.6638 102.827 89.851 102.426 90.0636 101.894C90.1052 101.789 90.1487 101.677 90.1942 101.561C90.3587 101.137 90.5485 100.649 90.7674 100.222C91.4859 98.8212 92.1065 97.1987 92.5677 95.6066C92.911 94.4213 93.254 92.8813 93.286 91.4814C93.3194 90.0208 93.0097 89.0586 92.4348 88.5963C91.4812 87.8295 90.6068 87.1343 89.7274 86.7677C89.5361 86.6879 89.2953 86.5633 89.0953 86.3599C88.8925 86.1537 88.588 85.6946 88.7653 85.0983C88.9149 84.5952 89.312 84.3674 89.4913 84.2827C89.7097 84.1795 89.944 84.1275 90.1538 84.0999C90.4231 84.0645 90.6702 83.9926 91.0027 83.8958C91.0691 83.8765 91.1388 83.8562 91.2127 83.8351C91.6239 83.7173 92.143 83.5813 92.7354 83.5813C92.8263 83.5813 92.9214 83.5895 92.9863 83.5957C93.0529 83.602 93.1287 83.6103 93.201 83.6182L93.2204 83.6203C93.3852 83.6383 93.5534 83.6562 93.7147 83.6659C93.7318 83.6669 93.7484 83.6678 93.7643 83.6686C93.8173 83.4592 93.8646 83.1962 93.9094 82.8948C93.9361 82.7158 93.9633 82.5066 93.9914 82.2902C94.0497 81.8416 94.1121 81.3623 94.1814 81.0586C94.3384 80.3715 94.3791 79.5709 94.3723 78.6863C94.3691 78.267 94.3557 77.8448 94.3419 77.4145L94.34 77.3542C94.3258 76.9088 94.3118 76.4529 94.3118 76.0131C94.3118 73.3626 94.1182 70.7249 93.921 68.0381C93.9013 67.7699 93.8816 67.5013 93.862 67.2321C93.6752 64.6618 93.307 62.2215 92.8157 59.6912C92.6986 59.0878 92.5503 58.4875 92.3931 57.8513C92.3197 57.5543 92.2444 57.2495 92.1694 56.9329C91.9418 55.9719 91.729 54.9441 91.6655 53.9122C91.6284 53.3082 92.0773 52.7877 92.6681 52.7498ZM90.5039 84.7229C90.504 84.7228 90.5061 84.7239 90.51 84.7262C90.5058 84.7241 90.5038 84.7229 90.5039 84.7229Z" fill="#3A2D14"/>
<path fill-rule="evenodd" clip-rule="evenodd" d="M91.514 52.7848C91.8236 52.8016 92.0895 52.8161 92.3369 52.8161C92.9408 52.8161 93.4304 53.3236 93.4304 53.9496C93.4304 54.5757 92.9408 55.0832 92.3369 55.0832C92.0277 55.0832 91.6997 55.0652 91.3981 55.0487C91.3569 55.0465 91.3163 55.0443 91.2762 55.0421C90.9279 55.0234 90.6064 55.0092 90.2996 55.0166C89.6664 55.032 89.2576 55.14 88.9907 55.3393C88.5007 55.7053 87.8173 55.5902 87.4642 55.0823C87.1112 54.5744 87.2222 53.866 87.7121 53.5C88.5207 52.896 89.4733 52.769 90.2483 52.7502C90.6456 52.7405 91.0399 52.7594 91.3892 52.7781C91.4316 52.7803 91.4732 52.7826 91.514 52.7848Z" fill="#3A2D14"/>
<path fill-rule="evenodd" clip-rule="evenodd" d="M73.1551 52.9286C73.5075 52.4294 74.1879 52.3177 74.6747 52.6791C75.324 53.1611 75.9393 53.8318 76.5037 54.4952C76.7888 54.8303 77.04 55.1371 77.2865 55.4382C77.5827 55.8001 77.8722 56.1537 78.2055 56.538C78.7734 57.1929 79.3077 57.7403 79.8265 58.1206C80.3448 58.5005 80.7647 58.6525 81.1189 58.6525C81.7199 58.6525 82.2071 59.1521 82.2071 59.7683C82.2071 60.3846 81.7199 60.8842 81.1189 60.8842C80.1413 60.8842 79.2812 60.4642 78.5607 59.936C77.8408 59.4082 77.1777 58.7112 76.5791 58.021C76.2624 57.6559 75.9081 57.2246 75.5716 56.8151C75.3175 56.5058 75.0735 56.2089 74.8637 55.9623C74.313 55.315 73.8337 54.81 73.3984 54.4868C72.9116 54.1254 72.8026 53.4278 73.1551 52.9286Z" fill="#3A2D14"/>
<path fill-rule="evenodd" clip-rule="evenodd" d="M81.3553 44.7585C81.8792 44.452 82.5468 44.6381 82.8464 45.1741C83.4528 46.2593 83.9373 47.3869 84.3898 48.4398C84.538 48.7848 84.6828 49.1218 84.8273 49.4466C85.4288 50.7988 86.0591 52.0302 86.9945 53.1462C87.3874 53.6149 87.3346 54.3207 86.8764 54.7226C86.4183 55.1246 85.7284 55.0705 85.3355 54.6018C84.1976 53.2444 83.466 51.7844 82.838 50.3729C82.6687 49.9923 82.5089 49.6205 82.3518 49.2551C81.9116 48.2311 81.4932 47.2578 80.949 46.2839C80.6494 45.7479 80.8313 45.0649 81.3553 44.7585Z" fill="#3A2D14"/>
<path fill-rule="evenodd" clip-rule="evenodd" d="M92.0276 41.5247C92.6474 41.5247 93.1498 42.0246 93.1498 42.6414V52.1919C93.1498 52.8087 92.6474 53.3087 92.0276 53.3087C91.4077 53.3087 90.9053 52.8087 90.9053 52.1919V42.6414C90.9053 42.0246 91.4077 41.5247 92.0276 41.5247Z" fill="#3A2D14"/>
<path fill-rule="evenodd" clip-rule="evenodd" d="M84.4669 104.373C85.0783 104.373 85.5739 104.853 85.5739 105.446C85.5739 106.076 85.4467 107.118 85.2361 108.085C85.1295 108.575 84.9951 109.077 84.8317 109.519C84.6804 109.928 84.4604 110.413 84.1266 110.762C83.7113 111.197 83.0109 111.224 82.5622 110.821C82.1134 110.419 82.0863 109.74 82.5015 109.305C82.501 109.305 82.5011 109.305 82.5018 109.305C82.506 109.299 82.5352 109.263 82.5815 109.176C82.6319 109.082 82.6882 108.955 82.7472 108.795C82.8656 108.475 82.9757 108.075 83.0697 107.642C83.2605 106.766 83.3598 105.88 83.3598 105.446C83.3598 104.853 83.8555 104.373 84.4669 104.373Z" fill="#3A2D14"/>
<path fill-rule="evenodd" clip-rule="evenodd" d="M90.537 106.617C91.1203 106.617 91.5932 107.11 91.5932 107.718C91.5932 107.841 91.6124 108.087 91.6426 108.477C91.646 108.521 91.6496 108.567 91.6533 108.615C91.6869 109.05 91.7259 109.583 91.7407 110.109C91.7551 110.624 91.7485 111.189 91.6734 111.675C91.636 111.916 91.574 112.192 91.4588 112.449C91.3474 112.698 91.1316 113.05 90.7249 113.247C90.1963 113.504 89.5678 113.266 89.3211 112.716C89.1205 112.268 89.2339 111.751 89.5673 111.436C89.574 111.405 89.5811 111.368 89.5879 111.324C89.6306 111.048 89.6425 110.649 89.6292 110.173C89.6161 109.708 89.5812 109.224 89.5477 108.792C89.5438 108.741 89.5397 108.689 89.5357 108.638C89.5083 108.289 89.4808 107.938 89.4808 107.718C89.4808 107.11 89.9536 106.617 90.537 106.617Z" fill="#3A2D14"/>
<path fill-rule="evenodd" clip-rule="evenodd" d="M95.3772 106.056C95.9873 106.056 96.4819 106.539 96.4819 107.135C96.4819 107.985 96.7658 108.786 97.1347 109.779C97.1449 109.806 97.1551 109.834 97.1654 109.862C97.5072 110.781 97.9199 111.89 97.9199 113.114C97.9199 113.71 97.4253 114.193 96.8152 114.193C96.205 114.193 95.7104 113.71 95.7104 113.114C95.7104 112.296 95.4294 111.515 95.0576 110.515C95.0519 110.499 95.0462 110.484 95.0404 110.468C94.6935 109.534 94.2725 108.402 94.2725 107.135C94.2725 106.539 94.7671 106.056 95.3772 106.056Z" fill="#3A2D14"/>
<path fill-rule="evenodd" clip-rule="evenodd" d="M101.904 44.3693C102.472 44.529 102.807 45.1332 102.652 45.719C102.36 46.8227 101.866 47.9441 101.412 48.9766C101.275 49.2881 101.141 49.5914 101.018 49.8837C100.455 51.2162 100.052 52.4176 100.052 53.6122C100.052 54.2193 99.575 54.7115 98.9862 54.7115C98.3973 54.7115 97.9199 54.2193 97.9199 53.6122C97.9199 51.9356 98.4826 50.3802 99.0623 49.0066C99.2179 48.6378 99.3727 48.2856 99.5224 47.9452C99.9589 46.9521 100.352 46.0585 100.594 45.1407C100.749 44.555 101.335 44.2096 101.904 44.3693Z" fill="#3A2D14"/>
<path fill-rule="evenodd" clip-rule="evenodd" d="M109.023 53.9484C109.581 54.1695 109.85 54.79 109.623 55.3343C108.997 56.8372 107.922 57.9351 106.88 58.8484C106.513 59.1702 106.163 59.4598 105.831 59.735C105.163 60.2888 104.565 60.7844 104.035 61.3677C103.635 61.8074 102.946 61.8478 102.495 61.4581C102.044 61.0684 102.003 60.3961 102.402 59.9564C103.037 59.2587 103.831 58.5991 104.561 57.9932C104.865 57.7411 105.157 57.4984 105.422 57.266C106.389 56.4185 107.165 55.583 107.602 54.5335C107.829 53.9892 108.465 53.7272 109.023 53.9484Z" fill="#3A2D14"/>
<path d="M93.4524 58.1204L91.4039 53.0281L83.7638 56.2872L80.6634 62.3979L78.5596 73.8047V87.0448L80.6634 96.4146L83.7638 103.544L87.916 106.056L91.4039 101.507L93.4524 96.4146V89.557L91.4039 87.0448L89.3555 84.261H93.4524L95.1133 81.6809V73.8047V66.9471L93.4524 58.1204Z" fill="#3A2D14"/>
<path fill-rule="evenodd" clip-rule="evenodd" d="M92.0165 51.6252L94.5294 57.8403L96.2358 66.8623V82.002L94.0706 85.3482H91.5312L92.282 86.3633L94.5686 89.1534V96.6057L92.3765 102.027L88.1907 107.459L82.8923 104.27L79.5991 96.7355L77.4375 87.1575V73.7128L79.5965 62.0663L82.9612 55.4683L92.0165 51.6252ZM84.5435 57.1703L81.6841 62.7775L79.6196 73.9139V86.9136L81.6816 96.0502L84.6124 102.755L87.65 104.584L90.4662 100.929L92.3865 96.18V89.9355L90.5608 87.7079L87.1992 83.1628H92.8845L94.0537 81.3558V67.0675L92.4257 58.4599L90.8262 54.504L84.5435 57.1703Z" fill="#3A2D14"/>
<path d="M52.2491 48.6018L46.8573 47.136L42.9277 70.0398V101.006H49.8731L54.7166 92.852L57.8237 80.8504L58.9203 67.4746L56.0873 55.8394L52.2491 48.6018Z" fill="#EFEBD2"/>
<path fill-rule="evenodd" clip-rule="evenodd" d="M46.181 45.7332L53.102 47.6321L57.1732 55.3796L60.0425 67.2724L58.9383 80.864L55.81 93.0586L50.6369 101.847H42.0859V69.8208L46.181 45.7332ZM47.9107 48.4765L44.2503 70.0077V99.6578H49.4067L53.7926 92.2064L56.7966 80.4966L57.8567 67.4468L55.1349 56.1653L51.6309 49.4972L47.9107 48.4765Z" fill="#3A2D14"/>
<path fill-rule="evenodd" clip-rule="evenodd" d="M45.0492 46.6541C46.0648 46.3375 46.9706 46.2944 47.8854 46.2944C49.808 46.2944 51.4415 46.8351 52.8336 47.8998C54.2025 48.9467 55.2745 50.4514 56.1845 52.2805C58.1509 56.2333 59.1926 60.1575 59.5469 64.7629C60.0837 71.7417 59.6372 79.6595 57.938 86.4288C57.203 89.3567 56.1544 93.4026 54.4593 96.722C52.7917 99.9873 50.2761 102.97 46.4454 102.97C44.825 102.97 42.8448 102.887 40.9597 102.352C39.0588 101.812 37.1918 100.793 35.8976 98.8843C30.6968 91.2151 30.1379 80.5755 30.812 71.4683C31.0923 67.6815 31.6225 63.3754 32.6115 59.6924C33.2695 57.2417 34.2937 55.3672 35.7377 53.5516C36.0145 53.2036 36.2986 52.8324 36.5914 52.4498C37.5946 51.1391 38.7 49.6948 39.9622 48.5929C40.8973 47.7766 41.9182 47.584 42.8069 47.5503C42.9952 47.3989 43.2348 47.3082 43.4957 47.3082C43.5508 47.3082 43.6686 47.2846 43.9627 47.141C44.0049 47.1204 44.0561 47.0943 44.1143 47.0645C44.3537 46.9422 44.7113 46.7595 45.0492 46.6541ZM45.1692 48.9826C45.0291 49.4252 44.6136 49.7462 44.1228 49.7462C43.9195 49.7462 43.7333 49.7441 43.5614 49.7423C42.5059 49.7307 41.9933 49.725 41.4085 50.2356C40.3279 51.1789 39.4101 52.3764 38.4336 53.6503C38.1169 54.0634 37.7941 54.4847 37.4575 54.9078C36.1797 56.5146 35.3036 58.1238 34.7308 60.2567C33.7933 63.748 33.276 67.8988 32.9999 71.6288C32.332 80.6524 32.9549 90.6414 37.7157 97.6618C38.6389 99.0232 39.9954 99.8063 41.5615 100.251C43.1435 100.701 44.8739 100.785 46.4454 100.785C48.9498 100.785 50.91 98.8526 52.5037 95.7318C54.0698 92.6652 55.0679 88.8542 55.8096 85.8991C57.4413 79.3987 57.8819 71.7214 57.3595 64.9297C57.0251 60.5826 56.0511 56.9337 54.2186 53.2502C53.3908 51.5861 52.5029 50.4014 51.4973 49.6323C50.5149 48.8809 49.3592 48.4789 47.8854 48.4789C47.0432 48.4789 46.4013 48.5216 45.7048 48.7388C45.5613 48.7836 45.4382 48.846 45.2415 48.9459C45.2185 48.9576 45.1944 48.9699 45.1692 48.9826Z" fill="#3A2D14"/>
<path fill-rule="evenodd" clip-rule="evenodd" d="M46.5406 47.98C47.1488 47.942 47.6729 48.4009 47.7111 49.0049C47.7639 49.8385 47.9447 50.7143 48.1722 51.6474C48.2378 51.9167 48.3087 52.1955 48.3809 52.4794C48.5496 53.1434 48.7254 53.8347 48.8573 54.4948C49.375 57.0851 49.7698 59.617 49.9705 62.2999C49.9907 62.5703 50.0112 62.8412 50.0318 63.1126C50.2339 65.7861 50.4396 68.506 50.4396 71.2433C50.4396 71.6421 50.4527 72.0634 50.4674 72.5131L50.4697 72.5813C50.4836 73.0051 50.4983 73.4521 50.5018 73.8994C50.5092 74.835 50.4695 75.8432 50.2476 76.7872C50.1988 76.9945 50.1623 77.2724 50.116 77.6256C50.0843 77.8664 50.0481 78.1422 50.0003 78.4546C49.9478 78.7976 49.8818 79.1672 49.7918 79.5001C49.7117 79.7962 49.5748 80.2164 49.3051 80.5442C49.1044 80.788 48.8581 80.9066 48.6973 80.9658C48.5287 81.0277 48.3648 81.0569 48.2352 81.0724C47.9771 81.1033 47.706 81.0967 47.4885 81.084C47.2629 81.0708 47.0405 81.0474 46.8745 81.0297L46.859 81.0281C46.779 81.0196 46.7167 81.013 46.6649 81.0082C46.6223 81.0043 46.6042 81.0034 46.6023 81.0032C46.4847 81.0036 46.3671 81.0144 46.2424 81.0345C46.7293 81.3728 47.1836 81.7278 47.5937 82.0483C47.6176 82.067 47.6413 82.0855 47.6649 82.1039C49.1183 83.2393 49.4211 85.1438 49.383 86.7628C49.3435 88.4425 48.9303 90.195 48.5533 91.459C48.0446 93.1653 47.3551 94.9235 46.5386 96.4701C46.3721 96.7855 46.2358 97.1254 46.0751 97.5262C46.0211 97.6609 45.9643 97.8025 45.9027 97.9523C45.6784 98.498 45.3921 99.1432 44.9658 99.69C44.8741 99.8076 44.7723 99.9437 44.664 100.088C44.4233 100.41 44.1502 100.776 43.8838 101.077C43.4638 101.552 42.9315 102.032 42.2031 102.327C41.6388 102.556 40.9948 102.287 40.7646 101.726C40.5345 101.166 40.8053 100.526 41.3696 100.298C41.6598 100.18 41.9247 99.9709 42.2254 99.6308C42.4352 99.3935 42.6094 99.1597 42.813 98.8863C42.934 98.7239 43.0653 98.5476 43.2207 98.3483C43.4478 98.057 43.6406 97.6562 43.8594 97.1239C43.9023 97.0196 43.9471 96.9077 43.9938 96.7909C44.1633 96.3675 44.3586 95.8792 44.5839 95.4524C45.3236 94.0514 45.9625 92.4289 46.4372 90.8368C46.7906 89.6516 47.1437 88.1115 47.1766 86.7116C47.211 85.251 46.8922 84.2888 46.3004 83.8265C45.3188 83.0597 44.4186 82.3646 43.5134 81.9979C43.3164 81.9181 43.0686 81.7935 42.8627 81.5901C42.6539 81.3839 42.3404 80.9249 42.523 80.3285C42.677 79.8254 43.0857 79.5976 43.2703 79.5129C43.4951 79.4097 43.7363 79.3578 43.9523 79.3301C44.2295 79.2947 44.4839 79.2228 44.8262 79.126C44.8945 79.1067 44.9662 79.0865 45.0423 79.0653C45.4656 78.9476 46.0001 78.8115 46.6098 78.8115C46.7034 78.8115 46.8013 78.8198 46.8681 78.8259C46.9367 78.8322 47.0147 78.8405 47.0891 78.8484L47.1091 78.8505C47.2788 78.8685 47.4519 78.8864 47.6179 78.8961C47.6355 78.8971 47.6526 78.898 47.669 78.8988C47.7235 78.6894 47.7723 78.4264 47.8184 78.1251C47.8458 77.9461 47.8738 77.7368 47.9028 77.5204C47.9628 77.0718 48.027 76.5925 48.0984 76.2888C48.26 75.6017 48.3019 74.8011 48.2949 73.9165C48.2916 73.4972 48.2777 73.0751 48.2636 72.6447L48.2616 72.5844C48.247 72.139 48.2326 71.6831 48.2326 71.2433C48.2326 68.5929 48.0333 65.9551 47.8303 63.2683C47.81 63.0001 47.7897 62.7315 47.7696 62.4623C47.5773 59.892 47.1982 57.4517 46.6925 54.9214C46.5719 54.3181 46.4192 53.7178 46.2574 53.0816C46.1819 52.7845 46.1044 52.4797 46.0272 52.1631C45.7929 51.2021 45.5738 50.1743 45.5085 49.1424C45.4703 48.5384 45.9323 48.018 46.5406 47.98ZM44.3127 79.9531C44.3128 79.9531 44.315 79.9541 44.319 79.9564C44.3146 79.9543 44.3126 79.9531 44.3127 79.9531Z" fill="#3A2D14"/>
<path fill-rule="evenodd" clip-rule="evenodd" d="M45.22 48.015C45.5297 48.0319 45.7956 48.0463 46.0429 48.0463C46.6469 48.0463 47.1364 48.5538 47.1364 49.1798C47.1364 49.8059 46.6469 50.3134 46.0429 50.3134C45.7338 50.3134 45.4057 50.2954 45.1042 50.279C45.063 50.2767 45.0223 50.2745 44.9823 50.2723C44.6339 50.2537 44.3125 50.2394 44.0056 50.2468C43.3725 50.2622 42.9636 50.3702 42.6967 50.5695C42.2068 50.9355 41.5233 50.8205 41.1703 50.3126C40.8172 49.8046 40.9282 49.0962 41.4182 48.7302C42.2268 48.1262 43.1793 47.9992 43.9544 47.9804C44.3516 47.9707 44.746 47.9896 45.0952 48.0083C45.1376 48.0106 45.1792 48.0128 45.22 48.015Z" fill="#3A2D14"/>
<path fill-rule="evenodd" clip-rule="evenodd" d="M26.8674 48.1589C27.2305 47.6597 27.9315 47.548 28.433 47.9093C29.102 48.3913 29.736 49.0621 30.3175 49.7255C30.6112 50.0605 30.87 50.3673 31.124 50.6684C31.4292 51.0303 31.7275 51.3839 32.0709 51.7682C32.656 52.4231 33.2065 52.9705 33.741 53.3508C34.2749 53.7308 34.7076 53.8827 35.0725 53.8827C35.6918 53.8827 36.1937 54.3823 36.1937 54.9986C36.1937 55.6148 35.6918 56.1144 35.0725 56.1144C34.0653 56.1144 33.1791 55.6945 32.4368 55.1663C31.6951 54.6385 31.0119 53.9414 30.3952 53.2513C30.0689 52.8861 29.7038 52.4549 29.3572 52.0454C29.0953 51.7361 28.844 51.4392 28.6278 51.1926C28.0604 50.5452 27.5666 50.0402 27.1181 49.7171C26.6165 49.3557 26.5043 48.658 26.8674 48.1589Z" fill="#3A2D14"/>
<path fill-rule="evenodd" clip-rule="evenodd" d="M35.0613 40.2655C35.5853 39.9673 36.2529 40.1483 36.5524 40.6699C37.1589 41.7257 37.6434 42.8229 38.0958 43.8473C38.2441 44.183 38.3889 44.5109 38.5334 44.8269C39.1349 46.1425 39.7651 47.3407 40.7006 48.4265C41.0935 48.8825 41.0406 49.5692 40.5825 49.9603C40.1243 50.3514 39.4344 50.2988 39.0415 49.8427C37.9037 48.5221 37.172 47.1015 36.5441 45.7281C36.3748 45.3578 36.215 44.9961 36.0579 44.6406C35.6177 43.6442 35.1993 42.6972 34.655 41.7497C34.3555 41.2282 34.5374 40.5636 35.0613 40.2655Z" fill="#3A2D14"/>
<path fill-rule="evenodd" clip-rule="evenodd" d="M45.7336 36.7549C46.3534 36.7549 46.8559 37.2549 46.8559 37.8716V47.4222C46.8559 48.0389 46.3534 48.5389 45.7336 48.5389C45.1138 48.5389 44.6113 48.0389 44.6113 47.4222V37.8716C44.6113 37.2549 45.1138 36.7549 45.7336 36.7549Z" fill="#3A2D14"/>
<path fill-rule="evenodd" clip-rule="evenodd" d="M38.1729 99.603C38.7843 99.603 39.2799 100.083 39.2799 100.676C39.2799 101.306 39.1528 102.348 38.9422 103.316C38.8356 103.806 38.7011 104.307 38.5378 104.749C38.3865 105.159 38.1665 105.643 37.8327 105.993C37.4174 106.427 36.717 106.454 36.2682 106.051C35.8195 105.649 35.7923 104.97 36.2076 104.535C36.2071 104.536 36.2072 104.536 36.2078 104.535C36.2121 104.529 36.2412 104.493 36.2876 104.407C36.338 104.312 36.3943 104.185 36.4533 104.026C36.5717 103.705 36.6817 103.305 36.7758 102.873C36.9666 101.996 37.0659 101.11 37.0659 100.676C37.0659 100.083 37.5615 99.603 38.1729 99.603Z" fill="#3A2D14"/>
<path fill-rule="evenodd" clip-rule="evenodd" d="M44.3892 101.848C45.0373 101.848 45.5627 102.34 45.5627 102.948C45.5627 103.071 45.584 103.318 45.6176 103.707C45.6214 103.751 45.6254 103.798 45.6296 103.846C45.6669 104.28 45.7103 104.813 45.7266 105.339C45.7426 105.854 45.7353 106.42 45.6518 106.905C45.6104 107.146 45.5415 107.422 45.4134 107.68C45.2896 107.929 45.0499 108.28 44.5979 108.478C44.0106 108.735 43.3123 108.497 43.0381 107.946C42.8153 107.498 42.9414 106.982 43.3118 106.666C43.3192 106.636 43.327 106.599 43.3346 106.555C43.3821 106.279 43.3953 105.879 43.3805 105.403C43.366 104.939 43.3272 104.455 43.29 104.023C43.2856 103.972 43.2811 103.92 43.2766 103.868C43.2462 103.519 43.2156 103.168 43.2156 102.948C43.2156 102.34 43.741 101.848 44.3892 101.848Z" fill="#3A2D14"/>
<path fill-rule="evenodd" clip-rule="evenodd" d="M49.3635 101.286C49.9736 101.286 50.4682 101.769 50.4682 102.365C50.4682 103.215 50.7521 104.016 51.121 105.009C51.1312 105.037 51.1414 105.064 51.1517 105.092C51.4936 106.011 51.9062 107.12 51.9062 108.344C51.9062 108.94 51.4116 109.423 50.8015 109.423C50.1914 109.423 49.6968 108.94 49.6968 108.344C49.6968 107.527 49.4157 106.745 49.044 105.745C49.0383 105.729 49.0325 105.714 49.0268 105.698C48.6798 104.765 48.2588 103.632 48.2588 102.365C48.2588 101.769 48.7534 101.286 49.3635 101.286Z" fill="#3A2D14"/>
<path fill-rule="evenodd" clip-rule="evenodd" d="M55.6086 39.5995C56.1768 39.7592 56.5118 40.3635 56.3569 40.9492C56.0651 42.0529 55.5713 43.1744 55.1168 44.2068C54.9797 44.5183 54.8461 44.8216 54.7228 45.1139C54.1604 46.4464 53.7575 47.6478 53.7575 48.8425C53.7575 49.4495 53.2801 49.9417 52.6912 49.9417C52.1024 49.9417 51.625 49.4495 51.625 48.8425C51.625 47.1658 52.1877 45.6104 52.7674 44.2368C52.923 43.868 53.0778 43.5158 53.2275 43.1754C53.664 42.1823 54.0568 41.2887 54.2995 40.3709C54.4544 39.7852 55.0405 39.4398 55.6086 39.5995Z" fill="#3A2D14"/>
<path fill-rule="evenodd" clip-rule="evenodd" d="M62.7291 49.1814C63.2871 49.4105 63.5556 50.0531 63.3289 50.6169C62.703 52.1734 61.6279 53.3105 60.5861 54.2564C60.219 54.5897 59.8695 54.8896 59.5374 55.1747C58.8689 55.7483 58.2707 56.2616 57.7406 56.8657C57.3411 57.3211 56.6518 57.363 56.2011 56.9594C55.7504 56.5557 55.7089 55.8594 56.1085 55.4041C56.7426 54.6814 57.5371 53.9983 58.267 53.3707C58.5707 53.1096 58.8631 52.8582 59.1282 52.6175C60.0949 51.7398 60.8712 50.8744 61.3083 49.7874C61.535 49.2237 62.1711 48.9524 62.7291 49.1814Z" fill="#3A2D14"/>
<path d="M47.4109 53.3506L45.3277 48.2583L37.558 51.5174L34.4051 57.6282L32.2656 69.035V82.275L34.4051 91.6449L37.558 98.7741L41.7807 101.286L45.3277 96.7372L47.4109 91.6449V84.7872L45.3277 82.275L43.2445 79.4912H47.4109L49.0999 76.9111V69.035V62.1773L47.4109 53.3506Z" fill="#3A2D14"/>
<path fill-rule="evenodd" clip-rule="evenodd" d="M45.9402 46.8555L48.4906 53.0705L50.2224 62.0926V77.2322L48.025 80.5785H45.4476L46.2096 81.5936L48.5304 84.3836V91.8359L46.3055 97.2576L42.0572 102.689L36.6798 99.5L33.3374 91.9657L31.1436 82.3878V68.943L33.3348 57.2965L36.7497 50.6985L45.9402 46.8555ZM38.3556 52.4006L35.4535 58.0077L33.3582 69.1442V82.1439L35.451 91.2804L38.4256 97.9855L41.5084 99.814L44.3668 96.1595L46.3157 91.4102V85.1657L44.4627 82.9381L41.051 78.393H46.8211L48.0077 76.586V62.2977L46.3554 53.6901L44.7321 49.7342L38.3556 52.4006Z" fill="#3A2D14"/>
<path fill-rule="evenodd" clip-rule="evenodd" d="M38.7604 117.297C39.515 117.176 40.2255 117.685 40.3473 118.435C40.4118 118.832 40.6759 119.341 41.1542 120.037C41.2659 120.2 41.3976 120.383 41.5378 120.578C41.8991 121.081 42.3167 121.662 42.5943 122.172C43.5776 123.98 44.3407 125.966 44.5323 128.207C44.5872 128.849 44.6639 129.567 44.7451 130.328C44.8942 131.724 45.0586 133.262 45.131 134.734C45.2445 137.042 45.16 139.499 44.4036 141.615C44.1478 142.331 43.3565 142.705 42.6362 142.451C41.9159 142.197 41.5393 141.411 41.7951 140.695C42.3665 139.097 42.4748 137.077 42.3662 134.868C42.2967 133.456 42.1498 132.09 42.0067 130.758C41.9223 129.974 41.8393 129.202 41.7741 128.44C41.6244 126.688 41.0249 125.072 40.159 123.48C39.9656 123.124 39.7186 122.782 39.4134 122.358C39.2486 122.13 39.0669 121.878 38.8676 121.587C38.3776 120.874 37.7854 119.925 37.6146 118.873C37.4928 118.124 38.0058 117.418 38.7604 117.297Z" fill="#3A2D14"/>
<path fill-rule="evenodd" clip-rule="evenodd" d="M91.7009 117.853C92.4399 117.955 92.9571 118.644 92.8562 119.391C92.579 121.443 91.5281 123.201 90.6363 124.693C90.5687 124.806 90.502 124.918 90.4366 125.028C89.4523 126.685 88.6961 128.092 88.612 129.719C88.5493 130.934 88.5072 132.342 88.6613 133.65C88.8194 134.991 89.1613 136.006 89.6916 136.61C90.1867 137.174 90.136 138.038 89.5783 138.539C89.0205 139.039 88.167 138.988 87.6718 138.424C86.5894 137.191 86.1589 135.495 85.9795 133.973C85.7961 132.417 85.8512 130.809 85.9149 129.577C86.0382 127.189 87.1566 125.245 88.1215 123.621C88.1627 123.552 88.2036 123.483 88.2441 123.415C89.2088 121.793 89.9813 120.494 90.1802 119.021C90.2811 118.274 90.962 117.751 91.7009 117.853Z" fill="#3A2D14"/>
<path fill-rule="evenodd" clip-rule="evenodd" d="M88.2917 128.287C88.5581 129.011 88.1989 129.817 87.4895 130.089C85.911 130.693 83.9741 130.713 82.6039 130.727C82.5366 130.728 82.4707 130.729 82.4063 130.73C80.1939 130.755 77.9719 130.746 75.7624 130.738C74.6635 130.734 73.5676 130.73 72.4775 130.73H44.0185C43.2608 130.73 42.6465 130.103 42.6465 129.331C42.6465 128.558 43.2608 127.932 44.0185 127.932H72.4775C73.5899 127.932 74.6969 127.936 75.801 127.94C77.9977 127.949 80.1827 127.957 82.3754 127.932C83.9093 127.914 85.4159 127.894 86.525 127.469C87.2344 127.198 88.0254 127.564 88.2917 128.287Z" fill="#3A2D14"/>
<path fill-rule="evenodd" clip-rule="evenodd" d="M61.1518 118.74C61.9313 119.452 62.5366 120.416 62.9981 121.248C63.2857 121.766 63.5498 122.296 63.7866 122.784C64.2305 123.143 64.6229 123.568 64.9648 124.044C65.3191 124.537 65.6166 125.081 65.8661 125.658C65.9923 125.073 66.1712 124.497 66.4075 123.949C66.2711 123.989 66.1228 124.009 65.9646 124.003C65.5556 123.987 65.2784 123.799 65.1795 123.726C65.0578 123.636 64.9737 123.544 64.9292 123.493C64.7764 123.316 64.6618 123.1 64.6065 122.995C64.4619 122.721 64.2886 122.337 64.1275 121.97C64.0365 121.763 63.9583 121.583 63.8829 121.409C63.8043 121.228 63.7288 121.053 63.6448 120.863C63.5716 120.697 63.5073 120.555 63.4537 120.441C63.427 120.385 63.4051 120.34 63.3878 120.306C63.3721 120.275 63.3645 120.262 63.3639 120.261C63.3638 120.26 63.3639 120.261 63.3643 120.261C62.8817 119.455 62.113 118.952 61.1518 118.74ZM72.3424 120.24C72.5735 120.159 72.8045 120.084 73.0348 120.017C73.4051 119.91 73.6471 119.926 73.8127 119.97C73.9837 120.016 74.1716 120.117 74.389 120.324C74.8718 120.783 75.3046 121.557 75.8276 122.627C78.094 127.263 78.863 133.964 77.0327 138.847C76.5558 140.119 75.8885 141.705 75.0634 143.082C74.9701 143.238 74.8765 143.388 74.7826 143.533C75.536 142.208 76.1405 140.658 76.2379 140.399C77.6868 136.546 77.8543 131.152 76.875 127.145C76.5746 125.917 76.053 124.097 75.1837 122.649C74.7474 121.923 74.1663 121.191 73.3894 120.701C73.0648 120.496 72.7143 120.339 72.3424 120.24ZM72.243 145.94C72.1564 145.954 72.0663 145.963 71.9729 145.965C71.5695 145.976 71.2199 145.86 70.9301 145.678C70.8568 145.855 70.7671 146.029 70.657 146.194C70.6154 146.256 70.571 146.317 70.5239 146.376C71.13 146.286 71.7032 146.147 72.243 145.94ZM66.4937 146.474C66.1449 146.169 65.8852 145.812 65.6881 145.458C65.5316 145.177 65.4019 144.874 65.2923 144.566C64.2802 144.098 63.4413 143.206 62.819 142.402C62.8002 142.378 62.7815 142.353 62.7629 142.329C62.7863 142.396 62.8098 142.464 62.8334 142.531C62.8931 142.701 63.0185 142.977 63.1671 143.304C63.2391 143.462 63.3166 143.632 63.3947 143.809C63.483 144.008 63.6147 144.308 63.6767 144.538C63.6903 144.589 63.7338 144.751 63.7347 144.95C63.7351 145.041 63.7299 145.283 63.6027 145.555C63.4821 145.813 63.2554 146.078 62.9247 146.229C63.4315 146.344 63.9593 146.405 64.5085 146.412C65.1393 146.42 65.7244 146.443 66.2942 146.466C66.3609 146.469 66.4274 146.471 66.4937 146.474ZM60.6822 145.29C60.6375 145.25 60.5913 145.21 60.543 145.168C60.4018 145.044 60.2432 144.906 60.0558 144.734C57.5174 142.401 55.9741 138.843 55.1311 135.219C54.4393 132.244 54.1912 129.106 54.3006 126.315C53.9475 126.866 53.7243 127.583 53.695 128.537C53.5605 132.927 55.3407 138.183 57.5668 141.905C58.4612 143.4 59.4976 144.533 60.6822 145.29ZM57.1891 124.545C57.1805 124.617 57.1727 124.686 57.1659 124.752C56.8676 127.661 57.0327 131.253 57.8105 134.597C57.9272 135.099 58.0567 135.591 58.1992 136.071C57.579 133.044 57.2099 129.916 57.2714 127.006C57.281 126.554 57.3947 125.454 57.7215 124.564C57.7372 124.522 57.7549 124.475 57.7747 124.426C57.5756 124.46 57.3801 124.5 57.1891 124.545ZM64.9055 131.275C65.2225 132.556 65.4317 133.921 65.6299 135.213C65.6637 135.434 65.6972 135.653 65.7309 135.869C65.7408 135.901 65.7507 135.934 65.7606 135.966C66.3299 137.824 66.9203 139.751 67.3832 141.692C67.4693 141.843 67.56 141.99 67.6557 142.134C67.7954 142.343 67.9658 142.649 68.024 143.019C68.0602 143.25 68.0523 143.539 67.9502 143.824C67.994 143.931 68.0406 144.03 68.0911 144.121C68.1999 144.316 68.2912 144.401 68.3505 144.441C68.3696 144.454 68.3959 144.469 68.4344 144.482C68.4544 144.402 68.4722 144.302 68.4849 144.183C68.5539 143.536 68.4357 142.706 68.2782 142.219C68.0494 141.511 67.7894 140.8 67.5241 140.074C66.8376 138.196 66.1152 136.22 65.8036 133.948C65.6883 133.107 65.6383 132.25 65.6195 131.405C65.3934 131.424 65.194 131.384 65.043 131.331C64.9944 131.314 64.9485 131.295 64.9055 131.275ZM60.3717 126.794C60.2829 126.636 60.1923 126.486 60.0999 126.345C60.098 126.357 60.0961 126.369 60.0942 126.381C60.0452 126.688 60.0253 126.941 60.0219 127.051C60.1139 126.961 60.2292 126.87 60.3717 126.794ZM60.4 125.302C60.4001 125.302 60.3989 125.304 60.3965 125.307C60.3988 125.303 60.4 125.302 60.4 125.302ZM59.3701 125.457C59.3673 125.455 59.3659 125.454 59.3659 125.454C59.3659 125.454 59.3673 125.455 59.3701 125.457ZM59.9169 121.492C59.9004 121.493 59.8838 121.493 59.8673 121.493C59.247 121.504 58.5768 121.541 57.8915 121.63C57.9447 121.498 58.0009 121.371 58.06 121.25C58.3215 120.715 58.5488 120.499 58.6576 120.438C58.6859 120.422 58.694 120.423 58.7004 120.423C58.701 120.423 58.7015 120.423 58.7021 120.423C58.7178 120.424 58.8082 120.431 58.9877 120.535C59.265 120.695 59.5774 121.017 59.9169 121.492ZM54.7634 122.481C54.5834 122.564 54.4064 122.654 54.233 122.751C54.0227 122.869 53.8193 122.997 53.6236 123.134C54.006 122.054 54.59 121.116 55.4583 120.324C55.1543 121.011 54.9279 121.768 54.7634 122.481ZM50.9383 129.219C50.5118 128.985 50.2227 128.533 50.2227 128.013C50.2227 124.446 50.7449 120.739 53.832 118.092C55.361 116.782 57.6162 115.933 59.7953 115.879C61.9953 115.825 64.3742 116.594 65.7253 118.851C65.8583 119.073 66.0241 119.443 66.1619 119.755C66.2278 119.904 66.3113 120.096 66.3958 120.291C68.1677 119.046 70.1965 117.982 72.2649 117.38C73.0447 117.153 73.8021 117.124 74.5205 117.315C75.2335 117.505 75.8143 117.886 76.2855 118.334C77.1798 119.184 77.8038 120.407 78.2995 121.421C80.8279 126.593 81.7548 134.085 79.6088 139.811C79.1084 141.146 78.3733 142.908 77.4241 144.493C76.5064 146.025 75.2469 147.638 73.5995 148.353C72.0397 149.031 70.399 149.223 68.8596 149.258C67.9466 149.279 66.9487 149.241 66.0235 149.206C65.4698 149.185 64.9421 149.165 64.4741 149.159C60.3934 149.108 57.3152 146.84 55.2055 143.314C52.9153 139.486 50.9926 134.086 50.9383 129.219ZM62.2429 133.8C62.3108 134.03 62.3773 134.258 62.4433 134.485C62.5448 134.833 62.6449 135.177 62.7468 135.513C62.8447 135.837 62.9432 136.159 63.0417 136.481C63.0863 136.761 63.133 137.045 63.1828 137.334C63.2111 137.497 63.2404 137.662 63.2709 137.827C62.7065 136.56 62.3949 135.228 62.2429 133.8ZM68.4757 133.139C68.4806 132.677 68.488 132.218 68.4953 131.764C68.5074 131.013 68.5193 130.276 68.5193 129.563C68.5193 129.414 68.571 127.668 68.7705 126.058C68.8099 125.739 68.8574 125.406 68.9159 125.078C68.5635 125.915 68.3811 126.906 68.3811 127.893C68.3811 128.36 68.3759 128.816 68.3708 129.262C68.3553 130.616 68.3407 131.885 68.4757 133.139ZM73.4242 125.294C73.5399 125.898 73.5889 126.483 73.6199 126.884C73.8018 129.237 73.9183 131.622 73.9183 134.002C73.9183 134.273 73.9262 134.599 73.9348 134.948C73.9495 135.547 73.9659 136.216 73.9468 136.797C73.914 137.794 73.7828 138.902 73.3185 139.946C73.0353 140.584 72.3263 140.899 71.6745 140.708C71.6914 140.819 71.7093 140.931 71.7283 141.043C71.8345 141.666 71.9651 142.199 72.1174 142.628C72.2002 142.5 72.2887 142.355 72.3819 142.191C73.0302 141.056 73.5793 139.655 73.6628 139.433C74.8951 136.156 75.0666 131.332 74.2027 127.797C74.0132 127.022 73.7578 126.123 73.4242 125.294ZM71.571 143.307C71.571 143.307 71.575 143.304 71.5828 143.299C71.5749 143.305 71.571 143.307 71.571 143.307ZM71.8788 124.594C71.8789 124.595 71.8764 124.6 71.8711 124.609C71.876 124.598 71.8787 124.594 71.8788 124.594Z" fill="#3A2D14"/>
<path fill-rule="evenodd" clip-rule="evenodd" d="M64.8794 146.726C65.1975 146.882 65.6073 147.081 65.9909 147.216C66.7206 147.472 67.5342 147.126 67.8081 146.444C68.0821 145.761 67.7126 145 66.983 144.743C66.7594 144.665 66.5604 144.567 66.2873 144.433C66.1632 144.373 66.0239 144.304 65.8599 144.227C65.4139 144.016 64.7928 143.746 64.081 143.671C64.0788 143.671 64.0764 143.67 64.0739 143.67C63.9843 143.661 63.7432 143.635 63.4983 143.673C63.4236 143.684 63.267 143.713 63.089 143.794C62.9215 143.871 62.5614 144.075 62.3811 144.517C62.1873 144.993 62.3345 145.405 62.4537 145.616C62.5651 145.812 62.7028 145.936 62.764 145.988C62.9591 146.153 63.1862 146.249 63.2366 146.27C63.2394 146.271 63.2416 146.272 63.2432 146.273C63.3404 146.314 63.4447 146.353 63.537 146.386C63.8765 146.507 64.3763 146.657 64.5295 146.691C64.6468 146.717 64.7642 146.728 64.8794 146.726ZM64.4173 143.871C64.3832 143.857 64.3908 143.857 64.4233 143.874C64.421 143.873 64.419 143.872 64.4173 143.871ZM63.7415 146.293C63.7274 146.292 63.7194 146.292 63.719 146.292C63.7185 146.291 63.7256 146.292 63.7415 146.293Z" fill="#3A2D14"/>
<path d="M52.4668 130.871V123.741L57.9815 118.682H62.8068L66.7131 122.132L72.6873 118.682L77.5126 122.132L79.1211 130.871L77.5126 140.53L70.6193 146.739H59.8197L55.6837 140.53L52.4668 130.871Z" fill="#3A2D14"/>
<path fill-rule="evenodd" clip-rule="evenodd" d="M72.7632 116.998L78.7696 121.298L80.5245 130.844L78.7954 141.24L71.1433 148.142H59.0656L54.4136 141.149L51.0645 131.08V123.103L57.4274 117.258H63.3158L66.8733 120.403L72.7632 116.998ZM58.501 120.024L53.8244 124.32V130.632L56.915 139.923L60.5427 145.376H70.0842L76.2317 139.832L77.7225 130.868L76.2575 122.898L72.6042 120.283L66.5345 123.792L62.2723 120.024H58.501Z" fill="#3A2D14"/>
</svg>
